<svg id="Layer_1" data-name="Layer 1" xmlns="http://www.w3.org/2000/svg" width="705" height="840" viewBox="0 0 43 56">
  <defs>
    <style>
      .cls-1 {
        fill: #231f20;
      }
    </style>
  </defs>
  <title>a</title>
  <g>
    <path class="cls-1" d="M21.8,25.139H20.254V28.21H21.8A1.541,1.541,0,1,0,21.8,25.139Z"/>
    <path class="cls-1" d="M9.113,8.719L0,17.832V47.281H33.23L43,37.51V8.719H9.113Zm8.233,20.1a3.148,3.148,0,0,1-3.406,3.314c-2.235,0-3.646-1.591-3.646-4.139,0-2.515,1.427-4.133,3.636-4.133a3.16,3.16,0,0,1,3.361,2.613H16.06a2.058,2.058,0,0,0-2.131-1.47c-1.46,0-2.383,1.153-2.383,2.979,0,1.859.928,3.007,2.41,3.007a1.985,1.985,0,0,0,2.187-1.957v-0.17H14.109V27.838h3.236v0.984Zm4.735,0.465H20.254v2.657H19.029V24.055h3.089A2.616,2.616,0,1,1,22.081,29.287Zm10.626-.06a2.88,2.88,0,0,1-3.2,2.908,2.876,2.876,0,0,1-3.192-2.908V24.055H27.54v5.063a1.787,1.787,0,0,0,1.968,1.868,1.789,1.789,0,0,0,1.974-1.868V24.055h1.224v5.172Z"/>
  </g>
</svg>
