<?xml version="1.0" encoding="UTF-8"?>
<svg width="322px" height="322px" viewBox="0 0 322 322" version="1.1" xmlns="http://www.w3.org/2000/svg" xmlns:xlink="http://www.w3.org/1999/xlink" xmlns:sketch="http://www.bohemiancoding.com/sketch/ns">
    <!-- Generator: Sketch 3.4.2 (15855) - http://www.bohemiancoding.com/sketch -->
    <title>Slice 1</title>
    <desc>Created with Sketch.</desc>
    <defs>
        <linearGradient x1="50%" y1="0%" x2="50%" y2="99.6352838%" id="linearGradient-1">
            <stop stop-color="#F90EBD" offset="0%"></stop>
            <stop stop-color="#FF2E23" offset="100%"></stop>
        </linearGradient>
    </defs>
    <g id="Page-1" stroke="none" stroke-width="1" fill="none" fill-rule="evenodd" sketch:type="MSPage">
        <path d="M316,161 C316,84.6041397 260.730729,21.1171094 187.995994,8.3427174 M158.941355,6.01339143 C98.9433034,6.7943705 47.1675774,41.6645954 22.0965168,92.1417268 M11.9666073,118.263157 C8.08092994,131.838623 6,146.176298 6,161 C6,178.98106 9.061785,196.247003 14.6924401,212.304912 M287.18692,134.469227 C274.955061,75.9965733 223.106128,32.0803059 161,32.0803059 C143.81072,32.0803059 127.407174,35.444429 112.411838,41.5501971 M86.5246048,55.7555327 C53.5809255,79.1102432 22.5965589,128.661842 35.0439771,188.562141 M33.8267141,248.386376 C36.1755719,237.909571 37.414914,227.013475 37.414914,215.827916 C37.414914,206.296133 36.5149523,196.974548 34.7953652,187.943497 M261.428632,138.761825 C255.233227,110.656646 237.540797,86.8659411 213.53473,72.5731016 M187.908507,61.7167894 C179.331595,59.3978172 170.31028,58.1606119 161,58.1606119 C104.203374,58.1606119 58.1606119,104.203374 58.1606119,161 C58.1606119,161 57.5678776,165.445507 60.5315488,184.413002 M221.671354,112.464994 C207.435892,94.8861682 185.678516,83.6481836 161.296367,83.6481836 C118.412459,83.6481836 83.6481836,118.412459 83.6481836,161.296367 C83.6481836,161.296367 84.2409178,175.521989 86.6118547,183.820268 M212.170683,152.49744 C208.113887,127.898556 186.748087,109.135755 161,109.135755 C154.889354,109.135755 149.02553,110.192529 143.581318,112.133288 M121.477676,127.414384 C113.780435,136.463354 109.135755,148.189265 109.135755,161 C109.135755,161 109.728489,175.52199 112.692161,183.820269 M185.689656,155.707152 C183.376286,144.352679 173.334092,135.808795 161.296367,135.808795 C147.547328,135.808795 136.40153,146.954594 136.40153,160.703633 C136.40153,160.703633 136.40153,165.445507 137.586998,171.372849 M296.073123,235.752702 C296.316715,230.129418 296.439771,224.474873 296.439771,218.791587 C296.439771,216.187079 296.413927,213.588608 296.362482,210.996414 M294.715669,182.1035 C293.188697,165.939017 290.663026,150.065265 287.201024,134.544608 M265.770817,275.478937 C268.790111,256.831726 270.359465,237.698561 270.359465,218.198853 C270.359465,190.911412 267.286269,164.341755 261.467111,138.817112 M233.667322,296.69141 C240.969372,270.390989 244.871893,242.676093 244.871893,214.049713 C244.871893,188.147957 241.676893,162.992433 235.6595,138.955748 M201.622616,310.242975 C212.360568,279.57517 218.198853,246.605142 218.198853,212.271511 C218.198853,191.871025 216.137621,171.951966 212.212061,152.711236 M172.657803,314.844551 C181.64755,292.682368 187.744314,269.03771 190.479571,244.379104 M192.118547,214.642447 C192.118547,194.361404 189.855029,174.609033 185.566839,155.62418 M145.15814,314.718082 C145.15814,314.718082 149.937135,302.796361 152.007607,296.681756 M159.394134,270.511886 C163.742202,251.402214 166.038241,231.512262 166.038241,211.086042 C166.038241,194.066216 164.444148,177.41871 161.397123,161.284683 M118.643003,308.984254 C132.702974,278.681989 140.550669,244.911378 140.550669,209.307839 C140.550669,196.353306 139.511708,183.641436 137.512566,171.251007 M94.3173996,299.996172 C107.357553,274.5086 115.063098,244.682232 115.063098,214.049713 C115.063098,203.681617 114.175752,193.520772 112.472862,183.638978 M88.2351578,229.279934 C88.7299398,223.874376 88.9827916,218.398839 88.9827916,212.864245 C88.9827916,202.67536 88.1258567,192.686623 86.4801277,182.966175 M72.7008887,287.299915 C77.0420195,277.894545 80.5859015,268.045606 83.2458772,257.839756 M52.5192196,270.121308 C59.5949537,252.824931 63.4952199,233.8928 63.4952199,214.049713 C63.4952199,203.822394 62.4591253,193.837067 60.4861734,184.192971" id="Touch-ID" stroke="url(#linearGradient-1)" stroke-width="11.8546845" stroke-linecap="round" sketch:type="MSShapeGroup"></path>
    </g>
</svg>