<?xml version="1.0" encoding="utf-8"?>
<!-- Generator: Adobe Illustrator 19.2.1, SVG Export Plug-In . SVG Version: 6.00 Build 0)  -->
<svg version="1.1" id="Layer_1" xmlns="http://www.w3.org/2000/svg" xmlns:xlink="http://www.w3.org/1999/xlink" x="0px" y="0px"
	 width="96px" height="96px" viewBox="0 0 96 96" style="enable-background:new 0 0 96 96;" xml:space="preserve">
<style type="text/css">
	.st0{fill:url(#SVGID_1_);}
</style>
<g>
	<g>
		<linearGradient id="SVGID_1_" gradientUnits="userSpaceOnUse" x1="48" y1="86.3249" x2="48" y2="10.4557">
			<stop  offset="0" style="stop-color:#1F9DCC"/>
			<stop  offset="1" style="stop-color:#6FCFD3"/>
		</linearGradient>
		<path class="st0" d="M45.5,86.3l0.8,0l0.8-4.8c0.3,0,0.6,0,0.9,0c0.3,0,0.6,0,1,0l0.9,4.8l0.8-0.1l0.2-4.9
			c0.6-0.1,1.3-0.1,1.9-0.2l1.5,4.7l0.8-0.1l-0.3-4.9c0.6-0.1,1.2-0.3,1.9-0.4l2,4.5l0.8-0.2l-0.9-4.8c0.6-0.2,1.2-0.4,1.8-0.7
			l2.5,4.2l0.7-0.3l-1.4-4.7c0.6-0.3,1.2-0.6,1.7-0.9l3,3.9l0.7-0.4l-2-4.5c0.5-0.3,1.1-0.7,1.6-1.1l3.4,3.5l0.6-0.5l-2.5-4.2
			c0.5-0.4,1-0.8,1.5-1.2l3.8,3.1l0.6-0.5l-2.9-3.9c0.5-0.5,0.9-0.9,1.3-1.4l4.1,2.6l0.5-0.6l-3.4-3.5c0.4-0.5,0.8-1,1.1-1.5
			l4.4,2.2l0.4-0.7l-3.7-3.1c0.3-0.5,0.7-1.1,1-1.7l4.6,1.6l0.4-0.7l-4.1-2.7c0.3-0.6,0.5-1.2,0.8-1.8l4.8,1.1l0.3-0.7l-4.4-2.2
			c0.2-0.6,0.4-1.2,0.6-1.8l4.9,0.5l0.2-0.8L80.8,55c0.1-0.6,0.2-1.3,0.3-1.9l4.9,0l0.1-0.8l-4.8-1.1c0.1-0.6,0.1-1.3,0.1-1.9
			l4.9-0.6v-0.8l-4.9-0.6c0-1-0.1-1.9-0.2-2.8l4.7-1.3l-0.1-0.8l-4.9,0.1c-0.1-0.6-0.2-1.3-0.4-1.9l4.5-1.8L85,38l-4.8,0.7
			c-0.2-0.6-0.4-1.2-0.6-1.8l4.3-2.3l-0.3-0.7L78.9,35c-0.2-0.6-0.5-1.2-0.8-1.7l4-2.8l-0.4-0.7l-4.5,1.8c-0.3-0.6-0.6-1.1-1-1.6
			l3.6-3.3L79.4,26l-4.3,2.3c-0.4-0.5-0.8-1-1.2-1.5l3.2-3.7l-0.5-0.6l-4,2.8c-0.4-0.5-0.9-0.9-1.3-1.4l2.8-4l-0.6-0.5l-3.7,3.2
			c-0.5-0.4-1-0.8-1.5-1.2l2.3-4.3L70,16.6l-3.3,3.6c-0.5-0.4-1.1-0.7-1.6-1l1.8-4.6l-0.7-0.4l-2.8,4c-0.6-0.3-1.1-0.6-1.7-0.8
			l1.3-4.7l-0.7-0.3l-2.3,4.3c-0.6-0.2-1.2-0.4-1.8-0.6l0.7-4.8L58,11l-1.8,4.5c-0.6-0.2-1.2-0.3-1.9-0.4l0.1-4.9l-0.8-0.1l-1.3,4.7
			c-0.6-0.1-1.3-0.1-1.9-0.2L50,9.7l-0.8,0l-0.7,4.8c-0.2,0-0.3,0-0.5,0c-0.5,0-1,0-1.4,0l-1-4.8l-0.8,0.1l-0.2,4.9
			c-0.6,0.1-1.3,0.1-1.9,0.2l-1.5-4.6l-0.8,0.2l0.4,4.9c-0.6,0.1-1.2,0.3-1.9,0.5l-2.1-4.4l-0.8,0.2l0.9,4.8
			c-0.6,0.2-1.2,0.4-1.8,0.7l-2.6-4.2L32,13.2l1.5,4.6c-0.6,0.3-1.1,0.6-1.7,0.9l-3-3.8L28,15.3l2,4.4c-0.5,0.3-1.1,0.7-1.6,1.1
			L25,17.3l-0.6,0.5l2.5,4.2c-0.5,0.4-1,0.8-1.5,1.2l-3.8-3l-0.6,0.6l3,3.9c-0.4,0.5-0.9,0.9-1.3,1.4l-4.2-2.6L18.1,24l3.4,3.5
			c-0.4,0.5-0.8,1-1.1,1.5L15.9,27l-0.4,0.7l3.8,3.1c-0.3,0.5-0.6,1.1-0.9,1.7l-4.6-1.6l-0.3,0.7l4.1,2.6c-0.3,0.6-0.5,1.2-0.7,1.8
			l-4.8-1l-0.3,0.8l4.4,2.1c-0.2,0.6-0.4,1.2-0.5,1.8l-4.9-0.5l-0.2,0.8l4.6,1.6c-0.1,0.6-0.2,1.3-0.3,1.9l-4.9,0.1l-0.1,0.8
			l4.8,1.1c0,0.6-0.1,1.3-0.1,1.9l-4.9,0.7l0,0.8l4.9,0.5c0,0.6,0.1,1.3,0.1,1.9l-4.7,1.2l0.1,0.8l4.9-0.1c0.1,0.6,0.2,1.3,0.3,1.9
			l-4.6,1.8l0.2,0.8l4.8-0.6c0.2,0.6,0.4,1.2,0.6,1.8L11.9,61l0.3,0.7l4.7-1.2c0.2,0.6,0.5,1.2,0.8,1.8l-4,2.8l0.4,0.7l4.6-1.7
			c0.3,0.6,0.6,1.1,1,1.7L15.9,69l0.4,0.7l4.3-2.2c0.4,0.5,0.8,1,1.1,1.5l-3.3,3.6l0.5,0.6l4-2.7c0.4,0.5,0.9,0.9,1.3,1.4l-2.9,4
			l0.6,0.5l3.7-3.2c0.5,0.4,1,0.8,1.5,1.2l-2.4,4.3l0.6,0.5l3.3-3.6c0.5,0.4,1.1,0.7,1.6,1.1l-1.9,4.5l0.7,0.4l2.9-3.9
			c0.6,0.3,1.1,0.6,1.7,0.9l-1.3,4.7l0.7,0.3l2.4-4.2c0.6,0.2,1.2,0.5,1.8,0.7l-0.8,4.8l0.8,0.2l1.9-4.5c0.6,0.2,1.2,0.3,1.9,0.4
			L41,85.7l0.8,0.1l1.4-4.7c0.6,0.1,1.3,0.2,1.9,0.2L45.5,86.3z M49.5,48c0,0.8-0.7,1.5-1.5,1.5c-0.8,0-1.5-0.7-1.5-1.5
			c0-0.8,0.7-1.5,1.5-1.5C48.8,46.5,49.5,47.2,49.5,48z M42.3,18.8c1.9-0.4,3.8-0.6,5.7-0.6c12.9,0,23.9,8.2,28,19.6
			c1.1,3.5,0.6,8.4-4.3,8.4c-3.3,0-13.2,0-19.1,0c-0.4,0-0.8,0-1.1-0.1l0,0c0,0-1.1-0.2-2.3-1c-0.6-0.4-0.9-0.7-1.1-0.9
			c-0.3-0.3-0.6-0.7-0.9-1.1c-3-5.1-8-13.7-9.7-16.5C35.1,22.5,38.8,19.6,42.3,18.8z M25.3,67.3c-4.4-5.2-7.1-11.9-7.1-19.3
			c0-7.4,2.7-14.1,7.1-19.3c2.5-2.6,6.7-4.4,9.1-0.2c1.7,2.8,6.7,11.4,9.7,16.5c0.2,0.3,0.3,0.6,0.4,0.9c0,0,0,0,0,0c0,0,0,0,0,0
			c0.1,0.2,0.3,1.2,0.3,2.4c0,0.8-0.2,1.4-0.2,1.7c-0.1,0.4-0.3,0.8-0.5,1.2c-3,5.1-7.9,13.7-9.5,16.6C32.2,71.9,27.8,70,25.3,67.3z
			 M42.9,77.4c-3.6-0.7-7.7-3.6-5.2-7.9c1.6-2.8,6.6-11.4,9.5-16.6c0.2-0.4,0.6-0.8,0.9-1.1c0,0,0,0,0,0c0.1-0.1,0.1-0.1,0.2-0.2
			c0.1-0.1,0.1-0.1,0.2-0.2c0.1,0,0.1-0.1,0.2-0.1c0,0,0.1,0,0.1-0.1c1.3-0.9,2.6-1.2,2.6-1.2l0,0c0.4-0.1,0.7-0.1,1.1-0.1
			c5.9,0,15.8,0,19.1,0c5.1,0,5.5,5.1,4.2,8.6C71.7,69.7,60.8,77.8,48,77.8C46.3,77.8,44.6,77.7,42.9,77.4z"/>
	</g>
</g>
</svg>
