<?xml version="1.0" encoding="utf-8"?>
<!-- Generator: Adobe Illustrator 19.2.1, SVG Export Plug-In . SVG Version: 6.00 Build 0)  -->
<svg version="1.1" id="Layer_1" xmlns="http://www.w3.org/2000/svg" xmlns:xlink="http://www.w3.org/1999/xlink" x="0px" y="0px"
	 width="96px" height="96px" viewBox="0 0 96 96" enable-background="new 0 0 96 96" xml:space="preserve">
<linearGradient id="SVGID_1_" gradientUnits="userSpaceOnUse" x1="28.7" y1="78.0921" x2="28.7" y2="17.117">
	<stop  offset="0" style="stop-color:#1F9DCC"/>
	<stop  offset="1" style="stop-color:#6FCFD3"/>
</linearGradient>
<path fill="url(#SVGID_1_)" d="M43.8,59.8c-0.1-0.8-0.5-2.5-1.5-3.4c-1.2-1.1-4.4-2.5-7.4-4c-2.4-1.2-2.8-2.1-2.9-3
	c4.1-0.3,5.2-1.3,5.2-1.3c-1.7-4.5-1.5-8.3-1.5-11.1c0-2.9-2-6.3-6.9-6.3s-7.1,3.2-7.1,6.2c0,2.8,0.2,6.7-1.5,11.1
	c0,0,1.1,0.9,5.2,1.3c-0.1,1-0.6,1.8-2.9,3c-3,1.5-6.2,2.9-7.4,4c-1,0.9-1.4,2.6-1.5,3.4c-0.1,0.7-0.5,3.3,0.3,4s6.6,0.8,14.8,0.8
	c8.3,0,14-0.2,14.8-0.8C44.3,63.2,43.9,60.4,43.8,59.8z"/>
<g>
	
		<linearGradient id="SVGID_2_" gradientUnits="userSpaceOnUse" x1="48.05" y1="17.8674" x2="48.05" y2="78.8451" gradientTransform="matrix(1 0 0 -1 0 98)">
		<stop  offset="0" style="stop-color:#1F9DCC"/>
		<stop  offset="1" style="stop-color:#6FCFD3"/>
	</linearGradient>
	<path fill="url(#SVGID_2_)" d="M89.2,78.1H6.9c-1.7,0-3-1.3-3-3V20.9c0-1.7,1.3-3,3-3h82.3c1.7,0,3,1.3,3,3v54.3
		C92.2,76.8,90.9,78.1,89.2,78.1z M6.9,18.9c-1.1,0-2,0.9-2,2v54.2c0,1.1,0.9,2,2,2h82.3c1.1,0,2-0.9,2-1.9V20.9c0-1.1-0.9-2-2-2
		H6.9z"/>
</g>
<g>
	
		<linearGradient id="SVGID_3_" gradientUnits="userSpaceOnUse" x1="60.3501" y1="17.8674" x2="60.3501" y2="78.8451" gradientTransform="matrix(1 0 0 -1 0 98)">
		<stop  offset="0" style="stop-color:#1F9DCC"/>
		<stop  offset="1" style="stop-color:#6FCFD3"/>
	</linearGradient>
	<path fill="url(#SVGID_3_)" d="M69.4,37.5H51.3c-0.3,0-0.5-0.2-0.5-0.5s0.2-0.5,0.5-0.5h18.1c0.3,0,0.5,0.2,0.5,0.5
		S69.7,37.5,69.4,37.5z"/>
</g>
<g>
	
		<linearGradient id="SVGID_4_" gradientUnits="userSpaceOnUse" x1="65.3501" y1="17.8674" x2="65.3501" y2="78.8451" gradientTransform="matrix(1 0 0 -1 0 98)">
		<stop  offset="0" style="stop-color:#1F9DCC"/>
		<stop  offset="1" style="stop-color:#6FCFD3"/>
	</linearGradient>
	<path fill="url(#SVGID_4_)" d="M79.4,45.5H51.3c-0.3,0-0.5-0.2-0.5-0.5s0.2-0.5,0.5-0.5h28.1c0.3,0,0.5,0.2,0.5,0.5
		S79.7,45.5,79.4,45.5z"/>
</g>
<g>
	
		<linearGradient id="SVGID_5_" gradientUnits="userSpaceOnUse" x1="65.3501" y1="17.8674" x2="65.3501" y2="78.8451" gradientTransform="matrix(1 0 0 -1 0 98)">
		<stop  offset="0" style="stop-color:#1F9DCC"/>
		<stop  offset="1" style="stop-color:#6FCFD3"/>
	</linearGradient>
	<path fill="url(#SVGID_5_)" d="M79.4,53.5H51.3c-0.3,0-0.5-0.2-0.5-0.5s0.2-0.5,0.5-0.5h28.1c0.3,0,0.5,0.2,0.5,0.5
		S79.7,53.5,79.4,53.5z"/>
</g>
<g>
	
		<linearGradient id="SVGID_6_" gradientUnits="userSpaceOnUse" x1="65.3501" y1="17.8674" x2="65.3501" y2="78.8451" gradientTransform="matrix(1 0 0 -1 0 98)">
		<stop  offset="0" style="stop-color:#1F9DCC"/>
		<stop  offset="1" style="stop-color:#6FCFD3"/>
	</linearGradient>
	<path fill="url(#SVGID_6_)" d="M79.4,61.6H51.3c-0.3,0-0.5-0.2-0.5-0.5s0.2-0.5,0.5-0.5h28.1c0.3,0,0.5,0.2,0.5,0.5
		S79.7,61.6,79.4,61.6z"/>
</g>
</svg>
