<svg id="Layer_1" data-name="Layer 1" xmlns="http://www.w3.org/2000/svg" width="705" height="840" viewBox="0 0 47 56">
  <defs>
    <style>
      .cls-1 {
        fill: #212221;
      }

      .cls-2 {
        fill: none;
        stroke: #212221;
        stroke-linecap: round;
        stroke-linejoin: round;
        stroke-width: 1.875px;
      }

      .cls-3 {
        fill: #fff;
      }
    </style>
  </defs>
  <title>Vector Smart Object6</title>
  <rect id="_Rectangle_" data-name="&lt;Rectangle&gt;" class="cls-1" x="6" y="11" width="35" height="35" rx="2.5" ry="2.5"/>
  <g id="_Group_" data-name="&lt;Group&gt;">
    <path id="_Path_" data-name="&lt;Path&gt;" class="cls-2" d="M1,9.988V9.03A3.166,3.166,0,0,1,4.039,6.022H5.006"/>
    <path id="_Path_2" data-name="&lt;Path&gt;" class="cls-2" d="M42.18,6.208h0.968A2.837,2.837,0,0,1,46,9.03V9.946"/>
    <path id="_Path_3" data-name="&lt;Path&gt;" class="cls-2" d="M46,46.762v0.916A2.837,2.837,0,0,1,43.148,50.5H42.18"/>
    <path id="_Path_4" data-name="&lt;Path&gt;" class="cls-2" d="M4.82,50.5H3.852A2.837,2.837,0,0,1,1,47.678V46.762"/>
  </g>
  <g id="_Group_2" data-name="&lt;Group&gt;">
    <path id="_Compound_Path_" data-name="&lt;Compound Path&gt;" class="cls-3" d="M20.953,33.232H19.634V22.768h4.039a3.058,3.058,0,0,1,3.372,3.119,2.989,2.989,0,0,1-2.126,3l2.448,4.344H25.82l-2.265-4.141h-2.6v4.141Zm0-5.3h2.6a1.873,1.873,0,0,0,2.126-2,1.93,1.93,0,0,0-2.184-2H20.953v4Z"/>
  </g>
</svg>
