<?xml version="1.0" encoding="utf-8"?>
<!-- Generator: Adobe Illustrator 19.2.1, SVG Export Plug-In . SVG Version: 6.00 Build 0)  -->
<svg version="1.1" id="Layer_1" xmlns="http://www.w3.org/2000/svg" xmlns:xlink="http://www.w3.org/1999/xlink" x="0px" y="0px"
	 width="288px" height="288px" viewBox="0 0 96 96" style="enable-background:new 0 0 96 96;" xml:space="preserve">
<style type="text/css">
	.st0{fill:url(#SVGID_1_);}
	.st1{fill:url(#SVGID_2_);}
	.st2{fill:url(#SVGID_3_);}
	.st3{fill:url(#SVGID_4_);}
	.st4{fill:url(#SVGID_5_);}
	.st5{fill:url(#SVGID_6_);}
</style>
<g>
	<g>
		
			<linearGradient id="SVGID_1_" gradientUnits="userSpaceOnUse" x1="48" y1="14.1478" x2="48" y2="86.4866" gradientTransform="matrix(1 0 0 -1 0 98)">
			<stop  offset="0" style="stop-color:#219DCC"/>
			<stop  offset="1" style="stop-color:#72CBD0"/>
		</linearGradient>
		<path class="st0" d="M38,84.2c-0.2,0-0.4,0-0.4-0.1c-15.7-4.6-26.7-19.2-26.7-35.7C10.8,28,27.5,11.2,48,11.2S85.2,28,85.2,48.4
			c0,16.2-10.3,30.4-25.7,35.3c-0.9,0.3-1.8-0.2-2.1-1.1c-0.3-0.9,0.2-1.8,1.1-2.1c14-4.6,23.3-17.4,23.3-32.2
			c0-18.7-15.2-33.8-33.8-33.8S14.2,29.8,14.2,48.4c0,14.9,10,28.3,24.3,32.5c0.9,0.3,1.4,1.2,1.2,2.1C39.4,83.8,38.8,84.2,38,84.2z
			"/>
	</g>
	<g>
		
			<linearGradient id="SVGID_2_" gradientUnits="userSpaceOnUse" x1="52.9183" y1="14.1478" x2="52.9183" y2="86.4866" gradientTransform="matrix(1 0 0 -1 0 98)">
			<stop  offset="0" style="stop-color:#219DCC"/>
			<stop  offset="1" style="stop-color:#72CBD0"/>
		</linearGradient>
		<path class="st1" d="M54.3,84.8c-2,0-3.6-0.5-5-1.5c-2.2-1.6-3-4.3-3-6.1V63.6h3.3v13.6c0,0.8,0.4,2.4,1.7,3.4
			c1.5,1.1,3.9,1.2,7.2,0.1l1.1,3.2C57.7,84.4,56,84.8,54.3,84.8z"/>
	</g>
	<g>
		<g>
			
				<linearGradient id="SVGID_3_" gradientUnits="userSpaceOnUse" x1="42.6346" y1="14.1478" x2="42.6346" y2="86.4866" gradientTransform="matrix(1 0 0 -1 0 98)">
				<stop  offset="0" style="stop-color:#219DCC"/>
				<stop  offset="1" style="stop-color:#72CBD0"/>
			</linearGradient>
			<path class="st2" d="M44.9,37.9h-1.3V27.4c0-0.5-0.4-0.9-0.9-0.9s-0.9,0.4-0.9,0.9v10.5h-1.3V27.4c0-1.3,1-2.2,2.2-2.2
				c1.3,0,2.2,1,2.2,2.2V37.9z"/>
		</g>
		<g>
			
				<linearGradient id="SVGID_4_" gradientUnits="userSpaceOnUse" x1="53.3654" y1="14.1478" x2="53.3654" y2="86.4866" gradientTransform="matrix(1 0 0 -1 0 98)">
				<stop  offset="0" style="stop-color:#219DCC"/>
				<stop  offset="1" style="stop-color:#72CBD0"/>
			</linearGradient>
			<path class="st3" d="M55.6,37.9h-1.3V27.4c0-0.5-0.4-0.9-0.9-0.9s-0.9,0.4-0.9,0.9v10.5h-1.3V27.4c0-1.3,1-2.2,2.2-2.2
				c1.3,0,2.2,1,2.2,2.2V37.9z"/>
		</g>
	</g>
	
		<linearGradient id="SVGID_5_" gradientUnits="userSpaceOnUse" x1="48" y1="14.1478" x2="48" y2="86.4866" gradientTransform="matrix(1 0 0 -1 0 98)">
		<stop  offset="0" style="stop-color:#219DCC"/>
		<stop  offset="1" style="stop-color:#72CBD0"/>
	</linearGradient>
	<path class="st4" d="M57.8,42.7H38.2c-1.1,0-1.9-0.9-1.9-1.9l0,0c0-1.1,0.9-1.9,1.9-1.9h19.7c1.1,0,1.9,0.9,1.9,1.9l0,0
		C59.7,41.8,58.9,42.7,57.8,42.7z"/>
	
		<linearGradient id="SVGID_6_" gradientUnits="userSpaceOnUse" x1="48" y1="14.1478" x2="48" y2="86.4866" gradientTransform="matrix(1 0 0 -1 0 98)">
		<stop  offset="0" style="stop-color:#219DCC"/>
		<stop  offset="1" style="stop-color:#72CBD0"/>
	</linearGradient>
	<path class="st5" d="M58.1,44.3H48H37.9v2.9c0,0,3,9.7,3,11.4c0,1.6-1.4,1.4-1.4,1.4V62H48h8.5V60c0,0-1.4,0.2-1.4-1.4
		s3-11.4,3-11.4L58.1,44.3L58.1,44.3z"/>
</g>
</svg>
