<svg id="Layer_1" data-name="Layer 1" xmlns="http://www.w3.org/2000/svg" width="705" height="840" viewBox="0 0 63 56">
  <defs>
    <style>
      .cls-1 {
        fill: #212221;
      }
    </style>
  </defs>
  <title>Vector Smart Object11</title>
  <g>
    <rect id="_Rectangle_" data-name="&lt;Rectangle&gt;" class="cls-1" x="1" y="27.25" width="1.5" height="1.5" rx="0.75" ry="0.75"/>
    <rect id="_Rectangle_2" data-name="&lt;Rectangle&gt;" class="cls-1" x="4.5" y="27.308" width="1.5" height="1.442" rx="0.72" ry="0.72"/>
    <rect id="_Rectangle_3" data-name="&lt;Rectangle&gt;" class="cls-1" x="57" y="27.25" width="1.5" height="1.5" rx="0.75" ry="0.75"/>
    <rect id="_Rectangle_4" data-name="&lt;Rectangle&gt;" class="cls-1" x="60.5" y="27.25" width="1.5" height="1.5" rx="0.75" ry="0.75"/>
    <rect id="_Path_" data-name="&lt;Path&gt;" class="cls-1" x="8" y="24.75" width="1.5" height="6.5" rx="0.75" ry="0.75"/>
    <rect id="_Rectangle_5" data-name="&lt;Rectangle&gt;" class="cls-1" x="53.5" y="25.25" width="1.5" height="5.5" rx="0.75" ry="0.75"/>
    <rect id="_Rectangle_6" data-name="&lt;Rectangle&gt;" class="cls-1" x="11.5" y="18.25" width="1.5" height="19.5" rx="0.75" ry="0.75"/>
    <rect id="_Rectangle_7" data-name="&lt;Rectangle&gt;" class="cls-1" x="18.5" y="15.25" width="1.5" height="25.5" rx="0.75" ry="0.75"/>
    <rect id="_Rectangle_8" data-name="&lt;Rectangle&gt;" class="cls-1" x="15" y="21.75" width="1.5" height="12.5" rx="0.75" ry="0.75"/>
    <rect id="_Rectangle_9" data-name="&lt;Rectangle&gt;" class="cls-1" x="22" y="18.822" width="1.5" height="18.357" rx="0.75" ry="0.75"/>
    <rect id="_Rectangle_10" data-name="&lt;Rectangle&gt;" class="cls-1" x="25.5" y="7.25" width="1.5" height="41.5" rx="0.75" ry="0.75"/>
    <rect id="_Rectangle_11" data-name="&lt;Rectangle&gt;" class="cls-1" x="46.5" y="20.32" width="1.5" height="15.36" rx="0.75" ry="0.75"/>
    <rect id="_Rectangle_12" data-name="&lt;Rectangle&gt;" class="cls-1" x="50" y="23.75" width="1.5" height="8.5" rx="0.75" ry="0.75"/>
    <rect id="_Rectangle_13" data-name="&lt;Rectangle&gt;" class="cls-1" x="43.016" y="25.25" width="1.468" height="5.5" rx="0.734" ry="0.734"/>
    <rect id="_Rectangle_14" data-name="&lt;Rectangle&gt;" class="cls-1" x="39.5" y="20.75" width="1.5" height="14.5" rx="0.75" ry="0.75"/>
    <rect id="_Rectangle_15" data-name="&lt;Rectangle&gt;" class="cls-1" x="36" y="17.25" width="1.5" height="21.5" rx="0.75" ry="0.75"/>
    <rect id="_Rectangle_16" data-name="&lt;Rectangle&gt;" class="cls-1" x="29" y="14.75" width="1.5" height="26.5" rx="0.75" ry="0.75"/>
    <rect id="_Rectangle_17" data-name="&lt;Rectangle&gt;" class="cls-1" x="32.5" y="11.75" width="1.5" height="32.5" rx="0.75" ry="0.75"/>
  </g>
</svg>
