<svg id="Layer_1" data-name="Layer 1" xmlns="http://www.w3.org/2000/svg" width="705" height="840" viewBox="0 0 45 56">
  <defs>
    <style>
      .cls-1 {
        fill: #2d2a2a;
      }

      .cls-2 {
        fill: #fff;
      }
    </style>
  </defs>
  <title>Vector Smart Object1</title>
  <g>
    <rect id="_Rectangle_" data-name="&lt;Rectangle&gt;" class="cls-1" x="3.5" y="9" width="38" height="38" rx="2.5" ry="2.5"/>
    <g id="_Group_" data-name="&lt;Group&gt;">
      <path id="_Compound_Path_" data-name="&lt;Compound Path&gt;" class="cls-2" d="M12.5,35.418a4,4,0,0,1,4.249-4.177,4.508,4.508,0,0,1,1.934.361l-0.241.743a3.985,3.985,0,0,0-1.716-.336,3.086,3.086,0,0,0-3.253,3.361c0,2.113,1.2,3.362,3.12,3.362a3.22,3.22,0,0,0,1.417-.229V35.97H16.353V35.238H18.91v3.829a6.554,6.554,0,0,1-2.389.432A3.761,3.761,0,0,1,12.5,35.418Z"/>
      <path id="_Compound_Path_2" data-name="&lt;Compound Path&gt;" class="cls-2" d="M20.492,31.326H21.4V34.77h3.949V31.326h0.913v8.09H25.353V35.551H21.4v3.865H20.492v-8.09Z"/>
      <path id="_Compound_Path_3" data-name="&lt;Compound Path&gt;" class="cls-2" d="M27.523,38.875l2.569-3.493c0.263-.348.491-0.66,0.78-1.02V34.337H27.751V33.605h4.225v0.577l-2.544,3.48c-0.241.336-.505,0.672-0.757,1v0.025h3.349v0.732h-4.5v-0.54Z"/>
    </g>
    <path id="_Compound_Path_4" data-name="&lt;Compound Path&gt;" class="cls-2" d="M12.734,27.716l0.411-1.1a4.783,4.783,0,0,0,2.559.728c1.811,0,2.82-1.064,2.82-2.5-0.018-1.569-1.345-2.5-3.156-2.5H14.527v-1.1H15.35c1.475,0,2.727-.9,2.727-2.167a1.884,1.884,0,0,0-2.148-1.924,3.989,3.989,0,0,0-2.335.785L13.164,16.9a5.17,5.17,0,0,1,3.044-.915c2.074,0,3.344,1.214,3.344,2.839a3,3,0,0,1-2.223,2.9v0.036A3.141,3.141,0,0,1,20,24.878c0,2.111-1.643,3.622-4.277,3.622A5.4,5.4,0,0,1,12.734,27.716Z"/>
    <path id="_Compound_Path_5" data-name="&lt;Compound Path&gt;" class="cls-2" d="M21,27.551a1,1,0,0,1,1.009-1.083,0.991,0.991,0,0,1,1.008,1.083A1.011,1.011,0,1,1,21,27.551Z"/>
    <path id="_Compound_Path_6" data-name="&lt;Compound Path&gt;" class="cls-2" d="M24.459,25.26a3.567,3.567,0,0,1,2.447-3.324L26.887,21.9a2.992,2.992,0,0,1-1.98-2.783,3.309,3.309,0,0,1,3.605-3.156c1.979,0,3.4,1.2,3.4,2.951a3.148,3.148,0,0,1-2.055,2.876v0.056A3.37,3.37,0,0,1,32.322,25c0,2.073-1.7,3.512-3.978,3.512C26.1,28.51,24.459,27.146,24.459,25.26Zm6.424-.112c0-1.307-.952-2.241-2.689-2.727q-2.3.729-2.3,2.689a2.36,2.36,0,0,0,2.521,2.335A2.282,2.282,0,0,0,30.883,25.148Zm-0.354-6.107a1.908,1.908,0,0,0-2.073-2.018,1.978,1.978,0,0,0-2.148,2.018c0,1.138.8,1.923,2.335,2.333A2.472,2.472,0,0,0,30.529,19.041Z"/>
    <rect id="_Rectangle_2" data-name="&lt;Rectangle&gt;" class="cls-1" x="34" y="7" width="1.5" height="3" rx="0.75" ry="0.75"/>
    <rect id="_Rectangle_3" data-name="&lt;Rectangle&gt;" class="cls-1" x="30.5" y="7" width="1.5" height="3" rx="0.75" ry="0.75"/>
    <rect id="_Rectangle_4" data-name="&lt;Rectangle&gt;" class="cls-1" x="27" y="7" width="1.5" height="3" rx="0.75" ry="0.75"/>
    <rect id="_Rectangle_5" data-name="&lt;Rectangle&gt;" class="cls-1" x="23.5" y="7" width="1.5" height="3" rx="0.75" ry="0.75"/>
    <rect id="_Rectangle_6" data-name="&lt;Rectangle&gt;" class="cls-1" x="20" y="7" width="1.5" height="3" rx="0.75" ry="0.75"/>
    <rect id="_Rectangle_7" data-name="&lt;Rectangle&gt;" class="cls-1" x="16.5" y="7" width="1.5" height="3" rx="0.75" ry="0.75"/>
    <rect id="_Rectangle_8" data-name="&lt;Rectangle&gt;" class="cls-1" x="13" y="7" width="1.5" height="3" rx="0.75" ry="0.75"/>
    <rect id="_Rectangle_9" data-name="&lt;Rectangle&gt;" class="cls-1" x="9.5" y="7" width="1.5" height="3" rx="0.75" ry="0.75"/>
    <rect id="_Rectangle_10" data-name="&lt;Rectangle&gt;" class="cls-1" x="34" y="46" width="1.5" height="3" rx="0.75" ry="0.75"/>
    <rect id="_Rectangle_11" data-name="&lt;Rectangle&gt;" class="cls-1" x="30.5" y="46" width="1.5" height="3" rx="0.75" ry="0.75"/>
    <rect id="_Rectangle_12" data-name="&lt;Rectangle&gt;" class="cls-1" x="27" y="46" width="1.5" height="3" rx="0.75" ry="0.75"/>
    <rect id="_Rectangle_13" data-name="&lt;Rectangle&gt;" class="cls-1" x="23.5" y="46" width="1.5" height="3" rx="0.75" ry="0.75"/>
    <rect id="_Rectangle_14" data-name="&lt;Rectangle&gt;" class="cls-1" x="20" y="46" width="1.5" height="3" rx="0.75" ry="0.75"/>
    <rect id="_Rectangle_15" data-name="&lt;Rectangle&gt;" class="cls-1" x="16.5" y="46" width="1.5" height="3" rx="0.75" ry="0.75"/>
    <rect id="_Rectangle_16" data-name="&lt;Rectangle&gt;" class="cls-1" x="13" y="46" width="1.5" height="3" rx="0.75" ry="0.75"/>
    <rect id="_Rectangle_17" data-name="&lt;Rectangle&gt;" class="cls-1" x="9.5" y="46" width="1.5" height="3" rx="0.75" ry="0.75"/>
    <rect id="_Rectangle_18" data-name="&lt;Rectangle&gt;" class="cls-1" x="41.25" y="14.25" width="1.5" height="3" rx="0.75" ry="0.75" transform="translate(57.75 -26.25) rotate(90)"/>
    <rect id="_Rectangle_19" data-name="&lt;Rectangle&gt;" class="cls-1" x="41.25" y="17.75" width="1.5" height="3" rx="0.75" ry="0.75" transform="translate(61.25 -22.75) rotate(90)"/>
    <rect id="_Rectangle_20" data-name="&lt;Rectangle&gt;" class="cls-1" x="41.25" y="21.25" width="1.5" height="3" rx="0.75" ry="0.75" transform="translate(64.75 -19.25) rotate(90)"/>
    <rect id="_Rectangle_21" data-name="&lt;Rectangle&gt;" class="cls-1" x="41.25" y="24.75" width="1.5" height="3" rx="0.75" ry="0.75" transform="translate(68.25 -15.75) rotate(90)"/>
    <rect id="_Rectangle_22" data-name="&lt;Rectangle&gt;" class="cls-1" x="41.25" y="28.25" width="1.5" height="3" rx="0.75" ry="0.75" transform="translate(71.75 -12.25) rotate(90)"/>
    <rect id="_Rectangle_23" data-name="&lt;Rectangle&gt;" class="cls-1" x="41.25" y="31.75" width="1.5" height="3" rx="0.75" ry="0.75" transform="translate(75.25 -8.75) rotate(90)"/>
    <rect id="_Rectangle_24" data-name="&lt;Rectangle&gt;" class="cls-1" x="41.25" y="35.25" width="1.5" height="3" rx="0.75" ry="0.75" transform="translate(78.75 -5.25) rotate(90)"/>
    <rect id="_Rectangle_25" data-name="&lt;Rectangle&gt;" class="cls-1" x="41.25" y="38.75" width="1.5" height="3" rx="0.75" ry="0.75" transform="translate(82.25 -1.75) rotate(90)"/>
    <rect id="_Rectangle_26" data-name="&lt;Rectangle&gt;" class="cls-1" x="2.25" y="14.25" width="1.5" height="3" rx="0.75" ry="0.75" transform="translate(18.75 12.75) rotate(90)"/>
    <rect id="_Rectangle_27" data-name="&lt;Rectangle&gt;" class="cls-1" x="2.25" y="17.75" width="1.5" height="3" rx="0.75" ry="0.75" transform="translate(22.25 16.25) rotate(90)"/>
    <rect id="_Rectangle_28" data-name="&lt;Rectangle&gt;" class="cls-1" x="2.25" y="21.25" width="1.5" height="3" rx="0.75" ry="0.75" transform="translate(25.75 19.75) rotate(90)"/>
    <rect id="_Rectangle_29" data-name="&lt;Rectangle&gt;" class="cls-1" x="2.25" y="24.75" width="1.5" height="3" rx="0.75" ry="0.75" transform="translate(29.25 23.25) rotate(90)"/>
    <rect id="_Rectangle_30" data-name="&lt;Rectangle&gt;" class="cls-1" x="2.25" y="28.25" width="1.5" height="3" rx="0.75" ry="0.75" transform="translate(32.75 26.75) rotate(90)"/>
    <rect id="_Rectangle_31" data-name="&lt;Rectangle&gt;" class="cls-1" x="2.25" y="31.75" width="1.5" height="3" rx="0.75" ry="0.75" transform="translate(36.25 30.25) rotate(90)"/>
    <rect id="_Rectangle_32" data-name="&lt;Rectangle&gt;" class="cls-1" x="2.25" y="35.25" width="1.5" height="3" rx="0.75" ry="0.75" transform="translate(39.75 33.75) rotate(90)"/>
    <rect id="_Rectangle_33" data-name="&lt;Rectangle&gt;" class="cls-1" x="2.25" y="38.75" width="1.5" height="3" rx="0.75" ry="0.75" transform="translate(43.25 37.25) rotate(90)"/>
  </g>
</svg>
