<svg id="Layer_1" data-name="Layer 1" xmlns="http://www.w3.org/2000/svg" width="705" height="840" viewBox="0 0 41 56">
  <defs>
    <style>
      .cls-1 {
        fill: #231f20;
      }

      .cls-2 {
        fill: #fff;
      }
    </style>
  </defs>
  <title>Vector Smart Object22</title>
  <g>
    <rect id="_Rectangle_" data-name="&lt;Rectangle&gt;" class="cls-1" x="6" y="7" width="29" height="42" rx="2" ry="2"/>
    <g id="_Group_" data-name="&lt;Group&gt;">
      <path class="cls-1" d="M20.5,44a9.979,9.979,0,1,1,10-9.979A10,10,0,0,1,20.5,44Z"/>
      <path class="cls-2" d="M20.5,24.542A9.479,9.479,0,1,1,11,34.021a9.5,9.5,0,0,1,9.5-9.479m0-1A10.479,10.479,0,1,0,31,34.021,10.489,10.489,0,0,0,20.5,23.542h0Z"/>
    </g>
    <g id="_Group_2" data-name="&lt;Group&gt;">
      <path class="cls-2" d="M20.5,30.5A3.5,3.5,0,1,1,17,34a3.5,3.5,0,0,1,3.5-3.5m0-.5a4,4,0,1,0,4,4,4,4,0,0,0-4-4h0Z"/>
    </g>
    <circle id="_Path_" data-name="&lt;Path&gt;" class="cls-2" cx="20.5" cy="15" r="3"/>
  </g>
</svg>
