<svg id="Layer_1" data-name="Layer 1" xmlns="http://www.w3.org/2000/svg" width="705" height="840" viewBox="0 0 47 56">
  <defs>
    <style>
      .cls-1 {
        fill: #231f20;
      }
    </style>
  </defs>
  <title>a</title>
  <path id="_Compound_Path_" data-name="&lt;Compound Path&gt;" class="cls-1" d="M25.192,35.448A14.272,14.272,0,0,0,32.8,38.3a13,13,0,0,0,6.376-1.5,15,15,0,0,0-8.085-2.777A14.282,14.282,0,0,0,25.192,35.448Zm-12.439-4.08-0.2.152a67.573,67.573,0,0,1-6.036,4.111,13.6,13.6,0,0,1,1.994-.02,16.818,16.818,0,0,1,7.936,2.722c0.227-.156.456-0.312,0.676-0.47l0.513-.369a51.675,51.675,0,0,1,4.4-2.929c-0.08-.055-0.159-0.117-0.24-0.171L21,33.857a63.219,63.219,0,0,0-6.348-3.911C14.029,30.4,13.4,30.873,12.753,31.368Zm28.84,4.325a12.322,12.322,0,0,1,1.732-.616c-1.238-1.007-2.706-2.309-4.582-3.989-2.849-2.551-6.879-5.478-12.805-5.478-4.286,0-7.245,1.481-10.28,3.607a67.178,67.178,0,0,1,5.968,3.714l0.788,0.533c0.238,0.159.472,0.336,0.707,0.5a17.315,17.315,0,0,1,7.97-2.183c4.495,0,7.985,2.275,9.86,3.5C41.189,35.436,41.4,35.575,41.593,35.693ZM14.306,39.669a14.073,14.073,0,0,0-5.958-1.826,17.66,17.66,0,0,0-5.8.8,23.487,23.487,0,0,0,1.416,2.445,16.6,16.6,0,0,0,3.186.488A13.231,13.231,0,0,0,14.306,39.669ZM11.4,29.588q0.479-.365.949-0.72a15.611,15.611,0,0,0-5.512-1.353A24.063,24.063,0,0,0,0,28.44a23.387,23.387,0,0,0,1.365,7.451A57.858,57.858,0,0,0,11.2,29.74ZM37.964,43.268a14.287,14.287,0,0,0-5.527-.825,11.679,11.679,0,0,0-5.868,2.112,12.95,12.95,0,0,0,4.269.742A15.655,15.655,0,0,0,37.964,43.268Zm4.9-6.881a23.447,23.447,0,0,0,2.2.939c0.105-.242.194-0.492,0.291-0.739-0.265-.175-0.537-0.363-0.822-0.573A5.888,5.888,0,0,0,42.869,36.388ZM23.489,4.5A23.489,23.489,0,0,0,.015,27.272,25.24,25.24,0,0,1,6.858,26.4a17.5,17.5,0,0,1,6.522,1.7c3.617-2.658,7.157-4.725,12.558-4.725,6.686,0,11.154,3.233,14.3,6.049,2.576,2.305,4.423,3.934,5.863,4.958A23.444,23.444,0,0,0,23.489,4.5Zm0.833,41.574c-1.023.749-2.115,1.605-3.307,2.573A24.109,24.109,0,0,1,17.9,50.8a23.35,23.35,0,0,0,22.209-6.185,18.893,18.893,0,0,1-9.273,2.916A15.616,15.616,0,0,1,24.322,46.074ZM23.2,45.522a33.671,33.671,0,0,1-3.949-2.549c-0.362-.262-0.7-0.507-1.022-0.726-0.279-.191-0.564-0.392-0.856-0.6s-0.606-.426-0.919-0.641a16.377,16.377,0,0,1-8.734,2.825q-0.335,0-.677-0.017C6.706,43.8,6.382,43.77,6.063,43.736a23.5,23.5,0,0,0,10.265,6.645,21.825,21.825,0,0,0,3.982-2.6C21.346,46.937,22.291,46.2,23.2,45.522Zm17.1-8.005a16,16,0,0,1-6.819,1.927q-0.375,0-.759-0.029a15.864,15.864,0,0,1-8.665-3.4,43.005,43.005,0,0,0-5.1,3.3l-0.5.362,0.214,0.149c0.285,0.2.563,0.4,0.834,0.582,0.332,0.228.687,0.484,1.065,0.756a27.146,27.146,0,0,0,4.716,2.883c2.642-1.756,4.834-2.671,7.143-2.716a14.991,14.991,0,0,1,6.806,1.241,32.432,32.432,0,0,0,4.55-3.337A22.207,22.207,0,0,1,40.425,37.6Z"/>
</svg>
