<svg 
 xmlns="http://www.w3.org/2000/svg"
 xmlns:xlink="http://www.w3.org/1999/xlink"
 width="4712px" height="4712px">
<path fill-rule="evenodd"  fill="rgb(46, 67, 125)"
 d="M2356.000,-0.000 C3657.183,-0.000 4712.000,1054.817 4712.000,2356.000 C4712.000,3657.182 3657.183,4712.000 2356.000,4712.000 C1054.818,4712.000 -0.000,3657.182 -0.000,2356.000 C-0.000,1054.817 1054.818,-0.000 2356.000,-0.000 Z"/>
<path fill-rule="evenodd"  fill="rgb(255, 255, 255)"
 d="M2375.000,25.000 C3651.882,25.000 4687.000,1060.118 4687.000,2337.000 C4687.000,3613.882 3651.882,4649.000 2375.000,4649.000 C1098.118,4649.000 63.000,3613.882 63.000,2337.000 C63.000,1060.118 1098.118,25.000 2375.000,25.000 Z"/>
<path fill-rule="evenodd"  fill="rgb(46, 67, 125)"
 d="M2389.000,159.000 C3599.608,159.000 4581.000,1140.392 4581.000,2351.000 C4581.000,3561.608 3599.608,4543.000 2389.000,4543.000 C1178.392,4543.000 197.000,3561.608 197.000,2351.000 C197.000,1140.392 1178.392,159.000 2389.000,159.000 Z"/>
<path fill-rule="evenodd"  fill="rgb(255, 255, 255)"
 d="M2377.500,204.000 C3556.904,204.000 4513.000,1160.096 4513.000,2339.500 C4513.000,3518.904 3556.904,4475.000 2377.500,4475.000 C1198.096,4475.000 242.000,3518.904 242.000,2339.500 C242.000,1160.096 1198.096,204.000 2377.500,204.000 Z"/>
<path fill-rule="evenodd"  fill="rgb(46, 67, 125)"
 d="M2354.000,831.000 C3174.143,831.000 3839.000,1495.857 3839.000,2316.000 C3839.000,3136.143 3174.143,3801.000 2354.000,3801.000 C1533.857,3801.000 869.000,3136.143 869.000,2316.000 C869.000,1495.857 1533.857,831.000 2354.000,831.000 Z"/>
<path fill-rule="evenodd"  fill="rgb(46, 67, 125)"
 d="M4278.745,2363.878 C4265.149,2405.276 4239.484,2426.402 4201.756,2427.255 C4173.873,2427.886 4151.678,2417.626 4135.164,2396.484 C4122.772,2380.318 4114.697,2363.091 4110.944,2344.807 L3967.413,2457.096 C3963.470,2460.024 3960.909,2463.088 3959.728,2466.290 C3958.548,2469.488 3957.842,2473.430 3957.615,2478.114 L3945.345,2478.391 L3942.924,2371.378 L4100.488,2248.108 L4100.483,2247.896 L4000.063,2250.168 C3982.032,2250.576 3969.955,2253.856 3963.830,2260.008 C3957.706,2266.160 3954.511,2278.259 3954.254,2296.304 L3941.232,2296.599 L3937.311,2123.305 L3950.333,2123.011 C3951.559,2140.353 3955.083,2152.132 3960.904,2158.350 C3966.721,2164.564 3979.150,2167.458 3998.182,2167.028 L4225.066,2161.894 C4244.826,2161.447 4257.611,2157.400 4263.420,2149.752 C4267.290,2144.653 4269.778,2133.322 4270.876,2115.758 L4283.898,2115.464 L4287.632,2280.493 C4288.406,2314.715 4285.441,2342.511 4278.745,2363.878 ZM4264.530,2250.574 C4261.010,2246.394 4255.327,2244.393 4247.482,2244.570 L4117.011,2247.522 C4118.271,2281.068 4123.529,2304.959 4132.789,2319.199 C4142.045,2333.436 4162.868,2340.191 4195.259,2339.458 C4215.125,2339.009 4230.757,2335.899 4242.152,2330.129 C4261.470,2320.171 4270.844,2302.585 4270.273,2277.378 C4269.963,2263.687 4268.047,2254.754 4264.530,2250.574 ZM4164.200,2031.213 C4193.725,2017.582 4212.943,2001.970 4221.849,1984.370 C4230.755,1966.769 4230.482,1938.322 4221.031,1899.032 C4217.517,1884.420 4213.614,1875.524 4209.332,1872.347 C4205.044,1869.168 4198.356,1868.675 4189.265,1870.862 L4073.826,1898.629 C4079.822,1925.695 4089.887,1942.556 4104.025,1949.203 C4118.160,1955.851 4138.804,1958.486 4165.955,1957.108 L4169.001,1969.772 L4000.470,2010.309 L3997.424,1997.645 C4023.553,1987.753 4041.550,1976.166 4051.411,1962.889 C4061.268,1949.609 4062.979,1929.578 4056.535,1902.788 L3940.365,1930.730 C3924.938,1934.441 3916.242,1941.299 3914.270,1951.306 C3912.297,1961.313 3913.696,1975.532 3918.476,1993.963 L3905.812,1997.009 L3862.638,1817.518 L3875.302,1814.472 C3879.226,1828.640 3883.615,1838.321 3888.470,1843.509 C3895.890,1851.514 3906.745,1853.798 3921.034,1850.362 L4162.384,1792.309 C4176.833,1788.834 4185.481,1781.943 4188.329,1771.641 C4190.083,1765.378 4189.655,1754.661 4187.036,1739.490 L4199.701,1736.444 L4267.712,2019.197 L4167.129,2043.390 L4164.200,2031.213 ZM4072.957,1487.239 C4066.349,1484.811 4056.312,1487.531 4042.840,1495.398 L3781.759,1647.863 L3774.558,1635.533 L3897.603,1302.324 L3895.834,1299.296 L3722.140,1400.728 C3708.516,1408.684 3699.974,1416.184 3696.514,1423.235 C3690.833,1434.479 3692.979,1449.470 3702.952,1468.208 L3691.704,1474.776 L3633.093,1374.410 L3644.341,1367.841 C3654.373,1384.028 3663.699,1392.796 3672.319,1394.144 C3680.938,1395.492 3690.942,1392.840 3702.336,1386.187 L3912.153,1263.660 C3919.378,1241.261 3923.395,1227.698 3924.214,1222.968 C3925.027,1218.237 3924.194,1212.922 3921.718,1207.021 L3932.966,1200.453 L3987.788,1294.330 L3891.637,1554.689 L3892.900,1556.852 L4023.036,1480.857 C4038.032,1472.100 4047.146,1463.120 4050.383,1453.923 C4053.614,1444.726 4051.107,1431.569 4042.856,1414.459 L4054.104,1407.891 L4109.683,1503.066 L4098.435,1509.634 C4088.056,1497.131 4079.562,1489.663 4072.957,1487.239 ZM3843.512,1124.204 C3833.107,1119.893 3822.090,1122.674 3810.458,1132.546 L3621.016,1293.345 C3610.065,1302.640 3605.339,1311.908 3606.835,1321.152 C3608.328,1330.399 3614.264,1341.130 3624.638,1353.353 L3614.708,1361.781 L3498.648,1225.047 L3508.578,1216.618 C3518.234,1227.479 3526.323,1234.299 3532.851,1237.085 C3543.623,1241.520 3554.803,1238.822 3566.390,1228.988 L3755.832,1068.190 C3767.338,1058.423 3771.860,1048.122 3769.406,1037.283 C3767.918,1030.661 3762.454,1021.279 3753.020,1009.136 L3762.951,1000.707 L3879.011,1137.442 L3869.080,1145.871 C3858.199,1134.080 3849.676,1126.857 3843.512,1124.204 ZM3662.176,920.694 C3654.055,920.861 3643.992,928.793 3631.979,944.489 L3494.054,1124.710 C3482.584,1139.697 3477.593,1151.436 3479.083,1159.935 C3480.567,1168.434 3488.002,1178.225 3501.392,1189.310 L3493.476,1199.654 L3358.210,1096.134 L3366.127,1085.790 C3378.497,1094.626 3389.128,1099.559 3398.022,1100.579 C3406.910,1101.600 3416.078,1095.945 3425.517,1083.612 L3577.904,884.494 L3574.920,882.211 L3291.772,1045.287 L3280.844,1036.924 L3359.617,725.006 L3357.826,723.636 L3216.857,907.835 C3206.452,921.430 3201.372,933.284 3201.621,943.405 C3201.864,953.527 3210.351,965.518 3227.082,979.377 L3219.166,989.721 L3123.884,916.800 L3131.800,906.457 C3147.416,918.200 3159.600,923.158 3168.354,921.341 C3177.104,919.522 3185.592,913.242 3193.812,902.501 L3341.937,708.953 C3350.403,697.891 3353.317,688.583 3350.686,681.035 C3348.052,673.484 3340.376,664.007 3327.656,652.601 L3335.572,642.258 L3438.215,720.811 L3374.060,970.737 L3377.441,973.325 L3601.462,845.746 L3704.169,924.350 L3696.253,934.694 C3681.650,925.194 3670.293,920.528 3662.176,920.694 ZM2947.436,850.699 L2952.353,838.638 C2968.065,844.325 2978.771,847.156 2984.462,847.130 C2990.152,847.108 2994.668,842.998 2998.010,834.800 C2999.523,831.089 3000.584,824.941 3001.202,816.355 C3001.479,811.239 3001.594,804.976 3001.549,797.560 L3001.192,763.872 L2894.541,720.391 C2879.883,736.418 2870.380,746.881 2866.037,751.780 C2856.881,762.295 2851.169,770.334 2848.899,775.901 C2846.124,782.707 2848.667,789.513 2856.532,796.325 C2861.249,800.235 2868.989,804.473 2879.752,809.038 L2874.835,821.100 L2777.879,781.571 L2782.797,769.509 C2794.553,773.402 2805.866,771.975 2816.735,765.222 C2823.677,761.019 2835.517,750.339 2852.252,733.176 L3063.800,516.186 L3077.021,521.576 L3081.269,814.373 C3081.763,847.217 3083.293,868.894 3085.862,879.409 C3088.427,889.922 3095.184,897.234 3106.137,901.336 L3101.219,913.397 L2947.436,850.699 ZM3001.012,613.668 L2997.026,612.043 L2909.326,704.507 L3001.882,742.243 L3001.012,613.668 ZM2782.321,456.043 C2775.101,459.878 2769.612,471.409 2765.845,490.645 L2723.301,707.863 C2716.298,743.614 2701.182,769.520 2677.961,785.576 C2654.538,801.763 2625.212,806.408 2589.979,799.508 C2565.067,794.628 2546.349,783.983 2533.825,767.579 C2521.297,751.170 2516.544,735.264 2519.560,719.862 C2521.999,707.409 2527.554,698.371 2536.228,692.752 C2544.898,687.135 2554.154,685.287 2563.987,687.213 C2573.819,689.139 2581.257,694.169 2586.300,702.304 C2591.344,710.438 2592.934,719.261 2591.073,728.763 C2589.467,736.960 2585.935,744.348 2580.476,750.936 C2575.014,757.524 2572.159,761.471 2571.902,762.785 C2570.939,767.701 2572.134,771.804 2575.488,775.101 C2578.840,778.394 2583.303,780.588 2588.876,781.680 C2603.952,784.632 2614.994,781.686 2622.003,772.841 C2625.945,767.479 2629.266,757.912 2631.964,744.138 L2686.795,464.186 C2689.759,449.053 2686.719,438.064 2677.682,431.221 C2672.190,427.107 2660.661,422.990 2643.090,418.871 L2645.593,406.088 L2822.828,440.801 L2820.324,453.584 C2802.204,451.391 2789.537,452.208 2782.321,456.043 ZM2463.326,435.374 L2463.502,737.713 L2449.224,737.721 L2223.374,463.569 L2219.868,463.571 L2219.985,664.713 C2219.994,680.490 2222.169,691.647 2226.517,698.188 C2233.369,708.760 2247.400,714.458 2268.609,715.283 L2268.617,728.308 L2152.390,728.376 L2152.383,715.351 C2171.420,714.839 2183.691,711.200 2189.198,704.433 C2194.705,697.667 2197.454,687.689 2197.447,674.495 L2197.305,431.521 C2181.596,413.996 2171.903,403.693 2168.230,400.603 C2164.553,397.517 2159.542,395.559 2153.198,394.725 L2153.190,381.700 L2261.902,381.636 L2438.371,595.857 L2440.875,595.856 L2440.788,445.156 C2440.777,427.790 2437.612,415.393 2431.298,407.964 C2424.981,400.539 2412.352,396.077 2393.416,394.585 L2393.408,381.560 L2503.623,381.495 L2503.630,394.521 C2487.601,397.188 2476.871,400.763 2471.449,405.248 C2466.023,409.732 2463.317,419.773 2463.326,435.374 ZM2055.831,4235.775 C2015.932,4260.636 1971.777,4268.085 1923.360,4258.117 C1902.426,4253.807 1882.046,4245.559 1862.216,4233.381 C1842.390,4221.199 1831.248,4214.857 1828.795,4214.352 C1822.416,4213.039 1816.801,4214.440 1811.946,4218.556 C1807.094,4222.672 1803.618,4227.327 1801.526,4232.522 L1787.541,4229.643 L1811.736,4112.124 L1824.494,4114.750 C1831.331,4142.755 1839.522,4165.412 1849.073,4182.723 C1867.009,4214.715 1890.841,4233.776 1920.574,4239.897 C1954.232,4246.826 1981.115,4237.228 2001.222,4211.106 C2021.329,4184.980 2036.417,4147.468 2046.485,4098.564 C2053.894,4062.579 2055.826,4032.116 2052.273,4007.177 C2045.713,3960.472 2021.352,3932.784 1979.199,3924.105 C1953.388,3918.792 1927.890,3921.042 1902.707,3930.863 C1888.247,3936.581 1870.472,3946.816 1849.381,3961.570 L1836.940,3946.222 C1861.081,3928.343 1881.605,3916.033 1898.507,3909.283 C1928.607,3897.238 1959.849,3894.548 1992.235,3901.215 C2041.794,3911.418 2080.311,3934.692 2107.777,3971.036 C2138.208,4011.227 2147.745,4058.884 2136.396,4114.006 C2125.150,4168.633 2098.295,4209.226 2055.831,4235.775 ZM1814.335,791.137 C1828.553,787.402 1838.291,783.140 1843.543,778.354 C1851.645,771.040 1854.073,760.217 1850.825,745.884 L1795.907,503.544 C1792.609,488.989 1785.585,480.291 1774.841,477.453 C1768.607,475.639 1758.151,475.966 1743.474,478.441 L1740.595,465.738 L2028.862,400.413 L2051.726,501.306 L2039.511,504.074 C2025.852,473.267 2010.061,453.645 1992.140,445.206 C1974.216,436.771 1945.141,437.107 1904.916,446.222 C1889.606,449.692 1880.236,453.485 1876.803,457.602 C1873.369,461.719 1872.723,468.503 1874.863,477.946 L1901.104,593.742 C1929.677,587.612 1947.804,578.066 1955.487,565.108 C1963.166,552.156 1966.483,530.897 1965.436,501.341 L1978.139,498.462 L2016.448,667.514 L2003.745,670.392 C1993.703,642.706 1981.867,624.283 1968.234,615.129 C1954.603,605.978 1933.533,604.628 1905.035,611.086 L1932.493,732.256 C1934.893,742.845 1939.251,749.434 1945.577,752.022 C1951.899,754.614 1963.528,753.990 1980.468,750.151 C2012.387,742.917 2037.044,730.825 2054.435,713.869 C2071.823,696.918 2084.481,669.650 2092.402,632.066 L2106.327,628.910 L2109.634,737.575 L1817.214,803.841 L1814.335,791.137 ZM1738.627,809.317 C1722.319,836.371 1694.417,859.110 1654.921,877.542 L1505.336,947.348 L1499.828,935.545 C1512.175,929.230 1520.403,923.364 1524.509,917.946 C1531.478,908.798 1531.788,897.411 1525.432,883.791 L1420.351,658.619 C1414.040,645.096 1405.484,638.014 1394.684,637.379 C1388.207,636.929 1378.058,639.467 1364.240,645.000 L1358.732,633.196 L1502.415,566.144 C1530.108,553.221 1554.591,545.665 1575.869,543.475 C1615.950,539.330 1643.370,553.071 1658.129,584.697 C1667.098,603.916 1667.213,622.431 1658.477,640.233 C1649.740,658.041 1637.908,672.270 1622.976,682.922 L1624.989,687.235 C1643.794,682.515 1661.389,681.124 1677.771,683.058 C1709.791,686.912 1732.229,702.611 1745.081,730.151 C1757.087,755.878 1754.933,782.267 1738.627,809.317 ZM1582.361,622.543 C1574.098,604.838 1563.927,591.436 1551.846,582.328 C1539.763,573.226 1524.567,572.945 1506.259,581.488 C1496.573,586.009 1490.597,590.780 1488.334,595.796 C1486.070,600.818 1486.915,607.563 1490.869,616.036 L1539.596,720.451 C1568.345,707.034 1585.451,693.342 1590.910,679.366 C1596.368,665.395 1593.519,646.455 1582.361,622.543 ZM1666.119,770.040 C1650.725,737.052 1630.724,719.664 1606.119,717.878 C1591.209,716.729 1571.222,722.277 1546.163,734.524 L1600.399,850.742 C1604.361,858.844 1608.364,864.258 1612.399,866.979 C1619.288,871.875 1628.104,871.813 1638.850,866.798 C1660.790,856.559 1673.401,843.396 1676.674,827.309 C1679.949,811.226 1676.431,792.136 1666.119,770.040 ZM1139.379,1244.046 L1130.728,1234.309 C1141.379,1224.176 1147.852,1215.745 1150.143,1209.019 C1153.710,1198.703 1150.613,1188.051 1140.852,1177.065 L975.814,991.304 C965.902,980.148 955.553,975.919 944.773,978.617 C938.437,980.036 929.436,985.368 917.776,994.618 L909.124,984.881 L1130.089,788.565 L1198.800,865.903 L1189.437,874.221 C1162.607,853.829 1139.308,844.263 1119.539,845.518 C1099.770,846.779 1074.466,861.103 1043.633,888.497 C1031.897,898.924 1025.520,906.767 1024.499,912.030 C1023.479,917.292 1026.187,923.546 1032.618,930.785 L1111.477,1019.545 C1133.545,1000.389 1144.816,983.281 1145.293,968.225 C1145.769,953.174 1138.416,932.953 1123.237,907.571 L1132.974,898.920 L1248.102,1028.503 L1238.364,1037.154 C1216.209,1017.750 1196.952,1007.325 1180.595,1005.885 C1164.240,1004.448 1145.134,1013.433 1123.289,1032.841 L1205.808,1125.721 C1213.019,1133.837 1220.016,1137.505 1226.805,1136.720 C1233.593,1135.940 1243.478,1129.781 1256.463,1118.245 C1280.929,1096.507 1296.691,1074.018 1303.741,1050.775 C1310.792,1027.538 1308.721,997.546 1297.523,960.805 L1308.197,951.322 L1363.528,1044.903 L1139.379,1244.046 ZM854.343,1122.741 L1057.641,1265.620 C1069.938,1274.262 1081.201,1275.954 1091.430,1270.691 C1097.387,1267.735 1104.506,1260.798 1112.790,1249.882 L1123.447,1257.371 L1023.057,1400.213 L1012.400,1392.723 C1020.439,1380.414 1024.801,1370.722 1025.486,1363.649 C1026.588,1352.790 1021.127,1343.135 1009.103,1334.684 L912.372,1266.702 L842.085,1366.711 L938.816,1434.694 C951.250,1443.432 962.627,1445.104 972.953,1439.703 C978.869,1436.513 986.112,1429.257 994.684,1417.931 L1005.341,1425.420 L905.528,1567.442 L894.871,1559.952 C902.199,1548.369 906.196,1539.338 906.865,1532.867 C907.967,1522.007 902.439,1512.305 890.277,1503.758 L686.979,1360.879 C675.176,1352.584 664.722,1350.441 655.617,1354.452 C650.200,1356.974 642.510,1364.022 632.551,1375.593 L621.894,1368.103 L721.708,1226.081 L732.364,1233.571 C724.401,1246.344 720.029,1256.030 719.244,1262.620 C718.016,1273.597 723.442,1283.328 735.518,1291.815 L822.616,1353.028 L892.903,1253.019 L805.805,1191.805 C793.729,1183.319 782.948,1181.357 773.460,1185.913 C767.617,1188.747 759.823,1196.229 750.080,1208.364 L739.423,1200.874 L839.813,1058.032 L850.470,1065.522 C842.779,1078.487 838.638,1088.129 838.047,1094.449 C836.973,1104.922 842.406,1114.352 854.343,1122.741 ZM663.961,1518.999 C627.813,1509.698 599.414,1513.224 578.763,1529.582 C567.286,1538.831 556.477,1555.182 546.328,1578.639 L797.088,1679.385 C814.611,1686.425 827.469,1688.039 835.667,1684.221 C843.864,1680.407 851.853,1668.816 859.635,1649.444 L871.722,1654.300 L803.553,1823.975 L791.467,1819.119 C798.937,1800.524 800.996,1787.002 797.638,1778.541 C794.282,1770.086 783.919,1762.367 766.552,1755.390 L515.792,1654.644 C507.078,1678.138 503.568,1697.425 505.271,1712.505 C508.551,1740.277 526.615,1762.475 559.466,1779.090 L553.957,1792.803 L458.149,1753.772 L573.289,1467.184 L669.470,1505.286 L663.961,1518.999 ZM601.612,2262.201 C586.224,2275.275 568.374,2281.043 548.056,2279.509 C527.910,2277.988 511.294,2269.574 498.214,2254.268 C485.138,2238.962 479.356,2221.236 480.877,2201.086 C482.399,2180.940 490.767,2164.404 505.975,2151.484 C521.186,2138.566 538.867,2132.867 559.013,2134.388 C579.331,2135.922 596.113,2144.309 609.364,2159.542 C622.618,2174.779 628.493,2192.304 626.997,2212.119 C625.463,2232.436 617.004,2249.130 601.612,2262.201 ZM677.774,2571.545 C697.051,2568.359 708.908,2563.034 713.343,2555.565 C717.781,2548.096 718.753,2535.308 716.266,2517.197 L729.117,2515.073 L758.125,2690.538 L745.274,2692.662 C741.675,2673.962 736.399,2662.013 729.446,2656.815 C722.494,2651.617 709.792,2650.543 691.338,2653.594 L616.951,2665.891 L464.180,2786.102 C454.152,2794.023 447.645,2802.799 444.667,2812.431 C442.848,2818.825 442.360,2825.087 443.201,2831.207 L430.350,2833.332 L402.364,2664.045 L415.215,2661.921 C419.091,2679.223 422.264,2690.206 424.726,2694.877 C427.192,2699.547 431.060,2701.447 436.331,2700.575 C438.640,2700.193 441.075,2699.327 443.644,2697.970 C446.213,2696.617 450.770,2693.706 457.307,2689.237 L567.840,2602.259 L567.735,2601.622 L469.786,2562.007 C463.777,2559.446 456.506,2556.927 447.971,2554.443 C434.993,2550.665 425.619,2549.251 419.850,2550.205 C410.954,2551.676 405.608,2556.201 403.814,2563.774 C402.627,2568.881 402.806,2579.681 404.348,2596.183 L391.497,2598.307 L373.111,2487.097 L385.962,2484.973 C388.780,2492.802 391.572,2498.941 394.339,2503.391 C398.479,2508.971 404.100,2513.290 411.206,2516.344 L584.605,2586.948 L677.774,2571.545 ZM492.512,2967.204 C499.769,2970.854 512.373,2968.549 530.331,2960.293 L736.526,2865.496 C753.674,2857.612 763.576,2849.571 766.233,2841.362 C768.896,2833.155 766.902,2821.023 760.251,2804.964 L772.086,2799.523 L843.236,2954.283 L831.401,2959.724 C824.600,2946.128 817.509,2936.797 810.125,2931.735 C802.746,2926.676 791.998,2927.387 777.888,2933.875 L550.072,3038.612 L551.642,3042.025 L878.183,3030.297 L883.932,3042.800 L668.433,3281.668 L669.374,3283.716 L880.121,3186.827 C895.675,3179.676 905.709,3171.573 910.223,3162.511 C914.742,3153.451 912.847,3138.883 904.540,3118.808 L916.374,3113.367 L966.493,3222.382 L954.659,3227.823 C946.348,3210.139 937.897,3200.059 929.309,3197.571 C920.724,3195.087 910.285,3196.668 897.995,3202.319 L676.552,3304.126 C663.896,3309.945 656.967,3316.809 655.763,3324.711 C654.560,3332.617 656.913,3344.584 662.822,3360.614 L650.988,3366.055 L596.997,3248.620 L770.584,3057.710 L768.805,3053.841 L511.129,3061.844 L457.104,2944.334 L468.938,2938.893 C477.403,2954.119 485.260,2963.555 492.512,2967.204 ZM822.071,3419.145 C800.588,3445.110 790.068,3467.994 790.506,3487.798 C790.949,3507.603 804.216,3533.476 830.313,3565.415 C840.246,3577.571 847.820,3584.266 853.036,3585.503 C858.252,3586.740 864.612,3584.293 872.110,3578.166 L964.052,3503.041 C945.823,3480.200 929.195,3468.232 914.172,3467.134 C899.153,3466.037 878.646,3472.548 852.659,3486.666 L844.417,3476.580 L978.644,3366.902 L986.886,3376.989 C966.583,3398.324 955.372,3417.133 953.258,3433.417 C951.146,3449.699 959.334,3469.160 977.823,3491.787 L1074.032,3413.175 C1082.440,3406.305 1086.394,3399.465 1085.889,3392.650 C1085.390,3385.835 1079.645,3375.705 1068.654,3362.255 C1047.946,3336.911 1026.127,3320.234 1003.195,3312.230 C980.269,3304.226 950.217,3305.056 913.045,3314.727 L904.011,3303.671 L999.797,3252.252 L1189.514,3484.434 L1179.427,3492.675 C1169.743,3481.615 1161.586,3474.800 1154.960,3472.233 C1144.800,3468.242 1134.030,3470.897 1122.650,3480.196 L930.232,3637.422 C918.676,3646.864 914.022,3657.030 916.273,3667.912 C917.430,3674.301 922.385,3683.514 931.146,3695.547 L921.060,3703.789 L734.037,3474.905 L814.147,3409.447 L822.071,3419.145 ZM1210.160,3574.102 C1259.447,3566.615 1307.185,3580.912 1353.379,3616.992 L1481.104,3716.750 L1473.086,3727.015 C1462.440,3719.758 1454.006,3715.500 1447.781,3714.244 C1436.700,3712.154 1426.943,3716.507 1418.514,3727.300 L1262.786,3926.685 C1254.667,3937.080 1252.764,3947.249 1257.078,3957.189 C1259.571,3962.950 1265.788,3970.453 1275.728,3979.701 L1267.710,3989.967 L1144.131,3893.446 C1094.254,3854.490 1066.602,3811.489 1061.173,3764.450 C1056.269,3721.629 1069.746,3679.817 1101.610,3639.021 C1130.187,3602.432 1166.372,3580.793 1210.160,3574.102 ZM1155.560,3880.442 C1166.090,3888.667 1174.681,3891.771 1181.333,3889.765 C1185.702,3888.514 1191.121,3883.743 1197.597,3875.452 L1353.016,3676.462 C1359.097,3667.862 1362.231,3660.665 1362.408,3654.874 C1362.591,3649.083 1358.271,3642.743 1349.452,3635.855 C1325.500,3617.148 1299.221,3610.235 1270.613,3615.121 C1242.008,3620.004 1208.946,3646.465 1171.425,3694.504 C1149.121,3723.060 1134.095,3750.845 1126.351,3777.852 C1113.975,3821.369 1123.712,3855.567 1155.560,3880.442 ZM1649.786,3796.446 L1644.331,3808.274 C1628.891,3801.885 1618.323,3798.576 1612.636,3798.346 C1606.952,3798.112 1602.255,3802.015 1598.548,3810.054 C1596.869,3813.694 1595.533,3819.788 1594.529,3828.338 C1594.023,3833.436 1593.627,3839.687 1593.338,3847.097 L1592.180,3880.768 L1696.767,3929.001 C1712.132,3913.649 1722.095,3903.624 1726.654,3898.925 C1736.274,3888.832 1742.342,3881.058 1744.859,3875.599 C1747.937,3868.924 1745.704,3862.011 1738.153,3854.852 C1733.617,3850.735 1726.075,3846.153 1715.528,3841.108 L1720.982,3829.280 L1816.063,3873.129 L1810.608,3884.957 C1799.038,3880.539 1787.672,3881.456 1776.511,3887.714 C1769.387,3891.600 1757.079,3901.737 1739.588,3918.131 L1518.497,4125.388 L1505.532,4119.408 L1514.455,3826.717 C1515.438,3793.884 1514.884,3772.160 1512.791,3761.540 C1510.701,3750.922 1504.280,3743.314 1493.522,3738.724 L1498.977,3726.896 L1649.786,3796.446 ZM1589.514,4032.631 L1681.283,3944.203 L1590.518,3902.344 L1585.605,4030.828 L1589.514,4032.631 ZM2368.892,3960.719 C2352.218,3961.823 2341.277,3963.532 2336.076,3965.842 C2330.874,3968.147 2328.390,3973.725 2328.623,3982.575 C2328.728,3986.582 2330.227,3992.639 2333.110,4000.750 C2334.912,4005.545 2337.323,4011.327 2340.344,4018.099 L2354.205,4048.806 L2469.339,4045.777 C2476.323,4025.211 2480.821,4011.812 2482.830,4005.581 C2486.991,3992.273 2488.992,3982.617 2488.834,3976.607 C2488.641,3969.259 2483.578,3964.048 2473.639,3960.970 C2467.749,3959.285 2458.958,3958.514 2447.267,3958.657 L2446.925,3945.636 L2551.593,3942.882 L2551.935,3955.903 C2539.605,3957.062 2529.818,3962.914 2522.579,3973.464 C2517.910,3980.102 2511.359,3994.639 2502.928,4017.080 L2396.380,4300.777 L2382.107,4301.153 L2260.586,4034.731 C2246.938,4004.853 2236.828,3985.617 2230.251,3977.020 C2223.679,3968.422 2214.553,3964.442 2202.875,3965.086 L2202.533,3952.065 L2368.549,3947.698 L2368.892,3960.719 ZM2414.714,4186.283 L2419.018,4186.170 L2462.180,4066.262 L2362.262,4068.891 L2414.714,4186.283 ZM2707.330,3899.919 L2720.881,3895.423 L3021.464,4084.680 L3024.792,4083.576 L2961.450,3892.667 C2956.482,3877.693 2950.910,3867.785 2944.726,3862.942 C2934.898,3855.061 2919.788,3854.062 2899.394,3859.946 L2895.292,3847.584 L3005.605,3810.982 L3009.707,3823.345 C2991.796,3829.816 2981.290,3837.128 2978.190,3845.283 C2975.089,3853.437 2975.616,3863.774 2979.771,3876.296 L3056.286,4106.907 C3076.708,4118.606 3089.148,4125.340 3093.606,4127.118 C3098.067,4128.892 3103.439,4129.176 3109.724,4127.973 L3113.826,4140.335 L3010.646,4174.570 L2775.781,4026.683 L2773.403,4027.472 L2820.861,4170.505 C2826.329,4186.987 2833.232,4197.761 2841.561,4202.828 C2849.892,4207.891 2863.283,4208.157 2881.728,4203.620 L2885.830,4215.983 L2781.223,4250.691 L2777.121,4238.328 C2791.500,4230.757 2800.562,4223.990 2804.299,4218.028 C2808.040,4212.065 2807.453,4201.683 2802.540,4186.876 L2707.330,3899.919 ZM3207.370,4067.943 C3213.720,4058.641 3213.254,4047.287 3205.972,4033.881 L3087.367,3815.529 C3080.511,3802.907 3072.407,3796.384 3063.053,3795.955 C3053.696,3795.523 3041.976,3799.137 3027.889,3806.789 L3021.672,3795.343 L3179.273,3709.737 L3185.490,3721.183 C3172.882,3728.410 3164.550,3734.931 3160.487,3740.750 C3153.940,3750.386 3154.292,3761.883 3161.545,3775.237 L3280.150,3993.589 C3287.353,4006.851 3296.510,4013.386 3307.622,4013.203 C3314.408,4013.102 3324.711,4009.675 3338.528,4002.927 L3344.745,4014.373 L3187.144,4099.979 L3180.927,4088.533 C3194.697,4080.296 3203.511,4073.433 3207.370,4067.943 ZM3279.324,3687.407 C3271.201,3711.035 3273.291,3743.054 3285.600,3783.462 L3273.761,3792.721 L3218.537,3688.360 L3452.550,3505.346 L3460.574,3515.606 C3449.833,3524.642 3443.072,3532.260 3440.294,3538.468 C3435.565,3548.953 3437.832,3560.123 3447.101,3571.974 L3600.159,3767.683 C3609.353,3779.439 3619.351,3784.359 3630.147,3782.445 C3636.559,3781.425 3645.876,3776.667 3658.093,3768.166 L3666.117,3778.426 L3524.842,3888.914 L3516.818,3878.653 C3532.853,3865.268 3542.012,3854.413 3544.296,3846.088 C3546.583,3837.761 3541.485,3825.620 3529.002,3809.659 L3379.645,3618.682 C3372.643,3609.729 3365.675,3605.629 3358.738,3606.384 C3351.804,3607.136 3341.563,3612.815 3328.013,3623.412 C3303.679,3642.443 3287.448,3663.772 3279.324,3687.407 ZM3751.012,3489.341 L3501.960,3490.348 C3496.620,3490.352 3492.505,3491.286 3489.620,3493.152 C3486.735,3495.018 3482.891,3498.417 3478.083,3503.352 L3467.920,3495.205 L3575.553,3360.934 L3585.716,3369.081 C3576.131,3381.302 3570.021,3389.993 3567.382,3395.156 C3564.743,3400.314 3565.247,3404.359 3568.896,3407.285 C3570.588,3408.641 3573.347,3409.674 3577.167,3410.383 C3580.986,3411.087 3586.639,3411.445 3594.124,3411.456 L3743.321,3411.605 L3741.271,3393.293 L3662.898,3330.468 C3651.300,3321.170 3640.321,3318.715 3629.954,3323.106 C3623.906,3325.576 3616.208,3332.106 3606.866,3342.696 L3596.703,3334.549 L3704.963,3199.497 L3715.126,3207.644 C3706.800,3218.832 3702.034,3227.712 3700.833,3234.285 C3698.806,3245.355 3703.656,3255.594 3715.383,3264.994 L3909.264,3420.412 C3920.780,3429.643 3931.380,3432.326 3941.064,3428.467 C3946.989,3426.114 3955.065,3419.355 3965.295,3408.183 L3975.458,3416.330 L3866.885,3551.773 L3856.722,3543.626 C3866.628,3528.879 3871.504,3517.483 3871.348,3509.443 C3871.195,3501.399 3863.537,3491.303 3848.375,3479.149 L3762.575,3410.370 L3780.794,3566.421 C3781.970,3577.205 3783.119,3584.496 3784.243,3588.287 C3785.368,3592.078 3787.753,3595.435 3791.393,3598.353 C3796.463,3602.416 3801.568,3602.706 3806.703,3599.228 C3811.841,3595.748 3820.107,3587.701 3831.498,3575.093 L3841.661,3583.240 L3748.755,3699.138 L3738.592,3690.991 C3753.504,3668.916 3761.404,3647.047 3762.285,3625.391 C3763.166,3603.730 3759.408,3558.382 3751.012,3489.341 ZM3731.387,3123.729 L4075.305,3034.911 L4076.785,3031.732 L3894.441,2946.827 C3880.139,2940.167 3869.108,2937.423 3861.342,2938.599 C3848.865,2940.340 3837.771,2950.648 3828.059,2969.521 L3816.251,2964.023 L3865.312,2858.659 L3877.120,2864.157 C3869.538,2881.626 3867.650,2894.286 3871.455,2902.137 C3875.260,2909.988 3883.141,2916.697 3895.101,2922.266 L4115.367,3024.829 C4137.889,3017.999 4151.324,3013.569 4155.677,3011.546 C4160.027,3009.518 4163.920,3005.804 4167.357,3000.406 L4179.165,3005.904 L4133.276,3104.456 L3864.545,3173.850 L3863.488,3176.121 L4000.104,3239.733 C4015.846,3247.064 4028.420,3249.434 4037.821,3246.852 C4047.220,3244.265 4056.602,3234.705 4065.957,3218.174 L4077.765,3223.672 L4031.242,3323.587 L4019.434,3318.089 C4023.792,3302.434 4025.086,3291.198 4023.313,3284.389 C4021.542,3277.576 4013.586,3270.879 3999.443,3264.294 L3725.360,3136.672 L3731.387,3123.729 ZM3902.422,2816.653 C3892.539,2821.064 3886.559,2829.023 3884.490,2840.534 L3871.741,2837.861 L3905.824,2675.322 L3918.573,2677.996 C3915.797,2694.473 3914.934,2705.513 3915.980,2711.108 C3917.023,2716.701 3921.876,2720.406 3930.541,2722.223 C3934.464,2723.045 3940.702,2722.986 3949.260,2722.053 C3954.342,2721.407 3960.525,2720.396 3967.811,2719.021 L4000.889,2712.624 L4024.526,2599.902 C4006.127,2588.358 3994.129,2580.887 3988.531,2577.494 C3976.543,2570.373 3967.609,2566.197 3961.726,2564.963 C3954.532,2563.454 3948.292,2567.177 3943.002,2576.137 C3940.003,2581.479 3937.223,2589.853 3934.663,2601.262 L3921.915,2598.588 L3943.403,2496.113 L3956.151,2498.786 C3954.431,2511.050 3957.865,2521.924 3966.459,2531.404 C3971.840,2537.479 3984.471,2547.210 4004.359,2560.594 L4255.789,2729.768 L4252.859,2743.742 L3965.578,2800.464 C3933.355,2806.844 3912.305,2812.240 3902.422,2816.653 ZM4148.622,2685.493 L4149.506,2681.280 L4042.804,2611.597 L4022.291,2709.422 L4148.622,2685.493 Z"/>
<text kerning="auto" font-family="Myriad Pro" fill="rgb(0, 0, 0)" font-size="393px" x="1749px" y="1485.922px"><tspan font-size="393px" font-family="Arial" fill="#FFFFFF">QUAM</tspan></text>
<text kerning="auto" font-family="Myriad Pro" fill="rgb(0, 0, 0)" transform="matrix( 0, -1, 1, 0,1542, 2814.192)" font-size="393px"><tspan font-size="393px" font-family="Arial" fill="#FFFFFF">ESSE</tspan></text>
<text kerning="auto" font-family="Myriad Pro" fill="rgb(0, 0, 0)" transform="matrix( 0, 1, -1, 0,3157, 1677.7865)" font-size="393px"><tspan font-size="393px" font-family="Arial" fill="#FFFFFF">VIDERI</tspan></text>
<path fill-rule="evenodd"  fill="rgb(255, 255, 255)"
 d="M1660.011,1728.000 C1660.011,1728.000 1809.887,1819.309 1985.203,1819.309 C2160.519,1819.309 2339.502,1749.071 2339.502,1749.071 C2339.502,1749.071 2477.229,1807.268 2691.793,1807.268 C2906.357,1807.268 3007.952,1733.017 3007.952,1733.017 L3021.000,2502.622 C3021.000,2502.622 2933.390,3205.000 2351.546,3205.000 C1769.701,3205.000 1657.000,2597.080 1657.000,2534.731 C1657.000,2472.382 1660.011,1728.000 1660.011,1728.000 Z"/>
<path fill-rule="evenodd"  fill="rgb(46, 67, 125)"
 d="M2772.993,2077.238 C2772.993,2077.238 2732.210,2060.000 2643.741,2060.000 C2555.273,2060.000 2340.000,2173.125 2340.000,2173.125 L2340.000,2784.000 C2340.000,2784.000 2536.852,2660.101 2664.206,2660.101 C2791.561,2660.101 2815.000,2695.655 2815.000,2695.655 L2815.000,2098.786 "/>
<path fill-rule="evenodd"  fill="rgb(255, 255, 255)"
 d="M2763.000,2096.000 C2763.000,2096.000 2725.136,2080.000 2643.000,2080.000 C2560.864,2080.000 2361.000,2185.000 2361.000,2185.000 L2361.000,2752.000 C2361.000,2752.000 2543.762,2637.000 2662.000,2637.000 C2780.238,2637.000 2802.000,2670.000 2802.000,2670.000 L2802.000,2116.000 "/>
<path fill-rule="evenodd"  fill="rgb(46, 67, 125)"
 d="M1904.007,2077.238 C1904.007,2077.238 1944.790,2060.000 2033.259,2060.000 C2121.727,2060.000 2337.000,2173.125 2337.000,2173.125 L2337.000,2784.000 C2337.000,2784.000 2140.148,2660.101 2012.794,2660.101 C1885.439,2660.101 1862.000,2695.655 1862.000,2695.655 L1862.000,2098.786 "/>
<path fill-rule="evenodd"  fill="rgb(255, 255, 255)"
 d="M1914.000,2096.000 C1914.000,2096.000 1951.864,2080.000 2034.000,2080.000 C2116.136,2080.000 2316.000,2185.000 2316.000,2185.000 L2316.000,2752.000 C2316.000,2752.000 2133.238,2637.000 2015.000,2637.000 C1896.762,2637.000 1875.000,2670.000 1875.000,2670.000 L1875.000,2116.000 "/>
</svg>