<svg 
 xmlns="http://www.w3.org/2000/svg"
 xmlns:xlink="http://www.w3.org/1999/xlink"
 width="4712px" height="4712px">
<path fill-rule="evenodd"  fill="rgb(255, 255, 255)"
 d="M2356.000,-0.000 C3657.183,-0.000 4712.000,1054.817 4712.000,2356.000 C4712.000,3657.182 3657.183,4712.000 2356.000,4712.000 C1054.818,4712.000 -0.000,3657.182 -0.000,2356.000 C-0.000,1054.817 1054.818,-0.000 2356.000,-0.000 Z"/>
<path fill-rule="evenodd"  fill="rgb(46, 67, 125)"
 d="M2356.000,44.000 C3632.882,44.000 4668.000,1079.118 4668.000,2356.000 C4668.000,3632.882 3632.882,4668.000 2356.000,4668.000 C1079.118,4668.000 44.000,3632.882 44.000,2356.000 C44.000,1079.118 1079.118,44.000 2356.000,44.000 Z"/>
<path fill-rule="evenodd"  fill="rgb(255, 255, 255)"
 d="M2356.000,164.000 C3566.608,164.000 4548.000,1145.392 4548.000,2356.000 C4548.000,3566.608 3566.608,4548.000 2356.000,4548.000 C1145.392,4548.000 164.000,3566.608 164.000,2356.000 C164.000,1145.392 1145.392,164.000 2356.000,164.000 Z"/>
<path fill-rule="evenodd"  fill="rgb(46, 67, 125)"
 d="M2356.500,221.000 C3535.904,221.000 4492.000,1177.096 4492.000,2356.500 C4492.000,3535.904 3535.904,4492.000 2356.500,4492.000 C1177.096,4492.000 221.000,3535.904 221.000,2356.500 C221.000,1177.096 1177.096,221.000 2356.500,221.000 Z"/>
<path fill-rule="evenodd"  fill="rgb(255, 255, 255)"
 d="M2356.000,871.000 C3176.143,871.000 3841.000,1535.857 3841.000,2356.000 C3841.000,3176.143 3176.143,3841.000 2356.000,3841.000 C1535.857,3841.000 871.000,3176.143 871.000,2356.000 C871.000,1535.857 1535.857,871.000 2356.000,871.000 Z"/>
<path fill-rule="evenodd"  fill="rgb(255, 255, 255)"
 d="M4304.745,2378.878 C4291.149,2420.276 4265.484,2441.402 4227.756,2442.255 C4199.873,2442.886 4177.678,2432.626 4161.164,2411.484 C4148.772,2395.318 4140.697,2378.091 4136.944,2359.807 L3993.413,2472.096 C3989.470,2475.023 3986.909,2478.088 3985.728,2481.290 C3984.548,2484.487 3983.842,2488.430 3983.615,2493.114 L3971.345,2493.391 L3968.924,2386.378 L4126.488,2263.108 L4126.483,2262.896 L4026.063,2265.168 C4008.032,2265.576 3995.955,2268.856 3989.830,2275.008 C3983.706,2281.160 3980.511,2293.259 3980.254,2311.304 L3967.232,2311.599 L3963.311,2138.305 L3976.333,2138.011 C3977.559,2155.353 3981.083,2167.132 3986.904,2173.350 C3992.721,2179.564 4005.150,2182.458 4024.182,2182.028 L4251.066,2176.894 C4270.826,2176.447 4283.611,2172.400 4289.420,2164.751 C4293.290,2159.653 4295.778,2148.322 4296.876,2130.758 L4309.898,2130.464 L4313.632,2295.493 C4314.406,2329.715 4311.441,2357.511 4304.745,2378.878 ZM4290.530,2265.574 C4287.010,2261.394 4281.327,2259.393 4273.482,2259.571 L4143.011,2262.522 C4144.271,2296.068 4149.529,2319.959 4158.789,2334.199 C4168.045,2348.436 4188.868,2355.191 4221.259,2354.458 C4241.125,2354.009 4256.757,2350.899 4268.152,2345.129 C4287.470,2335.171 4296.843,2317.585 4296.273,2292.378 C4295.963,2278.687 4294.046,2269.754 4290.530,2265.574 ZM4190.200,2046.213 C4219.725,2032.582 4238.943,2016.969 4247.849,1999.369 C4256.755,1981.769 4256.482,1953.322 4247.032,1914.032 C4243.517,1899.420 4239.614,1890.524 4235.331,1887.348 C4231.044,1884.168 4224.356,1883.675 4215.265,1885.862 L4099.827,1913.629 C4105.822,1940.695 4115.887,1957.556 4130.026,1964.203 C4144.160,1970.851 4164.805,1973.486 4191.955,1972.108 L4195.001,1984.772 L4026.470,2025.309 L4023.424,2012.645 C4049.553,2002.753 4067.550,1991.166 4077.411,1977.889 C4087.268,1964.609 4088.979,1944.578 4082.535,1917.788 L3966.365,1945.731 C3950.939,1949.441 3942.242,1956.299 3940.270,1966.306 C3938.297,1976.313 3939.696,1990.532 3944.476,2008.963 L3931.811,2012.009 L3888.638,1832.518 L3901.303,1829.472 C3905.226,1843.640 3909.615,1853.321 3914.470,1858.509 C3921.890,1866.515 3932.745,1868.799 3947.034,1865.361 L4188.384,1807.309 C4202.833,1803.834 4211.481,1796.943 4214.329,1786.641 C4216.083,1780.378 4215.655,1769.661 4213.036,1754.490 L4225.701,1751.444 L4293.712,2034.197 L4193.129,2058.390 L4190.200,2046.213 ZM4098.957,1502.239 C4092.349,1499.811 4082.312,1502.531 4068.840,1510.398 L3807.758,1662.863 L3800.558,1650.533 L3923.602,1317.324 L3921.834,1314.296 L3748.140,1415.728 C3734.516,1423.684 3725.974,1431.184 3722.514,1438.235 C3716.834,1449.479 3718.979,1464.470 3728.952,1483.208 L3717.704,1489.776 L3659.093,1389.410 L3670.341,1382.842 C3680.373,1399.028 3689.699,1407.796 3698.319,1409.144 C3706.938,1410.492 3716.942,1407.840 3728.336,1401.187 L3938.153,1278.660 C3945.378,1256.261 3949.395,1242.698 3950.214,1237.968 C3951.027,1233.237 3950.194,1227.922 3947.718,1222.021 L3958.966,1215.453 L4013.788,1309.330 L3917.637,1569.689 L3918.901,1571.852 L4049.036,1495.857 C4064.032,1487.100 4073.147,1478.120 4076.383,1468.924 C4079.614,1459.726 4077.107,1446.569 4068.856,1429.459 L4080.104,1422.891 L4135.683,1518.065 L4124.435,1524.634 C4114.056,1512.131 4105.562,1504.663 4098.957,1502.239 ZM3869.512,1139.204 C3859.108,1134.893 3848.090,1137.674 3836.458,1147.547 L3647.016,1308.344 C3636.065,1317.640 3631.339,1326.908 3632.835,1336.152 C3634.328,1345.399 3640.264,1356.130 3650.638,1368.353 L3640.708,1376.782 L3524.648,1240.047 L3534.578,1231.618 C3544.234,1242.479 3552.322,1249.299 3558.851,1252.085 C3569.623,1256.520 3580.803,1253.822 3592.390,1243.988 L3781.832,1083.189 C3793.338,1073.423 3797.860,1063.122 3795.406,1052.283 C3793.918,1045.661 3788.454,1036.279 3779.020,1024.136 L3788.951,1015.707 L3905.011,1152.442 L3895.080,1160.871 C3884.199,1149.080 3875.676,1141.857 3869.512,1139.204 ZM3688.176,935.694 C3680.055,935.861 3669.992,943.793 3657.979,959.489 L3520.055,1139.710 C3508.584,1154.697 3503.593,1166.436 3505.082,1174.935 C3506.567,1183.434 3514.002,1193.225 3527.392,1204.310 L3519.475,1214.654 L3384.210,1111.134 L3392.127,1100.790 C3404.497,1109.626 3415.128,1114.559 3424.022,1115.579 C3432.910,1116.600 3442.078,1110.945 3451.517,1098.612 L3603.904,899.494 L3600.920,897.211 L3317.772,1060.287 L3306.843,1051.923 L3385.617,740.006 L3383.826,738.636 L3242.857,922.835 C3232.452,936.430 3227.372,948.284 3227.621,958.405 C3227.864,968.527 3236.351,980.518 3253.082,994.377 L3245.166,1004.721 L3149.884,931.800 L3157.800,921.457 C3173.416,933.201 3185.600,938.158 3194.354,936.341 C3203.104,934.522 3211.592,928.242 3219.813,917.501 L3367.938,723.953 C3376.403,712.891 3379.317,703.583 3376.686,696.035 C3374.052,688.484 3366.376,679.007 3353.656,667.601 L3361.572,657.258 L3464.215,735.811 L3400.060,985.737 L3403.441,988.325 L3627.462,860.746 L3730.169,939.350 L3722.253,949.693 C3707.650,940.194 3696.293,935.528 3688.176,935.694 ZM2973.436,865.699 L2978.353,853.638 C2994.065,859.325 3004.771,862.156 3010.463,862.130 C3016.152,862.108 3020.668,857.998 3024.010,849.800 C3025.523,846.089 3026.584,839.941 3027.203,831.355 C3027.479,826.239 3027.594,819.976 3027.549,812.560 L3027.192,778.872 L2920.541,735.391 C2905.883,751.418 2896.380,761.881 2892.037,766.780 C2882.881,777.295 2877.169,785.334 2874.899,790.901 C2872.124,797.707 2874.667,804.513 2882.532,811.325 C2887.249,815.235 2894.989,819.473 2905.752,824.038 L2900.835,836.100 L2803.879,796.571 L2808.796,784.509 C2820.553,788.402 2831.866,786.975 2842.735,780.222 C2849.677,776.019 2861.516,765.339 2878.252,748.176 L3089.800,531.186 L3103.021,536.576 L3107.269,829.373 C3107.763,862.217 3109.293,883.894 3111.862,894.409 C3114.427,904.922 3121.184,912.234 3132.137,916.336 L3127.219,928.397 L2973.436,865.699 ZM3027.012,628.668 L3023.026,627.043 L2935.326,719.507 L3027.882,757.243 L3027.012,628.668 ZM2808.321,471.043 C2801.101,474.878 2795.612,486.409 2791.845,505.645 L2749.301,722.863 C2742.298,758.614 2727.182,784.520 2703.961,800.575 C2680.538,816.763 2651.212,821.408 2615.979,814.508 C2591.067,809.629 2572.350,798.983 2559.825,782.579 C2547.297,766.170 2542.543,750.264 2545.560,734.862 C2547.999,722.409 2553.554,713.371 2562.228,707.752 C2570.898,702.135 2580.154,700.287 2589.987,702.213 C2599.819,704.139 2607.257,709.169 2612.301,717.304 C2617.344,725.438 2618.934,734.261 2617.073,743.763 C2615.467,751.960 2611.935,759.348 2606.477,765.936 C2601.014,772.524 2598.159,776.471 2597.902,777.785 C2596.939,782.701 2598.134,786.804 2601.488,790.101 C2604.840,793.394 2609.303,795.588 2614.876,796.680 C2629.952,799.632 2640.994,796.686 2648.003,787.841 C2651.945,782.479 2655.266,772.912 2657.964,759.138 L2712.795,479.186 C2715.759,464.053 2712.719,453.064 2703.682,446.221 C2698.190,442.107 2686.661,437.990 2669.089,433.871 L2671.593,421.088 L2848.828,455.801 L2846.324,468.584 C2828.204,466.391 2815.537,467.208 2808.321,471.043 ZM2489.326,450.374 L2489.502,752.713 L2475.224,752.722 L2249.374,478.569 L2245.868,478.571 L2245.985,679.713 C2245.994,695.489 2248.169,706.647 2252.517,713.188 C2259.369,723.760 2273.400,729.458 2294.609,730.283 L2294.617,743.308 L2178.390,743.376 L2178.383,730.351 C2197.419,729.839 2209.691,726.200 2215.198,719.433 C2220.705,712.667 2223.454,702.689 2223.447,689.495 L2223.305,446.521 C2207.596,428.996 2197.903,418.693 2194.230,415.603 C2190.553,412.517 2185.542,410.559 2179.197,409.725 L2179.190,396.700 L2287.902,396.637 L2464.371,610.857 L2466.876,610.856 L2466.788,460.156 C2466.777,442.790 2463.612,430.393 2457.298,422.964 C2450.981,415.539 2438.352,411.077 2419.416,409.585 L2419.408,396.560 L2529.623,396.495 L2529.630,409.521 C2513.601,412.187 2502.871,415.763 2497.449,420.248 C2492.023,424.732 2489.317,434.773 2489.326,450.374 ZM2081.831,4250.775 C2041.931,4275.636 1997.777,4283.085 1949.360,4273.117 C1928.425,4268.807 1908.046,4260.559 1888.216,4248.381 C1868.390,4236.199 1857.248,4229.857 1854.795,4229.352 C1848.416,4228.039 1842.801,4229.441 1837.946,4233.556 C1833.094,4237.672 1829.619,4242.327 1827.526,4247.522 L1813.541,4244.643 L1837.736,4127.124 L1850.494,4129.751 C1857.331,4157.755 1865.522,4180.412 1875.073,4197.723 C1893.009,4229.715 1916.841,4248.776 1946.574,4254.897 C1980.232,4261.826 2007.115,4252.228 2027.222,4226.106 C2047.330,4199.980 2062.417,4162.468 2072.485,4113.564 C2079.894,4077.579 2081.826,4047.116 2078.273,4022.177 C2071.713,3975.472 2047.352,3947.784 2005.199,3939.105 C1979.388,3933.791 1953.890,3936.042 1928.707,3945.863 C1914.247,3951.581 1896.472,3961.816 1875.381,3976.570 L1862.941,3961.222 C1887.081,3943.343 1907.605,3931.033 1924.507,3924.283 C1954.606,3912.238 1985.849,3909.548 2018.235,3916.215 C2067.794,3926.418 2106.311,3949.692 2133.777,3986.036 C2164.207,4026.227 2173.744,4073.884 2162.396,4129.006 C2151.150,4183.633 2124.295,4224.226 2081.831,4250.775 ZM1840.335,806.137 C1854.554,802.402 1864.291,798.140 1869.543,793.354 C1877.645,786.040 1880.073,775.217 1876.825,760.884 L1821.907,518.544 C1818.609,503.989 1811.585,495.291 1800.841,492.453 C1794.607,490.639 1784.151,490.966 1769.474,493.441 L1766.595,480.738 L2054.862,415.413 L2077.726,516.306 L2065.511,519.074 C2051.852,488.267 2036.060,468.646 2018.140,460.206 C2000.216,451.771 1971.141,452.107 1930.916,461.222 C1915.606,464.692 1906.236,468.485 1902.803,472.602 C1899.369,476.719 1898.724,483.503 1900.863,492.946 L1927.104,608.741 C1955.677,602.612 1973.804,593.066 1981.487,580.108 C1989.166,567.156 1992.483,545.897 1991.436,516.341 L2004.139,513.462 L2042.448,682.514 L2029.745,685.392 C2019.703,657.706 2007.867,639.283 1994.234,630.129 C1980.603,620.978 1959.533,619.628 1931.035,626.086 L1958.493,747.256 C1960.893,757.845 1965.252,764.434 1971.577,767.022 C1977.899,769.614 1989.528,768.989 2006.468,765.151 C2038.386,757.918 2063.044,745.825 2080.435,728.869 C2097.823,711.918 2110.481,684.650 2118.402,647.066 L2132.327,643.910 L2135.634,752.575 L1843.213,818.841 L1840.335,806.137 ZM1764.627,824.317 C1748.319,851.371 1720.417,874.110 1680.921,892.542 L1531.336,962.348 L1525.828,950.545 C1538.174,944.230 1546.403,938.364 1550.509,932.945 C1557.478,923.798 1557.788,912.411 1551.432,898.791 L1446.351,673.619 C1440.040,660.096 1431.484,653.014 1420.684,652.379 C1414.207,651.930 1404.058,654.467 1390.240,660.000 L1384.732,648.196 L1528.415,581.144 C1556.108,568.221 1580.591,560.665 1601.869,558.475 C1641.950,554.331 1669.371,568.071 1684.129,599.696 C1693.098,618.916 1693.212,637.430 1684.477,655.233 C1675.740,673.041 1663.908,687.270 1648.976,697.922 L1650.989,702.235 C1669.794,697.515 1687.389,696.123 1703.771,698.058 C1735.790,701.912 1758.229,717.611 1771.081,745.151 C1783.087,770.878 1780.933,797.267 1764.627,824.317 ZM1608.360,637.543 C1600.098,619.838 1589.927,606.436 1577.846,597.328 C1565.763,588.226 1550.567,587.945 1532.259,596.489 C1522.573,601.009 1516.598,605.780 1514.334,610.796 C1512.069,615.818 1512.915,622.563 1516.869,631.036 L1565.596,735.451 C1594.345,722.034 1611.451,708.342 1616.910,694.366 C1622.368,680.395 1619.519,661.455 1608.360,637.543 ZM1692.119,785.040 C1676.725,752.052 1656.724,734.664 1632.119,732.878 C1617.208,731.729 1597.222,737.277 1572.163,749.524 L1626.399,865.742 C1630.361,873.844 1634.364,879.258 1638.398,881.979 C1645.288,886.876 1654.104,886.813 1664.850,881.798 C1686.790,871.559 1699.401,858.396 1702.674,842.309 C1705.949,826.226 1702.431,807.136 1692.119,785.040 ZM1165.379,1259.046 L1156.728,1249.309 C1167.379,1239.176 1173.852,1230.745 1176.142,1224.019 C1179.710,1213.703 1176.613,1203.051 1166.852,1192.065 L1001.814,1006.304 C991.902,995.148 981.553,990.919 970.773,993.617 C964.437,995.037 955.436,1000.368 943.775,1009.618 L935.124,999.881 L1156.089,803.565 L1224.800,880.903 L1215.437,889.222 C1188.607,868.829 1165.308,859.263 1145.539,860.518 C1125.770,861.779 1100.466,876.103 1069.632,903.497 C1057.897,913.924 1051.520,921.767 1050.499,927.030 C1049.479,932.292 1052.187,938.546 1058.618,945.785 L1137.477,1034.545 C1159.545,1015.389 1170.816,998.281 1171.293,983.225 C1171.769,968.174 1164.416,947.954 1149.237,922.571 L1158.974,913.920 L1274.102,1043.503 L1264.364,1052.154 C1242.209,1032.750 1222.952,1022.325 1206.595,1020.885 C1190.240,1019.448 1171.134,1028.433 1149.289,1047.841 L1231.808,1140.721 C1239.019,1148.837 1246.016,1152.505 1252.805,1151.720 C1259.593,1150.940 1269.478,1144.781 1282.463,1133.244 C1306.929,1111.507 1322.691,1089.018 1329.741,1065.775 C1336.792,1042.538 1334.721,1012.546 1323.523,975.805 L1334.197,966.322 L1389.528,1059.902 L1165.379,1259.046 ZM880.343,1137.741 L1083.641,1280.620 C1095.938,1289.262 1107.201,1290.954 1117.430,1285.691 C1123.387,1282.735 1130.506,1275.798 1138.790,1264.882 L1149.447,1272.372 L1049.057,1415.213 L1038.400,1407.723 C1046.439,1395.414 1050.801,1385.722 1051.486,1378.649 C1052.588,1367.790 1047.127,1358.135 1035.103,1349.684 L938.372,1281.701 L868.085,1381.711 L964.816,1449.694 C977.250,1458.433 988.627,1460.104 998.953,1454.703 C1004.869,1451.513 1012.112,1444.257 1020.685,1432.931 L1031.341,1440.420 L931.528,1582.442 L920.871,1574.952 C928.199,1563.369 932.196,1554.338 932.865,1547.867 C933.967,1537.008 928.439,1527.305 916.277,1518.758 L712.979,1375.879 C701.176,1367.584 690.722,1365.442 681.617,1369.452 C676.200,1371.974 668.510,1379.022 658.551,1390.593 L647.894,1383.103 L747.708,1241.081 L758.364,1248.571 C750.401,1261.344 746.029,1271.030 745.244,1277.620 C744.016,1288.597 749.442,1298.328 761.518,1306.815 L848.616,1368.028 L918.903,1268.019 L831.805,1206.806 C819.730,1198.319 808.947,1196.357 799.460,1200.912 C793.617,1203.747 785.823,1211.229 776.080,1223.364 L765.423,1215.874 L865.813,1073.032 L876.470,1080.522 C868.779,1093.487 864.638,1103.129 864.047,1109.449 C862.973,1119.922 868.406,1129.352 880.343,1137.741 ZM689.960,1534.000 C653.813,1524.698 625.414,1528.225 604.762,1544.582 C593.286,1553.831 582.477,1570.182 572.328,1593.639 L823.088,1694.385 C840.611,1701.425 853.469,1703.039 861.667,1699.221 C869.864,1695.407 877.852,1683.816 885.635,1664.444 L897.722,1669.300 L829.553,1838.975 L817.466,1834.119 C824.937,1815.524 826.995,1802.002 823.638,1793.541 C820.282,1785.086 809.919,1777.367 792.552,1770.390 L541.792,1669.644 C533.078,1693.138 529.569,1712.425 531.271,1727.505 C534.551,1755.277 552.615,1777.475 585.466,1794.090 L579.956,1807.803 L484.149,1768.772 L599.289,1482.184 L695.470,1520.286 L689.960,1534.000 ZM627.612,2277.201 C612.224,2290.275 594.374,2296.043 574.056,2294.509 C553.910,2292.988 537.294,2284.574 524.214,2269.268 C511.138,2253.962 505.356,2236.236 506.877,2216.086 C508.398,2195.940 516.767,2179.403 531.975,2166.484 C547.186,2153.566 564.867,2147.867 585.013,2149.388 C605.331,2150.922 622.113,2159.310 635.364,2174.542 C648.618,2189.779 654.493,2207.304 652.997,2227.118 C651.463,2247.436 643.004,2264.131 627.612,2277.201 ZM703.774,2586.545 C723.051,2583.359 734.909,2578.034 739.343,2570.565 C743.780,2563.096 744.753,2550.308 742.267,2532.197 L755.118,2530.072 L784.125,2705.538 L771.274,2707.662 C767.675,2688.962 762.399,2677.013 755.446,2671.815 C748.494,2666.617 735.792,2665.543 717.338,2668.594 L642.951,2680.892 L490.180,2801.102 C480.152,2809.023 473.645,2817.799 470.667,2827.431 C468.848,2833.825 468.360,2840.087 469.202,2846.207 L456.350,2848.332 L428.364,2679.045 L441.215,2676.921 C445.091,2694.223 448.264,2705.206 450.726,2709.877 C453.192,2714.547 457.060,2716.447 462.331,2715.575 C464.640,2715.193 467.075,2714.327 469.644,2712.970 C472.213,2711.617 476.770,2708.706 483.306,2704.237 L593.841,2617.259 L593.735,2616.622 L495.786,2577.007 C489.777,2574.446 482.506,2571.927 473.971,2569.443 C460.993,2565.665 451.619,2564.252 445.850,2565.205 C436.954,2566.676 431.608,2571.201 429.814,2578.774 C428.627,2583.881 428.806,2594.681 430.348,2611.183 L417.497,2613.307 L399.112,2502.097 L411.962,2499.973 C414.780,2507.802 417.572,2513.941 420.339,2518.391 C424.479,2523.971 430.100,2528.290 437.206,2531.344 L610.605,2601.948 L703.774,2586.545 ZM518.512,2982.204 C525.769,2985.854 538.373,2983.549 556.331,2975.293 L762.526,2880.496 C779.673,2872.612 789.576,2864.570 792.233,2856.362 C794.896,2848.155 792.902,2836.023 786.251,2819.964 L798.086,2814.523 L869.236,2969.283 L857.402,2974.724 C850.600,2961.128 843.509,2951.797 836.125,2946.735 C828.747,2941.676 817.998,2942.387 803.888,2948.874 L576.072,3053.612 L577.641,3057.026 L904.183,3045.297 L909.932,3057.800 L694.433,3296.668 L695.374,3298.716 L906.121,3201.827 C921.675,3194.676 931.709,3186.574 936.223,3177.511 C940.742,3168.451 938.847,3153.883 930.540,3133.808 L942.374,3128.367 L992.493,3237.382 L980.659,3242.822 C972.348,3225.140 963.897,3215.059 955.310,3212.571 C946.724,3210.087 936.285,3211.669 923.995,3217.319 L702.552,3319.126 C689.896,3324.945 682.967,3331.809 681.763,3339.711 C680.560,3347.618 682.913,3359.584 688.822,3375.614 L676.988,3381.055 L622.997,3263.620 L796.584,3072.710 L794.806,3068.841 L537.128,3076.844 L483.104,2959.334 L494.939,2953.893 C503.403,2969.119 511.260,2978.555 518.512,2982.204 ZM848.072,3434.145 C826.588,3460.110 816.068,3482.994 816.506,3502.798 C816.949,3522.602 830.216,3548.476 856.313,3580.415 C866.247,3592.571 873.820,3599.266 879.036,3600.503 C884.252,3601.740 890.612,3599.293 898.110,3593.166 L990.052,3518.041 C971.823,3495.200 955.195,3483.232 940.172,3482.134 C925.153,3481.037 904.646,3487.548 878.659,3501.666 L870.417,3491.579 L1004.644,3381.902 L1012.886,3391.988 C992.583,3413.324 981.372,3432.133 979.258,3448.417 C977.146,3464.699 985.334,3484.160 1003.823,3506.787 L1100.032,3428.175 C1108.440,3421.305 1112.393,3414.465 1111.889,3407.650 C1111.390,3400.835 1105.645,3390.705 1094.655,3377.255 C1073.946,3351.911 1052.127,3335.234 1029.195,3327.230 C1006.269,3319.226 976.217,3320.056 939.045,3329.727 L930.011,3318.671 L1025.797,3267.252 L1215.514,3499.434 L1205.427,3507.675 C1195.743,3496.615 1187.586,3489.800 1180.960,3487.233 C1170.800,3483.243 1160.030,3485.897 1148.650,3495.196 L956.232,3652.422 C944.676,3661.864 940.022,3672.030 942.273,3682.912 C943.430,3689.301 948.386,3698.514 957.146,3710.547 L947.060,3718.788 L760.037,3489.905 L840.147,3424.447 L848.072,3434.145 ZM1236.160,3589.102 C1285.447,3581.616 1333.185,3595.912 1379.379,3631.992 L1507.104,3731.750 L1499.086,3742.016 C1488.440,3734.758 1480.006,3730.500 1473.781,3729.244 C1462.700,3727.154 1452.943,3731.507 1444.514,3742.300 L1288.786,3941.685 C1280.667,3952.080 1278.763,3962.249 1283.078,3972.189 C1285.571,3977.950 1291.788,3985.453 1301.728,3994.701 L1293.710,4004.966 L1170.131,3908.446 C1120.254,3869.490 1092.602,3826.488 1087.173,3779.450 C1082.269,3736.629 1095.746,3694.817 1127.610,3654.021 C1156.187,3617.432 1192.372,3595.793 1236.160,3589.102 ZM1181.560,3895.442 C1192.090,3903.667 1200.681,3906.771 1207.333,3904.765 C1211.702,3903.514 1217.121,3898.744 1223.597,3890.452 L1379.016,3691.462 C1385.098,3682.862 1388.231,3675.665 1388.408,3669.874 C1388.591,3664.082 1384.271,3657.743 1375.452,3650.855 C1351.500,3632.148 1325.221,3625.235 1296.613,3630.121 C1268.008,3635.004 1234.946,3661.465 1197.425,3709.504 C1175.121,3738.060 1160.095,3765.845 1152.351,3792.851 C1139.975,3836.369 1149.712,3870.567 1181.560,3895.442 ZM1675.786,3811.446 L1670.331,3823.274 C1654.891,3816.886 1644.323,3813.577 1638.636,3813.346 C1632.952,3813.112 1628.255,3817.015 1624.548,3825.054 C1622.869,3828.693 1621.533,3834.788 1620.529,3843.338 C1620.023,3848.435 1619.627,3854.687 1619.338,3862.097 L1618.180,3895.767 L1722.767,3944.001 C1738.132,3928.649 1748.095,3918.624 1752.654,3913.925 C1762.274,3903.832 1768.342,3896.058 1770.859,3890.599 C1773.937,3883.924 1771.704,3877.011 1764.153,3869.852 C1759.616,3865.734 1752.075,3861.153 1741.528,3856.108 L1746.982,3844.280 L1842.062,3888.129 L1836.608,3899.957 C1825.038,3895.539 1813.672,3896.456 1802.511,3902.714 C1795.387,3906.600 1783.079,3916.737 1765.588,3933.131 L1544.497,4140.388 L1531.532,4134.408 L1540.455,3841.717 C1541.438,3808.884 1540.884,3787.160 1538.791,3776.540 C1536.701,3765.922 1530.280,3758.314 1519.522,3753.724 L1524.977,3741.896 L1675.786,3811.446 ZM1615.514,4047.631 L1707.283,3959.203 L1616.518,3917.344 L1611.605,4045.828 L1615.514,4047.631 ZM2394.892,3975.718 C2378.218,3976.823 2367.277,3978.532 2362.076,3980.841 C2356.874,3983.148 2354.390,3988.725 2354.623,3997.575 C2354.728,4001.582 2356.227,4007.639 2359.110,4015.750 C2360.912,4020.545 2363.323,4026.327 2366.344,4033.099 L2380.205,4063.806 L2495.339,4060.777 C2502.323,4040.211 2506.821,4026.812 2508.830,4020.581 C2512.991,4007.273 2514.992,3997.617 2514.834,3991.607 C2514.640,3984.259 2509.578,3979.048 2499.639,3975.970 C2493.749,3974.285 2484.958,3973.514 2473.267,3973.657 L2472.925,3960.636 L2577.593,3957.882 L2577.935,3970.903 C2565.605,3972.061 2555.819,3977.914 2548.579,3988.464 C2543.910,3995.102 2537.359,4009.639 2528.929,4032.080 L2422.380,4315.777 L2408.107,4316.153 L2286.586,4049.731 C2272.938,4019.852 2262.828,4000.617 2256.251,3992.020 C2249.679,3983.422 2240.553,3979.442 2228.875,3980.086 L2228.533,3967.065 L2394.549,3962.698 L2394.892,3975.718 ZM2440.714,4201.283 L2445.018,4201.170 L2488.180,4081.262 L2388.262,4083.891 L2440.714,4201.283 ZM2733.330,3914.919 L2746.881,3910.423 L3047.464,4099.680 L3050.792,4098.576 L2987.450,3907.668 C2982.482,3892.693 2976.910,3882.785 2970.726,3877.942 C2960.898,3870.061 2945.788,3869.062 2925.394,3874.946 L2921.292,3862.584 L3031.605,3825.982 L3035.707,3838.345 C3017.796,3844.816 3007.290,3852.128 3004.190,3860.283 C3001.089,3868.437 3001.616,3878.774 3005.770,3891.296 L3082.286,4121.908 C3102.708,4133.606 3115.148,4140.340 3119.606,4142.119 C3124.067,4143.892 3129.439,4144.176 3135.724,4142.973 L3139.826,4155.335 L3036.645,4189.570 L2801.781,4041.683 L2799.403,4042.472 L2846.861,4185.505 C2852.329,4201.987 2859.232,4212.761 2867.560,4217.828 C2875.892,4222.891 2889.283,4223.157 2907.728,4218.620 L2911.830,4230.983 L2807.223,4265.691 L2803.121,4253.328 C2817.500,4245.757 2826.562,4238.990 2830.299,4233.028 C2834.040,4227.065 2833.453,4216.683 2828.540,4201.876 L2733.330,3914.919 ZM3233.370,4082.943 C3239.720,4073.641 3239.254,4062.287 3231.972,4048.881 L3113.367,3830.529 C3106.512,3817.907 3098.407,3811.383 3089.053,3810.955 C3079.696,3810.523 3067.976,3814.137 3053.889,3821.789 L3047.672,3810.343 L3205.273,3724.737 L3211.490,3736.183 C3198.882,3743.410 3190.550,3749.931 3186.487,3755.751 C3179.940,3765.386 3180.291,3776.882 3187.545,3790.237 L3306.150,4008.589 C3313.353,4021.851 3322.510,4028.386 3333.622,4028.203 C3340.409,4028.102 3350.711,4024.675 3364.528,4017.927 L3370.745,4029.373 L3213.144,4114.979 L3206.927,4103.533 C3220.696,4095.296 3229.511,4088.433 3233.370,4082.943 ZM3305.324,3702.407 C3297.201,3726.036 3299.291,3758.054 3311.600,3798.462 L3299.761,3807.721 L3244.537,3703.360 L3478.550,3520.346 L3486.574,3530.606 C3475.833,3539.642 3469.071,3547.261 3466.294,3553.468 C3461.565,3563.953 3463.832,3575.123 3473.101,3586.974 L3626.159,3782.683 C3635.353,3794.439 3645.351,3799.359 3656.147,3797.445 C3662.559,3796.425 3671.876,3791.667 3684.093,3783.166 L3692.117,3793.426 L3550.842,3903.914 L3542.818,3893.653 C3558.852,3880.268 3568.012,3869.413 3570.296,3861.088 C3572.583,3852.761 3567.485,3840.620 3555.002,3824.659 L3405.645,3633.682 C3398.643,3624.729 3391.675,3620.629 3384.738,3621.383 C3377.804,3622.136 3367.563,3627.815 3354.013,3638.412 C3329.679,3657.443 3313.448,3678.773 3305.324,3702.407 ZM3777.013,3504.341 L3527.960,3505.348 C3522.620,3505.352 3518.505,3506.286 3515.620,3508.152 C3512.734,3510.018 3508.891,3513.417 3504.083,3518.351 L3493.920,3510.205 L3601.553,3375.934 L3611.716,3384.081 C3602.131,3396.301 3596.021,3404.993 3593.382,3410.156 C3590.743,3415.314 3591.247,3419.359 3594.896,3422.285 C3596.588,3423.641 3599.347,3424.674 3603.167,3425.383 C3606.986,3426.087 3612.639,3426.445 3620.124,3426.456 L3769.321,3426.605 L3767.271,3408.293 L3688.898,3345.468 C3677.300,3336.170 3666.321,3333.715 3655.954,3338.106 C3649.906,3340.576 3642.208,3347.106 3632.866,3357.696 L3622.703,3349.549 L3730.963,3214.497 L3741.126,3222.644 C3732.800,3233.832 3728.034,3242.712 3726.833,3249.285 C3724.806,3260.355 3729.656,3270.593 3741.383,3279.994 L3935.264,3435.412 C3946.780,3444.643 3957.380,3447.326 3967.064,3443.467 C3972.989,3441.114 3981.065,3434.355 3991.295,3423.183 L4001.458,3431.330 L3892.885,3566.773 L3882.722,3558.626 C3892.628,3543.879 3897.504,3532.483 3897.348,3524.443 C3897.195,3516.399 3889.537,3506.303 3874.375,3494.149 L3788.575,3425.370 L3806.794,3581.421 C3807.971,3592.205 3809.119,3599.496 3810.243,3603.287 C3811.368,3607.078 3813.753,3610.435 3817.393,3613.353 C3822.463,3617.416 3827.568,3617.706 3832.703,3614.228 C3837.841,3610.748 3846.107,3602.701 3857.498,3590.093 L3867.661,3598.240 L3774.755,3714.138 L3764.592,3705.991 C3779.504,3683.916 3787.403,3662.047 3788.285,3640.391 C3789.166,3618.730 3785.408,3573.382 3777.013,3504.341 ZM3757.387,3138.729 L4101.305,3049.911 L4102.785,3046.732 L3920.441,2961.827 C3906.139,2955.167 3895.108,2952.423 3887.342,2953.599 C3874.865,2955.340 3863.771,2965.648 3854.059,2984.521 L3842.251,2979.023 L3891.312,2873.659 L3903.120,2879.157 C3895.538,2896.626 3893.650,2909.286 3897.454,2917.137 C3901.260,2924.988 3909.141,2931.697 3921.101,2937.266 L4141.367,3039.829 C4163.889,3032.999 4177.324,3028.569 4181.677,3026.546 C4186.027,3024.518 4189.920,3020.804 4193.357,3015.406 L4205.165,3020.904 L4159.276,3119.456 L3890.545,3188.850 L3889.487,3191.120 L4026.104,3254.734 C4041.846,3262.064 4054.420,3264.434 4063.821,3261.852 C4073.220,3259.265 4082.602,3249.705 4091.957,3233.174 L4103.766,3238.672 L4057.242,3338.587 L4045.434,3333.089 C4049.792,3317.434 4051.086,3306.198 4049.313,3299.389 C4047.542,3292.576 4039.586,3285.879 4025.443,3279.294 L3751.360,3151.672 L3757.387,3138.729 ZM3928.422,2831.654 C3918.539,2836.064 3912.559,2844.023 3910.489,2855.534 L3897.741,2852.861 L3931.824,2690.322 L3944.573,2692.996 C3941.797,2709.474 3940.934,2720.513 3941.980,2726.108 C3943.023,2731.701 3947.876,2735.406 3956.541,2737.223 C3960.464,2738.045 3966.702,2737.986 3975.260,2737.053 C3980.342,2736.407 3986.525,2735.396 3993.811,2734.021 L4026.889,2727.624 L4050.526,2614.902 C4032.128,2603.358 4020.129,2595.887 4014.531,2592.494 C4002.543,2585.373 3993.609,2581.197 3987.726,2579.963 C3980.532,2578.454 3974.293,2582.177 3969.002,2591.137 C3966.003,2596.479 3963.223,2604.853 3960.663,2616.262 L3947.915,2613.588 L3969.403,2511.113 L3982.151,2513.786 C3980.431,2526.050 3983.865,2536.924 3992.459,2546.404 C3997.840,2552.479 4010.471,2562.210 4030.359,2575.594 L4281.789,2744.768 L4278.859,2758.742 L3991.578,2815.464 C3959.355,2821.844 3938.305,2827.239 3928.422,2831.654 ZM4174.622,2700.493 L4175.506,2696.279 L4068.804,2626.597 L4048.291,2724.422 L4174.622,2700.493 Z"/>
<text kerning="auto" font-family="Myriad Pro" fill="rgb(0, 0, 0)" font-size="393px" x="1749px" y="1640.922px"><tspan font-size="393px" font-family="Arial" fill="#2E437D">QUAM</tspan></text>
<text kerning="auto" font-family="Myriad Pro" fill="rgb(0, 0, 0)" transform="matrix( 0, -1, 1, 0,1542, 2789.192)" font-size="393px"><tspan font-size="393px" font-family="Arial" fill="#2E437D">ESSE</tspan></text>
<text kerning="auto" font-family="Myriad Pro" fill="rgb(0, 0, 0)" transform="matrix( 0, 1, -1, 0,3165, 1665.7865)" font-size="393px"><tspan font-size="393px" font-family="Arial" fill="#2E437D">VIDERI</tspan></text>
<path fill-rule="evenodd"  fill="rgb(46, 67, 125)"
 d="M1677.011,1773.000 C1677.011,1773.000 1826.887,1864.309 2002.203,1864.309 C2177.519,1864.309 2356.502,1794.071 2356.502,1794.071 C2356.502,1794.071 2494.229,1852.268 2708.793,1852.268 C2923.357,1852.268 3024.952,1778.017 3024.952,1778.017 L3038.000,2547.622 C3038.000,2547.622 2950.390,3250.000 2368.546,3250.000 C1786.701,3250.000 1674.000,2642.080 1674.000,2579.731 C1674.000,2517.382 1677.011,1773.000 1677.011,1773.000 Z"/>
<path fill-rule="evenodd"  fill="rgb(255, 255, 255)"
 d="M2788.993,2124.238 C2788.993,2124.238 2748.210,2107.000 2659.742,2107.000 C2571.272,2107.000 2356.000,2220.125 2356.000,2220.125 L2356.000,2831.000 C2356.000,2831.000 2552.852,2707.101 2680.206,2707.101 C2807.561,2707.101 2831.000,2742.655 2831.000,2742.655 L2831.000,2145.786 "/>
<path fill-rule="evenodd"  fill="rgb(46, 67, 125)"
 d="M2779.000,2143.000 C2779.000,2143.000 2741.136,2127.000 2659.000,2127.000 C2576.864,2127.000 2377.000,2232.000 2377.000,2232.000 L2377.000,2799.000 C2377.000,2799.000 2559.762,2684.000 2678.000,2684.000 C2796.239,2684.000 2818.000,2717.000 2818.000,2717.000 L2818.000,2163.000 "/>
<path fill-rule="evenodd"  fill="rgb(255, 255, 255)"
 d="M1920.007,2124.238 C1920.007,2124.238 1960.789,2107.000 2049.259,2107.000 C2137.727,2107.000 2353.000,2220.125 2353.000,2220.125 L2353.000,2831.000 C2353.000,2831.000 2156.148,2707.101 2028.794,2707.101 C1901.439,2707.101 1878.000,2742.655 1878.000,2742.655 L1878.000,2145.786 "/>
<path fill-rule="evenodd"  fill="rgb(46, 67, 125)"
 d="M1930.000,2143.000 C1930.000,2143.000 1967.864,2127.000 2050.000,2127.000 C2132.136,2127.000 2332.000,2232.000 2332.000,2232.000 L2332.000,2799.000 C2332.000,2799.000 2149.238,2684.000 2031.000,2684.000 C1912.762,2684.000 1891.000,2717.000 1891.000,2717.000 L1891.000,2163.000 "/>
</svg>