<?xml version="1.0" encoding="UTF-8" standalone="no"?>
<svg width="48px" height="48px" viewBox="0 0 48 48" version="1.1" xmlns="http://www.w3.org/2000/svg" xmlns:xlink="http://www.w3.org/1999/xlink">
    <!-- Generator: Sketch 3.7 (28169) - http://www.bohemiancoding.com/sketch -->
    <title>quest-frozen</title>
    <desc>Created with Sketch.</desc>
    <defs>
        <circle id="path-1" cx="24" cy="24" r="24"></circle>
        <path d="M22.6885808,21.7350105 L22.6885808,16.291157 L18.7655039,12.7800128 L18.7655039,9.61538462 L22.6885808,13.1069182 L22.6885808,7 L25.3039654,7 L25.3039654,13.1069182 L29.2270424,9.61538462 L29.2270424,12.7800128 L25.3039654,16.291157 L25.3039654,21.7350105 L30.0184808,19.0130838 L31.0976825,13.8600274 L33.8383309,12.2777133 L32.7761125,17.4209644 L38.0648588,14.3675052 L39.3725512,16.6324948 L34.0838048,19.6859539 L39.0691001,21.3376713 L36.3284517,22.9199854 L31.3261731,21.2780733 L26.6116578,24 L31.3261731,26.7219267 L36.3284517,25.0800146 L39.0691001,26.6623287 L34.0838048,28.3140461 L39.3725512,31.3675052 L38.0648588,33.6324948 L32.7761125,30.5790356 L33.8383309,35.7222867 L31.0976825,34.1399726 L30.0184808,28.9869162 L25.3039654,26.2649895 L25.3039654,31.7088418 L29.2270424,35.2199824 L29.2270424,38.3846074 L25.3039654,34.8930773 L25.3039654,41 L22.6885808,41 L22.6885808,34.8930773 L18.7655039,38.3846074 L18.7655039,35.2199824 L22.6885808,31.7088418 L22.6885808,26.2649895 L17.9740665,28.9869156 L16.8948679,34.1399703 L14.1542223,35.7222827 L15.2164376,30.5790334 L9.92768742,33.6324948 L8.61999512,31.3675052 L13.9087453,28.3140439 L8.92345309,26.6623247 L11.6640987,25.0800122 L16.6663742,26.7219261 L21.3808885,24 L16.6663742,21.2780739 L11.6640987,22.9199878 L8.92345309,21.3376753 L13.9087453,19.6859561 L8.61999512,16.6324948 L9.92768742,14.3675052 L15.2164376,17.4209666 L14.1542223,12.2777173 L16.8948679,13.8600297 L17.9740665,19.0130844 L22.6885808,21.7350105 Z" id="path-3"></path>
        <mask id="mask-4" maskContentUnits="userSpaceOnUse" maskUnits="objectBoundingBox" x="-1" y="-1" width="32.752556" height="36">
            <rect x="7.61999512" y="6" width="32.752556" height="36" fill="white"></rect>
            <use xlink:href="#path-3" fill="black"></use>
        </mask>
    </defs>
    <g id="Page-1" stroke="none" stroke-width="1" fill="none" fill-rule="evenodd">
        <g id="Frozen">
            <g id="Badge">
                <mask id="mask-2" fill="white">
                    <use xlink:href="#path-1"></use>
                </mask>
                <use id="background" fill="#4595E6" xlink:href="#path-1"></use>
                <path d="M48,24 C48,10.745166 37.254834,0 24,0 C10.745166,0 0,10.745166 0,24 C0,37.254834 10.745166,48 24,48 C37.254834,48 48,37.254834 48,24 Z M24,47 C11.2974508,47 1,36.7025492 1,24 C1,11.2974508 11.2974508,1 24,1 C36.7025492,1 47,11.2974508 47,24 C47,36.7025492 36.7025492,47 24,47 L24,47 Z" id="border" fill-opacity="0.4" fill="#000000" mask="url(#mask-2)"></path>
                <g id="Combined-Shape" mask="url(#mask-2)" transform="translate(23.996273, 24.000000) rotate(-345.000000) translate(-23.996273, -24.000000) ">
                    <use fill="#FFFFFF" fill-rule="evenodd" xlink:href="#path-3"></use>
                    <use stroke-opacity="0.4" stroke="#000000" mask="url(#mask-4)" stroke-width="2" xlink:href="#path-3"></use>
                </g>
            </g>
        </g>
    </g>
</svg>