<svg xmlns="http://www.w3.org/2000/svg" xmlns:xlink="http://www.w3.org/1999/xlink" viewBox="0 0 230 200" class="svg-mostly-cloudy">
  <defs>
    <mask id="svg-cloud-mask-mostly-cloudy">
      <rect x="0" y="0" width="100%" height="100%" fill="#ff0000"></rect>
      <use xlink:href="/sites/all/modules/custom/angularmods/app/shared/wxicon/svgz/symbols.svgz#svg-cloud" transform="scale(1.8392) translate(-19, -19)" fill="#f00" stroke="#f00" stroke-width="9"></use>
    </mask>
  </defs>
  <use class="svg-sun" xlink:href="/sites/all/modules/custom/angularmods/app/shared/wxicon/svgz/symbols.svgz#svg-sun" transform="scale(0.56) translate(20, 30)" mask="url(#svg-cloud-mask-mostly-cloudy)"></use>

  <path class="svg-cloud" d="M197.4,94.2c-2.4-8.8-11.3-14-20.1-11.7c0,0-0.6,0.2-1.8,0.5c-2.8-10.4-12.3-18.1-23.6-18.1 c-7.5,0-14.1,3.4-18.6,8.7c3.2,3.7,5.8,7.9,7.9,12.4c1.6-0.2,3.3-0.3,5-0.3c16.9,0,31.8,11.4,36.2,27.8c0.1,0.5,0.2,1,0.3,1.5 c1-0.1,2.2-0.2,3-0.4C194.6,112,199.8,103,197.4,94.2z" transform="translate(20, -8) scale(1.04)"></path>

  <use class="svg-cloud" xlink:href="/sites/all/modules/custom/angularmods/app/shared/wxicon/svgz/symbols.svgz#svg-cloud" transform="translate(-6, 1)" stroke="none"></use>

</svg>