<?xml version="1.0" standalone="no"?>
<!DOCTYPE svg PUBLIC "-//W3C//DTD SVG 1.1//EN" "http://www.w3.org/Graphics/SVG/1.1/DTD/svg11.dtd" >
<svg xmlns="http://www.w3.org/2000/svg">
<metadata></metadata>
<defs>
<font id="sf_monoregular_italic" horiz-adv-x="1266" >
<font-face units-per-em="2048" ascent="1638" descent="-410" />
<missing-glyph horiz-adv-x="500" />
<glyph horiz-adv-x="0" />
<glyph unicode="&#xd;" horiz-adv-x="0" />
<glyph unicode=" " />
<glyph unicode="!" d="M517 123q0 59 40 100.5t97 41.5t97 -41.5t40 -100.5t-40 -100.5t-97 -41.5t-97 41.5t-40 100.5zM630 449l160 994h199l-193 -994h-166z" />
<glyph unicode="&#x22;" d="M492 811l110 632h178l-110 -632h-178zM881 811l110 632h180l-110 -632h-180z" />
<glyph unicode="#" d="M141 411l56 149h207l128 339h-208l54 147h208l149 397h148l-150 -397h291l150 397h148l-150 -397h207l-55 -147h-207l-129 -339h208l-54 -149h-208l-155 -411h-147l154 411h-291l-153 -411h-149l156 411h-208zM547 556h295l130 346h-295z" />
<glyph unicode="$" d="M193 357q0 37 3 47l161 1q-1 -13 -1 -27q0 -92 65 -160t174 -91l96 544l-14 4q-179 68 -260.5 161.5t-81.5 230.5q0 181 136 294.5t353 113.5h9l19 109h119l-21 -122q149 -31 240.5 -128t91.5 -228q0 -23 -3 -41h-162v20q0 81 -53 143t-141 86l-91 -517l32 -11 q185 -69 263 -158t78 -228q0 -194 -141.5 -313t-372.5 -119h-5l-19 -109h-119l21 120q-167 30 -271.5 133.5t-104.5 244.5zM505 1080q0 -82 49.5 -138.5t165.5 -104.5l87 490q-134 -4 -218 -72.5t-84 -174.5zM712 116q145 3 236 77t91 190q0 86 -52.5 141.5t-183.5 107.5z " />
<glyph unicode="%" d="M0 0l30 167l1490 1276l-29 -167zM183 998q0 37 6 76l19 103q23 131 105 208.5t199 77.5q118 0 185.5 -67.5t67.5 -183.5q0 -36 -6 -73l-19 -104q-23 -134 -105 -211.5t-201 -77.5q-116 0 -183.5 67t-67.5 185zM318 1013q0 -140 127 -140q133 0 168 190l10 63q7 34 7 70 q0 140 -127 140q-131 0 -167 -190l-11 -63q-7 -31 -7 -70zM756 232q0 45 6 76l20 103q24 132 105 209t198 77q118 0 185.5 -67t67.5 -184q0 -35 -6 -73l-19 -103q-23 -135 -105 -212.5t-201 -77.5q-117 0 -184 67t-67 185zM891 247q0 -140 128 -140q131 0 167 190l11 63 q6 36 6 70q0 140 -126 140q-132 0 -168 -190l-11 -63q-7 -31 -7 -70z" />
<glyph unicode="&#x26;" d="M139 390q30 243 335 404l52 28q-124 200 -102 350q19 139 123.5 223.5t248.5 76.5q140 -8 216 -96t56 -221q-16 -113 -93 -198.5t-246 -175.5l243 -410q45 61 72.5 139.5t49.5 204.5l1 13h147l-3 -28q-44 -285 -188 -462l154 -238h-197l-70 124q-92 -78 -204 -117 t-226 -32q-188 11 -289.5 125.5t-79.5 289.5zM301 394q-15 -113 49.5 -188.5t182.5 -81.5q88 -5 176.5 26t160.5 94l-277 458l-46 -24q-117 -59 -176 -127.5t-70 -156.5zM574 1167q-9 -60 11.5 -125t77.5 -157q132 71 187.5 129.5t67.5 138.5q12 73 -28.5 123.5t-113.5 55.5 q-74 4 -132 -43.5t-70 -121.5z" />
<glyph unicode="'" d="M687 811l111 632h178l-111 -632h-178z" />
<glyph unicode="(" d="M471 528q0 292 121 564.5t346 489.5h187q-230 -222 -356.5 -495t-126.5 -548q0 -368 169 -679h-169q-78 122 -124.5 304t-46.5 364z" />
<glyph unicode=")" d="M395 -140q230 222 356.5 495t126.5 548q0 368 -169 679h169q78 -122 124.5 -304t46.5 -364q0 -292 -121 -564.5t-346 -489.5h-187z" />
<glyph unicode="*" d="M175 509l450 151l-370 295l91 115l359 -319l72 473l140 -26l-94 -466l445 175l49 -141l-451 -150l370 -295l-91 -115l-359 319l-71 -474l-140 27l94 466l-446 -175z" />
<glyph unicode="+" d="M199 561l27 158h455l81 453h155l-80 -453h455l-27 -158h-455l-80 -452h-155l79 452h-455z" />
<glyph unicode="," d="M340 -335l255 714h237l-306 -714h-186z" />
<glyph unicode="-" d="M204 561l27 158h1058l-26 -158h-1059z" />
<glyph unicode="." d="M483 179q0 76 53.5 130t127.5 54t127 -54t53 -130t-53 -130.5t-127 -54.5t-127.5 54.5t-53.5 130.5z" />
<glyph unicode="/" d="M175 -137l1002 1717h169l-1004 -1717h-167z" />
<glyph unicode="0" d="M243 512q2 127 19 230q7 54 18 99q56 302 201 467.5t357 165.5q209 0 323 -144.5t112 -407.5q0 -105 -17 -199q0 -6 -4 -31.5t-9 -54t-5 -30.5q-55 -303 -201 -470t-359 -167q-210 0 -323.5 142t-111.5 400zM417 568l675 490q-22 121 -89.5 187t-170.5 66 q-141 0 -240.5 -132t-143.5 -376l-14 -76q-14 -77 -17 -159zM424 387q22 -124 88 -189t170 -65q144 0 244.5 131.5t143.5 375.5l14 76q15 78 15 165z" />
<glyph unicode="1" d="M172 0l26 155h409l197 1097h-12l-441 -230l30 180l446 241h183l-227 -1288h421l-26 -155h-422h-177h-407z" />
<glyph unicode="2" d="M186 0l23 136l618 569q141 131 198.5 217t57.5 165q0 99 -76.5 162.5t-195.5 63.5q-120 0 -201.5 -67t-90.5 -172h-167q5 172 138 286t330 114q193 0 314.5 -103.5t121.5 -268.5q0 -118 -69.5 -228t-247.5 -273l-476 -429l-2 -12h698l-27 -160h-946z" />
<glyph unicode="3" d="M205 333q0 29 4 49h166v-19q0 -97 90 -163t220 -66q147 0 239.5 77t92.5 199q0 117 -87.5 189.5t-228.5 72.5h-115l25 159h135q152 0 246.5 70.5t94.5 183.5q0 104 -78 168t-205 64q-106 0 -182.5 -53t-93.5 -136h-165q13 154 138 250.5t310 96.5q198 0 320 -100 t122 -263q0 -139 -93 -240.5t-235 -115.5l-3 -13q124 -25 196 -114.5t72 -219.5q0 -196 -142 -317.5t-369 -121.5q-204 0 -339 103.5t-135 259.5z" />
<glyph unicode="4" d="M198 305l25 143l665 995h188l-655 -972l-3 -13h466l73 412h160l-73 -410h220l-26 -155h-220l-55 -305h-161l54 305h-658z" />
<glyph unicode="5" d="M238 362v19h166q1 -104 86 -175.5t208 -71.5q154 0 252 99.5t98 254.5q0 132 -81.5 214.5t-211.5 82.5q-89 0 -163 -34.5t-118 -95.5h-170l195 788h787l-26 -159h-636l-124 -473h14q45 57 121.5 89t167.5 32q184 0 300.5 -122.5t116.5 -314.5q0 -225 -151 -375t-377 -150 q-196 0 -325 111t-129 281z" />
<glyph unicode="6" d="M217 461q0 148 71 282t237 298l405 402h228l-475 -463q-102 -102 -121 -125h19q87 69 220 69q189 0 314.5 -129.5t125.5 -323.5q0 -215 -149.5 -358t-375.5 -143q-220 0 -359.5 137.5t-139.5 353.5zM388 458q0 -141 95 -232t241 -91t245.5 94t99.5 233q0 140 -96.5 231 t-243.5 91q-146 0 -243.5 -93.5t-97.5 -232.5z" />
<glyph unicode="7" d="M279 0l881 1272l2 13h-775l26 158h963l-27 -163l-869 -1280h-201z" />
<glyph unicode="8" d="M208 379q0 152 109.5 263t272.5 124l3 12q-101 47 -157 129.5t-56 183.5q0 167 127.5 275.5t324.5 108.5q194 0 316 -103.5t122 -267.5q0 -133 -90.5 -230t-223.5 -107l-3 -14q119 -39 190 -137.5t71 -224.5q0 -188 -141 -305.5t-366 -117.5q-221 0 -360 114.5 t-139 296.5zM390 395q0 -122 88 -198t230 -76q145 0 236.5 79t91.5 203q0 121 -89.5 198.5t-229.5 77.5q-142 0 -234.5 -80.5t-92.5 -203.5zM555 1069q0 -106 74 -172.5t192 -66.5q121 0 199 71t78 180q0 108 -73.5 174t-192.5 66q-121 0 -199 -71t-78 -181z" />
<glyph unicode="9" d="M283 972q0 215 149.5 358t375.5 143q220 0 359.5 -137.5t139.5 -353.5q0 -148 -71 -282t-237 -298l-405 -402h-228l475 463q102 102 121 125h-19q-87 -69 -220 -69q-189 0 -314.5 129.5t-125.5 323.5zM455 981q0 -140 96.5 -231t243.5 -91q146 0 243.5 93.5t97.5 232.5 q0 141 -95 232t-241 91t-245.5 -94t-99.5 -233z" />
<glyph unicode=":" d="M483 179q0 76 53.5 130t127.5 54t127.5 -54t53.5 -130t-53.5 -130.5t-127.5 -54.5t-127.5 54.5t-53.5 130.5zM619 947q0 76 53.5 130.5t127.5 54.5t127.5 -54.5t53.5 -130.5t-53.5 -130.5t-127.5 -54.5t-127.5 54.5t-53.5 130.5z" />
<glyph unicode=";" d="M367 -332l254 711h238l-305 -711h-187zM620 947q0 76 53 130.5t127 54.5q75 0 128 -54.5t53 -130.5t-53 -130.5t-128 -54.5q-74 0 -127 54.5t-53 130.5z" />
<glyph unicode="&#x3c;" d="M304 566l24 148l950 507l-33 -202l-756 -381l-2 -17l617 -382l-30 -180z" />
<glyph unicode="=" d="M164 329l27 165h1058l-27 -165h-1058zM243 785l27 165h1058l-27 -165h-1058z" />
<glyph unicode="&#x3e;" d="M214 59l33 202l756 381l2 17l-617 382l30 180l770 -507l-24 -148z" />
<glyph unicode="?" d="M401 1090q26 173 161 275t323 92q177 -9 279 -115t83 -261q-27 -228 -266 -347q-112 -56 -157.5 -114.5t-52.5 -157.5l-1 -13h-174l1 15q6 140 64 223.5t198 152.5q96 48 142 101t57 131q16 94 -39.5 156t-160.5 69q-108 6 -186.5 -50.5t-98.5 -156.5h-172zM511 123 q0 59 39.5 100.5t97.5 41.5q57 0 97 -41.5t40 -100.5t-40 -100.5t-97 -41.5q-58 0 -97.5 41.5t-39.5 100.5z" />
<glyph unicode="@" d="M185 329q0 90 24 251l34 187q61 348 219 528.5t400 180.5q227 0 351 -123t124 -348q0 -84 -17 -181l-46 -262q-24 -133 -91 -194.5t-187 -61.5h-278q-46 0 -72 28t-26 78q0 6 4 38l65 377q10 61 43.5 95t83.5 34q49 0 76.5 -28.5t27.5 -78.5q0 -14 -4 -38l-68 -390h142 q72 0 109 32t51 105l45 252q17 97 17 174q0 179 -94 275t-270 96q-193 0 -310 -146.5t-172 -459.5l-28 -154q-25 -137 -25 -253q0 -215 98 -319.5t301 -104.5q119 0 189 25l-20 -118q-62 -26 -197 -26q-499 0 -499 530z" />
<glyph unicode="A" d="M73 0l720 1443h188l207 -1443h-176l-52 414h-503l-200 -414h-184zM531 565h410l-83 666h-5z" />
<glyph unicode="B" d="M188 0l254 1443h451q185 1 289 -87q104 -87 103 -239q0 -133 -84 -234q-83 -100 -212 -126l-2 -11q119 -23 189 -110q69 -86 69 -209q0 -197 -147 -313q-145 -114 -392 -114h-518zM388 153h310q167 0 266.5 77t99.5 206q0 115 -78.5 176t-225.5 61h-278zM507 820h272 q143 0 231 73q90 74 90 194q0 99 -64 151q-65 53 -190 53h-254z" />
<glyph unicode="C" d="M220 489q0 83 14 160l40 229q50 289 201 442t389 153q209 0 340 -120.5t131 -311.5q0 -34 -6 -74h-174q3 34 3 57q0 127 -82.5 203t-221.5 76q-155 0 -257.5 -106.5t-139.5 -305.5l-44 -251q-13 -68 -13 -153q0 -165 86 -256.5t240 -91.5q132 0 219.5 70.5t113.5 198.5 q1 3 1 5h178q0 -10 -1 -14q-20 -190 -168 -310t-360 -120q-226 0 -357.5 139.5t-131.5 380.5z" />
<glyph unicode="D" d="M160 0l254 1443h376q254 0 389.5 -139.5t135.5 -400.5q0 -87 -9 -149q0 -5 -12.5 -74.5t-12.5 -71.5q-105 -608 -711 -608h-410zM364 162h198q460 0 542 462q0 2 11 63.5t11 64.5q9 70 9 135q0 395 -378 395h-193z" />
<glyph unicode="E" d="M230 0l254 1443h852l-27 -162h-674l-85 -468h638l-26 -155h-638l-90 -496h675l-27 -162h-852z" />
<glyph unicode="F" d="M254 0l254 1443h851l-26 -162h-675l-89 -495h617l-27 -157h-617l-111 -629h-177z" />
<glyph unicode="G" d="M210 480q0 84 15 169l47 263q48 268 200 414.5t383 146.5q207 0 336 -118.5t129 -308.5q0 -17 -4 -63h-173q2 34 2 46q0 123 -84 199.5t-220 76.5q-153 0 -255 -107.5t-139 -306.5l-44 -252q-15 -85 -15 -155q0 -162 86.5 -255.5t237.5 -93.5q135 0 225.5 75.5 t113.5 208.5l30 164h-336l26 151h510l-60 -339q-34 -197 -175 -311.5t-347 -114.5q-224 0 -356.5 138.5t-132.5 372.5z" />
<glyph unicode="H" d="M153 0l254 1443h175l-110 -625h609l111 625h175l-254 -1443h-175l116 656h-609l-117 -656h-175z" />
<glyph unicode="I" d="M253 0l26 157h292l202 1129h-292l26 157h760l-25 -157h-293l-202 -1129h293l-27 -157h-760z" />
<glyph unicode="J" d="M225 329q0 18 4 52h166q-2 -16 -2 -29q0 -95 68.5 -154.5t178.5 -59.5t179.5 65t91.5 188l160 895h-495l26 157h673l-191 -1075q-34 -196 -148.5 -297t-304.5 -101q-178 0 -292 101t-114 258z" />
<glyph unicode="K" d="M216 0l254 1443h172l-128 -709h11l737 709h214l-655 -642l415 -801h-201l-354 685l-204 -187l-89 -498h-172z" />
<glyph unicode="L" d="M263 0l254 1443h175l-226 -1279h684l-28 -164h-859z" />
<glyph unicode="M" d="M99 0l254 1443h192l173 -893h12l485 893h206l-254 -1443h-158l99 554l113 584h-13l-445 -799h-138l-162 799h-13l-94 -584l-99 -554h-158z" />
<glyph unicode="N" d="M153 0l254 1443h169l417 -1123h14l201 1123h159l-254 -1443h-167l-419 1126h-14l-201 -1126h-159z" />
<glyph unicode="O" d="M205 488q0 131 15 205l42 232q45 258 192.5 403t365.5 145q225 0 360 -144.5t135 -384.5q0 -88 -14 -188l-43 -232q-49 -271 -193.5 -412.5t-373.5 -141.5q-217 0 -351.5 143.5t-134.5 374.5zM383 508q0 -172 86.5 -271.5t235.5 -99.5q147 0 244.5 108.5t134.5 313.5 l42 234q12 72 12 150q0 164 -89 263.5t-237 99.5q-146 0 -242.5 -104t-131.5 -305l-41 -225q-14 -84 -14 -164z" />
<glyph unicode="P" d="M198 0l254 1443h454q194 0 308.5 -106t114.5 -284q0 -249 -152.5 -392t-420.5 -143h-289l-92 -518h-177zM494 675h272q182 0 284.5 96.5t102.5 267.5q0 117 -73.5 182t-205.5 65h-271z" />
<glyph unicode="Q" d="M205 488q0 131 15 205l42 232q45 258 192.5 403t365.5 145q225 0 360 -144.5t135 -384.5q0 -90 -15 -188l-42 -232q-56 -310 -237 -450l112 -239h-180l-76 163q-84 -28 -186 -28q-217 0 -351.5 143.5t-134.5 374.5zM382 505q0 -172 87 -272t236 -100q54 0 102 15 l-146 313h180l105 -225q101 109 139 321l42 235q12 70 12 150q0 165 -89.5 264.5t-237.5 99.5q-147 0 -243 -104.5t-132 -305.5l-40 -227q-15 -82 -15 -164z" />
<glyph unicode="R" d="M182 0l254 1443h470q186 0 294 -101q108 -100 108 -273q0 -52 -7 -98q-22 -140 -111.5 -237t-227.5 -132l194 -602h-188l-180 577q-34 -2 -73 -2h-257l-102 -575h-174zM484 724h271q153 0 247.5 71t115.5 195q6 34 6 71q0 105 -66 165q-68 60 -190 60h-284z" />
<glyph unicode="S" d="M195 366q0 35 4 47h174q-2 -26 -2 -28q0 -111 94 -183t239 -72q142 0 232 71t90 183q0 86 -57 142t-199 109l-95 36q-178 67 -258.5 159.5t-80.5 228.5q0 184 134.5 299t349.5 115q202 0 332 -106t130 -271q0 -28 -3 -40h-174q1 3 1 23q0 102 -80.5 168t-205.5 66 q-133 0 -217 -66.5t-84 -170.5q0 -85 54.5 -141.5t185.5 -105.5l106 -40q186 -71 264.5 -158t78.5 -222q0 -199 -139 -319t-369 -120q-217 0 -361 113t-144 283z" />
<glyph unicode="T" d="M337 1281l26 162h1048l-27 -162h-435l-228 -1281h-176l228 1281h-436z" />
<glyph unicode="U" d="M216 433q0 56 13 130l155 880h176l-156 -885q-11 -60 -11 -108q0 -143 84 -228t222 -85q135 0 230.5 90.5t123.5 246.5l171 969h177l-176 -991q-40 -228 -180.5 -355t-350.5 -127q-216 0 -347 126.5t-131 336.5z" />
<glyph unicode="V" d="M320 1443h180l163 -1231h5l602 1231h184l-727 -1443h-188z" />
<glyph unicode="W" d="M246 0l9 1443h156l-7 -571l-11 -624h10l352 865h153l48 -865h11l190 604l196 591h167l-494 -1443h-174l-49 895h-11l-368 -895h-178z" />
<glyph unicode="X" d="M58 0l587 727l-336 716h189l269 -584h9l476 584h206l-602 -724l348 -719h-188l-279 581h-9l-469 -581h-201z" />
<glyph unicode="Y" d="M301 1443h185l270 -663h12l493 663h205l-639 -844l-106 -599h-175l106 598z" />
<glyph unicode="Z" d="M137 0l22 137l960 1132l1 12h-730l26 162h956l-23 -140l-960 -1129l-2 -12h772l-27 -162h-995z" />
<glyph unicode="[" d="M350 -137l300 1717h527l-23 -137h-362l-254 -1443h364l-23 -137h-529z" />
<glyph unicode="\" d="M476 1580h166l402 -1717h-163z" />
<glyph unicode="]" d="M342 -137l22 137h364l254 1443h-362l24 137h527l-300 -1717h-529z" />
<glyph unicode="^" d="M354 705l439 738h188l183 -738h-161l-127 570h-18l-329 -570h-175z" />
<glyph unicode="_" d="M60 -312l23 147h1038l-23 -147h-1038z" />
<glyph unicode="`" d="M683 1635h202l180 -339h-176z" />
<glyph unicode="a" d="M239 290q0 168 119 258q120 92 345 93l270 2l10 55q8 44 8 72q0 83 -60.5 132.5t-161.5 49.5q-88 0 -156 -40.5t-89 -105.5h-170q26 130 145.5 211.5t285.5 81.5q170 0 273 -83.5t103 -220.5q0 -57 -21 -169l-110 -626h-162l27 156h-10q-41 -80 -126.5 -127t-192.5 -47 q-144 0 -235 84q-92 86 -92 224zM415 308q0 -80 56 -128q57 -49 154 -49q110 0 196.5 71.5t105.5 180.5l24 128l-249 -1q-138 0 -212 -52q-76 -52 -75 -150z" />
<glyph unicode="b" d="M190 0l267 1511h172l-104 -586h19q45 83 129.5 130.5t187.5 47.5q171 0 270.5 -107.5t99.5 -291.5q0 -51 -11 -107l-34 -195q-35 -199 -150 -309.5t-286 -110.5q-130 0 -218.5 64.5t-114.5 178.5h-14l-40 -225h-173zM441 418q0 -121 79.5 -201t201.5 -80q116 0 196 76 t104 210l29 166q7 39 7 96q0 125 -70.5 195t-195.5 70q-116 0 -203.5 -82t-111.5 -213l-29 -162q-7 -35 -7 -75z" />
<glyph unicode="c" d="M267 394q0 48 9 117q8 56 27 163q35 203 167 317.5t330 114.5q190 0 305.5 -100t115.5 -264v-17h-169v5q0 98 -72 161t-186 63q-271 0 -332 -340l-12 -66q-13 -76 -13 -130q0 -137 71.5 -211.5t202.5 -74.5q99 0 172.5 48.5t101.5 134.5h169q-34 -152 -156.5 -244 t-293.5 -92q-203 0 -320 111.5t-117 303.5z" />
<glyph unicode="d" d="M231 376q0 81 11 138l30 175q34 193 153.5 303.5t294.5 110.5q124 0 217.5 -65t112.5 -171h9l114 644h170l-267 -1511h-167l34 191h-12q-37 -95 -125 -152t-197 -57q-174 0 -276 106.5t-102 287.5zM405 411q0 -123 68 -195.5t183 -72.5q130 0 217 78.5t112 215.5l29 161 q6 44 6 64q0 124 -79 204.5t-200 80.5q-124 0 -201 -74t-103 -218l-25 -145q-7 -40 -7 -99z" />
<glyph unicode="e" d="M274 398q0 54 15 154l21 136q30 193 163 305t333 112q128 0 225.5 -55.5t145.5 -153.5q38 -78 38 -169q0 -25 -3 -51q0 -1 -10 -91l-12 -87h-741q-1 -5 -4.5 -36t-3.5 -35q-2 -20 -2 -39q0 -109 63 -179q74 -82 208 -82q96 0 170.5 43t92.5 110h168q-21 -129 -147 -214.5 t-293 -85.5q-199 0 -313 112t-114 306zM466 627h577q0 2 2.5 23t2.5 24q3 22 3 42q1 97 -59 163q-72 80 -199 80q-123 0 -207 -71t-107 -194q-1 -1 -7 -33.5t-6 -33.5z" />
<glyph unicode="f" d="M348 937l25 145h291l20 109q27 161 138 239t312 78q52 0 132.5 -6.5t117.5 -16.5l-24 -142q-34 8 -117 15.5t-130 7.5q-231 0 -261 -172l-20 -112h478l-24 -145h-477l-166 -937h-170l166 937h-291z" />
<glyph unicode="g" d="M155 -77h168v-13q2 -75 76.5 -125t186.5 -50q267 0 320 284l32 182h-12q-37 -89 -125.5 -143t-199.5 -54q-164 0 -270.5 114.5t-106.5 290.5q0 74 13 148l21 122q34 196 154 310t293 114q136 0 224 -62t112 -175h12l38 219h170l-189 -1078q-36 -204 -162.5 -309 t-337.5 -105q-181 0 -299 88t-118 224v18zM397 444q0 -132 72.5 -208.5t197.5 -76.5q114 0 199.5 80t108.5 209l22 128q9 51 9 90q0 125 -77 203.5t-199 78.5q-116 0 -198 -80t-107 -218l-17 -95q-11 -64 -11 -111z" />
<glyph unicode="h" d="M188 0l267 1511h163l-108 -612h11q44 96 133.5 150.5t203.5 54.5q154 0 249 -94.5t95 -249.5q0 -46 -17 -148l-107 -612h-170l108 609q12 70 12 110q0 103 -64 166t-169 63q-121 0 -210 -83.5t-114 -223.5l-113 -641h-170z" />
<glyph unicode="i" d="M208 0l24 141h372l143 803h-368l23 141h537l-168 -944h360l-24 -141h-899zM773 1491q0 59 40.5 99t100.5 40t100.5 -40t40.5 -99q0 -60 -40.5 -100t-100.5 -40t-100.5 40t-40.5 100z" />
<glyph unicode="j" d="M130 -313l26 151q159 -15 277 -15q130 0 194.5 47t83.5 156l163 918h-496l24 141h664l-191 -1079q-30 -172 -138.5 -253.5t-308.5 -81.5q-141 0 -298 16zM898 1491q0 59 40.5 99t100.5 40t100.5 -40t40.5 -99q0 -60 -40.5 -100t-100.5 -40t-100.5 40t-40.5 100z" />
<glyph unicode="k" d="M269 0l267 1511h170l-153 -865h11l549 439h232l-530 -431l381 -654h-194l-325 556l-160 -122l-78 -434h-170z" />
<glyph unicode="l" d="M208 0l24 141h371l219 1229h-368l24 141h537l-242 -1370h358l-24 -141h-899z" />
<glyph unicode="m" d="M110 0l191 1085h150l-26 -153h18q34 83 92 128t131 45q79 0 127.5 -46.5t53.5 -126.5h18q73 173 228 173q100 0 155 -59t55 -164q0 -41 -10 -101l-137 -781h-153l132 747q7 47 7 75q0 128 -110 128q-71 0 -122 -57t-70 -159l-129 -734h-152l132 748q7 36 7 74 q0 128 -111 128q-72 0 -124 -57.5t-71 -159.5l-129 -733h-153z" />
<glyph unicode="n" d="M189 0l191 1085h163l-32 -186h11q42 96 131 151t205 55q155 0 248.5 -95t93.5 -250q0 -50 -16 -149l-107 -611h-170l108 609q11 66 11 111q0 104 -62.5 166.5t-168.5 62.5q-121 0 -209.5 -84t-113.5 -224l-113 -641h-170z" />
<glyph unicode="o" d="M251 410q0 65 10 124l26 150q34 194 162 307t313 113q203 0 324.5 -119.5t121.5 -315.5q0 -52 -10 -116l-27 -151q-36 -202 -162.5 -311.5t-322.5 -109.5q-195 0 -315 119t-120 310zM417 418q0 -130 77.5 -208.5t205.5 -78.5q123 0 203.5 79t106.5 227l25 141q6 45 6 92 q0 128 -77.5 206t-204.5 78q-121 0 -202.5 -78.5t-106.5 -218.5l-24 -137q-9 -58 -9 -102z" />
<glyph unicode="p" d="M126 -366l255 1451h167l-34 -191h12q37 95 125 152t197 57q173 0 276 -105.5t103 -288.5q0 -68 -12 -138l-31 -174q-34 -195 -153 -305t-293 -110q-128 0 -220 66.5t-111 169.5h-8l-103 -584h-170zM440 418q0 -121 77 -199t199 -78q123 0 201 74t103 218l25 145 q8 52 8 99q0 123 -67.5 195.5t-183.5 72.5q-129 0 -216.5 -77.5t-112.5 -216.5l-29 -161q-4 -25 -4 -72z" />
<glyph unicode="q" d="M226 382q0 44 11 107l34 194q35 198 150.5 309t286.5 111q130 0 217.5 -64t114.5 -178h14l40 224h173l-255 -1451h-172l92 527h-19q-44 -83 -129 -131t-188 -48q-171 0 -270.5 107.5t-99.5 292.5zM399 403q0 -125 70.5 -195t195.5 -70q116 0 204 82t112 213l28 162 q7 38 7 74q0 122 -79.5 202t-200.5 80q-116 0 -196.5 -76.5t-104.5 -209.5l-29 -166q-7 -36 -7 -96z" />
<glyph unicode="r" d="M205 0l24 136h219l143 813h-240l23 136h405l-48 -277h22q53 149 159 227t253 78q96 0 160 -33l-32 -189q-64 37 -176 37q-170 0 -287 -117t-154 -323l-63 -352h337l-24 -136h-337h-165h-219z" />
<glyph unicode="s" d="M259 291v10h168v-2q11 -85 78.5 -131t180.5 -46t182.5 48t69.5 127q0 56 -38 92.5t-126 64.5l-150 49q-128 43 -187.5 109t-59.5 164q0 147 115.5 238.5t299.5 91.5q175 0 279 -80t111 -220q0 -3 -0.5 -7.5t-0.5 -6.5h-165v3q-9 83 -68 127t-160 44q-106 0 -172.5 -47 t-66.5 -121q0 -53 38.5 -89t127.5 -65l143 -47q136 -45 197 -110t61 -164q0 -154 -120 -249t-314 -95q-188 0 -303 84.5t-120 227.5z" />
<glyph unicode="t" d="M325 937l24 145h290l51 294h168l-51 -294h440l-25 -145h-438l-110 -595q-5 -25 -5 -51q0 -75 51 -111.5t157 -36.5q147 0 201 6l-24 -144q-52 -10 -225 -10q-163 0 -248.5 66t-85.5 193q0 38 9 87l110 596h-289z" />
<glyph unicode="u" d="M257 325q0 50 16 149l107 611h170l-108 -609q-11 -66 -11 -111q0 -104 62.5 -166.5t168.5 -62.5q121 0 209.5 84t113.5 224l113 641h170l-191 -1085h-163l32 186h-11q-42 -96 -131 -151t-205 -55q-155 0 -248.5 95t-93.5 250z" />
<glyph unicode="v" d="M334 1085h173l150 -903h13l454 903h190l-587 -1085h-187z" />
<glyph unicode="w" d="M238 1085h155l4 -870h18l327 869h159l23 -869h18l299 870h169l-424 -1085h-164l-31 846h-12l-336 -846h-163z" />
<glyph unicode="x" d="M162 0l468 543l-280 542h185l206 -411h13l342 411h199l-465 -535l277 -550h-181l-207 418h-13l-348 -418h-196z" />
<glyph unicode="y" d="M197 -383l25 149q18 -4 67 -4q73 0 119 36t100 136l30 59l-208 1092h176l146 -908h13l461 908h190l-607 -1125q-111 -206 -198 -276t-234 -70q-61 0 -80 3z" />
<glyph unicode="z" d="M211 0l21 120l769 806l2 13h-623l25 146h837l-21 -127l-763 -799l-2 -13h624l-25 -146h-844z" />
<glyph unicode="{" d="M340 679l30 180q185 0 262.5 41.5t96.5 150.5l38 223q16 91 40 146.5t67.5 91t105 48.5t159.5 13h137l-24 -146h-109q-64 0 -97 -5t-58 -26.5t-35.5 -54.5t-22.5 -98l-47 -267q-34 -197 -344 -201l-3 -17q121 -8 193 -68.5t72 -153.5q0 -33 -4 -52l-45 -260 q-12 -65 -12 -106q0 -64 33.5 -88.5t119.5 -24.5h108l-23 -142h-135q-145 0 -209 52.5t-64 172.5q0 54 12 124l39 217q5 35 5 58q0 192 -286 192z" />
<glyph unicode="|" d="M470 -483l362 2063h157l-363 -2063h-156z" />
<glyph unicode="}" d="M236 -137l24 146h109q64 0 97 5t58 26.5t35.5 54.5t22.5 98l47 267q34 197 344 201l3 17q-121 8 -193 68.5t-72 153.5q0 33 4 52l45 260q12 64 12 106q0 64 -33.5 88.5t-119.5 24.5h-108l23 142h135q145 0 209 -52.5t64 -172.5q0 -54 -12 -124l-39 -217q-5 -35 -5 -58 q0 -192 286 -192l-30 -180q-185 0 -262.5 -41.5t-96.5 -150.5l-38 -223q-16 -91 -40 -146.5t-67.5 -91t-105 -48.5t-159.5 -13h-137z" />
<glyph unicode="~" d="M264 579q0 147 77.5 236.5t204.5 89.5q73 0 131.5 -28.5t124.5 -96.5q53 -55 89 -77t73 -22q58 0 91.5 46t38.5 133h156q1 -5 1 -22q0 -148 -76.5 -237t-203.5 -89q-73 0 -132 28.5t-124 95.5q-52 55 -86.5 77t-68.5 22q-125 0 -136 -179h-159q-1 5 -1 23z" />
<glyph unicode="&#xa0;" />
<glyph unicode="&#xa1;" d="M483 -350l193 994h166l-160 -994h-199zM681 970q0 59 40 100.5t97 41.5t97 -41.5t40 -100.5t-40 -100.5t-97 -41.5t-97 41.5t-40 100.5z" />
<glyph unicode="&#xa2;" d="M308 575q0 70 13 151l26 149q33 181 150.5 288t296.5 119l28 163h171l-32 -178q135 -29 207.5 -125.5t63.5 -235.5h-169q-1 105 -64 162t-180 57q-122 0 -204 -76t-105 -212l-21 -121q-11 -60 -11 -109q0 -135 70.5 -208.5t199.5 -73.5q99 0 167 41.5t84 112.5h168 q-24 -135 -130.5 -218.5t-267.5 -94.5l-30 -168h-171l33 186q-137 35 -215 139t-78 252z" />
<glyph unicode="&#xa3;" d="M144 0l26 158q157 25 249.5 127.5t100.5 258.5q3 57 -2 112h-260l24 148h219q-19 136 -19 203q0 226 137.5 347t393.5 121q69 0 155 -16.5t144 -40.5l-27 -165q-57 25 -136 41t-145 16q-170 0 -259 -84.5t-89 -246.5q0 -64 16 -175h450l-25 -148h-408q5 -56 2 -108 q-9 -276 -224 -370l-1 -15h713l-27 -163h-1008z" />
<glyph unicode="&#xa4;" d="M197 353l196 141q-47 105 -26 228t103 205l-137 197l124 90l134 -199q106 49 224 28q119 -20 201 -103l194 142l86 -128l-193 -140q47 -108 26 -229q-21 -123 -104 -206l134 -197l-122 -89l-134 199q-102 -48 -223 -28q-118 20 -201 104l-195 -143zM497 698 q-20 -111 38 -195.5t167 -103.5t193 41t104 170q19 111 -38.5 196t-166.5 104q-110 18 -194 -42t-103 -170z" />
<glyph unicode="&#xa5;" d="M301 1443h185l270 -663h12l493 663h205l-558 -737h209l-24 -138h-271l-30 -164h272l-24 -138h-272l-47 -266h-175l47 266h-272l24 138h273l29 164h-273l24 138h209z" />
<glyph unicode="&#xa6;" d="M470 -483l139 798h157l-140 -798h-156zM693 782l139 798h157l-140 -798h-156z" />
<glyph unicode="&#xa7;" d="M244 31q0 26 2 33h174q0 -79 65 -127t171 -48q96 0 158 45.5t62 116.5q0 51 -39.5 87.5t-124.5 63.5l-135 51q-256 88 -256 268q0 105 71.5 183t195.5 109l3 17q-88 45 -129.5 103.5t-41.5 137.5q0 141 117 236t291 95q173 0 278 -81t105 -215q0 -3 -0.5 -10.5t-0.5 -8.5 h-172q0 73 -62.5 118.5t-160.5 45.5q-95 0 -157 -46t-62 -117q0 -52 39.5 -88t122.5 -62l138 -49q251 -85 251 -269q0 -112 -85 -199t-213 -104l-3 -16q204 -62 204 -228q0 -147 -115.5 -240t-299.5 -93q-167 0 -279 83t-112 208zM506 566q0 -105 127 -148l103 -37 q103 5 168.5 61.5t65.5 140.5q0 53 -36.5 92t-103.5 56l-98 30q-89 -4 -157.5 -63t-68.5 -132z" />
<glyph unicode="&#xa8;" d="M568 1441q0 49 35 85.5t82 36.5t82 -36.5t35 -85.5t-35 -85t-82 -36t-82 36t-35 85zM971 1441q0 49 35 85.5t82 36.5t82.5 -36.5t35.5 -85.5t-35.5 -85t-82.5 -36t-82 36t-35 85z" />
<glyph unicode="&#xa9;" d="M294 991q0 144 67.5 263.5t185.5 188.5t260 69t260 -69t185.5 -188.5t67.5 -263.5t-67.5 -263.5t-185.5 -188.5t-260 -69t-260 69t-185.5 188.5t-67.5 263.5zM399 991q0 -178 118.5 -300.5t289.5 -122.5t289.5 122.5t118.5 300.5t-118.5 300.5t-289.5 122.5 t-289.5 -122.5t-118.5 -300.5zM563 949q0 143 78 230.5t206 87.5q91 0 150 -54t58 -137h-113q-15 84 -111 84q-66 0 -107.5 -57.5t-41.5 -148.5q0 -62 30.5 -96t85.5 -34q37 0 68 20t44 54h113q-18 -82 -82 -131.5t-150 -49.5q-103 0 -165.5 63.5t-62.5 168.5z" />
<glyph unicode="&#xaa;" d="M400 763q0 145 103 228t282 83h241l10 57q5 30 5 47q0 68 -47.5 105t-133.5 37q-68 0 -116 -26t-66 -72h-164q28 110 125.5 175t232.5 65q158 0 246 -68.5t88 -190.5q0 -38 -7 -70l-106 -594h-156l19 104h-15q-47 -59 -116.5 -91.5t-151.5 -32.5q-121 0 -197 68t-76 176z M570 783q0 -59 45 -94.5t121 -35.5q95 0 166.5 56.5t88.5 145.5l17 95h-223q-100 0 -157.5 -44.5t-57.5 -122.5z" />
<glyph unicode="&#xab;" d="M246 637l1 4l424 420h183l-431 -423l-2 -4l273 -417h-172zM711 637l1 4l424 420h183l-431 -423l-2 -4l273 -417h-172z" />
<glyph unicode="&#xac;" d="M203 561l27 158h1058l-93 -538h-157l66 380h-901z" />
<glyph unicode="&#xad;" d="M204 561l27 158h1058l-26 -158h-1059z" />
<glyph unicode="&#xae;" d="M294 991q0 144 67.5 263.5t185.5 188.5t260 69t260 -69t185.5 -188.5t67.5 -263.5t-67.5 -263.5t-185.5 -188.5t-260 -69t-260 69t-185.5 188.5t-67.5 263.5zM399 991q0 -178 118.5 -300.5t289.5 -122.5t289.5 122.5t118.5 300.5t-118.5 300.5t-289.5 122.5 t-289.5 -122.5t-118.5 -300.5zM557 738l90 512h246q70 0 109.5 -38.5t39.5 -105.5q0 -125 -138 -170l100 -198h-126l-92 183h-91l-32 -183h-106zM712 1013h119q47 0 73 21.5t26 59.5q0 59 -74 59h-119z" />
<glyph unicode="&#xaf;" d="M545 1370l24 139h660l-24 -139h-660z" />
<glyph unicode="&#xb0;" d="M519 1156q0 136 90.5 227t227.5 91t227.5 -91t90.5 -227t-90.5 -227t-227.5 -91t-227.5 91t-90.5 227zM643 1156q0 -85 55 -140.5t139 -55.5t139 55.5t55 140.5t-55 140.5t-139 55.5t-139 -55.5t-55 -140.5z" />
<glyph unicode="&#xb1;" d="M153 110l25 148h1000l-25 -148h-1000zM250 662l23 140h426l52 288h149l-53 -288h426l-23 -140h-425l-53 -288h-148l52 288h-426z" />
<glyph unicode="&#xb4;" d="M636 1296l298 339h213l-324 -339h-187z" />
<glyph unicode="&#xb6;" d="M328 999q0 191 132 317.5t332 126.5h264l-277 -1580h-166l125 707q-181 20 -295.5 139.5t-114.5 289.5zM940 -137l277 1580h166l-276 -1580h-167z" />
<glyph unicode="&#xb7;" d="M616 739q0 63 42.5 106.5t105.5 43.5t105.5 -43.5t42.5 -106.5t-42.5 -106.5t-105.5 -43.5t-105.5 43.5t-42.5 106.5z" />
<glyph unicode="&#xb8;" d="M385 -458l18 108q23 -9 66 -15.5t73 -6.5q114 0 114 72q0 74 -138 74h-54l5 84l74 142h133l-67 -133q88 -3 136 -42.5t48 -109.5q0 -89 -69.5 -144.5t-180.5 -55.5q-83 0 -158 27z" />
<glyph unicode="&#xba;" d="M381 896q0 66 12 131q38 204 161 321t301 117q176 0 278 -102t102 -280q0 -60 -12 -126q-37 -206 -160.5 -324.5t-302.5 -118.5q-178 0 -278.5 102.5t-100.5 279.5zM552 899q0 -115 56.5 -177t160.5 -62q110 0 184 81.5t99 231.5q11 63 11 107q0 115 -56.5 177t-160.5 62 q-111 0 -186 -81.5t-97 -230.5q-11 -75 -11 -108z" />
<glyph unicode="&#xbb;" d="M172 217l431 423l2 4l-273 417h172l276 -420l-1 -4l-424 -420h-183zM637 217l431 423l2 4l-273 417h172l276 -420l-1 -4l-424 -420h-183z" />
<glyph unicode="&#xbc;" d="M0 0l30 167l1490 1276l-29 -167zM224 1173l25 144l195 126h154l-120 -685h-151l96 542h-3zM721 128l22 131q118 172 336 428h213l-78 -441h94l-19 -109h-94l-24 -137h-143l23 128h-330zM877 243h197l59 330h-2q-174 -213 -253 -327z" />
<glyph unicode="&#xbd;" d="M0 0l30 167l1490 1276l-29 -167zM224 1173l25 144l195 126h154l-120 -685h-151l96 542h-3zM790 0l21 124l298 234q59 45 82.5 76t23.5 64q0 36 -25 58t-66 22q-43 0 -73.5 -26t-38.5 -68h-148q13 100 89.5 160.5t186.5 60.5q102 0 168 -53.5t66 -136.5q0 -63 -36 -116 t-126 -122l-187 -142v-6h286l-22 -129h-499z" />
<glyph unicode="&#xbe;" d="M0 0l30 167l1490 1276l-29 -167zM131 935q0 13 2 33h151q-1 -2 -1 -11q0 -38 30 -62.5t77 -24.5q52 0 84 28t32 72q0 38 -26 60t-69 22h-81l19 115h82q50 0 82 26.5t32 68.5q0 33 -26 53t-68 20q-43 0 -72.5 -21.5t-39.5 -58.5h-143q20 95 94 151t181 56q103 0 165.5 -47 t62.5 -124q0 -68 -49 -120t-120 -59l-2 -7q65 -8 102 -46t37 -96q0 -95 -79.5 -158t-200.5 -63q-119 0 -187.5 51.5t-68.5 141.5zM721 128l22 131q118 172 336 428h213l-78 -441h94l-19 -109h-94l-24 -137h-143l23 128h-330zM877 243h197l59 330h-2q-173 -211 -253 -327z " />
<glyph unicode="&#xbf;" d="M211 10q27 228 266 347q112 56 157.5 114.5t52.5 157.5l1 13h174l-1 -15q-6 -140 -64 -223.5t-198 -152.5q-96 -48 -142 -101t-57 -131q-16 -94 39.5 -156t160.5 -69q108 -6 186.5 50.5t98.5 156.5h172q-26 -173 -161 -275t-323 -92q-177 9 -279 115t-83 261zM673 968 q0 59 40 100.5t97 41.5q58 0 97.5 -41.5t39.5 -100.5t-39.5 -100.5t-97.5 -41.5q-57 0 -97 41.5t-40 100.5z" />
<glyph unicode="&#xc0;" d="M73 0l720 1443h188l207 -1443h-176l-52 414h-503l-200 -414h-184zM531 565h410l-83 666h-5zM575 1916h198l205 -304h-177z" />
<glyph unicode="&#xc1;" d="M73 0l720 1443h188l207 -1443h-176l-52 414h-503l-200 -414h-184zM531 565h410l-83 666h-5zM772 1612l311 304h215l-332 -304h-194z" />
<glyph unicode="&#xc2;" d="M73 0l720 1443h188l207 -1443h-176l-52 414h-503l-200 -414h-184zM531 565h410l-83 666h-5zM555 1612l340 309h160l233 -309h-170l-145 199h-13l-216 -199h-189z" />
<glyph unicode="&#xc3;" d="M73 0l720 1443h188l207 -1443h-176l-52 414h-503l-200 -414h-184zM531 565h410l-83 666h-5zM556 1630q5 124 64.5 197t155.5 73q45 0 82.5 -16.5t62.5 -40t46.5 -47t45.5 -40t48 -16.5q43 0 69 38t30 108h123q-4 -120 -64 -194t-155 -74q-43 0 -79 16.5t-60 40t-46 46.5 t-47 39.5t-53 16.5q-90 0 -99 -147h-124z" />
<glyph unicode="&#xc4;" d="M73 0l720 1443h188l207 -1443h-176l-52 414h-503l-200 -414h-184zM531 565h410l-83 666h-5zM626 1772q0 49 35 85.5t82 36.5t82 -36.5t35 -85.5t-35 -85t-82 -36t-82 36t-35 85zM1029 1772q0 49 35 85.5t82 36.5t82.5 -36.5t35.5 -85.5t-35.5 -85t-82.5 -36t-82 36 t-35 85z" />
<glyph unicode="&#xc5;" d="M73 0l720 1443h188l207 -1443h-176l-52 414h-503l-200 -414h-184zM531 565h410l-83 666h-5zM726 1751q0 81 56 136.5t138 55.5q81 0 136.5 -55.5t55.5 -136.5q0 -80 -55.5 -136t-136.5 -56q-82 0 -138 56t-56 136zM817 1751q0 -44 29 -72.5t73 -28.5t73.5 28.5t29.5 72.5 t-29.5 72.5t-73.5 28.5t-73 -28.5t-29 -72.5z" />
<glyph unicode="&#xc6;" d="M4 0l686 1443h797l-26 -161h-430l-86 -476h393l-26 -157h-394l-87 -487h429l-27 -162h-591l77 435h-332l-201 -435h-182zM459 589h288l122 687h-92z" />
<glyph unicode="&#xc7;" d="M220 489q0 83 14 160l40 229q50 289 201 442t389 153q209 0 340 -120.5t131 -311.5q0 -34 -6 -74h-174q3 34 3 57q0 127 -82.5 203t-221.5 76q-155 0 -257.5 -106.5t-139.5 -305.5l-44 -251q-13 -68 -13 -153q0 -165 86 -256.5t240 -91.5q132 0 219.5 70.5t113.5 198.5 q1 3 1 5h178q0 -10 -1 -14q-19 -185 -160.5 -304t-345.5 -126l-52 -102q88 -3 136 -42.5t48 -109.5q0 -89 -69.5 -144.5t-180.5 -55.5q-83 0 -158 27l18 108q23 -9 66 -15.5t73 -6.5q114 0 114 72q0 74 -138 74h-54l5 84l63 120q-180 32 -281 166.5t-101 344.5z" />
<glyph unicode="&#xc8;" d="M230 0l254 1443h852l-27 -162h-674l-85 -468h638l-26 -155h-638l-90 -496h675l-27 -162h-852zM595 1916h198l205 -304h-177z" />
<glyph unicode="&#xc9;" d="M230 0l254 1443h852l-27 -162h-674l-85 -468h638l-26 -155h-638l-90 -496h675l-27 -162h-852zM791 1612l311 304h215l-332 -304h-194z" />
<glyph unicode="&#xca;" d="M230 0l254 1443h852l-27 -162h-674l-85 -468h638l-26 -155h-638l-90 -496h675l-27 -162h-852zM574 1612l340 309h160l233 -309h-170l-145 199h-13l-216 -199h-189z" />
<glyph unicode="&#xcb;" d="M230 0l254 1443h852l-27 -162h-674l-85 -468h638l-26 -155h-638l-90 -496h675l-27 -162h-852zM646 1772q0 49 35 85.5t82 36.5t82 -36.5t35 -85.5t-35 -85t-82 -36t-82 36t-35 85zM1049 1772q0 49 35 85.5t82 36.5t82.5 -36.5t35.5 -85.5t-35.5 -85t-82.5 -36t-82 36 t-35 85z" />
<glyph unicode="&#xcc;" d="M253 0l26 157h292l202 1129h-292l26 157h760l-25 -157h-293l-202 -1129h293l-27 -157h-760zM575 1916h198l205 -304h-177z" />
<glyph unicode="&#xcd;" d="M253 0l26 157h292l202 1129h-292l26 157h760l-25 -157h-293l-202 -1129h293l-27 -157h-760zM772 1612l311 304h215l-332 -304h-194z" />
<glyph unicode="&#xce;" d="M253 0l26 157h292l202 1129h-292l26 157h760l-25 -157h-293l-202 -1129h293l-27 -157h-760zM555 1612l340 309h160l233 -309h-170l-145 199h-13l-216 -199h-189z" />
<glyph unicode="&#xcf;" d="M253 0l26 157h292l202 1129h-292l26 157h760l-25 -157h-293l-202 -1129h293l-27 -157h-760zM626 1772q0 49 35 85.5t82 36.5t82 -36.5t35 -85.5t-35 -85t-82 -36t-82 36t-35 85zM1029 1772q0 49 35 85.5t82 36.5t82.5 -36.5t35.5 -85.5t-35.5 -85t-82.5 -36t-82 36 t-35 85z" />
<glyph unicode="&#xd0;" d="M142 658l26 157h135l111 628h376q254 0 389.5 -139.5t135.5 -400.5q0 -87 -9 -149q0 -5 -12.5 -74.5t-12.5 -71.5q-105 -608 -711 -608h-410l116 658h-134zM364 162h198q460 0 542 462q0 2 11 63.5t11 64.5q9 70 9 135q0 395 -378 395h-193l-83 -467h260l-26 -157h-262z " />
<glyph unicode="&#xd1;" d="M153 0l254 1443h169l417 -1123h14l201 1123h159l-254 -1443h-167l-419 1126h-14l-201 -1126h-159zM553 1630q5 124 64.5 197t155.5 73q45 0 82.5 -16.5t62.5 -40t46.5 -47t45.5 -40t48 -16.5q43 0 69 38t30 108h123q-4 -120 -64 -194t-155 -74q-43 0 -79 16.5t-60 40 t-46 46.5t-47 39.5t-53 16.5q-90 0 -99 -147h-124z" />
<glyph unicode="&#xd2;" d="M205 488q0 131 15 205l42 232q45 258 192.5 403t365.5 145q225 0 360 -144.5t135 -384.5q0 -88 -14 -188l-43 -232q-49 -271 -193.5 -412.5t-373.5 -141.5q-217 0 -351.5 143.5t-134.5 374.5zM383 508q0 -172 86.5 -271.5t235.5 -99.5q147 0 244.5 108.5t134.5 313.5 l42 234q12 72 12 150q0 164 -89 263.5t-237 99.5q-146 0 -242.5 -104t-131.5 -305l-41 -225q-14 -84 -14 -164zM575 1916h198l205 -304h-177z" />
<glyph unicode="&#xd3;" d="M205 488q0 131 15 205l42 232q45 258 192.5 403t365.5 145q225 0 360 -144.5t135 -384.5q0 -88 -14 -188l-43 -232q-49 -271 -193.5 -412.5t-373.5 -141.5q-217 0 -351.5 143.5t-134.5 374.5zM383 508q0 -172 86.5 -271.5t235.5 -99.5q147 0 244.5 108.5t134.5 313.5 l42 234q12 72 12 150q0 164 -89 263.5t-237 99.5q-146 0 -242.5 -104t-131.5 -305l-41 -225q-14 -84 -14 -164zM772 1612l311 304h215l-332 -304h-194z" />
<glyph unicode="&#xd4;" d="M205 488q0 131 15 205l42 232q45 258 192.5 403t365.5 145q225 0 360 -144.5t135 -384.5q0 -88 -14 -188l-43 -232q-49 -271 -193.5 -412.5t-373.5 -141.5q-217 0 -351.5 143.5t-134.5 374.5zM383 508q0 -172 86.5 -271.5t235.5 -99.5q147 0 244.5 108.5t134.5 313.5 l42 234q12 72 12 150q0 164 -89 263.5t-237 99.5q-146 0 -242.5 -104t-131.5 -305l-41 -225q-14 -84 -14 -164zM555 1612l340 309h160l233 -309h-170l-145 199h-13l-216 -199h-189z" />
<glyph unicode="&#xd5;" d="M205 488q0 131 15 205l42 232q45 258 192.5 403t365.5 145q225 0 360 -144.5t135 -384.5q0 -88 -14 -188l-43 -232q-49 -271 -193.5 -412.5t-373.5 -141.5q-217 0 -351.5 143.5t-134.5 374.5zM383 508q0 -172 86.5 -271.5t235.5 -99.5q147 0 244.5 108.5t134.5 313.5 l42 234q12 72 12 150q0 164 -89 263.5t-237 99.5q-146 0 -242.5 -104t-131.5 -305l-41 -225q-14 -84 -14 -164zM556 1630q5 124 64.5 197t155.5 73q45 0 82.5 -16.5t62.5 -40t46.5 -47t45.5 -40t48 -16.5q43 0 69 38t30 108h123q-4 -120 -64 -194t-155 -74q-43 0 -79 16.5 t-60 40t-46 46.5t-47 39.5t-53 16.5q-90 0 -99 -147h-124z" />
<glyph unicode="&#xd6;" d="M205 488q0 131 15 205l42 232q45 258 192.5 403t365.5 145q225 0 360 -144.5t135 -384.5q0 -88 -14 -188l-43 -232q-49 -271 -193.5 -412.5t-373.5 -141.5q-217 0 -351.5 143.5t-134.5 374.5zM383 508q0 -172 86.5 -271.5t235.5 -99.5q147 0 244.5 108.5t134.5 313.5 l42 234q12 72 12 150q0 164 -89 263.5t-237 99.5q-146 0 -242.5 -104t-131.5 -305l-41 -225q-14 -84 -14 -164zM626 1772q0 49 35 85.5t82 36.5t82 -36.5t35 -85.5t-35 -85t-82 -36t-82 36t-35 85zM1029 1772q0 49 35 85.5t82 36.5t82.5 -36.5t35.5 -85.5t-35.5 -85 t-82.5 -36t-82 36t-35 85z" />
<glyph unicode="&#xd7;" d="M261 393l377 264l-263 377l126 96l264 -376l377 264l87 -135l-377 -264l262 -376l-126 -96l-263 375l-377 -264z" />
<glyph unicode="&#xd8;" d="M97 0l173 212q-65 119 -65 276q0 131 15 205l42 232q45 258 192.5 403t365.5 145q226 0 360 -145l94 115h149l-173 -213q65 -124 65 -286q0 -88 -14 -188l-43 -232q-49 -271 -193.5 -412.5t-373.5 -141.5q-214 0 -348 140l-90 -110h-156zM383 508q0 -73 17 -136l665 815 q-90 119 -253 119q-146 0 -242.5 -104t-131.5 -305l-41 -225q-14 -84 -14 -164zM457 252q87 -115 248 -115q147 0 244.5 108.5t134.5 313.5l42 234q12 72 12 150q0 68 -17 128z" />
<glyph unicode="&#xd9;" d="M216 433q0 56 13 130l155 880h176l-156 -885q-11 -60 -11 -108q0 -143 84 -228t222 -85q135 0 230.5 90.5t123.5 246.5l171 969h177l-176 -991q-40 -228 -180.5 -355t-350.5 -127q-216 0 -347 126.5t-131 336.5zM605 1916h198l205 -304h-177z" />
<glyph unicode="&#xda;" d="M216 433q0 56 13 130l155 880h176l-156 -885q-11 -60 -11 -108q0 -143 84 -228t222 -85q135 0 230.5 90.5t123.5 246.5l171 969h177l-176 -991q-40 -228 -180.5 -355t-350.5 -127q-216 0 -347 126.5t-131 336.5zM777 1612l311 304h215l-332 -304h-194z" />
<glyph unicode="&#xdb;" d="M216 433q0 56 13 130l155 880h176l-156 -885q-11 -60 -11 -108q0 -143 84 -228t222 -85q135 0 230.5 90.5t123.5 246.5l171 969h177l-176 -991q-40 -228 -180.5 -355t-350.5 -127q-216 0 -347 126.5t-131 336.5zM560 1612l340 309h160l233 -309h-170l-145 199h-13 l-216 -199h-189z" />
<glyph unicode="&#xdc;" d="M216 433q0 56 13 130l155 880h176l-156 -885q-11 -60 -11 -108q0 -143 84 -228t222 -85q135 0 230.5 90.5t123.5 246.5l171 969h177l-176 -991q-40 -228 -180.5 -355t-350.5 -127q-216 0 -347 126.5t-131 336.5zM631 1772q0 49 35 85.5t82 36.5t82 -36.5t35 -85.5 t-35 -85t-82 -36t-82 36t-35 85zM1034 1772q0 49 35 85.5t82 36.5t82.5 -36.5t35.5 -85.5t-35.5 -85t-82.5 -36t-82 36t-35 85z" />
<glyph unicode="&#xdd;" d="M301 1443h185l270 -663h12l493 663h205l-639 -844l-106 -599h-175l106 598zM759 1612l311 304h215l-332 -304h-194z" />
<glyph unicode="&#xde;" d="M188 0l254 1443h180l-47 -266h325q187 0 285.5 -109t79.5 -294q-20 -205 -148.5 -318.5t-340.5 -113.5h-346l-61 -342h-181zM458 506h304q143 0 225.5 67.5t96.5 195.5q27 245 -243 245h-293z" />
<glyph unicode="&#xdf;" d="M192 0l205 1160q28 160 140 248t286 88q186 0 300.5 -101t114.5 -266q0 -135 -85.5 -237.5t-215.5 -124.5l-2 -8q137 -23 216 -119.5t79 -241.5q0 -187 -124.5 -304t-323.5 -117q-130 0 -252 45l27 161q36 -19 97.5 -31.5t115.5 -12.5q128 0 205.5 71t77.5 187 q0 123 -88 200.5t-228 77.5h-58l30 175h51q138 0 221.5 71t83.5 189q0 101 -67.5 162t-178.5 61q-106 0 -171 -53t-82 -153l-198 -1127h-176z" />
<glyph unicode="&#xe0;" d="M239 287q-1 169 119 260.5t345 93.5l270 2l10 55q8 44 8 72q0 83 -60.5 132.5t-161.5 49.5q-88 0 -156 -40.5t-89 -105.5h-170q26 130 145.5 211.5t285.5 81.5q170 0 273 -83.5t103 -220.5q0 -57 -21 -169l-110 -626h-162l27 156h-10q-41 -80 -126.5 -127t-192.5 -47 q-144 0 -235 84.5t-92 220.5zM415 311q-1 -82 56 -131t154 -49q110 0 196.5 71.5t105.5 180.5l24 128l-249 -1q-137 -1 -211.5 -52.5t-75.5 -146.5zM604 1635h202l180 -339h-176z" />
<glyph unicode="&#xe1;" d="M239 287q-1 169 119 260.5t345 93.5l270 2l10 55q8 44 8 72q0 83 -60.5 132.5t-161.5 49.5q-88 0 -156 -40.5t-89 -105.5h-170q26 130 145.5 211.5t285.5 81.5q170 0 273 -83.5t103 -220.5q0 -57 -21 -169l-110 -626h-162l27 156h-10q-41 -80 -126.5 -127t-192.5 -47 q-144 0 -235 84.5t-92 220.5zM415 311q-1 -82 56 -131t154 -49q110 0 196.5 71.5t105.5 180.5l24 128l-249 -1q-137 -1 -211.5 -52.5t-75.5 -146.5zM739 1296l298 339h213l-324 -339h-187z" />
<glyph unicode="&#xe2;" d="M239 287q-1 169 119 260.5t345 93.5l270 2l10 55q8 44 8 72q0 83 -60.5 132.5t-161.5 49.5q-88 0 -156 -40.5t-89 -105.5h-170q26 130 145.5 211.5t285.5 81.5q170 0 273 -83.5t103 -220.5q0 -57 -21 -169l-110 -626h-162l27 156h-10q-41 -80 -126.5 -127t-192.5 -47 q-144 0 -235 84.5t-92 220.5zM415 311q-1 -82 56 -131t154 -49q110 0 196.5 71.5t105.5 180.5l24 128l-249 -1q-137 -1 -211.5 -52.5t-75.5 -146.5zM488 1282l334 341h201l213 -341h-186l-132 226h-15l-212 -226h-203z" />
<glyph unicode="&#xe3;" d="M239 287q-1 169 119 260.5t345 93.5l270 2l10 55q8 44 8 72q0 83 -60.5 132.5t-161.5 49.5q-88 0 -156 -40.5t-89 -105.5h-170q26 130 145.5 211.5t285.5 81.5q170 0 273 -83.5t103 -220.5q0 -57 -21 -169l-110 -626h-162l27 156h-10q-41 -80 -126.5 -127t-192.5 -47 q-144 0 -235 84.5t-92 220.5zM415 311q-1 -82 56 -131t154 -49q110 0 196.5 71.5t105.5 180.5l24 128l-249 -1q-137 -1 -211.5 -52.5t-75.5 -146.5zM510 1268q5 138 66.5 214.5t165.5 76.5q44 0 82 -16.5t64 -39.5t48.5 -46t46 -39.5t47.5 -16.5q45 0 66 36.5t23 118.5h139 q-4 -136 -65.5 -213t-165.5 -77q-44 0 -82 16.5t-64 40t-48.5 47t-46 40t-47.5 16.5q-45 0 -66 -37t-23 -121h-140z" />
<glyph unicode="&#xe4;" d="M239 287q-1 169 119 260.5t345 93.5l270 2l10 55q8 44 8 72q0 83 -60.5 132.5t-161.5 49.5q-88 0 -156 -40.5t-89 -105.5h-170q26 130 145.5 211.5t285.5 81.5q170 0 273 -83.5t103 -220.5q0 -57 -21 -169l-110 -626h-162l27 156h-10q-41 -80 -126.5 -127t-192.5 -47 q-144 0 -235 84.5t-92 220.5zM415 311q-1 -82 56 -131t154 -49q110 0 196.5 71.5t105.5 180.5l24 128l-249 -1q-137 -1 -211.5 -52.5t-75.5 -146.5zM571 1420q0 49 35 85.5t82 36.5t82 -36.5t35 -85.5t-35 -85t-82 -36t-82 36t-35 85zM974 1420q0 49 35 85.5t82 36.5 t82.5 -36.5t35.5 -85.5t-35.5 -85t-82.5 -36t-82 36t-35 85z" />
<glyph unicode="&#xe5;" d="M239 287q-1 169 119 260.5t345 93.5l270 2l10 55q8 44 8 72q0 83 -60.5 132.5t-161.5 49.5q-88 0 -156 -40.5t-89 -105.5h-170q26 130 145.5 211.5t285.5 81.5q170 0 273 -83.5t103 -220.5q0 -57 -21 -169l-110 -626h-162l27 156h-10q-41 -80 -126.5 -127t-192.5 -47 q-144 0 -235 84.5t-92 220.5zM415 311q-1 -82 56 -131t154 -49q110 0 196.5 71.5t105.5 180.5l24 128l-249 -1q-137 -1 -211.5 -52.5t-75.5 -146.5zM671 1482q0 95 66.5 163t159.5 68q94 0 160 -68t66 -163t-66 -163t-160 -68q-93 0 -159.5 68t-66.5 163zM779 1482 q0 -52 34 -87t84 -35q51 0 84.5 35t33.5 87t-33.5 87t-84.5 35q-50 0 -84 -35t-34 -87z" />
<glyph unicode="&#xe6;" d="M113 261q0 153 91.5 245.5t256.5 105.5l200 17l14 79q5 38 5 67q0 81 -39.5 127t-109.5 46q-61 0 -106.5 -38t-60.5 -102h-144q21 130 110 210.5t212 80.5q184 0 238 -166h4q44 77 118 121t159 44q139 0 214.5 -115.5t58.5 -301.5q0 -20 -12 -102q-6 -48 -13 -83h-523 q-13 -67 -13 -134q0 -103 47.5 -164.5t126.5 -61.5q66 0 118 43t65 110h143q-22 -133 -116.5 -219.5t-215.5 -86.5q-104 0 -175 61.5t-86 164.5h-4q-41 -105 -122.5 -165.5t-183.5 -60.5q-112 0 -184.5 79t-72.5 199zM261 288q0 -66 39 -108.5t100 -42.5q77 0 138 66.5 t79 170.5l22 123l-184 -15q-86 -7 -140 -60.5t-54 -133.5zM808 629h380q10 70 10 115q0 94 -43 149t-117 55q-79 0 -137.5 -68.5t-81.5 -190.5q0 -2 -5 -30t-6 -30z" />
<glyph unicode="&#xe7;" d="M267 394q0 48 9 117q8 56 27 163q35 203 167 317.5t330 114.5q190 0 305.5 -100t115.5 -264v-17h-169v5q0 98 -72 161t-186 63q-271 0 -332 -340l-12 -66q-13 -76 -13 -130q0 -137 71.5 -211.5t202.5 -74.5q99 0 172.5 48.5t101.5 134.5h169q-32 -145 -145 -235.5 t-272 -99.5l-57 -113q88 -3 136 -42.5t48 -109.5q0 -89 -69.5 -144.5t-180.5 -55.5q-83 0 -158 27l18 108q23 -9 66 -15.5t73 -6.5q114 0 114 72q0 74 -138 74h-54l5 84l67 128q-160 26 -250 133t-90 275z" />
<glyph unicode="&#xe8;" d="M274 398q0 54 15 154l21 136q30 193 163 305t333 112q128 0 225.5 -55.5t145.5 -154t35 -219.5q0 -1 -10 -91l-12 -87h-741q-1 -5 -4.5 -36t-3.5 -35q-13 -136 61 -218t208 -82q96 0 170.5 43t92.5 110h168q-21 -129 -147 -214.5t-293 -85.5q-199 0 -313 112t-114 306z M466 627h577q0 2 2.5 23t2.5 24q15 125 -56.5 205t-198.5 80q-123 0 -207 -71t-107 -194q-1 -1 -7 -33.5t-6 -33.5zM589 1635h202l180 -339h-176z" />
<glyph unicode="&#xe9;" d="M274 398q0 54 15 154l21 136q30 193 163 305t333 112q128 0 225.5 -55.5t145.5 -154t35 -219.5q0 -1 -10 -91l-12 -87h-741q-1 -5 -4.5 -36t-3.5 -35q-13 -136 61 -218t208 -82q96 0 170.5 43t92.5 110h168q-21 -129 -147 -214.5t-293 -85.5q-199 0 -313 112t-114 306z M466 627h577q0 2 2.5 23t2.5 24q15 125 -56.5 205t-198.5 80q-123 0 -207 -71t-107 -194q-1 -1 -7 -33.5t-6 -33.5zM725 1296l298 339h213l-324 -339h-187z" />
<glyph unicode="&#xea;" d="M274 398q0 54 15 154l21 136q30 193 163 305t333 112q128 0 225.5 -55.5t145.5 -154t35 -219.5q0 -1 -10 -91l-12 -87h-741q-1 -5 -4.5 -36t-3.5 -35q-13 -136 61 -218t208 -82q96 0 170.5 43t92.5 110h168q-21 -129 -147 -214.5t-293 -85.5q-199 0 -313 112t-114 306z M466 627h577q0 2 2.5 23t2.5 24q15 125 -56.5 205t-198.5 80q-123 0 -207 -71t-107 -194q-1 -1 -7 -33.5t-6 -33.5zM474 1282l334 341h201l213 -341h-186l-132 226h-15l-212 -226h-203z" />
<glyph unicode="&#xeb;" d="M274 398q0 54 15 154l21 136q30 193 163 305t333 112q128 0 225.5 -55.5t145.5 -154t35 -219.5q0 -1 -10 -91l-12 -87h-741q-1 -5 -4.5 -36t-3.5 -35q-13 -136 61 -218t208 -82q96 0 170.5 43t92.5 110h168q-21 -129 -147 -214.5t-293 -85.5q-199 0 -313 112t-114 306z M466 627h577q0 2 2.5 23t2.5 24q15 125 -56.5 205t-198.5 80q-123 0 -207 -71t-107 -194q-1 -1 -7 -33.5t-6 -33.5zM575 1440q0 49 35 85.5t82 36.5t82 -36.5t35 -85.5t-35 -85t-82 -36t-82 36t-35 85zM978 1440q0 49 35 85.5t82 36.5t82.5 -36.5t35.5 -85.5t-35.5 -85 t-82.5 -36t-82 36t-35 85z" />
<glyph unicode="&#xec;" d="M208 0l24 141h372l143 803h-368l23 141h537l-168 -944h360l-24 -141h-899zM632 1635h202l180 -339h-176z" />
<glyph unicode="&#xed;" d="M208 0l24 141h372l143 803h-368l23 141h537l-168 -944h360l-24 -141h-899zM767 1296l298 339h213l-324 -339h-187z" />
<glyph unicode="&#xee;" d="M208 0l24 141h372l143 803h-368l23 141h537l-168 -944h360l-24 -141h-899zM516 1282l334 341h201l213 -341h-186l-132 226h-15l-212 -226h-203z" />
<glyph unicode="&#xef;" d="M208 0l24 141h372l143 803h-368l23 141h537l-168 -944h360l-24 -141h-899zM599 1432q0 49 35 85.5t82 36.5t82 -36.5t35 -85.5t-35 -85t-82 -36t-82 36t-35 85zM1002 1432q0 49 35 85.5t82 36.5t82.5 -36.5t35.5 -85.5t-35.5 -85t-82.5 -36t-82 36t-35 85z" />
<glyph unicode="&#xf0;" d="M217 431q0 63 9 118l10 58q34 187 157.5 298t299.5 111q113 0 200.5 -50t127.5 -138l9 -1q-6 202 -93 401l-307 -105l21 122l237 81q-66 119 -149 197h218q51 -64 94 -141l320 110l-21 -122l-251 -86q95 -222 95 -478q0 -185 -53 -405q-51 -203 -179 -311t-320 -108 q-191 0 -308 123.5t-117 325.5zM391 433q0 -133 75 -215.5t195 -82.5q121 0 202.5 82t105.5 227l12 69q7 33 7 83q0 122 -74 197.5t-195 75.5q-123 0 -207.5 -80.5t-105.5 -219.5l-6 -40q-9 -53 -9 -96z" />
<glyph unicode="&#xf1;" d="M189 0l191 1085h163l-32 -186h11q42 96 131 151t205 55q155 0 248.5 -95t93.5 -250q0 -50 -16 -149l-107 -611h-170l108 609q11 66 11 111q0 104 -62.5 166.5t-168.5 62.5q-121 0 -209.5 -84t-113.5 -224l-113 -641h-170zM516 1268q5 138 66.5 214.5t165.5 76.5 q44 0 82 -16.5t64 -39.5t48.5 -46t46 -39.5t47.5 -16.5q45 0 66 36.5t23 118.5h139q-4 -136 -65.5 -213t-165.5 -77q-44 0 -82 16.5t-64 40t-48.5 47t-46 40t-47.5 16.5q-45 0 -66 -37t-23 -121h-140z" />
<glyph unicode="&#xf2;" d="M251 410q0 65 10 124l26 150q34 194 162 307t313 113q203 0 324.5 -119.5t121.5 -315.5q0 -52 -10 -116l-27 -151q-36 -202 -162.5 -311.5t-322.5 -109.5q-195 0 -315 119t-120 310zM417 418q0 -130 77.5 -208.5t205.5 -78.5q123 0 203.5 79t106.5 227l25 141q6 45 6 92 q0 128 -77.5 206t-204.5 78q-121 0 -202.5 -78.5t-106.5 -218.5l-24 -137q-9 -58 -9 -102zM583 1635h202l180 -339h-176z" />
<glyph unicode="&#xf3;" d="M251 410q0 65 10 124l26 150q34 194 162 307t313 113q203 0 324.5 -119.5t121.5 -315.5q0 -52 -10 -116l-27 -151q-36 -202 -162.5 -311.5t-322.5 -109.5q-195 0 -315 119t-120 310zM417 418q0 -130 77.5 -208.5t205.5 -78.5q123 0 203.5 79t106.5 227l25 141q6 45 6 92 q0 128 -77.5 206t-204.5 78q-121 0 -202.5 -78.5t-106.5 -218.5l-24 -137q-9 -58 -9 -102zM719 1296l298 339h213l-324 -339h-187z" />
<glyph unicode="&#xf4;" d="M251 410q0 65 10 124l26 150q34 194 162 307t313 113q203 0 324.5 -119.5t121.5 -315.5q0 -52 -10 -116l-27 -151q-36 -202 -162.5 -311.5t-322.5 -109.5q-195 0 -315 119t-120 310zM417 418q0 -130 77.5 -208.5t205.5 -78.5q123 0 203.5 79t106.5 227l25 141q6 45 6 92 q0 128 -77.5 206t-204.5 78q-121 0 -202.5 -78.5t-106.5 -218.5l-24 -137q-9 -58 -9 -102zM468 1282l334 341h201l213 -341h-186l-132 226h-15l-212 -226h-203z" />
<glyph unicode="&#xf5;" d="M251 410q0 65 10 124l26 150q34 194 162 307t313 113q203 0 324.5 -119.5t121.5 -315.5q0 -52 -10 -116l-27 -151q-36 -202 -162.5 -311.5t-322.5 -109.5q-195 0 -315 119t-120 310zM417 418q0 -130 77.5 -208.5t205.5 -78.5q123 0 203.5 79t106.5 227l25 141q6 45 6 92 q0 128 -77.5 206t-204.5 78q-121 0 -202.5 -78.5t-106.5 -218.5l-24 -137q-9 -58 -9 -102zM480 1268q5 138 66.5 214.5t165.5 76.5q44 0 82 -16.5t64 -39.5t48.5 -46t46 -39.5t47.5 -16.5q45 0 66 36.5t23 118.5h139q-4 -136 -65.5 -213t-165.5 -77q-44 0 -82 16.5t-64 40 t-48.5 47t-46 40t-47.5 16.5q-45 0 -66 -37t-23 -121h-140z" />
<glyph unicode="&#xf6;" d="M251 410q0 65 10 124l26 150q34 194 162 307t313 113q203 0 324.5 -119.5t121.5 -315.5q0 -52 -10 -116l-27 -151q-36 -202 -162.5 -311.5t-322.5 -109.5q-195 0 -315 119t-120 310zM417 418q0 -130 77.5 -208.5t205.5 -78.5q123 0 203.5 79t106.5 227l25 141q6 45 6 92 q0 128 -77.5 206t-204.5 78q-121 0 -202.5 -78.5t-106.5 -218.5l-24 -137q-9 -58 -9 -102zM551 1420q0 49 35 85.5t82 36.5t82 -36.5t35 -85.5t-35 -85t-82 -36t-82 36t-35 85zM954 1420q0 49 35 85.5t82 36.5t82.5 -36.5t35.5 -85.5t-35.5 -85t-82.5 -36t-82 36t-35 85z " />
<glyph unicode="&#xf7;" d="M234 564l26 152h995l-26 -152h-995zM565 281q0 55 35.5 91t88.5 36t88.5 -36t35.5 -91t-35 -90.5t-89 -35.5q-53 0 -88.5 35.5t-35.5 90.5zM678 999q0 55 35.5 91t88.5 36t88.5 -36t35.5 -91t-35.5 -91t-88.5 -36t-88.5 36t-35.5 91z" />
<glyph unicode="&#xf8;" d="M248 410q0 65 10 124l26 150q34 194 162 307t313 113q121 0 217 -45l41 70h137l-81 -135q132 -120 132 -325q0 -52 -10 -116l-27 -151q-36 -202 -162.5 -311.5t-322.5 -109.5q-106 0 -192 37l-37 -62h-133l72 121q-145 120 -145 333zM414 418q0 -119 65 -195l416 700 q-62 31 -139 31q-121 0 -202.5 -78.5t-106.5 -218.5l-24 -137q-9 -58 -9 -102zM573 155q54 -24 124 -24q123 0 203.5 79t106.5 227l25 141q6 45 6 92q0 104 -53 177z" />
<glyph unicode="&#xf9;" d="M257 325q0 50 16 149l107 611h170l-108 -609q-11 -66 -11 -111q0 -104 62.5 -166.5t168.5 -62.5q121 0 209.5 84t113.5 224l113 641h170l-191 -1085h-163l32 186h-11q-42 -96 -131 -151t-205 -55q-155 0 -248.5 95t-93.5 250zM586 1635h202l180 -339h-176z" />
<glyph unicode="&#xfa;" d="M257 325q0 50 16 149l107 611h170l-108 -609q-11 -66 -11 -111q0 -104 62.5 -166.5t168.5 -62.5q121 0 209.5 84t113.5 224l113 641h170l-191 -1085h-163l32 186h-11q-42 -96 -131 -151t-205 -55q-155 0 -248.5 95t-93.5 250zM721 1296l298 339h213l-324 -339h-187z" />
<glyph unicode="&#xfb;" d="M257 325q0 50 16 149l107 611h170l-108 -609q-11 -66 -11 -111q0 -104 62.5 -166.5t168.5 -62.5q121 0 209.5 84t113.5 224l113 641h170l-191 -1085h-163l32 186h-11q-42 -96 -131 -151t-205 -55q-155 0 -248.5 95t-93.5 250zM470 1282l334 341h201l213 -341h-186 l-132 226h-15l-212 -226h-203z" />
<glyph unicode="&#xfc;" d="M257 325q0 50 16 149l107 611h170l-108 -609q-11 -66 -11 -111q0 -104 62.5 -166.5t168.5 -62.5q121 0 209.5 84t113.5 224l113 641h170l-191 -1085h-163l32 186h-11q-42 -96 -131 -151t-205 -55q-155 0 -248.5 95t-93.5 250zM553 1420q0 49 35 85.5t82 36.5t82 -36.5 t35 -85.5t-35 -85t-82 -36t-82 36t-35 85zM956 1420q0 49 35 85.5t82 36.5t82.5 -36.5t35.5 -85.5t-35.5 -85t-82.5 -36t-82 36t-35 85z" />
<glyph unicode="&#xfd;" d="M197 -383l25 149q18 -4 67 -4q73 0 119 36t100 136l30 59l-208 1092h176l146 -908h13l461 908h190l-607 -1125q-111 -206 -198 -276t-234 -70q-61 0 -80 3zM710 1296l298 339h213l-324 -339h-187z" />
<glyph unicode="&#xfe;" d="M134 -345l318 1807h174l-94 -533h11q45 77 130 121t187 44q173 0 274.5 -110t101.5 -297q0 -53 -11 -122l-29 -164q-34 -195 -151.5 -308.5t-285.5 -113.5q-130 0 -224 66t-120 173h-8l-100 -563h-173zM450 428q0 -125 78.5 -205t201.5 -80q114 0 195 78t106 211l24 140 q6 44 6 82q0 132 -71 209t-193 77q-118 0 -204 -76.5t-111 -203.5q-14 -70 -25 -147q-7 -49 -7 -85z" />
<glyph unicode="&#xff;" d="M197 -383l25 149q18 -4 67 -4q73 0 119 36t100 136l30 59l-208 1092h176l146 -908h13l461 908h190l-607 -1125q-111 -206 -198 -276t-234 -70q-61 0 -80 3zM542 1440q0 49 35 85.5t82 36.5t82 -36.5t35 -85.5t-35 -85t-82 -36t-82 36t-35 85zM945 1440q0 49 35 85.5 t82 36.5t82.5 -36.5t35.5 -85.5t-35.5 -85t-82.5 -36t-82 36t-35 85z" />
<glyph unicode="&#x152;" d="M126 388q0 146 25 299l43 251q45 267 154 403t278 136q118 0 189 -71.5t83 -200.5h8l42 238h564l-26 -162h-420l-84 -465h385l-26 -159h-386l-90 -496h420l-27 -161h-564l30 174h-8q-46 -107 -115 -157t-170 -50q-143 0 -224 112t-81 309zM300 428q0 -124 50 -197 t135 -73q219 0 288 379l43 238q19 95 19 213q0 298 -197 298q-208 0 -278 -390l-39 -220q-21 -136 -21 -248z" />
<glyph unicode="&#x153;" d="M133 337q0 109 12 176l27 162q74 422 376 422q95 0 160.5 -59.5t82.5 -160.5h3q40 104 119 163.5t178 59.5q139 0 211 -111t55 -298q0 -23 -11 -105l-12 -89h-516q-12 -85 -12 -126q0 -107 46 -170.5t124 -63.5q65 0 115.5 42.5t64.5 109.5h142q-22 -132 -117 -219 t-215 -87q-99 0 -166 58t-88 161h-2q-82 -220 -292 -220q-134 0 -209.5 94t-75.5 261zM281 366q0 -112 41.5 -172.5t118.5 -60.5q85 0 142 76t80 223l24 155q10 50 10 107q0 123 -42.5 187t-124.5 64q-81 0 -137 -76.5t-78 -220.5l-24 -150q-10 -67 -10 -132zM844 633h366 q10 40 10 116q-1 95 -41.5 149t-110.5 54q-76 0 -130.5 -65.5t-80.5 -184.5q-5 -18 -13 -69z" />
<glyph unicode="&#x178;" d="M301 1443h185l270 -663h12l493 663h205l-639 -844l-106 -599h-175l106 598zM613 1772q0 49 35 85.5t82 36.5t82 -36.5t35 -85.5t-35 -85t-82 -36t-82 36t-35 85zM1016 1772q0 49 35 85.5t82 36.5t82.5 -36.5t35.5 -85.5t-35.5 -85t-82.5 -36t-82 36t-35 85z" />
<glyph unicode="&#x2c6;" d="M485 1282l334 341h201l213 -341h-186l-132 226h-15l-212 -226h-203z" />
<glyph unicode="&#x2dc;" d="M507 1273q5 138 66.5 214.5t165.5 76.5q44 0 82 -16.5t64 -39.5t48.5 -46t46 -39.5t47.5 -16.5q45 0 66 36.5t23 118.5h139q-4 -136 -65.5 -213t-165.5 -77q-44 0 -82 16.5t-64 40t-48.5 47t-46 40t-47.5 16.5q-45 0 -66 -37t-23 -121h-140z" />
<glyph unicode="&#x2000;" horiz-adv-x="971" />
<glyph unicode="&#x2001;" horiz-adv-x="1943" />
<glyph unicode="&#x2002;" horiz-adv-x="971" />
<glyph unicode="&#x2003;" horiz-adv-x="1943" />
<glyph unicode="&#x2004;" horiz-adv-x="647" />
<glyph unicode="&#x2005;" horiz-adv-x="485" />
<glyph unicode="&#x2006;" horiz-adv-x="323" />
<glyph unicode="&#x2007;" horiz-adv-x="323" />
<glyph unicode="&#x2008;" horiz-adv-x="242" />
<glyph unicode="&#x2009;" horiz-adv-x="388" />
<glyph unicode="&#x200a;" horiz-adv-x="107" />
<glyph unicode="&#x2010;" d="M204 561l27 158h1058l-26 -158h-1059z" />
<glyph unicode="&#x2011;" d="M204 561l27 158h1058l-26 -158h-1059z" />
<glyph unicode="&#x2012;" d="M204 561l27 158h1058l-26 -158h-1059z" />
<glyph unicode="&#x2013;" d="M251 561l27 158h962l-27 -158h-962z" />
<glyph unicode="&#x2014;" d="M99 561l27 158h1266l-27 -158h-1266z" />
<glyph unicode="&#x2018;" d="M609 811l285 632h161l-259 -632h-187z" />
<glyph unicode="&#x2019;" d="M609 811l259 632h187l-285 -632h-161z" />
<glyph unicode="&#x201a;" d="M383 -466l259 632h187l-285 -632h-161z" />
<glyph unicode="&#x201c;" d="M413 811l292 632h159l-265 -632h-186zM800 811l292 632h159l-266 -632h-185z" />
<glyph unicode="&#x201d;" d="M413 811l266 632h185l-292 -632h-159zM800 811l265 632h186l-292 -632h-159z" />
<glyph unicode="&#x201e;" d="M187 -467l266 632h185l-292 -632h-159zM574 -467l265 632h186l-292 -632h-159z" />
<glyph unicode="&#x2022;" d="M325 640q0 175 124 299.5t297 124.5q174 0 298 -124.5t124 -299.5t-124 -299.5t-298 -124.5q-173 0 -297 124.5t-124 299.5z" />
<glyph unicode="&#x2026;" d="M114 166q11 88 53 132t109 36q64 -8 91 -52.5t15 -118.5q-12 -89 -54 -132.5t-107 -35.5q-64 7 -91.5 51.5t-15.5 119.5zM515 166q12 88 54 132t108 36q64 -8 91 -52.5t15 -118.5q-11 -89 -53.5 -132.5t-107.5 -35.5q-64 7 -91.5 51.5t-15.5 119.5zM916 166q12 89 54 132 t109 36q63 -8 90.5 -52.5t15.5 -118.5q-12 -89 -54 -132.5t-107 -35.5q-64 7 -91.5 51.5t-16.5 119.5z" />
<glyph unicode="&#x202f;" horiz-adv-x="388" />
<glyph unicode="&#x2039;" d="M482 637l1 4l424 420h183l-431 -423l-2 -4l273 -417h-172z" />
<glyph unicode="&#x203a;" d="M401 217l431 423l2 4l-273 417h172l276 -420l-1 -4l-424 -420h-183z" />
<glyph unicode="&#x205f;" horiz-adv-x="485" />
<glyph unicode="&#x20ac;" d="M177 522l21 120h201q3 96 25 183h-194l21 120h211q86 257 278 391t476 134q138 0 218 -23l-27 -162q-78 19 -193 19q-208 0 -352 -92t-212 -267h555l-20 -120h-579q-24 -80 -24 -183h570l-21 -120h-540q32 -186 176 -284t388 -98h27l23 1l-27 -165h-68q-302 0 -492 147 t-216 399h-225z" />
<glyph unicode="&#x2122;" d="M258 1309l22 134h452l-22 -134h-163l-136 -773h-127l137 773h-163zM643 536l159 907h166l16 -670h19l253 670h169l-159 -907h-111l112 621h-19l-241 -595h-97l-26 595h-18l-112 -621h-111z" />
<glyph unicode="&#x25fc;" horiz-adv-x="1085" d="M0 0v1085h1085v-1085h-1085z" />
<glyph unicode="&#xfb01;" d="M172 937l24 145h234l20 109q28 162 140.5 239.5t316.5 77.5q83 0 163 -16l-25 -142q-87 16 -162 16q-229 0 -260 -171l-20 -113h724l-190 -1082h-173l166 937h-551l-166 -937h-174l166 937h-233zM1160 1395q0 60 40.5 100t100.5 40t100.5 -40t40.5 -100q0 -59 -40.5 -99 t-100.5 -40t-100.5 40t-40.5 99z" />
<glyph unicode="&#xfb02;" d="M166 937l25 145h230l15 84q31 179 141.5 258t333.5 79h490l-264 -1503h-170l242 1366h-306q-153 0 -216 -46t-86 -168l-12 -70h363l-25 -145h-361l-166 -937h-170l166 937h-230z" />
</font>
</defs>
</svg>
