<?xml version="1.0" standalone="no"?>
<!DOCTYPE svg PUBLIC "-//W3C//DTD SVG 1.1//EN" "http://www.w3.org/Graphics/SVG/1.1/DTD/svg11.dtd" >
<svg xmlns="http://www.w3.org/2000/svg">
<metadata></metadata>
<defs>
<font id="sfns_textbold_italic" horiz-adv-x="1415" >
<font-face units-per-em="2048" ascent="1638" descent="-410" />
<missing-glyph horiz-adv-x="528" />
<glyph horiz-adv-x="0" />
<glyph unicode="&#xd;" horiz-adv-x="0" />
<glyph unicode=" "  horiz-adv-x="528" />
<glyph unicode="&#x09;" horiz-adv-x="528" />
<glyph unicode="&#xa0;" horiz-adv-x="528" />
<glyph unicode="!" horiz-adv-x="729" d="M137 135q0 38 12.5 70t36 55.5t57 37t75.5 13.5t75.5 -13t57 -35.5t36 -53t12.5 -64.5q0 -38 -12.5 -70t-36 -55t-57 -36.5t-75.5 -13.5t-75.5 13t-57 35.5t-36 52.5t-12.5 64zM260 475l180 968h320l-233 -968h-267z" />
<glyph unicode="&#x22;" horiz-adv-x="1016" d="M255 831l129 612h250l-129 -612h-250zM717 831l129 612h250l-129 -612h-250z" />
<glyph unicode="#" horiz-adv-x="1360" d="M71 382l88 223h202l108 252h-200l86 221h202l153 366h227l-152 -366h229l153 366h228l-152 -366h205l-87 -221h-207l-108 -252h204l-86 -223h-206l-159 -382h-228l159 382h-230l-159 -382h-227l159 382h-202zM567 585h257l124 291h-259z" />
<glyph unicode="$" d="M160 417h284q8 -66 52.5 -112t117.5 -67l80 378l-60 20q-158 53 -242 153t-84 231q0 96 38.5 176t109.5 137.5t170.5 89.5t221.5 32h25l28 133h140l-32 -151q81 -20 147.5 -58t113.5 -90.5t73 -118t27 -139.5h-277q-8 60 -43 102.5t-92 65.5l-76 -357l48 -16 q175 -59 262.5 -153t87.5 -230q0 -105 -41 -189.5t-115 -143.5t-178 -90.5t-230 -31.5h-15l-27 -126h-140l30 140q-89 17 -162.5 54t-126 90.5t-82.5 122t-33 148.5zM606 1047q0 -53 37 -92t109 -69l71 334q-49 -2 -89 -15.5t-68.5 -36.5t-44 -54t-15.5 -67zM751 223 q55 2 98 16.5t73 38.5t46 57t16 72q0 55 -37 92.5t-122 71.5z" />
<glyph unicode="%" horiz-adv-x="1806" d="M176 0l731 761l579 682h314l-744 -770l-566 -673h-314zM248 1064q0 87 29 162t79 130.5t118.5 87.5t147.5 32q70 0 127 -22.5t97 -64.5t61.5 -101.5t21.5 -132.5q0 -87 -29 -162.5t-79.5 -131t-119 -87.5t-147.5 -32q-70 0 -126.5 22.5t-96.5 64.5t-61.5 101.5 t-21.5 133.5zM469 1066q0 -61 25 -96t69 -35q30 0 56 17.5t46 47.5t31.5 70.5t11.5 85.5q0 61 -24 95t-68 34q-30 0 -56.5 -17.5t-47 -47.5t-32 -69.5t-11.5 -84.5zM1043 289q0 87 29 162t79.5 130.5t119 87.5t147.5 32q70 0 126.5 -23t96.5 -65t62 -101.5t22 -132.5 q0 -87 -29 -162t-80 -131t-119.5 -88t-147.5 -32q-70 0 -126.5 23t-96.5 65t-61.5 101.5t-21.5 133.5zM1265 290q0 -61 24.5 -95.5t68.5 -34.5q30 0 56.5 17.5t46.5 47.5t31.5 70t11.5 85q0 61 -24 95t-68 34q-30 0 -56.5 -17.5t-47 -47.5t-32 -69.5t-11.5 -84.5z" />
<glyph unicode="&#x26;" horiz-adv-x="1525" d="M98 367q0 140 88.5 246t268.5 176l72 29q-61 87 -88.5 157t-27.5 137q0 75 32.5 139.5t90 112t136 74.5t170.5 27q86 0 159 -23t126.5 -64t84 -97t30.5 -122q0 -128 -92 -235.5t-287 -181.5l218 -311q49 64 78 138t35 160l3 33h244l-3 -38q-14 -144 -72.5 -267.5 t-154.5 -224.5l155 -232h-304l-51 76q-87 -51 -189 -77.5t-211 -26.5t-202.5 30t-162 82.5t-107.5 125t-39 157.5zM371 392q0 -44 18.5 -81t53 -64t82.5 -42.5t108 -15.5q63 0 132 16t129 52l-262 387q-3 -1 -10 -3.5t-14.5 -5t-14.5 -5t-8 -2.5q-106 -39 -160 -100 t-54 -136zM663 1089q0 -41 21 -85t70 -107q126 43 181 104t55 132q0 60 -41 95t-107 35q-37 0 -69.5 -13.5t-57 -37.5t-38.5 -55.5t-14 -67.5z" />
<glyph unicode="'" horiz-adv-x="553" d="M255 831l129 612h250l-129 -612h-250z" />
<glyph unicode="(" horiz-adv-x="803" d="M181 299q0 160 31.5 317.5t91.5 304.5t147.5 279t200.5 242h308q-107 -105 -195 -235.5t-151 -280t-98 -314t-35 -338.5q0 -286 88 -551h-270q-27 53 -48.5 120.5t-37 143t-24 155.5t-8.5 157z" />
<glyph unicode=")" horiz-adv-x="802" d="M-79 -277q106 105 194.5 235.5t151.5 280t98 314.5t35 338q0 286 -88 551h270q27 -53 48.5 -120.5t37 -143t24 -155.5t8.5 -157q0 -160 -31.5 -317t-91.5 -304t-147.5 -279.5t-200.5 -242.5h-308z" />
<glyph unicode="*" horiz-adv-x="1032" d="M229 954l307 88l-257 142l140 174l202 -215l26 303l202 -5l-105 -310l283 167l64 -194l-307 -87l256 -143l-139 -174l-202 211l-26 -296l-202 5l103 304l-281 -165z" />
<glyph unicode="+" d="M191 455l53 258h405l87 408h261l-87 -408h413l-53 -258h-413l-87 -409h-261l87 409h-405z" />
<glyph unicode="," horiz-adv-x="722" d="M32 -388l213 635h288l-267 -635h-234z" />
<glyph unicode="-" horiz-adv-x="992" d="M188 446l57 273h657l-57 -273h-657z" />
<glyph unicode="." horiz-adv-x="712" d="M122 141q0 38 12.5 71t36 57t56 37.5t72.5 13.5t73 -13.5t56 -36.5t35.5 -53.5t12.5 -64.5q0 -38 -12.5 -70.5t-35.5 -56.5t-56 -38t-73 -14t-72.5 13.5t-56 37t-36 54t-12.5 63.5z" />
<glyph unicode="/" horiz-adv-x="772" d="M-95 -288l783 1731h275l-789 -1731h-269z" />
<glyph unicode="0" horiz-adv-x="1401" d="M183 522q0 138 24.5 263t69 231.5t107.5 192t140.5 146t167 93t188.5 32.5q116 0 209 -39t158.5 -112t100.5 -176t35 -232q0 -139 -24.5 -264t-69 -231t-107.5 -192t-140.5 -146t-168 -92.5t-189.5 -32.5q-116 0 -208.5 39t-157.5 112t-100 176t-35 232zM487 506 q0 -139 54 -217t152 -78q77 0 147 59t123 159t84.5 231.5t31.5 277.5q0 138 -54 215.5t-152 77.5q-51 0 -99.5 -27t-91.5 -75t-79 -115t-61.5 -147.5t-40 -172t-14.5 -188.5z" />
<glyph unicode="1" horiz-adv-x="1051" d="M239 892l60 294l429 257h301l-307 -1443h-302l243 1134h-18z" />
<glyph unicode="2" horiz-adv-x="1318" d="M81 0l47 224l556 448q100 81 164 137t101 98.5t51 77.5t14 74t-15.5 71.5t-44 56t-67.5 36.5t-85 13q-48 0 -89.5 -15t-74.5 -42.5t-56 -66.5t-32 -86l-1 -5h-279q9 100 54.5 184.5t119.5 145.5t172 95t212 34q105 0 193.5 -29.5t153.5 -82t101.5 -124.5t36.5 -157 q0 -69 -21.5 -129t-72.5 -124.5t-136 -140t-212 -176.5l-316 -250l-4 -18h630l-51 -249h-1049z" />
<glyph unicode="3" horiz-adv-x="1366" d="M140 381q0 12 1.5 27t3.5 33h284v-3q-5 -48 12 -88.5t51 -70.5t83 -47t109 -17q61 0 111 17t85.5 47.5t55 73t19.5 94.5q0 40 -17.5 73.5t-49.5 57.5t-76.5 37.5t-97.5 13.5h-159l46 226h192q58 0 106.5 15t82.5 43t53 66.5t19 85.5q0 39 -16 71t-45.5 55t-71 35.5 t-91.5 12.5q-44 0 -83 -12.5t-71.5 -35t-56.5 -54t-36 -70.5h-279q19 94 68 170.5t121 130.5t164 83t199 29t197 -28t155 -78.5t101.5 -120t36.5 -151.5q0 -70 -25.5 -132t-70.5 -111t-107.5 -81t-135.5 -41l-3 -18q121 -28 186 -104.5t65 -194.5q0 -100 -43 -184 t-119.5 -144.5t-182 -94.5t-230.5 -34q-119 0 -218 30.5t-170.5 86t-111.5 132.5t-40 169z" />
<glyph unicode="4" horiz-adv-x="1413" d="M95 252l49 279q136 181 325 406t436 506h439l-201 -940h189l-52 -251h-188l-55 -252h-288l55 252h-709zM416 494h444l154 714h-16q-65 -74 -131.5 -150t-137.5 -160.5t-147.5 -180t-162.5 -207.5z" />
<glyph unicode="5" horiz-adv-x="1361" d="M170 389v8.5v3.5t0.5 7t1.5 19h279v-3q1 -47 20.5 -86.5t53.5 -67.5t80.5 -43.5t102.5 -15.5q63 0 116.5 22.5t91.5 62t59.5 93.5t21.5 118q0 54 -18 97t-50 73.5t-76.5 46.5t-96.5 16q-71 0 -134.5 -29.5t-103.5 -77.5h-277l242 810h899l-53 -251h-656l-111 -347l17 -1 q56 56 129.5 85t159.5 29q87 0 163 -31.5t132.5 -87t88.5 -132.5t32 -167q0 -126 -42.5 -231.5t-120 -182.5t-186.5 -120t-242 -43q-113 0 -208.5 32t-165.5 89t-109.5 135t-39.5 170z" />
<glyph unicode="6" horiz-adv-x="1406" d="M190 542q0 189 50 357t141 297q96 137 230 210.5t295 73.5q108 0 199.5 -32t158.5 -89t105.5 -135.5t40.5 -171.5h-294q-6 41 -24.5 74t-47.5 56.5t-68.5 36t-85.5 12.5q-70 0 -131.5 -32t-111.5 -92t-86.5 -145.5t-55.5 -192.5l18 -1q64 88 157 134t205 46 q94 0 173 -31.5t136 -87.5t89 -134.5t32 -171.5q0 -119 -45 -221t-123.5 -177.5t-185.5 -118.5t-230 -43q-126 0 -226.5 39.5t-170 114.5t-107 182.5t-37.5 242.5zM487 440q0 -51 18 -93t51 -73t78.5 -48t100.5 -17q60 0 112.5 22t90.5 60.5t60 91t22 113.5q0 50 -17.5 91.5 t-49.5 71.5t-76 47t-96 17q-62 0 -115.5 -22t-93 -60t-62.5 -89.5t-23 -111.5z" />
<glyph unicode="7" horiz-adv-x="1239" d="M120 0l868 1176l4 19h-703l52 248h1017l-52 -251l-858 -1192h-328z" />
<glyph unicode="8" horiz-adv-x="1416" d="M134 366q0 79 29 148.5t81.5 124.5t126.5 91.5t163 49.5l4 17q-45 18 -81.5 46.5t-62 63.5t-39.5 75.5t-14 83.5q0 90 41 165.5t113 131t171.5 86.5t216.5 31q106 0 198.5 -28.5t160 -79t106.5 -118.5t39 -147q0 -69 -23.5 -129.5t-67 -107.5t-104.5 -79.5t-135 -44.5 l-4 -18q57 -20 102.5 -51.5t77 -72.5t48.5 -90t17 -103q0 -98 -45 -180t-125.5 -141.5t-191 -93t-242.5 -33.5q-123 0 -226 29.5t-177.5 83t-115.5 127.5t-41 163zM451 396q0 -46 18 -83.5t51.5 -64t81 -41t105.5 -14.5q61 0 113.5 18t90 50t59 76t21.5 96q0 45 -19 83 t-52.5 65t-81 42t-104.5 15q-61 0 -112.5 -18.5t-89.5 -50.5t-59.5 -76.5t-21.5 -96.5zM629 1035q0 -39 16 -71.5t44.5 -56.5t68 -37t86.5 -13q51 0 95.5 17t77.5 46.5t51.5 69.5t18.5 86q0 39 -16 71.5t-44.5 56.5t-68 37t-86.5 13q-52 0 -96.5 -16.5t-77 -46t-51 -69.5 t-18.5 -87z" />
<glyph unicode="9" horiz-adv-x="1404" d="M151 379h295q4 -39 22.5 -70t48.5 -52.5t70.5 -33.5t89.5 -12q72 0 135 32.5t113 92.5t86 145t53 190l-17 1q-65 -88 -157 -134t-203 -46q-95 0 -175.5 32t-139 88.5t-91.5 134.5t-33 171q0 121 44.5 224t123.5 178t186 117.5t233 42.5q125 0 224.5 -40t168.5 -115 t106 -183t37 -245q0 -186 -50 -353.5t-141 -296.5q-96 -137 -229 -210.5t-291 -73.5q-107 0 -198 31t-159 86.5t-108 132t-44 166.5zM544 944q0 -50 17.5 -91.5t49 -71.5t75.5 -47t96 -17q61 0 114.5 22t93 60t62 89.5t22.5 111.5q0 51 -17.5 93.5t-50 72.5t-77.5 47t-99 17 q-60 0 -112.5 -22t-91 -60.5t-60.5 -90.5t-22 -113z" />
<glyph unicode=":" horiz-adv-x="712" d="M122 141q0 38 12.5 71t36 57t56 37.5t72.5 13.5t73 -13.5t56 -36.5t35.5 -53.5t12.5 -64.5q0 -38 -12.5 -70.5t-35.5 -56.5t-56 -38t-73 -14t-72.5 13.5t-56 37t-36 54t-12.5 63.5zM278 879q0 38 12.5 70.5t36 56.5t56 38t72.5 14t73 -13.5t56 -36.5t35.5 -53.5 t12.5 -64.5q0 -38 -12.5 -70.5t-35.5 -56.5t-56 -38t-73 -14t-72.5 13.5t-56 36.5t-36 53.5t-12.5 64.5z" />
<glyph unicode=";" horiz-adv-x="712" d="M-14 -388l213 635h288l-267 -635h-234zM279 879q0 38 12.5 70.5t36 56.5t56 38t72.5 14t72.5 -13.5t56 -36.5t36 -53.5t12.5 -64.5q0 -38 -12.5 -70.5t-36 -56.5t-56 -38t-72.5 -14t-72.5 13.5t-56 36.5t-36 53.5t-12.5 64.5z" />
<glyph unicode="&#x3c;" d="M258 491l48 235l1059 461l-63 -306l-723 -278l-3 -19l589 -331l-59 -292z" />
<glyph unicode="=" horiz-adv-x="1416" d="M144 216l53 259h1073l-53 -259h-1073zM244 695l53 259h1073l-53 -259h-1073z" />
<glyph unicode="&#x3e;" d="M144 -39l63 307l723 278l4 18l-590 332l60 291l848 -530l-48 -234z" />
<glyph unicode="?" horiz-adv-x="1141" d="M232 1053q12 88 52.5 162.5t104.5 127.5t151 83t192 30q106 0 192.5 -27t147.5 -75t94.5 -114t33.5 -144q0 -63 -19 -122t-55.5 -110t-89.5 -93t-120 -72q-56 -24 -94.5 -46t-64 -45.5t-39.5 -51t-21 -63.5l-8 -42h-271l12 63q12 67 31 116.5t48.5 87t72 65.5t100.5 54 q61 28 102.5 55t67 55t37 59t11.5 66q0 30 -12.5 56t-35.5 45.5t-57.5 31t-77.5 11.5q-38 0 -72 -11.5t-62 -32.5t-48 -51t-30 -68h-273zM309 134q0 39 13.5 72t38 57t58.5 37.5t75 13.5q39 0 72.5 -12t58.5 -33.5t39 -51.5t14 -66q0 -38 -13.5 -70.5t-37.5 -57t-58 -38.5 t-75 -14t-75 12t-58.5 33.5t-38 51.5t-13.5 66z" />
<glyph unicode="@" horiz-adv-x="1899" d="M202 511q0 133 32 254t91.5 224.5t143.5 187.5t188 143.5t225 91.5t254 32q164 0 302 -50t237.5 -140t155.5 -214t56 -272q0 -134 -36 -248.5t-100 -199t-150.5 -132.5t-187.5 -48q-53 0 -97 12t-76 33.5t-50 51.5t-18 66q0 7 0.5 13.5t0.5 11.5l-18 -3 q-42 -73 -101 -107.5t-135 -34.5q-68 0 -123.5 24.5t-94.5 69t-60.5 108t-21.5 141.5q0 103 31 192.5t85 156t126.5 104.5t156.5 38q44 0 83 -11.5t70 -32.5t52.5 -50.5t29.5 -65.5l18 -1l25 125h207l-121 -557q-3 -14 -4 -23t-1 -15q0 -39 22 -60t64 -21q47 0 90.5 38 t77 101t53.5 145.5t20 171.5q0 115 -42.5 210.5t-119.5 164.5t-184 107t-235 38q-104 0 -199 -26.5t-177 -75.5t-149 -117.5t-115 -152.5t-74 -181.5t-26 -203.5q0 -137 48.5 -247t138 -188t216 -120t283.5 -42q48 0 89 4t64 11l-34 -163q-42 -8 -85.5 -12t-90.5 -4 q-180 0 -329 54.5t-256 153t-166 236t-59 304.5zM846 536q0 -78 39.5 -123.5t107.5 -45.5q44 0 82 22t66.5 60t45 89.5t16.5 110.5q0 81 -40 128t-108 47q-44 0 -82 -22.5t-66 -61.5t-44.5 -91.5t-16.5 -112.5z" />
<glyph unicode="A" horiz-adv-x="1501" d="M-3 0l820 1443h349l187 -1443h-311l-35 344h-509l-186 -344h-315zM612 577h381l-58 565h-19z" />
<glyph unicode="B" horiz-adv-x="1420" d="M100 0l307 1443h589q93 0 169 -22.5t130.5 -63.5t84 -98t29.5 -127q0 -71 -24 -134t-67.5 -112t-103.5 -81t-131 -42l-2 -19q60 -11 107.5 -36.5t81 -62.5t51.5 -85t18 -104q0 -100 -40.5 -183.5t-113.5 -144t-173.5 -94.5t-220.5 -34h-691zM452 237h287q64 0 118 17.5 t93.5 48.5t61.5 74t22 95q0 85 -60 130t-174 45h-259zM584 851h240q62 0 113.5 16t89 44.5t58 67.5t20.5 86q0 75 -55 114.5t-161 39.5h-225z" />
<glyph unicode="C" horiz-adv-x="1532" d="M180 568q0 200 59 367.5t165 288.5t251 188.5t318 67.5q124 0 230.5 -38.5t184.5 -106.5t122.5 -160.5t44.5 -199.5v-21.5t-2 -21.5h-294v14q-3 60 -26 109t-63 84t-95 54t-121 19q-98 0 -183 -47.5t-147.5 -131t-98.5 -197.5t-36 -247q0 -83 22 -149.5t63 -113t99 -71.5 t131 -25q61 0 117.5 16.5t102.5 47.5t80 74t52 96h299q-24 -114 -83.5 -206.5t-148 -158t-201.5 -101t-244 -35.5q-136 0 -246.5 43t-188.5 122t-120.5 190.5t-42.5 249.5z" />
<glyph unicode="D" horiz-adv-x="1535" d="M101 0l306 1443h511q138 0 247.5 -40t186 -115.5t117 -184.5t40.5 -247q0 -124 -25.5 -235.5t-72.5 -206.5t-114 -171.5t-151 -130.5t-182.5 -83t-207.5 -29h-655zM459 257h270q102 0 188 40.5t148.5 115t97.5 178.5t35 231q0 84 -23.5 152t-68 115t-109 72.5 t-146.5 25.5h-191z" />
<glyph unicode="E" horiz-adv-x="1273" d="M100 0l307 1443h956l-53 -258h-652l-75 -337h616l-50 -239h-615l-78 -351h653l-52 -258h-957z" />
<glyph unicode="F" horiz-adv-x="1235" d="M100 0l307 1443h945l-53 -258h-641l-83 -376h585l-51 -247h-585l-120 -562h-304z" />
<glyph unicode="G" horiz-adv-x="1566" d="M182 574q0 133 26.5 252t76 219.5t120 181t158 137t191 86.5t218.5 30q120 0 225 -36t183.5 -99.5t125 -149.5t49.5 -185q1 -5 1 -10v-6q-1 -8 -1 -17h-294q-3 52 -27 95t-64.5 74t-96 48t-120.5 17q-99 0 -183.5 -46.5t-146.5 -128.5t-97 -195t-35 -246q0 -84 23 -151 t65.5 -114.5t103 -72.5t135.5 -25q70 0 132 19.5t110 56t81 87.5t46 114l5 25h-307l47 226h602l-37 -184q-29 -150 -90 -264.5t-150.5 -192t-207 -117t-259.5 -39.5q-137 0 -249.5 43.5t-192 124t-123 193t-43.5 250.5z" />
<glyph unicode="H" horiz-adv-x="1605" d="M100 0l307 1443h304l-125 -582h648l125 582h304l-307 -1443h-305l129 603h-648l-129 -603h-303z" />
<glyph unicode="I" horiz-adv-x="653" d="M100 0l307 1443h304l-307 -1443h-304z" />
<glyph unicode="J" horiz-adv-x="1229" d="M85 382v15.5t1 15.5h293v-9q1 -77 49 -122t131 -45q167 0 212 209l213 997h302l-222 -1042q-45 -213 -176 -325.5t-342 -112.5q-105 0 -191 30.5t-147 86t-94 132.5q-29 70 -29 154v16z" />
<glyph unicode="K" horiz-adv-x="1454" d="M100 0l307 1443h301l-136 -635h18l659 635h358l-670 -653l382 -790h-340l-293 606l-192 -182l-92 -424h-302z" />
<glyph unicode="L" horiz-adv-x="1219" d="M100 0l307 1443h303l-253 -1180h641l-54 -263h-944z" />
<glyph unicode="M" horiz-adv-x="1879" d="M100 0l307 1443h347l188 -970h18l608 970h368l-307 -1443h-281l207 965h-16l-558 -882h-201l-175 882h-16l-207 -965h-282z" />
<glyph unicode="N" horiz-adv-x="1573" d="M100 0l307 1443h231l479 -929h18l202 929h293l-307 -1443h-229l-483 922h-18l-200 -922h-293z" />
<glyph unicode="O" horiz-adv-x="1617" d="M181 576q0 133 27.5 251.5t77.5 219t121.5 180.5t159 136.5t190 86.5t214.5 30q144 0 259 -46.5t195.5 -128.5t124 -194.5t43.5 -243.5q0 -133 -27 -252t-77.5 -219.5t-121.5 -180.5t-158.5 -136t-189.5 -86t-214 -30q-142 0 -257 46.5t-196.5 128.5t-126 194.5 t-44.5 243.5zM491 598q0 -83 23.5 -150t66 -115t102.5 -74t134 -26q98 0 183 46.5t148 128.5t99 193.5t36 242.5q0 82 -23.5 149.5t-66 115.5t-102 74t-132.5 26q-98 0 -183.5 -47t-148.5 -129.5t-99.5 -194t-36.5 -240.5z" />
<glyph unicode="P" horiz-adv-x="1368" d="M101 0l306 1443h527q107 0 194 -30t149 -85.5t96 -133t34 -173.5q0 -133 -46 -239t-128.5 -180.5t-197 -114t-252.5 -39.5h-282l-97 -448h-303zM550 693h229q72 0 131.5 21.5t101.5 60.5t65 94t23 123q0 100 -63 151.5t-175 51.5h-202z" />
<glyph unicode="Q" horiz-adv-x="1617" d="M181 576q0 199 60.5 365t166.5 286t250.5 186.5t312.5 66.5q144 0 259 -46.5t195.5 -128.5t124 -194t43.5 -244q0 -123 -24 -235t-68.5 -208.5t-109 -176t-145.5 -137.5l116 -251h-288l-63 130q-50 -14 -101 -20t-105 -6q-141 0 -256.5 46.5t-197 128.5t-126 194 t-44.5 244zM488 597q0 -84 23.5 -152t67 -116t103.5 -74.5t134 -26.5q49 0 90 10l-113 243h274l48 -84q81 78 126 193.5t45 254.5q0 84 -23.5 152t-66.5 116t-103 74t-133 26q-99 0 -185 -47.5t-149.5 -130.5t-100.5 -195.5t-37 -242.5z" />
<glyph unicode="R" horiz-adv-x="1418" d="M100 0l307 1443h571q100 0 183 -30t143 -84.5t93 -129.5t33 -165q0 -80 -25 -154t-71 -136.5t-112.5 -110.5t-148.5 -75l198 -558h-325l-172 523h-258l-112 -523h-304zM563 755h264q66 0 120.5 18.5t93.5 52t60 79.5t21 102q0 92 -56 142t-157 50h-248z" />
<glyph unicode="S" horiz-adv-x="1362" d="M107 412h292q8 -47 34 -84.5t65.5 -64t90.5 -41t110 -14.5q61 0 111.5 13.5t86.5 38.5t56 60t20 77q0 31 -12 57t-37.5 48.5t-67 42t-99.5 37.5l-150 47q-80 25 -142.5 63.5t-105 88.5t-65 111t-22.5 131q0 99 43 183t119 144.5t180 95t226 34.5q119 0 218.5 -33 t171.5 -92t114 -141t45 -181h-285q-7 45 -30 82.5t-59 64t-83.5 41t-103.5 14.5q-53 0 -98.5 -13t-79 -36.5t-52.5 -56t-19 -70.5q0 -60 45.5 -105t148.5 -77l148 -46q92 -29 159 -66.5t111 -85.5t65 -107.5t21 -132.5q0 -107 -43.5 -195t-122.5 -150.5t-189.5 -96.5 t-244.5 -34q-123 0 -225 31t-176.5 88.5t-118 141t-50.5 188.5z" />
<glyph unicode="T" horiz-adv-x="1349" d="M270 1185l53 258h1168l-53 -258h-432l-254 -1185h-304l254 1185h-432z" />
<glyph unicode="U" horiz-adv-x="1564" d="M210 433q0 30 3 62t10 64l187 884h305l-186 -877q-11 -52 -11 -95v-7q2 -108 74.5 -169t201.5 -61q63 0 117 18.5t96.5 54t72 87.5t44.5 119l198 930h304l-211 -997q-24 -114 -78.5 -203.5t-136 -151.5t-188.5 -95t-236 -33q-133 0 -238 35t-177.5 98t-111.5 149t-39 188 z" />
<glyph unicode="V" horiz-adv-x="1477" d="M304 1443h321l101 -1101h18l554 1101h340l-787 -1443h-365z" />
<glyph unicode="W" horiz-adv-x="2067" d="M320 1443h302l16 -1017h16l482 1017h245l59 -1017h16l445 1017h311l-685 -1443h-291l-70 955h-16l-469 -955h-285z" />
<glyph unicode="X" horiz-adv-x="1494" d="M14 0l628 744l-309 699h340l211 -494h18l399 494h338l-635 -732l322 -711h-333l-221 485h-18l-409 -485h-331z" />
<glyph unicode="Y" horiz-adv-x="1451" d="M304 1443h316l196 -607h18l447 607h330l-697 -924l-110 -519h-304l114 531z" />
<glyph unicode="Z" horiz-adv-x="1384" d="M61 0l42 204l915 963l2 18h-689l53 258h1076l-42 -203l-913 -964l-2 -18h724l-53 -258h-1113z" />
<glyph unicode="[" horiz-adv-x="848" d="M66 -240l358 1684h575l-46 -223h-294l-267 -1239h307l-46 -222h-587z" />
<glyph unicode="\" horiz-adv-x="771" d="M284 1443h267l32 -1731h-266z" />
<glyph unicode="]" horiz-adv-x="848" d="M-51 -240l45 223h301l267 1239h-300l46 222h580l-358 -1684h-581z" />
<glyph unicode="^" horiz-adv-x="988" d="M156 823l438 602h256l181 -602h-250l-89 373h-18l-252 -373h-266z" />
<glyph unicode="_" horiz-adv-x="945" d="M-146 -334l46 227h949l-46 -227h-949z" />
<glyph unicode="`" horiz-adv-x="1071" d="M493 1634h303l212 -353h-265z" />
<glyph unicode="a" horiz-adv-x="1202" d="M83 284q0 84 33.5 151t96.5 115t154 75t207 31l274 9l15 68q3 15 4 23.5t1 16.5q0 57 -48.5 90.5t-133.5 33.5q-72 0 -121 -25t-71 -73h-275q18 75 61 136t106.5 103.5t145 65.5t175.5 23q101 0 183.5 -23.5t141.5 -66t91 -102.5t32 -133q0 -21 -2 -45t-7 -44l-151 -713 h-283l29 136h-18q-24 -35 -57.5 -63.5t-74 -48.5t-86.5 -30.5t-94 -10.5q-70 0 -130 23t-104 63t-69 95t-25 120zM369 326q0 -27 12 -50t34 -39.5t52.5 -25.5t66.5 -9q46 0 88.5 14t76.5 38.5t57.5 58t32.5 73.5l21 95l-228 -8q-100 -4 -156.5 -43t-56.5 -104z" />
<glyph unicode="b" horiz-adv-x="1340" d="M75 0l324 1524h291l-122 -575l19 1q55 81 137.5 126t194.5 45q83 0 152 -30t119 -85t78 -133t28 -174q0 -155 -42.5 -286t-116.5 -226.5t-174.5 -149.5t-215.5 -54q-58 0 -111.5 15.5t-97 44t-74.5 68.5t-45 89h-18l-43 -200h-283zM472 465q0 -57 15.5 -100.5t43.5 -73.5 t67 -45.5t85 -15.5q65 0 122 32t99 88t66 132.5t24 166.5q0 57 -15 100t-42 72t-65 44t-84 15q-66 0 -123.5 -33t-100 -89.5t-67.5 -132t-25 -160.5z" />
<glyph unicode="c" horiz-adv-x="1208" d="M133 441q0 147 44 272.5t124.5 217.5t192.5 144t248 52q101 0 182 -30.5t139.5 -80.5t92.5 -115.5t40 -134.5q2 -10 2 -21v-22h-276q-2 39 -18 69.5t-42.5 51.5t-62 32.5t-76.5 11.5q-66 0 -121 -33t-94.5 -90t-61.5 -134.5t-22 -167.5q0 -63 16 -109t44.5 -76.5 t66 -45.5t81.5 -15q82 0 141 40t84 116h279q-14 -83 -56.5 -155.5t-109.5 -126t-156.5 -84.5t-198.5 -31q-110 0 -199 33t-152 93.5t-97 146.5t-34 192z" />
<glyph unicode="d" horiz-adv-x="1342" d="M129 413q0 154 43 283.5t118.5 224t177.5 147.5t220 53q61 0 112.5 -15.5t92 -43.5t68 -65.5t40.5 -81.5h18l130 609h292l-323 -1524h-283l32 153h-18q-57 -78 -142 -124t-196 -46q-82 0 -152 29.5t-121 85t-80 135t-29 180.5zM431 463q0 -56 16 -100.5t44.5 -75.5 t66.5 -47.5t83 -16.5q66 0 123.5 33t100 90t67 132.5t24.5 160.5q0 57 -15.5 100.5t-44 73.5t-67.5 45.5t-85 15.5q-65 0 -122 -31t-99.5 -86t-67 -130.5t-24.5 -163.5z" />
<glyph unicode="e" horiz-adv-x="1251" d="M136 450q0 151 43.5 276t122.5 214t189 138t242 49q99 0 184 -32.5t147.5 -92.5t98 -145.5t35.5 -191.5q0 -17 -1.5 -40t-3.5 -47.5t-5.5 -49t-6.5 -43.5h-770q0 -6 -0.5 -15.5t-0.5 -15.5q0 -64 18.5 -111t50.5 -78t74 -46.5t89 -15.5q85 0 139 31t79 83h280 q-19 -76 -63.5 -139t-111 -108t-153 -69.5t-188.5 -24.5q-107 0 -196.5 32t-154.5 93t-101 149t-36 200zM443 669h479q1 5 2 16.5t1 21.5q0 41 -14 77t-40 62.5t-64 41.5t-86 15q-50 0 -94.5 -17t-80.5 -47.5t-62.5 -74t-40.5 -95.5z" />
<glyph unicode="f" horiz-adv-x="836" d="M153 0l184 863h-174l47 229h171l25 126q31 157 130 227t273 70q59 0 106 -7.5t76 -14.5l-42 -205q-16 5 -43 8t-69 3q-60 0 -97.5 -29t-50.5 -89l-18 -89h230l-47 -229h-224l-184 -863h-293z" />
<glyph unicode="g" horiz-adv-x="1327" d="M33 -83h290q5 -54 64 -88.5t162 -34.5q115 0 179.5 50t84.5 138l44 194l-18 1q-54 -77 -136.5 -116t-188.5 -39q-83 0 -152.5 30t-120.5 84.5t-79.5 131.5t-28.5 170q0 145 42.5 270t116 216.5t173 144t214.5 52.5q57 0 109 -15t94.5 -42.5t73.5 -66.5t46 -86h17l42 192 h284l-246 -1147q-18 -87 -65.5 -156t-120.5 -117.5t-169.5 -74t-213.5 -25.5q-112 0 -203.5 25.5t-157 70t-101 105.5t-35.5 133zM432 476q0 -55 14.5 -99.5t42 -75.5t66 -47.5t86.5 -16.5q64 0 120 30.5t98 84.5t66 127.5t24 159.5q0 54 -15 97t-43 74t-67.5 47.5 t-88.5 16.5q-65 0 -120.5 -29.5t-96 -82.5t-63.5 -126t-23 -160z" />
<glyph unicode="h" horiz-adv-x="1321" d="M75 0l323 1515h292l-125 -578h18q25 40 59 74.5t77 59.5t94.5 39t112.5 14q79 0 142.5 -24.5t108 -67.5t68.5 -100.5t24 -124.5q0 -58 -14 -131l-142 -676h-291l132 628q5 22 7.5 42.5t2.5 41.5q0 39 -14.5 71t-40 54t-61 34t-77.5 12q-50 0 -93.5 -16.5t-78 -46.5 t-58.5 -71t-34 -90l-140 -659h-292z" />
<glyph unicode="i" horiz-adv-x="599" d="M78 0l235 1103h293l-235 -1103h-293zM352 1400q0 32 12 59.5t34.5 48t54.5 32t71 11.5t70.5 -11t54 -30t35 -45t12.5 -56q0 -32 -12.5 -59.5t-35 -48t-54 -32.5t-70.5 -12t-71 11t-54.5 30t-34.5 45.5t-12 56.5z" />
<glyph unicode="j" horiz-adv-x="599" d="M-182 -362l48 226q13 -3 30 -4.5t33 -1.5q63 0 97 29t48 91l240 1125h291l-247 -1158q-33 -156 -138.5 -237t-270.5 -82q-14 0 -31 1t-35 2.5t-35 4t-30 4.5zM352 1400q0 32 12 59.5t34.5 48t54.5 32t71 11.5t70.5 -11t54 -30t35 -45t12.5 -56q0 -32 -12.5 -59.5t-35 -48 t-54 -32.5t-70.5 -12t-71 11t-54.5 30t-34.5 45.5t-12 56.5z" />
<glyph unicode="k" horiz-adv-x="1210" d="M75 0l324 1524h291l-177 -834h18l448 413h340l-529 -482l328 -621h-321l-242 457l-110 -94l-78 -363h-292z" />
<glyph unicode="l" horiz-adv-x="593" d="M75 0l324 1524h293l-324 -1524h-293z" />
<glyph unicode="m" horiz-adv-x="1893" d="M67 0l236 1112h282l-39 -182h18q25 45 59.5 81t75 62t86 40t94.5 14q58 0 105.5 -16t83.5 -43.5t60 -63.5t35 -75h18q57 91 144 144.5t211 53.5q67 0 124 -23t97.5 -64t63.5 -97t23 -122q0 -62 -15 -132l-145 -689h-291l136 645q5 23 7.5 43.5t2.5 40.5q0 34 -10.5 62 t-31 48.5t-49 32t-64.5 11.5q-39 0 -75 -14.5t-66 -41.5t-52 -66.5t-32 -89.5l-142 -671h-282l136 645q10 44 10 84q0 34 -10.5 62t-31 48.5t-49 32t-64.5 11.5q-39 0 -74.5 -14.5t-65.5 -41.5t-52 -65.5t-32 -86.5l-143 -675h-292z" />
<glyph unicode="n" horiz-adv-x="1305" d="M67 0l236 1112h282l-37 -175h18q26 42 61.5 77t79.5 60t96 39t111 14q77 0 139.5 -24.5t107 -67.5t68.5 -101.5t24 -126.5q0 -58 -14 -131l-142 -676h-291l132 628q10 46 10 84t-13.5 69.5t-38.5 54t-59.5 35t-77.5 12.5q-49 0 -91.5 -16.5t-76.5 -46.5t-58 -71t-34 -90 l-140 -659h-292z" />
<glyph unicode="o" horiz-adv-x="1298" d="M135 458q0 93 20.5 178.5t58.5 160t93 135.5t124.5 104.5t151.5 67t175 23.5q111 0 201.5 -35t154.5 -98.5t99 -152.5t35 -197q0 -137 -44.5 -258.5t-126 -212.5t-196 -144t-253.5 -53q-111 0 -202 34.5t-155.5 98t-100 152.5t-35.5 197zM438 467q0 -57 14 -103.5 t40.5 -79.5t65 -51t87.5 -18q59 0 113 32t95 87.5t65.5 131t24.5 162.5q0 124 -53 192.5t-148 68.5q-67 0 -123 -33t-96 -90t-62.5 -134t-22.5 -165z" />
<glyph unicode="p" horiz-adv-x="1334" d="M-5 -345l309 1448h283l-33 -153h18q57 78 143 124.5t197 46.5q83 0 152.5 -30t119.5 -85t78 -133t28 -174q0 -155 -42.5 -286t-117 -226.5t-176 -149.5t-218.5 -54q-60 0 -111.5 16t-91.5 44.5t-68.5 68.5t-41.5 88h-18l-118 -545h-292zM466 465q0 -57 15.5 -100.5 t43.5 -73.5t67 -45.5t85 -15.5q65 0 122 32t99 88t66 132.5t24 166.5q0 57 -15 100t-42 72t-65 44t-84 15q-66 0 -123.5 -33t-100 -89.5t-67.5 -132t-25 -160.5z" />
<glyph unicode="q" horiz-adv-x="1336" d="M129 411q0 153 43 283t118 225t176.5 148.5t218.5 53.5q62 0 115.5 -16t96 -44t72 -65.5t43.5 -80.5h18l40 188h283l-308 -1448h-291l106 498h-17q-59 -80 -142 -125t-195 -45q-83 0 -152 30t-119 86t-78 135t-28 177zM431 461q0 -58 15 -102.5t42 -74.5t65 -45.5 t84 -15.5q66 0 123.5 33t100 90t67.5 132.5t25 160.5q0 57 -15.5 100.5t-43.5 73.5t-67 45.5t-85 15.5q-65 0 -122 -31.5t-99 -87t-66 -131t-24 -163.5z" />
<glyph unicode="r" horiz-adv-x="908" d="M63 0l235 1103h283l-31 -152h18q45 82 115 126t159 44q42 0 78.5 -6t62.5 -18l-57 -268q-34 14 -81 22t-87 8q-218 0 -272 -251l-131 -608h-292z" />
<glyph unicode="s" horiz-adv-x="1150" d="M82 318h281q12 -57 67 -93t138 -36q85 0 136.5 31.5t51.5 85.5q0 35 -24.5 60t-88.5 46l-172 60q-132 45 -196 117t-64 181q0 81 33.5 147t93.5 112.5t144 72t186 25.5q100 0 182 -23.5t141 -66.5t93.5 -103.5t39.5 -134.5h-267q-11 53 -62 84t-127 31q-39 0 -71 -8.5 t-55.5 -23.5t-36.5 -36t-13 -46q0 -37 29.5 -62.5t92.5 -46.5l179 -63q134 -47 194.5 -115.5t60.5 -174.5q0 -81 -35 -147.5t-98.5 -114.5t-152 -74t-195.5 -26q-106 0 -194 24.5t-151.5 69.5t-100 108t-39.5 140z" />
<glyph unicode="t" horiz-adv-x="846" d="M162 854l47 230h175l56 267h293l-57 -267h235l-48 -230h-234l-104 -479q-8 -37 -8 -64q0 -53 38.5 -75.5t113.5 -22.5q31 0 52 3l-46 -222q-23 -4 -50.5 -6t-56.5 -2q-177 0 -267.5 60t-90.5 175q0 43 11 96l116 537h-175z" />
<glyph unicode="u" horiz-adv-x="1305" d="M139 298q0 26 4 64.5t11 76.5l139 664h293l-131 -616q-5 -21 -7.5 -45.5t-2.5 -40.5q0 -86 47.5 -129.5t136.5 -43.5q50 0 93 16.5t77.5 47t58.5 73t35 94.5l137 644h292l-233 -1103h-283l36 167h-18q-50 -88 -138.5 -139.5t-204.5 -51.5q-75 0 -138 23t-108.5 65 t-70.5 101.5t-25 132.5z" />
<glyph unicode="v" horiz-adv-x="1184" d="M211 1103h294l63 -807h18l394 807h312l-611 -1103h-331z" />
<glyph unicode="w" horiz-adv-x="1735" d="M220 1103h284l5 -787h18l355 787h283l25 -791h18l334 791h291l-527 -1103h-312l-35 758h-18l-355 -758h-306z" />
<glyph unicode="x" horiz-adv-x="1191" d="M-8 0l463 552l-231 551h318l129 -358h18l270 358h325l-466 -554l235 -549h-307l-140 354h-18l-277 -354h-319z" />
<glyph unicode="y" horiz-adv-x="1208" d="M-1 -398l46 235q4 -1 14 -2t22 -2t24 -1.5t21 -0.5q73 0 126 28t85 94l22 44l-144 1106h297l64 -822h18l405 822h312l-630 -1143q-54 -101 -110.5 -170.5t-122.5 -112.5t-144 -61.5t-173 -18.5q-9 0 -29 0.5t-41 1.5t-39 2t-23 1z" />
<glyph unicode="z" horiz-adv-x="1160" d="M46 0l35 172l689 681l2 18h-532l49 232h898l-41 -192l-652 -661l-1 -18h519l-48 -232h-918z" />
<glyph unicode="{" horiz-adv-x="926" d="M151 472l57 277q47 0 81.5 10.5t59.5 35t42.5 64t29.5 98.5l43 194q21 102 63 172t105.5 113.5t150 62.5t197.5 19h99l-45 -220h-45q-57 0 -100 -11t-74 -35t-51.5 -63t-32.5 -96l-52 -237q-24 -113 -86.5 -170t-171.5 -67l-4 -18q78 -11 120.5 -55.5t42.5 -119.5 q0 -38 -9 -81l-57 -260q-5 -25 -8 -46t-3 -39q0 -66 42.5 -94t138.5 -28h45l-45 -216h-98q-87 0 -156 18.5t-117.5 52t-74 81t-25.5 105.5q0 57 15 128l48 218q12 57 12 96q0 61 -32.5 86t-104.5 25z" />
<glyph unicode="|" horiz-adv-x="749" d="M104 -289l369 1732h267l-369 -1732h-267z" />
<glyph unicode="}" horiz-adv-x="926" d="M-53 -338l46 219h45q57 0 100 11t74 35t51.5 63t32.5 96l52 237q24 114 86.5 170.5t171.5 67.5l4 18q-78 11 -120.5 55t-42.5 119q0 37 9 82l57 259q11 52 11 85q0 67 -42.5 94.5t-138.5 27.5h-45l45 217h98q87 0 156 -18.5t117.5 -52.5t74 -81.5t25.5 -105.5t-15 -127 l-48 -219q-12 -56 -12 -95q0 -62 32.5 -86.5t104.5 -24.5l-57 -277q-47 0 -81.5 -10.5t-59.5 -35t-42.5 -64.5t-29.5 -98l-43 -194q-21 -102 -63 -172t-105.5 -113.5t-150 -62.5t-197.5 -19h-100z" />
<glyph unicode="~" horiz-adv-x="1225" d="M36 555q16 103 48.5 181t78.5 130t103.5 78.5t123.5 26.5q52 0 92 -17.5t72 -43.5t59 -56.5t51.5 -56.5t49 -43.5t53.5 -17.5q95 0 126 160h230q-32 -208 -122.5 -312.5t-227.5 -104.5q-52 0 -92.5 17.5t-73 43.5t-59 56.5t-51.5 56.5t-50.5 43.5t-55.5 17.5 q-48 0 -78.5 -39t-47.5 -120h-229z" />
<glyph unicode="&#xa1;" horiz-adv-x="729" d="M57 -322l233 969h267l-180 -969h-320zM318 977q0 37 12.5 69.5t36 55.5t57 36.5t75.5 13.5t75.5 -13t57 -35.5t36 -52.5t12.5 -64q0 -38 -12.5 -70t-36 -55.5t-57 -37t-75.5 -13.5t-75.5 13t-57 35.5t-36 53t-12.5 64.5z" />
<glyph unicode="&#xa2;" d="M261 595q0 138 39 257t110 210t171.5 148t222.5 70l36 169h242l-41 -192q63 -21 113.5 -56t86.5 -79.5t57 -95.5t26 -104q1 -10 1.5 -21t0.5 -22h-276q-2 39 -18 69.5t-42.5 51.5t-62 32.5t-76.5 11.5q-67 0 -122 -33t-94.5 -91t-61 -135.5t-21.5 -167.5q0 -63 16 -109.5 t44.5 -77t66 -46t81.5 -15.5q82 0 140.5 40t84.5 116h278q-13 -77 -50.5 -145t-97 -120.5t-138.5 -86t-175 -42.5l-38 -183h-242l43 208q-70 22 -126.5 63t-96 97t-60.5 126.5t-21 152.5z" />
<glyph unicode="&#xa3;" d="M82 6l53 256q66 4 130.5 29t116.5 68.5t87 104t42 135.5q0 16 -3 39h-310l43 213h255q-6 47 -12 92t-6 87q0 103 36.5 186.5t107 142t174 90t237.5 31.5q61 0 123.5 -7t119 -18t103 -25t75.5 -27l-50 -239q-23 13 -59 25t-79 21t-90.5 14.5t-93.5 5.5q-69 0 -125.5 -14.5 t-97 -44.5t-63 -76t-22.5 -110q0 -30 2.5 -64.5t6.5 -69.5h385l-43 -213h-326q0 -7 0.5 -13.5t0.5 -12.5q-5 -134 -69 -216t-171 -115l-3 -18h702l-53 -257h-1124z" />
<glyph unicode="&#xa4;" d="M127 276l214 178q-43 91 -43 194q0 73 21.5 139t59.5 122l-100 125l198 169l103 -131q39 16 81 24.5t87 8.5q76 0 144.5 -24t125.5 -68l218 181l132 -174l-212 -177q20 -45 31.5 -93.5t11.5 -101.5q0 -72 -21.5 -138t-59.5 -122l99 -125l-199 -169l-102 131 q-39 -16 -81 -24.5t-87 -8.5q-76 0 -144.5 24t-125.5 67l-218 -181zM514 648q0 -47 18.5 -89.5t50.5 -74t74.5 -50t90.5 -18.5t90.5 18.5t75 50t51 74t18.5 89.5q0 48 -18.5 90t-51 74t-75 50.5t-90.5 18.5t-90.5 -18.5t-74.5 -50.5t-50.5 -74t-18.5 -90z" />
<glyph unicode="&#xa5;" d="M255 206l36 169h271l29 133h-272l36 169h196l-265 766h316l196 -607h18l447 607h330l-581 -766h187l-36 -169h-269l-29 -133h270l-36 -169h-269l-44 -206h-304l45 206h-272z" />
<glyph unicode="&#xa6;" horiz-adv-x="749" d="M104 -289l142 669h267l-142 -669h-267zM331 773l142 670h267l-142 -670h-267z" />
<glyph unicode="&#xa7;" horiz-adv-x="1032" d="M15 54h252q4 -28 19 -52t38.5 -41.5t54.5 -27.5t68 -10q38 0 70 9.5t55.5 26.5t36.5 40t13 50q0 38 -22.5 68.5t-79.5 53.5l-167 80q-111 51 -170.5 122t-59.5 170q0 55 19 102t54.5 84.5t85 64t110.5 39.5l2 19q-39 27 -67 53t-45.5 54.5t-25.5 60.5t-8 70 q0 76 32 139.5t89.5 109t136.5 70.5t172 25q90 0 165 -24t129.5 -68.5t87 -107.5t38.5 -141h-249q-7 60 -54.5 94.5t-118.5 34.5q-36 0 -66 -9t-51.5 -25.5t-34 -38.5t-12.5 -49q0 -74 110 -121l152 -77q118 -56 178 -126t60 -168q0 -53 -18.5 -100.5t-53 -86.5t-83.5 -66.5 t-110 -40.5l-2 -16q39 -27 66 -53.5t44 -55t24.5 -60t7.5 -68.5q0 -77 -33 -141t-92 -110t-140 -72t-177 -26q-90 0 -167.5 24.5t-135 69t-91.5 107.5t-36 141zM383 592q0 -39 28.5 -73t85.5 -60l106 -53q67 17 108.5 58t41.5 94q0 37 -24.5 72t-81.5 60l-104 52 q-34 -7 -63.5 -21t-51 -33.5t-33.5 -44t-12 -51.5z" />
<glyph unicode="&#xa8;" horiz-adv-x="1071" d="M372 1419q0 33 11.5 60.5t32.5 48t49.5 31.5t62.5 11q33 0 61.5 -11t49.5 -31.5t32.5 -48t11.5 -60.5t-11.5 -61t-32.5 -48t-49.5 -31.5t-61.5 -11.5q-34 0 -62.5 11.5t-49.5 31.5t-32.5 48t-11.5 61zM840 1419q0 33 11.5 60.5t32.5 48t49.5 31.5t61.5 11q34 0 62.5 -11 t49.5 -31.5t32.5 -48t11.5 -60.5t-11.5 -61t-32.5 -48t-49.5 -31.5t-62.5 -11.5q-33 0 -61.5 11.5t-49.5 31.5t-32.5 48t-11.5 61z" />
<glyph unicode="&#xa9;" horiz-adv-x="1743" d="M155 603q0 117 29.5 224.5t84 200.5t131.5 169t170.5 130t202 83.5t226.5 29.5q161 0 298.5 -56t238.5 -154.5t158 -233.5t57 -293q0 -117 -29.5 -224.5t-84 -200.5t-131.5 -169.5t-171 -130.5t-202.5 -83.5t-226.5 -29.5q-106 0 -203 25.5t-180.5 73t-151 114 t-116 148.5t-74.5 177.5t-26 199.5zM320 611q0 -125 45 -232t124.5 -185.5t188.5 -123t236 -44.5q93 0 178.5 24t160 67.5t136 105t105 135.5t67.5 159.5t24 177.5q0 126 -44.5 233t-124 185t-188.5 122t-237 44q-92 0 -177.5 -24t-160.5 -67.5t-136 -104.5t-105 -135.5 t-68 -159.5t-24 -177zM587 598q0 98 31 181.5t85.5 144t129.5 95t164 34.5q72 0 132 -22t102.5 -61t65 -93t20.5 -118h-187q-1 61 -39.5 97t-100.5 36q-45 0 -84 -22.5t-67.5 -62t-44.5 -93t-16 -115.5q0 -85 39 -131.5t110 -46.5q109 0 151 95h193q-15 -60 -47 -107.5 t-77.5 -81t-103 -51t-124.5 -17.5q-74 0 -135.5 24.5t-105 69t-67.5 107t-24 138.5z" />
<glyph unicode="&#xaa;" horiz-adv-x="1030" d="M180 762q0 71 27 127t78 95.5t124.5 61t166.5 23.5l233 5q1 4 2.5 12t3.5 16t4 15t2 9q4 19 5 25t0 11q1 45 -36 71t-100 26q-53 0 -90 -19t-53 -54h-252q35 135 139.5 206.5t264.5 71.5q88 0 160 -20.5t123 -58t79 -90t28 -117.5q0 -17 -1.5 -35.5t-5.5 -36.5l-126 -590 h-257l21 104l-17 1q-40 -56 -104.5 -87t-139.5 -31q-62 0 -113 19t-88 53t-57.5 82t-20.5 105zM443 798q0 -45 35.5 -72.5t92.5 -27.5q34 0 65.5 10.5t56.5 29.5t42.5 46t24.5 59l16 74l-167 -5q-78 -3 -122 -33t-44 -81z" />
<glyph unicode="&#xab;" horiz-adv-x="1447" d="M188 562l2 8l417 411h298l-437 -425l-2 -11l247 -394h-264zM699 562l2 8l427 411h288l-442 -431l-2 -10l252 -389h-264z" />
<glyph unicode="&#xac;" d="M208 455l53 258h1045l-137 -654h-255l84 396h-790z" />
<glyph unicode="&#xad;" horiz-adv-x="992" d="M188 446l57 273h657l-57 -273h-657z" />
<glyph unicode="&#xae;" horiz-adv-x="1261" d="M216 897q0 109 41.5 205t113 167t168 112t207.5 41q114 0 211.5 -39.5t168 -109.5t110.5 -166t40 -210q0 -110 -41.5 -205.5t-113 -166.5t-168 -112t-207.5 -41q-114 0 -211.5 39.5t-168 109.5t-110.5 166t-40 210zM349 897q0 -86 29.5 -158.5t82 -125t125 -82 t158.5 -29.5q83 0 155.5 31t126.5 84.5t85.5 125.5t31.5 154q0 87 -29.5 159.5t-82.5 125t-125.5 81.5t-159.5 29q-83 0 -155.5 -31t-126 -84t-84.5 -125.5t-31 -154.5zM488 664l103 487h248q33 0 62 -11.5t50 -31.5t33 -46.5t12 -56.5q0 -63 -38 -106t-99 -58l84 -177h-144 l-75 165h-76l-35 -165h-125zM669 925h103q42 0 65 17.5t23 50.5q0 24 -16.5 39t-49.5 15h-99z" />
<glyph unicode="&#xaf;" horiz-adv-x="1071" d="M372 1316l38 180h735l-38 -180h-735z" />
<glyph unicode="&#xb0;" horiz-adv-x="806" d="M277 1178q0 63 23.5 118t64.5 96t95.5 65t117.5 24t118 -24t96 -65t64.5 -96t23.5 -118t-23.5 -118.5t-64.5 -96.5t-96 -65t-118 -24t-117.5 24t-95.5 65t-64.5 96.5t-23.5 118.5zM444 1178q0 -27 11 -51t29 -42t42.5 -28.5t51.5 -10.5q28 0 52.5 10.5t43 28.5t29 42 t10.5 51t-10.5 51t-29 42t-43 28.5t-52.5 10.5q-27 0 -51.5 -10.5t-42.5 -28.5t-29 -42t-11 -51z" />
<glyph unicode="&#xb1;" d="M149 71l46 225h997l-46 -225h-997zM272 650l46 224h373l52 234h251l-51 -234h374l-46 -224h-374l-51 -234h-252l51 234h-373z" />
<glyph unicode="&#xb2;" horiz-adv-x="917" d="M221 896l40 192l322 233q66 47 109.5 81.5t69 61t35.5 48.5t10 44q0 40 -28 64t-74 24q-51 0 -86.5 -31t-46.5 -85v-1h-241q4 70 36 129.5t85 102.5t123.5 67t153.5 24q75 0 137.5 -20t107 -55.5t69.5 -85t25 -109.5q0 -42 -12.5 -80t-42 -77t-77.5 -81.5t-118 -92.5 q-9 -6 -35.5 -25t-57 -40.5t-59 -40.5t-40.5 -26l-2 -12h360l-43 -209h-720z" />
<glyph unicode="&#xb3;" horiz-adv-x="944" d="M258 1201h249q-4 -51 30 -83t91 -32q59 0 94.5 30t35.5 80q0 39 -33 64.5t-84 25.5h-99l37 178h113q59 0 96 28t37 73q0 38 -30 61.5t-79 23.5q-45 0 -78 -22.5t-47 -61.5h-241q13 65 46.5 117.5t84.5 89.5t116.5 57t141.5 20q75 0 137.5 -19t108 -52.5t71 -80 t25.5 -101.5q0 -45 -17 -84.5t-47 -69.5t-71 -49t-89 -22l-1 -13q79 -18 121 -68t42 -126q0 -65 -28.5 -119.5t-80 -93.5t-123.5 -60.5t-158 -21.5q-87 0 -159.5 25.5t-122 69.5t-74 104.5t-15.5 131.5z" />
<glyph unicode="&#xb4;" horiz-adv-x="1071" d="M453 1281l323 353h310l-361 -353h-272z" />
<glyph unicode="&#xb6;" horiz-adv-x="1538" d="M288 880q0 122 43 223.5t122 175.5t190 116.5t247 46.5l290 1l-362 -1702h-280l155 719q-93 9 -168 44t-127.5 90.5t-81 128t-28.5 157.5zM987 -259l361 1702h280l-361 -1702h-280z" />
<glyph unicode="&#xb7;" horiz-adv-x="723" d="M260 728q0 40 12.5 73.5t36.5 58t58 38.5t76 14t76 -13.5t57.5 -37t36 -55t12.5 -67.5q0 -40 -12.5 -73.5t-36 -58t-57.5 -38.5t-76 -14t-76 13.5t-58 37t-36.5 55t-12.5 67.5z" />
<glyph unicode="&#xb8;" horiz-adv-x="1071" d="M155 -457l28 133q13 -6 31 -10.5t37 -8.5t38 -6t36 -2q44 0 68 15t24 43q0 61 -116 61h-57l17 116l96 146h184l-96 -147q159 -26 159 -164q0 -48 -19 -87t-53.5 -67t-83 -43t-107.5 -15q-49 0 -99.5 9.5t-86.5 26.5z" />
<glyph unicode="&#xb9;" horiz-adv-x="759" d="M313 1431l49 238l266 155h268l-197 -928h-268l146 680h-13z" />
<glyph unicode="&#xba;" horiz-adv-x="1106" d="M215 913q0 120 39.5 222.5t109.5 176.5t166.5 116t209.5 42q97 0 174.5 -29.5t131.5 -85.5t82.5 -136t28.5 -180q0 -120 -39 -221.5t-108.5 -175t-165.5 -115t-209 -41.5q-97 0 -175 29.5t-132.5 85t-83.5 134.5t-29 178zM491 914q0 -98 41 -152.5t115 -54.5 q48 0 91 26.5t74.5 72.5t50 107.5t18.5 131.5q0 96 -41.5 150.5t-113.5 54.5q-49 0 -92 -26.5t-74.5 -72t-50 -107t-18.5 -130.5z" />
<glyph unicode="&#xbb;" horiz-adv-x="1448" d="M123 151l441 430l2 11l-252 389h264l262 -411l-2 -8l-427 -411h-288zM635 151l437 425l2 10l-247 395h264l261 -411l-2 -8l-417 -411h-298z" />
<glyph unicode="&#xbc;" horiz-adv-x="2292" d="M331 1050l49 238l266 155h268l-197 -928h-268l146 680h-13zM536 0l552 756l455 687h276l-556 -749l-450 -694h-277zM1333 136l45 239q44 61 91.5 122.5t102 127.5t118 140.5t140.5 162.5h382l-124 -581h111l-44 -211h-111l-29 -136h-252l29 136h-459zM1602 337h239 l87 402h-13q-38 -44 -71 -82.5t-68 -82.5t-76 -97.5t-95 -127.5z" />
<glyph unicode="&#xbd;" horiz-adv-x="2287" d="M331 1050l49 238l266 155h268l-197 -928h-268l146 680h-13zM536 0l552 756l455 687h276l-556 -749l-450 -694h-277zM1404 0l40 192l322 233q66 47 109.5 81.5t69 61t35.5 48.5t10 44q0 40 -28 64t-74 24q-51 0 -86.5 -31t-46.5 -85v-1h-241q4 70 36 129.5t85 102.5 t123.5 67t153.5 24q75 0 137.5 -20t107 -55.5t69.5 -85t25 -109.5q0 -42 -12.5 -80t-42 -77t-77.5 -81.5t-118 -92.5q-9 -6 -35.5 -25t-57 -40.5t-59 -40.5t-40.5 -26l-2 -12h360l-43 -209h-720z" />
<glyph unicode="&#xbe;" horiz-adv-x="2426" d="M232 820h249q-4 -51 30 -83t91 -32q59 0 94.5 30t35.5 80q0 39 -33 64.5t-84 25.5h-99l37 178h113q59 0 96 28t37 73q0 38 -30 61.5t-79 23.5q-45 0 -78 -22.5t-47 -61.5h-241q13 65 46.5 117.5t84.5 89.5t116.5 57t141.5 20q75 0 137.5 -19t108 -52.5t71 -80 t25.5 -101.5q0 -45 -17 -84.5t-47 -69.5t-71 -49t-89 -22l-1 -13q79 -18 121 -68t42 -126q0 -65 -28.5 -119.5t-80 -93.5t-123.5 -60.5t-158 -21.5q-87 0 -159.5 25.5t-122 69.5t-74 104.5t-15.5 131.5zM669 0l552 756l455 687h276l-556 -749l-450 -694h-277zM1466 136 l45 239q44 61 91.5 122.5t102 127.5t118 140.5t140.5 162.5h382l-124 -581h111l-44 -211h-111l-29 -136h-252l29 136h-459zM1735 337h239l87 402h-13q-38 -44 -71 -82.5t-68 -82.5t-76 -97.5t-95 -127.5z" />
<glyph unicode="&#xbf;" horiz-adv-x="1140" d="M30 26q0 63 19 121.5t55.5 109.5t89 93t120.5 72q55 25 93.5 47t64 45.5t39.5 50.5t21 63l9 43h270l-12 -63q-11 -67 -30 -116.5t-49 -87t-72 -66t-100 -53.5q-61 -28 -102.5 -55t-67.5 -55t-37.5 -59t-11.5 -66q0 -30 12.5 -56.5t35.5 -46t57 -30.5t78 -11 q78 0 135 43.5t78 119.5h273q-13 -89 -53 -163t-104.5 -127t-151 -83t-191.5 -30q-107 0 -193 27t-147.5 75t-94.5 114t-33 144zM552 972q0 37 13.5 70t37.5 57.5t58 38.5t75 14t75 -12t58.5 -33.5t38 -51.5t13.5 -66q0 -39 -13.5 -72t-38 -57t-58.5 -37.5t-75 -13.5 q-39 0 -73 12t-58.5 33.5t-38.5 51.5t-14 66z" />
<glyph unicode="&#xc0;" horiz-adv-x="1501" d="M-3 0l820 1443h349l187 -1443h-311l-35 344h-509l-186 -344h-315zM612 577h381l-58 565h-19zM676 1908h306l177 -318h-266z" />
<glyph unicode="&#xc1;" horiz-adv-x="1501" d="M-3 0l820 1443h349l187 -1443h-311l-35 344h-509l-186 -344h-315zM612 577h381l-58 565h-19zM875 1590l343 318h315l-381 -318h-277z" />
<glyph unicode="&#xc2;" horiz-adv-x="1501" d="M-3 0l820 1443h349l187 -1443h-311l-35 344h-509l-186 -344h-315zM607 1590l328 335h291l187 -335h-249l-92 191h-18l-172 -191h-275zM612 577h381l-58 565h-19z" />
<glyph unicode="&#xc3;" horiz-adv-x="1501" d="M-3 0l820 1443h349l187 -1443h-311l-35 344h-509l-186 -344h-315zM612 577h381l-58 565h-19zM629 1618q9 65 32.5 116.5t59 87t81 54.5t96.5 19q61 0 104 -22.5t76.5 -49.5t62.5 -49.5t61 -22.5q40 0 65 24.5t33 79.5h181q-9 -65 -33 -116.5t-59 -87t-80.5 -54.5 t-96.5 -19q-61 0 -104 22.5t-77 49.5t-62.5 49.5t-61.5 22.5q-39 0 -64 -24.5t-33 -79.5h-181z" />
<glyph unicode="&#xc4;" horiz-adv-x="1501" d="M-3 0l820 1443h349l187 -1443h-311l-35 344h-509l-186 -344h-315zM612 577h381l-58 565h-19zM663 1731q0 33 11.5 60.5t32.5 48t49.5 31.5t62.5 11q33 0 61.5 -11t49.5 -31.5t32.5 -48t11.5 -60.5t-11.5 -61t-32.5 -48t-49.5 -31.5t-61.5 -11.5q-34 0 -62.5 11.5 t-49.5 31.5t-32.5 48t-11.5 61zM1131 1731q0 33 11.5 60.5t32.5 48t49.5 31.5t61.5 11q34 0 62.5 -11t49.5 -31.5t32.5 -48t11.5 -60.5t-11.5 -61t-32.5 -48t-49.5 -31.5t-62.5 -11.5q-33 0 -61.5 11.5t-49.5 31.5t-32.5 48t-11.5 61z" />
<glyph unicode="&#xc5;" horiz-adv-x="1501" d="M-3 0l820 1443h349l187 -1443h-311l-35 344h-509l-186 -344h-315zM612 577h381l-58 565h-19zM826 1819q0 51 18.5 95t51.5 75.5t78 49.5t98 18q52 0 97 -18t78 -49.5t51.5 -75.5t18.5 -95q0 -52 -18.5 -96t-51.5 -76.5t-78 -50.5t-97 -18q-53 0 -98 18t-78 50.5 t-51.5 76.5t-18.5 96zM966 1818q0 -46 29.5 -75t75.5 -29q47 0 76.5 29.5t29.5 74.5t-30 74t-76 29t-75.5 -29t-29.5 -74z" />
<glyph unicode="&#xc6;" horiz-adv-x="2059" d="M-4 0l903 1443h1259l-54 -258h-650l-75 -341h614l-50 -239h-613l-77 -347h650l-52 -258h-929l80 364h-465l-234 -364h-307zM671 598h379l130 604h-130z" />
<glyph unicode="&#xc7;" horiz-adv-x="1534" d="M180 568q0 200 59 367.5t165 288.5t251 188.5t318 67.5q124 0 230.5 -38.5t184.5 -106.5t122.5 -160.5t44.5 -199.5v-21.5t-2 -21.5h-294v14q-3 60 -26 109t-63 84t-95 54t-121 19q-98 0 -183 -47.5t-147.5 -131t-98.5 -197.5t-36 -247q0 -83 22 -149.5t63 -113t99 -71.5 t131 -25q61 0 117.5 16.5t102.5 47.5t80 74t52 96h299q-22 -104 -73.5 -190.5t-128 -150.5t-174.5 -104t-212 -52l-57 -87q159 -26 159 -164q0 -48 -19 -87t-53.5 -67t-83 -43t-107.5 -15q-49 0 -99.5 9.5t-86.5 26.5l28 133q13 -6 31 -10.5t37 -8.5t38 -6t36 -2q44 0 68 15 t24 43q0 61 -116 61h-57l17 116l58 88q-116 14 -209 62.5t-158.5 126t-101 181.5t-35.5 229z" />
<glyph unicode="&#xc8;" horiz-adv-x="1274" d="M100 0l307 1443h956l-53 -258h-652l-75 -337h616l-50 -239h-615l-78 -351h653l-52 -258h-957zM570 1908h306l177 -318h-266z" />
<glyph unicode="&#xc9;" horiz-adv-x="1274" d="M100 0l307 1443h956l-53 -258h-652l-75 -337h616l-50 -239h-615l-78 -351h653l-52 -258h-957zM769 1590l343 318h315l-381 -318h-277z" />
<glyph unicode="&#xca;" horiz-adv-x="1274" d="M100 0l307 1443h956l-53 -258h-652l-75 -337h616l-50 -239h-615l-78 -351h653l-52 -258h-957zM501 1590l328 335h291l187 -335h-249l-92 191h-18l-172 -191h-275z" />
<glyph unicode="&#xcb;" horiz-adv-x="1274" d="M100 0l307 1443h956l-53 -258h-652l-75 -337h616l-50 -239h-615l-78 -351h653l-52 -258h-957zM557 1731q0 33 11.5 60.5t32.5 48t49.5 31.5t62.5 11q33 0 61.5 -11t49.5 -31.5t32.5 -48t11.5 -60.5t-11.5 -61t-32.5 -48t-49.5 -31.5t-61.5 -11.5q-34 0 -62.5 11.5 t-49.5 31.5t-32.5 48t-11.5 61zM1025 1731q0 33 11.5 60.5t32.5 48t49.5 31.5t61.5 11q34 0 62.5 -11t49.5 -31.5t32.5 -48t11.5 -60.5t-11.5 -61t-32.5 -48t-49.5 -31.5t-62.5 -11.5q-33 0 -61.5 11.5t-49.5 31.5t-32.5 48t-11.5 61z" />
<glyph unicode="&#xcc;" horiz-adv-x="653" d="M100 0l307 1443h304l-307 -1443h-304zM244 1908h306l177 -318h-266z" />
<glyph unicode="&#xcd;" horiz-adv-x="653" d="M100 0l307 1443h304l-307 -1443h-304zM443 1590l343 318h315l-381 -318h-277z" />
<glyph unicode="&#xce;" horiz-adv-x="653" d="M100 0l307 1443h304l-307 -1443h-304zM175 1590l328 335h291l187 -335h-249l-92 191h-18l-172 -191h-275z" />
<glyph unicode="&#xcf;" horiz-adv-x="653" d="M100 0l307 1443h304l-307 -1443h-304zM231 1731q0 33 11.5 60.5t32.5 48t49.5 31.5t62.5 11q33 0 61.5 -11t49.5 -31.5t32.5 -48t11.5 -60.5t-11.5 -61t-32.5 -48t-49.5 -31.5t-61.5 -11.5q-34 0 -62.5 11.5t-49.5 31.5t-32.5 48t-11.5 61zM699 1731q0 33 11.5 60.5 t32.5 48t49.5 31.5t61.5 11q34 0 62.5 -11t49.5 -31.5t32.5 -48t11.5 -60.5t-11.5 -61t-32.5 -48t-49.5 -31.5t-62.5 -11.5q-33 0 -61.5 11.5t-49.5 31.5t-32.5 48t-11.5 61z" />
<glyph unicode="&#xd0;" horiz-adv-x="1516" d="M58 618l47 227h175l127 598h511q138 0 247.5 -40t186 -115.5t117 -184.5t40.5 -247q0 -124 -25.5 -235.5t-72.5 -206.5t-114 -171.5t-151 -130.5t-182.5 -83t-207.5 -29h-655l131 618h-174zM459 257h270q102 0 188 40.5t148.5 115t97.5 178.5t35 231q0 84 -23.5 152 t-68 115t-109 72.5t-146.5 25.5h-191l-74 -342h174l-47 -227h-176z" />
<glyph unicode="&#xd1;" horiz-adv-x="1573" d="M100 0l307 1443h231l479 -929h18l202 929h293l-307 -1443h-229l-483 922h-18l-200 -922h-293zM638 1618q9 65 32.5 116.5t59 87t81 54.5t96.5 19q61 0 104 -22.5t76.5 -49.5t62.5 -49.5t61 -22.5q40 0 65 24.5t33 79.5h181q-9 -65 -33 -116.5t-59 -87t-80.5 -54.5 t-96.5 -19q-61 0 -104 22.5t-77 49.5t-62.5 49.5t-61.5 22.5q-39 0 -64 -24.5t-33 -79.5h-181z" />
<glyph unicode="&#xd2;" horiz-adv-x="1617" d="M181 576q0 133 27.5 251.5t77.5 219t121.5 180.5t159 136.5t190 86.5t214.5 30q144 0 259 -46.5t195.5 -128.5t124 -194.5t43.5 -243.5q0 -133 -27 -252t-77.5 -219.5t-121.5 -180.5t-158.5 -136t-189.5 -86t-214 -30q-142 0 -257 46.5t-196.5 128.5t-126 194.5 t-44.5 243.5zM491 598q0 -83 23.5 -150t66 -115t102.5 -74t134 -26q98 0 183 46.5t148 128.5t99 193.5t36 242.5q0 82 -23.5 149.5t-66 115.5t-102 74t-132.5 26q-98 0 -183.5 -47t-148.5 -129.5t-99.5 -194t-36.5 -240.5zM657 1907h306l177 -318h-266z" />
<glyph unicode="&#xd3;" horiz-adv-x="1617" d="M181 576q0 133 27.5 251.5t77.5 219t121.5 180.5t159 136.5t190 86.5t214.5 30q144 0 259 -46.5t195.5 -128.5t124 -194.5t43.5 -243.5q0 -133 -27 -252t-77.5 -219.5t-121.5 -180.5t-158.5 -136t-189.5 -86t-214 -30q-142 0 -257 46.5t-196.5 128.5t-126 194.5 t-44.5 243.5zM491 598q0 -83 23.5 -150t66 -115t102.5 -74t134 -26q98 0 183 46.5t148 128.5t99 193.5t36 242.5q0 82 -23.5 149.5t-66 115.5t-102 74t-132.5 26q-98 0 -183.5 -47t-148.5 -129.5t-99.5 -194t-36.5 -240.5zM856 1589l343 318h315l-381 -318h-277z" />
<glyph unicode="&#xd4;" horiz-adv-x="1617" d="M181 576q0 133 27.5 251.5t77.5 219t121.5 180.5t159 136.5t190 86.5t214.5 30q144 0 259 -46.5t195.5 -128.5t124 -194.5t43.5 -243.5q0 -133 -27 -252t-77.5 -219.5t-121.5 -180.5t-158.5 -136t-189.5 -86t-214 -30q-142 0 -257 46.5t-196.5 128.5t-126 194.5 t-44.5 243.5zM491 598q0 -83 23.5 -150t66 -115t102.5 -74t134 -26q98 0 183 46.5t148 128.5t99 193.5t36 242.5q0 82 -23.5 149.5t-66 115.5t-102 74t-132.5 26q-98 0 -183.5 -47t-148.5 -129.5t-99.5 -194t-36.5 -240.5zM588 1589l328 335h291l187 -335h-249l-92 191h-18 l-172 -191h-275z" />
<glyph unicode="&#xd5;" horiz-adv-x="1617" d="M181 576q0 133 27.5 251.5t77.5 219t121.5 180.5t159 136.5t190 86.5t214.5 30q144 0 259 -46.5t195.5 -128.5t124 -194.5t43.5 -243.5q0 -133 -27 -252t-77.5 -219.5t-121.5 -180.5t-158.5 -136t-189.5 -86t-214 -30q-142 0 -257 46.5t-196.5 128.5t-126 194.5 t-44.5 243.5zM491 598q0 -83 23.5 -150t66 -115t102.5 -74t134 -26q98 0 183 46.5t148 128.5t99 193.5t36 242.5q0 82 -23.5 149.5t-66 115.5t-102 74t-132.5 26q-98 0 -183.5 -47t-148.5 -129.5t-99.5 -194t-36.5 -240.5zM610 1617q9 65 32.5 116.5t59 87t81 54.5t96.5 19 q61 0 104 -22.5t76.5 -49.5t62.5 -49.5t61 -22.5q40 0 65 24.5t33 79.5h181q-9 -65 -33 -116.5t-59 -87t-80.5 -54.5t-96.5 -19q-61 0 -104 22.5t-77 49.5t-62.5 49.5t-61.5 22.5q-39 0 -64 -24.5t-33 -79.5h-181z" />
<glyph unicode="&#xd6;" horiz-adv-x="1617" d="M181 576q0 133 27.5 251.5t77.5 219t121.5 180.5t159 136.5t190 86.5t214.5 30q144 0 259 -46.5t195.5 -128.5t124 -194.5t43.5 -243.5q0 -133 -27 -252t-77.5 -219.5t-121.5 -180.5t-158.5 -136t-189.5 -86t-214 -30q-142 0 -257 46.5t-196.5 128.5t-126 194.5 t-44.5 243.5zM491 598q0 -83 23.5 -150t66 -115t102.5 -74t134 -26q98 0 183 46.5t148 128.5t99 193.5t36 242.5q0 82 -23.5 149.5t-66 115.5t-102 74t-132.5 26q-98 0 -183.5 -47t-148.5 -129.5t-99.5 -194t-36.5 -240.5zM644 1730q0 33 11.5 60.5t32.5 48t49.5 31.5 t62.5 11q33 0 61.5 -11t49.5 -31.5t32.5 -48t11.5 -60.5t-11.5 -61t-32.5 -48t-49.5 -31.5t-61.5 -11.5q-34 0 -62.5 11.5t-49.5 31.5t-32.5 48t-11.5 61zM1112 1730q0 33 11.5 60.5t32.5 48t49.5 31.5t61.5 11q34 0 62.5 -11t49.5 -31.5t32.5 -48t11.5 -60.5t-11.5 -61 t-32.5 -48t-49.5 -31.5t-62.5 -11.5q-33 0 -61.5 11.5t-49.5 31.5t-32.5 48t-11.5 61z" />
<glyph unicode="&#xd7;" d="M221 323l359 280l-233 319l211 156l228 -309l361 279l144 -206l-360 -280l235 -324l-211 -156l-231 315l-359 -279z" />
<glyph unicode="&#xd8;" horiz-adv-x="1592" d="M181 576q0 133 27.5 251.5t77.5 219t121.5 180.5t159 136.5t190 86.5t214.5 30q88 0 165 -18t143 -51l64 96l108 -59l-69 -104q102 -83 156.5 -205.5t54.5 -271.5q0 -133 -27 -252t-77.5 -219.5t-121.5 -180.5t-158.5 -136t-189.5 -86t-214 -30q-84 0 -158 16.5 t-139 47.5l-63 -95l-102 66l62 93q-107 83 -165.5 208t-58.5 277zM491 598q0 -78 21 -142.5t60 -112.5l547 826q-71 40 -160 40q-98 0 -183.5 -47t-148.5 -129.5t-99.5 -194t-36.5 -240.5zM667 267q68 -34 150 -34q98 0 183 46.5t148 128.5t99 193.5t36 242.5 q0 74 -18.5 135t-52.5 108z" />
<glyph unicode="&#xd9;" horiz-adv-x="1564" d="M210 433q0 30 3 62t10 64l187 884h305l-186 -877q-12 -56 -11 -102q2 -108 74.5 -169t201.5 -61q63 0 117 18.5t96.5 54t72 87.5t44.5 119l198 930h304l-211 -997q-24 -114 -78.5 -203.5t-136 -151.5t-188.5 -95t-236 -33q-133 0 -238 35t-177.5 98t-111.5 149t-39 188z M699 1908h306l177 -318h-266z" />
<glyph unicode="&#xda;" horiz-adv-x="1564" d="M210 433q0 30 3 62t10 64l187 884h305l-186 -877q-12 -56 -11 -102q2 -108 74.5 -169t201.5 -61q63 0 117 18.5t96.5 54t72 87.5t44.5 119l198 930h304l-211 -997q-24 -114 -78.5 -203.5t-136 -151.5t-188.5 -95t-236 -33q-133 0 -238 35t-177.5 98t-111.5 149t-39 188z M898 1590l343 318h315l-381 -318h-277z" />
<glyph unicode="&#xdb;" horiz-adv-x="1564" d="M210 433q0 30 3 62t10 64l187 884h305l-186 -877q-12 -56 -11 -102q2 -108 74.5 -169t201.5 -61q63 0 117 18.5t96.5 54t72 87.5t44.5 119l198 930h304l-211 -997q-24 -114 -78.5 -203.5t-136 -151.5t-188.5 -95t-236 -33q-133 0 -238 35t-177.5 98t-111.5 149t-39 188z M630 1590l328 335h291l187 -335h-249l-92 191h-18l-172 -191h-275z" />
<glyph unicode="&#xdc;" horiz-adv-x="1564" d="M210 433q0 30 3 62t10 64l187 884h305l-186 -877q-12 -56 -11 -102q2 -108 74.5 -169t201.5 -61q63 0 117 18.5t96.5 54t72 87.5t44.5 119l198 930h304l-211 -997q-24 -114 -78.5 -203.5t-136 -151.5t-188.5 -95t-236 -33q-133 0 -238 35t-177.5 98t-111.5 149t-39 188z M686 1731q0 33 11.5 60.5t32.5 48t49.5 31.5t62.5 11q33 0 61.5 -11t49.5 -31.5t32.5 -48t11.5 -60.5t-11.5 -61t-32.5 -48t-49.5 -31.5t-61.5 -11.5q-34 0 -62.5 11.5t-49.5 31.5t-32.5 48t-11.5 61zM1154 1731q0 33 11.5 60.5t32.5 48t49.5 31.5t61.5 11q34 0 62.5 -11 t49.5 -31.5t32.5 -48t11.5 -60.5t-11.5 -61t-32.5 -48t-49.5 -31.5t-62.5 -11.5q-33 0 -61.5 11.5t-49.5 31.5t-32.5 48t-11.5 61z" />
<glyph unicode="&#xdd;" horiz-adv-x="1451" d="M304 1443h316l196 -607h18l447 607h330l-697 -924l-110 -519h-304l114 531zM839 1590l343 318h315l-381 -318h-277z" />
<glyph unicode="&#xde;" horiz-adv-x="1382" d="M101 0l307 1443h302l-50 -232h270q94 0 173 -29.5t136 -82.5t89 -125.5t32 -159.5q0 -112 -42.5 -207.5t-119 -166t-183.5 -110.5t-236 -40h-314l-63 -290h-301zM515 536h237q70 0 126.5 17t96 49t60.5 77.5t21 102.5q0 86 -55.5 133.5t-165.5 47.5h-228z" />
<glyph unicode="&#xdf;" horiz-adv-x="1405" d="M103 0l234 1088q18 83 62.5 150t111.5 114t153.5 72t187.5 25q105 0 193.5 -27.5t152 -76.5t99 -117.5t35.5 -149.5q0 -66 -22.5 -123.5t-63 -102.5t-95.5 -75t-121 -40l-4 -19q135 -24 211 -102t76 -200q0 -98 -37 -178t-104 -136.5t-160.5 -87.5t-205.5 -31 q-33 0 -67 3t-67 8t-63.5 12.5t-54.5 16.5l50 234q32 -15 79 -24.5t88 -9.5q54 0 100 15.5t79.5 43t52.5 66t19 83.5q0 82 -67.5 126t-183.5 44h-75l50 245h75q45 0 85 14t70 39t47.5 59t17.5 74q0 38 -14.5 70t-40.5 54.5t-62.5 35t-80.5 12.5q-92 0 -153.5 -56t-84.5 -162 l-211 -986h-291z" />
<glyph unicode="&#xe0;" horiz-adv-x="1202" d="M83 284q0 84 33.5 151t96.5 115t154 75t207 31l274 9l15 68q3 15 4 23.5t1 16.5q0 57 -48.5 90.5t-133.5 33.5q-72 0 -121 -25t-71 -73h-275q18 75 61 136t106.5 103.5t145 65.5t175.5 23q101 0 183.5 -23.5t141.5 -66t91 -102.5t32 -133q0 -21 -2 -45t-7 -44l-151 -713 h-283l29 136h-18q-24 -35 -57.5 -63.5t-74 -48.5t-86.5 -30.5t-94 -10.5q-70 0 -130 23t-104 63t-69 95t-25 120zM369 326q0 -27 12 -50t34 -39.5t52.5 -25.5t66.5 -9q46 0 88.5 14t76.5 38.5t57.5 58t32.5 73.5l21 95l-228 -8q-100 -4 -156.5 -43t-56.5 -104zM390 1634h303 l212 -353h-265z" />
<glyph unicode="&#xe1;" horiz-adv-x="1202" d="M83 284q0 84 33.5 151t96.5 115t154 75t207 31l274 9l15 68q3 15 4 23.5t1 16.5q0 57 -48.5 90.5t-133.5 33.5q-72 0 -121 -25t-71 -73h-275q18 75 61 136t106.5 103.5t145 65.5t175.5 23q101 0 183.5 -23.5t141.5 -66t91 -102.5t32 -133q0 -21 -2 -45t-7 -44l-151 -713 h-283l29 136h-18q-24 -35 -57.5 -63.5t-74 -48.5t-86.5 -30.5t-94 -10.5q-70 0 -130 23t-104 63t-69 95t-25 120zM369 326q0 -27 12 -50t34 -39.5t52.5 -25.5t66.5 -9q46 0 88.5 14t76.5 38.5t57.5 58t32.5 73.5l21 95l-228 -8q-100 -4 -156.5 -43t-56.5 -104zM629 1281 l323 353h310l-361 -353h-272z" />
<glyph unicode="&#xe2;" horiz-adv-x="1202" d="M83 284q0 84 33.5 151t96.5 115t154 75t207 31l274 9l15 68q3 15 4 23.5t1 16.5q0 57 -48.5 90.5t-133.5 33.5q-72 0 -121 -25t-71 -73h-275q18 75 61 136t106.5 103.5t145 65.5t175.5 23q101 0 183.5 -23.5t141.5 -66t91 -102.5t32 -133q0 -21 -2 -45t-7 -44l-151 -713 h-283l29 136h-18q-24 -35 -57.5 -63.5t-74 -48.5t-86.5 -30.5t-94 -10.5q-70 0 -130 23t-104 63t-69 95t-25 120zM317 1251l350 354h291l200 -354h-250l-104 209h-18l-193 -209h-276zM369 326q0 -27 12 -50t34 -39.5t52.5 -25.5t66.5 -9q46 0 88.5 14t76.5 38.5t57.5 58 t32.5 73.5l21 95l-228 -8q-100 -4 -156.5 -43t-56.5 -104z" />
<glyph unicode="&#xe3;" horiz-adv-x="1202" d="M83 284q0 84 33.5 151t96.5 115t154 75t207 31l274 9l15 68q3 15 4 23.5t1 16.5q0 57 -48.5 90.5t-133.5 33.5q-72 0 -121 -25t-71 -73h-275q18 75 61 136t106.5 103.5t145 65.5t175.5 23q101 0 183.5 -23.5t141.5 -66t91 -102.5t32 -133q0 -21 -2 -45t-7 -44l-151 -713 h-283l29 136h-18q-24 -35 -57.5 -63.5t-74 -48.5t-86.5 -30.5t-94 -10.5q-70 0 -130 23t-104 63t-69 95t-25 120zM369 326q0 -27 12 -50t34 -39.5t52.5 -25.5t66.5 -9q46 0 88.5 14t76.5 38.5t57.5 58t32.5 73.5l21 95l-228 -8q-100 -4 -156.5 -43t-56.5 -104zM369 1287 q8 68 31.5 123t59 93.5t81.5 59.5t99 21q41 0 73.5 -12t58.5 -30.5t47 -39.5t41 -39.5t39.5 -30.5t42.5 -12q39 0 62.5 32t32.5 92h184q-8 -68 -31.5 -123t-59 -93.5t-81.5 -59.5t-99 -21q-42 0 -74 12t-58.5 30.5t-47.5 39.5t-41 39.5t-39.5 30.5t-42.5 12q-39 0 -62 -32 t-32 -92h-184z" />
<glyph unicode="&#xe4;" horiz-adv-x="1202" d="M83 284q0 84 33.5 151t96.5 115t154 75t207 31l274 9l15 68q3 15 4 23.5t1 16.5q0 57 -48.5 90.5t-133.5 33.5q-72 0 -121 -25t-71 -73h-275q18 75 61 136t106.5 103.5t145 65.5t175.5 23q101 0 183.5 -23.5t141.5 -66t91 -102.5t32 -133q0 -21 -2 -45t-7 -44l-151 -713 h-283l29 136h-18q-24 -35 -57.5 -63.5t-74 -48.5t-86.5 -30.5t-94 -10.5q-70 0 -130 23t-104 63t-69 95t-25 120zM369 326q0 -27 12 -50t34 -39.5t52.5 -25.5t66.5 -9q46 0 88.5 14t76.5 38.5t57.5 58t32.5 73.5l21 95l-228 -8q-100 -4 -156.5 -43t-56.5 -104zM392 1403 q0 33 11.5 60.5t32.5 48t49.5 31.5t62.5 11q33 0 61.5 -11t49.5 -31.5t32.5 -48t11.5 -60.5t-11.5 -61t-32.5 -48t-49.5 -31.5t-61.5 -11.5q-34 0 -62.5 11.5t-49.5 31.5t-32.5 48t-11.5 61zM860 1403q0 33 11.5 60.5t32.5 48t49.5 31.5t61.5 11q34 0 62.5 -11t49.5 -31.5 t32.5 -48t11.5 -60.5t-11.5 -61t-32.5 -48t-49.5 -31.5t-62.5 -11.5q-33 0 -61.5 11.5t-49.5 31.5t-32.5 48t-11.5 61z" />
<glyph unicode="&#xe5;" horiz-adv-x="1202" d="M83 284q0 84 33.5 151t96.5 115t154 75t207 31l274 9l15 68q3 15 4 23.5t1 16.5q0 57 -48.5 90.5t-133.5 33.5q-72 0 -121 -25t-71 -73h-275q18 75 61 136t106.5 103.5t145 65.5t175.5 23q101 0 183.5 -23.5t141.5 -66t91 -102.5t32 -133q0 -21 -2 -45t-7 -44l-151 -713 h-283l29 136h-18q-24 -35 -57.5 -63.5t-74 -48.5t-86.5 -30.5t-94 -10.5q-70 0 -130 23t-104 63t-69 95t-25 120zM369 326q0 -27 12 -50t34 -39.5t52.5 -25.5t66.5 -9q46 0 88.5 14t76.5 38.5t57.5 58t32.5 73.5l21 95l-228 -8q-100 -4 -156.5 -43t-56.5 -104zM591 1492 q0 51 18.5 95t51.5 75.5t78 49.5t98 18q52 0 97 -18t78 -49.5t51.5 -75.5t18.5 -95q0 -52 -18.5 -96t-51.5 -76.5t-78 -50.5t-97 -18q-53 0 -98 18t-78 50.5t-51.5 76.5t-18.5 96zM731 1491q0 -46 29.5 -75t75.5 -29q47 0 76.5 29.5t29.5 74.5t-30 74t-76 29t-75.5 -29 t-29.5 -74z" />
<glyph unicode="&#xe6;" horiz-adv-x="1925" d="M85 288q0 87 32.5 155t95 115.5t154 74t209.5 30.5l274 9l15 61q2 13 3.5 21t1.5 19q0 57 -49 90.5t-134 33.5q-72 0 -121 -25t-70 -73h-275q18 78 60.5 139t105 103t143 64t173.5 22q58 0 110 -11t95.5 -31.5t77 -49t54.5 -64.5h18q68 75 160 115.5t200 40.5 q94 0 177 -33t144.5 -93t97.5 -145.5t36 -190.5q0 -17 -1.5 -40t-4 -47.5t-5.5 -49t-7 -43.5h-768q-1 -6 -1 -15.5v-16.5q0 -64 18.5 -111t50.5 -78t74 -46t89 -15q84 0 137.5 31t78.5 83h281q-19 -76 -64 -139t-112 -108t-153.5 -69.5t-188.5 -24.5q-61 0 -120.5 14.5 t-111.5 41.5t-92.5 64t-62.5 82h-18q-28 -42 -70.5 -78.5t-96 -64t-116.5 -43.5t-132 -16q-86 0 -158 24t-124 66t-81 99t-29 123zM370 325q0 -28 12 -51.5t34 -41t52.5 -27.5t67.5 -10q46 0 88.5 15t76.5 40.5t57.5 60.5t32.5 75l21 95l-228 -8q-100 -4 -157 -43t-57 -105z M1118 669h479q2 5 2.5 16.5t0.5 21.5q0 41 -13.5 77t-40 62.5t-64 41.5t-85.5 15q-51 0 -95.5 -17t-80.5 -47.5t-62.5 -74t-40.5 -95.5z" />
<glyph unicode="&#xe7;" horiz-adv-x="1214" d="M133 441q0 147 44 272.5t124.5 217.5t192.5 144t248 52q101 0 182 -30.5t139.5 -80.5t92.5 -115.5t40 -134.5q2 -10 2 -21v-22h-276q-2 39 -18 69.5t-42.5 51.5t-62 32.5t-76.5 11.5q-66 0 -121 -33t-94.5 -90t-61.5 -134.5t-22 -167.5q0 -63 16 -109t44.5 -76.5 t66 -45.5t81.5 -15q82 0 141 40t84 116h279q-13 -77 -51 -145.5t-97.5 -121t-139 -86.5t-176.5 -42l-64 -98q159 -26 159 -164q0 -48 -19 -87t-53.5 -67t-83 -43t-107.5 -15q-49 0 -99.5 9.5t-86.5 26.5l28 133q13 -6 31 -10.5t37 -8.5t38 -6t36 -2q44 0 68 15t24 43 q0 61 -116 61h-57l17 116l70 106q-84 16 -151 55.5t-113.5 98t-71.5 134.5t-25 166z" />
<glyph unicode="&#xe8;" horiz-adv-x="1248" d="M136 450q0 151 43.5 276t122.5 214t189 138t242 49q99 0 184 -32.5t147.5 -92.5t98 -145.5t35.5 -191.5q0 -17 -1.5 -40t-3.5 -47.5t-5.5 -49t-6.5 -43.5h-770q0 -6 -0.5 -15.5t-0.5 -15.5q0 -64 18.5 -111t50.5 -78t74 -46.5t89 -15.5q85 0 139 31t79 83h280 q-19 -76 -63.5 -139t-111 -108t-153 -69.5t-188.5 -24.5q-107 0 -196.5 32t-154.5 93t-101 149t-36 200zM364 1634h303l212 -353h-265zM443 669h479q1 5 2 16.5t1 21.5q0 41 -14 77t-40 62.5t-64 41.5t-86 15q-50 0 -94.5 -17t-80.5 -47.5t-62.5 -74t-40.5 -95.5z" />
<glyph unicode="&#xe9;" horiz-adv-x="1248" d="M136 450q0 151 43.5 276t122.5 214t189 138t242 49q99 0 184 -32.5t147.5 -92.5t98 -145.5t35.5 -191.5q0 -17 -1.5 -40t-3.5 -47.5t-5.5 -49t-6.5 -43.5h-770q0 -6 -0.5 -15.5t-0.5 -15.5q0 -64 18.5 -111t50.5 -78t74 -46.5t89 -15.5q85 0 139 31t79 83h280 q-19 -76 -63.5 -139t-111 -108t-153 -69.5t-188.5 -24.5q-107 0 -196.5 32t-154.5 93t-101 149t-36 200zM443 669h479q1 5 2 16.5t1 21.5q0 41 -14 77t-40 62.5t-64 41.5t-86 15q-50 0 -94.5 -17t-80.5 -47.5t-62.5 -74t-40.5 -95.5zM603 1281l323 353h310l-361 -353h-272z " />
<glyph unicode="&#xea;" horiz-adv-x="1248" d="M136 450q0 151 43.5 276t122.5 214t189 138t242 49q99 0 184 -32.5t147.5 -92.5t98 -145.5t35.5 -191.5q0 -17 -1.5 -40t-3.5 -47.5t-5.5 -49t-6.5 -43.5h-770q0 -6 -0.5 -15.5t-0.5 -15.5q0 -64 18.5 -111t50.5 -78t74 -46.5t89 -15.5q85 0 139 31t79 83h280 q-19 -76 -63.5 -139t-111 -108t-153 -69.5t-188.5 -24.5q-107 0 -196.5 32t-154.5 93t-101 149t-36 200zM326 1251l350 354h291l200 -354h-250l-104 209h-18l-193 -209h-276zM443 669h479q1 5 2 16.5t1 21.5q0 41 -14 77t-40 62.5t-64 41.5t-86 15q-50 0 -94.5 -17 t-80.5 -47.5t-62.5 -74t-40.5 -95.5z" />
<glyph unicode="&#xeb;" horiz-adv-x="1248" d="M136 450q0 151 43.5 276t122.5 214t189 138t242 49q99 0 184 -32.5t147.5 -92.5t98 -145.5t35.5 -191.5q0 -17 -1.5 -40t-3.5 -47.5t-5.5 -49t-6.5 -43.5h-770q0 -6 -0.5 -15.5t-0.5 -15.5q0 -64 18.5 -111t50.5 -78t74 -46.5t89 -15.5q85 0 139 31t79 83h280 q-19 -76 -63.5 -139t-111 -108t-153 -69.5t-188.5 -24.5q-107 0 -196.5 32t-154.5 93t-101 149t-36 200zM401 1403q0 33 11.5 60.5t32.5 48t49.5 31.5t62.5 11q33 0 61.5 -11t49.5 -31.5t32.5 -48t11.5 -60.5t-11.5 -61t-32.5 -48t-49.5 -31.5t-61.5 -11.5q-34 0 -62.5 11.5 t-49.5 31.5t-32.5 48t-11.5 61zM443 669h479q1 5 2 16.5t1 21.5q0 41 -14 77t-40 62.5t-64 41.5t-86 15q-50 0 -94.5 -17t-80.5 -47.5t-62.5 -74t-40.5 -95.5zM869 1403q0 33 11.5 60.5t32.5 48t49.5 31.5t61.5 11q34 0 62.5 -11t49.5 -31.5t32.5 -48t11.5 -60.5t-11.5 -61 t-32.5 -48t-49.5 -31.5t-62.5 -11.5q-33 0 -61.5 11.5t-49.5 31.5t-32.5 48t-11.5 61z" />
<glyph unicode="&#xec;" horiz-adv-x="599" d="M79 0l234 1103h291l-234 -1103h-291zM95 1634h303l212 -353h-265z" />
<glyph unicode="&#xed;" horiz-adv-x="599" d="M79 0l234 1103h291l-234 -1103h-291zM334 1281l323 353h310l-361 -353h-272z" />
<glyph unicode="&#xee;" horiz-adv-x="599" d="M57 1251l350 354h291l200 -354h-250l-104 209h-18l-193 -209h-276zM79 0l234 1103h291l-234 -1103h-291z" />
<glyph unicode="&#xef;" horiz-adv-x="599" d="M79 0l234 1103h291l-234 -1103h-291zM132 1403q0 33 11.5 60.5t32.5 48t49.5 31.5t62.5 11q33 0 61.5 -11t49.5 -31.5t32.5 -48t11.5 -60.5t-11.5 -61t-32.5 -48t-49.5 -31.5t-61.5 -11.5q-34 0 -62.5 11.5t-49.5 31.5t-32.5 48t-11.5 61zM600 1403q0 33 11.5 60.5 t32.5 48t49.5 31.5t61.5 11q34 0 62.5 -11t49.5 -31.5t32.5 -48t11.5 -60.5t-11.5 -61t-32.5 -48t-49.5 -31.5t-62.5 -11.5q-33 0 -61.5 11.5t-49.5 31.5t-32.5 48t-11.5 61z" />
<glyph unicode="&#xf0;" horiz-adv-x="1301" d="M128 448q0 132 40 245.5t110 197.5t166 131.5t208 47.5q53 0 102.5 -11.5t91.5 -32.5t74 -50t50 -63l18 -1q-4 74 -29.5 153.5t-72.5 160.5l-312 -94l-24 151l244 74q-32 38 -72 76.5t-88 80.5h330q26 -26 42.5 -44t29.5 -35l253 80l25 -152l-188 -58q74 -128 109 -256 t35 -267q0 -83 -10.5 -160t-31.5 -147q-34 -116 -91.5 -208.5t-134 -157t-170 -99t-199.5 -34.5q-111 0 -203.5 35.5t-159.5 98.5t-104.5 149.5t-37.5 188.5zM431 460q0 -54 15.5 -97.5t44.5 -74.5t69.5 -47.5t91.5 -16.5q60 0 115 31.5t97 85t67 123t25 145.5 q0 52 -17 95.5t-47 75t-72 48.5t-93 17q-61 0 -115 -30.5t-94 -83t-63.5 -122.5t-23.5 -149z" />
<glyph unicode="&#xf1;" horiz-adv-x="1304" d="M67 0l236 1112h282l-37 -175h18q26 42 61.5 77t79.5 60t96 39t111 14q77 0 139.5 -24.5t107 -67.5t68.5 -101.5t24 -126.5q0 -58 -14 -131l-142 -676h-291l132 628q10 46 10 84t-13.5 69.5t-38.5 54t-59.5 35t-77.5 12.5q-49 0 -91.5 -16.5t-76.5 -46.5t-58 -71t-34 -90 l-140 -659h-292zM396 1293q8 68 31.5 123t59 93.5t81.5 59.5t99 21q41 0 73.5 -12t58.5 -30.5t47 -39.5t41 -39.5t39.5 -30.5t42.5 -12q39 0 62.5 32t32.5 92h184q-8 -68 -31.5 -123t-59 -93.5t-81.5 -59.5t-99 -21q-42 0 -74 12t-58.5 30.5t-47.5 39.5t-41 39.5t-39.5 30.5 t-42.5 12q-39 0 -62 -32t-32 -92h-184z" />
<glyph unicode="&#xf2;" horiz-adv-x="1289" d="M135 458q0 93 20.5 178.5t58.5 160t93 135.5t124.5 104.5t151.5 67t175 23.5q111 0 201.5 -35t154.5 -98.5t99 -152.5t35 -197q0 -137 -44.5 -258.5t-126 -212.5t-196 -144t-253.5 -53q-111 0 -202 34.5t-155.5 98t-100 152.5t-35.5 197zM385 1634h303l212 -353h-265z M438 467q0 -57 14 -103.5t40.5 -79.5t65 -51t87.5 -18q59 0 113 32t95 87.5t65.5 131t24.5 162.5q0 124 -53 192.5t-148 68.5q-67 0 -123 -33t-96 -90t-62.5 -134t-22.5 -165z" />
<glyph unicode="&#xf3;" horiz-adv-x="1289" d="M135 458q0 93 20.5 178.5t58.5 160t93 135.5t124.5 104.5t151.5 67t175 23.5q111 0 201.5 -35t154.5 -98.5t99 -152.5t35 -197q0 -137 -44.5 -258.5t-126 -212.5t-196 -144t-253.5 -53q-111 0 -202 34.5t-155.5 98t-100 152.5t-35.5 197zM438 467q0 -57 14 -103.5 t40.5 -79.5t65 -51t87.5 -18q59 0 113 32t95 87.5t65.5 131t24.5 162.5q0 124 -53 192.5t-148 68.5q-67 0 -123 -33t-96 -90t-62.5 -134t-22.5 -165zM624 1281l323 353h310l-361 -353h-272z" />
<glyph unicode="&#xf4;" horiz-adv-x="1289" d="M135 458q0 93 20.5 178.5t58.5 160t93 135.5t124.5 104.5t151.5 67t175 23.5q111 0 201.5 -35t154.5 -98.5t99 -152.5t35 -197q0 -137 -44.5 -258.5t-126 -212.5t-196 -144t-253.5 -53q-111 0 -202 34.5t-155.5 98t-100 152.5t-35.5 197zM347 1251l350 354h291l200 -354 h-250l-104 209h-18l-193 -209h-276zM438 467q0 -57 14 -103.5t40.5 -79.5t65 -51t87.5 -18q59 0 113 32t95 87.5t65.5 131t24.5 162.5q0 124 -53 192.5t-148 68.5q-67 0 -123 -33t-96 -90t-62.5 -134t-22.5 -165z" />
<glyph unicode="&#xf5;" horiz-adv-x="1289" d="M135 458q0 93 20.5 178.5t58.5 160t93 135.5t124.5 104.5t151.5 67t175 23.5q111 0 201.5 -35t154.5 -98.5t99 -152.5t35 -197q0 -137 -44.5 -258.5t-126 -212.5t-196 -144t-253.5 -53q-111 0 -202 34.5t-155.5 98t-100 152.5t-35.5 197zM399 1287q8 68 31.5 123t59 93.5 t81.5 59.5t99 21q41 0 73.5 -12t58.5 -30.5t47 -39.5t41 -39.5t39.5 -30.5t42.5 -12q39 0 62.5 32t32.5 92h184q-8 -68 -31.5 -123t-59 -93.5t-81.5 -59.5t-99 -21q-42 0 -74 12t-58.5 30.5t-47.5 39.5t-41 39.5t-39.5 30.5t-42.5 12q-39 0 -62 -32t-32 -92h-184zM438 467 q0 -57 14 -103.5t40.5 -79.5t65 -51t87.5 -18q59 0 113 32t95 87.5t65.5 131t24.5 162.5q0 124 -53 192.5t-148 68.5q-67 0 -123 -33t-96 -90t-62.5 -134t-22.5 -165z" />
<glyph unicode="&#xf6;" horiz-adv-x="1289" d="M135 458q0 93 20.5 178.5t58.5 160t93 135.5t124.5 104.5t151.5 67t175 23.5q111 0 201.5 -35t154.5 -98.5t99 -152.5t35 -197q0 -137 -44.5 -258.5t-126 -212.5t-196 -144t-253.5 -53q-111 0 -202 34.5t-155.5 98t-100 152.5t-35.5 197zM422 1403q0 33 11.5 60.5 t32.5 48t49.5 31.5t62.5 11q33 0 61.5 -11t49.5 -31.5t32.5 -48t11.5 -60.5t-11.5 -61t-32.5 -48t-49.5 -31.5t-61.5 -11.5q-34 0 -62.5 11.5t-49.5 31.5t-32.5 48t-11.5 61zM438 467q0 -57 14 -103.5t40.5 -79.5t65 -51t87.5 -18q59 0 113 32t95 87.5t65.5 131t24.5 162.5 q0 124 -53 192.5t-148 68.5q-67 0 -123 -33t-96 -90t-62.5 -134t-22.5 -165zM890 1403q0 33 11.5 60.5t32.5 48t49.5 31.5t61.5 11q34 0 62.5 -11t49.5 -31.5t32.5 -48t11.5 -60.5t-11.5 -61t-32.5 -48t-49.5 -31.5t-62.5 -11.5q-33 0 -61.5 11.5t-49.5 31.5t-32.5 48 t-11.5 61z" />
<glyph unicode="&#xf7;" horiz-adv-x="1416" d="M194 472l47 225h1080l-47 -225h-1080zM500 187q0 36 11.5 66.5t33 53t52.5 35.5t69 13t68.5 -12.5t52 -34t33 -50.5t11.5 -61q0 -36 -11.5 -66.5t-33 -53t-52 -35t-68.5 -12.5t-69 12.5t-52.5 34t-33 50t-11.5 60.5zM665 971q0 36 11.5 66.5t33 53t52.5 35t69 12.5 t68.5 -12.5t52 -34t33 -50t11.5 -60.5q0 -36 -11.5 -66.5t-33 -53t-52 -35t-68.5 -12.5t-69 12.5t-52.5 34t-33 50t-11.5 60.5z" />
<glyph unicode="&#xf8;" horiz-adv-x="1298" d="M135 458q0 93 20.5 178.5t58.5 160t93 135.5t124.5 104.5t151.5 67t175 23.5q81 0 150.5 -18t126.5 -53l97 116l93 -58l-105 -126q62 -63 95 -150.5t33 -193.5q0 -137 -44.5 -258.5t-126 -212.5t-196 -144t-253.5 -53q-85 0 -157 19.5t-131 57.5l-105 -126l-90 63 l111 133q-58 63 -89.5 147.5t-31.5 187.5zM438 467q0 -60 15 -108l409 490q-49 40 -120 40q-67 0 -123 -33t-96 -90t-62.5 -134t-22.5 -165zM514 262q53 -47 131 -47q59 0 113 32t95 87.5t65.5 131t24.5 162.5q0 73 -19 126z" />
<glyph unicode="&#xf9;" horiz-adv-x="1305" d="M139 298q0 26 4 64.5t11 76.5l139 664h293l-131 -616q-5 -21 -7.5 -45.5t-2.5 -40.5q0 -86 47.5 -129.5t136.5 -43.5q50 0 93 16.5t77.5 47t58.5 73t35 94.5l137 644h292l-233 -1103h-283l36 167h-18q-50 -88 -138.5 -139.5t-204.5 -51.5q-75 0 -138 23t-108.5 65 t-70.5 101.5t-25 132.5zM440 1634h303l212 -353h-265z" />
<glyph unicode="&#xfa;" horiz-adv-x="1305" d="M139 298q0 26 4 64.5t11 76.5l139 664h293l-131 -616q-5 -21 -7.5 -45.5t-2.5 -40.5q0 -86 47.5 -129.5t136.5 -43.5q50 0 93 16.5t77.5 47t58.5 73t35 94.5l137 644h292l-233 -1103h-283l36 167h-18q-50 -88 -138.5 -139.5t-204.5 -51.5q-75 0 -138 23t-108.5 65 t-70.5 101.5t-25 132.5zM679 1281l323 353h310l-361 -353h-272z" />
<glyph unicode="&#xfb;" horiz-adv-x="1305" d="M139 298q0 26 4 64.5t11 76.5l139 664h293l-131 -616q-5 -21 -7.5 -45.5t-2.5 -40.5q0 -86 47.5 -129.5t136.5 -43.5q50 0 93 16.5t77.5 47t58.5 73t35 94.5l137 644h292l-233 -1103h-283l36 167h-18q-50 -88 -138.5 -139.5t-204.5 -51.5q-75 0 -138 23t-108.5 65 t-70.5 101.5t-25 132.5zM402 1251l350 354h291l200 -354h-250l-104 209h-18l-193 -209h-276z" />
<glyph unicode="&#xfc;" horiz-adv-x="1305" d="M139 298q0 26 4 64.5t11 76.5l139 664h293l-131 -616q-5 -21 -7.5 -45.5t-2.5 -40.5q0 -86 47.5 -129.5t136.5 -43.5q50 0 93 16.5t77.5 47t58.5 73t35 94.5l137 644h292l-233 -1103h-283l36 167h-18q-50 -88 -138.5 -139.5t-204.5 -51.5q-75 0 -138 23t-108.5 65 t-70.5 101.5t-25 132.5zM477 1403q0 33 11.5 60.5t32.5 48t49.5 31.5t62.5 11q33 0 61.5 -11t49.5 -31.5t32.5 -48t11.5 -60.5t-11.5 -61t-32.5 -48t-49.5 -31.5t-61.5 -11.5q-34 0 -62.5 11.5t-49.5 31.5t-32.5 48t-11.5 61zM945 1403q0 33 11.5 60.5t32.5 48t49.5 31.5 t61.5 11q34 0 62.5 -11t49.5 -31.5t32.5 -48t11.5 -60.5t-11.5 -61t-32.5 -48t-49.5 -31.5t-62.5 -11.5q-33 0 -61.5 11.5t-49.5 31.5t-32.5 48t-11.5 61z" />
<glyph unicode="&#xfd;" horiz-adv-x="1208" d="M-1 -398l46 235q4 -1 14 -2t22 -2t24 -1.5t21 -0.5q73 0 126 28t85 94l22 44l-144 1106h297l64 -822h18l405 822h312l-630 -1143q-54 -101 -110.5 -170.5t-122.5 -112.5t-144 -61.5t-173 -18.5q-9 0 -29 0.5t-41 1.5t-39 2t-23 1zM635 1281l323 353h310l-361 -353h-272z " />
<glyph unicode="&#xfe;" horiz-adv-x="1337" d="M-2 -345l395 1852h291l-118 -557h18q55 78 138.5 125t193.5 47q82 0 151 -30t119 -85t78.5 -133.5t28.5 -174.5q0 -155 -42.5 -286t-117 -226.5t-176 -149.5t-219.5 -54q-60 0 -111 16t-91.5 44.5t-69 68.5t-41.5 88h-18l-117 -545h-292zM468 465q0 -57 15.5 -100.5 t44 -73.5t67 -45.5t85.5 -15.5q65 0 122 32t99 88t66 132.5t24 166.5q0 57 -15 100t-42.5 72t-65.5 44t-83 15q-66 0 -124 -33t-100.5 -89.5t-67.5 -132t-25 -160.5z" />
<glyph unicode="&#xff;" horiz-adv-x="1208" d="M-1 -398l46 235q4 -1 14 -2t22 -2t24 -1.5t21 -0.5q73 0 126 28t85 94l22 44l-144 1106h297l64 -822h18l405 822h312l-630 -1143q-54 -101 -110.5 -170.5t-122.5 -112.5t-144 -61.5t-173 -18.5q-9 0 -29 0.5t-41 1.5t-39 2t-23 1zM433 1403q0 33 11.5 60.5t32.5 48 t49.5 31.5t62.5 11q33 0 61.5 -11t49.5 -31.5t32.5 -48t11.5 -60.5t-11.5 -61t-32.5 -48t-49.5 -31.5t-61.5 -11.5q-34 0 -62.5 11.5t-49.5 31.5t-32.5 48t-11.5 61zM901 1403q0 33 11.5 60.5t32.5 48t49.5 31.5t61.5 11q34 0 62.5 -11t49.5 -31.5t32.5 -48t11.5 -60.5 t-11.5 -61t-32.5 -48t-49.5 -31.5t-62.5 -11.5q-33 0 -61.5 11.5t-49.5 31.5t-32.5 48t-11.5 61z" />
<glyph unicode="&#x152;" horiz-adv-x="2312" d="M186 576q0 131 27 248.5t77 218t120.5 181.5t158.5 138t190.5 87.5t216.5 30.5q78 0 147.5 -17t128.5 -47.5t105.5 -74t78.5 -96.5h18l43 198h901l-53 -258h-652l-75 -337h616l-50 -239h-615l-78 -351h653l-52 -258h-902l23 102h-15q-30 -30 -71.5 -55.5t-92 -44 t-107.5 -29t-117 -10.5q-138 0 -252.5 45t-197 126t-128.5 193.5t-46 248.5zM493 597q0 -83 23.5 -151t66.5 -116.5t103.5 -75t134.5 -26.5q100 0 186 47.5t149 131t99 196t36 243.5q0 83 -23.5 151t-66.5 116.5t-103.5 75t-133.5 26.5q-99 0 -185 -48t-149.5 -131.5 t-100 -196t-36.5 -242.5z" />
<glyph unicode="&#x153;" horiz-adv-x="2048" d="M135 457q0 145 46.5 267.5t129.5 212t196.5 140t247.5 50.5q120 0 215 -49.5t150 -140.5h19q148 190 391 190q103 0 188.5 -34t147 -95t96 -146t34.5 -187q0 -17 -1.5 -40t-4 -48t-5.5 -49t-7 -43h-769q-1 -9 -1 -18v-14q0 -57 16.5 -103.5t46.5 -79t73 -50t96 -17.5 q80 0 135.5 29.5t81.5 84.5h281q-20 -78 -66 -141t-113 -107.5t-152.5 -68.5t-184.5 -24q-120 0 -217.5 48.5t-157.5 138.5h-18q-72 -92 -174 -139.5t-229 -47.5q-111 0 -201.5 34.5t-155 97.5t-99.5 152t-35 197zM438 466q0 -58 14.5 -104.5t41.5 -79.5t65 -50.5t86 -17.5 q61 0 115.5 33t95 89.5t64 131.5t23.5 160q0 124 -53 192.5t-148 68.5q-65 0 -121 -32.5t-96.5 -89t-63.5 -134t-23 -167.5zM1240 669h479q2 5 2.5 16.5t0.5 21.5q0 44 -14.5 80t-41.5 62t-64.5 40t-82.5 14q-50 0 -94 -16.5t-80.5 -46.5t-63 -73.5t-41.5 -97.5z" />
<glyph unicode="&#x178;" horiz-adv-x="1451" d="M304 1443h316l196 -607h18l447 607h330l-697 -924l-110 -519h-304l114 531zM627 1731q0 33 11.5 60.5t32.5 48t49.5 31.5t62.5 11q33 0 61.5 -11t49.5 -31.5t32.5 -48t11.5 -60.5t-11.5 -61t-32.5 -48t-49.5 -31.5t-61.5 -11.5q-34 0 -62.5 11.5t-49.5 31.5t-32.5 48 t-11.5 61zM1095 1731q0 33 11.5 60.5t32.5 48t49.5 31.5t61.5 11q34 0 62.5 -11t49.5 -31.5t32.5 -48t11.5 -60.5t-11.5 -61t-32.5 -48t-49.5 -31.5t-62.5 -11.5q-33 0 -61.5 11.5t-49.5 31.5t-32.5 48t-11.5 61z" />
<glyph unicode="&#x2c6;" horiz-adv-x="1071" d="M306 1251l350 354h291l200 -354h-250l-104 209h-18l-193 -209h-276z" />
<glyph unicode="&#x2dc;" horiz-adv-x="1071" d="M347 1301q8 68 31.5 123t59 93.5t81.5 59.5t99 21q41 0 73.5 -12t58.5 -30.5t47 -39.5t41 -39.5t39.5 -30.5t42.5 -12q39 0 62.5 32t32.5 92h184q-8 -68 -31.5 -123t-59 -93.5t-81.5 -59.5t-99 -21q-42 0 -74 12t-58.5 30.5t-47.5 39.5t-41 39.5t-39.5 30.5t-42.5 12 q-39 0 -62 -32t-32 -92h-184z" />
<glyph unicode="&#x2000;" horiz-adv-x="1028" />
<glyph unicode="&#x2001;" horiz-adv-x="2057" />
<glyph unicode="&#x2002;" horiz-adv-x="1028" />
<glyph unicode="&#x2003;" horiz-adv-x="2057" />
<glyph unicode="&#x2004;" horiz-adv-x="685" />
<glyph unicode="&#x2005;" horiz-adv-x="514" />
<glyph unicode="&#x2006;" horiz-adv-x="342" />
<glyph unicode="&#x2007;" horiz-adv-x="342" />
<glyph unicode="&#x2008;" horiz-adv-x="257" />
<glyph unicode="&#x2009;" horiz-adv-x="411" />
<glyph unicode="&#x200a;" horiz-adv-x="114" />
<glyph unicode="&#x2010;" horiz-adv-x="992" d="M188 446l57 273h657l-57 -273h-657z" />
<glyph unicode="&#x2011;" horiz-adv-x="992" d="M188 446l57 273h657l-57 -273h-657z" />
<glyph unicode="&#x2012;" horiz-adv-x="992" d="M188 446l57 273h657l-57 -273h-657z" />
<glyph unicode="&#x2013;" horiz-adv-x="1139" d="M21 446l56 273h1139l-56 -273h-1139z" />
<glyph unicode="&#x2014;" horiz-adv-x="2048" d="M21 446l56 273h2048l-56 -273h-2048z" />
<glyph unicode="&#x2018;" horiz-adv-x="650" d="M365 831l1 612h275l-21 -612h-255z" />
<glyph unicode="&#x2019;" horiz-adv-x="651" d="M237 831l237 612h275l-262 -612h-250z" />
<glyph unicode="&#x201a;" horiz-adv-x="650" d="M-36 -446l237 613h275l-261 -613h-251z" />
<glyph unicode="&#x201c;" horiz-adv-x="1129" d="M350 831l1 612h270l-21 -612h-250zM834 831l1 612h270l-21 -612h-250z" />
<glyph unicode="&#x201d;" horiz-adv-x="1130" d="M237 831l237 612h270l-257 -612h-250zM721 831l237 612h270l-257 -612h-250z" />
<glyph unicode="&#x201e;" horiz-adv-x="1129" d="M-36 -446l237 613h270l-256 -613h-251zM449 -446l236 613h270l-256 -613h-250z" />
<glyph unicode="&#x2022;" horiz-adv-x="1032" d="M228 582q0 71 26.5 133t72 108t107 72.5t131.5 26.5t131.5 -26.5t107 -72.5t72 -108t26.5 -133t-26.5 -133t-72 -108.5t-107 -73t-131.5 -26.5t-131.5 26.5t-107 73t-72 108.5t-26.5 133z" />
<glyph unicode="&#x2026;" horiz-adv-x="1845" d="M122 141q0 38 12.5 71t36 57t56 37.5t72.5 13.5t73 -13.5t56 -36.5t35.5 -53.5t12.5 -64.5q0 -38 -12.5 -70.5t-35.5 -56.5t-56 -38t-73 -14t-72.5 13.5t-56 37t-36 54t-12.5 63.5zM689 141q0 38 12.5 71t36 57t56 37.5t72.5 13.5t73 -13.5t56 -36.5t35.5 -53.5 t12.5 -64.5q0 -38 -12.5 -70.5t-35.5 -56.5t-56 -38t-73 -14t-72.5 13.5t-56 37t-36 54t-12.5 63.5zM1250 141q0 38 12.5 71t36 57t56 37.5t72.5 13.5t73 -13.5t56 -36.5t35.5 -53.5t12.5 -64.5q0 -38 -12.5 -70.5t-35.5 -56.5t-56 -38t-73 -14t-72.5 13.5t-56 37t-36 54 t-12.5 63.5z" />
<glyph unicode="&#x202f;" horiz-adv-x="411" />
<glyph unicode="&#x2039;" horiz-adv-x="936" d="M185 562l2 8l421 411h293l-443 -426l-2 -11l254 -393h-264z" />
<glyph unicode="&#x203a;" horiz-adv-x="935" d="M123 151l443 426l2 11l-253 393h264l261 -411l-2 -8l-422 -411h-293z" />
<glyph unicode="&#x205f;" horiz-adv-x="514" />
<glyph unicode="&#x20ac;" d="M152 481l34 157l166 1q1 38 4 74t9 71h-147l34 160h152q42 119 114.5 216t172.5 166t225.5 106.5t274.5 37.5q39 0 83.5 -4t87.5 -10t81 -14t63 -17l-54 -258q-21 7 -50.5 14t-63 12t-69 8t-67.5 3q-171 0 -292 -68t-184 -192h523l-35 -160h-540q-5 -30 -7.5 -61.5 t-2.5 -65.5v-17l518 2l-34 -161h-451q52 -121 179 -184.5t323 -63.5q15 0 30 1t32 3l-55 -261q-24 -3 -69 -3q-154 0 -284.5 35.5t-230.5 101.5t-165.5 160t-90.5 211h-214z" />
<glyph unicode="&#x2122;" horiz-adv-x="2449" d="M328 1212l47 231h871l-47 -231h-304l-150 -697h-263l150 697h-304zM1211 515l197 928h297l138 -503h18l360 503h317l-197 -928h-239l125 584h-18l-352 -508h-132l-130 508h-18l-125 -584h-241z" />
<glyph unicode="&#x25fc;" horiz-adv-x="1105" d="M0 0v1105h1105v-1105h-1105z" />
<glyph unicode="&#xfb01;" horiz-adv-x="1422" d="M153 0l184 863h-174l47 229h171l25 126q31 157 130 227t273 70q59 0 106 -7.5t76 -14.5l-42 -205q-16 5 -43 8t-69 3q-60 0 -97.5 -29t-50.5 -89l-18 -89h230l-47 -229h-224l-184 -863h-293zM907 0l235 1103h293l-235 -1103h-293zM1181 1400q0 32 12 59.5t34.5 48 t54.5 32t71 11.5t70.5 -11t54 -30t35 -45t12.5 -56q0 -32 -12.5 -59.5t-35 -48t-54 -32.5t-70.5 -12t-71 11t-54.5 30t-34.5 45.5t-12 56.5z" />
<glyph unicode="&#xfb02;" horiz-adv-x="1422" d="M153 0l184 863h-174l47 229h171l25 126q31 157 130 227t273 70q59 0 106 -7.5t76 -14.5l-42 -205q-16 5 -43 8t-69 3q-60 0 -97.5 -29t-50.5 -89l-18 -89h230l-47 -229h-224l-184 -863h-293zM904 0l324 1524h293l-324 -1524h-293z" />
</font>
</defs>
</svg>
