<?xml version="1.0" standalone="no"?>
<!DOCTYPE svg PUBLIC "-//W3C//DTD SVG 1.1//EN" "http://www.w3.org/Graphics/SVG/1.1/DTD/svg11.dtd" >
<svg xmlns="http://www.w3.org/2000/svg">
<metadata></metadata>
<defs>
<font id="sfns_textitalic" horiz-adv-x="1328" >
<font-face units-per-em="2048" ascent="1638" descent="-410" />
<missing-glyph horiz-adv-x="578" />
<glyph horiz-adv-x="0" />
<glyph unicode="&#xd;" horiz-adv-x="0" />
<glyph unicode=" "  horiz-adv-x="578" />
<glyph unicode="&#x09;" horiz-adv-x="578" />
<glyph unicode="&#xa0;" horiz-adv-x="578" />
<glyph unicode="!" horiz-adv-x="636" d="M145 121q0 30 10.5 55.5t29 44.5t44 29.5t55.5 10.5t55.5 -10.5t44 -29.5t28.5 -44.5t10 -55.5t-10 -55t-28.5 -44t-44 -29.5t-55.5 -10.5t-55.5 10.5t-44 29.5t-29 44t-10.5 55zM275 480l188 964h200l-222 -964h-166z" />
<glyph unicode="&#x22;" horiz-adv-x="895" d="M311 904l115 539h160l-115 -539h-160zM688 904l115 539h160l-115 -539h-160z" />
<glyph unicode="#" horiz-adv-x="1296" d="M99 413l61 144h212l143 344h-212l59 143h212l167 399h151l-166 -399h298l167 399h152l-168 -399h212l-60 -143h-212l-144 -344h212l-59 -144h-212l-172 -413h-152l173 413h-299l-172 -413h-151l172 413h-212zM520 554h301l145 349h-302z" />
<glyph unicode="$" d="M163 390h182q14 -94 73.5 -156.5t153.5 -88.5l113 533l-51 21q-140 58 -216.5 149.5t-76.5 217.5q0 88 35.5 163t101.5 130t159 86t208 31h10l26 124h134l-30 -142q73 -19 133.5 -57t104 -89.5t68 -113.5t25.5 -130h-181q-14 86 -61 143t-124 83l-104 -491l17 -7 q80 -35 143.5 -74.5t107 -87t66.5 -104.5t23 -126q0 -100 -39 -181t-108.5 -138t-165 -88t-207.5 -31h-15l-23 -108h-134l27 126q-77 19 -144 56.5t-117 90.5t-80 118.5t-34 140.5zM531 1077q0 -80 50 -130t142 -91l97 457q-64 0 -117 -18.5t-91.5 -50t-59.5 -75t-21 -92.5z M703 129q73 1 130.5 20.5t97.5 53t60.5 80t20.5 100.5q0 43 -13 78t-39 64t-64 53.5t-88 47.5z" />
<glyph unicode="%" horiz-adv-x="1610" d="M130 0l711 752l653 691h188l-723 -766l-639 -677h-190zM262 1066q0 83 27.5 156.5t75 128t111 86t136.5 31.5q60 0 110 -21.5t85.5 -60t55 -93t19.5 -120.5q0 -83 -27.5 -156.5t-75 -128t-111 -86.5t-135.5 -32q-61 0 -111 21t-85.5 60t-55 93.5t-19.5 121.5zM420 1065 q0 -75 33 -120.5t88 -45.5q37 0 70.5 22.5t58.5 60.5t39.5 88.5t14.5 106.5q0 75 -31.5 118.5t-86.5 43.5q-38 0 -71.5 -22t-59 -59.5t-40.5 -87.5t-15 -105zM934 271q0 83 27.5 156.5t75 128t111 86t136.5 31.5q60 0 110 -21.5t85.5 -60t55 -93t19.5 -120.5 q0 -83 -27.5 -156.5t-75 -128t-111 -86.5t-135.5 -32q-61 0 -111 21t-85.5 60t-55 93.5t-19.5 121.5zM1092 270q0 -75 33 -120.5t88 -45.5q37 0 70.5 22.5t58.5 60.5t39.5 88.5t14.5 106.5q0 75 -31.5 118.5t-86.5 43.5q-38 0 -71.5 -22t-59 -59.5t-40.5 -87.5t-15 -105z " />
<glyph unicode="&#x26;" horiz-adv-x="1457" d="M112 376q0 142 92.5 250.5t282.5 182.5l62 24q-61 89 -88.5 157.5t-27.5 130.5q0 73 30.5 138t84 113.5t126.5 76.5t159 28q75 0 139 -22t110.5 -60.5t72.5 -91.5t26 -115t-23 -121.5t-71 -113.5t-122.5 -100t-178.5 -81l291 -427q57 65 92.5 154t44.5 209l4 54h168 l-5 -61q-13 -158 -69 -279.5t-143 -213.5l139 -208h-213l-62 96q-85 -59 -196.5 -91t-236.5 -32q-101 0 -190 31t-155 85t-104.5 127.5t-38.5 159.5zM292 388q0 -56 22 -104.5t62.5 -84t99 -55.5t132.5 -20q40 0 84 5.5t88.5 17.5t87.5 31t81 47l-322 487l-57 -21 q-137 -51 -207.5 -129t-70.5 -174zM605 1116q0 -48 24.5 -102t79.5 -129q81 24 138 57.5t93 72t53 79.5t17 80q0 37 -13.5 66.5t-38 50t-58.5 31.5t-74 11q-45 0 -85.5 -17t-70.5 -46.5t-47.5 -69t-17.5 -84.5z" />
<glyph unicode="'" horiz-adv-x="518" d="M311 904l115 539h160l-115 -539h-160z" />
<glyph unicode="(" horiz-adv-x="728" d="M192 330q0 155 30 308.5t87 297t139.5 272.5t188.5 235h192q-111 -115 -197.5 -245.5t-145 -272.5t-89 -292.5t-30.5 -305.5q0 -83 5.5 -160t16.5 -151t28.5 -146.5t41.5 -146.5h-154q-24 53 -45 125.5t-36 154t-23.5 166t-8.5 161.5z" />
<glyph unicode=")" horiz-adv-x="728" d="M27 -277q111 115 197 245.5t144.5 272.5t89 292.5t30.5 305.5q0 83 -5.5 160t-16.5 151t-28.5 146.5t-41.5 146.5h154q24 -53 45 -125.5t36 -154t23.5 -166.5t8.5 -161q0 -155 -29.5 -308.5t-86.5 -297t-139.5 -272.5t-188.5 -235h-192z" />
<glyph unicode="*" horiz-adv-x="1032" d="M243 912l319 121l-257 171l101 122l233 -202l53 325l144 -12l-85 -323l309 154l45 -134l-318 -121l256 -171l-100 -123l-234 201l-52 -323l-144 12l85 322l-309 -154z" />
<glyph unicode="+" d="M203 506l33 148h431l92 435h152l-92 -435h433l-33 -148h-431l-93 -435h-152l93 435h-433z" />
<glyph unicode="," horiz-adv-x="628" d="M50 -367l217 569h202l-269 -569h-150z" />
<glyph unicode="-" horiz-adv-x="966" d="M201 499l35 163h656l-35 -163h-656z" />
<glyph unicode="." horiz-adv-x="608" d="M114 120q0 27 10.5 50.5t28 41.5t41 28t50.5 10t50.5 -10t41.5 -28t28 -41.5t10 -50.5t-10 -50.5t-28 -41t-41.5 -28t-50.5 -10.5t-50.5 10.5t-41 28t-28 41t-10.5 50.5z" />
<glyph unicode="/" horiz-adv-x="712" d="M-69 -325l816 1768h154l-818 -1768h-152z" />
<glyph unicode="0" horiz-adv-x="1290" d="M203 482q0 142 23.5 271t67 239.5t103.5 200t133 152.5t156.5 97.5t173.5 34.5q98 0 177 -37.5t135 -106t86 -164t30 -212.5q0 -143 -23.5 -272t-66 -239t-102.5 -198.5t-133 -151t-156.5 -96.5t-173.5 -34q-99 0 -178.5 37t-135.5 104.5t-86 163t-30 211.5zM383 485 q0 -84 17.5 -151t51.5 -113.5t82.5 -71.5t111.5 -25q62 0 121 30t110 84.5t93.5 130.5t73 168.5t47.5 198.5t17 220q0 84 -17.5 151t-51 114t-81.5 72t-109 25q-63 0 -122 -30t-110.5 -85t-94.5 -131.5t-74 -169t-48 -198.5t-17 -219z" />
<glyph unicode="1" horiz-adv-x="955" d="M267 961l44 206l443 276h179l-307 -1443h-180l260 1223h-16z" />
<glyph unicode="2" horiz-adv-x="1237" d="M101 0l29 139l615 545q96 85 156 143.5t93.5 103t46 81.5t12.5 79q0 49 -19.5 91t-54.5 73t-82.5 48t-104.5 17q-59 0 -110.5 -18t-92 -51t-67.5 -80t-37 -104v-1h-38t-46 0.5t-48 0.5h-45q10 91 52 166.5t107.5 129.5t151.5 84t186 30q92 0 171.5 -28t137.5 -77t91 -116 t33 -145q0 -61 -18.5 -117t-65 -119.5t-124.5 -141.5t-197 -182l-426 -373l-4 -16h702l-34 -162h-970z" />
<glyph unicode="3" horiz-adv-x="1284" d="M163 352q0 7 0.5 15.5t1.5 16.5h174v-8q0 -56 23.5 -102.5t66 -80t101.5 -52t130 -18.5q80 0 144.5 21.5t110 61.5t70 96.5t24.5 127.5q0 52 -23 95.5t-64.5 74.5t-98.5 48t-125 17h-156l32 154h209q65 0 121.5 22t98.5 60.5t66 90.5t24 112q0 48 -19.5 87.5t-55 68 t-85 44t-109.5 15.5q-52 0 -101 -16.5t-89.5 -46t-70 -70.5t-44.5 -90h-177q18 86 63 156t110 120t148 77.5t177 27.5q95 0 175.5 -27t139.5 -74t92 -112t33 -141q0 -72 -23.5 -134.5t-67 -111.5t-104 -83t-135.5 -49l-3 -16q119 -26 183 -100.5t64 -189.5q0 -104 -40 -191 t-112 -149.5t-172.5 -97.5t-220.5 -35q-102 0 -191 30t-154 82t-103 122.5t-38 151.5z" />
<glyph unicode="4" horiz-adv-x="1318" d="M121 299l27 171q66 85 155 193.5t194 233.5t224.5 263t247.5 283h274l-209 -983h205l-34 -161h-205l-64 -299h-176l64 299h-703zM339 459h520l173 817h-12q-72 -81 -154.5 -175.5t-169.5 -198t-177 -213t-178 -218.5z" />
<glyph unicode="5" horiz-adv-x="1267" d="M176 358q0 7 0.5 15t1.5 13h178v-7q0 -57 22 -103.5t62 -80.5t96 -52.5t123 -18.5q80 0 145.5 28.5t112 79t72 120.5t25.5 153q0 66 -22.5 119t-61.5 89.5t-92 56t-115 19.5q-92 0 -166.5 -34.5t-125.5 -94.5h-178l244 783h796l-35 -161h-646l-133 -437l16 -2 q57 50 125.5 73.5t147.5 23.5q89 0 167.5 -30.5t137 -85.5t92.5 -131t34 -166q0 -122 -38 -224.5t-109 -177.5t-172 -117t-227 -42q-101 0 -188.5 30.5t-151.5 83t-100.5 124t-36.5 154.5z" />
<glyph unicode="6" horiz-adv-x="1305" d="M198 491q0 182 44.5 354t125.5 312q91 156 223 238t292 82q95 0 176.5 -29.5t142 -82.5t96.5 -126t40 -160h-186q-5 54 -27.5 98t-59.5 75t-87.5 48t-110.5 17q-167 0 -285.5 -143t-176.5 -415l16 -2q69 92 169 141.5t215 49.5q94 0 173.5 -30t136.5 -84.5t89 -130 t32 -166.5q0 -121 -43 -225t-119 -181t-178.5 -121t-221.5 -44q-109 0 -197 37t-150 105t-95.5 165.5t-33.5 217.5zM385 415q0 -65 21.5 -118t61 -91t95 -59t123.5 -21q76 0 142.5 30.5t115.5 83t77 123.5t28 153q0 62 -21 113t-59 88t-91 57t-116 20q-78 0 -147 -29.5 t-120 -80.5t-80.5 -120.5t-29.5 -148.5z" />
<glyph unicode="7" horiz-adv-x="1167" d="M147 0l920 1266l3 16h-737l35 161h925l-36 -167l-913 -1276h-197z" />
<glyph unicode="8" horiz-adv-x="1308" d="M147 347q0 83 29 156.5t81 130.5t122.5 93t154.5 44l4 16q-86 42 -133.5 113t-47.5 157q0 91 37.5 168t103.5 133t156 87.5t196 31.5q94 0 175.5 -26.5t141.5 -73.5t94.5 -110.5t34.5 -137.5q0 -71 -23 -133.5t-64.5 -111.5t-100 -83t-130.5 -48l-4 -16 q109 -42 170.5 -123t61.5 -185q0 -101 -41 -186t-114.5 -146.5t-174.5 -96t-221 -34.5q-111 0 -204.5 28t-161 78.5t-105 120.5t-37.5 154zM335 371q0 -58 23 -104.5t65.5 -78.5t103 -49.5t136.5 -17.5q78 0 144 22.5t114 63t75 97t27 123.5q0 57 -24 103.5t-67 79.5 t-103.5 51.5t-133.5 18.5q-78 0 -144 -23t-114 -64.5t-75 -98t-27 -123.5zM533 1045q0 -48 20 -88t56 -68.5t86.5 -44.5t111.5 -16q66 0 122.5 21t97 58t63.5 88.5t23 111.5q0 49 -20 88.5t-56 67.5t-86.5 43.5t-112.5 15.5q-67 0 -123 -20t-96.5 -57t-63 -88t-22.5 -112z " />
<glyph unicode="9" horiz-adv-x="1306" d="M154 362h186q5 -54 27.5 -98t59.5 -74.5t87.5 -47t110.5 -16.5q167 0 285.5 143t176.5 415l-16 2q-69 -92 -169 -141.5t-215 -49.5q-95 0 -174 30.5t-136 85t-89 130.5t-32 167q0 121 43 225t119 180.5t178.5 120t221.5 43.5q109 0 197 -36.5t150 -104.5t95.5 -165 t33.5 -217q0 -182 -44.5 -356t-125.5 -314q-91 -156 -223 -237t-292 -81q-95 0 -176.5 29t-142 81.5t-96.5 125.5t-40 160zM443 929q0 -62 21 -113.5t59 -88.5t91 -57.5t116 -20.5q78 0 147 29.5t120 81.5t80.5 121t29.5 149q0 65 -21.5 118t-61 90.5t-95 58t-123.5 20.5 q-76 0 -142.5 -30t-115.5 -82.5t-77 -123t-28 -152.5z" />
<glyph unicode=":" horiz-adv-x="608" d="M114 120q0 27 10.5 50.5t28 41.5t41 28t50.5 10t50.5 -10t41.5 -28t28 -41.5t10 -50.5t-10 -50.5t-28 -41t-41.5 -28t-50.5 -10.5t-50.5 10.5t-41 28t-28 41t-10.5 50.5zM275 889q0 27 10.5 50.5t28 41.5t41 28t50.5 10t50.5 -10t41.5 -28t28 -41.5t10 -50.5t-10 -50.5 t-28 -41t-41.5 -28t-50.5 -10.5t-50.5 10.5t-41 28t-28 41t-10.5 50.5z" />
<glyph unicode=";" horiz-adv-x="608" d="M-24 -367l217 569h202l-269 -569h-150zM275 889q0 27 10.5 50.5t28 41.5t41 28t50.5 10t50.5 -10t41.5 -28t28 -41.5t10 -50.5t-10 -50.5t-28 -41t-41.5 -28t-50.5 -10.5t-50.5 10.5t-41 28t-28 41t-10.5 50.5z" />
<glyph unicode="&#x3c;" d="M276 564l30 142l988 433l-40 -188l-790 -327l-3 -16l625 -445l-39 -184z" />
<glyph unicode="=" horiz-adv-x="1329" d="M167 312l32 149h1008l-32 -149h-1008zM249 700l32 149h1008l-32 -149h-1008z" />
<glyph unicode="&#x3e;" d="M152 -21l40 188l790 327l3 16l-625 445l39 184l771 -585l-30 -142z" />
<glyph unicode="?" horiz-adv-x="1050" d="M247 1089q16 82 54 150t96.5 116t137 74.5t175.5 26.5q93 0 169.5 -26.5t131 -71.5t84 -105t29.5 -127q0 -66 -22 -125.5t-60.5 -111t-91.5 -92.5t-116 -69q-54 -24 -91.5 -47t-62 -48.5t-39 -56.5t-21.5 -70l-11 -60h-179l18 82q14 64 35.5 110t54 81t76.5 62.5 t102 53.5q113 53 165 118.5t52 153.5q0 37 -15 72t-44.5 61.5t-73.5 42.5t-102 16q-103 0 -175.5 -55t-101.5 -155h-174zM317 121q0 31 10.5 56.5t29 44t44 29t55.5 10.5t55.5 -10.5t44 -29t28.5 -44t10 -56.5q0 -30 -10 -55.5t-28.5 -44t-44 -29t-55.5 -10.5t-55.5 10.5 t-44 29t-29 44t-10.5 55.5z" />
<glyph unicode="@" horiz-adv-x="1880" d="M242 482q0 138 31.5 262.5t90.5 230.5t142.5 191.5t187 146t225 93t255.5 32.5q159 0 295.5 -50t237 -137.5t157.5 -206.5t57 -258t-36.5 -259t-99.5 -209t-148.5 -140t-184.5 -51q-47 0 -86.5 13t-68.5 36t-45.5 54.5t-16.5 68.5q0 4 0.5 8t0.5 8l-16 1 q-38 -67 -101 -102.5t-143 -35.5q-71 0 -128.5 23.5t-98.5 66.5t-63 104t-22 136q0 108 31.5 201t87 161.5t130 108t161.5 39.5q44 0 84.5 -12.5t73.5 -34.5t55.5 -52t30.5 -64h16l26 124h157l-131 -603q-2 -12 -3 -19t-1 -12q0 -91 107 -91q57 0 110 44t94.5 117t66 168 t24.5 196q0 115 -47 213t-130 169t-197.5 111t-250.5 40q-108 0 -208 -29t-186.5 -81.5t-157.5 -126t-121.5 -164t-78 -194.5t-27.5 -217q0 -138 51 -251.5t143.5 -194.5t222.5 -125.5t288 -44.5q68 0 124 6.5t91 18.5l-27 -126q-52 -12 -112 -18.5t-123 -6.5 q-174 0 -320 54t-252 150t-165 229t-59 291zM826 521q0 -94 50 -149t135 -55q56 0 105.5 27t86.5 73.5t58.5 108.5t21.5 133q0 49 -14 89.5t-39.5 69t-61.5 44.5t-80 16q-55 0 -102.5 -28t-83 -76t-56 -113t-20.5 -140z" />
<glyph unicode="A" horiz-adv-x="1380" d="M11 0l845 1443h167l226 -1443h-176l-58 413h-579l-232 -413h-193zM522 566h473l-95 641h-16z" />
<glyph unicode="B" horiz-adv-x="1346" d="M123 0l307 1443h501q92 0 167 -22.5t128 -64t82 -100.5t29 -131q0 -68 -22 -128.5t-63 -108.5t-98.5 -82t-128.5 -49l-4 -16q58 -10 104 -34.5t78.5 -61t49.5 -84t17 -103.5q0 -100 -41.5 -184t-115.5 -145t-176 -95t-224 -34h-590zM340 159h367q79 0 147.5 21.5 t118 59.5t78 90t28.5 113q0 223 -296 223h-335zM481 821h298q82 0 150.5 19.5t117.5 54.5t76 84.5t27 108.5q0 100 -71 148t-217 48h-283z" />
<glyph unicode="C" horiz-adv-x="1463" d="M201 554q0 133 26 253t74 222.5t116.5 185.5t153 141t183.5 89.5t208 31.5q117 0 217 -36t173 -100t114 -152t41 -191v-6h-183v2q-6 72 -35 130.5t-78 100t-115.5 63.5t-147.5 22q-118 0 -220.5 -56.5t-178 -156t-118.5 -234t-43 -290.5q0 -102 27.5 -183.5t78.5 -138.5 t124 -87.5t163 -30.5q73 0 139 17.5t119.5 50t92 78t58.5 101.5h190q-27 -96 -83 -173t-136 -130.5t-181.5 -82t-218.5 -28.5q-126 0 -229.5 42t-177 119t-113.5 185.5t-40 241.5z" />
<glyph unicode="D" horiz-adv-x="1486" d="M125 0l305 1443h403q151 0 268 -43.5t197 -125t122 -198.5t42 -264q0 -116 -26 -221.5t-74 -195.5t-115.5 -163t-150.5 -124.5t-179 -79.5t-201 -28h-591zM341 160h382q119 0 220 48.5t175 134.5t116 204t42 256q0 113 -31 202.5t-89.5 151t-143.5 94t-193 32.5h-239z " />
<glyph unicode="E" horiz-adv-x="1219" d="M123 0l307 1443h896l-35 -162h-711l-100 -463h675l-34 -160h-674l-106 -496h712l-34 -162h-896z" />
<glyph unicode="F" horiz-adv-x="1170" d="M123 0l307 1443h878l-35 -162h-693l-107 -496h637l-34 -160h-637l-131 -625h-185z" />
<glyph unicode="G" horiz-adv-x="1525" d="M202 562q0 132 26 251.5t74 221t116 183.5t152.5 139.5t183.5 88.5t209 31q112 0 208.5 -33t168.5 -92.5t116 -142t51 -181.5q1 -6 1 -12.5v-23.5h-183q-5 73 -34 131.5t-78 100t-116 64t-148 22.5q-79 0 -151.5 -25.5t-134.5 -72t-112.5 -112t-86.5 -146.5t-55.5 -175.5 t-19.5 -197.5q0 -104 28.5 -187t82 -141t130 -89t172.5 -31q86 0 162 28t136.5 79t102 123t59.5 160l11 55h-400l34 158h584l-42 -196q-60 -281 -232.5 -427.5t-440.5 -146.5q-129 0 -234.5 43t-181 121t-117 188t-41.5 244z" />
<glyph unicode="H" horiz-adv-x="1522" d="M123 0l307 1443h184l-133 -624h788l133 624h184l-307 -1443h-185l140 657h-788l-140 -657h-183z" />
<glyph unicode="I" horiz-adv-x="550" d="M123 0l307 1443h184l-307 -1443h-184z" />
<glyph unicode="J" horiz-adv-x="1102" d="M96 337h181q1 -47 17 -84.5t45 -63.5t69.5 -40t91.5 -14q208 0 265 269l221 1039h179l-228 -1080q-40 -189 -156.5 -293t-302.5 -104q-87 0 -159.5 28.5t-123.5 78t-77 117.5q-23 57 -23 122q0 12 1 25z" />
<glyph unicode="K" horiz-adv-x="1349" d="M123 0l307 1443h179l-149 -701h16l772 701h235l-702 -635l449 -808h-210l-381 697l-229 -204l-107 -493h-180z" />
<glyph unicode="L" horiz-adv-x="1164" d="M123 0l307 1443h184l-273 -1281h694l-34 -162h-878z" />
<glyph unicode="M" horiz-adv-x="1792" d="M123 0l307 1443h200l242 -1194h16l746 1194h222l-307 -1443h-172l234 1102h-12l-685 -1092h-152l-221 1092h-12l-234 -1102h-172z" />
<glyph unicode="N" horiz-adv-x="1520" d="M123 0l307 1443h177l534 -1153h16l245 1153h182l-307 -1443h-179l-533 1150h-16l-244 -1150h-182z" />
<glyph unicode="O" horiz-adv-x="1579" d="M201 563q0 131 26.5 250t76 220.5t119.5 183.5t157 140t188.5 89t213.5 31q126 0 233 -45t184.5 -124.5t121 -189t43.5 -238.5q0 -132 -26.5 -251.5t-75.5 -221t-118.5 -183t-155.5 -139t-187.5 -88.5t-213.5 -31q-127 0 -234.5 45t-185.5 124.5t-122 189t-44 238.5z M391 579q0 -100 29.5 -182t83.5 -140.5t129.5 -91t167.5 -32.5q124 0 229 54.5t181.5 152t119.5 231.5t43 293q0 99 -29.5 181.5t-83 141t-128 91t-165.5 32.5q-123 0 -229 -55.5t-183 -154t-121 -232t-44 -289.5z" />
<glyph unicode="P" horiz-adv-x="1304" d="M123 0l307 1443h507q86 0 161.5 -27.5t131.5 -78t88.5 -122.5t32.5 -162q0 -126 -44.5 -226t-122.5 -169.5t-183 -106t-225 -36.5h-360l-109 -515h-184zM450 675h315q89 0 162.5 24t126 70t81 113.5t28.5 154.5q0 58 -20.5 104t-58 77.5t-91 48t-119.5 16.5h-294z" />
<glyph unicode="Q" horiz-adv-x="1579" d="M201 563q0 131 26.5 250t76 220.5t120 183.5t157 140t188 89t213.5 31q126 0 232.5 -44.5t184.5 -124t121.5 -189t43.5 -239.5q0 -132 -26.5 -252.5t-76.5 -224t-122.5 -187t-164.5 -141.5l123 -238h-192l-85 164q-57 -19 -115 -27t-118 -8q-126 0 -233.5 45t-186 124.5 t-122.5 189t-44 238.5zM391 579q0 -100 29.5 -182.5t83.5 -141t129.5 -90.5t167.5 -32q36 0 71 4t70 14l-136 262h194l96 -186q66 47 117.5 114t87 148.5t54.5 176.5t19 198q0 100 -29.5 182t-83 140.5t-128.5 91t-165 32.5q-123 0 -228.5 -55.5t-183 -153.5t-121.5 -232 t-44 -290z" />
<glyph unicode="R" horiz-adv-x="1338" d="M123 0l307 1443h499q98 0 177.5 -27t136 -77t87 -120.5t30.5 -157.5q0 -84 -27.5 -159t-78 -135t-122 -103.5t-159.5 -64.5l207 -599h-196l-188 571h-368l-121 -571h-184zM462 731h348q79 0 145.5 23t114 64.5t74 99t26.5 126.5q0 55 -17 99t-49 75t-77.5 48t-102.5 17 h-344z" />
<glyph unicode="S" horiz-adv-x="1276" d="M119 400h182q13 -62 45.5 -112.5t81 -85.5t111 -54t135.5 -19q75 0 136.5 18.5t105.5 52t68 81t24 104.5q0 89 -62 150t-201 110l-137 48q-148 52 -229.5 148.5t-81.5 221.5q0 89 38.5 164.5t107 131t161.5 87t202 31.5q103 0 191.5 -31t156 -86.5t109 -133t49.5 -169.5 h-181q-28 122 -116 189.5t-220 67.5q-67 0 -123.5 -17.5t-97.5 -49t-64 -74.5t-23 -94q0 -77 56.5 -134t175.5 -100l130 -47q178 -65 264 -160.5t86 -229.5q0 -98 -39.5 -179t-111 -139.5t-171 -91t-218.5 -32.5q-111 0 -204 30t-162.5 86t-114 136.5t-59.5 181.5z" />
<glyph unicode="T" horiz-adv-x="1291" d="M303 1281l34 162h1110l-34 -162h-463l-272 -1281h-184l272 1281h-463z" />
<glyph unicode="U" horiz-adv-x="1524" d="M233 414v14q1 24 3 50q4 32 10 66l188 899h184l-186 -887q-8 -34 -11 -68q-2 -25 -2 -49v-16q3 -66 25.5 -120t65.5 -92t107.5 -58.5t150.5 -20.5q80 0 150.5 24.5t126.5 70.5t95 113t57 151l203 952h184l-210 -987q-25 -116 -77 -207t-131.5 -154t-187 -96t-242.5 -33 q-123 0 -216.5 35t-156.5 95.5t-96 142t-34 175.5z" />
<glyph unicode="V" horiz-adv-x="1380" d="M316 1443h170l186 -1204h16l671 1204h199l-838 -1443h-178z" />
<glyph unicode="W" horiz-adv-x="1982" d="M337 1443h165l58 -1173h12l572 1173h162l94 -1173h12l541 1173h186l-692 -1443h-177l-97 1139h-12l-560 -1139h-177z" />
<glyph unicode="X" horiz-adv-x="1390" d="M31 0l655 752l-323 691h206l249 -574h16l508 574h205l-649 -727l332 -716h-194l-268 586h-16l-517 -586h-204z" />
<glyph unicode="Y" horiz-adv-x="1344" d="M317 1443h187l268 -649h16l526 649h207l-692 -848l-124 -595h-184l132 621z" />
<glyph unicode="Z" horiz-adv-x="1355" d="M84 0l27 128l1048 1137l4 16h-779l34 162h1022l-27 -128l-1045 -1137l-3 -16h820l-34 -162h-1067z" />
<glyph unicode="[" horiz-adv-x="758" d="M83 -240l358 1684h452l-29 -136h-284l-300 -1413h296l-29 -135h-464z" />
<glyph unicode="\" horiz-adv-x="712" d="M311 1443h144l64 -1768h-142z" />
<glyph unicode="]" horiz-adv-x="758" d="M1 -240l29 136h284l300 1413h-296l29 134h464l-358 -1683h-452z" />
<glyph unicode="^" horiz-adv-x="828" d="M168 815l396 609h184l138 -609h-161l-88 463h-16l-284 -463h-169z" />
<glyph unicode="_" horiz-adv-x="916" d="M-120 -235l27 128h936l-27 -128h-936z" />
<glyph unicode="`" horiz-adv-x="1094" d="M594 1601h214l180 -338h-188z" />
<glyph unicode="a" horiz-adv-x="1126" d="M106 279q0 79 30.5 142.5t90 108.5t146 71t198.5 31l306 14l16 73q3 17 4.5 28t1.5 23q0 82 -61 127.5t-170 45.5q-91 0 -152 -34.5t-87 -100.5h-182q18 67 57.5 120.5t96 91t128 57.5t153.5 20q89 0 161.5 -21.5t123.5 -61t79 -95t28 -124.5q0 -43 -9 -88l-150 -707 h-167l30 141h-16q-57 -75 -142 -117.5t-184 -42.5q-71 0 -131 23t-104.5 63t-69.5 94.5t-25 117.5zM283 298q0 -37 15 -67.5t42.5 -53t65.5 -35t84 -12.5q61 0 115.5 19t98.5 52.5t74.5 80t42.5 101.5l27 124l-287 -14q-133 -7 -205.5 -58.5t-72.5 -136.5z" />
<glyph unicode="b" horiz-adv-x="1259" d="M110 0l320 1506h172l-120 -575h16q61 82 146 124t192 42q81 0 151 -31.5t121.5 -87t80.5 -132t29 -166.5q0 -148 -42.5 -275.5t-117 -221.5t-175 -148t-217.5 -54q-56 0 -109 16t-97 45t-76.5 69t-48.5 88h-16l-44 -199h-165zM382 434q0 -69 19 -124t54 -93.5t85 -59.5 t113 -21q82 0 152.5 39.5t122.5 108.5t81 164t29 206q0 137 -68 212.5t-191 75.5q-84 0 -156.5 -39.5t-126 -108t-84 -161t-30.5 -199.5z" />
<glyph unicode="c" horiz-adv-x="1135" d="M156 438q0 142 42.5 262.5t118.5 208.5t180.5 138t227.5 50q80 0 150 -22.5t124 -62.5t90.5 -95.5t48.5 -121.5q2 -11 3 -23l2 -24h-176q-4 42 -25.5 77.5t-55.5 61.5t-79 40.5t-96 14.5q-80 0 -148.5 -37t-118.5 -101.5t-78.5 -152.5t-28.5 -190q0 -75 19 -135t54 -102 t85 -64t112 -22q100 0 172 44.5t103 125.5h179q-17 -74 -59 -134t-103.5 -103t-139.5 -66.5t-167 -23.5q-98 0 -178.5 32.5t-137.5 92.5t-88.5 144t-31.5 188z" />
<glyph unicode="d" horiz-adv-x="1265" d="M153 418q0 97 19.5 185.5t55.5 164t86.5 136.5t112 104t133 66t149.5 23q58 0 110.5 -16t95 -44.5t73 -69t44.5 -88.5h16l133 627h175l-320 -1506h-166l31 147h-16q-59 -77 -148 -121.5t-192 -44.5q-81 0 -152 30.5t-124.5 87.5t-84.5 138t-31 181zM333 444 q0 -68 19.5 -125t54.5 -97.5t84 -63t109 -22.5q84 0 155.5 39.5t124.5 108t83 161t30 199.5q0 69 -19 124t-54 93.5t-85 59.5t-113 21q-83 0 -154 -37t-123 -103t-82 -157.5t-30 -200.5z" />
<glyph unicode="e" horiz-adv-x="1176" d="M157 432q0 149 41.5 271.5t115.5 210t177.5 135.5t226.5 48q83 0 157.5 -29t130.5 -84.5t89 -136.5t33 -186q0 -16 -1 -37.5t-3 -44t-4 -44t-5 -36.5h-777q-1 -14 -1.5 -27t-0.5 -27q0 -83 24 -141.5t62.5 -95.5t86.5 -53.5t97 -16.5q107 0 172 37t99 100h183 q-17 -62 -56 -116t-98.5 -93.5t-138 -62t-172.5 -22.5q-90 0 -170 29.5t-139.5 87t-94 141.5t-34.5 193zM361 638h585q1 5 1.5 18.5t0.5 26.5q0 53 -15.5 100.5t-46.5 83.5t-77 57t-107 21q-62 0 -116 -22t-98 -62.5t-76 -97t-51 -125.5z" />
<glyph unicode="f" horiz-adv-x="741" d="M174 0l194 934h-179l30 144h179l20 105q16 83 46 142t75.5 97t108.5 56t145 18q38 0 64 -2.5t57 -7.5l-29 -144q-17 4 -45.5 6.5t-63.5 2.5q-75 0 -120.5 -41t-62.5 -132l-19 -100h245l-30 -144h-245l-194 -934h-176z" />
<glyph unicode="g" horiz-adv-x="1247" d="M66 -106h183q6 -32 26 -61t54 -50.5t81.5 -34t106.5 -12.5q72 0 128 18t96.5 50t66.5 76.5t38 97.5l47 200h-16q-59 -82 -141 -122t-185 -40q-82 0 -153.5 31t-124.5 88t-83.5 136.5t-30.5 175.5q0 144 41 263.5t113 205.5t170 133.5t212 47.5q57 0 110.5 -16t98.5 -45 t78.5 -69t49.5 -88h16l42 199h167l-244 -1130q-18 -83 -60.5 -149.5t-107.5 -113.5t-151 -72.5t-191 -25.5q-94 0 -172 25t-135.5 67t-91 97.5t-38.5 117.5zM339 473q0 -72 18.5 -128.5t53 -96t83.5 -60t110 -20.5q81 0 151 34.5t121 97t80 150t29 194.5q0 69 -19.5 124 t-55.5 93.5t-87.5 59.5t-114.5 21q-80 0 -148 -33t-117 -94t-76.5 -148t-27.5 -194z" />
<glyph unicode="h" horiz-adv-x="1236" d="M110 0l322 1506h175l-127 -589h16q25 36 57 68.5t72.5 57.5t91 39.5t112.5 14.5q79 0 143 -26.5t109 -71.5t69.5 -103.5t24.5 -122.5q0 -56 -14 -124l-138 -649h-175l132 619q6 29 9.5 55.5t3.5 49.5q0 49 -16 89t-47 68.5t-75 44.5t-99 16q-64 0 -118.5 -21.5 t-97.5 -59.5t-72.5 -90t-42.5 -113l-140 -658h-175z" />
<glyph unicode="i" horiz-adv-x="516" d="M110 0l231 1078h176l-231 -1078h-176zM379 1417q0 25 9.5 46.5t26 38t38 26t46.5 9.5t46.5 -9.5t38 -26t26 -38t9.5 -46.5t-9.5 -46.5t-26 -38t-38 -26t-46.5 -9.5t-46.5 9.5t-38 26t-26 38t-9.5 46.5z" />
<glyph unicode="j" horiz-adv-x="516" d="M-164 -394l33 152q16 -2 27.5 -2.5t25.5 -0.5q38 0 66 8.5t49 27.5t35 49.5t23 75.5l247 1162h172l-252 -1185q-16 -76 -45 -131t-71.5 -90.5t-99.5 -52.5t-129 -17q-12 0 -36 1t-45 3zM379 1417q0 25 9.5 46.5t26 38t38 26t46.5 9.5t46.5 -9.5t38 -26t26 -38t9.5 -46.5 t-9.5 -46.5t-26 -38t-38 -26t-46.5 -9.5t-46.5 9.5t-38 26t-26 38t-9.5 46.5z" />
<glyph unicode="k" horiz-adv-x="1086" d="M110 0l320 1506h174l-185 -870h16l546 442h227l-565 -465l363 -613h-201l-301 516l-130 -94l-90 -422h-174z" />
<glyph unicode="l" horiz-adv-x="516" d="M110 0l320 1506h176l-320 -1506h-176z" />
<glyph unicode="m" horiz-adv-x="1782" d="M100 0l229 1078h167l-35 -166h16q22 40 54 73.5t71 58.5t83.5 39t89.5 14q59 0 107.5 -17t85 -44.5t60 -63t32.5 -72.5h16q24 39 58 74.5t77.5 63t96 43.5t114.5 16q66 0 121.5 -22t96.5 -61t64 -93t23 -118q0 -56 -14 -124l-144 -679h-175l138 649q6 29 9.5 55.5 t3.5 49.5q0 39 -13 73t-37.5 59.5t-60 40.5t-81.5 15q-48 0 -94 -18t-84.5 -52.5t-67 -84t-41.5 -111.5l-144 -676h-175l138 649q6 29 9.5 55.5t3.5 49.5q0 39 -13 73t-37.5 59.5t-60 40.5t-81.5 15q-48 0 -94 -18t-84.5 -51.5t-66.5 -80.5t-40 -104l-146 -688h-175z" />
<glyph unicode="n" horiz-adv-x="1218" d="M100 0l229 1078h167l-34 -161h16q25 36 58 68.5t75 57.5t93 39.5t111 14.5q78 0 141 -26.5t107.5 -71.5t69 -103.5t24.5 -122.5q0 -56 -14 -124l-138 -649h-175l132 619q6 29 9.5 55.5t3.5 49.5q0 49 -16 89t-46.5 68.5t-73.5 44.5t-97 16q-62 0 -116 -21.5t-96.5 -59.5 t-72 -90t-42.5 -113l-140 -658h-175z" />
<glyph unicode="o" horiz-adv-x="1212" d="M155 427q0 136 39 258t112.5 213.5t179.5 145t241 53.5q99 0 180 -33t138.5 -92t89 -140.5t31.5 -178.5q0 -87 -17 -171t-50.5 -158.5t-82 -137.5t-112 -108.5t-141 -71t-167.5 -25.5q-99 0 -180 33t-139 92t-90 141t-32 180zM338 448q0 -67 19 -124t55 -99t88 -65.5 t118 -23.5q70 0 136 35t116.5 98t81 150.5t30.5 192.5q0 77 -18.5 138.5t-54 104t-85.5 65t-113 22.5q-87 0 -156 -37.5t-117.5 -103.5t-74 -156.5t-25.5 -196.5z" />
<glyph unicode="p" horiz-adv-x="1254" d="M28 -360l306 1438h166l-31 -147h16q29 38 67.5 69t82.5 52.5t93.5 33t100.5 11.5q81 0 151.5 -31.5t122 -87t81 -132t29.5 -166.5q0 -148 -42.5 -275.5t-117 -221.5t-175 -148t-217.5 -54q-59 0 -111 16t-94.5 44.5t-73 69t-44.5 88.5h-16l-121 -559h-173zM377 434 q0 -69 19 -124t54 -93.5t85 -59.5t113 -21q82 0 152.5 39.5t122.5 108.5t81 164t29 206q0 137 -68 212.5t-191 75.5q-84 0 -156.5 -39.5t-126 -108t-84 -161t-30.5 -199.5z" />
<glyph unicode="q" horiz-adv-x="1251" d="M152 414q0 144 42.5 268.5t117 217t175 145t217.5 52.5q56 0 109 -16t97 -45t76.5 -69t48.5 -88h16l42 199h167l-306 -1438h-172l106 507h-16q-61 -82 -146 -124t-192 -42q-81 0 -151 32.5t-121.5 90t-80.5 137t-29 173.5zM332 440q0 -145 68 -224.5t191 -79.5 q84 0 156.5 39.5t126 108t84 161t30.5 199.5q0 69 -19 124t-54 93.5t-85 59.5t-113 21q-83 0 -153 -38t-122 -105.5t-81 -159.5t-29 -199z" />
<glyph unicode="r" horiz-adv-x="791" d="M92 0l229 1078h166l-29 -137h16q54 81 124 118.5t165 37.5q18 0 36.5 -1t36 -3.5t31.5 -5t22 -5.5l-37 -165q-12 3 -29.5 5t-36.5 4t-38 3t-32 1q-130 0 -206.5 -71t-108.5 -222l-135 -637h-174z" />
<glyph unicode="s" horiz-adv-x="1052" d="M98 289h177q10 -36 32 -65.5t54 -51.5t74 -34t93 -12q55 0 100.5 12.5t78.5 35t51.5 53t18.5 67.5q0 48 -30 85t-105 61l-165 53q-126 41 -188 107.5t-62 174.5q0 72 30.5 131.5t84.5 101.5t128 65.5t161 23.5q86 0 156 -21t121.5 -60t84 -93.5t43.5 -120.5h-171 q-17 70 -79.5 109.5t-157.5 39.5q-50 0 -91.5 -12t-72 -33t-47.5 -50.5t-17 -64.5q0 -50 38.5 -86t112.5 -60l146 -47q68 -22 116.5 -49.5t80 -63t46 -80t14.5 -98.5q0 -71 -32.5 -130.5t-90.5 -103t-137.5 -68t-173.5 -24.5q-89 0 -163.5 22.5t-130 63t-89 97t-39.5 125.5z " />
<glyph unicode="t" horiz-adv-x="744" d="M191 934l30 144h182l55 269h175l-57 -269h250l-30 -144h-250l-123 -578q-12 -57 -12 -97q0 -62 35.5 -89t100.5 -27q23 0 37.5 1t31.5 3l-31 -145q-26 -5 -50.5 -7.5t-50.5 -2.5q-56 0 -103.5 13.5t-82 40.5t-53.5 68t-19 96q0 40 11 93l135 631h-181z" />
<glyph unicode="u" horiz-adv-x="1215" d="M172 294q0 12 1 29t3 36.5t5 38.5t6 36l135 644h175l-131 -619q-3 -15 -5.5 -32t-4.5 -33.5t-3 -31.5t-1 -24q0 -104 56.5 -153t162.5 -49q65 0 121.5 22t101.5 61t75.5 93t44.5 118l138 648h174l-229 -1078h-166l33 146h-16q-23 -35 -56.5 -65t-77 -52.5t-96.5 -35 t-114 -12.5q-74 0 -135 24t-104.5 66t-68 99t-24.5 124z" />
<glyph unicode="v" horiz-adv-x="1110" d="M238 1078h173l126 -856h16l468 856h191l-622 -1078h-183z" />
<glyph unicode="w" horiz-adv-x="1586" d="M237 1078h157l49 -853h16l411 853h175l57 -862h16l396 862h173l-532 -1078h-175l-70 827h-16l-411 -827h-174z" />
<glyph unicode="x" horiz-adv-x="1076" d="M18 0l484 548l-258 530h188l179 -401h16l337 401h205l-481 -539l256 -539h-181l-185 405h-16l-339 -405h-205z" />
<glyph unicode="y" horiz-adv-x="1112" d="M40 -380l26 147q16 -5 42 -9t60 -4q27 0 52 9t49.5 30t50 55.5t53.5 86.5l39 73l-175 1070h171l128 -857h16l472 857h189l-686 -1196q-47 -83 -90 -136t-86.5 -83.5t-90.5 -42.5t-102 -12q-37 0 -67.5 4.5t-50.5 7.5z" />
<glyph unicode="z" horiz-adv-x="1104" d="M77 0l27 126l764 792l3 16h-594l32 144h826l-29 -129l-758 -789l-3 -16h593l-31 -144h-830z" />
<glyph unicode="{" horiz-adv-x="823" d="M151 519l41 191q50 0 86 11t62.5 36t44 65.5t30.5 100.5l59 275q19 88 58 149.5t97.5 100.5t135.5 56.5t171 17.5h50l-30 -141h-45q-63 0 -110 -12.5t-81 -39.5t-56 -70t-35 -103l-63 -296q-25 -117 -82 -173t-148 -65l-3 -16q61 -14 99.5 -53t38.5 -104q0 -19 -2.5 -40 t-7.5 -44l-71 -334q-5 -23 -7.5 -43t-2.5 -37q0 -76 46.5 -112.5t148.5 -36.5h45l-29 -136h-48q-77 0 -138.5 17.5t-105 50t-66.5 77t-23 98.5q0 52 13 110l61 289q12 55 12 95q0 64 -34.5 90t-110.5 26z" />
<glyph unicode="|" horiz-adv-x="676" d="M135 -326l376 1769h148l-376 -1769h-148z" />
<glyph unicode="}" horiz-adv-x="824" d="M-30 -334l30 141h45q63 0 110 12.5t81 39.5t56 70t35 103l63 296q25 117 82 173t148 65l3 16q-61 14 -99.5 53t-38.5 104q0 19 2.5 40t7.5 44l71 334q5 23 7.5 43t2.5 37q0 76 -46.5 112.5t-148.5 36.5h-45l29 136h48q77 0 138.5 -17.5t105 -50t66.5 -77t23 -98.5 q0 -52 -13 -110l-61 -289q-12 -56 -12 -95q0 -64 34.5 -90t110.5 -26l-41 -191q-50 0 -86 -11t-62.5 -36t-44 -65.5t-30.5 -100.5l-59 -275q-19 -88 -58.5 -149.5t-98 -100.5t-135 -56.5t-170.5 -17.5h-50z" />
<glyph unicode="~" horiz-adv-x="1202" d="M56 573q9 80 38 141.5t71 103t94 63t109 21.5q50 0 88.5 -17t69.5 -42t56 -55t48.5 -55t47 -42t51.5 -17q54 0 88 40t50 127h171q-9 -80 -38 -141.5t-71 -103t-94 -63t-109 -21.5q-51 0 -89.5 17t-69.5 42t-56.5 55t-49 55t-47 42t-51.5 17q-54 0 -87 -40t-49 -127h-171z " />
<glyph unicode="&#xa1;" horiz-adv-x="636" d="M87 -342l222 964h166l-188 -964h-200zM328 981q0 30 10 55t28.5 44t44 29.5t55.5 10.5t55.5 -10.5t44 -29.5t29 -44t10.5 -55t-10.5 -55.5t-29 -44.5t-44 -29.5t-55.5 -10.5t-55.5 10.5t-44 29.5t-28.5 44.5t-10 55.5z" />
<glyph unicode="&#xa2;" d="M283 638q0 138 40 255.5t112 205t171 139.5t217 58l31 147h172l-35 -165q109 -32 182 -106t92 -177q2 -11 3 -23l2 -24h-176q-4 42 -25.5 77.5t-55.5 61.5t-79 40.5t-96 14.5q-80 0 -148.5 -37t-118.5 -101.5t-78.5 -152.5t-28.5 -190q0 -75 19 -135.5t54 -103t85 -65.5 t112 -23q100 0 172 44.5t103 125.5h179q-16 -70 -54.5 -127.5t-94.5 -100t-128 -68t-154 -30.5l-38 -178h-172l41 194q-70 19 -126.5 59t-96 97t-61 130t-21.5 158z" />
<glyph unicode="&#xa3;" d="M94 0l32 152q40 7 84 23.5t86.5 42.5t81 61t68 79t47 96.5t17.5 113.5q0 17 -1.5 38.5t-3.5 46.5h-314l30 144h269q-4 44 -7 87t-3 84q0 116 33.5 210t103 160.5t176.5 102.5t255 36q43 0 91 -4.5t94 -13t86.5 -20.5t70.5 -27l-35 -158q-24 14 -60 25.5t-78 20t-87 13.5 t-87 5q-85 0 -154 -19.5t-117.5 -59t-75 -99t-26.5 -140.5q0 -45 3 -97t8 -106h428l-30 -144h-389q1 -15 1.5 -29.5t0.5 -27.5q0 -90 -19.5 -160t-55 -122t-85.5 -87.5t-111 -56.5l-3 -16h771l-33 -154h-1062z" />
<glyph unicode="&#xa4;" d="M132 270l236 196q-23 43 -36 90.5t-13 99.5q0 72 24.5 136.5t68.5 115.5l-111 140l123 98l111 -141q39 20 83 31t92 11q72 0 136.5 -24.5t115.5 -67.5l237 196l87 -110l-235 -194q24 -43 37 -91t13 -100q0 -72 -24.5 -136.5t-68.5 -116.5l109 -138l-123 -98l-110 139 q-39 -20 -82.5 -30.5t-91.5 -10.5q-72 0 -136.5 24.5t-115.5 68.5l-239 -198zM446 656q0 -54 21 -102t57 -84t84 -57t102 -21t102 21t84 57t57 84t21 102t-21 102t-57 84t-84 57t-102 21t-102 -21t-84 -57t-57 -84t-21 -102z" />
<glyph unicode="&#xa5;" d="M292 269l29 136h278l35 166h-278l29 136h225l-301 736h187l268 -649h16l526 649h207l-601 -736h207l-29 -136h-274l-35 -166h274l-29 -136h-273l-55 -269h-185l57 269h-278z" />
<glyph unicode="&#xa6;" horiz-adv-x="676" d="M135 -326l142 669h148l-142 -669h-148zM369 774l142 669h148l-142 -669h-148z" />
<glyph unicode="&#xa7;" horiz-adv-x="1032" d="M57 51h177q9 -36 28.5 -65.5t49.5 -51.5t69 -34t86 -12q51 0 93 12.5t72.5 35t47 53t16.5 67.5q0 24 -6 44.5t-20 38.5t-38 33.5t-61 29.5l-145 53q-55 20 -99.5 47t-75.5 61.5t-48 78t-17 97.5q0 55 19.5 101.5t55 83.5t84 62.5t106.5 37.5l4 18q-41 24 -70.5 49.5 t-48 54t-27 61.5t-8.5 74q0 72 29 130.5t80 99.5t121.5 63.5t153.5 22.5q82 0 149 -22t116.5 -61t80 -93t39.5 -119h-171q-14 67 -71.5 108t-145.5 41q-46 0 -84 -12t-65.5 -33t-43 -50.5t-15.5 -64.5q0 -50 34.5 -84.5t106.5 -61.5l126 -47q60 -23 106 -49t77.5 -59.5 t47.5 -76t16 -96.5q0 -51 -17.5 -99t-50.5 -87.5t-81.5 -69t-110.5 -44.5l-3 -12q41 -25 69 -51t45.5 -54.5t25.5 -61.5t8 -73q0 -71 -31 -130t-86 -102t-131 -66.5t-166 -23.5q-81 0 -152.5 22.5t-125.5 63t-87 97t-37 125.5zM359 563q0 -50 34.5 -89.5t106.5 -66.5l92 -34 q49 9 89.5 27.5t69.5 46t44.5 62t15.5 75.5q0 24 -6 46t-20 42t-38 37t-61 31l-86 31q-51 -5 -95 -22t-76.5 -44t-51 -63.5t-18.5 -78.5z" />
<glyph unicode="&#xa8;" horiz-adv-x="1094" d="M458 1384q0 25 9.5 47t26 38.5t38.5 26t47 9.5t47 -9.5t38.5 -26t26 -38.5t9.5 -47t-9.5 -47t-26 -38.5t-38.5 -26t-47 -9.5t-47 9.5t-38.5 26t-26 38.5t-9.5 47zM862 1384q0 25 9.5 47t26 38.5t38.5 26t47 9.5t47 -9.5t38.5 -26t26 -38.5t9.5 -47t-9.5 -47t-26 -38.5 t-38.5 -26t-47 -9.5t-47 9.5t-38.5 26t-26 38.5t-9.5 47z" />
<glyph unicode="&#xa9;" horiz-adv-x="1742" d="M168 528q0 128 30.5 244.5t87.5 215.5t137.5 179.5t179.5 137.5t215.5 87.5t244.5 30.5q156 0 289 -53t231 -146.5t153.5 -221t55.5 -276.5q0 -129 -30.5 -245.5t-87.5 -216t-137.5 -180t-180 -137.5t-216 -87.5t-244.5 -30.5q-101 0 -194.5 25t-174.5 70t-147 108.5 t-113 141.5t-73 167.5t-26 186.5zM312 546q0 -122 46 -227.5t127 -183t190.5 -122t237.5 -44.5q103 0 197.5 26t176 73.5t148.5 114.5t114 149t73 177t26 199q0 124 -45.5 229.5t-125.5 182t-190 120t-240 43.5q-103 0 -197.5 -26t-176 -73.5t-148 -114t-114 -148.5 t-73.5 -177t-26 -198zM601 563q0 106 32 196.5t89 156.5t135 103.5t170 37.5q67 0 123 -18.5t97 -52.5t65 -82.5t29 -108.5h-132q-3 31 -19 58t-41.5 46.5t-59 30.5t-72.5 11q-60 0 -111.5 -27.5t-89 -76t-59 -114.5t-21.5 -143q0 -57 14 -102t40.5 -77t64 -49t84.5 -17 q75 0 129 33t77 94h134q-12 -55 -43.5 -100t-78 -77.5t-105 -50t-124.5 -17.5q-74 0 -134 25t-103 70t-66.5 109t-23.5 142z" />
<glyph unicode="&#xaa;" horiz-adv-x="942" d="M184 776q0 135 102 211.5t291 84.5l249 11l13 60q3 19 4 26t0 14q1 65 -47.5 101t-135.5 36q-72 0 -121 -27.5t-70 -79.5h-168q15 57 48.5 103t82 78t109.5 49.5t132 17.5q76 0 138.5 -18t106.5 -51.5t68 -81t24 -105.5q0 -20 -1.5 -38t-5.5 -35l-126 -591h-160l25 117 h-14q-46 -62 -117 -96t-153 -34q-59 0 -109 19t-86.5 52t-57.5 78.5t-21 98.5zM351 796q0 -29 12 -53.5t34 -42t52.5 -27t66.5 -9.5q48 0 91.5 14.5t78.5 41t59.5 62.5t33.5 79l21 99l-228 -11q-105 -5 -163 -45.5t-58 -107.5z" />
<glyph unicode="&#xab;" horiz-adv-x="1390" d="M207 561l2 8l439 416h219l-453 -432l-3 -16l248 -392h-190zM685 561l2 8l439 416h219l-453 -432l-3 -16l248 -392h-190z" />
<glyph unicode="&#xac;" d="M238 506l31 148h948l-112 -528h-148l81 380h-800z" />
<glyph unicode="&#xad;" horiz-adv-x="966" d="M201 499l35 163h656l-35 -163h-656z" />
<glyph unicode="&#xae;" horiz-adv-x="1261" d="M237 887q0 109 40.5 204.5t111 166t166 111t204.5 40.5t204.5 -40.5t166 -111t111 -166t40.5 -204.5t-40.5 -204.5t-111 -166t-166 -111t-204.5 -40.5t-204.5 40.5t-166 111t-111 166t-40.5 204.5zM341 887q0 -87 32 -163.5t88 -133t132 -89t163 -32.5q88 0 164.5 32.5 t133.5 89t90 133t33 163.5q0 88 -32.5 164t-89 132.5t-132.5 89t-164 32.5q-87 0 -163.5 -32.5t-133 -89t-89 -132.5t-32.5 -164zM497 655l106 499h241q33 0 61 -11t48.5 -29.5t32 -42.5t11.5 -50q0 -72 -42.5 -115.5t-108.5 -54.5l96 -196h-120l-90 183h-98l-39 -183h-98z M652 922h124q53 0 81 19.5t28 63.5q0 25 -19 42.5t-57 17.5h-127z" />
<glyph unicode="&#xaf;" horiz-adv-x="1094" d="M423 1286l29 136h674l-29 -136h-674z" />
<glyph unicode="&#xb0;" horiz-adv-x="820" d="M319 1194q0 59 22 111t60.5 90.5t90 61t111.5 22.5q59 0 111 -22.5t90.5 -61t61 -90.5t22.5 -111t-22.5 -111t-61 -90.5t-90.5 -61t-111 -22.5q-60 0 -111.5 22.5t-90 61t-60.5 90.5t-22 111zM446 1194q0 -32 13 -60.5t34.5 -49.5t50 -33.5t59.5 -12.5q33 0 62 12.5 t50 33.5t33.5 49.5t12.5 60.5q0 33 -12.5 61.5t-33.5 49.5t-50 33.5t-62 12.5q-31 0 -59.5 -12.5t-50 -33.5t-34.5 -49.5t-13 -61.5z" />
<glyph unicode="&#xb1;" d="M119 112l31 148h1018l-31 -148h-1018zM236 662l29 136h433l63 291h152l-63 -291h433l-29 -136h-433l-62 -291h-152l62 291h-433z" />
<glyph unicode="&#xb2;" horiz-adv-x="855" d="M245 900l27 126l356 297q63 52 102.5 88t62 63t30.5 49t8 46q0 53 -38.5 86.5t-99.5 33.5q-31 0 -58.5 -10t-49 -28t-36.5 -44t-21 -57v-3h-162q5 61 33 112.5t73.5 88.5t105.5 58t129 21q64 0 118.5 -18.5t94 -50.5t62 -76.5t22.5 -96.5q0 -40 -12 -76t-43 -76 t-83.5 -88.5t-133.5 -114.5l-212 -178l-2 -11h403l-30 -141h-646z" />
<glyph unicode="&#xb3;" horiz-adv-x="867" d="M278 1165h165q0 -33 12 -60t34 -46.5t53 -30t69 -10.5q40 0 73.5 11.5t57 32t36.5 49.5t13 65q0 27 -12 50t-33 39.5t-50.5 25.5t-64.5 9h-99l26 129h123q37 0 68 11t53.5 30t35 45.5t12.5 58.5q0 52 -39.5 84t-105.5 32q-29 0 -54.5 -8.5t-47 -24t-37.5 -37t-24 -47.5 h-161q12 58 42 105t74 80t100.5 51t121.5 18q66 0 121 -17.5t95 -48.5t62.5 -73.5t22.5 -93.5q0 -44 -15.5 -83t-44 -70t-67.5 -51.5t-85 -27.5l-1 -11q75 -17 115.5 -65t40.5 -121q0 -63 -26.5 -116t-73.5 -91.5t-112 -60t-143 -21.5t-142.5 22t-108.5 61t-65.5 91.5 t-13.5 114.5z" />
<glyph unicode="&#xb4;" horiz-adv-x="1094" d="M519 1263l324 338h220l-350 -338h-194z" />
<glyph unicode="&#xb6;" horiz-adv-x="1321" d="M350 950q0 109 42.5 199.5t119 155.5t182.5 101.5t234 36.5h200l-354 -1663h-180l169 795q-90 0 -166 28t-131 77.5t-85.5 118.5t-30.5 151zM921 -220l354 1663h180l-354 -1663h-180z" />
<glyph unicode="&#xb7;" horiz-adv-x="630" d="M271 739q0 31 10.5 57t29.5 45t45 29.5t57 10.5t56.5 -10.5t44 -29.5t29 -45t10.5 -57t-10.5 -57t-29 -45t-44 -29.5t-56.5 -10.5q-63 0 -102.5 39.5t-39.5 102.5z" />
<glyph unicode="&#xb8;" horiz-adv-x="1094" d="M194 -455l23 108q13 -6 31.5 -11t38.5 -8.5t40 -6t37 -2.5q48 0 76 19t28 51q0 35 -34 53.5t-100 18.5h-53l13 90l113 182h141l-111 -179q179 -20 179 -156q0 -43 -18.5 -78.5t-51 -61.5t-78 -40.5t-99.5 -14.5q-43 0 -90.5 9.5t-84.5 26.5z" />
<glyph unicode="&#xb9;" horiz-adv-x="680" d="M337 1470l36 169l270 164h173l-192 -903h-174l154 725h-11z" />
<glyph unicode="&#xba;" horiz-adv-x="1024" d="M226 918q0 116 38 215.5t105 173t158 115t196 41.5q87 0 156 -28t118 -80t75 -126t26 -167q0 -116 -38 -215.5t-104.5 -173.5t-157 -116t-194.5 -42q-87 0 -156.5 28.5t-119 81t-76 127t-26.5 166.5zM403 941q0 -131 58 -204.5t161 -73.5q63 0 117.5 30t95 82t63.5 122.5 t23 151.5q0 61 -15 110.5t-43.5 84t-69 53t-91.5 18.5q-64 0 -119 -28.5t-95 -78.5t-62.5 -118.5t-22.5 -148.5z" />
<glyph unicode="&#xbb;" horiz-adv-x="1393" d="M165 145l453 432l3 16l-248 392h190l262 -416l-2 -8l-439 -416h-219zM646 145l453 432l3 16l-248 392h190l262 -416l-2 -8l-439 -416h-219z" />
<glyph unicode="&#xbc;" horiz-adv-x="2046" d="M349 1110l36 169l270 164h173l-192 -903h-174l154 725h-11zM529 0l496 758l448 685h173l-472 -721l-472 -722h-173zM1215 166l28 156q85 112 206.5 257.5t277.5 323.5h254l-127 -596h120l-30 -141h-120l-35 -166h-166l35 166h-443zM1403 303h288l98 465h-9 q-84 -95 -175.5 -206t-199.5 -250z" />
<glyph unicode="&#xbd;" horiz-adv-x="2036" d="M349 1110l36 169l270 164h173l-192 -903h-174l154 725h-11zM529 0l496 758l448 685h173l-472 -721l-472 -722h-173zM1266 0l27 126l356 297q63 52 102.5 88t62 63t30.5 49t8 46q0 53 -38.5 86.5t-99.5 33.5q-31 0 -58.5 -10t-49 -28t-36.5 -44t-21 -57v-3h-162 q5 61 33 112.5t73.5 88.5t105.5 58t129 21q64 0 118.5 -18.5t94 -50.5t62 -76.5t22.5 -96.5q0 -40 -12 -76t-43 -76t-83.5 -88.5t-133.5 -114.5l-212 -178l-2 -11h403l-30 -141h-646z" />
<glyph unicode="&#xbe;" horiz-adv-x="2182" d="M201 805h165q0 -33 12 -60t34 -46.5t53 -30t69 -10.5q40 0 73.5 11.5t57 32t36.5 49.5t13 65q0 27 -12 50t-33 39.5t-50.5 25.5t-64.5 9h-99l26 129h123q37 0 68 11t53.5 30t35 45.5t12.5 58.5q0 52 -39.5 84t-105.5 32q-29 0 -54.5 -8.5t-47 -24t-37.5 -37t-24 -47.5 h-161q12 58 42 105t74 80t100.5 51t121.5 18q66 0 121 -17.5t95 -48.5t62.5 -73.5t22.5 -93.5q0 -44 -15.5 -83t-44 -70t-67.5 -51.5t-85 -27.5l-1 -11q75 -17 115.5 -65t40.5 -121q0 -63 -26.5 -116t-73.5 -91.5t-112 -60t-143 -21.5t-142.5 22t-108.5 61t-65.5 91.5 t-13.5 114.5zM665 0l496 758l448 685h173l-472 -721l-472 -722h-173zM1351 166l28 156q85 112 206.5 257.5t277.5 323.5h254l-127 -596h120l-30 -141h-120l-35 -166h-166l35 166h-443zM1539 303h288l98 465h-9q-84 -95 -175.5 -206t-199.5 -250z" />
<glyph unicode="&#xbf;" horiz-adv-x="1049" d="M40 -24q0 66 22 125.5t60.5 111t91.5 92.5t116 69q54 24 91.5 47t62 48.5t39 56.5t21.5 70l11 60h179l-18 -82q-14 -64 -36 -110t-54 -81t-76 -62.5t-102 -53.5q-113 -53 -165 -118.5t-52 -153.5q0 -38 15 -72.5t44.5 -61t73.5 -42.5t102 -16q103 0 175.5 55t101.5 155 h174q-17 -83 -54.5 -150.5t-96 -115.5t-137 -74.5t-175.5 -26.5q-93 0 -169.5 26t-131 71t-84 105t-29.5 128zM570 981q0 30 10 55.5t28.5 44t44 29t55.5 10.5t55.5 -10.5t44 -29t29 -44t10.5 -55.5q0 -31 -10.5 -56.5t-29 -44t-44 -29t-55.5 -10.5t-55.5 10.5t-44 29 t-28.5 44t-10 56.5z" />
<glyph unicode="&#xc0;" horiz-adv-x="1380" d="M11 0l845 1443h167l226 -1443h-176l-58 413h-579l-232 -413h-193zM522 566h473l-95 641h-16zM659 1873h206l184 -298h-184z" />
<glyph unicode="&#xc1;" horiz-adv-x="1380" d="M11 0l845 1443h167l226 -1443h-176l-58 413h-579l-232 -413h-193zM522 566h473l-95 641h-16zM877 1575l373 298h226l-395 -298h-204z" />
<glyph unicode="&#xc2;" horiz-adv-x="1380" d="M11 0l845 1443h167l226 -1443h-176l-58 413h-579l-232 -413h-193zM522 566h473l-95 641h-16zM608 1575l310 298h202l184 -298h-185l-105 186h-16l-183 -186h-207z" />
<glyph unicode="&#xc3;" horiz-adv-x="1380" d="M11 0l845 1443h167l226 -1443h-176l-58 413h-579l-232 -413h-193zM522 566h473l-95 641h-16zM592 1620q10 60 34 107t58.5 79.5t77 49.5t89.5 17q42 0 74.5 -12t58.5 -30t47.5 -39.5t41 -39.5t39 -30t41.5 -12q90 0 115 118h142q-10 -60 -34 -107t-58.5 -79.5t-77 -49.5 t-89.5 -17q-42 0 -75 12t-59 30t-47.5 39.5t-41 39.5t-39 30t-41.5 12q-89 0 -114 -118h-142z" />
<glyph unicode="&#xc4;" horiz-adv-x="1380" d="M11 0l845 1443h167l226 -1443h-176l-58 413h-579l-232 -413h-193zM522 566h473l-95 641h-16zM670 1696q0 25 9.5 47t26 38.5t38.5 26t47 9.5t47 -9.5t38.5 -26t26 -38.5t9.5 -47t-9.5 -47t-26 -38.5t-38.5 -26t-47 -9.5t-47 9.5t-38.5 26t-26 38.5t-9.5 47zM1074 1696 q0 25 9.5 47t26 38.5t38.5 26t47 9.5t47 -9.5t38.5 -26t26 -38.5t9.5 -47t-9.5 -47t-26 -38.5t-38.5 -26t-47 -9.5t-47 9.5t-38.5 26t-26 38.5t-9.5 47z" />
<glyph unicode="&#xc5;" horiz-adv-x="1380" d="M11 0l845 1443h167l226 -1443h-176l-58 413h-579l-232 -413h-193zM522 566h473l-95 641h-16zM783 1800q0 48 18 90t49.5 73t74 48.5t90.5 17.5t90 -17.5t73.5 -48.5t50 -73t18.5 -90t-18.5 -90t-50 -73t-73.5 -48.5t-90 -17.5t-90.5 17.5t-74 48.5t-49.5 73t-18 90z M893 1800q0 -26 9 -48.5t25.5 -39t39 -26t48.5 -9.5t48.5 9.5t39 26t25.5 39t9 48.5t-9 48.5t-25.5 39t-39 26t-48.5 9.5t-48.5 -9.5t-39 -26t-25.5 -39t-9 -48.5z" />
<glyph unicode="&#xc6;" horiz-adv-x="1966" d="M9 0l958 1443h1110l-35 -162h-658l-100 -473h621l-34 -160h-621l-104 -486h658l-34 -162h-838l98 459h-527l-307 -459h-187zM605 612h457l145 680h-147z" />
<glyph unicode="&#xc7;" horiz-adv-x="1466" d="M201 554q0 133 26 253t74 222.5t116.5 185.5t153 141t183.5 89.5t208 31.5q117 0 217 -36t173 -100t114 -152t41 -191v-6h-183v2q-6 72 -35 130.5t-78 100t-115.5 63.5t-147.5 22q-118 0 -220.5 -56.5t-178 -156t-118.5 -234t-43 -290.5q0 -102 27.5 -183.5t78.5 -138.5 t124 -87.5t163 -30.5q73 0 139 17.5t119.5 50t92 78t58.5 101.5h190q-25 -89 -74.5 -161t-120 -125t-159.5 -85t-192 -40l-68 -109q179 -20 179 -156q0 -43 -18.5 -78.5t-51 -61.5t-78 -40.5t-99.5 -14.5q-43 0 -90.5 9.5t-84.5 26.5l23 108q13 -6 31.5 -11t38.5 -8.5t40 -6 t37 -2.5q48 0 76 19t28 51q0 35 -34 53.5t-100 18.5h-53l13 90l70 112q-112 11 -202.5 57.5t-155 122.5t-99.5 179t-35 226z" />
<glyph unicode="&#xc8;" horiz-adv-x="1219" d="M123 0l307 1443h896l-35 -162h-711l-100 -463h675l-34 -160h-674l-106 -496h712l-34 -162h-896zM597 1873h206l184 -298h-184z" />
<glyph unicode="&#xc9;" horiz-adv-x="1219" d="M123 0l307 1443h896l-35 -162h-711l-100 -463h675l-34 -160h-674l-106 -496h712l-34 -162h-896zM815 1575l373 298h226l-395 -298h-204z" />
<glyph unicode="&#xca;" horiz-adv-x="1219" d="M123 0l307 1443h896l-35 -162h-711l-100 -463h675l-34 -160h-674l-106 -496h712l-34 -162h-896zM546 1575l310 298h202l184 -298h-185l-105 186h-16l-183 -186h-207z" />
<glyph unicode="&#xcb;" horiz-adv-x="1219" d="M123 0l307 1443h896l-35 -162h-711l-100 -463h675l-34 -160h-674l-106 -496h712l-34 -162h-896zM608 1696q0 25 9.5 47t26 38.5t38.5 26t47 9.5t47 -9.5t38.5 -26t26 -38.5t9.5 -47t-9.5 -47t-26 -38.5t-38.5 -26t-47 -9.5t-47 9.5t-38.5 26t-26 38.5t-9.5 47zM1012 1696 q0 25 9.5 47t26 38.5t38.5 26t47 9.5t47 -9.5t38.5 -26t26 -38.5t9.5 -47t-9.5 -47t-26 -38.5t-38.5 -26t-47 -9.5t-47 9.5t-38.5 26t-26 38.5t-9.5 47z" />
<glyph unicode="&#xcc;" horiz-adv-x="550" d="M123 0l307 1443h184l-307 -1443h-184zM242 1873h206l184 -298h-184z" />
<glyph unicode="&#xcd;" horiz-adv-x="550" d="M123 0l307 1443h184l-307 -1443h-184zM460 1575l373 298h226l-395 -298h-204z" />
<glyph unicode="&#xce;" horiz-adv-x="550" d="M123 0l307 1443h184l-307 -1443h-184zM191 1575l310 298h202l184 -298h-185l-105 186h-16l-183 -186h-207z" />
<glyph unicode="&#xcf;" horiz-adv-x="550" d="M123 0l307 1443h184l-307 -1443h-184zM253 1696q0 25 9.5 47t26 38.5t38.5 26t47 9.5t47 -9.5t38.5 -26t26 -38.5t9.5 -47t-9.5 -47t-26 -38.5t-38.5 -26t-47 -9.5t-47 9.5t-38.5 26t-26 38.5t-9.5 47zM657 1696q0 25 9.5 47t26 38.5t38.5 26t47 9.5t47 -9.5t38.5 -26 t26 -38.5t9.5 -47t-9.5 -47t-26 -38.5t-38.5 -26t-47 -9.5t-47 9.5t-38.5 26t-26 38.5t-9.5 47z" />
<glyph unicode="&#xd0;" horiz-adv-x="1486" d="M64 663l35 163h201l130 617h403q151 0 268 -43.5t197 -125t122 -198.5t42 -264q0 -116 -26 -221.5t-74 -195.5t-115.5 -163t-150.5 -124.5t-179 -79.5t-201 -28h-591l140 663h-201zM341 160h382q119 0 220 48.5t175 134.5t116 204t42 256q0 113 -31 202.5t-89.5 151 t-143.5 94t-193 32.5h-239l-97 -457h202l-35 -163h-202z" />
<glyph unicode="&#xd1;" horiz-adv-x="1520" d="M123 0l307 1443h177l534 -1153h16l245 1153h182l-307 -1443h-179l-533 1150h-16l-244 -1150h-182zM669 1620q10 60 34 107t58.5 79.5t77 49.5t89.5 17q42 0 74.5 -12t58.5 -30t47.5 -39.5t41 -39.5t39 -30t41.5 -12q90 0 115 118h142q-10 -60 -34 -107t-58.5 -79.5 t-77 -49.5t-89.5 -17q-42 0 -75 12t-59 30t-47.5 39.5t-41 39.5t-39 30t-41.5 12q-89 0 -114 -118h-142z" />
<glyph unicode="&#xd2;" horiz-adv-x="1579" d="M201 563q0 131 26.5 250t76 220.5t119.5 183.5t157 140t188.5 89t213.5 31q126 0 233 -45t184.5 -124.5t121 -189t43.5 -238.5q0 -132 -26.5 -251.5t-75.5 -221t-118.5 -183t-155.5 -139t-187.5 -88.5t-213.5 -31q-127 0 -234.5 45t-185.5 124.5t-122 189t-44 238.5z M391 579q0 -100 29.5 -182t83.5 -140.5t129.5 -91t167.5 -32.5q124 0 229 54.5t181.5 152t119.5 231.5t43 293q0 99 -29.5 181.5t-83 141t-128 91t-165.5 32.5q-123 0 -229 -55.5t-183 -154t-121 -232t-44 -289.5zM697 1871h206l184 -298h-184z" />
<glyph unicode="&#xd3;" horiz-adv-x="1579" d="M201 563q0 131 26.5 250t76 220.5t119.5 183.5t157 140t188.5 89t213.5 31q126 0 233 -45t184.5 -124.5t121 -189t43.5 -238.5q0 -132 -26.5 -251.5t-75.5 -221t-118.5 -183t-155.5 -139t-187.5 -88.5t-213.5 -31q-127 0 -234.5 45t-185.5 124.5t-122 189t-44 238.5z M391 579q0 -100 29.5 -182t83.5 -140.5t129.5 -91t167.5 -32.5q124 0 229 54.5t181.5 152t119.5 231.5t43 293q0 99 -29.5 181.5t-83 141t-128 91t-165.5 32.5q-123 0 -229 -55.5t-183 -154t-121 -232t-44 -289.5zM915 1573l373 298h226l-395 -298h-204z" />
<glyph unicode="&#xd4;" horiz-adv-x="1579" d="M201 563q0 131 26.5 250t76 220.5t119.5 183.5t157 140t188.5 89t213.5 31q126 0 233 -45t184.5 -124.5t121 -189t43.5 -238.5q0 -132 -26.5 -251.5t-75.5 -221t-118.5 -183t-155.5 -139t-187.5 -88.5t-213.5 -31q-127 0 -234.5 45t-185.5 124.5t-122 189t-44 238.5z M391 579q0 -100 29.5 -182t83.5 -140.5t129.5 -91t167.5 -32.5q124 0 229 54.5t181.5 152t119.5 231.5t43 293q0 99 -29.5 181.5t-83 141t-128 91t-165.5 32.5q-123 0 -229 -55.5t-183 -154t-121 -232t-44 -289.5zM646 1573l310 298h202l184 -298h-185l-105 186h-16 l-183 -186h-207z" />
<glyph unicode="&#xd5;" horiz-adv-x="1579" d="M201 563q0 131 26.5 250t76 220.5t119.5 183.5t157 140t188.5 89t213.5 31q126 0 233 -45t184.5 -124.5t121 -189t43.5 -238.5q0 -132 -26.5 -251.5t-75.5 -221t-118.5 -183t-155.5 -139t-187.5 -88.5t-213.5 -31q-127 0 -234.5 45t-185.5 124.5t-122 189t-44 238.5z M391 579q0 -100 29.5 -182t83.5 -140.5t129.5 -91t167.5 -32.5q124 0 229 54.5t181.5 152t119.5 231.5t43 293q0 99 -29.5 181.5t-83 141t-128 91t-165.5 32.5q-123 0 -229 -55.5t-183 -154t-121 -232t-44 -289.5zM630 1618q10 60 34 107t58.5 79.5t77 49.5t89.5 17 q42 0 74.5 -12t58.5 -30t47.5 -39.5t41 -39.5t39 -30t41.5 -12q90 0 115 118h142q-10 -60 -34 -107t-58.5 -79.5t-77 -49.5t-89.5 -17q-42 0 -75 12t-59 30t-47.5 39.5t-41 39.5t-39 30t-41.5 12q-89 0 -114 -118h-142z" />
<glyph unicode="&#xd6;" horiz-adv-x="1579" d="M201 563q0 131 26.5 250t76 220.5t119.5 183.5t157 140t188.5 89t213.5 31q126 0 233 -45t184.5 -124.5t121 -189t43.5 -238.5q0 -132 -26.5 -251.5t-75.5 -221t-118.5 -183t-155.5 -139t-187.5 -88.5t-213.5 -31q-127 0 -234.5 45t-185.5 124.5t-122 189t-44 238.5z M391 579q0 -100 29.5 -182t83.5 -140.5t129.5 -91t167.5 -32.5q124 0 229 54.5t181.5 152t119.5 231.5t43 293q0 99 -29.5 181.5t-83 141t-128 91t-165.5 32.5q-123 0 -229 -55.5t-183 -154t-121 -232t-44 -289.5zM708 1694q0 25 9.5 47t26 38.5t38.5 26t47 9.5t47 -9.5 t38.5 -26t26 -38.5t9.5 -47t-9.5 -47t-26 -38.5t-38.5 -26t-47 -9.5t-47 9.5t-38.5 26t-26 38.5t-9.5 47zM1112 1694q0 25 9.5 47t26 38.5t38.5 26t47 9.5t47 -9.5t38.5 -26t26 -38.5t9.5 -47t-9.5 -47t-26 -38.5t-38.5 -26t-47 -9.5t-47 9.5t-38.5 26t-26 38.5t-9.5 47z " />
<glyph unicode="&#xd7;" d="M244 276l373 308l-238 304l126 104l239 -303l373 307l94 -116l-372 -308l233 -300l-126 -104l-235 299l-373 -307z" />
<glyph unicode="&#xd8;" horiz-adv-x="1551" d="M201 563q0 131 26.5 250t76 220.5t119.5 183.5t157 140t188.5 89t213.5 31q93 0 174.5 -24t150.5 -69l81 104l98 -69l-86 -112q78 -80 121 -188.5t43 -238.5q0 -132 -26.5 -251.5t-75.5 -221t-118.5 -183t-155.5 -139t-187.5 -88.5t-213.5 -31q-97 0 -182 26.5t-156 74.5 l-87 -114l-100 76l93 120q-73 79 -113.5 184t-40.5 230zM391 579q0 -83 20.5 -153.5t58.5 -126.5l728 943q-48 33 -105.5 50.5t-124.5 17.5q-123 0 -229 -55.5t-183 -154t-121 -232t-44 -289.5zM558 208q50 -36 110.5 -55.5t132.5 -19.5q124 0 229 54.5t181.5 152 t119.5 231.5t43 293q0 88 -23 162.5t-65 131.5z" />
<glyph unicode="&#xd9;" horiz-adv-x="1524" d="M233 414q-1 32 2.5 64.5t10.5 65.5l188 899h184l-186 -887q-8 -35 -11 -68.5t-2 -64.5q3 -66 25.5 -120t65.5 -92t107.5 -58.5t150.5 -20.5q80 0 150.5 24.5t126.5 70.5t95 113t57 151l203 952h184l-210 -987q-25 -116 -77 -207t-131.5 -154t-187 -96t-242.5 -33 q-123 0 -216.5 35t-156.5 95.5t-96 142t-34 175.5zM728 1873h206l184 -298h-184z" />
<glyph unicode="&#xda;" horiz-adv-x="1524" d="M233 414q-1 32 2.5 64.5t10.5 65.5l188 899h184l-186 -887q-8 -35 -11 -68.5t-2 -64.5q3 -66 25.5 -120t65.5 -92t107.5 -58.5t150.5 -20.5q80 0 150.5 24.5t126.5 70.5t95 113t57 151l203 952h184l-210 -987q-25 -116 -77 -207t-131.5 -154t-187 -96t-242.5 -33 q-123 0 -216.5 35t-156.5 95.5t-96 142t-34 175.5zM946 1575l373 298h226l-395 -298h-204z" />
<glyph unicode="&#xdb;" horiz-adv-x="1524" d="M233 414q-1 32 2.5 64.5t10.5 65.5l188 899h184l-186 -887q-8 -35 -11 -68.5t-2 -64.5q3 -66 25.5 -120t65.5 -92t107.5 -58.5t150.5 -20.5q80 0 150.5 24.5t126.5 70.5t95 113t57 151l203 952h184l-210 -987q-25 -116 -77 -207t-131.5 -154t-187 -96t-242.5 -33 q-123 0 -216.5 35t-156.5 95.5t-96 142t-34 175.5zM677 1575l310 298h202l184 -298h-185l-105 186h-16l-183 -186h-207z" />
<glyph unicode="&#xdc;" horiz-adv-x="1524" d="M233 414q-1 32 2.5 64.5t10.5 65.5l188 899h184l-186 -887q-8 -35 -11 -68.5t-2 -64.5q3 -66 25.5 -120t65.5 -92t107.5 -58.5t150.5 -20.5q80 0 150.5 24.5t126.5 70.5t95 113t57 151l203 952h184l-210 -987q-25 -116 -77 -207t-131.5 -154t-187 -96t-242.5 -33 q-123 0 -216.5 35t-156.5 95.5t-96 142t-34 175.5zM739 1696q0 25 9.5 47t26 38.5t38.5 26t47 9.5t47 -9.5t38.5 -26t26 -38.5t9.5 -47t-9.5 -47t-26 -38.5t-38.5 -26t-47 -9.5t-47 9.5t-38.5 26t-26 38.5t-9.5 47zM1143 1696q0 25 9.5 47t26 38.5t38.5 26t47 9.5t47 -9.5 t38.5 -26t26 -38.5t9.5 -47t-9.5 -47t-26 -38.5t-38.5 -26t-47 -9.5t-47 9.5t-38.5 26t-26 38.5t-9.5 47z" />
<glyph unicode="&#xdd;" horiz-adv-x="1344" d="M317 1443h187l268 -649h16l526 649h207l-692 -848l-124 -595h-184l132 621zM856 1575l373 298h226l-395 -298h-204z" />
<glyph unicode="&#xde;" horiz-adv-x="1280" d="M124 0l307 1443h179l-57 -266h332q85 0 156 -26t122 -73t79.5 -112.5t28.5 -144.5q0 -106 -40 -193t-112.5 -149t-174.5 -96t-226 -34h-340l-74 -349h-180zM412 509h295q89 0 159 20t118 58t73.5 93t25.5 125q0 98 -65 155t-194 57h-304z" />
<glyph unicode="&#xdf;" horiz-adv-x="1338" d="M165 0l228 1072q18 83 57.5 148.5t98 111t134.5 69.5t165 24q85 0 157.5 -24.5t125.5 -68t83 -103t30 -129.5t-24 -130t-67.5 -105.5t-104.5 -74t-134 -34.5l-4 -18q73 -8 131.5 -33t99.5 -65t63.5 -93t22.5 -116q0 -97 -37.5 -179.5t-104.5 -142.5t-159.5 -93.5 t-201.5 -33.5q-54 0 -110 9t-98 25l33 152q17 -7 40 -12.5t47.5 -10t50 -7t46.5 -2.5q67 0 126 22.5t102.5 61.5t68.5 92t25 113q0 53 -21.5 96t-61 73t-95 46.5t-124.5 16.5h-71l36 170h79q56 0 106 19t87 52t58.5 77t21.5 94q0 45 -17 82.5t-47.5 64.5t-73 41.5 t-94.5 14.5q-110 0 -183 -65t-99 -186l-217 -1021h-174z" />
<glyph unicode="&#xe0;" horiz-adv-x="1126" d="M106 279q0 79 30.5 142.5t90 108.5t146 71t198.5 31l306 14l16 73q3 17 4.5 28t1.5 23q0 82 -61 127.5t-170 45.5q-91 0 -152 -34.5t-87 -100.5h-182q18 67 57.5 120.5t96 91t128 57.5t153.5 20q89 0 161.5 -21.5t123.5 -61t79 -95t28 -124.5q0 -43 -9 -88l-150 -707 h-167l30 141h-16q-57 -75 -142 -117.5t-184 -42.5q-71 0 -131 23t-104.5 63t-69.5 94.5t-25 117.5zM283 298q0 -37 15 -67.5t42.5 -53t65.5 -35t84 -12.5q61 0 115.5 19t98.5 52.5t74.5 80t42.5 101.5l27 124l-287 -14q-133 -7 -205.5 -58.5t-72.5 -136.5zM403 1601h214 l180 -338h-188z" />
<glyph unicode="&#xe1;" horiz-adv-x="1126" d="M106 279q0 79 30.5 142.5t90 108.5t146 71t198.5 31l306 14l16 73q3 17 4.5 28t1.5 23q0 82 -61 127.5t-170 45.5q-91 0 -152 -34.5t-87 -100.5h-182q18 67 57.5 120.5t96 91t128 57.5t153.5 20q89 0 161.5 -21.5t123.5 -61t79 -95t28 -124.5q0 -43 -9 -88l-150 -707 h-167l30 141h-16q-57 -75 -142 -117.5t-184 -42.5q-71 0 -131 23t-104.5 63t-69.5 94.5t-25 117.5zM283 298q0 -37 15 -67.5t42.5 -53t65.5 -35t84 -12.5q61 0 115.5 19t98.5 52.5t74.5 80t42.5 101.5l27 124l-287 -14q-133 -7 -205.5 -58.5t-72.5 -136.5zM641 1263l324 338 h220l-350 -338h-194z" />
<glyph unicode="&#xe2;" horiz-adv-x="1126" d="M106 279q0 79 30.5 142.5t90 108.5t146 71t198.5 31l306 14l16 73q3 17 4.5 28t1.5 23q0 82 -61 127.5t-170 45.5q-91 0 -152 -34.5t-87 -100.5h-182q18 67 57.5 120.5t96 91t128 57.5t153.5 20q89 0 161.5 -21.5t123.5 -61t79 -95t28 -124.5q0 -43 -9 -88l-150 -707 h-167l30 141h-16q-57 -75 -142 -117.5t-184 -42.5q-71 0 -131 23t-104.5 63t-69.5 94.5t-25 117.5zM283 298q0 -37 15 -67.5t42.5 -53t65.5 -35t84 -12.5q61 0 115.5 19t98.5 52.5t74.5 80t42.5 101.5l27 124l-287 -14q-133 -7 -205.5 -58.5t-72.5 -136.5zM337 1228l354 340 h202l210 -340h-187l-129 227h-16l-225 -227h-209z" />
<glyph unicode="&#xe3;" horiz-adv-x="1126" d="M106 279q0 79 30.5 142.5t90 108.5t146 71t198.5 31l306 14l16 73q3 17 4.5 28t1.5 23q0 82 -61 127.5t-170 45.5q-91 0 -152 -34.5t-87 -100.5h-182q18 67 57.5 120.5t96 91t128 57.5t153.5 20q89 0 161.5 -21.5t123.5 -61t79 -95t28 -124.5q0 -43 -9 -88l-150 -707 h-167l30 141h-16q-57 -75 -142 -117.5t-184 -42.5q-71 0 -131 23t-104.5 63t-69.5 94.5t-25 117.5zM283 298q0 -37 15 -67.5t42.5 -53t65.5 -35t84 -12.5q61 0 115.5 19t98.5 52.5t74.5 80t42.5 101.5l27 124l-287 -14q-133 -7 -205.5 -58.5t-72.5 -136.5zM372 1262 q8 67 31 118t58 85.5t79.5 52.5t94.5 18q44 0 76 -13.5t57 -34t45 -44.5t38.5 -44.5t37.5 -34t44 -13.5q45 0 73 33.5t42 105.5h142q-8 -67 -31 -118t-58 -85.5t-79.5 -52.5t-94.5 -18q-44 0 -76.5 13.5t-58 34t-45 44.5t-38 44.5t-38 34t-43.5 13.5q-45 0 -72.5 -33.5 t-41.5 -105.5h-142z" />
<glyph unicode="&#xe4;" horiz-adv-x="1126" d="M106 279q0 79 30.5 142.5t90 108.5t146 71t198.5 31l306 14l16 73q3 17 4.5 28t1.5 23q0 82 -61 127.5t-170 45.5q-91 0 -152 -34.5t-87 -100.5h-182q18 67 57.5 120.5t96 91t128 57.5t153.5 20q89 0 161.5 -21.5t123.5 -61t79 -95t28 -124.5q0 -43 -9 -88l-150 -707 h-167l30 141h-16q-57 -75 -142 -117.5t-184 -42.5q-71 0 -131 23t-104.5 63t-69.5 94.5t-25 117.5zM283 298q0 -37 15 -67.5t42.5 -53t65.5 -35t84 -12.5q61 0 115.5 19t98.5 52.5t74.5 80t42.5 101.5l27 124l-287 -14q-133 -7 -205.5 -58.5t-72.5 -136.5zM433 1349 q0 25 9.5 47t26 38.5t38.5 26t47 9.5t47 -9.5t38.5 -26t26 -38.5t9.5 -47t-9.5 -47t-26 -38.5t-38.5 -26t-47 -9.5t-47 9.5t-38.5 26t-26 38.5t-9.5 47zM837 1349q0 25 9.5 47t26 38.5t38.5 26t47 9.5t47 -9.5t38.5 -26t26 -38.5t9.5 -47t-9.5 -47t-26 -38.5t-38.5 -26 t-47 -9.5t-47 9.5t-38.5 26t-26 38.5t-9.5 47z" />
<glyph unicode="&#xe5;" horiz-adv-x="1126" d="M106 279q0 79 30.5 142.5t90 108.5t146 71t198.5 31l306 14l16 73q3 17 4.5 28t1.5 23q0 82 -61 127.5t-170 45.5q-91 0 -152 -34.5t-87 -100.5h-182q18 67 57.5 120.5t96 91t128 57.5t153.5 20q89 0 161.5 -21.5t123.5 -61t79 -95t28 -124.5q0 -43 -9 -88l-150 -707 h-167l30 141h-16q-57 -75 -142 -117.5t-184 -42.5q-71 0 -131 23t-104.5 63t-69.5 94.5t-25 117.5zM283 298q0 -37 15 -67.5t42.5 -53t65.5 -35t84 -12.5q61 0 115.5 19t98.5 52.5t74.5 80t42.5 101.5l27 124l-287 -14q-133 -7 -205.5 -58.5t-72.5 -136.5zM548 1457 q0 48 18 90t49.5 73t74 48.5t90.5 17.5t90 -17.5t73.5 -48.5t50 -73t18.5 -90t-18.5 -90t-50 -73t-73.5 -48.5t-90 -17.5t-90.5 17.5t-74 48.5t-49.5 73t-18 90zM658 1457q0 -26 9 -48.5t25.5 -39t39 -26t48.5 -9.5t48.5 9.5t39 26t25.5 39t9 48.5t-9 48.5t-25.5 39t-39 26 t-48.5 9.5t-48.5 -9.5t-39 -26t-25.5 -39t-9 -48.5z" />
<glyph unicode="&#xe6;" horiz-adv-x="1866" d="M106 279q0 80 30.5 143t90 108t146 71t198.5 31l306 14l16 73q3 17 4.5 28t1.5 23q0 82 -61 127.5t-170 45.5q-91 0 -152 -34.5t-87 -100.5h-182q18 67 57.5 120.5t96 91t128 57.5t153.5 20q121 0 211 -42.5t135 -125.5h16q68 81 160.5 124.5t203.5 43.5q83 0 157.5 -29 t130.5 -84.5t89 -136.5t33 -186q0 -16 -1 -37.5t-3 -44t-4 -44t-5 -36.5h-777q-1 -14 -1.5 -28t-0.5 -28q0 -83 24 -141t62.5 -94.5t86.5 -53t97 -16.5q107 0 172 37t99 100h183q-17 -62 -56.5 -116t-100.5 -93.5t-141.5 -62t-178.5 -22.5q-62 0 -121.5 16.5t-111 48 t-91 75.5t-61.5 100h-15q-28 -48 -71.5 -91.5t-97.5 -76.5t-117 -52.5t-131 -19.5q-78 0 -142.5 23t-110.5 63t-71.5 94.5t-25.5 117.5zM283 298q0 -37 15 -67.5t42.5 -53t65.5 -35t84 -12.5q61 0 115.5 19t98.5 52.5t74.5 80t42.5 101.5l27 124l-287 -14 q-133 -7 -205.5 -58.5t-72.5 -136.5zM1051 638h585q1 5 1.5 18.5t0.5 26.5q0 53 -15.5 100.5t-46.5 83.5t-77 57t-107 21q-62 0 -116 -22t-98 -62.5t-76 -97t-51 -125.5z" />
<glyph unicode="&#xe7;" horiz-adv-x="1146" d="M156 438q0 142 42.5 262.5t118.5 208.5t180.5 138t227.5 50q80 0 150 -22.5t124 -62.5t90.5 -95.5t48.5 -121.5q2 -11 3 -23l2 -24h-176q-4 42 -25.5 77.5t-55.5 61.5t-79 40.5t-96 14.5q-80 0 -148.5 -37t-118.5 -101.5t-78.5 -152.5t-28.5 -190q0 -75 19 -135t54 -102 t85 -64t112 -22q100 0 172 44.5t103 125.5h179q-16 -72 -56.5 -131.5t-100 -102t-135 -67t-161.5 -26.5l-75 -121q179 -20 179 -156q0 -43 -18.5 -78.5t-51 -61.5t-78 -40.5t-99.5 -14.5q-43 0 -90.5 9.5t-84.5 26.5l23 108q13 -6 31.5 -11t38.5 -8.5t40 -6t37 -2.5 q48 0 76 19t28 51q0 35 -34 53.5t-100 18.5h-53l13 90l85 137q-73 17 -132 56t-100.5 96t-64 131t-22.5 161z" />
<glyph unicode="&#xe8;" horiz-adv-x="1170" d="M157 432q0 149 41.5 271.5t115.5 210t177.5 135.5t226.5 48q83 0 157.5 -29t130.5 -84.5t89 -136.5t33 -186q0 -16 -1 -37.5t-3 -44t-4 -44t-5 -36.5h-777q-1 -14 -1.5 -27t-0.5 -27q0 -83 24 -141.5t62.5 -95.5t86.5 -53.5t97 -16.5q107 0 172 37t99 100h183 q-17 -62 -56 -116t-98.5 -93.5t-138 -62t-172.5 -22.5q-90 0 -170 29.5t-139.5 87t-94 141.5t-34.5 193zM361 638h585q1 5 1.5 18.5t0.5 26.5q0 53 -15.5 100.5t-46.5 83.5t-77 57t-107 21q-62 0 -116 -22t-98 -62.5t-76 -97t-51 -125.5zM414 1601h214l180 -338h-188z" />
<glyph unicode="&#xe9;" horiz-adv-x="1170" d="M157 432q0 149 41.5 271.5t115.5 210t177.5 135.5t226.5 48q83 0 157.5 -29t130.5 -84.5t89 -136.5t33 -186q0 -16 -1 -37.5t-3 -44t-4 -44t-5 -36.5h-777q-1 -14 -1.5 -27t-0.5 -27q0 -83 24 -141.5t62.5 -95.5t86.5 -53.5t97 -16.5q107 0 172 37t99 100h183 q-17 -62 -56 -116t-98.5 -93.5t-138 -62t-172.5 -22.5q-90 0 -170 29.5t-139.5 87t-94 141.5t-34.5 193zM361 638h585q1 5 1.5 18.5t0.5 26.5q0 53 -15.5 100.5t-46.5 83.5t-77 57t-107 21q-62 0 -116 -22t-98 -62.5t-76 -97t-51 -125.5zM652 1263l324 338h220l-350 -338 h-194z" />
<glyph unicode="&#xea;" horiz-adv-x="1170" d="M157 432q0 149 41.5 271.5t115.5 210t177.5 135.5t226.5 48q83 0 157.5 -29t130.5 -84.5t89 -136.5t33 -186q0 -16 -1 -37.5t-3 -44t-4 -44t-5 -36.5h-777q-1 -14 -1.5 -27t-0.5 -27q0 -83 24 -141.5t62.5 -95.5t86.5 -53.5t97 -16.5q107 0 172 37t99 100h183 q-17 -62 -56 -116t-98.5 -93.5t-138 -62t-172.5 -22.5q-90 0 -170 29.5t-139.5 87t-94 141.5t-34.5 193zM348 1228l354 340h202l210 -340h-187l-129 227h-16l-225 -227h-209zM361 638h585q1 5 1.5 18.5t0.5 26.5q0 53 -15.5 100.5t-46.5 83.5t-77 57t-107 21q-62 0 -116 -22 t-98 -62.5t-76 -97t-51 -125.5z" />
<glyph unicode="&#xeb;" horiz-adv-x="1170" d="M157 432q0 149 41.5 271.5t115.5 210t177.5 135.5t226.5 48q83 0 157.5 -29t130.5 -84.5t89 -136.5t33 -186q0 -16 -1 -37.5t-3 -44t-4 -44t-5 -36.5h-777q-1 -14 -1.5 -27t-0.5 -27q0 -83 24 -141.5t62.5 -95.5t86.5 -53.5t97 -16.5q107 0 172 37t99 100h183 q-17 -62 -56 -116t-98.5 -93.5t-138 -62t-172.5 -22.5q-90 0 -170 29.5t-139.5 87t-94 141.5t-34.5 193zM361 638h585q1 5 1.5 18.5t0.5 26.5q0 53 -15.5 100.5t-46.5 83.5t-77 57t-107 21q-62 0 -116 -22t-98 -62.5t-76 -97t-51 -125.5zM444 1349q0 25 9.5 47t26 38.5 t38.5 26t47 9.5t47 -9.5t38.5 -26t26 -38.5t9.5 -47t-9.5 -47t-26 -38.5t-38.5 -26t-47 -9.5t-47 9.5t-38.5 26t-26 38.5t-9.5 47zM848 1349q0 25 9.5 47t26 38.5t38.5 26t47 9.5t47 -9.5t38.5 -26t26 -38.5t9.5 -47t-9.5 -47t-26 -38.5t-38.5 -26t-47 -9.5t-47 9.5 t-38.5 26t-26 38.5t-9.5 47z" />
<glyph unicode="&#xec;" horiz-adv-x="516" d="M112 0l229 1078h172l-229 -1078h-172zM131 1601h214l180 -338h-188z" />
<glyph unicode="&#xed;" horiz-adv-x="516" d="M112 0l229 1078h172l-229 -1078h-172zM369 1263l324 338h220l-350 -338h-194z" />
<glyph unicode="&#xee;" horiz-adv-x="516" d="M65 1228l354 340h202l210 -340h-187l-129 227h-16l-225 -227h-209zM112 0l229 1078h172l-229 -1078h-172z" />
<glyph unicode="&#xef;" horiz-adv-x="516" d="M112 0l229 1078h172l-229 -1078h-172zM161 1349q0 25 9.5 47t26 38.5t38.5 26t47 9.5t47 -9.5t38.5 -26t26 -38.5t9.5 -47t-9.5 -47t-26 -38.5t-38.5 -26t-47 -9.5t-47 9.5t-38.5 26t-26 38.5t-9.5 47zM565 1349q0 25 9.5 47t26 38.5t38.5 26t47 9.5t47 -9.5t38.5 -26 t26 -38.5t9.5 -47t-9.5 -47t-26 -38.5t-38.5 -26t-47 -9.5t-47 9.5t-38.5 26t-26 38.5t-9.5 47z" />
<glyph unicode="&#xf0;" horiz-adv-x="1188" d="M141 403q0 139 39.5 259.5t110 209t166.5 139.5t209 51q58 0 112 -15t99.5 -41t79.5 -63t51 -80l15 -1q-3 92 -31.5 189t-80.5 196l-351 -106l-7 128l292 89q-20 28 -48.5 63t-73.5 86h191q28 -33 47.5 -57.5t33.5 -46.5l233 71l8 -128l-181 -55q31 -66 54 -127.5 t37 -121.5t21 -120.5t7 -124.5q0 -88 -10 -168.5t-29 -152.5q-30 -115 -82 -206.5t-122.5 -155.5t-157 -98.5t-185.5 -34.5t-181 32t-141 88.5t-92 134t-33 167.5zM323 434q0 -69 19.5 -124t56 -93.5t88 -59t115.5 -20.5q74 0 142.5 39t121 104t84 150t31.5 177 q0 65 -22 119.5t-61 93.5t-93 61t-118 22q-78 0 -144.5 -35.5t-115.5 -98.5t-76.5 -149t-27.5 -186z" />
<glyph unicode="&#xf1;" horiz-adv-x="1215" d="M100 0l229 1078h167l-34 -161h16q25 36 58 68.5t75 57.5t93 39.5t111 14.5q78 0 141 -26.5t107.5 -71.5t69 -103.5t24.5 -122.5q0 -56 -14 -124l-138 -649h-175l132 619q6 29 9.5 55.5t3.5 49.5q0 49 -16 89t-46.5 68.5t-73.5 44.5t-97 16q-62 0 -116 -21.5t-96.5 -59.5 t-72 -90t-42.5 -113l-140 -658h-175zM455 1262q8 67 31 118t58 85.5t79.5 52.5t94.5 18q44 0 76 -13.5t57 -34t45 -44.5t38.5 -44.5t37.5 -34t44 -13.5q45 0 73 33.5t42 105.5h142q-8 -67 -31 -118t-58 -85.5t-79.5 -52.5t-94.5 -18q-44 0 -76.5 13.5t-58 34t-45 44.5 t-38 44.5t-38 34t-43.5 13.5q-45 0 -72.5 -33.5t-41.5 -105.5h-142z" />
<glyph unicode="&#xf2;" horiz-adv-x="1210" d="M155 427q0 136 39 258t112.5 213.5t179.5 145t241 53.5q99 0 180 -33t138.5 -92t89 -140.5t31.5 -178.5q0 -87 -17 -171t-50.5 -158.5t-82 -137.5t-112 -108.5t-141 -71t-167.5 -25.5q-99 0 -180 33t-139 92t-90 141t-32 180zM338 448q0 -67 19 -124t55 -99t88 -65.5 t118 -23.5q70 0 136 35t116.5 98t81 150.5t30.5 192.5q0 77 -18.5 138.5t-54 104t-85.5 65t-113 22.5q-87 0 -156 -37.5t-117.5 -103.5t-74 -156.5t-25.5 -196.5zM429 1601h214l180 -338h-188z" />
<glyph unicode="&#xf3;" horiz-adv-x="1210" d="M155 427q0 136 39 258t112.5 213.5t179.5 145t241 53.5q99 0 180 -33t138.5 -92t89 -140.5t31.5 -178.5q0 -87 -17 -171t-50.5 -158.5t-82 -137.5t-112 -108.5t-141 -71t-167.5 -25.5q-99 0 -180 33t-139 92t-90 141t-32 180zM338 448q0 -67 19 -124t55 -99t88 -65.5 t118 -23.5q70 0 136 35t116.5 98t81 150.5t30.5 192.5q0 77 -18.5 138.5t-54 104t-85.5 65t-113 22.5q-87 0 -156 -37.5t-117.5 -103.5t-74 -156.5t-25.5 -196.5zM667 1263l324 338h220l-350 -338h-194z" />
<glyph unicode="&#xf4;" horiz-adv-x="1210" d="M155 427q0 136 39 258t112.5 213.5t179.5 145t241 53.5q99 0 180 -33t138.5 -92t89 -140.5t31.5 -178.5q0 -87 -17 -171t-50.5 -158.5t-82 -137.5t-112 -108.5t-141 -71t-167.5 -25.5q-99 0 -180 33t-139 92t-90 141t-32 180zM338 448q0 -67 19 -124t55 -99t88 -65.5 t118 -23.5q70 0 136 35t116.5 98t81 150.5t30.5 192.5q0 77 -18.5 138.5t-54 104t-85.5 65t-113 22.5q-87 0 -156 -37.5t-117.5 -103.5t-74 -156.5t-25.5 -196.5zM363 1228l354 340h202l210 -340h-187l-129 227h-16l-225 -227h-209z" />
<glyph unicode="&#xf5;" horiz-adv-x="1210" d="M155 427q0 136 39 258t112.5 213.5t179.5 145t241 53.5q99 0 180 -33t138.5 -92t89 -140.5t31.5 -178.5q0 -87 -17 -171t-50.5 -158.5t-82 -137.5t-112 -108.5t-141 -71t-167.5 -25.5q-99 0 -180 33t-139 92t-90 141t-32 180zM338 448q0 -67 19 -124t55 -99t88 -65.5 t118 -23.5q70 0 136 35t116.5 98t81 150.5t30.5 192.5q0 77 -18.5 138.5t-54 104t-85.5 65t-113 22.5q-87 0 -156 -37.5t-117.5 -103.5t-74 -156.5t-25.5 -196.5zM398 1262q8 67 31 118t58 85.5t79.5 52.5t94.5 18q44 0 76 -13.5t57 -34t45 -44.5t38.5 -44.5t37.5 -34 t44 -13.5q45 0 73 33.5t42 105.5h142q-8 -67 -31 -118t-58 -85.5t-79.5 -52.5t-94.5 -18q-44 0 -76.5 13.5t-58 34t-45 44.5t-38 44.5t-38 34t-43.5 13.5q-45 0 -72.5 -33.5t-41.5 -105.5h-142z" />
<glyph unicode="&#xf6;" horiz-adv-x="1210" d="M155 427q0 136 39 258t112.5 213.5t179.5 145t241 53.5q99 0 180 -33t138.5 -92t89 -140.5t31.5 -178.5q0 -87 -17 -171t-50.5 -158.5t-82 -137.5t-112 -108.5t-141 -71t-167.5 -25.5q-99 0 -180 33t-139 92t-90 141t-32 180zM338 448q0 -67 19 -124t55 -99t88 -65.5 t118 -23.5q70 0 136 35t116.5 98t81 150.5t30.5 192.5q0 77 -18.5 138.5t-54 104t-85.5 65t-113 22.5q-87 0 -156 -37.5t-117.5 -103.5t-74 -156.5t-25.5 -196.5zM459 1349q0 25 9.5 47t26 38.5t38.5 26t47 9.5t47 -9.5t38.5 -26t26 -38.5t9.5 -47t-9.5 -47t-26 -38.5 t-38.5 -26t-47 -9.5t-47 9.5t-38.5 26t-26 38.5t-9.5 47zM863 1349q0 25 9.5 47t26 38.5t38.5 26t47 9.5t47 -9.5t38.5 -26t26 -38.5t9.5 -47t-9.5 -47t-26 -38.5t-38.5 -26t-47 -9.5t-47 9.5t-38.5 26t-26 38.5t-9.5 47z" />
<glyph unicode="&#xf7;" d="M203 506l31 148h1018l-31 -148h-1018zM519 223q0 27 9.5 50t26.5 39.5t40 26t50 9.5t49.5 -9.5t39 -26t26 -39.5t9.5 -50t-9.5 -50t-26 -39.5t-39 -26t-49.5 -9.5t-50 9.5t-40 26t-26.5 39.5t-9.5 50zM670 937q0 27 9.5 50t26.5 39.5t40 26t50 9.5t49.5 -9.5t39 -26 t26 -39.5t9.5 -50t-9.5 -50t-26 -39.5t-39 -26t-49.5 -9.5t-50 9.5t-40 26t-26.5 39.5t-9.5 50z" />
<glyph unicode="&#xf8;" horiz-adv-x="1212" d="M129 32l108 121q-39 55 -60.5 124t-21.5 150q0 136 39 258t112.5 213.5t179.5 145t241 53.5q84 0 154 -23t124 -66l99 110l86 -64l-109 -123q42 -56 63.5 -126.5t21.5 -151.5q0 -87 -17 -171t-50.5 -158.5t-82 -137.5t-112 -108.5t-141 -71t-167.5 -25.5 q-84 0 -154.5 23.5t-126.5 67.5l-97 -109zM338 448q0 -82 29 -151l521 580q-34 32 -78.5 48.5t-98.5 16.5q-87 0 -156 -37.5t-117.5 -103.5t-74 -156.5t-25.5 -196.5zM433 204q35 -32 81.5 -50t103.5 -18q70 0 136 35t116.5 98t81 150.5t30.5 192.5q0 99 -31 173z" />
<glyph unicode="&#xf9;" horiz-adv-x="1215" d="M172 294q0 12 1 29t3 36.5t5 38.5t6 36l135 644h175l-131 -619q-3 -15 -5.5 -32t-4.5 -33.5t-3 -31.5t-1 -24q0 -104 56.5 -153t162.5 -49q65 0 121.5 22t101.5 61t75.5 93t44.5 118l138 648h174l-229 -1078h-166l33 146h-16q-23 -35 -56.5 -65t-77 -52.5t-96.5 -35 t-114 -12.5q-74 0 -135 24t-104.5 66t-68 99t-24.5 124zM470 1601h214l180 -338h-188z" />
<glyph unicode="&#xfa;" horiz-adv-x="1215" d="M172 294q0 12 1 29t3 36.5t5 38.5t6 36l135 644h175l-131 -619q-3 -15 -5.5 -32t-4.5 -33.5t-3 -31.5t-1 -24q0 -104 56.5 -153t162.5 -49q65 0 121.5 22t101.5 61t75.5 93t44.5 118l138 648h174l-229 -1078h-166l33 146h-16q-23 -35 -56.5 -65t-77 -52.5t-96.5 -35 t-114 -12.5q-74 0 -135 24t-104.5 66t-68 99t-24.5 124zM708 1263l324 338h220l-350 -338h-194z" />
<glyph unicode="&#xfb;" horiz-adv-x="1215" d="M172 294q0 12 1 29t3 36.5t5 38.5t6 36l135 644h175l-131 -619q-3 -15 -5.5 -32t-4.5 -33.5t-3 -31.5t-1 -24q0 -104 56.5 -153t162.5 -49q65 0 121.5 22t101.5 61t75.5 93t44.5 118l138 648h174l-229 -1078h-166l33 146h-16q-23 -35 -56.5 -65t-77 -52.5t-96.5 -35 t-114 -12.5q-74 0 -135 24t-104.5 66t-68 99t-24.5 124zM404 1228l354 340h202l210 -340h-187l-129 227h-16l-225 -227h-209z" />
<glyph unicode="&#xfc;" horiz-adv-x="1215" d="M172 294q0 12 1 29t3 36.5t5 38.5t6 36l135 644h175l-131 -619q-3 -15 -5.5 -32t-4.5 -33.5t-3 -31.5t-1 -24q0 -104 56.5 -153t162.5 -49q65 0 121.5 22t101.5 61t75.5 93t44.5 118l138 648h174l-229 -1078h-166l33 146h-16q-23 -35 -56.5 -65t-77 -52.5t-96.5 -35 t-114 -12.5q-74 0 -135 24t-104.5 66t-68 99t-24.5 124zM500 1349q0 25 9.5 47t26 38.5t38.5 26t47 9.5t47 -9.5t38.5 -26t26 -38.5t9.5 -47t-9.5 -47t-26 -38.5t-38.5 -26t-47 -9.5t-47 9.5t-38.5 26t-26 38.5t-9.5 47zM904 1349q0 25 9.5 47t26 38.5t38.5 26t47 9.5 t47 -9.5t38.5 -26t26 -38.5t9.5 -47t-9.5 -47t-26 -38.5t-38.5 -26t-47 -9.5t-47 9.5t-38.5 26t-26 38.5t-9.5 47z" />
<glyph unicode="&#xfd;" horiz-adv-x="1112" d="M40 -380l26 147q16 -5 42 -9t60 -4q27 0 52 9t49.5 30t50 55.5t53.5 86.5l39 73l-175 1070h171l128 -857h16l472 857h189l-686 -1196q-47 -83 -90 -136t-86.5 -83.5t-90.5 -42.5t-102 -12q-37 0 -67.5 4.5t-50.5 7.5zM668 1263l324 338h220l-350 -338h-194z" />
<glyph unicode="&#xfe;" horiz-adv-x="1260" d="M33 -360l397 1866h172l-120 -575h16q61 82 146 124t192 42q81 0 151 -31.5t121.5 -87t80.5 -132t29 -166.5q0 -148 -42.5 -275.5t-117 -221.5t-175 -148t-217.5 -54q-59 0 -111 16t-94.5 44.5t-73 69t-44.5 88.5h-16l-121 -559h-173zM382 434q0 -69 19 -124t54 -93.5 t85 -59.5t113 -21q82 0 152.5 39.5t122.5 108.5t81 164t29 206q0 137 -68 212.5t-191 75.5q-84 0 -156.5 -39.5t-126 -108t-84 -161t-30.5 -199.5z" />
<glyph unicode="&#xff;" horiz-adv-x="1112" d="M40 -380l26 147q16 -5 42 -9t60 -4q27 0 52 9t49.5 30t50 55.5t53.5 86.5l39 73l-175 1070h171l128 -857h16l472 857h189l-686 -1196q-47 -83 -90 -136t-86.5 -83.5t-90.5 -42.5t-102 -12q-37 0 -67.5 4.5t-50.5 7.5zM460 1349q0 25 9.5 47t26 38.5t38.5 26t47 9.5 t47 -9.5t38.5 -26t26 -38.5t9.5 -47t-9.5 -47t-26 -38.5t-38.5 -26t-47 -9.5t-47 9.5t-38.5 26t-26 38.5t-9.5 47zM864 1349q0 25 9.5 47t26 38.5t38.5 26t47 9.5t47 -9.5t38.5 -26t26 -38.5t9.5 -47t-9.5 -47t-26 -38.5t-38.5 -26t-47 -9.5t-47 9.5t-38.5 26t-26 38.5 t-9.5 47z" />
<glyph unicode="&#x152;" horiz-adv-x="2325" d="M201 563q0 131 26.5 250t76 220.5t120 183.5t157 140t188 89t213.5 31q84 0 157.5 -21.5t134.5 -59t108 -88.5t77 -111l17 1l52 245h896l-35 -162h-711l-100 -463h675l-34 -160h-674l-106 -496h712l-34 -162h-896l30 140l-16 -1q-79 -77 -191.5 -125t-256.5 -48 q-126 0 -233.5 45t-186 124.5t-122.5 189t-44 238.5zM391 579q0 -100 29.5 -182.5t83.5 -141t129.5 -90.5t167.5 -32q124 0 229 54.5t181.5 152t119.5 231.5t43 293q0 100 -29.5 182t-83 140.5t-128.5 91t-165 32.5q-123 0 -228.5 -55.5t-183 -153.5t-121.5 -232t-44 -290z " />
<glyph unicode="&#x153;" horiz-adv-x="1991" d="M155 427q0 147 42.5 270t118 212t180.5 138.5t231 49.5q131 0 225.5 -59.5t143.5 -172.5h16q71 114 177.5 173t243.5 59q91 0 166 -32t129 -89.5t84.5 -137.5t30.5 -177q0 -17 -1 -38.5t-3 -44t-4 -43.5t-5 -36h-777q-1 -20 -1.5 -32.5t-0.5 -23.5q0 -69 19.5 -125.5 t55 -96.5t85 -61.5t110.5 -21.5q197 0 271 137h183q-18 -67 -59.5 -121t-102.5 -92.5t-138 -59.5t-165 -21q-129 0 -226.5 56.5t-151.5 165.5h-16q-77 -109 -184 -165.5t-239 -56.5q-98 0 -178.5 32.5t-138 91t-89.5 141t-32 181.5zM338 448q0 -70 20 -127.5t57 -98.5 t88.5 -63.5t114.5 -22.5q75 0 141.5 37.5t116 102t78 151.5t28.5 185q0 77 -18.5 138t-53.5 104t-85.5 65.5t-113.5 22.5q-83 0 -152 -35.5t-118 -100.5t-76 -156t-27 -202zM1176 638h585q1 5 1.5 18.5t0.5 26.5q0 59 -17.5 107t-50 82.5t-78 53.5t-100.5 19 q-60 0 -113.5 -21t-97.5 -61t-77.5 -96.5t-52.5 -128.5z" />
<glyph unicode="&#x178;" horiz-adv-x="1344" d="M317 1443h187l268 -649h16l526 649h207l-692 -848l-124 -595h-184l132 621zM649 1696q0 25 9.5 47t26 38.5t38.5 26t47 9.5t47 -9.5t38.5 -26t26 -38.5t9.5 -47t-9.5 -47t-26 -38.5t-38.5 -26t-47 -9.5t-47 9.5t-38.5 26t-26 38.5t-9.5 47zM1053 1696q0 25 9.5 47 t26 38.5t38.5 26t47 9.5t47 -9.5t38.5 -26t26 -38.5t9.5 -47t-9.5 -47t-26 -38.5t-38.5 -26t-47 -9.5t-47 9.5t-38.5 26t-26 38.5t-9.5 47z" />
<glyph unicode="&#x2c6;" horiz-adv-x="1094" d="M365 1228l354 340h202l210 -340h-187l-129 227h-16l-225 -227h-209z" />
<glyph unicode="&#x2dc;" horiz-adv-x="1094" d="M395 1294q8 67 31 118t58 85.5t79.5 52.5t94.5 18q44 0 76 -13.5t57 -34t45 -44.5t38.5 -44.5t37.5 -34t44 -13.5q45 0 73 33.5t42 105.5h142q-8 -67 -31 -118t-58 -85.5t-79.5 -52.5t-94.5 -18q-44 0 -76.5 13.5t-58 34t-45 44.5t-38 44.5t-38 34t-43.5 13.5 q-45 0 -72.5 -33.5t-41.5 -105.5h-142z" />
<glyph unicode="&#x2000;" horiz-adv-x="1014" />
<glyph unicode="&#x2001;" horiz-adv-x="2029" />
<glyph unicode="&#x2002;" horiz-adv-x="1014" />
<glyph unicode="&#x2003;" horiz-adv-x="2029" />
<glyph unicode="&#x2004;" horiz-adv-x="676" />
<glyph unicode="&#x2005;" horiz-adv-x="507" />
<glyph unicode="&#x2006;" horiz-adv-x="338" />
<glyph unicode="&#x2007;" horiz-adv-x="338" />
<glyph unicode="&#x2008;" horiz-adv-x="253" />
<glyph unicode="&#x2009;" horiz-adv-x="405" />
<glyph unicode="&#x200a;" horiz-adv-x="112" />
<glyph unicode="&#x2010;" horiz-adv-x="966" d="M201 499l35 163h656l-35 -163h-656z" />
<glyph unicode="&#x2011;" horiz-adv-x="966" d="M201 499l35 163h656l-35 -163h-656z" />
<glyph unicode="&#x2012;" horiz-adv-x="966" d="M201 499l35 163h656l-35 -163h-656z" />
<glyph unicode="&#x2013;" horiz-adv-x="1254" d="M46 499l35 163h1254l-35 -163h-1254z" />
<glyph unicode="&#x2014;" horiz-adv-x="2048" d="M46 499l35 163h2048l-35 -163h-2048z" />
<glyph unicode="&#x2018;" horiz-adv-x="605" d="M391 1443h180l22 -539h-160z" />
<glyph unicode="&#x2019;" horiz-adv-x="605" d="M276 904l252 539h180l-272 -539h-160z" />
<glyph unicode="&#x201a;" horiz-adv-x="605" d="M-5 -417l252 539h180l-272 -539h-160z" />
<glyph unicode="&#x201c;" horiz-adv-x="1013" d="M391 1443h180l22 -539h-160zM799 1443h180l22 -539h-160z" />
<glyph unicode="&#x201d;" horiz-adv-x="1013" d="M276 904l252 539h180l-272 -539h-160zM684 904l252 539h180l-272 -539h-160z" />
<glyph unicode="&#x201e;" horiz-adv-x="1013" d="M-5 -417l252 539h180l-272 -539h-160zM403 -417l252 539h180l-272 -539h-160z" />
<glyph unicode="&#x2022;" horiz-adv-x="1032" d="M275 580q0 64 23.5 119.5t64.5 96.5t96.5 64.5t119.5 23.5t119.5 -23.5t96.5 -64.5t64.5 -96.5t23.5 -119.5t-23.5 -119.5t-64.5 -96.5t-96.5 -64.5t-119.5 -23.5t-119.5 23.5t-96.5 64.5t-64.5 96.5t-23.5 119.5z" />
<glyph unicode="&#x2026;" horiz-adv-x="1642" d="M114 120q0 27 10.5 50.5t28 41.5t41 28t50.5 10t50.5 -10t41.5 -28t28 -41.5t10 -50.5t-10 -50.5t-28 -41t-41.5 -28t-50.5 -10.5t-50.5 10.5t-41 28t-28 41t-10.5 50.5zM632 120q0 27 10.5 50.5t28 41.5t41 28t50.5 10t50.5 -10t41.5 -28t28 -41.5t10 -50.5t-10 -50.5 t-28 -41t-41.5 -28t-50.5 -10.5t-50.5 10.5t-41 28t-28 41t-10.5 50.5zM1138 120q0 27 10.5 50.5t28 41.5t41 28t50.5 10t50.5 -10t41.5 -28t28 -41.5t10 -50.5t-10 -50.5t-28 -41t-41.5 -28t-50.5 -10.5t-50.5 10.5t-41 28t-28 41t-10.5 50.5z" />
<glyph unicode="&#x202f;" horiz-adv-x="405" />
<glyph unicode="&#x2039;" horiz-adv-x="912" d="M207 561l2 8l439 416h219l-453 -432l-3 -16l248 -392h-190z" />
<glyph unicode="&#x203a;" horiz-adv-x="912" d="M165 145l453 432l3 16l-248 392h190l262 -416l-2 -8l-439 -416h-219z" />
<glyph unicode="&#x205f;" horiz-adv-x="507" />
<glyph unicode="&#x20ac;" d="M157 494l29 136h185v2q0 98 15 187h-157l29 136h161q40 120 110 215t167 161t219 101t266 35q30 0 66.5 -3t73 -8t69.5 -10.5t56 -11.5l-37 -164q-21 5 -49 10.5t-59.5 10t-65 7t-63.5 2.5q-204 0 -344.5 -90t-207.5 -255h493l-29 -136h-504q-16 -80 -16 -177v-12h477 l-29 -136h-427q24 -81 75 -146.5t124 -111t166.5 -70.5t204.5 -25q8 0 16 0.5t15 0.5l-35 -164q-6 -1 -15 -1h-26q-138 0 -259 37.5t-216 105.5t-159.5 163t-89.5 211h-229z" />
<glyph unicode="&#x2122;" horiz-adv-x="2263" d="M383 1303l30 140h789l-30 -140h-316l-162 -763h-157l162 763h-316zM1160 540l192 903h160l176 -670h16l458 670h182l-192 -903h-144l132 624h-16l-411 -598h-104l-155 598h-16l-132 -624h-146z" />
<glyph unicode="&#x25fc;" horiz-adv-x="1080" d="M0 0v1080h1080v-1080h-1080z" />
<glyph unicode="&#xfb01;" horiz-adv-x="1242" d="M174 0l194 934h-179l30 144h179l20 105q16 83 46 142t75.5 97t108.5 56t145 18q38 0 64 -2.5t57 -7.5l-29 -144q-17 4 -45.5 6.5t-63.5 2.5q-75 0 -120.5 -41t-62.5 -132l-19 -100h245l-30 -144h-245l-194 -934h-176zM836 0l231 1078h176l-231 -1078h-176zM1105 1417 q0 25 9.5 46.5t26 38t38 26t46.5 9.5t46.5 -9.5t38 -26t26 -38t9.5 -46.5t-9.5 -46.5t-26 -38t-38 -26t-46.5 -9.5t-46.5 9.5t-38 26t-26 38t-9.5 46.5z" />
<glyph unicode="&#xfb02;" horiz-adv-x="1242" d="M174 0l194 934h-179l30 144h179l20 105q16 83 46 142t75.5 97t108.5 56t145 18q38 0 64 -2.5t57 -7.5l-29 -144q-17 4 -45.5 6.5t-63.5 2.5q-75 0 -120.5 -41t-62.5 -132l-19 -100h245l-30 -144h-245l-194 -934h-176zM836 0l320 1506h176l-320 -1506h-176z" />
</font>
</defs>
</svg>
