<svg xmlns="http://www.w3.org/2000/svg" version="1.1" x="0" y="0" width="214" height="186" enable-background="new 0 0 214 184.666" xml:space="preserve"><g display="none"><g display="inline"><defs><rect x="18" y="-122.67" width="443" height="456"/></defs><clipPath><use overflow="visible"/></clipPath><g clip-path="url(#SVGID_2_)"><image overflow="visible" enable-background="new    " width="443" height="456" transform="matrix(1 0 0 1 18 -122.667)"/></g></g></g><path opacity="0.5" enable-background="new    " d="M212 157.83c0-0.83-0.67-1.5-1.5-1.5h-30c-0.83 0-1.5 0.67-1.5 1.5l0 0c0 0.83 0.67 1.5 1.5 1.5h30C211.33 159.33 212 158.66 212 157.83L212 157.83z"/><path fill="#FFFFFF" d="M211 156.83c0-0.83-0.67-1.5-1.5-1.5h-30c-0.83 0-1.5 0.67-1.5 1.5l0 0c0 0.83 0.67 1.5 1.5 1.5h30C210.33 158.33 211 157.66 211 156.83L211 156.83z"/><path opacity="0.5" enable-background="new    " d="M212 165.83c0-0.83-0.67-1.5-1.5-1.5h-30c-0.83 0-1.5 0.67-1.5 1.5l0 0c0 0.83 0.67 1.5 1.5 1.5h30C211.33 167.33 212 166.66 212 165.83L212 165.83z"/><path fill="#FFFFFF" d="M211 164.83c0-0.83-0.67-1.5-1.5-1.5h-30c-0.83 0-1.5 0.67-1.5 1.5l0 0c0 0.83 0.67 1.5 1.5 1.5h30C210.33 166.33 211 165.66 211 164.83L211 164.83z"/><path opacity="0.5" enable-background="new    " d="M212 173.83c0-0.83-0.67-1.5-1.5-1.5h-30c-0.83 0-1.5 0.67-1.5 1.5l0 0c0 0.83 0.67 1.5 1.5 1.5h30C211.33 175.33 212 174.66 212 173.83L212 173.83z"/><path fill="#FFFFFF" d="M211 172.83c0-0.83-0.67-1.5-1.5-1.5h-30c-0.83 0-1.5 0.67-1.5 1.5l0 0c0 0.83 0.67 1.5 1.5 1.5h30C210.33 174.33 211 173.66 211 172.83L211 172.83z"/><path opacity="0.5" enable-background="new    " d="M212 181.83c0-0.83-0.67-1.5-1.5-1.5h-30c-0.83 0-1.5 0.67-1.5 1.5l0 0c0 0.83 0.67 1.5 1.5 1.5h30C211.33 183.33 212 182.66 212 181.83L212 181.83z"/><path fill="#FFFFFF" d="M211 180.83c0-0.83-0.67-1.5-1.5-1.5h-30c-0.83 0-1.5 0.67-1.5 1.5l0 0c0 0.83 0.67 1.5 1.5 1.5h30C210.33 182.33 211 181.66 211 180.83L211 180.83z"/><path fill="#666666" d="M86 156.83c0-0.83-0.67-1.5-1.5-1.5h-30c-0.83 0-1.5 0.67-1.5 1.5l0 0c0 0.83 0.67 1.5 1.5 1.5h30C85.33 158.33 86 157.66 86 156.83L86 156.83z"/><path fill="#666666" d="M86 164.83c0-0.83-0.67-1.5-1.5-1.5h-30c-0.83 0-1.5 0.67-1.5 1.5l0 0c0 0.83 0.67 1.5 1.5 1.5h30C85.33 166.33 86 165.66 86 164.83L86 164.83z"/><path fill="#666666" d="M86 172.83c0-0.83-0.67-1.5-1.5-1.5h-30c-0.83 0-1.5 0.67-1.5 1.5l0 0c0 0.83 0.67 1.5 1.5 1.5h30C85.33 174.33 86 173.66 86 172.83L86 172.83z"/><path fill="#666666" d="M86 180.83c0-0.83-0.67-1.5-1.5-1.5h-30c-0.83 0-1.5 0.67-1.5 1.5l0 0c0 0.83 0.67 1.5 1.5 1.5h30C85.33 182.33 86 181.66 86 180.83L86 180.83z"/><path opacity="0.5" fill="#231F20" enable-background="new    " d="M156 159.33c0 1.1-0.9 2-2 2h-3c-1.1 0-2-0.9-2-2v-3c0-1.1 0.9-2 2-2h3c1.1 0 2 0.9 2 2V159.33z"/><path fill="#FFFFFF" d="M155 158.33c0 1.1-0.9 2-2 2h-3c-1.1 0-2-0.9-2-2v-3c0-1.1 0.9-2 2-2h3c1.1 0 2 0.9 2 2V158.33z"/><path opacity="0.5" fill="#231F20" enable-background="new    " d="M145 159.33c0 1.1-0.9 2-2 2h-3c-1.1 0-2-0.9-2-2v-3c0-1.1 0.9-2 2-2h3c1.1 0 2 0.9 2 2V159.33z"/><path fill="#FFFFFF" d="M144 158.33c0 1.1-0.9 2-2 2h-3c-1.1 0-2-0.9-2-2v-3c0-1.1 0.9-2 2-2h3c1.1 0 2 0.9 2 2V158.33z"/><path opacity="0.5" fill="#231F20" enable-background="new    " d="M134 159.33c0 1.1-0.9 2-2 2h-3c-1.1 0-2-0.9-2-2v-3c0-1.1 0.9-2 2-2h3c1.1 0 2 0.9 2 2V159.33z"/><path fill="#FFFFFF" d="M133 158.33c0 1.1-0.9 2-2 2h-3c-1.1 0-2-0.9-2-2v-3c0-1.1 0.9-2 2-2h3c1.1 0 2 0.9 2 2V158.33z"/><path opacity="0.5" fill="#231F20" enable-background="new    " d="M156 170.33c0 1.1-0.9 2-2 2h-3c-1.1 0-2-0.9-2-2v-3c0-1.1 0.9-2 2-2h3c1.1 0 2 0.9 2 2V170.33z"/><path fill="#FFFFFF" d="M155 169.33c0 1.1-0.9 2-2 2h-3c-1.1 0-2-0.9-2-2v-3c0-1.1 0.9-2 2-2h3c1.1 0 2 0.9 2 2V169.33z"/><path opacity="0.5" fill="#231F20" enable-background="new    " d="M145 170.33c0 1.1-0.9 2-2 2h-3c-1.1 0-2-0.9-2-2v-3c0-1.1 0.9-2 2-2h3c1.1 0 2 0.9 2 2V170.33z"/><path fill="#FFFFFF" d="M144 169.33c0 1.1-0.9 2-2 2h-3c-1.1 0-2-0.9-2-2v-3c0-1.1 0.9-2 2-2h3c1.1 0 2 0.9 2 2V169.33z"/><path opacity="0.5" fill="#231F20" enable-background="new    " d="M134 170.33c0 1.1-0.9 2-2 2h-3c-1.1 0-2-0.9-2-2v-3c0-1.1 0.9-2 2-2h3c1.1 0 2 0.9 2 2V170.33z"/><path fill="#FFFFFF" d="M133 169.33c0 1.1-0.9 2-2 2h-3c-1.1 0-2-0.9-2-2v-3c0-1.1 0.9-2 2-2h3c1.1 0 2 0.9 2 2V169.33z"/><path opacity="0.5" fill="#231F20" enable-background="new    " d="M156 181.33c0 1.1-0.9 2-2 2h-3c-1.1 0-2-0.9-2-2v-3c0-1.1 0.9-2 2-2h3c1.1 0 2 0.9 2 2V181.33z"/><path fill="#FFFFFF" d="M155 180.33c0 1.1-0.9 2-2 2h-3c-1.1 0-2-0.9-2-2v-3c0-1.1 0.9-2 2-2h3c1.1 0 2 0.9 2 2V180.33z"/><path opacity="0.5" fill="#231F20" enable-background="new    " d="M145 181.33c0 1.1-0.9 2-2 2h-3c-1.1 0-2-0.9-2-2v-3c0-1.1 0.9-2 2-2h3c1.1 0 2 0.9 2 2V181.33z"/><path fill="#FFFFFF" d="M144 180.33c0 1.1-0.9 2-2 2h-3c-1.1 0-2-0.9-2-2v-3c0-1.1 0.9-2 2-2h3c1.1 0 2 0.9 2 2V180.33z"/><path opacity="0.5" fill="#231F20" enable-background="new    " d="M134 181.33c0 1.1-0.9 2-2 2h-3c-1.1 0-2-0.9-2-2v-3c0-1.1 0.9-2 2-2h3c1.1 0 2 0.9 2 2V181.33z"/><path fill="#FFFFFF" d="M133 180.33c0 1.1-0.9 2-2 2h-3c-1.1 0-2-0.9-2-2v-3c0-1.1 0.9-2 2-2h3c1.1 0 2 0.9 2 2V180.33z"/><path fill="#666666" d="M8 158.33c0 1.1-0.9 2-2 2H3c-1.1 0-2-0.9-2-2v-3c0-1.1 0.9-2 2-2h3c1.1 0 2 0.9 2 2V158.33z"/><path fill="#666666" d="M19 158.33c0 1.1-0.9 2-2 2h-3c-1.1 0-2-0.9-2-2v-3c0-1.1 0.9-2 2-2h3c1.1 0 2 0.9 2 2V158.33z"/><path fill="#666666" d="M30 158.33c0 1.1-0.9 2-2 2h-3c-1.1 0-2-0.9-2-2v-3c0-1.1 0.9-2 2-2h3c1.1 0 2 0.9 2 2V158.33z"/><path fill="#666666" d="M8 169.33c0 1.1-0.9 2-2 2H3c-1.1 0-2-0.9-2-2v-3c0-1.1 0.9-2 2-2h3c1.1 0 2 0.9 2 2V169.33z"/><path fill="#666666" d="M19 169.33c0 1.1-0.9 2-2 2h-3c-1.1 0-2-0.9-2-2v-3c0-1.1 0.9-2 2-2h3c1.1 0 2 0.9 2 2V169.33z"/><path fill="#666666" d="M30 169.33c0 1.1-0.9 2-2 2h-3c-1.1 0-2-0.9-2-2v-3c0-1.1 0.9-2 2-2h3c1.1 0 2 0.9 2 2V169.33z"/><path fill="#666666" d="M8 180.33c0 1.1-0.9 2-2 2H3c-1.1 0-2-0.9-2-2v-3c0-1.1 0.9-2 2-2h3c1.1 0 2 0.9 2 2V180.33z"/><path fill="#666666" d="M19 180.33c0 1.1-0.9 2-2 2h-3c-1.1 0-2-0.9-2-2v-3c0-1.1 0.9-2 2-2h3c1.1 0 2 0.9 2 2V180.33z"/><path fill="#666666" d="M30 180.33c0 1.1-0.9 2-2 2h-3c-1.1 0-2-0.9-2-2v-3c0-1.1 0.9-2 2-2h3c1.1 0 2 0.9 2 2V180.33z"/><g display="none"><g display="inline"><circle fill="#C3C1C1" cx="253.17" cy="210" r="16.33"/><rect x="244.91" y="208.07" transform="matrix(-0.707 -0.7072 0.7072 -0.707 283.3512 537.3162)" fill="#FFFFFF" width="16.15" height="3.79"/><rect x="244.92" y="208.08" transform="matrix(-0.7072 0.707 -0.707 -0.7072 580.3709 179.5963)" fill="#FFFFFF" width="16.15" height="3.79"/></g><g display="inline"><circle display="none" fill="#C3C1C1" cx="337.33" cy="210.67" r="16.33"/><rect x="329.08" y="208.73" transform="matrix(-0.7071 -0.7071 0.7071 -0.7071 426.6317 597.9481)" display="none" fill="#FFFFFF" width="16.15" height="3.79"/><rect x="329.11" y="208.75" transform="matrix(-0.7073 0.707 -0.707 -0.7073 724.5828 121.2585)" display="none" fill="#FFFFFF" width="16.15" height="3.79"/></g><g display="inline" enable-background="new    "><path fill="#010101" d="M164.15 179.87c0 2.78-1.69 4.26-3.75 4.26 -2.13 0-3.63-1.65-3.63-4.1 0-2.57 1.59-4.25 3.75-4.25C162.73 175.78 164.15 177.48 164.15 179.87zM157.88 180.01c0 1.73 0.94 3.27 2.58 3.27 1.66 0 2.59-1.52 2.59-3.36 0-1.61-0.84-3.29-2.58-3.29C158.74 176.64 157.88 178.23 157.88 180.01z"/><path fill="#010101" d="M165.51 175.92h4.35v0.88h-3.31v2.69h3.06v0.86h-3.06V184h-1.04V175.92L165.51 175.92z"/><path fill="#010101" d="M171.36 175.92h4.35v0.88H172.4v2.69h3.06v0.86H172.4V184h-1.04V175.92z"/></g><g display="inline" enable-background="new    "><path fill="#010101" d="M237.29 175.92v3.38h3.91v-3.38h1.06V184h-1.06v-3.79h-3.91V184h-1.04v-8.08H237.29z"/><path fill="#010101" d="M250.98 179.87c0 2.78-1.69 4.26-3.75 4.26 -2.13 0-3.63-1.65-3.63-4.1 0-2.57 1.6-4.25 3.75-4.25C249.55 175.78 250.98 177.48 250.98 179.87zM244.71 180.01c0 1.73 0.94 3.27 2.58 3.27 1.65 0 2.59-1.52 2.59-3.36 0-1.61-0.84-3.29-2.58-3.29C245.57 176.64 244.71 178.23 244.71 180.01z"/><path fill="#010101" d="M254.11 184l-2.64-8.08h1.13l1.26 3.98c0.35 1.09 0.65 2.07 0.86 3.02h0.02c0.23-0.94 0.56-1.95 0.92-3.01l1.37-3.99h1.12L255.26 184H254.11z"/><path fill="#010101" d="M263.22 180.21h-3.14v2.91h3.5V184h-4.54v-8.08h4.37v0.88h-3.32v2.56h3.14V180.21z"/><path fill="#010101" d="M264.94 176.02c0.53-0.11 1.28-0.17 2-0.17 1.12 0 1.84 0.2 2.34 0.66 0.41 0.36 0.64 0.91 0.64 1.54 0 1.07-0.67 1.78-1.52 2.06v0.04c0.62 0.22 1 0.79 1.19 1.63 0.26 1.13 0.46 1.91 0.62 2.22h-1.08c-0.13-0.23-0.31-0.92-0.54-1.93 -0.24-1.11-0.67-1.53-1.62-1.57h-0.98V184h-1.04v-7.98H264.94zM265.98 179.71h1.07c1.12 0 1.82-0.61 1.82-1.53 0-1.04-0.76-1.5-1.86-1.51 -0.5 0-0.86 0.05-1.03 0.1V179.71L265.98 179.71z"/></g><g display="inline" enable-background="new    "><path fill="#010101" d="M321.15 179.87c0 2.78-1.69 4.26-3.75 4.26 -2.14 0-3.64-1.65-3.64-4.1 0-2.57 1.6-4.25 3.75-4.25C319.73 175.78 321.15 177.48 321.15 179.87zM314.88 180.01c0 1.73 0.94 3.27 2.58 3.27 1.66 0 2.59-1.52 2.59-3.36 0-1.61-0.84-3.29-2.58-3.29C315.74 176.64 314.88 178.23 314.88 180.01z"/><path fill="#010101" d="M322.51 184v-8.08h1.14l2.59 4.09c0.6 0.95 1.07 1.8 1.45 2.63l0.02-0.01c-0.1-1.08-0.12-2.06-0.12-3.32v-3.38h0.98V184h-1.05l-2.57-4.1c-0.56-0.9-1.1-1.82-1.51-2.7l-0.04 0.01c0.06 1.02 0.08 1.99 0.08 3.33V184H322.51z"/><path fill="#010101" d="M332.82 180.37v0.78h-2.96v-0.78H332.82z"/><path fill="#010101" d="M339.91 183.74c-0.38 0.19-1.15 0.39-2.13 0.39 -2.28 0-3.99-1.44-3.99-4.09 0-2.53 1.72-4.25 4.22-4.25 1.01 0 1.65 0.22 1.92 0.36l-0.25 0.85c-0.4-0.19-0.96-0.34-1.63-0.34 -1.9 0-3.15 1.21-3.15 3.33 0 1.98 1.14 3.25 3.11 3.25 0.64 0 1.28-0.13 1.7-0.34L339.91 183.74z"/><path fill="#010101" d="M341.22 175.92h1.04v7.21h3.45V184h-4.5V175.92L341.22 175.92z"/><path fill="#010101" d="M347.93 175.92V184h-1.04v-8.08H347.93z"/><path fill="#010101" d="M355.4 183.74c-0.39 0.19-1.15 0.39-2.14 0.39 -2.28 0-3.99-1.44-3.99-4.09 0-2.53 1.72-4.25 4.22-4.25 1.01 0 1.64 0.22 1.92 0.36l-0.25 0.85c-0.4-0.19-0.96-0.34-1.63-0.34 -1.9 0-3.15 1.21-3.15 3.33 0 1.98 1.14 3.25 3.11 3.25 0.64 0 1.28-0.13 1.7-0.34L355.4 183.74z"/><path fill="#010101" d="M356.71 175.92h1.04v3.9h0.04c0.22-0.31 0.43-0.6 0.64-0.86l2.47-3.03h1.3l-2.93 3.43 3.15 4.65h-1.23l-2.66-3.97 -0.77 0.89V184h-1.04V175.92L356.71 175.92z"/></g><g display="inline"><path fill="#D0D1CF" d="M143.67 115"/><path fill="#D0D1CF" d="M143.67 82.33"/><path fill="#FFFFFF" d="M139.09 91.58"/><path fill="#FFFFFF" d="M147.87 91.59"/></g></g><circle fill="#C3C1C1" cx="144.67" cy="17.67" r="16.33"/><rect x="136.39" y="15.73" transform="matrix(-0.7071 -0.7071 0.7071 -0.7071 234.1516 132.2319)" fill="#FFFFFF" width="16.15" height="3.79"/><rect x="136.43" y="15.74" transform="matrix(-0.7072 0.707 -0.707 -0.7072 259.1616 -72.0516)" fill="#FFFFFF" width="16.15" height="3.79"/><ellipse fill="none" stroke="#B5B3B3" stroke-miterlimit="10" cx="144.66" cy="17.66" rx="14.75" ry="14.8"/><ellipse fill="none" stroke="#949292" stroke-miterlimit="10" cx="144.67" cy="17.67" rx="15.75" ry="15.75"/><circle fill="#C3C1C1" cx="81.67" cy="17.67" r="16.33"/><rect x="73.39" y="15.73" transform="matrix(-0.7071 -0.7071 0.7071 -0.7071 126.602 87.6863)" fill="#FFFFFF" width="16.15" height="3.79"/><rect x="73.43" y="15.74" transform="matrix(-0.7072 0.707 -0.707 -0.7072 151.6098 -27.5116)" fill="#FFFFFF" width="16.15" height="3.79"/><path fill="#666767" d="M28.25 102.27l-5.73-5.69c-0.08-0.08-0.17-0.14-0.26-0.21 1.18-1.81 1.83-4.05 1.83-6.37 0-6.38-5.17-11.55-11.55-11.55C6.17 78.46 1 83.63 1 90.01c0 6.38 5.17 11.55 11.55 11.55 2.32 0 4.5-0.56 6.31-1.74 0.07 0.09 0.13 0.18 0.21 0.26l5.93 5.59 3.25 0.01V102.27zM12.58 97.87c-4.32 0-7.84-3.52-7.84-7.84 0-4.32 3.52-7.84 7.84-7.84 4.32 0 7.84 3.52 7.84 7.84C20.42 94.35 16.9 97.87 12.58 97.87z"/><circle fill="#D0D1CF" cx="17.33" cy="17.67" r="16.33"/><rect x="9.05" y="15.73" transform="matrix(-0.7071 -0.7071 0.7071 -0.7071 16.7753 42.1971)" fill="#FFFFFF" width="16.15" height="3.79"/><rect x="9.1" y="15.74" transform="matrix(-0.7072 0.707 -0.707 -0.7072 41.7828 17.974)" fill="#FFFFFF" width="16.15" height="3.79"/></svg>
