<?xml version="1.0" encoding="utf-8"?>
<!-- Generator: Adobe Illustrator 16.0.0, SVG Export Plug-In . SVG Version: 6.00 Build 0)  -->
<!DOCTYPE svg PUBLIC "-//W3C//DTD SVG 1.1//EN" "http://www.w3.org/Graphics/SVG/1.1/DTD/svg11.dtd">
<svg version="1.1" id="Layer_1" xmlns="http://www.w3.org/2000/svg" xmlns:xlink="http://www.w3.org/1999/xlink" x="0px" y="0px"
	 width="56px" height="56px" viewBox="0 0 56 56" enable-background="new 0 0 56 56" xml:space="preserve">
<filter  id="AI_GaussianBlur_4">
	<feGaussianBlur  stdDeviation="2"></feGaussianBlur>
</filter>
<g filter="url(#AI_GaussianBlur_4)">
	<ellipse fill="#3D3D3D" cx="28" cy="25.999" rx="19" ry="20.001"/>
</g>
<g>
	<path d="M28,40.5c-10.201,0-18.5-8.3-18.5-18.501C9.5,11.799,17.799,3.5,28,3.5s18.5,8.299,18.5,18.499
		C46.5,32.2,38.201,40.5,28,40.5z"/>
	<path fill="#FFFFFF" d="M28,5c9.374,0,17,7.625,17,16.999C45,31.373,37.374,39,28,39s-17-7.627-17-17.001C11,12.625,18.626,5,28,5
		 M28,2C16.954,2,8,10.954,8,21.999C8,33.045,16.954,42,28,42s20-8.955,20-20.001C48,10.954,39.046,2,28,2L28,2z"/>
</g>
<g>
	<line fill="none" stroke="#FFFFFF" stroke-width="4" stroke-miterlimit="10" x1="18.809" y1="12.808" x2="37.193" y2="31.192"/>
	<line fill="none" stroke="#FFFFFF" stroke-width="4" stroke-miterlimit="10" x1="37.193" y1="12.808" x2="18.809" y2="31.192"/>
</g>
</svg>
