<?xml version="1.0" standalone="no"?><!DOCTYPE svg PUBLIC "-//W3C//DTD SVG 1.1//EN" "http://www.w3.org/Graphics/SVG/1.1/DTD/svg11.dtd"><svg viewBox="0 0 65 72" version="1.1" xmlns="http://www.w3.org/2000/svg" xmlns:xlink="http://www.w3.org/1999/xlink"><defs xmlns="http://www.w3.org/1999/xhtml"><style type="text/css"><![CDATA[
div.fixed { position: fixed; bottom: 0px; right: 0px; width: 40px; height: 40px; }
.blink { animation: blink 0.75s linear infinite; }
.papa { width: 500px; }
.mama { width: 333px; }
.baby { width: 166px; }]]></style></defs>
  <path d="M41 31h-9V19c0-1.14-.647-2.183-1.668-2.688-1.022-.507-2.243-.39-3.15.302l-21 16C5.438 33.18 5 34.064 5 35s.437 1.82 1.182 2.387l21 16c.533.405 1.174.613 1.82.613.453 0 .908-.103 1.33-.312C31.354 53.183 32 52.14 32 51V39h9c5.514 0 10 4.486 10 10 0 2.21 1.79 4 4 4s4-1.79 4-4c0-9.925-8.075-18-18-18z"/>
</svg>