<?xml version="1.0" encoding="UTF-8" standalone="no"?>
<svg
   xmlns:xhtml="http://www.w3.org/1999/xhtml"
   xmlns:dc="http://purl.org/dc/elements/1.1/"
   xmlns:cc="http://creativecommons.org/ns#"
   xmlns:rdf="http://www.w3.org/1999/02/22-rdf-syntax-ns#"
   xmlns:svg="http://www.w3.org/2000/svg"
   xmlns="http://www.w3.org/2000/svg"
   xmlns:sodipodi="http://sodipodi.sourceforge.net/DTD/sodipodi-0.dtd"
   xmlns:inkscape="http://www.inkscape.org/namespaces/inkscape"
   viewBox="0 0 65 72"
   version="1.1"
   id="svg2"
   inkscape:version="0.91 r13725"
   sodipodi:docname="hello-world (1) copy 2.svg">
  <metadata
     id="metadata10">
    <rdf:RDF>
      <cc:Work
         rdf:about="">
        <dc:format>image/svg+xml</dc:format>
        <dc:type
           rdf:resource="http://purl.org/dc/dcmitype/StillImage" />
      </cc:Work>
    </rdf:RDF>
  </metadata>
  <defs
     id="defs8" />
  <sodipodi:namedview
     pagecolor="#ffffff"
     bordercolor="#666666"
     borderopacity="1"
     objecttolerance="10"
     gridtolerance="10"
     guidetolerance="10"
     inkscape:pageopacity="0"
     inkscape:pageshadow="2"
     inkscape:window-width="1264"
     inkscape:window-height="780"
     id="namedview6"
     showgrid="false"
     inkscape:zoom="3.2777778"
     inkscape:cx="-55.974576"
     inkscape:cy="36"
     inkscape:window-x="0"
     inkscape:window-y="0"
     inkscape:window-maximized="0"
     inkscape:current-layer="svg2" />
  <xhtml:defs>
    <xhtml:style
       type="text/css"><![CDATA[
div.fixed { position: fixed; bottom: 0px; right: 0px; width: 40px; height: 40px; }
.blink { animation: blink 0.75s linear infinite; }
.papa { width: 500px; }
.mama { width: 333px; }
.baby { width: 166px; }]]></xhtml:style>
  </xhtml:defs>
  <path
     d="M41 31h-9V19c0-1.14-.647-2.183-1.668-2.688-1.022-.507-2.243-.39-3.15.302l-21 16C5.438 33.18 5 34.064 5 35s.437 1.82 1.182 2.387l21 16c.533.405 1.174.613 1.82.613.453 0 .908-.103 1.33-.312C31.354 53.183 32 52.14 32 51V39h9c5.514 0 10 4.486 10 10 0 2.21 1.79 4 4 4s4-1.79 4-4c0-9.925-8.075-18-18-18z"
     id="path4"
     style="fill:#aab8c2;fill-opacity:1;opacity:0.5" />
</svg>
