<?xml version="1.0" encoding="utf-8"?>
<!-- Generator: Adobe Illustrator 19.1.0, SVG Export Plug-In . SVG Version: 6.00 Build 0)  -->
<svg version="1.1" id="Layer_1" xmlns="http://www.w3.org/2000/svg" xmlns:xlink="http://www.w3.org/1999/xlink" x="0px" y="0px"
	 viewBox="-530.3 474 48 54" style="enable-background:new -530.3 474 48 54;" xml:space="preserve">
<style type="text/css">
	.st0{fill:#333333;}
	.st1{fill:none;stroke:#333333;stroke-miterlimit:10;}
	.st2{fill:none;stroke:#333333;stroke-width:1.0836;stroke-miterlimit:10;}
</style>
<path class="st0" d="M-504.3,524.5c1.2,0.3,2.3,0.3,2.7-0.7s4.8-19,4.8-19.2c-0.1-0.3,0.6-2.9,1-4c0.4-1.1,1.2-4.6,2.7-5.7
	s2.6-0.3,3,0.2c0.4,0.5,1.5,0.9,2,0.9c0.4,0,0.9-1.5,1-2.1c0.2-0.6,0.5-2.1,0.3-2.3s-1.5-0.5-1.8-0.5c-0.2,0.1-0.7,0.4-1.1,0.3
	c-0.4,0-1.5-0.6-1.9-1c-0.4-0.4-1-0.9-2.7-1.4c-1.7-0.4-5.1-0.6-6.9-0.3c-1.8,0.4-3.2,1.2-3.3,1.3c-0.1,0.1-0.2,0.3,0,0.3
	c0.2,0.1,0.8-0.1,0.8-0.1s-0.8,0.5-0.8,0.6c0,0.1-0.1,0.3,1,0c1.1-0.3,3.3-0.9,4.9,0.9c1.5,1.8,1.3,4,1.2,4.6
	c-0.1,0.6-1.7,6.9-1.9,7c-0.2,0.1-6.3,17.4-6.4,18.4S-505.9,524.1-504.3,524.5z"/>
<rect x="-523.7" y="494.7" transform="matrix(0.9881 -0.1539 0.1539 0.9881 -84.2746 -71.9807)" class="st1" width="33.5" height="27.2"/>
<g>
	<g>
		
			<rect x="-518.2" y="508.1" transform="matrix(0.3538 -0.9353 0.9353 0.3538 -807.6348 -150.0863)" class="st0" width="11.6" height="2.7"/>
		<polygon class="st0" points="-513.3,515.6 -516.2,519.5 -515.8,514.7 		"/>
		<path class="st0" d="M-509.1,504.3l-2.5-0.9l0.6-1.7c0.2-0.6,0.8-0.8,1.4-0.6l0.5,0.2c0.6,0.2,0.8,0.8,0.6,1.4L-509.1,504.3z"/>
		<rect x="-497.8" y="507.8" class="st0" width="0" height="0"/>
		<polygon class="st0" points="-513.8,508.4 -519,509.3 -518.5,511.9 -514.9,511.3 		"/>
	</g>
</g>
<path class="st0" d="M-502.2,508.5l-1.4-1.7l-6.5,1.1l-1.1,2.9l8.7-1.4C-502.4,509-502.3,508.7-502.2,508.5z"/>
<path class="st0" d="M-504.3,524.5c1.2,0.3,2.3,0.3,2.7-0.7s4.8-19,4.8-19.2c-0.1-0.3,0.6-2.9,1-4c0.4-1.1,1.2-4.6,2.7-5.7
	s2.6-0.3,3,0.2c0.4,0.5,1.5,0.9,2,0.9c0.4,0,0.9-1.5,1-2.1c0.2-0.6,0.5-2.1,0.3-2.3s-1.5-0.5-1.8-0.5c-0.2,0.1-0.7,0.4-1.1,0.3
	c-0.4,0-1.5-0.6-1.9-1c-0.4-0.4-1-0.9-2.7-1.4c-1.7-0.4-5.1-0.6-6.9-0.3c-1.8,0.4-3.2,1.2-3.3,1.3c-0.1,0.1-0.2,0.3,0,0.3
	c0.2,0.1,0.8-0.1,0.8-0.1s-0.8,0.5-0.8,0.6c0,0.1-0.1,0.3,1,0c1.1-0.3,3.3-0.9,4.9,0.9c1.5,1.8,1.3,4,1.2,4.6
	c-0.1,0.6-1.7,6.9-1.9,7c-0.2,0.1-6.3,17.4-6.4,18.4S-505.9,524.1-504.3,524.5z"/>
<path class="st0" d="M-494.7,513.5c-0.1-1-0.8-1.8-1.3-2.4c0-0.1-0.1-0.1-0.2-0.2c0,0,0,0-0.1-0.1l0,0c-0.3-0.2-0.6-0.4-1-0.4
	c-0.2,1-0.5,2-0.8,3.1c0.8,0.7,1.8,1,2.2,1.3c0.5,0.4,0.4,0.8,0.4,0.8s0,0,0,0c0,0,0,0,0,0.1c0,0.1,0.1,0.2,0.2,0.2
	c0.1,0,0.1-0.1,0.1-0.1c0,0,0,0,0,0C-495,515.8-494.5,514.6-494.7,513.5z"/>
<path class="st0" d="M-496,505.5c-0.2,0.7-0.4,1.7-0.7,2.8l2.2-0.4l-0.4-2.6L-496,505.5z"/>
<path class="st0" d="M-501.1,505.2l-6.4-7.8c-0.4-0.5-1-0.5-1.5-0.2l-0.4,0.3c-0.5,0.4-0.5,1-0.2,1.5l7.4,9.1
	C-501.7,507-501.3,506-501.1,505.2z"/>
</svg>
