<?xml version="1.0" encoding="UTF-8" standalone="no"?>
<!-- Generator: Adobe Illustrator 19.1.0, SVG Export Plug-In . SVG Version: 6.00 Build 0)  -->

<svg
   xmlns:dc="http://purl.org/dc/elements/1.1/"
   xmlns:cc="http://creativecommons.org/ns#"
   xmlns:rdf="http://www.w3.org/1999/02/22-rdf-syntax-ns#"
   xmlns:svg="http://www.w3.org/2000/svg"
   xmlns="http://www.w3.org/2000/svg"
   xmlns:xlink="http://www.w3.org/1999/xlink"
   xmlns:sodipodi="http://sodipodi.sourceforge.net/DTD/sodipodi-0.dtd"
   xmlns:inkscape="http://www.inkscape.org/namespaces/inkscape"
   version="1.1"
   id="Layer_1"
   x="0px"
   y="0px"
   viewBox="-475 474 48 54"
   style="enable-background:new -475 474 48 54;"
   xml:space="preserve"
   inkscape:version="0.91 r13725"
   sodipodi:docname="resources-swift.svg"><metadata
     id="metadata11"><rdf:RDF><cc:Work
         rdf:about=""><dc:format>image/svg+xml</dc:format><dc:type
           rdf:resource="http://purl.org/dc/dcmitype/StillImage" /></cc:Work></rdf:RDF></metadata><defs
     id="defs9"><linearGradient
       inkscape:collect="always"
       id="linearGradient4261"><stop
         style="stop-color:#fc4831;stop-opacity:1"
         offset="0"
         id="stop4263" /><stop
         style="stop-color:#fb9c44;stop-opacity:1"
         offset="1"
         id="stop4265" /></linearGradient><linearGradient
       inkscape:collect="always"
       xlink:href="#linearGradient4261"
       id="linearGradient4267"
       x1="-470.7"
       y1="506.73979"
       x2="-431.17308"
       y2="506.73979"
       gradientUnits="userSpaceOnUse" /></defs><sodipodi:namedview
     pagecolor="#ffffff"
     bordercolor="#666666"
     borderopacity="1"
     objecttolerance="10"
     gridtolerance="10"
     guidetolerance="10"
     inkscape:pageopacity="0"
     inkscape:pageshadow="2"
     inkscape:window-width="1288"
     inkscape:window-height="658"
     id="namedview7"
     showgrid="false"
     inkscape:zoom="6.180637"
     inkscape:cx="3.8350465"
     inkscape:cy="19.963116"
     inkscape:window-x="0"
     inkscape:window-y="0"
     inkscape:window-maximized="0"
     inkscape:current-layer="Layer_1" /><style
     type="text/css"
     id="style3">
	.st0{fill:#333333;stroke:#333333;stroke-width:0.8589;stroke-miterlimit:10;}
	.st1{fill:#333333;}
	.st2{fill:none;stroke:#333333;stroke-miterlimit:10;}
</style><path
     class="st1"
     d="m -434.5,514 0,0 c 0.1,-0.2 0.1,-0.4 0.2,-0.6 2.2,-8.7 -3.1,-18.9 -12.1,-24.3 4,5.4 5.6,11.8 4.2,17.5 -0.1,0.5 -0.3,1 -0.5,1.5 -0.2,-0.1 -0.5,-0.3 -0.7,-0.5 0,0 -9,-5.6 -18.6,-15.3 -0.3,-0.3 5.2,7.8 11.3,14.2 -2.9,-1.7 -11,-7.5 -16.1,-12.2 0.6,1 1.4,2 2.2,3.1 4.3,5.5 9.8,12.1 16.5,17.2 -4.7,2.9 -11.3,3.1 -18,0 -1.7,-0.7 -3.1,-1.7 -4.6,-2.8 2.8,4.4 7.1,8.3 12.3,10.5 6.2,2.7 12.5,2.5 17,0 l 0,0 c 0,0 0,0 0.1,0 0.2,-0.1 0.4,-0.2 0.6,-0.4 2.2,-1.1 6.6,-2.3 9,2.3 0.5,1.3 1.7,-4.7 -2.8,-10.2 z"
     id="path5"
     style="fill:url(#linearGradient4267);fill-opacity:1.0;fill-rule:nonzero"
     inkscape:connector-curvature="0" /></svg>