<?xml version="1.0" encoding="utf-8"?>
<!-- Generator: Adobe Illustrator 19.1.0, SVG Export Plug-In . SVG Version: 6.00 Build 0)  -->
<svg version="1.1" id="Layer_1" xmlns="http://www.w3.org/2000/svg" xmlns:xlink="http://www.w3.org/1999/xlink" x="0px" y="0px"
	 viewBox="-475 474 48 54" style="enable-background:new -475 474 48 54;" xml:space="preserve">
<style type="text/css">
	.st0{fill:#333333;stroke:#333333;stroke-width:0.8589;stroke-miterlimit:10;}
	.st1{fill:#333333;}
	.st2{fill:none;stroke:#333333;stroke-miterlimit:10;}
</style>
<path class="st1" d="M-434.5,514L-434.5,514c0.1-0.2,0.1-0.4,0.2-0.6c2.2-8.7-3.1-18.9-12.1-24.3c4,5.4,5.6,11.8,4.2,17.5
	c-0.1,0.5-0.3,1-0.5,1.5c-0.2-0.1-0.5-0.3-0.7-0.5c0,0-9-5.6-18.6-15.3c-0.3-0.3,5.2,7.8,11.3,14.2c-2.9-1.7-11-7.5-16.1-12.2
	c0.6,1,1.4,2,2.2,3.1c4.3,5.5,9.8,12.1,16.5,17.2c-4.7,2.9-11.3,3.1-18,0c-1.7-0.7-3.1-1.7-4.6-2.8c2.8,4.4,7.1,8.3,12.3,10.5
	c6.2,2.7,12.5,2.5,17,0l0,0c0,0,0,0,0.1,0c0.2-0.1,0.4-0.2,0.6-0.4c2.2-1.1,6.6-2.3,9,2.3C-431.2,525.5-430,519.5-434.5,514z"/>
</svg>
