<?xml version="1.0" encoding="UTF-8" standalone="no"?>
<svg
   xmlns:xhtml="http://www.w3.org/1999/xhtml"
   xmlns:dc="http://purl.org/dc/elements/1.1/"
   xmlns:cc="http://creativecommons.org/ns#"
   xmlns:rdf="http://www.w3.org/1999/02/22-rdf-syntax-ns#"
   xmlns:svg="http://www.w3.org/2000/svg"
   xmlns="http://www.w3.org/2000/svg"
   xmlns:sodipodi="http://sodipodi.sourceforge.net/DTD/sodipodi-0.dtd"
   xmlns:inkscape="http://www.inkscape.org/namespaces/inkscape"
   viewBox="0 0 75 72"
   version="1.1"
   id="svg2"
   inkscape:version="0.91 r13725"
   sodipodi:docname="hello-world copy 5.svg">
  <metadata
     id="metadata10">
    <rdf:RDF>
      <cc:Work
         rdf:about="">
        <dc:format>image/svg+xml</dc:format>
        <dc:type
           rdf:resource="http://purl.org/dc/dcmitype/StillImage" />
      </cc:Work>
    </rdf:RDF>
  </metadata>
  <defs
     id="defs8" />
  <sodipodi:namedview
     pagecolor="#ffffff"
     bordercolor="#666666"
     borderopacity="1"
     objecttolerance="10"
     gridtolerance="10"
     guidetolerance="10"
     inkscape:pageopacity="0"
     inkscape:pageshadow="2"
     inkscape:window-width="664"
     inkscape:window-height="480"
     id="namedview6"
     showgrid="false"
     inkscape:zoom="3.2777778"
     inkscape:cx="37.5"
     inkscape:cy="36"
     inkscape:window-x="0"
     inkscape:window-y="0"
     inkscape:window-maximized="0"
     inkscape:current-layer="svg2" />
  <xhtml:defs>
    <xhtml:style
       type="text/css"><![CDATA[
div.fixed { position: fixed; bottom: 0px; right: 0px; width: 40px; height: 40px; }
.blink { animation: blink 0.75s linear infinite; }
.papa { width: 500px; }
.mama { width: 333px; }
.baby { width: 166px; }]]></xhtml:style>
  </xhtml:defs>
  <path
     d="M70.676 36.644C70.166 35.636 69.13 35 68 35h-7V19c0-2.21-1.79-4-4-4H34c-2.21 0-4 1.79-4 4s1.79 4 4 4h18c.552 0 .998.446 1 .998V35h-7c-1.13 0-2.165.636-2.676 1.644-.51 1.01-.412 2.22.257 3.13l11 15C55.148 55.545 56.046 56 57 56s1.855-.455 2.42-1.226l11-15c.668-.912.767-2.122.256-3.13zM40 48H22c-.54 0-.97-.427-.992-.96L21 36h7c1.13 0 2.166-.636 2.677-1.644.51-1.01.412-2.22-.257-3.13l-11-15C18.854 15.455 17.956 15 17 15s-1.854.455-2.42 1.226l-11 15c-.667.912-.767 2.122-.255 3.13C3.835 35.365 4.87 36 6 36h7l.012 16.003c.002 2.208 1.792 3.997 4 3.997h22.99c2.208 0 4-1.79 4-4s-1.792-4-4-4z"
     id="path4"
     style="fill:#19cf86;fill-opacity:1;opacity:0.5" />
</svg>
