<?xml version="1.0" encoding="UTF-8" standalone="no"?>
<!-- Created with Inkscape (http://www.inkscape.org/) by Toomai Glittershine for SmashWiki -->
<svg id="svg2" xmlns:rdf="http://www.w3.org/1999/02/22-rdf-syntax-ns#" xmlns="http://www.w3.org/2000/svg" version="1.1" xmlns:cc="http://creativecommons.org/ns#" xmlns:dc="http://purl.org/dc/elements/1.1/"
		height="256" width="256"
		viewBox="0 0 256 256">
	<metadata id="metadata7">
		<rdf:RDF>
			<cc:Work rdf:about="">
				<dc:format>image/svg+xml</dc:format>
				<dc:type rdf:resource="http://purl.org/dc/dcmitype/StillImage"/>
				<dc:title/>
			</cc:Work>
		</rdf:RDF>
	</metadata>
	<path id="mainsymbolpath" style="opacity:0.5;fill:#000000;fill-opacity:1;stroke:none"
		d="m 128,39.25 c -12.73989,0 -79.373949,69.71271 -78.5,90.6875 0.65584,15.74018 30.8125,17.6875 30.8125,17.6875 0,0 8.09375,23.15967 8.09375,26 0,2.84034 -6.34375,12.66491 -6.34375,19.875 0,7.21008 7.411502,14 11.78125,14 4.369748,0 10.5,-16.40625 10.5,-16.40625 0,0 4.38498,18.59427 12.6875,19.03125 C 125.33377,210.56197 128,192.40625 128,192.40625 c 0,0 2.66623,18.15572 10.96875,17.71875 8.30252,-0.43698 12.6875,-19.03125 12.6875,-19.03125 0,0 6.13025,16.40625 10.5,16.40625 4.36975,0 11.78125,-6.78992 11.78125,-14 0,-7.21009 -6.34375,-17.03466 -6.34375,-19.875 0,-2.84033 8.09375,-26 8.09375,-26 0,0 30.15666,-1.94732 30.8125,-17.6875 C 207.37395,108.96271 140.73989,39.25 128,39.25 z m -18.3125,62.0625 c 6.95293,0 13.33135,2.46409 18.3125,6.5625 4.98116,-4.09841 11.35957,-6.5625 18.3125,-6.5625 15.92808,0 28.84375,12.91567 28.84375,28.84375 C 175.15625,146.08432 162.24058,159 146.3125,159 139.35957,159 132.98116,156.53591 128,152.4375 123.01885,156.53591 116.64043,159 109.6875,159 93.759426,159 80.84375,146.08432 80.84375,130.15625 c 0,-15.92808 12.915676,-28.84375 28.84375,-28.84375 z m -1.3125,3.28125 c -13.394063,0 -24.25,10.85593 -24.25,24.25 0,13.39407 10.855937,24.25 24.25,24.25 8.07632,0 15.21784,-3.96072 19.625,-10.03125 4.40717,6.07053 11.54867,10.03125 19.625,10.03125 13.39406,0 24.25,-10.85593 24.25,-24.25 0,-13.39407 -10.85594,-24.25 -24.25,-24.25 -8.07633,0 -15.21783,3.96072 -19.625,10.03125 -4.40716,-6.07053 -11.54868,-10.03125 -19.625,-10.03125 z m 0.875,3.9375 c 6.9987,0 12.65625,5.65755 12.65625,12.65625 0,6.9987 -5.65755,12.6875 -12.65625,12.6875 -6.9987,0 -12.6875,-5.6888 -12.6875,-12.6875 0,-6.9987 5.6888,-12.65625 12.6875,-12.65625 z m 37.5,0 c 6.9987,0 12.6875,5.65755 12.6875,12.65625 0,6.9987 -5.6888,12.6875 -12.6875,12.6875 -6.9987,0 -12.65625,-5.6888 -12.65625,-12.6875 0,-6.9987 5.65755,-12.65625 12.65625,-12.65625 z"
	/>
</svg>