<?xml version="1.0" encoding="UTF-8" standalone="no"?>
<svg width="370px" height="120px" viewBox="0 0 370 120" version="1.1" xmlns="http://www.w3.org/2000/svg" xmlns:xlink="http://www.w3.org/1999/xlink" xmlns:sketch="http://www.bohemiancoding.com/sketch/ns">
    <!-- Generator: Sketch 3.3 (11970) - http://www.bohemiancoding.com/sketch -->
    <title>icon_set_gateway</title>
    <desc>Created with Sketch.</desc>
    <defs>
        <linearGradient x1="50%" y1="0%" x2="50%" y2="100%" id="linearGradient-1">
            <stop stop-color="#1B9CF6" offset="0%"></stop>
            <stop stop-color="#1D74F2" offset="100%"></stop>
        </linearGradient>
        <linearGradient x1="50%" y1="0%" x2="50%" y2="100%" id="linearGradient-2">
            <stop stop-color="#1AB9FA" offset="0%"></stop>
            <stop stop-color="#1E55EE" offset="100%"></stop>
        </linearGradient>
        <linearGradient x1="50%" y1="41.7255391%" x2="50%" y2="99.6515797%" id="linearGradient-3">
            <stop stop-color="#63F16A" offset="0%"></stop>
            <stop stop-color="#2DD340" offset="87.2887436%"></stop>
            <stop stop-color="#25CE3B" offset="100%"></stop>
        </linearGradient>
        <linearGradient x1="50%" y1="41.7255391%" x2="50%" y2="93.9920722%" id="linearGradient-4">
            <stop stop-color="#63F16A" offset="0%"></stop>
            <stop stop-color="#2FD442" offset="78.5375478%"></stop>
            <stop stop-color="#1FCB36" offset="100%"></stop>
        </linearGradient>
        <linearGradient x1="50%" y1="41.7255391%" x2="50%" y2="100%" id="linearGradient-5">
            <stop stop-color="#63F16A" offset="0%"></stop>
            <stop stop-color="#04BC21" offset="100%"></stop>
        </linearGradient>
    </defs>
    <g id="Page-1" stroke="none" stroke-width="1" fill="none" fill-rule="evenodd" sketch:type="MSPage">
        <g id="icon_set_gateway" sketch:type="MSLayerGroup" transform="translate(-10.000000, 0.000000)">
            <g id="Rectangle-1-+-Path-332-+-Path-333-+-Path-334" sketch:type="MSShapeGroup">
                <rect id="Rectangle-1" fill-opacity="0" fill="#D8D8D8" x="0" y="0" width="120" height="120"></rect>
                <g id="Path-332-+-Path-333-+-Path-334" transform="translate(10.000000, 8.000000)" fill="#6B6B6B">
                    <path d="M7.56302521,62.1428571 L7.56302521,105 L40.3361345,105 L40.3361345,64.6638655 L60.5042017,64.6638655 L60.5042017,105 L93.2773109,105 L93.2773109,62.1428571 L52.9411765,16.7647059 L50.4201681,16.7647059 L7.56302521,62.1428571 Z M42.8571429,44.4957983 L42.8571429,59.6218487 L57.9831933,59.6218487 L57.9831933,44.4957983 L42.8571429,44.4957983 Z" id="Path-332"></path>
                    <path d="M5.04201681,58.3613445 L0,58.3613445 L0,53.3193277 L50.4201681,0.378151261 L52.9411765,0.378151261 L100.840336,53.3193277 L100.840336,58.3613445 L95.7983193,58.3613445 L52.9411765,10.4621849 L50.4201681,10.4621849 L5.04201681,58.3613445 Z" id="Path-333"></path>
                    <path d="M73.1092437,2.89915966 L85.7142857,2.89915966 L85.7142857,30.6302521 C85.7142857,30.8128447 73.1092437,18.0252101 73.1092437,18.0252101 L73.1092437,2.89915966 Z" id="Path-334"></path>
                </g>
            </g>
            <g id="icon_promote" transform="translate(260.000000, 0.000000)" sketch:type="MSShapeGroup">
                <g id="Imported-Layers" transform="translate(12.797784, 35.401662)">
                    <path d="M20.7127978,40.6040443 C20.8188366,40.3519114 20.9311911,40.1022715 21.0468698,39.8619391 C21.1608864,39.6239335 21.2837119,39.3847645 21.4111911,39.1512465 C21.5370083,38.9210526 21.6699723,38.692687 21.8062604,38.4722992 C21.9438781,38.2500831 22.0871468,38.032687 22.2320776,37.8252632 C22.3776731,37.6173407 22.5309141,37.4110803 22.6878116,37.2122992 C22.8443767,37.0140166 23.0079224,36.8190582 23.1741274,36.6329086 C23.4239335,36.3528532 23.6877008,36.0831025 23.9577839,35.8314681 C24.4105263,35.4096399 24.8980055,35.0227147 25.4060942,34.6819945 C25.6615512,34.5108033 25.9266482,34.3479224 26.1942382,34.1985042 C26.461662,34.0485873 26.7402216,33.907313 27.0217729,33.7780055 C27.6500277,33.4901385 28.2934072,33.1944598 28.9421053,32.894626 C29.4816066,32.6449861 30.0245983,32.3923546 30.5649307,32.1387258 C30.7680332,32.0434903 30.9709695,31.9479224 31.1730748,31.8523546 L31.2191136,31.8307479 C32.1475346,31.3914681 32.966759,30.9963989 33.7150139,30.6269252 C33.9154571,30.5280332 34.1134072,30.4296399 34.3085319,30.3317452 C35.2339612,29.8681994 36.0472022,29.4432133 36.7261496,29.0685873 C36.9485319,28.945928 37.1571191,28.8282548 37.3529086,28.7154017 C37.5086427,28.6258172 37.6592244,28.5370637 37.8058172,28.4491413 C32.8720222,26.1212742 29.2859834,24.1918006 29.2859834,23.046482 C29.2859834,21.6418837 28.9738504,20.2371191 29.4420499,19.7168975 C29.9102493,19.1966759 30.8466482,18.2082548 30.8986704,17.4279224 L30.9506925,16.64759 C30.9506925,16.64759 32.0431579,16.1272022 32.2512465,15.086759 C32.4593352,14.0463158 32.9275346,12.173518 32.3032687,11.4452078 C31.6790028,10.7167313 30.8986704,10.300554 30.8986704,10.300554 C30.8986704,10.300554 31.0027147,8.94797784 31.1587812,7.85551247 C31.3148476,6.76304709 31.0547368,3.12132964 27.9852632,1.50847645 C24.9159557,-0.104210526 24.2915235,0.047534626 23.7739612,0.047534626 C23.2562327,0.047534626 22.6163435,-0.104210526 19.547036,1.50847645 C16.4775623,3.12132964 16.2174515,6.76304709 16.373518,7.85551247 C16.5295845,8.94797784 16.6336288,10.300554 16.6336288,10.300554 C16.6336288,10.300554 15.8532964,10.7167313 15.2290305,11.4452078 C14.6047645,12.173518 15.072964,14.0463158 15.2810526,15.086759 C15.4891413,16.1272022 16.5816066,16.64759 16.5816066,16.64759 C16.5816066,16.64759 16.5816066,16.64759 16.6336288,17.4279224 C16.685651,18.2082548 17.6220499,19.1966759 18.0902493,19.7168975 C18.558615,20.2371191 18.2463158,21.6418837 18.2463158,23.046482 C18.2463158,24.4510803 12.8532964,27.034903 6.19412742,30.0870914 C-0.464875346,33.1391136 0.159390582,42.7115235 0.159390582,42.7115235 L19.9869806,42.6895845 C20.0358449,42.5173961 20.0855402,42.3457064 20.1382271,42.1776731 C20.3087535,41.6348476 20.5018837,41.1054848 20.7127978,40.6040443" id="Fill-1" fill="url(#linearGradient-1)"></path>
                    <path d="M88.2079778,30.0870914 C81.5488089,27.034903 76.1557895,24.4510803 76.1557895,23.046482 C76.1557895,21.6418837 75.8436565,20.2371191 76.311856,19.7168975 C76.7800554,19.1966759 77.7164543,18.2082548 77.7684765,17.4279224 L77.8204986,16.64759 C77.8204986,16.64759 78.912964,16.1272022 79.1210526,15.086759 C79.3291413,14.0463158 79.7973407,12.173518 79.1730748,11.4452078 C78.5488089,10.7167313 77.7684765,10.300554 77.7684765,10.300554 C77.7684765,10.300554 77.8725208,8.94797784 78.0285873,7.85551247 C78.1846537,6.76304709 77.9245429,3.12132964 74.8550693,1.50847645 C71.7857618,-0.104210526 71.1614958,0.047534626 70.6437673,0.047534626 C70.1260388,0.047534626 69.4861496,-0.104210526 66.4168421,1.50847645 C63.3473684,3.12132964 63.0872576,6.76304709 63.2433241,7.85551247 C63.3993906,8.94797784 63.5034349,10.300554 63.5034349,10.300554 C63.5034349,10.300554 62.7231025,10.7167313 62.0988366,11.4452078 C61.4745706,12.173518 61.9427701,14.0463158 62.1508587,15.086759 C62.3589474,16.1272022 63.4514127,16.64759 63.4514127,16.64759 C63.4514127,16.64759 63.4514127,16.64759 63.5034349,17.4279224 C63.5554571,18.2082548 64.491856,19.1966759 64.9600554,19.7168975 C65.4284211,20.2371191 65.1161219,21.6418837 65.1161219,23.046482 C65.1161219,24.1284765 61.9146814,25.9105263 57.4008864,28.067036 C57.6432133,28.2222715 57.9044875,28.3833241 58.1875346,28.5500277 C58.4660942,28.7147368 58.7722438,28.8889197 59.0978393,29.0685873 C59.7088089,29.405651 60.4244875,29.7814404 61.2244321,30.1853186 C61.7759003,30.4638781 62.3825485,30.7635457 63.0280886,31.0763435 C63.4505817,31.2809418 63.8807202,31.4868698 64.3151801,31.6931302 C64.5207756,31.7908587 64.727867,31.8887535 64.9354571,31.986482 C65.3665928,32.1895845 65.7998892,32.3923546 66.2328532,32.5934626 C66.6663158,32.7950693 67.0991136,32.9950139 67.5280886,33.1927978 L67.8486981,33.3403878 C68.1699723,33.488144 68.4877562,33.634072 68.8018837,33.7778393 C69.0837673,33.907313 69.3621607,34.0485873 69.6297507,34.1985042 C69.8973407,34.3479224 70.1622715,34.5108033 70.4178947,34.6819945 C71.6365097,35.4993906 72.7042105,36.5567867 73.5917452,37.8252632 C73.8108033,38.1382271 74.0217175,38.4686427 74.2188366,38.8075346 C74.2846537,38.9208864 74.3493075,39.0350693 74.4126316,39.1510803 C74.5389474,39.3821053 74.6614404,39.6212742 74.7771191,39.8621053 C74.8527424,40.019169 74.9257064,40.1800554 74.9973407,40.3424377 C75.1002216,40.5761219 75.1981163,40.812133 75.2885319,41.0446537 C75.3812742,41.2828255 75.4705263,41.5279778 75.5534626,41.772964 C75.5988366,41.9064266 75.6428809,42.041385 75.6855956,42.1776731 C75.7384488,42.3458726 75.7883102,42.5182271 75.8375069,42.6912465 L94.2427147,42.7115235 C94.2427147,42.7115235 94.8669806,33.1391136 88.2079778,30.0870914" id="Fill-2" fill="url(#linearGradient-1)"></path>
                    <path id="Fill-3" fill="#FF0000" d="M47.398736,42.7115865 L47.398736,42.7111911 L47.2010526,42.7113888 L47.398736,42.7115865"></path>
                    <path id="Fill-4" fill="#FF0000" d="M47.0291967,42.7115865 L47.2268801,42.7113888 L47.0291967,42.7111911 L47.0291967,42.7115865"></path>
                    <path d="M74.7026593,48.8363435 C74.6996676,48.4833241 74.6873684,48.1195014 74.6655956,47.753518 C74.6572853,47.6144044 74.6474792,47.4698061 74.6358449,47.3202216 C74.5888089,46.7245429 74.5178393,46.1257064 74.4247645,45.5411634 C74.4009972,45.3925762 74.3750693,45.2414958 74.3474792,45.0884211 C74.3245429,44.9617729 74.2999446,44.8332964 74.2738504,44.7036565 C74.2188366,44.4295845 74.1593352,44.1611634 74.0970083,43.9060388 C74.0032687,43.5207756 73.8973961,43.1401662 73.7827147,42.7748476 C73.7735734,42.745928 73.7637673,42.7178393 73.754626,42.6889197 C73.7252078,42.5966759 73.6956233,42.5044321 73.6648753,42.413518 C73.5910803,42.1964543 73.512133,41.9792244 73.4298615,41.7679778 C73.3497507,41.5618837 73.2631579,41.3532964 73.17241,41.1468698 C73.1100831,41.0055956 73.0462604,40.8644875 72.9799446,40.7267036 C72.8787258,40.5161219 72.7720222,40.307867 72.6623269,40.1072576 C72.6076454,40.0073684 72.5518006,39.9083102 72.4949584,39.8104155 C72.3255956,39.5193906 72.1447645,39.2360111 71.9574515,38.9685873 C71.2120222,37.9028809 70.3201662,37.0180055 69.3069806,36.3385596 C69.0959003,36.1969529 68.8770083,36.0626593 68.6562881,35.9390028 C68.4345706,35.8150139 68.2038781,35.6980055 67.9706925,35.5909695 C67.6559003,35.4467036 67.3371191,35.3006094 67.0156787,35.1525208 L66.6934072,35.0040997 C66.2622715,34.8054848 65.8274792,34.6045429 65.391856,34.4019391 C64.9562327,34.1995014 64.5196122,33.9954017 64.0858172,33.7909695 C63.8763989,33.69241 63.6676454,33.593518 63.459723,33.4949584 C63.0204432,33.286205 62.5854848,33.0779501 62.158338,32.8710249 C61.5031579,32.5537396 60.8865374,32.2490859 60.3254294,31.9657064 C59.5038781,31.5508587 58.7665928,31.1636011 58.134349,30.814903 C57.7919668,30.625928 57.4688643,30.4419391 57.1741828,30.2679224 C56.6285319,29.9463158 56.1438781,29.6385042 55.7336842,29.3532964 C55.6045429,29.2637119 55.485374,29.1779501 55.3763435,29.0966759 C55.3544044,29.0803878 55.3347922,29.0652632 55.3138504,29.0494737 C55.226759,28.9836565 55.1449861,28.9203324 55.0706925,28.860831 C54.974626,28.7838781 54.8881994,28.7112465 54.8105817,28.6431025 C54.7681994,28.6060388 54.7286427,28.5703047 54.6912465,28.5357341 C54.6199446,28.4702493 54.5561219,28.4082548 54.4999446,28.3507479 L54.2152355,28.0600554 L54.2152355,28.0228255 C53.9810526,27.7115235 53.8667036,27.4160111 53.8667036,27.1251524 C53.8667036,26.9180609 53.860554,26.6931856 53.8479224,26.4380609 C53.8419391,26.3150693 53.8347922,26.19241 53.8271468,26.0709141 L53.8040443,25.7142382 C53.794072,25.5678116 53.7837673,25.4139058 53.7747922,25.2593352 C53.7688089,25.1513019 53.7631579,25.0445983 53.759169,24.9393906 C53.7520222,24.7618837 53.7491967,24.6048199 53.7501939,24.4603878 C53.7520222,24.2800554 53.7601662,24.1249861 53.7754571,23.9855402 C53.7885873,23.8655402 53.8067036,23.7581717 53.8313019,23.6579501 C53.8944598,23.4001662 53.9978393,23.1944044 54.1479224,23.0273684 L54.2509695,22.9130194 C54.7497507,22.3620499 55.6766759,21.3380609 55.7238781,20.631856 L55.7958449,19.5516898 L56.2171745,19.2799446 C56.3552909,19.1908587 56.485928,19.0914681 56.6057618,18.9845983 C56.7274238,18.8759003 56.8351247,18.761385 56.9265374,18.6440443 C57.0034903,18.5453186 57.0693075,18.4442659 57.1233241,18.3420499 C57.1617175,18.2697507 57.1944598,18.1957895 57.2210526,18.1224931 C57.2493075,18.0448753 57.2715789,17.9654294 57.2875346,17.8861496 L57.360831,17.5288089 C57.4861496,16.9253186 57.6277562,16.2445429 57.6797784,15.6088089 C57.6942382,15.4299723 57.7010526,15.2614404 57.6998892,15.1086981 C57.6992244,15.0304155 57.6968975,14.9549584 57.6919114,14.8809972 C57.6894183,14.8440997 57.685928,14.8045429 57.6817729,14.7653186 C57.6757895,14.7063158 57.6683102,14.6506371 57.6588366,14.5957895 C57.6531856,14.5627147 57.647036,14.5283102 57.6393906,14.4945706 C57.6334072,14.467313 57.6265928,14.439723 57.6192798,14.4127978 C57.605651,14.3622715 57.5901939,14.3155679 57.573241,14.2723546 C57.5551247,14.2254848 57.5341828,14.1822715 57.5089197,14.1380609 C57.4966205,14.1169529 57.4854848,14.0993352 57.473518,14.0823823 C57.4622161,14.0662604 57.4522438,14.052133 57.4416066,14.0390028 C57.4339612,14.0305263 57.426482,14.0220499 57.419169,14.0135734 C57.3232687,13.9027147 57.220554,13.794349 57.114349,13.6919668 L57.0957341,13.6738504 C57.0460388,13.626482 56.9966759,13.5807756 56.9474792,13.5370637 C56.8426039,13.4438227 56.7334072,13.3534072 56.6217175,13.2671468 C56.4854294,13.1617729 56.345651,13.0625485 56.2052078,12.9711357 L55.7027701,12.6445429 L55.7554571,12.0477008 C55.7642659,11.9466482 55.7747368,11.8283102 55.7868698,11.6970083 L55.7996676,11.560554 C55.8172853,11.3744044 55.8377285,11.1669806 55.860831,10.9492521 C55.872133,10.8403878 55.8842659,10.727867 55.8970637,10.614349 C55.9160111,10.4451524 55.9364543,10.2713019 55.9578947,10.0987812 C55.9795014,9.92459834 56.0026039,9.75157895 56.0265374,9.58437673 C56.0413296,9.4798338 56.0522992,9.35085873 56.0581163,9.21108033 C56.06759,8.98587258 56.0637673,8.74105263 56.0468144,8.48360111 C56.0373407,8.34049861 56.0238781,8.19440443 56.0065928,8.04963989 C55.9878116,7.89407202 55.9645429,7.73634349 55.9374515,7.58144044 C55.9085319,7.41756233 55.8744598,7.25202216 55.8355679,7.08947368 C55.7950139,6.91878116 55.7486427,6.74775623 55.6976177,6.58105263 C55.6442659,6.4065374 55.5845983,6.2331856 55.5204432,6.0666482 C55.452964,5.89080332 55.3786704,5.71761773 55.3000554,5.55141274 C55.2179501,5.37806094 55.1281994,5.20803324 55.0344598,5.04631579 C54.9360665,4.8767867 54.8301939,4.71191136 54.7193352,4.55501385 C54.4224931,4.13584488 54.0771191,3.75839335 53.6928532,3.4332964 C53.5286427,3.29451524 53.3539612,3.16238227 53.1736288,3.04055402 C52.9859834,2.91423823 52.7868698,2.79540166 52.5826039,2.68803324 C52.4780609,2.6333518 52.3841551,2.58432133 52.2920776,2.5367867 L50.5153463,1.68498615 L50.3286981,1.60537396 C50.2628809,1.57778393 50.2035457,1.5533518 50.1457064,1.5300831 L50.1231025,1.52127424 C50.0730748,1.50116343 50.0240443,1.48155125 49.9761773,1.46310249 L49.028144,1.15213296 L48.9119668,1.12454294 C48.8913573,1.11972299 48.8619391,1.11373961 48.833518,1.10808864 L48.3139612,1.04858726 L48.245651,1.04775623 C48.1858172,1.04775623 48.1322992,1.04875346 48.0804432,1.0499169 C47.9670914,1.05240997 47.8746814,1.05257618 47.7724654,1.0500831 C47.7152909,1.04875346 47.6564543,1.04759003 47.5941274,1.04759003 L47.1059834,1.08831025 L47.0825485,1.09213296 L46.9959557,1.10858726 C46.9700277,1.11357341 46.9412742,1.11972299 46.9116898,1.12637119 L46.3002216,1.30038781 L45.6782825,1.53124654 C45.6226039,1.55368421 45.5627701,1.57795014 45.5014404,1.60354571 L44.3298615,2.13639889 L43.5305817,2.53761773 C43.4421607,2.58299169 43.3520776,2.6298615 43.2598338,2.67822715 L43.2370637,2.69019391 C42.8373407,2.90077562 42.4652078,3.15074792 42.1311357,3.4332964 C41.9735734,3.5665928 41.8206648,3.71036011 41.6768975,3.86044321 C41.4063158,4.14315789 41.1586704,4.45844875 40.9407756,4.79833795 C40.7885319,5.03584488 40.6482548,5.28930748 40.5239335,5.55157895 C40.1951801,6.24498615 39.9678116,7.00786704 39.848144,7.81961219 C39.8260388,7.9700277 39.8079224,8.12193906 39.7941274,8.27119114 C39.7811634,8.41080332 39.771856,8.54975069 39.7665374,8.68520776 C39.7615512,8.8098615 39.7600554,8.93268698 39.761385,9.05052632 C39.7630471,9.1600554 39.7673684,9.26210526 39.7740166,9.35501385 C39.7801662,9.43961219 39.7879778,9.51606648 39.7974515,9.5832133 C39.8351801,9.84731302 39.8720776,10.1365097 39.9076454,10.4444875 C39.9207756,10.558338 39.9337396,10.6720222 39.9457064,10.7838781 L39.9633241,10.9485873 C39.9749584,11.0591136 39.9857618,11.1658172 39.9960665,11.2685319 C40.0060388,11.3695845 40.0156787,11.4684765 40.0243213,11.5620499 L40.1210526,12.6447091 L39.618615,12.9713019 C39.5423269,13.020831 39.4196676,13.1039335 39.26759,13.2181163 C39.2057618,13.2648199 39.1414404,13.3146814 39.0752909,13.3686981 L39.0226039,13.4120776 C38.9147368,13.5021607 38.8151801,13.5910803 38.7232687,13.679169 L38.7026593,13.6984488 C38.5947922,13.8029917 38.4934072,13.9098615 38.4004986,14.0175623 L38.3828809,14.0393352 C38.3674238,14.0579501 38.3531302,14.0775623 38.3396676,14.0978393 C38.333518,14.107313 38.3260388,14.119446 38.3187258,14.1315789 C38.3095845,14.147036 38.2992798,14.1663158 38.2894737,14.185928 C38.2768421,14.2113573 38.2628809,14.2407756 38.2509141,14.2713573 C38.2339612,14.314903 38.218338,14.3621053 38.2050416,14.4114681 C38.1973961,14.439723 38.1905817,14.467313 38.1844321,14.4950693 C38.159169,14.6094183 38.1412188,14.7402216 38.1320776,14.8819945 C38.1270914,14.9549584 38.1247645,15.0304155 38.1240997,15.1065374 C38.1182825,15.8684211 38.3092521,16.7877008 38.4626593,17.5263158 L38.4731302,17.5775069 C38.4957341,17.6855402 38.5170083,17.7887535 38.5364543,17.885651 C38.5893075,18.1492521 38.7104709,18.4042105 38.8967867,18.6433795 C38.9886981,18.7612188 39.0965651,18.8759003 39.2182271,18.9844321 C39.3382271,19.0918006 39.4690305,19.1911911 39.606482,19.2796122 L40.028144,19.5513573 L40.0999446,20.6320222 C40.147313,21.3380609 41.0742382,22.3620499 41.5721884,22.9121884 L41.6742382,23.0252078 C41.7373961,23.0946814 41.7952355,23.1761219 41.8439335,23.2648753 C41.9074238,23.3807202 41.9559557,23.5083657 41.9920222,23.6552909 C42.0167867,23.7555125 42.0350693,23.8633795 42.0485319,23.9855402 C42.0636565,24.1226593 42.0719668,24.2778947 42.073795,24.4590582 C42.0744598,24.5571191 42.0734626,24.6585042 42.0708033,24.7627147 L42.0701385,24.7858172 C42.0671468,24.8891967 42.0629917,24.9950693 42.0576731,25.101108 C42.0500277,25.2563435 42.0400554,25.414072 42.0300831,25.567313 L41.9968421,26.0707479 C41.9772299,26.3802216 41.9572853,26.7475346 41.9572853,27.1251524 C41.9572853,27.4706925 41.7963989,27.7768421 41.6087535,28.0248199 L41.6087535,28.0600554 L41.3240443,28.3507479 C41.267867,28.4082548 41.2040443,28.4702493 41.1322438,28.5362327 L41.1099723,28.5565097 C41.0524654,28.6093629 40.9833241,28.6698615 40.9077008,28.7338504 L40.8643213,28.7699169 C40.6098615,28.9814958 40.3035457,29.2088643 39.9506925,29.4488643 C39.7190028,29.6065928 39.467867,29.7696399 39.1962881,29.9380055 C38.9310249,30.1022161 38.6461496,30.2722438 38.3486427,30.4436011 C38.1425485,30.5624377 37.9229917,30.6862604 37.6893075,30.8150693 C36.9777839,31.2076454 36.1642105,31.6327978 35.2023823,32.1147922 C35.0037673,32.214349 34.8019945,32.3147368 34.5977285,32.4152909 C33.8396676,32.7897507 33.0104709,33.1894737 32.0634349,33.6375623 L32.0370083,33.6500277 C31.8217729,33.7517452 31.6171745,33.8479778 31.41241,33.9442105 C30.8687535,34.1995014 30.3222715,34.4534626 29.779446,34.7047645 C29.1285873,35.0057618 28.4830471,35.3024377 27.8527978,35.5913019 C27.6197784,35.6980055 27.3892521,35.8150139 27.1680332,35.9388366 C26.9469806,36.0626593 26.7279224,36.1969529 26.5170083,36.3385596 C26.0966759,36.620277 25.692964,36.9407202 25.3173407,37.2909141 C25.0918006,37.500831 24.8715789,37.7260388 24.6623269,37.960554 C24.5225485,38.1172853 24.385097,38.2811634 24.2534626,38.4480332 C24.1201662,38.6167313 23.9900277,38.7917452 23.8665374,38.9685873 C23.7425485,39.1455956 23.619723,39.3319114 23.5018837,39.5222161 C23.3848753,39.7115235 23.2701939,39.9088089 23.1613296,40.10759 C23.0506371,40.3101939 22.9440997,40.5182825 22.8445429,40.7257064 C22.7429917,40.9369529 22.6444321,41.1558449 22.5513573,41.3770637 C22.3760111,41.7942382 22.2144598,42.2350139 22.0696953,42.6874238 C22.0602216,42.7166759 22.0502493,42.7455956 22.0409418,42.7750139 C21.9264266,43.140831 21.820554,43.5212742 21.7269806,43.9057064 C21.334903,45.514072 21.1952909,46.9967867 21.1470914,47.9572853 L21.1384488,48.1527424 C21.132964,48.2793906 21.1291413,48.4002216 21.1263158,48.5142382 C21.1223269,48.6840997 21.1206648,48.84 21.1204986,48.9796122 L21.1209972,49.11241 C21.1214958,49.2046537 21.1228255,49.2874238 21.1244875,49.360554 L47.9062604,49.3311357 L74.6995014,49.360554 C74.7011634,49.2865928 74.7024931,49.2044875 74.7029917,49.1135734 L74.7034903,48.9791136 L74.7026593,48.8363435 L74.7026593,48.8363435 Z M47.3729086,42.7115865 L47.2010526,42.7113888 L47.0291967,42.7115865 L47.0291967,42.7111911 L47.2010526,42.7113888 L47.3729086,42.7111911 L47.3729086,42.7115865 L47.3729086,42.7115865 Z" id="Fill-5" fill="url(#linearGradient-1)"></path>
                </g>
                <path d="M60,120 C26.9159259,120 0,93.0840741 0,60 C0,26.9159259 26.9159259,0 60,0 C93.0840741,0 120,26.9159259 120,60 C120,93.0840741 93.0840741,120 60,120 L60,120 Z M60,5.92592593 C30.1833333,5.92592593 5.92592593,30.1833333 5.92592593,60 C5.92592593,89.8166667 30.1833333,114.074074 60,114.074074 C89.8166667,114.074074 114.074074,89.8166667 114.074074,60 C114.074074,30.1833333 89.8166667,5.92592593 60,5.92592593 L60,5.92592593 Z" id="Fill-3-Copy" fill="url(#linearGradient-2)"></path>
            </g>
            <g id="icon_monetize" transform="translate(130.000000, 0.000000)" sketch:type="MSShapeGroup">
                <path d="M39.487037,75.3562963 C39.487037,73.72 40.8137037,72.3933333 42.45,72.3933333 C44.0866667,72.3933333 45.412963,73.72 45.412963,75.3562963 C45.412963,82.1896296 51.9566667,87.7492593 60,87.7492593 C68.0433333,87.7492593 74.587037,82.1896296 74.587037,75.3562963 C74.587037,68.5225926 68.0433333,62.962963 60,62.962963 C48.6892593,62.962963 39.487037,54.7448148 39.487037,44.6440741 C39.487037,34.542963 48.6892593,26.3248148 60,26.3248148 C71.3107407,26.3248148 80.512963,34.542963 80.512963,44.6440741 C80.512963,46.2803704 79.1862963,47.607037 77.55,47.607037 C75.9133333,47.607037 74.587037,46.2803704 74.587037,44.6440741 C74.587037,37.8103704 68.0433333,32.2507407 60,32.2507407 C51.9566667,32.2507407 45.412963,37.8103704 45.412963,44.6440741 C45.412963,51.4774074 51.9566667,57.037037 60,57.037037 C71.3107407,57.037037 80.512963,65.2548148 80.512963,75.3562963 C80.512963,85.457037 71.3107407,93.6751852 60,93.6751852 C48.6892593,93.6751852 39.487037,85.457037 39.487037,75.3562963 Z" id="Fill-1" fill="url(#linearGradient-3)"></path>
                <path d="M57.037037,99.487037 L57.037037,20.512963 C57.037037,18.8762963 58.3633333,17.55 60,17.55 C61.6362963,17.55 62.962963,18.8762963 62.962963,20.512963 L62.962963,99.487037 C62.962963,101.123333 61.6362963,102.45 60,102.45 C58.3633333,102.45 57.037037,101.123333 57.037037,99.487037 Z" id="Fill-2" fill="url(#linearGradient-4)"></path>
                <path d="M60,120 C26.9159259,120 0,93.0840741 0,60 C0,26.9159259 26.9159259,0 60,0 C93.0840741,0 120,26.9159259 120,60 C120,93.0840741 93.0840741,120 60,120 L60,120 Z M60,5.92592593 C30.1833333,5.92592593 5.92592593,30.1833333 5.92592593,60 C5.92592593,89.8166667 30.1833333,114.074074 60,114.074074 C89.8166667,114.074074 114.074074,89.8166667 114.074074,60 C114.074074,30.1833333 89.8166667,5.92592593 60,5.92592593 L60,5.92592593 Z" id="Fill-3" fill="url(#linearGradient-5)"></path>
            </g>
        </g>
    </g>
</svg>