<?xml version="1.0" encoding="utf-8"?>
<!-- Generator: Adobe Illustrator 16.0.4, SVG Export Plug-In . SVG Version: 6.00 Build 0)  -->
<!DOCTYPE svg PUBLIC "-//W3C//DTD SVG 1.1//EN" "http://www.w3.org/Graphics/SVG/1.1/DTD/svg11.dtd">
<svg version="1.1" id="Layer_1" xmlns="http://www.w3.org/2000/svg" xmlns:xlink="http://www.w3.org/1999/xlink" x="0px" y="0px"
	 width="610px" height="627px" viewBox="0 0 610 627" enable-background="new 0 0 610 627" xml:space="preserve">
<filter  id="AI_GaussianBlur_7">
	<feGaussianBlur  stdDeviation="7"></feGaussianBlur>
</filter>
<g id="Dark_1_">
	<g id="Wordmark">
		<g>
			<path fill="#5FA9DD" d="M86.512,494.495H40.835v-12.429c0-22.067,8.468-32.722,26.431-32.722c6.672,0,12.061,1.016,19.502,3.299
				v-11.67c-5.903-2.028-11.549-3.042-19.502-3.042c-11.549,0-20.786,3.55-27.458,10.147c-7.441,7.354-11.548,19.022-11.548,33.735
				v12.682H9.271v11.415h18.989V623.86h12.575V505.91h45.676V494.495z M139.214,494.995c-13.558,0-8.458-0.377-32.287-0.377v11.438
				c5.75,0.031,23.731-0.762,30.147-0.762c26.945,0,43.111,12.284,43.111,38.411v5.579c-12.575-3.297-25.148-5.579-43.369-5.579
				c-33.873,0-57.225,15.217-57.225,42.105v0.508c0,26.886,26.174,40.586,50.553,40.586c24.892,0,41.059-12.176,50.041-24.607
				v21.562h12.317v-80.662c0-15.98-4.619-27.901-13.345-36.526C169.664,497.286,157.522,495.966,139.214,494.995z M180.442,575.411
				c0,23.589-22.838,39.822-49.526,39.822c-20.017,0-37.98-10.904-37.98-29.677v-0.506c0-18.01,15.397-30.186,43.111-30.186
				c18.733,0,33.36,3.044,44.395,5.834V575.411z M284.896,491.452c-25.918,0-42.598,14.966-53.889,31.96v-84.72h-12.574v185.167
				h12.574v-27.902c10.778,16.233,27.714,30.946,53.889,30.946c31.564,0,63.641-25.619,63.641-67.727v-0.508
				C348.537,516.565,316.461,491.452,284.896,491.452z M334.938,559.685c0,34.75-22.84,55.296-51.324,55.296
				c-27.202,0-53.376-22.322-53.376-55.55v-0.508c0-32.975,26.174-55.55,53.376-55.55c27.457,0,51.324,21.814,51.324,55.805V559.685
				z M381.144,531.274v-36.779h-12.576v129.364h12.576v-53.015c0-42.107,26.429-64.682,56.712-64.682h1.281v-13.697
				C413.221,491.452,391.408,508.193,381.144,531.274z M453.774,623.859h12.574V491.758h-12.574V623.859z M599.021,593.674
				c-11.033,12.175-25.403,21.559-43.88,21.559c-30.025,0-53.89-24.855-53.89-56.056v-0.508c0-30.946,23.096-55.55,52.862-55.55
				c19.503,0,32.334,9.893,43.625,21.307l8.98-9.13c-12.316-12.684-27.714-23.844-52.349-23.844
				c-37.465,0-66.72,31.451-66.72,67.726v0.507c0,36.273,28.998,67.22,66.72,67.22c24.121,0,40.032-10.654,53.376-25.619
				L599.021,593.674z"/>
		</g>
	</g>
	<g id="OS_1_">
		<g id="Shadow" opacity="0.3" filter="url(#AI_GaussianBlur_7)">
			<path fill="#010101" d="M393.896,389.912l-74.759,49.809c-10.027,6.683-23.146,6.623-33.227-0.147l-75.484-50.707
				c-6.568-4.412-6.627-14.037-0.111-18.423l74.685-50.256c10.08-6.783,23.321-6.725,33.454,0.148l75.414,51.156
				C400.418,375.932,400.432,385.557,393.896,389.912z"/>
		</g>
		<path id="OS" fill="#104C9B" d="M419.105,337.824l-95.349,63.526c-12.791,8.521-29.521,8.447-42.378-0.188l-96.272-64.672
			c-8.377-5.627-8.452-17.904-0.143-23.495l95.254-64.099c12.856-8.651,29.744-8.576,42.666,0.189l96.185,65.244
			C427.422,319.995,427.439,332.271,419.105,337.824z"/>
	</g>
	<g id="SDK">
		<path id="Shadow_1_" fill="#1D3D70" d="M332.514,341.055c-18.063,12.034-41.693,11.93-59.85-0.267l-64.557-43.367l-2.231,1.501
			l66.788,44.866c18.156,12.194,41.785,12.301,59.85,0.267l65.773-43.823l-2.232-1.514L332.514,341.055z"/>
		<path id="SDK_1_" fill="#5FA9DD" d="M467.164,251.341l-134.65,89.714c-18.063,12.034-41.693,11.93-59.85-0.267l-135.959-91.332
			c-11.831-7.948-11.937-25.285-0.202-33.182l134.521-90.523c18.156-12.218,42.007-12.112,60.255,0.268l135.834,92.14
			C478.91,226.161,478.936,243.498,467.164,251.341z"/>
	</g>
	<g id="App">
		<path id="Depth" opacity="0.3" fill="#1F5A79" enable-background="new    " d="M500.512,164.939L338.701,272.748
			c-21.707,14.462-50.102,14.336-71.92-0.32L103.399,162.675c-6.677-4.485-10.244-11.458-10.692-18.577
			c-0.489,8.111,3.079,16.462,10.692,21.577l163.382,109.752c21.818,14.656,50.213,14.783,71.92,0.32l161.811-107.809
			c7.529-5.018,11.041-13.269,10.541-21.339C510.619,153.665,507.109,160.543,500.512,164.939z"/>
		
			<linearGradient id="App_2_" gradientUnits="userSpaceOnUse" x1="358.1826" y1="231.4922" x2="358.1826" y2="511.9028" gradientTransform="matrix(1 0 0 -1 -56 515)">
			<stop  offset="0.0506" style="stop-color:#FFFFFF"/>
			<stop  offset="1" style="stop-color:#FFFFFF;stop-opacity:0"/>
		</linearGradient>
		
			<path id="App_1_" fill="url(#App_2_)" fill-opacity="0.25" stroke="#FFFFFF" stroke-width="2" stroke-miterlimit="10" stroke-opacity="0.4" d="
			M500.814,164.939L339.004,272.748c-21.707,14.462-50.102,14.336-71.92-0.32L103.702,162.675
			c-14.217-9.551-14.344-30.384-0.242-39.874l161.653-108.78c21.817-14.682,50.479-14.555,72.409,0.321l163.229,110.725
			C514.928,134.682,514.959,155.515,500.814,164.939z"/>
		<g id="Highlight">
			<path opacity="0.4" fill="#FFFFFF" enable-background="new    " d="M500.897,165.064c0,0-24.233,16.326-60.583,40.814
				c-18.182,12.235-39.394,26.509-62.119,41.802c-11.369,7.638-23.117,15.531-35.056,23.551c-1.518,0.996-2.931,2.021-4.541,2.999
				c-1.554,0.932-3.016,1.951-4.711,2.762l-2.474,1.282c-0.827,0.422-1.69,0.741-2.534,1.116c-0.853,0.354-1.691,0.742-2.557,1.069
				l-2.626,0.896c-7.021,2.342-14.479,3.5-21.917,3.299c-7.438-0.159-14.848-1.564-21.812-4.132
				c-1.732-0.659-3.428-1.417-5.129-2.147c-1.635-0.867-3.32-1.644-4.908-2.587c-1.555-0.975-3.197-1.904-4.672-2.917
				c-1.503-0.999-3.003-1.996-4.5-2.991c-11.967-7.977-23.743-15.827-35.14-23.425c-11.343-7.676-22.354-15.029-32.714-22.122
				c-10.372-7.075-20.179-13.763-29.231-19.937c-9.058-6.166-17.3-11.909-24.638-16.951c-7.335-5.046-13.717-9.465-18.954-13.131
				c-10.478-7.328-16.464-11.515-16.464-11.515l0.167-0.249c0,0,6.141,3.959,16.886,10.888c5.375,3.462,11.878,7.699,19.323,12.582
				c7.442,4.886,15.875,10.345,25.008,16.399c9.139,6.046,19.039,12.595,29.51,19.523c10.483,6.909,21.455,14.321,32.85,21.92
				c11.343,7.678,23.063,15.611,34.973,23.673c1.487,1.01,2.978,2.021,4.471,3.035c1.49,1.044,2.996,1.903,4.497,2.869
				c1.514,0.92,3.124,1.678,4.685,2.529c1.627,0.713,3.247,1.459,4.905,2.109c6.666,2.531,13.782,3.954,20.947,4.178
				c7.167,0.25,14.37-0.811,21.166-3.021l2.544-0.845c0.837-0.31,1.65-0.679,2.478-1.015c0.814-0.355,1.662-0.66,2.452-1.056
				l2.36-1.2c1.587-0.732,3.112-1.771,4.659-2.684c1.483-0.88,3.002-1.956,4.497-2.921c11.999-7.928,23.808-15.73,35.234-23.28
				c22.866-15.083,44.209-29.162,62.502-41.229c36.6-24.114,60.999-40.191,60.999-40.191L500.897,165.064z"/>
		</g>
	</g>
</g>
</svg>
