<?xml version="1.0" encoding="UTF-8" standalone="no"?>
<svg
   xmlns:dc="http://purl.org/dc/elements/1.1/"
   xmlns:cc="http://creativecommons.org/ns#"
   xmlns:rdf="http://www.w3.org/1999/02/22-rdf-syntax-ns#"
   xmlns:svg="http://www.w3.org/2000/svg"
   xmlns="http://www.w3.org/2000/svg"
   xmlns:sodipodi="http://sodipodi.sourceforge.net/DTD/sodipodi-0.dtd"
   xmlns:inkscape="http://www.inkscape.org/namespaces/inkscape"
   viewBox="0 0 3250 2050"
   preserveAspectRatio="xMidYMid meet"
   class="style-scope iron-icon"
   style="display:block"
   id="svg2"
   version="1.1"
   inkscape:version="0.91 r13725"
   sodipodi:docname="YoutubeGamingRed.svg"
   width="3250"
   height="2050">
  <metadata
     id="metadata37">
    <rdf:RDF>
      <cc:Work
         rdf:about="">
        <dc:format>image/svg+xml</dc:format>
        <dc:type
           rdf:resource="http://purl.org/dc/dcmitype/StillImage" />
        <dc:title />
      </cc:Work>
    </rdf:RDF>
  </metadata>
  <defs
     id="defs35" />
  <sodipodi:namedview
     pagecolor="#ffffff"
     bordercolor="#666666"
     borderopacity="1"
     objecttolerance="10"
     gridtolerance="10"
     guidetolerance="10"
     inkscape:pageopacity="0"
     inkscape:pageshadow="2"
     inkscape:window-width="1334"
     inkscape:window-height="767"
     id="namedview33"
     showgrid="false"
     fit-margin-top="0"
     fit-margin-left="0"
     fit-margin-right="0"
     fit-margin-bottom="0"
     inkscape:zoom="0.15"
     inkscape:cx="1066.1817"
     inkscape:cy="1923.6403"
     inkscape:window-x="0"
     inkscape:window-y="0"
     inkscape:window-maximized="0"
     inkscape:current-layer="g4" />
  <g
     class="style-scope iron-icon"
     id="g4"
     style="fill-rule:evenodd"
     transform="translate(0,2030)">
    <linearGradient
       x1="17.798876"
       y1="0"
       x2="23.731834"
       y2="5.3698964"
       id="COLORED_LINEAR_GRADIENT_"
       class="style-scope iron-icon"
       gradientTransform="matrix(134.83997,0,0,74.161985,15.291868,-1998.2684)"
       gradientUnits="userSpaceOnUse">
      <stop
         stop-color="#E6E6E6"
         offset="0%"
         class="style-scope iron-icon"
         id="stop7" />
      <stop
         stop-color="#F3F3F3"
         offset="100%"
         class="style-scope iron-icon"
         id="stop9" />
    </linearGradient>
    <path
       d="m 2415.2919,-1998.2684 -800,400 -800.00004,-400 -799.999992,400 0,800 1600.000032,800.0000004 1600,-800.0000004 0,-800 -800,-400 z"
       class="style-scope iron-icon"
       id="path11"
       inkscape:connector-curvature="0"
       style="fill:#e33129"
       inkscape:export-xdpi="90"
       inkscape:export-ydpi="90" />
    <path
       d="m 1615.2919,-1598.2684 800,400 -800,400 z m 0,0 c -21.0578,67.4383 733.2492,-73.1481 -800.00004,400 l 800.00004,400 z"
       class="style-scope iron-icon"
       id="path17"
       inkscape:connector-curvature="0"
       style="fill:#c8322a;fill-opacity:1"
       inkscape:export-xdpi="90"
       inkscape:export-ydpi="90"
       sodipodi:nodetypes="cccccccc" />
    <path
       d="m 2415.2919,-1998.2684 800,400 -800,400 0,-800 z"
       class="style-scope iron-icon"
       id="path13"
       inkscape:connector-curvature="0"
       style="fill:#ffffff"
       inkscape:export-xdpi="90"
       inkscape:export-ydpi="90" />
    <path
       d="m 2415.2919,-1998.2684 800,400 -80,40 -720,-440 z"
       class="style-scope iron-icon"
       id="path15"
       inkscape:connector-curvature="0"
       style="fill:url(#COLORED_LINEAR_GRADIENT_)"
       inkscape:export-xdpi="90"
       inkscape:export-ydpi="90" />
    <path
       d="m 2415.2919,-1198.2684 800,400 -800,400 0,-800 z"
       class="style-scope iron-icon"
       id="path19"
       inkscape:connector-curvature="0"
       style="fill:#c8322a"
       inkscape:export-xdpi="90"
       inkscape:export-ydpi="90" />
    <path
       d="m 815.29186,-1998.2684 -799.999992,400 799.999992,400 0,-800 z"
       class="style-scope iron-icon"
       id="path21"
       inkscape:connector-curvature="0"
       style="fill:#c8322a"
       inkscape:export-xdpi="90"
       inkscape:export-ydpi="90" />
    <path
       d="m 815.29186,-1198.2684 -799.999992,400 799.999992,400 0,-800 z"
       class="style-scope iron-icon"
       id="path23"
       inkscape:connector-curvature="0"
       style="fill:#92322e"
       inkscape:export-xdpi="90"
       inkscape:export-ydpi="90" />
    <path
       d="m 1615.2919,-798.2684 -800.00004,400 800.00004,400.0000004 0,-800.0000004 z"
       class="style-scope iron-icon"
       id="path25"
       inkscape:connector-curvature="0"
       style="fill:#92322e"
       inkscape:export-xdpi="90"
       inkscape:export-ydpi="90" />
    <path
       d="m 815.29186,-1198.2684 800.00004,400 -800.00004,400 0,-800 z"
       class="style-scope iron-icon"
       id="path27"
       inkscape:connector-curvature="0"
       style="fill:#ad322c"
       inkscape:export-xdpi="90"
       inkscape:export-ydpi="90" />
    <path
       d="m 15.291868,-1598.2684 799.999992,400 -799.999992,400 0,-800 z"
       class="style-scope iron-icon"
       id="path29"
       inkscape:connector-curvature="0"
       style="fill:#ad322c"
       inkscape:export-xdpi="90"
       inkscape:export-ydpi="90" />
    <path
       d="m 1615.2919,-798.2684 800,400 -800,400.0000004 0,-800.0000004 z m 800,-400 -800,400 800,400 0,-800 z"
       class="style-scope iron-icon"
       id="path31"
       inkscape:connector-curvature="0"
       style="fill:#ad322c"
       inkscape:export-xdpi="90"
       inkscape:export-ydpi="90" />
    <path
       style="fill:#e33129;fill-rule:evenodd;stroke:none;stroke-width:1px;stroke-linecap:butt;stroke-linejoin:miter;stroke-opacity:1;fill-opacity:1"
       d="m 1763.0208,-1524.7917 -17.7083,-8.5937 -80.7292,-17.1875 -60.1562,-40.625 6.5104,-9.1146 4.6875,2.3437 22.6563,3.3855 50.2604,1.5625 56.5104,1.8229 49.4792,20.8333 9.8958,31.5104 z"
       id="path4147"
       inkscape:connector-curvature="0" />
    <path
       style="fill:#e33129;fill-opacity:1;fill-rule:evenodd;stroke:none;stroke-width:1px;stroke-linecap:butt;stroke-linejoin:miter;stroke-opacity:1"
       d="m 1758.8217,-1527.3957 -0.5859,0.4231 -2.3763,0.293 -6.4779,-2.1159 -4.362,-3.6133 -1.2695,-1.9205 4.362,0.1302 11.1979,2.5716 2.0182,3.4831 z"
       id="path4149"
       inkscape:connector-curvature="0" />
    <path
       style="fill:#e33129;fill-rule:evenodd;stroke:none;stroke-width:1px;stroke-linecap:butt;stroke-linejoin:miter;stroke-opacity:1;fill-opacity:1"
       d="m 1615.8854,-1598.5872 -0.5859,0.3255 -0.7162,0.651 1.3347,0.7813 1.3672,-0.3907 z"
       id="path4151"
       inkscape:connector-curvature="0" />
    <path
       style="fill:#c8322a;fill-rule:evenodd;stroke:none;stroke-width:1px;stroke-linecap:butt;stroke-linejoin:miter;stroke-opacity:1;fill-opacity:1"
       d="m 815.48387,-1198.0645 800.00003,-401.2903 800.6451,401.2903 -1256.129,23.8709 z"
       id="path4161"
       inkscape:connector-curvature="0" />
  </g>
</svg>
