<!-- Generated by IcoMoon.io -->
<svg version="1.1" xmlns="http://www.w3.org/2000/svg" width="32" height="32" viewBox="0 0 32 32">
<title>accounts-billing</title>
<path d="M27.401 12.833c0 0.211-0.173 0.384-0.384 0.384h-5.668c-0.211 0-0.384-0.173-0.384-0.384v-0.476c0-0.211 0.173-0.384 0.384-0.384h5.668c0.211 0 0.384 0.173 0.384 0.384v0.476zM27.142 5.091h-16.28c-1.374 0-2.492 1.118-2.492 2.492v0.429c-3.837 1.199-6.629 4.785-6.629 9.012 0 5.205 4.234 9.44 9.439 9.44 4.504 0 8.279-3.172 9.215-7.398h6.748c1.374 0 2.492-1.118 2.492-2.492v-8.991c-0-1.374-1.118-2.492-2.492-2.492zM17.046 22.217c-1.036-1.421-2.736-3.754-2.736-3.754-0.83 0.754-1.93 1.213-3.137 1.213-1.363 0-2.592-0.587-3.446-1.522l-2.736 3.676c-1.034-1.328-1.652-2.996-1.652-4.805 0-4.323 3.517-7.84 7.839-7.84s7.84 3.517 7.84 7.84c0 1.99-0.747 3.808-1.973 5.192zM28.39 16.574c0 0.689-0.559 1.248-1.248 1.248h-6.559c0.022-0.263 0.036-0.528 0.036-0.797 0-2.383-0.889-4.561-2.351-6.224h10.122v5.773zM28.39 8.668h-12.828c-1.31-0.69-2.801-1.083-4.382-1.083-0.534 0-1.056 0.047-1.566 0.132v-0.134c0-0.689 0.559-1.248 1.248-1.248h16.28c0.689 0 1.248 0.559 1.248 1.248v1.085zM15.227 14.629c0 2.238-1.814 4.053-4.053 4.053s-4.053-1.814-4.053-4.053c0-2.238 1.814-4.053 4.053-4.053s4.053 1.814 4.053 4.053z"></path>
</svg>
