<!-- Generated by IcoMoon.io -->
<svg version="1.1" xmlns="http://www.w3.org/2000/svg" width="32" height="32" viewBox="0 0 32 32">
<title>amiibo</title>
<path d="M25.811 13.063l3.747 0.495c0.115 0.015 0.218-0.066 0.231-0.178 0.123-1.046 0.123-2.103 0.004-3.148-0.013-0.113-0.117-0.191-0.23-0.175l-3.749 0.486c-0.11 0.013-0.187 0.114-0.175 0.226 0.075 0.686 0.072 1.381-0.002 2.069-0.011 0.11 0.064 0.21 0.176 0.226zM23.921 17.607l2.998 2.301c0.089 0.070 0.22 0.053 0.288-0.038 0.629-0.844 1.159-1.76 1.578-2.723 0.044-0.104-0.006-0.224-0.112-0.268l-3.489-1.452c-0.104-0.043-0.218 0.005-0.265 0.106-0.278 0.635-0.626 1.234-1.038 1.792-0.065 0.089-0.048 0.214 0.040 0.282zM25.178 8.18l3.494-1.444c0.103-0.044 0.156-0.166 0.112-0.27-0.417-0.967-0.947-1.884-1.572-2.727-0.068-0.090-0.199-0.108-0.289-0.041l-3.001 2.298c-0.090 0.069-0.107 0.195-0.040 0.283 0.409 0.558 0.755 1.158 1.032 1.794 0.045 0.102 0.161 0.151 0.264 0.108zM8.078 6.003l-2.998-2.302c-0.089-0.070-0.22-0.052-0.29 0.038-0.628 0.844-1.157 1.759-1.576 2.725-0.043 0.103 0.006 0.225 0.111 0.269l3.49 1.45c0.105 0.045 0.22-0.004 0.264-0.107 0.28-0.631 0.629-1.232 1.038-1.79 0.066-0.089 0.050-0.215-0.038-0.283zM6.188 10.548l-3.748-0.495c-0.11-0.014-0.217 0.065-0.228 0.18-0.125 1.045-0.126 2.101-0.006 3.146 0.013 0.112 0.118 0.191 0.232 0.177l3.746-0.487c0.113-0.014 0.19-0.115 0.175-0.225-0.072-0.687-0.072-1.38 0.005-2.068 0.012-0.112-0.066-0.211-0.176-0.227zM6.821 15.431l-3.493 1.445c-0.107 0.042-0.157 0.165-0.113 0.268 0.417 0.967 0.947 1.883 1.572 2.727 0.065 0.091 0.198 0.108 0.286 0.038l3.004-2.296c0.088-0.065 0.104-0.191 0.040-0.282-0.409-0.558-0.756-1.159-1.033-1.792-0.044-0.103-0.159-0.152-0.263-0.108zM15.685 5.923c-3.499 0-6.030 2.689-6.030 5.906 0 3.738 2.61 5.86 5.662 5.86 0.624 0 1.432-0.079 1.911-0.282 0.108-0.046 0.17-0.162 0.17-0.278v-2.81c0-0.136-0.13-0.232-0.259-0.193-0.315 0.089-0.718 0.195-1.404 0.195-1.108 0-2.386-0.792-2.386-2.584 0-1.408 1.097-2.445 2.383-2.445 1.605 0 2.589 1.119 2.589 2.605v5.312c0 0.114 0.091 0.204 0.202 0.204h3.286c0.113 0 0.203-0.090 0.203-0.204v-5.475c0-3.484-2.495-5.81-6.326-5.81zM4.56 23.578c-1.418 0-2.443 1.088-2.443 2.391 0 1.514 1.058 2.373 2.293 2.373 0.253 0 0.58-0.033 0.772-0.113 0.045-0.019 0.070-0.066 0.070-0.113v-1.137c0-0.056-0.051-0.095-0.106-0.079-0.125 0.037-0.288 0.079-0.568 0.079-0.448 0-0.965-0.322-0.965-1.046 0-0.57 0.443-0.991 0.963-0.991 0.651 0 1.048 0.453 1.048 1.054v2.151c0 0.046 0.039 0.083 0.084 0.083h1.33c0.044 0 0.084-0.037 0.084-0.083v-2.218c0-1.411-1.013-2.352-2.562-2.352zM16.42 23.691h-1.329c-0.047 0-0.083 0.037-0.083 0.081v4.376c0 0.046 0.036 0.083 0.083 0.083h1.329c0.046 0 0.082-0.037 0.082-0.083v-4.376c0-0.044-0.036-0.081-0.082-0.081zM15.756 21.577c-0.477 0-0.85 0.366-0.85 0.853 0 0.485 0.373 0.849 0.85 0.849s0.849-0.364 0.849-0.849c0-0.487-0.372-0.853-0.849-0.853zM18.036 21.577c-0.477 0-0.852 0.366-0.852 0.853 0 0.485 0.375 0.849 0.852 0.849 0.474 0 0.85-0.364 0.85-0.849 0-0.487-0.375-0.853-0.85-0.853zM18.7 23.691h-1.331c-0.047 0-0.080 0.037-0.080 0.081v4.376c0 0.046 0.034 0.083 0.080 0.083h1.331c0.045 0 0.081-0.037 0.081-0.083v-4.376c0-0.044-0.036-0.081-0.081-0.081zM27.467 23.578c-1.311 0-2.413 1.067-2.413 2.381s1.104 2.383 2.413 2.383c1.312 0 2.417-1.089 2.417-2.383 0-1.292-1.102-2.381-2.417-2.381zM27.467 26.978c-0.575 0-1.008-0.45-1.008-1.018 0-0.566 0.433-1.015 1.008-1.015 0.577 0 1.010 0.449 1.010 1.015 0 0.568-0.433 1.018-1.010 1.018zM12.363 23.578c-0.496 0-0.962 0.203-1.336 0.61-0.372-0.407-0.839-0.61-1.334-0.61-1.037 0-1.862 0.657-1.862 1.746v2.824c0 0.046 0.037 0.083 0.083 0.083h1.33c0.045 0 0.081-0.037 0.081-0.083v-2.665c0-0.296 0.216-0.465 0.477-0.465s0.478 0.17 0.478 0.465v2.665c0 0.046 0.036 0.083 0.082 0.083h1.328c0.046 0 0.084-0.037 0.084-0.083v-2.665c0-0.296 0.214-0.465 0.478-0.465 0.26 0 0.474 0.17 0.474 0.465v2.665c0 0.046 0.037 0.083 0.084 0.083h1.33c0.045 0 0.084-0.037 0.084-0.083v-2.824c0-1.089-0.825-1.746-1.861-1.746zM22.201 23.578c-0.262 0-0.501 0.058-0.672 0.115-0.046 0.015-0.077 0.057-0.077 0.103v1.154c0 0.057 0.052 0.095 0.107 0.078 0.144-0.046 0.348-0.087 0.531-0.087 0.618 0 1.004 0.459 1.004 1.017 0 0.57-0.406 1.038-1.021 1.020-0.558-0.017-0.993-0.462-0.993-1.020v-4.187c0-0.046-0.039-0.083-0.084-0.083h-1.331c-0.043 0-0.082 0.036-0.082 0.083v4.145c0 1.431 0.972 2.425 2.524 2.425 1.353 0 2.482-1.068 2.482-2.393 0-1.331-0.908-2.372-2.389-2.372z"></path>
</svg>
