<!-- Generated by IcoMoon.io -->
<svg version="1.1" xmlns="http://www.w3.org/2000/svg" width="32" height="32" viewBox="0 0 32 32">
<title>askmii</title>
<path d="M25.121 8.901h0.92v3.17h-0.92v-3.17zM23.59 8.901h0.92v3.17h-0.92v-3.17zM24.587 7.949c0 0.297-0.241 0.538-0.538 0.538s-0.538-0.241-0.538-0.538c0-0.297 0.241-0.538 0.538-0.538s0.538 0.241 0.538 0.538zM22.268 7.582c-0.234 0-0.495 0.092-0.701 0.563-0.141 0.323-1.111 2.52-1.111 2.52h-0.019c0 0-0.969-2.198-1.111-2.521-0.206-0.47-0.481-0.562-0.701-0.562-0.32 0-0.618 0.211-0.618 0.717v3.772h0.988v-2.486h0.020c0 0 0.784 1.784 0.92 2.093 0.159 0.363 0.337 0.423 0.512 0.423s0.352-0.060 0.512-0.423c0.136-0.308 0.92-2.093 0.92-2.093h0.019v2.486h0.988v-3.767c-0-0.506-0.272-0.722-0.618-0.722zM26.119 7.949c0 0.297-0.241 0.538-0.538 0.538s-0.538-0.241-0.538-0.538c0-0.297 0.241-0.538 0.538-0.538s0.538 0.241 0.538 0.538zM9.13 12.085h-0.837l0.096-0.505c-0.3 0.409-0.805 0.614-1.297 0.614-1.125 0-1.623-0.876-1.438-1.866 0.204-1.106 1.144-1.86 2.128-1.86 0.639 0 0.965 0.339 1.067 0.62l0.096-0.511h0.837l-0.652 3.509zM6.485 10.346c-0.077 0.434 0.115 1.067 0.869 1.067 0.467 0 0.825-0.243 1.042-0.563 0.109-0.153 0.179-0.319 0.224-0.492 0.038-0.166 0.038-0.339-0.006-0.492-0.083-0.332-0.358-0.62-0.863-0.62-0.678 0-1.163 0.55-1.259 1.093l-0.006 0.007zM11.956 9.522c0.019-0.096 0.006-0.185-0.045-0.256-0.051-0.077-0.147-0.122-0.313-0.122-0.281 0-0.447 0.179-0.479 0.352-0.032 0.224 0.198 0.345 0.511 0.441 0.537 0.153 1.112 0.32 0.978 1.074-0.121 0.722-0.812 1.182-1.546 1.182-0.543 0-1.227-0.281-1.131-1.131h0.837c-0.038 0.377 0.268 0.454 0.428 0.454 0.262 0 0.518-0.173 0.556-0.409 0.058-0.3-0.192-0.383-0.792-0.607-0.447-0.147-0.78-0.409-0.697-0.914 0.128-0.69 0.793-1.118 1.47-1.118 0.473 0 1.137 0.211 1.048 1.055h-0.825zM13.938 7.355h0.837l-0.473 2.556 1.457-1.336h1.003l-1.745 1.547 1.099 1.962h-0.959l-0.933-1.751-0.326 1.751h-0.837l0.875-4.729zM14.698 20.845c0.001-2.197-1.78-3.979-3.977-3.979s-3.979 1.78-3.979 3.977c-0.001 1.736 1.111 3.211 2.662 3.755-0.482 0.567-0.801 1.415-0.834 2.374l4.501 0.001c-0.033-0.992-0.373-1.865-0.883-2.432 1.47-0.584 2.51-2.018 2.511-3.696zM11.5 19.2h0.889v1.246h-0.889v-1.246zM9.013 19.2h0.889v1.246h-0.889v-1.246zM10.731 23.482c-0.981 0-1.874-0.539-2.332-1.407l0.786-0.415c0.304 0.576 0.896 0.933 1.546 0.933 0.634 0 1.22-0.345 1.529-0.9l0.777 0.432c-0.465 0.837-1.348 1.357-2.306 1.357zM18.506 19.922c-0.564 0-1.17-0.044-1.802-0.13-0.317-0.043-0.578-0.27-0.663-0.579s0.020-0.637 0.27-0.838c1.078-0.866 1.465-2.006 1.598-2.836h-10.765c-3.119 0-5.656-2.537-5.656-5.656s2.537-5.656 5.656-5.656h17.712c3.119 0 5.656 2.537 5.656 5.656s-2.537 5.656-5.656 5.656h-0.113c-0.456 1.886-1.882 4.382-6.237 4.382zM7.144 5.827c-2.237 0-4.056 1.82-4.056 4.056s1.82 4.056 4.056 4.056h11.63c0.442 0 0.8 0.358 0.8 0.8 0 0.695-0.125 2.187-1.063 3.582 2.822-0.001 4.43-1.245 4.779-3.695 0.056-0.394 0.394-0.687 0.792-0.687h0.774c2.236 0 4.056-1.819 4.056-4.056s-1.82-4.056-4.056-4.056h-17.712z"></path>
</svg>
