<!-- Generated by IcoMoon.io -->
<svg version="1.1" xmlns="http://www.w3.org/2000/svg" width="32" height="32" viewBox="0 0 32 32">
<title>CSR</title>
<path d="M15.386 26.356c-0.043 0.728 0.515 1.356 1.243 1.399 0.352 0.021 0.709-0.099 0.957-0.323l2.836-3.178c0.334-0.36 0.495-0.666 0.513-0.971 0.020-0.353-0.097-0.693-0.332-0.957s-0.559-0.421-0.912-0.442c-0.351-0.022-0.71 0.1-0.957 0.323l-2.080 2.325-0.757 0.854c-0.332 0.359-0.494 0.666-0.512 0.971zM17.142 19.608c-0.352-0.020-0.71 0.1-0.957 0.323l-2.094 2.34-0.743 0.839c-0.333 0.359-0.495 0.665-0.513 0.971-0.043 0.728 0.515 1.356 1.244 1.399 0.351 0.022 0.71-0.1 0.957-0.323l2.836-3.178c0.334-0.36 0.495-0.667 0.513-0.971 0.043-0.729-0.515-1.357-1.243-1.4zM6.945 19.481c0.038-0.652 0.427-1.143 0.717-1.456l2.87-3.213c0.404-0.376 0.986-0.58 1.555-0.545 1.163 0.069 2.054 1.071 1.986 2.234-0.002 0.031-0.008 0.058-0.011 0.088 0.189-0.041 0.384-0.059 0.577-0.047 1.163 0.069 2.053 1.072 1.985 2.235-0.002 0.029-0.007 0.058-0.010 0.087 0.188-0.041 0.382-0.058 0.575-0.046 1.163 0.069 2.053 1.072 1.985 2.235-0.002 0.031-0.008 0.059-0.011 0.089 0.19-0.041 0.384-0.059 0.577-0.048 0.564 0.033 1.081 0.284 1.455 0.706 0.323 0.363 0.506 0.817 0.53 1.295 0.332-0.277 0.525-0.709 0.471-1.17-0.035-0.303-0.214-0.6-0.562-0.934l-5.214-5.188c-0.155-0.154-0.156-0.404-0.002-0.559 0.039-0.039 0.084-0.068 0.131-0.087 0.146-0.068 0.324-0.045 0.444 0.076l5.484 5.476c0.26 0.209 0.622 0.311 0.974 0.268 0.725-0.085 1.246-0.743 1.162-1.468-0.035-0.303-0.213-0.6-0.562-0.935l-5.214-5.188c-0.154-0.154-0.155-0.404-0.001-0.559 0.004-0.005 0.011-0.006 0.016-0.011l0-0c0.030-0.030 0.066-0.049 0.101-0.067 0.005-0.002 0.008-0.007 0.013-0.009 0.146-0.068 0.324-0.045 0.445 0.076l5.483 5.476c0.26 0.209 0.622 0.311 0.974 0.268 0.725-0.085 1.246-0.743 1.162-1.467-0.035-0.303-0.213-0.599-0.562-0.935l-0.005-0.005h-0c-0.014-0.014-0.045-0.046-0.087-0.087 0 0-7.024-7.022-7.463-7.468l-4.355 4.519c-0.011 0.011-0.022 0.021-0.033 0.031-0.435 0.358-0.851 0.532-1.272 0.532-0.995 0-1.804-0.81-1.804-1.804 0-0.49 0.194-0.957 0.532-1.287l3.459-3.822-0.036-0.042c-0.039-0.028-0.279-0.296-0.697-0.646-0-0-0.001-0.001-0.002-0.001-0.008-0.007-0.017-0.014-0.025-0.021-0.035-0.029-0.070-0.058-0.107-0.088-1.255-1.026-2.846-1.727-4.59-1.727-0.032 0-0.063 0.002-0.095 0.003-0.833-0.001-1.744 0.142-2.73 0.506-0.528 0.235-0.976 0.509-1.356 0.811-1.882 1.319-3.113 3.503-3.113 5.975 0 2.856 0.993 5.084 3.506 7.321 0 0 0.269 0.249 0.749 0.675 0.001-0.017-0.001-0.035 0.001-0.052zM14.591 17.332c-0.345-0.021-0.71 0.1-0.957 0.324l-2.088 2.332-0.749 0.846c-0.333 0.359-0.494 0.666-0.512 0.971-0.043 0.729 0.515 1.356 1.243 1.399 0.345 0.021 0.71-0.1 0.958-0.323l2.836-3.178c0.333-0.359 0.495-0.666 0.513-0.971 0.043-0.728-0.514-1.356-1.243-1.399zM22.015 4.345c-1.754 0-3.354 0.709-4.612 1.745-0.312 0.245-0.675 0.539-1.062 0.86l-3.782 4.18c-0.006 0.007-0.014 0.014-0.020 0.021-0.187 0.179-0.299 0.45-0.299 0.726 0 0.559 0.455 1.014 1.014 1.014 0.228 0 0.468-0.107 0.752-0.338l4.622-4.796c0.076-0.078 0.174-0.122 0.289-0.121 0.109 0.002 0.213 0.048 0.287 0.129 0.273 0.298 5.233 5.252 7.818 7.829l-0 0c0.277 0.267 0.646 0.684 0.765 1.251 0.147-0.22 0.288-0.441 0.417-0.662 0.162-0.277 0.285-0.551 0.376-0.824 0.458-1.143 0.731-2.465 0.731-3.718 0-4.029-3.266-7.295-7.295-7.295zM12.040 15.056c-0.349-0.021-0.709 0.1-0.957 0.323l-2.836 3.178c-0.334 0.36-0.495 0.667-0.513 0.971-0.021 0.353 0.097 0.693 0.331 0.957s0.559 0.421 0.912 0.442c0.348 0.020 0.71-0.1 0.957-0.323l2.837-3.177c0.334-0.361 0.495-0.668 0.513-0.972 0.043-0.728-0.516-1.356-1.244-1.399z"></path>
</svg>
