<!-- Generated by IcoMoon.io -->
<svg version="1.1" xmlns="http://www.w3.org/2000/svg" width="32" height="32" viewBox="0 0 32 32">
<title>email</title>
<path d="M25.984 6.71c0 0.211-0.173 0.384-0.384 0.384h-14.78c-0.211 0-0.384-0.173-0.384-0.384v-0.299c0-0.211 0.173-0.384 0.384-0.384h14.78c0.211 0 0.384 0.173 0.384 0.384v0.299zM16.241 11.82c-4.053 0-7.229 3.207-7.229 7.3 0 4.207 3.065 7.26 7.287 7.26 2.14 0 3.836-0.512 5.185-1.564 0.019-0.015 0.033-0.028 0.043-0.039-0.172-0.211-0.859-1.029-1.001-1.192-0.021 0.010-0.054 0.029-0.103 0.063-1.076 0.753-2.481 1.186-3.853 1.186-3.455 0-5.775-2.304-5.775-5.733 0-3.37 2.298-5.815 5.463-5.815 3.238 0 5.171 1.852 5.171 4.953 0 2.546-1.238 2.675-1.486 2.675-0.398 0-0.823-0.255-0.823-0.972 0-0.377 0.463-3.394 0.611-4.347 0.028-0.181-0.063-0.288-0.227-0.288-0.393 0-1.11 0.001-1.461 0.001-0.161 0-0.237 0.105-0.262 0.145-0.085 0.14-0.232 0.193-0.364 0.193-0.396 0-0.529-0.459-1.781-0.459-2.047 0-3.271 2.146-3.271 4.221 0 1.954 1.048 3.319 2.549 3.319 0.906 0 1.679-0.293 2.157-0.858 0.207-0.245 0.395-0.351 0.6-0.258 0.347 0.157 0.787 1.116 2.236 1.116 1.514 0 3.152-1.663 3.152-4.448-0-3.215-2.108-6.459-6.819-6.459zM15.695 20.913c-1.071 0-1.155-1.215-1.155-1.588 0-1.163 0.613-2.408 1.525-2.408 0.766 0 1.155 0.555 1.155 1.648-0 1.154-0.571 2.347-1.526 2.347zM28.784 2.452h-25.495c-0.442 0-0.8 0.358-0.8 0.8v25.495c0 0.442 0.358 0.8 0.8 0.8h25.495c0.442 0 0.8-0.358 0.8-0.8v-25.495c0-0.442-0.358-0.8-0.8-0.8zM4.328 5.53c-0.102-0.102-0.102-0.269 0-0.371l0.359-0.359c0.102-0.102 0.268-0.102 0.37 0l0.856 0.856 0.856-0.856c0.102-0.102 0.269-0.102 0.371 0l0.359 0.359c0.102 0.102 0.102 0.269 0 0.371l-0.856 0.856 0.856 0.856c0.102 0.102 0.102 0.269 0 0.371l-0.359 0.359c-0.102 0.102-0.269 0.102-0.371 0l-0.856-0.856-0.856 0.856c-0.102 0.102-0.269 0.102-0.37 0l-0.359-0.359c-0.102-0.102-0.102-0.269 0-0.371l0.856-0.856-0.856-0.856zM27.984 27.948h-23.895v-17.827h23.895v17.827zM27.984 9.054h-19.442v-5.002h19.442v5.002z"></path>
</svg>
