<!-- Generated by IcoMoon.io -->
<svg version="1.1" xmlns="http://www.w3.org/2000/svg" width="32" height="32" viewBox="0 0 32 32">
<title>Games_and_apps</title>
<path d="M27.18 11.9h-4.924c-0.382 0-0.692 0.31-0.692 0.692v7.644c0 0.382 0.31 0.692 0.692 0.692h4.924c0.382 0 0.692-0.31 0.692-0.692v-7.644c0-0.382-0.31-0.692-0.692-0.692zM27.079 12.306c0.243 0 0.441 0.198 0.441 0.441v7.333c0 0.243-0.198 0.441-0.441 0.441h-4.724c-0.243 0-0.442-0.198-0.442-0.441v-7.333c0-0.243 0.198-0.441 0.442-0.441h4.724zM24.727 21.318c-0.32 0-0.579 0.259-0.579 0.579s0.259 0.579 0.579 0.579c0.32 0 0.579-0.259 0.579-0.579s-0.259-0.579-0.579-0.579zM23.331 10.862h2.792c0.152 0 0.276 0.108 0.276 0.26s-0.124 0.26-0.276 0.26h-2.792c-0.152 0-0.276-0.108-0.276-0.26s0.123-0.26 0.276-0.26zM27.759 9.581h-6.083c-0.923 0-1.674 0.751-1.674 1.674v10.699c0 0.923 0.751 1.674 1.674 1.674h6.083c0.923 0 1.674-0.751 1.674-1.674v-10.699c0-0.923-0.751-1.674-1.674-1.674zM27.759 10.218c0.573 0 1.037 0.464 1.037 1.037v10.699c0 0.573-0.465 1.037-1.037 1.037h-6.083c-0.573 0-1.037-0.465-1.037-1.037v-10.699c0-0.573 0.465-1.037 1.037-1.037h6.083zM14.971 11.954c-0.356 0-0.727 0.053-1.105 0.159l-0.023 0.006-0.022 0.008c-0.271 0.098-0.441 0.284-0.508 0.556-0.733 0.203-1.439 0.281-2.441 0.281h-0.022c-1.004 0-1.71-0.078-2.442-0.281-0.067-0.268-0.234-0.454-0.501-0.554l-0.026-0.010-0.026-0.007c-0.379-0.105-0.751-0.158-1.106-0.158-0.205 0-0.409 0.018-0.606 0.053-0.551 0.099-1.061 0.348-1.561 0.764l-0.026 0.022-0.024 0.024c-0.145 0.149-0.228 0.343-0.234 0.545l-0.007 0.273c-0.733 0.98-1.112 2.675-1.362 4.070-0.171 0.954-0.288 1.884-0.346 2.765-0.030 0.443-0.045 0.914-0.045 1.4 0.003 0.675 0.344 1.249 0.913 1.537 0.286 0.146 0.604 0.223 0.919 0.223 0.293 0 0.567-0.066 0.815-0.196 0.225-0.116 0.398-0.264 0.55-0.395 0.024-0.020 0.048-0.041 0.072-0.061 0.103-0.087 0.235-0.207 0.402-0.359 0.315-0.286 0.747-0.679 1.233-1.078 0.302-0.248 0.651-0.447 1.036-0.593 0.722-0.268 1.526-0.268 2.378-0.268h0.015c0.812 0 1.651 0 2.372 0.268 0.383 0.144 0.732 0.344 1.035 0.592 0.474 0.39 0.9 0.776 1.211 1.058 0.178 0.162 0.319 0.289 0.425 0.379 0.022 0.018 0.045 0.038 0.068 0.058 0.153 0.131 0.325 0.28 0.553 0.398 0.247 0.13 0.521 0.195 0.814 0.195 0.314 0 0.632-0.077 0.92-0.222 0.572-0.292 0.911-0.866 0.911-1.538 0-0.476-0.015-0.947-0.045-1.399-0.060-0.885-0.176-1.815-0.346-2.765-0.106-0.588-0.275-1.46-0.523-2.263-0.241-0.783-0.517-1.376-0.839-1.807l-0.006-0.27-0-0.021-0.002-0.020c-0.015-0.182-0.090-0.352-0.215-0.491l-0.031-0.035-0.036-0.030c-0.502-0.414-1.012-0.664-1.559-0.762-0.199-0.035-0.403-0.053-0.608-0.053zM14.971 12.59c0.165 0 0.33 0.014 0.495 0.043 0.485 0.087 0.889 0.315 1.266 0.626 0.031 0.034 0.050 0.074 0.054 0.118l0.010 0.492c0.004 0.002 0.008 0.005 0.012 0.009 0.715 0.816 1.103 2.536 1.356 3.936 0.159 0.89 0.276 1.792 0.338 2.695 0.029 0.451 0.043 0.904 0.043 1.358 0 0.412-0.187 0.778-0.562 0.97-0.189 0.096-0.41 0.154-0.633 0.154-0.178 0-0.357-0.038-0.52-0.124-0.191-0.098-0.343-0.241-0.505-0.378-0.279-0.235-0.894-0.827-1.642-1.442-0.461-0.379-0.926-0.587-1.217-0.697-0.827-0.308-1.723-0.308-2.594-0.308h-0.010c-0.876 0-1.775-0.001-2.607 0.308-0.291 0.109-0.755 0.318-1.217 0.697-0.749 0.616-1.364 1.207-1.641 1.442-0.163 0.137-0.316 0.28-0.506 0.378-0.164 0.086-0.343 0.124-0.521 0.124-0.222 0-0.443-0.058-0.631-0.154-0.377-0.191-0.563-0.557-0.564-0.97 0-0.453 0.013-0.906 0.044-1.358 0.060-0.903 0.178-1.804 0.338-2.695 0.251-1.4 0.639-3.12 1.354-3.936 0.005-0.004 0.008-0.006 0.012-0.009l0.012-0.492c0.001-0.045 0.021-0.084 0.054-0.118 0.375-0.311 0.779-0.539 1.265-0.626 0.165-0.029 0.33-0.043 0.495-0.043 0.315 0 0.628 0.050 0.936 0.135 0.085 0.032 0.12 0.066 0.12 0.248v0.19c0.93 0.309 1.769 0.437 3.046 0.437h0.022c1.276 0 2.113-0.128 3.045-0.437v-0.19c0-0.182 0.032-0.216 0.12-0.248 0.306-0.085 0.619-0.135 0.934-0.135zM10.856 15.734c-0.189 0-0.338 0.151-0.338 0.338s0.149 0.339 0.338 0.339c0.186 0 0.338-0.153 0.338-0.339s-0.152-0.338-0.338-0.338zM12.427 16.071c0-0.181-0.145-0.328-0.326-0.328s-0.328 0.146-0.328 0.328c0 0.181 0.147 0.328 0.328 0.328s0.326-0.147 0.326-0.328zM9.61 15.743c-0.181 0-0.326 0.146-0.326 0.328s0.145 0.328 0.326 0.328c0.181 0 0.328-0.147 0.328-0.328s-0.146-0.328-0.328-0.328zM12.578 17.361c-0.265 0-0.478 0.215-0.478 0.479s0.213 0.479 0.478 0.479c0.264 0 0.481-0.214 0.481-0.479s-0.217-0.479-0.481-0.479zM9.129 17.436h-0.594c-0.027 0-0.049-0.022-0.049-0.049v-0.593c0-0.056-0.045-0.1-0.101-0.1h-0.616c-0.054 0-0.098 0.044-0.098 0.1v0.593c0 0.028-0.023 0.049-0.050 0.049h-0.593c-0.055 0-0.1 0.045-0.1 0.099v0.616c0 0.053 0.045 0.098 0.1 0.098h0.593c0.027 0 0.050 0.022 0.050 0.050v0.593c0 0.055 0.045 0.099 0.098 0.099h0.616c0.056 0 0.101-0.045 0.101-0.099v-0.593c0-0.028 0.022-0.050 0.049-0.050h0.594c0.054 0 0.098-0.045 0.098-0.098v-0.616c0-0.055-0.045-0.099-0.098-0.099zM10.856 17.503c-0.186 0-0.338 0.152-0.338 0.338s0.152 0.339 0.338 0.339c0.186 0 0.338-0.152 0.338-0.339s-0.152-0.338-0.338-0.338zM13.632 18.318c-0.265 0-0.478 0.214-0.478 0.479s0.213 0.48 0.478 0.48c0.265 0 0.478-0.214 0.478-0.48s-0.213-0.479-0.478-0.479zM13.632 16.403c-0.265 0-0.478 0.215-0.478 0.479s0.213 0.481 0.478 0.481c0.265 0 0.478-0.215 0.478-0.481s-0.213-0.479-0.478-0.479zM14.685 17.361c-0.265 0-0.481 0.215-0.481 0.479s0.215 0.479 0.481 0.479c0.264 0 0.48-0.214 0.48-0.479s-0.216-0.479-0.48-0.479zM6.372 14.456c-0.532 0-0.963 0.431-0.963 0.962s0.431 0.961 0.963 0.961c0.531 0 0.961-0.43 0.961-0.961s-0.43-0.962-0.961-0.962zM15.337 14.455c-0.531 0-0.96 0.431-0.96 0.963s0.429 0.962 0.96 0.962c0.532 0 0.963-0.431 0.963-0.962s-0.431-0.963-0.963-0.963z"></path>
</svg>
