<!-- Generated by IcoMoon.io -->
<svg version="1.1" xmlns="http://www.w3.org/2000/svg" width="32" height="32" viewBox="0 0 32 32">
<title>legal</title>
<path d="M30.375 13.363c0-0.021 0.002-0.042 0.002-0.063 0-0.172-0.070-0.327-0.183-0.439l-4.42-7.499c-0.109-0.185-0.305-0.3-0.519-0.306-0.038-0.001-0.074 0.002-0.11 0.007-0.089-0.010-0.181-0.007-0.273 0.015l-6.992 1.691c0.053-0.178 0.082-0.365 0.082-0.56 0-1.089-0.886-1.975-1.976-1.975s-1.976 0.886-1.976 1.975c0 0.529 0.21 1.008 0.549 1.363l-7.22 1.746c-0.064 0.015-0.123 0.041-0.18 0.070-0.108 0.047-0.203 0.123-0.27 0.224l-0.041 0.062c-0.002 0.002-0.003 0.005-0.005 0.007l-5.054 7.591c-0 0-0.001 0.001-0.001 0.001l-0.001 0.002c-0.004 0.007-0.007 0.014-0.011 0.021-0.017 0.028-0.033 0.056-0.046 0.087-0.008 0.018-0.012 0.037-0.017 0.056-0.006 0.020-0.014 0.040-0.018 0.060-0.006 0.030-0.008 0.061-0.009 0.092-0.001 0.010-0.003 0.019-0.003 0.029 0 0.001 0 0.002 0 0.003s0 0.002 0 0.003c0.001 1.449 0.566 2.811 1.591 3.836 1.026 1.026 2.39 1.591 3.841 1.591h0c2.995 0 5.432-2.437 5.432-5.432 0-0.012-0.003-0.025-0.004-0.037-0.001-0.022-0.003-0.044-0.007-0.067-0.003-0.019-0.008-0.037-0.013-0.055-0.005-0.021-0.011-0.041-0.019-0.061-0.007-0.019-0.017-0.038-0.026-0.057-0.006-0.013-0.011-0.026-0.018-0.039l-3.909-6.633 6.368-1.54v14.691h-2.27c-0.589 0-1.067 0.478-1.067 1.067 0 0.338 0.158 0.639 0.404 0.834h-1.777c-0.589 0-1.067 0.478-1.067 1.067s0.478 1.067 1.067 1.067h11.224c0.589 0 1.067-0.478 1.067-1.067s-0.478-1.067-1.067-1.067h-1.448c0.245-0.196 0.404-0.496 0.404-0.834 0-0.589-0.478-1.067-1.067-1.067h-2.27v-15.207l6.534-1.58-3.863 5.802c-0.129 0.114-0.211 0.279-0.211 0.463 0 0.012 0.001 0.024 0.001 0.035 0 0.008 0 0.016 0.001 0.024 0.015 1.429 0.578 2.77 1.589 3.781 1.026 1.026 2.39 1.591 3.841 1.591h0.001c2.966 0 5.383-2.39 5.429-5.345 0.001-0.008 0.001-0.015 0.001-0.023zM24.944 12.575c-1.418 0-2.701 0.030-3.59 0.057l3.851-5.783 3.41 5.786c-0.891-0.028-2.21-0.059-3.671-0.059zM3.466 16.997l3.909-5.871 3.46 5.871h-7.369z"></path>
</svg>
