<!-- Generated by IcoMoon.io -->
<svg version="1.1" xmlns="http://www.w3.org/2000/svg" width="32" height="32" viewBox="0 0 32 32">
<title>miiverse</title>
<path d="M18.396 8.556c-0.006-0.419-0.351-0.758-0.77-0.752-0.421 0.004-0.756 0.352-0.755 0.769 0.007 0.419 0.351 0.757 0.77 0.752s0.758-0.35 0.754-0.769zM15.030 8.589c-0.001-0.42-0.346-0.76-0.768-0.756-0.418 0.009-0.759 0.351-0.755 0.775 0.005 0.418 0.35 0.757 0.769 0.752 0.422-0.004 0.762-0.35 0.754-0.771zM16.845 11.159c-0.014 0.010-0.069 0.048-0.078 0.056-0.236 0.202-0.517 0.308-0.815 0.308s-0.58-0.106-0.816-0.308c-0.008-0.008-0.063-0.047-0.076-0.056-0.209-0.15-0.481-0.071-0.605 0.068-0.172 0.19-0.157 0.486 0.035 0.657 0.409 0.368 0.928 0.57 1.462 0.57s1.055-0.203 1.463-0.57c0.191-0.171 0.206-0.467 0.036-0.657-0.124-0.14-0.397-0.219-0.606-0.068zM30.084 21.023c0-0.858-0.431-1.633-1.115-2.101-0.202-0.433-0.494-1.041-0.737-1.489-0.218-0.406-0.446-0.815-0.667-1.205 0.732-0.894 1.142-2.033 1.142-3.25 0-2.769-2.121-4.939-4.83-4.939-0.785 0-1.519 0.183-2.168 0.509-0.437-2.927-2.809-5.1-5.758-5.1-2.889 0-5.222 2.082-5.727 4.917-0.642-0.345-1.375-0.539-2.167-0.539-2.683 0-4.706 2.204-4.706 5.126 0 1.283 0.408 2.516 1.1 3.451-0.232 0.408-0.474 0.851-0.696 1.277-0.206 0.393-0.448 0.814-0.625 1.115-0.742 0.459-1.216 1.267-1.216 2.166 0 1.829 1.65 2.565 2.607 2.565-0.957 2.107 0 3.873 3.196 3.873h3.68c0.339 0.977 1.833 1.154 3.231 1.154h2.645c1.669 0 3.038-0.376 3.238-1.154h3.819c3.146 0 4.107-1.767 3.146-3.816 0.961-0 2.606-0.71 2.606-2.559zM9.226 25.753c-0.508 0-0.806-0.064-0.806-0.404 0-0.179 0.042-0.398 0.213-0.566l-0.031-2.586c-0.152 0.038-0.345 0.059-0.508 0.059-0.164 0-0.358-0.021-0.509-0.059l-0.031 2.586c0.172 0.168 0.213 0.387 0.213 0.566 0 0.34-0.298 0.404-0.807 0.404-0.508 0-0.919-0.064-0.919-0.404 0-0.263 0.273-0.63 0.607-0.756-0.143-0.892-0.475-3.029-0.475-4.608 0-0.663 0.097-0.958 0.174-1.218 0.020-0.067 0.013-0.091-0.010-0.1s-0.042 0.012-0.068 0.056c-0.027 0.046-0.957 1.715-0.957 1.715 0.106 0.148 0.17 0.327 0.17 0.52 0 0.506-0.43 0.918-0.96 0.918-0.531 0-0.961-0.413-0.961-0.918 0-0.428 0.307-0.784 0.72-0.886 0 0 0.516-0.994 0.949-1.759 0.442-0.784 0.885-1.533 1.246-2.097 0.029-0.047 0.010-0.109-0.035-0.14-0.899-0.614-1.443-1.878-1.443-3.126 0-1.904 1.203-3.479 3.060-3.479s3.060 1.575 3.060 3.479c0 1.249-0.545 2.512-1.442 3.126-0.048 0.033-0.065 0.096-0.035 0.147 0 0 0.962 1.633 1.034 1.761-0.296 0-1.967 0.61-1.967 2.277 0 1.049 0.669 1.696 1.217 2.003-0.131 1.074-0.385 2.329-0.385 2.329 0.353 0.143 0.606 0.493 0.606 0.756-0 0.34-0.412 0.404-0.92 0.404zM20.848 21.556c-0.71 0-1.287-0.552-1.287-1.229 0-0.259 0.084-0.499 0.228-0.697 0 0-1.457-2.729-1.504-2.808-0.049-0.081-0.065-0.112-0.102-0.097-0.050 0.020-0.025 0.065-0.002 0.139 0.222 0.729 0.346 1.814 0.346 2.317 0 0.966-0.728 6.172-0.728 6.172 0.473 0.19 0.813 0.66 0.813 1.013 0 0.454-0.552 0.54-1.232 0.54-0.682 0-1.103-0.086-1.103-0.54 0-0.239 0.078-0.533 0.308-0.758v-3.466c-0.202 0.050-0.414 0.079-0.633 0.079h-0.002c-0.219 0-0.43-0.028-0.632-0.079v3.466c0.23 0.225 0.308 0.519 0.308 0.758 0 0.453-0.422 0.54-1.103 0.54-0.68 0-1.232-0.086-1.232-0.54 0-0.353 0.34-0.823 0.812-1.013 0 0-0.727-5.207-0.727-6.172 0.001-0.503 0.125-1.588 0.346-2.317 0.023-0.074 0.049-0.119-0.002-0.139-0.037-0.015-0.053 0.016-0.102 0.097-0.047 0.079-1.505 2.808-1.505 2.808 0.143 0.198 0.228 0.438 0.228 0.697 0 0.678-0.577 1.229-1.286 1.229-0.712 0-1.288-0.552-1.288-1.229 0-0.573 0.412-1.050 0.967-1.187 0 0 0.784-1.705 1.325-2.739 0.501-0.952 1.458-2.314 1.778-2.759 0.034-0.048 0.026-0.116-0.024-0.149-1.225-0.805-2.046-2.28-2.046-3.967 0-2.55 1.874-4.432 4.185-4.432s4.185 1.882 4.185 4.432c0 1.687-0.822 3.161-2.047 3.967-0.049 0.033-0.058 0.101-0.023 0.149 0.32 0.445 1.277 1.806 1.778 2.759 0.541 1.034 1.324 2.739 1.324 2.739 0.555 0.137 0.966 0.614 0.966 1.187 0 0.678-0.576 1.229-1.287 1.229zM27.478 21.94c-0.53 0-0.96-0.412-0.96-0.918 0-0.193 0.063-0.372 0.17-0.521 0 0-0.884-1.705-0.934-1.805-0.015-0.041-0.046-0.050-0.066-0.040-0.017 0.010-0.027 0.033-0.018 0.069 0.019 0.086 0.193 1.020 0.193 1.71 0 1.438-0.385 3.377-0.54 4.159 0.353 0.142 0.607 0.493 0.607 0.756 0 0.34-0.412 0.403-0.92 0.403s-0.806-0.063-0.806-0.403c0-0.179 0.041-0.398 0.213-0.566v-2.329c-0.152 0.037-0.406 0.058-0.57 0.058s-0.419-0.022-0.572-0.058v2.329c0.173 0.168 0.214 0.387 0.214 0.566 0 0.34-0.299 0.403-0.807 0.403s-0.921-0.063-0.921-0.403c0-0.263 0.255-0.614 0.607-0.756 0 0-0.277-1.263-0.426-2.325 0.608-0.31 1.263-0.957 1.263-2.004 0-1.67-1.715-2.322-2.060-2.322 0.128-0.221 1.093-1.944 1.093-1.944 0.029-0.051 0.012-0.115-0.037-0.147-0.902-0.6-1.506-1.625-1.506-2.874 0-1.869 1.401-3.292 3.185-3.292s3.184 1.39 3.184 3.292c0 1.249-0.604 2.273-1.503 2.873-0.047 0.032-0.066 0.094-0.037 0.142 0.424 0.7 0.89 1.531 1.263 2.222 0.387 0.717 0.932 1.922 0.932 1.922 0.415 0.102 0.722 0.459 0.722 0.886 0 0.506-0.43 0.918-0.961 0.918z"></path>
</svg>
