<!-- Generated by IcoMoon.io -->
<svg version="1.1" xmlns="http://www.w3.org/2000/svg" width="32" height="32" viewBox="0 0 32 32">
<title>My_Nintendo</title>
<path d="M4.026 13.569c-0.202 0-0.426 0.079-0.603 0.484-0.122 0.278-0.955 2.167-0.955 2.167h-0.016c0 0-0.833-1.89-0.956-2.168-0.177-0.404-0.413-0.483-0.603-0.483-0.276 0-0.531 0.182-0.531 0.617v3.243h0.849v-2.138h0.017c0 0 0.674 1.534 0.791 1.799 0.137 0.312 0.29 0.363 0.44 0.363s0.303-0.052 0.44-0.363c0.117-0.265 0.791-1.799 0.791-1.799h0.017v2.138h0.85v-3.239c0-0.435-0.234-0.621-0.531-0.621v0zM20.042 15.773c0.123-0.344 0.4-0.482 0.679-0.482 0.393 0 0.616 0.249 0.696 0.482h-1.374zM20.708 14.621c-0.82 0-1.424 0.725-1.424 1.442 0 0.741 0.618 1.451 1.431 1.451 0.593 0 1.079-0.332 1.289-0.747l-0.646-0.228c-0.169 0.211-0.375 0.307-0.649 0.307-0.277 0-0.601-0.182-0.678-0.529h1.606c0.346 0 0.52-0.068 0.52-0.326-0.012-0.566-0.504-1.37-1.449-1.37v0zM23.952 14.622c-0.296 0-0.561 0.12-0.723 0.316h-0.009v-0.232h-0.791v2.724h0.791v-1.326c0-0.529 0.288-0.758 0.614-0.758 0.227 0 0.572 0.144 0.572 0.68v1.403h0.792v-1.461c0-0.916-0.633-1.346-1.247-1.346v0zM18.686 13.955h-0.79v0.751h-0.529v0.642h0.529v2.082h0.79v-2.082h0.535v-0.642h-0.535v-0.751zM26.929 16.805c-0.413 0-0.73-0.331-0.73-0.737s0.317-0.737 0.73-0.737c0.415 0 0.721 0.326 0.721 0.737s-0.306 0.737-0.721 0.737v0zM27.645 14.906h-0.014c-0.063-0.093-0.355-0.284-0.729-0.284-0.781 0-1.438 0.651-1.438 1.446s0.657 1.447 1.438 1.447c0.374 0 0.667-0.192 0.729-0.285h0.014v0.201h0.792v-3.835h-0.792v1.31zM30.157 16.801c-0.395 0-0.717-0.328-0.717-0.732s0.322-0.732 0.717-0.732c0.395 0 0.717 0.328 0.717 0.732s-0.322 0.732-0.717 0.732v0zM30.157 14.621c-0.803 0-1.454 0.649-1.454 1.447s0.65 1.446 1.454 1.446c0.803 0 1.453-0.649 1.453-1.446s-0.65-1.447-1.453-1.447v0zM13.536 13.424c-0.255 0-0.462 0.207-0.462 0.462s0.207 0.463 0.462 0.463c0.255 0 0.462-0.207 0.462-0.463s-0.207-0.462-0.462-0.462v0zM13.14 17.431h0.791v-2.726h-0.791v2.726zM15.98 14.622c-0.296 0-0.561 0.12-0.723 0.316h-0.009v-0.232h-0.791v2.724h0.791v-1.326c0-0.529 0.288-0.758 0.614-0.758 0.227 0 0.572 0.144 0.572 0.68v1.403h0.792v-1.461c0-0.916-0.633-1.346-1.247-1.346v0zM11.686 15.966l-1.605-2.112c-0.166-0.218-0.324-0.285-0.452-0.285-0.303 0-0.462 0.182-0.462 0.444v3.415h0.85l-0-2.371 1.605 2.112c0.165 0.217 0.324 0.285 0.452 0.285 0.303 0 0.462-0.182 0.462-0.444v-3.416h-0.85l0 2.371zM6.406 16.342l-0.668-1.637h-0.858l1.097 2.654-0.026 0.066c-0.038 0.099-0.133 0.444-0.502 0.444l-0.127 0v0.68h0.14c0.531 0 0.854-0.125 1.068-0.574 0.053-0.111 1.364-3.269 1.364-3.269h-0.897l-0.591 1.637z"></path>
</svg>
