<!-- Generated by IcoMoon.io -->
<svg version="1.1" xmlns="http://www.w3.org/2000/svg" width="32" height="32" viewBox="0 0 32 32">
<title>MyNintendo</title>
<path d="M32.040 18.274c0-3.511-2.833-7.262-7.102-7.422-2.195-4.030-6.185-6.424-10.773-6.424-5.387 0-10.973 3.551-10.973 9.536 0 4.19 3.591 5.905 3.751 5.985 0.598 0.279 1.237 0.040 1.556-0.519l2.035-3.831 1.516 2.913c0.199 0.359 0.598 0.638 1.077 0.638 0.439 0 0.878-0.279 1.077-0.638l1.516-2.913 2.035 3.831c0.319 0.598 1.037 0.798 1.596 0.479 0.598-0.319 0.798-1.037 0.479-1.596l-3.072-5.905c-0.199-0.359-0.638-0.638-1.077-0.638s-0.878 0.279-1.077 0.638l-1.437 2.833-1.476-2.833c-0.199-0.359-0.598-0.638-1.077-0.638-0.439 0-0.878 0.199-1.077 0.638l-2.514 4.668c-0.638-0.598-1.437-1.596-1.437-3.192 0-4.469 4.349-7.142 8.539-7.142 3.87 0 7.222 2.155 8.938 5.706 0.199 0.439 0.638 0.718 1.197 0.718 0.12 0 0.16 0 0.16 0 0.040 0 0.040 0 0.12 0 2.953 0 5.068 2.673 5.068 5.068 0 2.913-2.314 5.187-5.227 5.187-1.197 0-2.314-0.479-2.833-0.918-0.439-0.319-1.037-0.319-1.437 0-1.037 0.798-3.91 2.673-8.060 2.673-4.828 0-8.379-2.673-9.736-4.27-0.439-0.479-1.197-0.598-1.676-0.16s-0.598 1.197-0.16 1.676c0.439 0.519 4.509 5.107 11.571 5.107 4.11 0 7.102-1.516 8.898-2.673 1.037 0.519 2.354 0.918 3.551 0.918 4.15 0.12 7.462-3.232 7.541-7.501z"></path>
</svg>
