<!-- Generated by IcoMoon.io -->
<svg version="1.1" xmlns="http://www.w3.org/2000/svg" width="32" height="32" viewBox="0 0 32 32">
<title>MyNintendo_black_no_text</title>
<path d="M21.28 8.96h-10.631c-1.013 0-1.849 0.818-1.849 2.009v10.578c0 0.836 0.836 1.653 1.849 1.653h10.631c1.013 0 1.849-0.818 1.849-1.653v-10.56c0-1.209-0.836-2.027-1.849-2.027zM18.809 19.324c-0.391 0-0.818-0.107-1.173-0.302-0.569 0.391-1.564 0.889-2.933 0.889-2.329 0-3.68-1.511-3.822-1.689-0.142-0.16-0.124-0.409 0.053-0.551 0.16-0.142 0.409-0.124 0.551 0.053 0.444 0.516 1.618 1.404 3.218 1.404 1.369 0 2.311-0.622 2.667-0.889 0.142-0.107 0.338-0.107 0.48 0 0.178 0.142 0.569 0.302 0.942 0.302 0.96 0 1.724-0.747 1.724-1.707 0-0.8-0.693-1.671-1.671-1.671 0 0-0.018 0-0.036 0 0 0-0.018 0-0.053 0-0.16 0.018-0.32-0.071-0.391-0.231-0.569-1.191-1.671-1.884-2.951-1.884-1.387 0-2.827 0.889-2.827 2.364 0 0.516 0.249 0.853 0.48 1.049l0.836-1.547c0.071-0.124 0.213-0.213 0.356-0.213s0.284 0.089 0.356 0.213l0.48 0.942 0.48-0.942c0.071-0.124 0.196-0.213 0.356-0.213 0.142 0 0.284 0.071 0.356 0.213l1.031 1.938c0.107 0.196 0.036 0.427-0.16 0.533s-0.427 0.036-0.533-0.16l-0.676-1.262-0.498 0.96c-0.071 0.124-0.196 0.213-0.356 0.213s-0.284-0.089-0.356-0.213l-0.498-0.96-0.676 1.262c-0.107 0.178-0.32 0.267-0.516 0.178-0.053-0.018-1.244-0.587-1.244-1.973 0-1.973 1.849-3.147 3.627-3.147 1.511 0 2.827 0.782 3.556 2.116 1.404 0.071 2.347 1.298 2.347 2.453-0.018 1.369-1.12 2.471-2.524 2.471z"></path>
</svg>
