<!-- Generated by IcoMoon.io -->
<svg version="1.1" xmlns="http://www.w3.org/2000/svg" width="32" height="32" viewBox="0 0 32 32">
<title>Nintendo_3DS_family</title>
<path d="M8.992 22.132v0.001c0.069 0 0.138 0.002 0.207-0.001 0.052-0.002 0.082-0.031 0.084-0.074 0.003-0.047-0.028-0.085-0.081-0.086-0.138-0.003-0.276-0.002-0.413-0-0.020 0-0.043 0.011-0.059 0.025-0.024 0.020-0.033 0.048-0.022 0.080 0.012 0.033 0.035 0.055 0.071 0.055 0.071 0.001 0.143 0 0.214 0v0zM2.513 13.491c0.077 0 0.151 0.003 0.224-0.001 0.054-0.003 0.087-0.042 0.087-0.101 0.002-0.158 0.002-0.316-0-0.473-0.001-0.058-0.034-0.096-0.089-0.099-0.073-0.005-0.146-0.001-0.222-0.001v0.676zM15.474 12.813c-0.064 0-0.123-0-0.182 0-0.099 0.001-0.133 0.034-0.134 0.134-0.001 0.133-0 0.266-0 0.399 0 0.020 0.001 0.040 0.003 0.059 0.007 0.047 0.037 0.080 0.082 0.083 0.075 0.005 0.151 0.001 0.23 0.001v-0.676zM14.205 16.224c0.024 0.002 0.041 0.004 0.058 0.004 0.269 0 0.538 0 0.807 0 0.015-0 0.030-0 0.044-0.003 0.038-0.007 0.064-0.030 0.065-0.070 0-0.108-0.002-0.217-0.004-0.325-0.001-0.030-0.018-0.044-0.047-0.047-0.015-0.001-0.030-0.002-0.044-0.002-0.271-0-0.543-0-0.814 0-0.021 0-0.042 0.004-0.064 0.006v0.435zM3.78 15.787c-0.025-0.002-0.047-0.005-0.068-0.005-0.269-0-0.539-0-0.808-0-0.017 0-0.035 0-0.052 0.003-0.031 0.005-0.048 0.022-0.048 0.055 0.001 0.104 0.001 0.207 0.004 0.311 0.001 0.045 0.024 0.067 0.067 0.075 0.014 0.003 0.030 0.002 0.044 0.002 0.267 0 0.534 0 0.801-0 0.019 0 0.038-0.004 0.060-0.006v-0.435zM13.828 15.791c-0.453 0-9.335 0.002-9.668 0.002v0.426c0.081 0.016 8.767-0.003 9.668-0.003v-0.425zM5.998 21.223c0.862 0 5.415-0.006 5.989-0.006 0.015-0.125 0.009-3.972-0.006-4.024-1.195 0-4.619 0.007-5.983 0.007v4.023zM2.813 15.403h12.363v-1.543c-0.017-0.005-0.031-0.010-0.044-0.014-0.207-0.064-0.34-0.234-0.345-0.45-0.004-0.163-0.004-0.326 0-0.489 0.005-0.212 0.136-0.382 0.339-0.447 0.016-0.005 0.032-0.010 0.051-0.016 0.001-0.019 0.004-0.036 0.004-0.053 0-0.726 0.004-1.451-0.002-2.177-0.002-0.289-0.147-0.501-0.41-0.628-0.107-0.052-0.222-0.062-0.34-0.062-3.623 0-7.246 0-10.868 0-0.025 0-0.049-0-0.074 0-0.383 0.014-0.677 0.313-0.677 0.694-0.001 0.721-0 1.442-0 2.162 0 0.022 0.003 0.043 0.004 0.064 0.015 0.004 0.024 0.007 0.034 0.010 0.216 0.065 0.346 0.227 0.352 0.45 0.005 0.165 0.005 0.331-0 0.496-0.007 0.217-0.136 0.378-0.342 0.443-0.016 0.005-0.031 0.012-0.043 0.017v1.54zM8.654 21.602h-0.078c-0.87 0-1.741 0-2.611-0-0.035 0-0.069 0-0.104-0.003-0.134-0.014-0.23-0.115-0.238-0.25-0.002-0.030-0.001-0.059-0.001-0.089-0-1.385-0-2.712-0-4.097 0-0.027-0.001-0.054 0.001-0.081 0.006-0.147 0.102-0.249 0.249-0.264 0.025-0.002 0.049-0.002 0.074-0.002 2.033-0 4.065-0 6.098 0 0.034 0 0.069 0.001 0.103 0.007 0.119 0.020 0.208 0.119 0.217 0.239 0.002 0.022 0.001 0.044 0.001 0.067 0 1.407 0 2.756 0 4.163 0 0.020 0 0.040-0.001 0.059-0.008 0.13-0.104 0.232-0.233 0.247-0.034 0.004-0.069 0.004-0.104 0.004-0.873 0-1.746 0-2.619 0-0.025 0-0.051 0.002-0.076 0.003 0.197 0.083 0.317 0.223 0.323 0.434 0.007 0.222-0.113 0.369-0.314 0.462h0.085c1.669 0 3.338 0 5.008-0 0.027 0 0.055 0.003 0.081-0.001 0.070-0.012 0.143-0.018 0.209-0.041 0.278-0.099 0.455-0.36 0.456-0.664 0.001-0.879 0-1.758 0-2.636 0-0.825 0-1.649-0-2.473 0-0.028-0.001-0.057-0.002-0.085h-12.37v0.6c0 1.526 0 3.051-0.001 4.576 0 0.1 0.012 0.197 0.050 0.29 0.111 0.276 0.379 0.437 0.641 0.435 0.388-0.003 0.776-0.001 1.165-0.001 1.301 0 2.601 0 3.902-0 0.027 0 0.054-0.001 0.082-0.002-0.194-0.087-0.311-0.225-0.316-0.434-0.005-0.225 0.118-0.372 0.323-0.464v0zM14.383 8.893c0.245-0 0.479 0.041 0.692 0.162 0.474 0.267 0.723 0.672 0.737 1.217 0.004 0.175 0.001 0.351 0.001 0.526 0 1.535 0 3.013-0.001 4.549 0 0.084-0.010 0.167-0.013 0.251-0.001 0.039 0.006 0.078 0.007 0.118 0.003 0.291 0.006 0.582 0.007 0.874 0.001 1.73-0 3.403 0.001 5.134 0 0.295-0.071 0.568-0.241 0.809-0.28 0.396-0.665 0.604-1.153 0.605-1.523 0.003-2.989 0.001-4.512 0.001-2.132 0-4.206 0.001-6.337-0.001-0.466-0-0.842-0.191-1.124-0.561-0.186-0.244-0.272-0.523-0.274-0.829-0.002-0.346-0-0.691-0-1.037-0.001-1.582-0.002-3.107-0.001-4.689 0-0.135 0.014-0.271 0.022-0.406 0.001-0.012 0.003-0.025 0-0.037-0.028-0.109-0.021-0.221-0.021-0.332-0-1.669-0.001-3.28 0-4.949 0-0.443 0.171-0.811 0.514-1.094 0.23-0.19 0.496-0.292 0.795-0.307 0.052-0.003 9.086-0.002 10.902-0.004v0zM4.215 17.313c0.402 0 0.726 0.324 0.726 0.724 0 0.401-0.33 0.729-0.733 0.727-0.4-0.002-0.722-0.328-0.721-0.73s0.324-0.722 0.727-0.721zM3.384 20.319c0-0.057-0.001-0.113 0-0.17 0.001-0.084 0.020-0.103 0.106-0.104 0.104-0.001 0.208-0 0.311-0 0.017 0 0.035 0.001 0.052-0.001 0.059-0.004 0.080-0.024 0.081-0.083 0.002-0.104 0.001-0.207 0.001-0.311 0-0.025-0.001-0.049 0-0.074 0.003-0.055 0.027-0.082 0.083-0.083 0.128-0.002 0.257-0.002 0.385-0 0.061 0.001 0.084 0.025 0.085 0.087 0.002 0.096 0.001 0.192 0.001 0.288 0 0.027-0.001 0.054 0 0.081 0.003 0.071 0.023 0.093 0.094 0.094 0.109 0.002 0.217 0 0.326 0.001 0.020 0 0.040-0.001 0.059 0.001 0.048 0.006 0.073 0.028 0.074 0.076 0.002 0.133 0.003 0.266-0 0.399-0.001 0.055-0.032 0.078-0.096 0.078-0.106 0.001-0.212 0-0.319 0-0.017 0-0.035-0.001-0.052 0-0.061 0.003-0.086 0.024-0.087 0.085-0.002 0.091-0.001 0.182-0.001 0.274 0 0.032 0.001 0.064-0 0.096-0.003 0.076-0.022 0.094-0.1 0.095-0.119 0.001-0.237 0.001-0.356-0-0.074-0.001-0.097-0.023-0.098-0.097-0.001-0.118 0-0.237-0.001-0.355-0.001-0.077-0.020-0.097-0.096-0.098-0.116-0.001-0.232 0-0.348-0.001-0.085-0-0.105-0.021-0.107-0.104-0-0.002 0-0.005 0-0.007v-0.17zM13.021 16.928c0.197-0 0.353 0.154 0.354 0.35 0.001 0.198-0.159 0.359-0.356 0.357-0.195-0.002-0.352-0.16-0.351-0.355 0.001-0.196 0.156-0.352 0.352-0.352zM13.802 17.772c0.192 0 0.344 0.152 0.342 0.343-0.002 0.186-0.154 0.338-0.342 0.339-0.189 0.001-0.343-0.154-0.342-0.345 0.001-0.188 0.152-0.337 0.341-0.337zM13.798 19.804c-0.187-0.001-0.337-0.153-0.337-0.342 0-0.19 0.156-0.343 0.347-0.34 0.187 0.003 0.338 0.155 0.337 0.343-0 0.19-0.154 0.341-0.347 0.339zM12.747 18.787c0-0.188 0.149-0.339 0.337-0.341s0.346 0.153 0.346 0.341c-0 0.189-0.155 0.341-0.346 0.339-0.189-0.002-0.336-0.151-0.336-0.34zM14.859 18.789c-0.001 0.191-0.154 0.34-0.347 0.337-0.188-0.003-0.338-0.156-0.336-0.342s0.155-0.338 0.341-0.339c0.19-0 0.343 0.153 0.342 0.344zM5.292 14.81h7.38v-4.035h-7.38v4.035zM8.976 15.187h-3.791c-0.027 0-0.054 0.001-0.082-0-0.107-0.004-0.181-0.074-0.188-0.181-0.002-0.022-0.001-0.044-0.001-0.067-0-1.469 0.002-2.822-0.002-4.291-0-0.181 0.093-0.252 0.249-0.252 2.547 0.003 7.686 0.001 7.708 0.003 0.103 0.010 0.171 0.082 0.175 0.186 0.001 0.020 0 0.040 0 0.059 0 1.471-0.001 2.827 0.002 4.298 0 0.161-0.074 0.247-0.244 0.246-1.276-0.004-2.552-0.002-3.828-0.002v0zM8.991 9.686c0.149-0.001 0.27 0.118 0.269 0.265-0.001 0.143-0.12 0.263-0.264 0.265-0.148 0.002-0.268-0.118-0.267-0.267 0-0.147 0.115-0.262 0.262-0.263zM23.218 22.158c0.037 0 0.074 0.002 0.111-0 0.049-0.003 0.076-0.030 0.076-0.072-0-0.039-0.025-0.069-0.070-0.071-0.074-0.004-0.148-0.004-0.221-0-0.048 0.002-0.075 0.035-0.073 0.076s0.031 0.065 0.081 0.068c0.032 0.002 0.064 0 0.096 0v0zM20.755 21.307h4.926v-3.531h-4.926v3.531zM29.158 21.335c0.001-2.399 0.001-4.799 0-7.198-0-0.099-0.004-0.198-0.013-0.296-0.040-0.396-0.18-0.753-0.437-1.058-0.385-0.456-0.885-0.682-1.478-0.683-2.668-0.004-5.337-0.002-8.005-0-0.108 0-0.218 0.010-0.324 0.029-0.666 0.121-1.145 0.488-1.428 1.102-0.127 0.275-0.173 0.569-0.173 0.871 0.001 2.402 0.001 4.804 0 7.206-0 0.478 0.122 1.187 0.737 1.187 1.603 0.001 3.205 0.001 4.808 0.001 0.015 0 0.031-0.002 0.064-0.004-0.157-0.097-0.241-0.223-0.246-0.391-0.006-0.17 0.074-0.3 0.205-0.412-0.161 0-2.245 0-2.275-0.002-0.101-0.007-0.179-0.067-0.206-0.164-0.010-0.035-0.010-0.073-0.010-0.11-0-1.266-0-2.475-0-3.741 0-0.020-0.001-0.040 0.001-0.059 0.006-0.113 0.085-0.2 0.198-0.216 0.032-0.005 0.064-0.004 0.096-0.004 1.699-0 3.398-0 5.097-0 0.025 0 0.050-0.001 0.074 0.001 0.132 0.011 0.216 0.1 0.221 0.233 0.001 0.020 0 0.040 0 0.059 0 1.256 0 2.455-0 3.712 0 0.027 0.001 0.054-0.001 0.081-0.009 0.111-0.093 0.197-0.205 0.207-0.032 0.003-1.751 0.002-2.278 0.002 0.012 0.012 0.023 0.021 0.023 0.021 0.254 0.187 0.245 0.579-0.017 0.753-0.010 0.007-0.017 0.018-0.029 0.029h3.388c0.001-0.052 0.002-0.101 0.004-0.149 0.008-0.131 0.093-0.217 0.224-0.218 0.366-0.002 0.732-0.002 1.098-0 0.134 0.001 0.222 0.089 0.227 0.223 0.002 0.042 0 0.084 0 0.14 0.059 0 0.664-0.047 0.664-1.152v0zM18.051 23.138c-1.002 0.001-1.398-1.055-1.398-1.892 0.001-2.031 0-4.005-0-6.036-0-0.373-0.001-0.688-0-1.060 0.001-0.39 0.066-0.767 0.23-1.122 0.396-0.858 1.063-1.371 1.996-1.537 0.159-0.028 0.319-0.035 0.48-0.035 2.619-0 5.121 0 7.74-0.001 0.519-0 1.005 0.115 1.447 0.392 0.662 0.415 1.061 1.011 1.21 1.776 0.033 0.168 0.045 0.337 0.045 0.508-0 2.436-0.002 5.795-0.002 7.193 0 0.682-0.365 1.816-1.382 1.816-1.476 0-9.211 0-10.366 0v0zM19.915 12.832c0.036-0.008 2.961-0.007 3.3-0.007 1.051 0 3.197 0.002 3.219-0l-6.52 0.007zM20.109 16.772h6.217v-3.563c-0.122 0-6.102 0.004-6.217 0.004v3.559zM23.216 12.825c1.051 0 3.197 0.002 3.219-0 0.16 0 0.277 0.113 0.277 0.276-0.003 1.276-0.003 2.494 0 3.77 0 0.168-0.116 0.284-0.286 0.284-2.136-0.003-4.273-0.003-6.409 0-0.167 0-0.293-0.102-0.292-0.293 0.003-1.187 0.002-2.317 0.002-3.504 0-0.094-0.002-0.188 0.001-0.281 0.004-0.124 0.083-0.245 0.189-0.245 0.149 0 2.237-0.007 3.3-0.007v0zM18.542 15.103c0.381 0 0.689 0.309 0.686 0.688-0.002 0.377-0.308 0.681-0.685 0.682-0.381 0.001-0.69-0.305-0.69-0.684s0.307-0.686 0.688-0.686zM18.027 18.141c-0.062 0-0.124 0.001-0.185-0-0.059-0.001-0.076-0.017-0.076-0.075-0.001-0.118-0.001-0.237 0-0.355 0.001-0.053 0.018-0.069 0.073-0.070 0.121-0.001 0.242-0 0.363-0.001 0.079-0 0.089-0.010 0.089-0.090 0.001-0.116-0-0.232 0.001-0.348 0.001-0.075 0.010-0.084 0.087-0.084 0.111-0.001 0.222-0.001 0.334 0 0.067 0.001 0.076 0.010 0.077 0.078 0.001 0.118-0 0.237 0 0.355 0 0.078 0.012 0.088 0.091 0.089 0.116 0 0.232-0 0.348 0 0.075 0 0.088 0.013 0.088 0.085 0.001 0.111 0.001 0.222-0 0.333-0.001 0.067-0.016 0.082-0.084 0.082-0.114 0.001-0.227 0-0.341 0-0.096 0-0.102 0.006-0.103 0.099-0 0.113 0 0.227-0 0.34-0.001 0.073-0.009 0.081-0.081 0.082-0.111 0.001-0.222 0.001-0.334 0-0.072-0-0.082-0.010-0.083-0.081-0.001-0.106-0-0.212-0-0.318 0-0.017 0.001-0.035-0-0.052-0.003-0.057-0.014-0.069-0.071-0.070-0.064-0.001-0.129-0-0.193-0v-0zM27.266 16.129c-0.177-0.001-0.319-0.145-0.318-0.323s0.144-0.318 0.323-0.317c0.179 0.001 0.318 0.142 0.317 0.322-0.001 0.178-0.144 0.318-0.322 0.317zM27.9 16.768c-0.177-0.003-0.317-0.15-0.312-0.327s0.15-0.315 0.329-0.312c0.177 0.003 0.314 0.149 0.311 0.328-0.003 0.178-0.147 0.314-0.328 0.311zM28.868 15.808c0.001 0.178-0.14 0.321-0.319 0.321-0.177 0-0.322-0.143-0.322-0.319s0.143-0.32 0.32-0.32c0.179-0 0.32 0.139 0.321 0.318zM28.228 15.173c-0.001 0.178-0.144 0.32-0.322 0.318-0.177-0.001-0.32-0.146-0.319-0.323s0.144-0.318 0.323-0.317c0.179 0.001 0.318 0.142 0.317 0.322zM27.756 21.364c-0 0.15-0.119 0.267-0.27 0.265-0.147-0.002-0.262-0.118-0.262-0.265 0-0.149 0.12-0.268 0.27-0.265 0.147 0.002 0.262 0.12 0.262 0.266zM23.227 12.272c0.128 0.002 0.231 0.106 0.229 0.232s-0.107 0.231-0.232 0.231c-0.128-0-0.237-0.11-0.233-0.238s0.108-0.227 0.236-0.225zM27.49 18.868c0.115 0 0.204 0.092 0.202 0.208-0.002 0.112-0.092 0.201-0.204 0.2s-0.201-0.090-0.202-0.202c-0.001-0.116 0.088-0.207 0.204-0.207zM27.493 18.036c0.113 0.001 0.199 0.089 0.2 0.203 0 0.116-0.090 0.205-0.206 0.203-0.113-0.002-0.2-0.089-0.2-0.203-0-0.116 0.090-0.205 0.207-0.203z"></path>
</svg>
