<!-- Generated by IcoMoon.io -->
<svg version="1.1" xmlns="http://www.w3.org/2000/svg" width="32" height="32" viewBox="0 0 32 32">
<title>nintendo-creators-program</title>
<path d="M16.095 13.899c-0.409-0.561-2.935-4.027-2.935-4.027-0.706 0.641-1.642 1.032-2.668 1.032-1.16 0-2.204-0.5-2.931-1.295l-1.909 2.565c-0.64 0.005-1.897 0.025-2.822 0.091-0.181 0.022-0.574 0.023-0.926 0.391-0.277 0.281-0.367 0.917-0.367 0.917s-0.092 0.748-0.092 1.495v0.701c0 0.747 0.092 1.495 0.092 1.495s0.090 0.637 0.367 0.917c0.351 0.368 0.813 0.356 1.019 0.395 0.739 0.071 3.142 0.093 3.142 0.093s1.942-0.003 3.235-0.096c0.181-0.021 0.575-0.023 0.926-0.391 0.277-0.28 0.367-0.917 0.367-0.917s0.092-0.748 0.092-1.495v-0.701c0-0.011-0-0.021-0-0.032 2.505-0.001 3.929-0.019 4.865-0.019 0.677-0 0.954-0.558 0.545-1.12zM5.111 16.62l-0-2.596 2.497 1.303-2.497 1.294zM16.539 19.85l-0.86-1.391h-0.621l-0 1.996h0.618v-1.392l0.865 1.392h0.616v-1.996h-0.617l0.001 1.391zM21.434 19.13v-0.197h-0.325v-0.269h-0.601l0.001 0.269h-0.327v0.197h0.326l-0 1.324h0.602l-0.001-1.324h0.325zM17.498 20.455h0.6v-1.327l-0.6-0.001v1.328zM17.497 18.866h0.601v-0.408h-0.601v0.408zM28.013 19.037c-0.484 0-0.877 0.333-0.877 0.745s0.393 0.745 0.877 0.745c0.485 0 0.877-0.333 0.877-0.745s-0.392-0.745-0.877-0.745zM28.253 20.061c0 0.211-0.125 0.299-0.245 0.299s-0.246-0.087-0.246-0.299c0-0.080 0-0.286 0-0.286s0-0.196 0-0.276c0-0.211 0.125-0.298 0.245-0.298s0.245 0.087 0.245 0.298c0 0.080 0 0.229 0.001 0.282 0 0.004-0.001 0.201-0.001 0.281zM26.349 19.193c-0.096-0.054-0.197-0.106-0.339-0.119-0.433-0.038-0.763 0.345-0.763 0.695 0 0.462 0.356 0.633 0.41 0.658 0.203 0.094 0.461 0.094 0.691-0.050 0 0.012 0 0.077 0 0.077h0.593v-1.996h-0.592c-0 0-0 0.427-0 0.734zM26.353 19.784c0 0 0 0.15 0 0.236 0 0.205-0.142 0.258-0.235 0.258-0.095 0-0.235-0.053-0.235-0.258 0-0.071 0-0.236 0-0.236s0-0.169 0-0.236c0-0.205 0.14-0.257 0.235-0.257 0.093 0 0.235 0.052 0.235 0.257 0 0.071 0 0.237 0 0.237zM19.503 19.066c-0.198 0.006-0.363 0.091-0.479 0.2-0.001-0.033 0-0.14 0-0.14l-0.596 0 0.001 1.327h0.595c0 0-0.001-0.815-0.001-0.871 0-0.116 0.122-0.244 0.285-0.244s0.274 0.129 0.274 0.244c0 0.083 0 0.871 0 0.871h0.597c0 0-0.001-0.628 0-0.722 0.003-0.525-0.452-0.672-0.677-0.666zM24.38 19.066c-0.199 0.006-0.364 0.091-0.479 0.2-0-0.033 0-0.14 0-0.14l-0.595 0-0 1.327h0.596c0 0-0-0.815-0-0.871 0-0.116 0.122-0.244 0.285-0.244s0.274 0.129 0.274 0.244c0 0.083 0 0.871 0 0.871h0.596c0 0-0.001-0.628 0-0.722 0.003-0.525-0.452-0.672-0.676-0.666zM23.124 19.797c0-0.412-0.398-0.752-0.886-0.752s-0.883 0.333-0.883 0.745c0 0.411 0.396 0.745 0.883 0.745 0.405 0 0.747-0.231 0.852-0.544l-0.598 0.001c0 0 0.001 0.006 0.001 0.080 0 0.243-0.16 0.296-0.248 0.296s-0.251-0.054-0.251-0.296c0-0.073 0.001-0.274 0.001-0.274h1.13zM22.033 19.329c0.047-0.082 0.133-0.12 0.211-0.121 0.078 0.001 0.164 0.039 0.211 0.121 0.038 0.067 0.040 0.144 0.039 0.26h-0.501c-0.001-0.116 0.001-0.194 0.040-0.26zM29.129 18.706c0-0.066-0.048-0.098-0.145-0.098h-0.134v0.34h0.083v-0.139h0.041l0.065 0.139h0.092l-0.076-0.152c0.047-0.012 0.074-0.046 0.074-0.090zM28.974 18.759h-0.041v-0.099h0.036c0.049 0 0.074 0.015 0.074 0.051 0 0.034-0.023 0.048-0.070 0.048zM28.976 18.475c-0.17 0-0.308 0.138-0.308 0.307s0.138 0.307 0.308 0.307c0.169 0 0.306-0.137 0.306-0.307s-0.137-0.307-0.306-0.307zM28.976 19.030c-0.138 0-0.249-0.111-0.249-0.248s0.111-0.249 0.249-0.249c0.137 0 0.248 0.111 0.248 0.249s-0.111 0.248-0.248 0.248zM28.306 17.341h-12.708c-1.345-0.003-2.248 0.964-2.248 2.122s0.901 2.115 2.25 2.116h12.704c1.349-0.001 2.25-0.956 2.25-2.116s-0.903-2.126-2.248-2.122zM28.301 21.059h-12.696c-1.072 0.004-1.724-0.715-1.724-1.598s0.655-1.596 1.724-1.598h12.696c1.068 0.002 1.723 0.716 1.723 1.598s-0.651 1.602-1.723 1.598zM5.124 24.407c0.139 0.16 0.334 0.075 0.334 0.075l0.885-0.395c0.472 1.048 1.179 1.995 2.095 2.733 2.147 1.73 6.019 2.169 8.891 0.561 2.848-1.595 3.473-3.765 3.473-3.765s-8.232 4.934-11.197-0.985l0.921-0.411c0 0 0.273-0.095 0.242-0.352-0.024-0.194-0.281-0.28-0.281-0.28l-3.394-1.299c0 0-0.239-0.091-0.421-0.006-0.215 0.1-0.287 0.344-0.287 0.344l-1.311 3.426c-0 0-0.099 0.181 0.052 0.354zM10.493 3.164c-1.904 0-3.447 1.543-3.447 3.447s1.543 3.447 3.447 3.447 3.447-1.543 3.447-3.447c0-1.904-1.543-3.447-3.447-3.447zM25.247 11.879c-0.098-0.188-0.308-0.151-0.308-0.151l-0.952 0.181c-0.218-1.129-0.687-2.213-1.409-3.142-1.593-2.051-4.939-3.341-7.968-2.728 0.026 0.187 0.040 0.377 0.040 0.571 0 0.634-0.143 1.236-0.399 1.774 2.563 0.013 5.432 0.829 6.226 4.19l-0.991 0.188c0 0-0.287 0.029-0.316 0.287-0.022 0.194 0.208 0.338 0.208 0.338l3.004 2.046c0 0 0.212 0.143 0.409 0.102 0.232-0.048 0.358-0.268 0.358-0.268l2.065-3.032c-0.001 0 0.137-0.153 0.031-0.356z"></path>
</svg>
