<!-- Generated by IcoMoon.io -->
<svg version="1.1" xmlns="http://www.w3.org/2000/svg" width="32" height="32" viewBox="0 0 32 32">
<title>Other_systems</title>
<path d="M17.261 8.847h-2.417c-0.747 0-1.333 0.52-1.333 1.183v3.542h-3.554c-0.747 0-1.333 0.519-1.333 1.183v2.337c0 0.685 0.635 1.31 1.333 1.31h3.554v3.415c0 0.685 0.635 1.31 1.333 1.31h2.417c0.357 0 0.691-0.167 0.916-0.458 0.184-0.238 0.286-0.54 0.286-0.852v-3.415h3.686c0.357 0 0.691-0.167 0.916-0.458 0.184-0.238 0.286-0.54 0.286-0.852v-2.337c0-0.685-0.505-1.183-1.201-1.183h-3.686v-3.542c0-0.685-0.505-1.183-1.201-1.183zM17.261 9.483c0.347 0 0.565 0.211 0.565 0.546v3.607c0 0.279 0.302 0.572 0.591 0.572h3.731c0.347 0 0.565 0.211 0.565 0.546v2.337c0 0.335-0.218 0.673-0.565 0.673h-3.731c-0.289 0-0.591 0.165-0.591 0.445v3.607c0 0.335-0.218 0.673-0.565 0.673h-2.417c-0.347 0-0.696-0.338-0.696-0.673v-3.607c0-0.279-0.171-0.445-0.46-0.445h-3.731c-0.347 0-0.696-0.338-0.696-0.673v-2.337c0-0.335 0.349-0.546 0.696-0.546h3.731c0.289 0 0.46-0.292 0.46-0.572v-3.607c0-0.335 0.349-0.546 0.696-0.546h2.417zM20.873 16.113h-2.26c-0.073 0-0.131-0.057-0.131-0.127s0.059-0.127 0.131-0.127h2.26c0.073 0 0.131 0.057 0.131 0.127s-0.059 0.127-0.131 0.127v0zM16.118 13.446c0 0.070-0.059 0.127-0.131 0.127s-0.131-0.057-0.131-0.127v-2.185c0-0.070 0.059-0.127 0.131-0.127s0.131 0.057 0.131 0.127v2.185zM16.118 20.711c0 0.070-0.059 0.127-0.131 0.127s-0.131-0.057-0.131-0.127v-2.185c0-0.070 0.059-0.127 0.131-0.127s0.131 0.057 0.131 0.127v2.185zM13.359 16.113h-2.26c-0.073 0-0.131-0.057-0.131-0.127s0.059-0.127 0.131-0.127h2.26c0.073 0 0.131 0.057 0.131 0.127s-0.059 0.127-0.131 0.127v0z"></path>
</svg>
