<!-- Generated by IcoMoon.io -->
<svg version="1.1" xmlns="http://www.w3.org/2000/svg" width="32" height="32" viewBox="0 0 32 32">
<title>phone</title>
<path d="M24.941 2.63h-17.881c-0.344 0-0.622 0.279-0.622 0.622v25.495c0 0.344 0.279 0.622 0.622 0.622h17.881c0.344 0 0.622-0.279 0.622-0.622v-25.495c0-0.344-0.278-0.622-0.622-0.622zM14.539 4.041c0-0.211 0.173-0.384 0.384-0.384h2.153c0.211 0 0.384 0.173 0.384 0.384v0.121c0 0.211-0.173 0.384-0.384 0.384h-2.153c-0.211 0-0.384-0.173-0.384-0.384v-0.121zM17.506 27.877c0 0.147-0.119 0.267-0.267 0.267h-2.48c-0.147 0-0.267-0.119-0.267-0.267v-1.337c0-0.147 0.119-0.267 0.267-0.267h2.48c0.147 0 0.267 0.119 0.267 0.267v1.337zM23.561 25.063h-15.122v-19.435h15.122v19.435zM18.383 16.497l3.367-2.004c0.276-0.165 0.367-0.524 0.203-0.801l-0.434-0.728c-0.105-0.176-0.297-0.285-0.502-0.285-0.104 0-0.207 0.028-0.298 0.082l-3.366 2.005c-0.134 0.079-0.229 0.207-0.267 0.358s-0.015 0.308 0.065 0.441l0.434 0.729c0.105 0.176 0.297 0.285 0.502 0.285 0.104 0 0.207-0.028 0.297-0.082zM22.495 15.759l-0.479-0.804-3.357 1.999 0.204 0.343c0.094 0.158 0.042 0.363-0.116 0.457l-2.468 1.47c-0.154 0.092-0.366 0.037-0.457-0.115l-0.204-0.344c-0.002 0.001-0.004 0.003-0.006 0.004l-3.35 1.995 0.479 0.804c0.37 0.622 1.1 1.040 1.815 1.040 0 0 0 0 0 0 0.306 0 0.588-0.075 0.837-0.223l6.556-3.904c0.915-0.544 1.043-1.885 0.546-2.721zM11.973 20.314l3.367-2.005c0.277-0.165 0.367-0.524 0.203-0.801l-0.434-0.728c-0.105-0.175-0.297-0.285-0.502-0.285-0.104 0-0.207 0.028-0.298 0.082l-3.366 2.005c-0.276 0.165-0.367 0.524-0.203 0.8l0.433 0.728c0.105 0.176 0.297 0.285 0.502 0.285 0.104-0 0.207-0.029 0.297-0.082zM18.672 13.071c-2.373-0.194-5.095 1.428-6.136 3.576 0 0 1.166-1.174 2.661-2.117 1.331-0.839 2.283-1.107 3.475-1.459v0zM18.799 10.947c-2.908-0.492-6.797 1.664-8.023 4.525 0 0 1.748-1.937 3.706-3.052 1.675-0.954 2.964-1.209 4.317-1.473v0zM18.97 8.898c-3.805-0.923-8.679 1.658-9.915 5.419 0 0 2.113-2.583 4.207-3.807 1.914-1.119 3.217-1.265 5.708-1.612v0z"></path>
</svg>
