<!-- Generated by IcoMoon.io -->
<svg version="1.1" xmlns="http://www.w3.org/2000/svg" width="32" height="32" viewBox="0 0 32 32">
<title>piracy</title>
<path d="M25.603 23.089l-1.091-1.091c1.199-1.697 1.907-3.766 1.907-5.998s-0.708-4.301-1.908-5.998l1.091-1.091c0.862 0.637 2.082 0.568 2.863-0.213 0.86-0.86 0.86-2.254 0-3.114-0.393-0.393-0.898-0.604-1.412-0.638-0.034-0.514-0.245-1.019-0.638-1.412-0.86-0.86-2.254-0.86-3.114 0-0.781 0.781-0.85 2.001-0.213 2.863l-1.091 1.091c-1.698-1.2-3.766-1.907-5.998-1.907s-4.301 0.708-5.998 1.907l-1.091-1.091c0.637-0.862 0.568-2.082-0.213-2.863-0.86-0.86-2.254-0.86-3.114 0-0.393 0.393-0.604 0.898-0.638 1.412-0.514 0.034-1.019 0.245-1.413 0.638-0.86 0.86-0.86 2.254 0 3.114 0.781 0.781 2.001 0.85 2.863 0.213l1.091 1.091c-1.199 1.697-1.907 3.766-1.907 5.998s0.708 4.3 1.907 5.998l-1.091 1.091c-0.862-0.637-2.082-0.568-2.863 0.213-0.86 0.86-0.86 2.254 0 3.114 0.393 0.393 0.898 0.604 1.413 0.638 0.034 0.515 0.245 1.019 0.638 1.412 0.86 0.86 2.254 0.86 3.114 0 0.781-0.781 0.85-2.001 0.213-2.863l1.091-1.091c1.697 1.2 3.766 1.908 5.998 1.908s4.301-0.708 5.998-1.908l1.091 1.091c-0.637 0.862-0.568 2.082 0.213 2.863 0.86 0.86 2.254 0.86 3.114 0 0.393-0.393 0.604-0.898 0.638-1.412 0.514-0.034 1.019-0.245 1.412-0.638 0.86-0.86 0.86-2.254 0-3.114-0.781-0.781-2.001-0.85-2.863-0.213zM24.414 13.356h-16.829c1.126-3.575 4.472-6.176 8.414-6.176s7.289 2.6 8.414 6.176zM7.18 16c0-0.476 0.039-0.943 0.112-1.399h6.394c0.031 2.307 1.917 4.175 4.231 4.175s4.199-1.868 4.231-4.175h2.559c0.073 0.456 0.112 0.923 0.112 1.399 0 4.863-3.957 8.82-8.82 8.82s-8.82-3.957-8.82-8.82z"></path>
</svg>
