<!-- Generated by IcoMoon.io -->
<svg version="1.1" xmlns="http://www.w3.org/2000/svg" width="32" height="32" viewBox="0 0 32 32">
<title>pr</title>
<path d="M24.51 18.092c-0.448 0-0.883 0.052-1.301 0.148l-3.342-5.789c1.207-1.066 1.969-2.623 1.969-4.359 0-3.212-2.604-5.816-5.816-5.816s-5.815 2.604-5.815 5.816c0 1.624 0.666 3.092 1.74 4.147-0.001-0.001-0.002-0.002-0.003-0.003l-3.433 5.947c0.001 0 0.001 0 0.002 0.001-0.331-0.059-0.671-0.091-1.019-0.091-3.212 0-5.816 2.604-5.816 5.816s2.604 5.816 5.816 5.816c2.941 0 5.37-2.184 5.759-5.018 0 0.001 0 0.002-0 0.003h5.5c-0-0.001-0-0.002-0-0.003 0.389 2.834 2.819 5.018 5.76 5.018 3.211 0 5.816-2.604 5.816-5.816s-2.604-5.815-5.816-5.815zM16.232 5.933c0.626-0.38 1.372-0.492 2.088-0.493l0.001-0.604c0 0 0.002-0.133 0.129-0.171 0.137-0.041 0.214 0.061 0.214 0.061l1.613 1.621c0 0 0.12 0.103 0.122 0.251 0.002 0.125-0.111 0.238-0.111 0.238l-1.606 1.598c0 0-0.115 0.124-0.231 0.088-0.154-0.048-0.138-0.227-0.138-0.227l0.002-0.629c-0.23-0.047-0.45-0.059-0.661-0.046-0.046 0.003-0.091 0.006-0.136 0.011-0.005 0.001-0.011 0.001-0.016 0.002-0.31 0.037-0.597 0.131-0.858 0.257-0.001 0.001-0.003 0.001-0.004 0.002-0.042 0.021-0.084 0.042-0.125 0.064-0.003 0.001-0.005 0.003-0.008 0.004-0.041 0.022-0.081 0.045-0.12 0.069-0.002 0.001-0.003 0.002-0.004 0.003-0.328 0.198-0.608 0.443-0.833 0.678-0 0-0 0-0 0-0.028 0.029-0.055 0.058-0.081 0.087-0.001 0.001-0.002 0.002-0.002 0.002-0.183 0.201-0.325 0.389-0.421 0.527-0.001 0.002-0.003 0.004-0.004 0.006-0.012 0.017-0.022 0.033-0.033 0.048-0.003 0.004-0.005 0.008-0.008 0.011-0.009 0.014-0.018 0.027-0.026 0.039-0.003 0.004-0.006 0.009-0.009 0.014-0.007 0.011-0.014 0.021-0.020 0.030-0.003 0.004-0.005 0.009-0.008 0.013-0.005 0.008-0.010 0.016-0.015 0.023-0.002 0.004-0.004 0.007-0.006 0.010-0.004 0.006-0.007 0.012-0.010 0.017-0.001 0.002-0.002 0.004-0.004 0.006-0.002 0.004-0.004 0.008-0.006 0.010-0.002 0.003-0.003 0.006-0.003 0.006s-0.001-0.002-0.002-0.007c-0.001-0.003-0.002-0.008-0.003-0.013-0.001-0.002-0.001-0.003-0.001-0.005-0.002-0.008-0.004-0.017-0.006-0.028-0-0.001-0-0.002-0.001-0.003-0.002-0.011-0.005-0.024-0.007-0.039-0-0.001-0-0.002-0.001-0.003-0.003-0.015-0.006-0.032-0.009-0.050-0-0.001-0-0.002-0.001-0.003-0.003-0.019-0.006-0.039-0.010-0.061 0-0-0-0.001-0-0.001-0.094-0.619-0.217-2.449 1.376-3.416zM12.853 6.804c0-0.375 0.305-0.68 0.681-0.68h1.637c-1.291 1.434-0.818 3.465-0.793 3.564 0.052 0.212 0.228 0.371 0.444 0.402 0.025 0.003 0.049 0.005 0.074 0.005 0.19 0 0.368-0.101 0.463-0.27 0.009-0.015 0.925-1.575 2.315-1.668v2.108c0 0.375-0.305 0.681-0.68 0.681h-3.461c-0.375 0-0.681-0.305-0.681-0.681v-3.46zM9.652 26.227c0 0 0.341 0.236 0.251 0.623-0.187 0.8-1.277 0.937-2.621 0.937-1.54 0-3.107-0.92-3.107-2.753 0-1.821 1.296-2.461 1.732-2.922 0.179-0.191 0.693-0.679 0.664-1.692-0.012-0.404 0.216-0.793 0.684-0.793 0.431 0 0.828 0.321 0.911 0.9 0.092 0.648-0.389 1.593-0.258 1.584 0.919-0.071 1.636 0.029 1.803 0.575 0.095 0.305-0.254 0.737-0.254 0.737s0.585 0.213 0.585 0.694c0 0.492-0.405 0.694-0.405 0.694s0.531 0.194 0.531 0.691c0 0.529-0.515 0.725-0.515 0.725zM18.75 23.111c0-0.001 0-0.002 0-0.003h-5.5c0 0.001 0 0.002 0 0.003-0.267-1.945-1.494-3.582-3.188-4.419l3.172-5.494c-0.001-0.001-0.003-0.002-0.004-0.002 0.828 0.454 1.779 0.712 2.79 0.712 0.9 0 1.752-0.204 2.512-0.569-0 0-0 0-0 0l3.164 5.481c-1.568 0.869-2.691 2.442-2.945 4.292zM28.167 23.271c0 0.802-0.837 2.773-3.658 4.251-3.664-1.76-3.66-4.294-3.66-4.294 0-1.011 0.819-1.83 1.83-1.83s1.83 0.819 1.83 1.83c0-1.011 0.819-1.83 1.83-1.83s1.83 0.819 1.83 1.83c0 0 0 0.016-0.002 0.043z"></path>
</svg>
