<!-- Generated by IcoMoon.io -->
<svg version="1.1" xmlns="http://www.w3.org/2000/svg" width="32" height="32" viewBox="0 0 32 32">
<title>products-games</title>
<path d="M10.11 19.162c0 0.873-0.708 1.581-1.582 1.581s-1.581-0.708-1.581-1.581c0-0.872 0.708-1.581 1.581-1.581s1.582 0.708 1.582 1.581zM21.196 13.059h-10.424c-0.57 0-1.033-0.469-1.033-1.046v-5.261c0-0.577 0.463-1.046 1.033-1.046h10.424c0.57 0 1.034 0.469 1.034 1.046v5.261c0 0.577-0.464 1.046-1.034 1.046zM10.772 6.735l-0.005 5.279 10.427 0.018 0.009-5.279-10.43-0.018zM25.537 19.162c0 0.376-0.304 0.679-0.679 0.679-0.376 0-0.681-0.303-0.681-0.679s0.305-0.68 0.681-0.68c0.375 0 0.679 0.304 0.679 0.68zM22.785 19.162c0 0.376-0.305 0.679-0.68 0.679s-0.68-0.303-0.68-0.679c0-0.376 0.305-0.68 0.68-0.68s0.68 0.304 0.68 0.68zM23.482 21.217c-0.376 0-0.68-0.304-0.68-0.679s0.304-0.68 0.68-0.68c0.375 0 0.68 0.305 0.68 0.68s-0.305 0.679-0.68 0.679zM23.482 18.466c-0.376 0-0.68-0.305-0.68-0.68 0-0.376 0.304-0.68 0.68-0.68 0.375 0 0.68 0.304 0.68 0.68 0 0.375-0.305 0.68-0.68 0.68zM13.642 28.566h-3.658c-0.071 0-0.138-0.028-0.188-0.078l-0.588-0.587c-0.050-0.050-0.078-0.118-0.078-0.189v-4.027c0-0.24 0.195-0.435 0.435-0.435h4.077c0.24 0 0.435 0.195 0.435 0.435v4.446c0 0.24-0.195 0.435-0.435 0.435zM10.094 28.033h3.449v-4.249h-3.88v3.819l0.431 0.431zM24.882 2.845h-17.764c-1.66 0-3.011 1.35-3.011 3.011v17.764c0 1.66 1.351 3.011 3.011 3.011h0.167v1.41c0 1.3 1.057 2.358 2.357 2.358h4.824c0.788 0 1.429-0.642 1.429-1.43v-2.338h8.988c1.661 0 3.011-1.351 3.011-3.011v-17.765c-0-1.661-1.351-3.011-3.011-3.011zM15.207 23.96c0 0.102-0.083 0.185-0.186 0.185h-0.186c-0.099 0-0.181 0.080-0.185 0.179v4.645c0 0.101-0.083 0.186-0.185 0.186h-4.824c-0.611 0-1.113-0.501-1.113-1.114v-5.194c0-0.013 0.001-0.026 0.004-0.038 0.017-0.084 0.092-0.148 0.182-0.148h6.306c0.103 0 0.186 0.084 0.186 0.186v1.113zM16.444 22.705c-0.071-0.722-0.683-1.288-1.423-1.288h-2.663l0.004-3.622 7.267-0.020 0.008 4.918c0 0-0.004 0.004-0.013 0.004l-3.179 0.008zM26.313 23.62c0 0.789-0.642 1.43-1.431 1.43h-8.94c0.31-0.262 0.509-0.653 0.509-1.090v-0.236h3.172c0.57 0 1.033-0.452 1.033-1.008v-4.941c0-0.556-0.463-1.008-1.033-1.008h-7.262c-0.57 0-1.033 0.452-1.033 1.008v3.642h-2.613c-0.674 0-1.262 0.477-1.4 1.135-0.020 0.096-0.031 0.195-0.031 0.295v2.203h-0.167c-0.788 0-1.429-0.641-1.429-1.43v-8.094h20.624v8.094zM26.313 14.34h-20.624v-8.484c0-0.788 0.641-1.43 1.429-1.43h17.764c0.788 0 1.431 0.642 1.431 1.43v8.484z"></path>
</svg>
