<!-- Generated by IcoMoon.io -->
<svg version="1.1" xmlns="http://www.w3.org/2000/svg" width="32" height="32" viewBox="0 0 32 32">
<title>switchMobile</title>
<path d="M25.347 11.711h-1.546c-0.014 0-0.026 0.002-0.038 0.005v-0.005l-15.466 0.008c-0.015-0.004-0.030-0.008-0.047-0.008h-1.546c-1.158 0-2.097 0.939-2.097 2.097v5.716c0 1.158 0.939 2.098 2.097 2.098h1.546c0.016 0 0.032-0.003 0.047-0.008v0.008l15.466-0.005c0.012 0.003 0.025 0.005 0.038 0.005h1.546c1.158 0 2.097-0.94 2.097-2.098v-5.716c0-1.158-0.939-2.097-2.097-2.097zM6.831 13.287c0.484 0 0.877 0.392 0.877 0.877s-0.393 0.877-0.877 0.877-0.877-0.393-0.877-0.877 0.393-0.877 0.877-0.877zM7.227 16.56c0 0.219-0.177 0.396-0.396 0.396s-0.396-0.177-0.396-0.396c0-0.219 0.177-0.396 0.396-0.396s0.396 0.177 0.396 0.396zM6.074 17.713c-0.219 0-0.396-0.177-0.396-0.396s0.177-0.397 0.396-0.397 0.396 0.178 0.396 0.397-0.177 0.396-0.396 0.396zM6.831 18.469c-0.219 0-0.396-0.177-0.396-0.396s0.177-0.397 0.396-0.397 0.396 0.177 0.396 0.397c0 0.219-0.177 0.396-0.396 0.396zM7.587 17.713c-0.219 0-0.396-0.177-0.396-0.396s0.177-0.397 0.396-0.397c0.219 0 0.396 0.178 0.396 0.397s-0.178 0.396-0.396 0.396zM23.007 20.545h-13.953v-7.757h13.953v7.757zM25.222 13.258c0.218 0 0.396 0.177 0.396 0.396s-0.178 0.397-0.396 0.397c-0.219 0-0.397-0.178-0.397-0.397s0.178-0.396 0.397-0.396zM25.617 15.167c0 0.219-0.178 0.396-0.396 0.396-0.219 0-0.397-0.177-0.397-0.396s0.178-0.396 0.397-0.396c0.218 0 0.396 0.177 0.396 0.396zM24.069 14.411c0-0.218 0.177-0.396 0.396-0.396s0.397 0.178 0.397 0.396c0 0.219-0.177 0.396-0.397 0.396s-0.396-0.178-0.396-0.396zM25.222 18.441c-0.484 0-0.877-0.392-0.877-0.877s0.393-0.877 0.877-0.877 0.878 0.393 0.878 0.877c0 0.485-0.393 0.877-0.878 0.877zM25.978 14.807c-0.219 0-0.396-0.178-0.396-0.396s0.177-0.396 0.396-0.396c0.219 0 0.396 0.178 0.396 0.396s-0.178 0.396-0.396 0.396z"></path>
</svg>
