<!-- Generated by IcoMoon.io -->
<svg version="1.1" xmlns="http://www.w3.org/2000/svg" width="32" height="32" viewBox="0 0 32 32">
<title>switchAttachedJoy</title>
<path d="M20.476 9.171h-1.246c-0.13 0-0.236 0.106-0.236 0.236v13.184c0 0.131 0.106 0.236 0.236 0.236h1.246c1.596 0 2.89-1.293 2.89-2.889v-7.877c0-1.597-1.293-2.89-2.89-2.89zM21.673 13.476c0 0.271-0.221 0.491-0.493 0.491-0.27 0-0.49-0.22-0.49-0.491s0.22-0.492 0.49-0.492c0.272 0 0.493 0.221 0.493 0.492zM21.673 15.352c0 0.272-0.221 0.491-0.493 0.491-0.27 0-0.49-0.219-0.49-0.491s0.22-0.491 0.49-0.491c0.272 0 0.493 0.221 0.493 0.491zM19.657 10.604h0.622v-0.622h0.497v0.622h0.622v0.497h-0.622v0.621h-0.497v-0.621h-0.622v-0.497zM19.751 14.414c0-0.271 0.22-0.492 0.491-0.492s0.491 0.221 0.491 0.492-0.22 0.491-0.491 0.491-0.491-0.22-0.491-0.491zM21.181 19.015c-0.602 0-1.088-0.487-1.088-1.088s0.486-1.088 1.088-1.088c0.599 0 1.087 0.487 1.087 1.088s-0.487 1.088-1.087 1.088zM22.12 14.905c-0.273 0-0.493-0.22-0.493-0.491s0.22-0.492 0.493-0.492c0.27 0 0.491 0.221 0.491 0.492s-0.221 0.491-0.491 0.491zM12.988 9.171h-1.246c-1.596 0-2.89 1.294-2.89 2.89v7.877c0 1.596 1.293 2.889 2.89 2.889h1.246c0.13 0 0.237-0.105 0.237-0.236v-13.184c0-0.13-0.107-0.236-0.237-0.236zM11.039 12.984c0.601 0 1.088 0.487 1.088 1.087s-0.487 1.088-1.088 1.088-1.088-0.487-1.088-1.088c0-0.6 0.487-1.087 1.088-1.087zM11.529 16.647c0 0.272-0.22 0.491-0.491 0.491s-0.491-0.22-0.491-0.491 0.22-0.491 0.491-0.491c0.271 0 0.491 0.22 0.491 0.491zM10.1 18.077c-0.271 0-0.491-0.22-0.491-0.491s0.22-0.491 0.491-0.491 0.491 0.221 0.491 0.491c0 0.272-0.22 0.491-0.491 0.491zM11.039 19.014c-0.271 0-0.491-0.22-0.491-0.491s0.22-0.492 0.491-0.492 0.491 0.221 0.491 0.492c0 0.271-0.22 0.491-0.491 0.491zM11.976 18.077c-0.27 0-0.49-0.22-0.49-0.491s0.22-0.491 0.49-0.491c0.273 0 0.492 0.221 0.492 0.491s-0.22 0.491-0.492 0.491zM12.576 11.101h-1.739v-0.497h1.739v0.497zM18.449 9.421c0-0.137-0.111-0.249-0.249-0.249h-4.179c-0.138 0-0.249 0.112-0.249 0.249v13.158c0 0.137 0.111 0.249 0.249 0.249h4.179c0.138 0 0.249-0.111 0.249-0.249v-13.158zM8.306 19.938v-7.877c0-0.232 0.024-0.458 0.067-0.677-0.072 0.080-0.143 0.163-0.207 0.251-0.32 0.433-0.549 0.936-0.738 1.437-0.133 0.349-0.245 0.706-0.344 1.065-0.073 0.266-0.148 0.563-0.207 0.831l-0.64 2.861c-0.049 0.225-0.092 0.451-0.13 0.678-0.050 0.287-0.085 0.575-0.113 0.864-0.027 0.291-0.042 0.582-0.037 0.874 0.004 0.287 0.022 0.581 0.079 0.864 0.058 0.285 0.137 0.565 0.275 0.822 0.141 0.26 0.332 0.484 0.583 0.645 0.235 0.151 0.516 0.236 0.795 0.25 0.031 0.001 0.062 0.002 0.092 0.002 0.287-0.003 0.566-0.085 0.814-0.232 0.197-0.118 0.373-0.273 0.527-0.443-0.507-0.599-0.814-1.371-0.814-2.216zM23.913 19.938v-7.877c0-0.232-0.023-0.458-0.067-0.677 0.073 0.080 0.143 0.163 0.209 0.251 0.32 0.433 0.548 0.936 0.738 1.437 0.132 0.349 0.244 0.706 0.343 1.065 0.073 0.266 0.147 0.563 0.208 0.831l0.64 2.861c0.051 0.225 0.092 0.451 0.131 0.678 0.049 0.287 0.085 0.575 0.113 0.864 0.028 0.291 0.041 0.582 0.038 0.874-0.004 0.287-0.022 0.581-0.080 0.864-0.058 0.285-0.136 0.565-0.275 0.822-0.14 0.26-0.332 0.484-0.582 0.645-0.236 0.151-0.516 0.236-0.795 0.25-0.031 0.001-0.061 0.002-0.093 0.002-0.287-0.003-0.566-0.085-0.812-0.232-0.197-0.118-0.373-0.273-0.528-0.443 0.506-0.599 0.812-1.371 0.812-2.216z"></path>
</svg>
