<!-- Generated by IcoMoon.io -->
<svg version="1.1" xmlns="http://www.w3.org/2000/svg" width="32" height="32" viewBox="0 0 32 32">
<title>switchJoycons</title>
<path d="M14.784 8.952h-2.372c-1.647 0-2.983 1.335-2.983 2.982v8.13c0 1.648 1.336 2.983 2.983 2.983h2.371c0.039 0 0.070-0.032 0.070-0.070v-13.955c0-0.039-0.032-0.070-0.070-0.070zM12.142 11.193c0.689 0 1.247 0.558 1.247 1.247 0 0.688-0.558 1.246-1.247 1.246s-1.247-0.558-1.247-1.246c0-0.689 0.558-1.247 1.247-1.247zM10.946 17.489c-0.311 0-0.564-0.253-0.564-0.563 0-0.312 0.253-0.564 0.564-0.564s0.564 0.253 0.564 0.564c0 0.31-0.252 0.563-0.564 0.563zM12.142 18.685c-0.311 0-0.564-0.253-0.564-0.564s0.252-0.564 0.564-0.564c0.312 0 0.564 0.253 0.564 0.564s-0.253 0.564-0.564 0.564zM12.142 16.293c-0.311 0-0.564-0.253-0.564-0.564s0.252-0.564 0.564-0.564c0.312 0 0.564 0.252 0.564 0.564s-0.253 0.564-0.564 0.564zM13.338 17.489c-0.312 0-0.564-0.253-0.564-0.563 0-0.312 0.252-0.564 0.564-0.564s0.563 0.252 0.563 0.564c-0 0.31-0.252 0.563-0.563 0.563zM19.307 8.952h-2.373c-0.039 0-0.070 0.031-0.070 0.070v13.955c0 0.039 0.032 0.070 0.070 0.070h2.371c1.648 0 2.983-1.336 2.983-2.983v-8.129c0-1.648-1.335-2.983-2.982-2.983zM19.577 11.032c0.311 0 0.564 0.252 0.564 0.564s-0.253 0.564-0.564 0.564-0.564-0.253-0.564-0.564c0-0.312 0.252-0.564 0.564-0.564zM19.577 13.424c0.311 0 0.564 0.253 0.564 0.564s-0.253 0.564-0.564 0.564-0.564-0.253-0.564-0.564c0-0.311 0.252-0.564 0.564-0.564zM17.817 12.793c0-0.312 0.253-0.565 0.564-0.565s0.564 0.253 0.564 0.565c0 0.311-0.252 0.564-0.564 0.564s-0.564-0.253-0.564-0.564zM19.577 18.524c-0.689 0-1.248-0.558-1.248-1.248s0.558-1.247 1.248-1.247c0.688 0 1.247 0.558 1.247 1.247s-0.558 1.248-1.247 1.248zM20.774 13.355c-0.312 0-0.564-0.253-0.564-0.563 0-0.311 0.252-0.564 0.564-0.564s0.563 0.253 0.563 0.564c0 0.31-0.253 0.563-0.563 0.563z"></path>
</svg>
