<!-- Generated by IcoMoon.io -->
<svg version="1.1" xmlns="http://www.w3.org/2000/svg" width="32" height="32" viewBox="0 0 32 32">
<title>uniE628</title>
<path d="M9.442 5.585c-0.005-0.018-0.018-0.033-0.034-0.042l-4.911-2.429c-0.030-0.018-0.069-0.013-0.094 0.012l-1.442 1.442c-0.025 0.025-0.030 0.064-0.012 0.094l2.429 4.911c0.009 0.016 0.024 0.028 0.042 0.034l3.265 0.855 9.080 9.080-0.449 0.449c-0.217 0.216-0.412 0.429-0.55 0.598-0.226 0.275-0.196 0.306-0.18 0.322l0.676 0.675c0.004 0.005 0.013 0.011 0.027 0.011 0.1 0 0.524-0.373 0.892-0.74l0.070-0.070 0.183 0.183-0.070 0.070c-0.473 0.473-0.473 1.243 0 1.716l5.925 5.924c0.229 0.23 0.534 0.355 0.858 0.355s0.629-0.126 0.858-0.356l2.496-2.496c0.473-0.473 0.473-1.243 0-1.716l-5.925-5.925c-0.229-0.229-0.534-0.355-0.858-0.356s-0.629 0.126-0.858 0.356l-0.058 0.058-0.183-0.183 0.058-0.057c0.216-0.217 0.412-0.429 0.55-0.598 0.227-0.276 0.196-0.306 0.18-0.322l-0.676-0.676c-0.004-0.004-0.013-0.011-0.027-0.010-0.1 0-0.525 0.373-0.893 0.74l-0.437 0.437-9.080-9.080-0.855-3.265zM15.657 13.206l2.873 2.873 1.567-1.859c0.763 0.37 2.028 1.026 2.84 1.027 0.85-0.001 1.664-0.231 2.355-0.666 1.527-0.964 3.137-3.295 3.753-5.432 0.015-0.044 0.023-0.091 0.023-0.14-0-0.242-0.196-0.438-0.437-0.438-0 0-0.001-0.001-0.001-0.001-0.004 0-0.009 0.001-0.012 0.001-0.084 0.002-0.161 0.028-0.227 0.071l-3.338 2.104-2.911-1.532-0.128-3.287 3.249-2.049c0.155-0.098 0.233-0.281 0.195-0.46s-0.182-0.316-0.363-0.343c-0.474-0.072-0.978-0.108-1.497-0.108h-0c-1.838 0-3.757 0.461-4.888 1.174-1.164 0.734-1.905 1.974-2.086 3.492-0.135 1.13 0.506 2.766 0.989 3.875l-1.955 1.699zM12.86 15.637l-8.908 7.743c-0.651 0.63-1.013 1.47-1.020 2.367-0.007 0.876 0.328 1.697 0.943 2.313 0.603 0.602 1.403 0.934 2.255 0.934 0.897 0 1.77-0.381 2.395-1.045l7.614-9.033-3.279-3.279zM7.623 27.259c-0.812 0.811-2.127 0.812-2.939-0s-0.811-2.127 0-2.938c0.812-0.812 2.128-0.811 2.939 0s0.811 2.127 0 2.938z"></path>
</svg>
