<!-- Generated by IcoMoon.io -->
<svg version="1.1" xmlns="http://www.w3.org/2000/svg" width="32" height="32" viewBox="0 0 32 32">
<title>uniE627</title>
<path d="M21.030 4.982c-0.106-0.012-0.146-0.043-0.211-0.102-4.061-3.552-9.823-3.849-12.216-2.708-3.843 1.831-4.526 4.507-2.139 7.971 0.052 0.075 0.048 0.174-0.069 0.226-1.321 0.583-2.902 1.59-3.758 2.449-0.571 0.572-0.623 0.916-0.090 1.516 0.557 0.626 2.489 2.154 5.508 3.543 4.254 1.959 8.247 1.414 11.827-0.093 0.105-0.045 0.195-0.045 0.299-0.015 2.799 0.822 5.363 0.391 7.441-0.933 2.388-1.521 2.777-4.627 1.449-7.248-1.208-2.383-4.383-4.181-8.040-4.606zM13.977 13.778v0c-0.024 0.018-0.051 0.028-0.083 0.028-0.028 0-0.054-0.010-0.076-0.024l-4.974-3.196c-0.228-0.188-0.572-1.032-0.745-1.608-0.141-0.47-0.259-1.696 0.176-2.354 0.463-0.699 1.185-0.745 1.521-0.688s1.247 0.176 2.429 1.229c1.184 1.052 2.029 2.348 2.438 3.747 0.392 1.347-0.027 2.357-0.685 2.866zM12.281 8.223l-1.449 0.883-0.82-2.174c0 0-1.1 1.308-1.389 2.325l0.722 1.247c0 0 0.443-1.601 0.594-1.886l0.681 1.618 1.166-0.512c0 0 0.616 2.607 0.909 2.848l1.008-0.128c0 0-1.063-3.040-1.422-4.222zM8.801 28.223c-0.19 0-0.367 0.065-0.505 0.175-0.008 0.003-0.017 0.004-0.027 0.003-0.019-0.005-0.032-0.020-0.035-0.038-0.001-0.006-0.001-0.012 0.001-0.018 0 0-0.001 0-0.001-0.001v-0.001c0-0.036-0.029-0.066-0.065-0.066h-0.53c-0.036 0-0.066 0.029-0.066 0.066v1.965c0 0.036 0.030 0.065 0.066 0.065h0.557c0.036 0 0.065-0.029 0.065-0.065v-1.031c0-0.413 0.14-0.496 0.366-0.496 0.175 0 0.292 0.070 0.292 0.417v1.11c0 0.036 0.028 0.065 0.065 0.065h0.558c0.035 0 0.066-0.029 0.066-0.065v-1.209c-0-0.407-0.093-0.876-0.807-0.876zM12.489 28.223c-0.191 0-0.367 0.065-0.505 0.175-0.007 0.003-0.017 0.004-0.027 0.003-0.018-0.005-0.031-0.020-0.034-0.038-0.001-0.006-0.001-0.012 0.001-0.018 0 0-0.001 0-0.001-0.001v-0.001c0-0.036-0.030-0.066-0.067-0.066h-0.529c-0.036 0-0.067 0.029-0.067 0.066v1.965c0 0.036 0.030 0.065 0.067 0.065h0.556c0.036 0 0.065-0.029 0.065-0.065v-1.031c0-0.413 0.141-0.496 0.366-0.496 0.175 0 0.292 0.070 0.292 0.417v1.11c0 0.036 0.030 0.065 0.066 0.065h0.558c0.035 0 0.065-0.029 0.065-0.065v-1.209c-0-0.407-0.093-0.876-0.807-0.876zM19.135 28.223c-0.19 0-0.366 0.065-0.505 0.175-0.007 0.003-0.016 0.004-0.026 0.003-0.018-0.005-0.031-0.020-0.034-0.038-0.001-0.006-0.001-0.012 0.001-0.018 0 0-0 0-0.001-0.001v-0.001c0-0.036-0.030-0.066-0.066-0.066h-0.529c-0.036 0-0.067 0.029-0.067 0.066v1.965c0 0.036 0.031 0.065 0.067 0.065h0.557c0.035 0 0.065-0.029 0.065-0.065v-1.031c0-0.413 0.141-0.496 0.366-0.496 0.175 0 0.292 0.070 0.292 0.417v1.11c0 0.036 0.028 0.065 0.065 0.065h0.558c0.036 0 0.066-0.029 0.066-0.065v-1.209c-0.001-0.407-0.093-0.876-0.808-0.876zM14.673 28.754h0.309c0.036 0 0.066-0.030 0.066-0.065v-0.361c0-0.036-0.029-0.066-0.066-0.066h-0.306c-0.021-0.005-0.037-0.025-0.035-0.046 0 0-0.001 0-0.001-0.001v-0.477c0-0.036-0.029-0.065-0.065-0.065h-0.556c-0.037 0-0.066 0.029-0.066 0.065v0.491c-0.006 0.020-0.023 0.033-0.044 0.033h-0.229c-0.036 0-0.065 0.029-0.065 0.066v0.361c0 0.036 0.029 0.065 0.065 0.065h0.231c0.019 0 0.036 0.013 0.042 0.032v1.061c0 0.478 0.402 0.533 0.705 0.533 0.143 0 0.253-0.007 0.335-0.020 0.032-0.005 0.055-0.033 0.055-0.065v-0.422c0-0.018-0.009-0.037-0.024-0.049-0.014-0.013-0.035-0.018-0.054-0.015-0.050 0.011-0.099 0.015-0.16 0.015-0.153 0-0.171-0.018-0.171-0.163v-0.868c0.002-0.018 0.016-0.034 0.034-0.040zM20.335 29.32c0 0.758 0.47 1.103 0.905 1.103 0.219 0 0.399-0.047 0.533-0.136v0c0.020-0.017 0.049-0.016 0.066 0.003 0.008 0.008 0.011 0.018 0.013 0.028 0.005 0.029 0.032 0.050 0.063 0.050h0.53c0.036 0 0.065-0.029 0.065-0.065v-2.538c0-0.037-0.029-0.065-0.065-0.065h-0.557c-0.036 0-0.066 0.029-0.066 0.065v0.563c-0.001 0.020-0.015 0.039-0.036 0.043-0.011 0.002-0.021 0.001-0.030-0.004-0.139-0.095-0.316-0.148-0.517-0.148-0.435-0-0.905 0.344-0.905 1.099zM21.023 29.323c0-0.273 0.108-0.566 0.41-0.566s0.409 0.292 0.409 0.566c0 0.273-0.108 0.562-0.409 0.562s-0.41-0.289-0.41-0.562zM27.993 26.234c0 0.521-0.426 0.948-0.949 0.948-0.526 0-0.951-0.427-0.951-0.948 0-0.526 0.425-0.95 0.951-0.95 0.523 0 0.949 0.424 0.949 0.95zM14.096 20.96h-1.201c-0.076 0-0.14 0.063-0.14 0.139v5.836c0 0.076 0.064 0.14 0.14 0.14h1.201c0.076 0 0.139-0.064 0.139-0.14v-5.836c0-0.077-0.063-0.139-0.139-0.139zM19.585 22.569h-1.2c-0.077 0-0.142 0.063-0.142 0.14v2.215c0 0.892-0.3 1.069-0.787 1.069-0.376 0-0.628-0.151-0.628-0.896v-2.388c0-0.077-0.062-0.14-0.139-0.14h-1.198c-0.078 0-0.141 0.063-0.141 0.14v2.6c0 0.876 0.197 1.881 1.735 1.881 0.397 0 0.763-0.128 1.060-0.353l0.059-0.021c0.052 0 0.095 0.039 0.1 0.089v0.031c0 0.076 0.063 0.14 0.142 0.14h1.14c0.077 0 0.138-0.064 0.138-0.14v-4.226c0-0.077-0.061-0.14-0.138-0.14zM23.574 22.455c-0.43 0-0.814 0.114-1.108 0.32l-0.067 0.006c-0.043-0.010-0.077-0.052-0.077-0.095v-1.587c0-0.077-0.064-0.139-0.142-0.139h-1.198c-0.079 0-0.14 0.063-0.14 0.139v5.836c0 0.076 0.061 0.14 0.14 0.14h1.14c0.066 0 0.122-0.046 0.136-0.108l0.026-0.061c0.037-0.039 0.101-0.044 0.142-0.005h0.001c0.29 0.189 0.675 0.29 1.146 0.29 0.935 0 1.949-0.743 1.949-2.373 0-1.625-1.014-2.363-1.949-2.363zM23.161 26.034c-0.65 0-0.881-0.625-0.881-1.208 0-0.589 0.231-1.217 0.881-1.217 0.649 0 0.881 0.628 0.881 1.217 0 0.584-0.232 1.208-0.881 1.208zM11.608 25.2c-0.025-0.031-0.065-0.048-0.106-0.048h-1.135c-0.069 0-0.129 0.051-0.138 0.119-0.040 0.281-0.198 0.75-0.797 0.75-0.799 0-0.898-1.009-0.898-1.211 0-0.208 0.1-1.252 0.921-1.252 0.423 0 0.669 0.21 0.733 0.619 0.010 0.069 0.069 0.119 0.139 0.119h1.152c0.039 0 0.075-0.016 0.103-0.046 0.026-0.027 0.041-0.065 0.036-0.104-0.080-1.215-1.141-1.758-2.155-1.758-1.414 0-2.389 0.968-2.389 2.463 0 1.378 1.010 2.338 2.366 2.338 1.225 0 2.049-0.701 2.204-1.879 0.005-0.041-0.008-0.082-0.036-0.111zM10.781 27.744v0.444c0 0.038-0.030 0.068-0.065 0.068h-0.559c-0.034 0-0.064-0.029-0.064-0.068v-0.444c0-0.035 0.030-0.067 0.064-0.067h0.559c0.035 0 0.065 0.032 0.065 0.067zM10.716 28.532h-0.559c-0.034 0-0.064 0.031-0.064 0.067v1.708c0 0.036 0.030 0.066 0.064 0.066h0.559c0.035 0 0.065-0.030 0.065-0.066v-1.708c0-0.036-0.030-0.067-0.065-0.067zM23.987 28.215c-0.669 0-1.117 0.445-1.117 1.106s0.448 1.102 1.117 1.102c0.669 0 1.119-0.441 1.119-1.102 0-0.671-0.439-1.106-1.119-1.106zM23.987 29.884c-0.372 0-0.427-0.351-0.427-0.563 0-0.259 0.073-0.566 0.427-0.566s0.429 0.307 0.429 0.566c0 0.259-0.074 0.563-0.429 0.563zM17.234 28.523c-0.189-0.201-0.449-0.307-0.756-0.307-0.641 0-1.107 0.467-1.107 1.106 0 0.66 0.446 1.102 1.107 1.102 0.514 0 0.855-0.236 1.013-0.708 0 0 0.014-0.036-0.002-0.062-0.018-0.029-0.050-0.025-0.050-0.025h-0.501c-0.028 0-0.053 0.021-0.064 0.049-0.036 0.113-0.221 0.207-0.425 0.207-0.244 0-0.433-0.149-0.437-0.389 0 0 0.001-0.016 0.008-0.028s0.029-0.017 0.029-0.017h1.416c0.036 0 0.063-0.028 0.066-0.062 0.001-0.032 0.002 0.001 0.002-0.032 0-0.328-0.108-0.627-0.3-0.834zM16.825 29.074h-0.754c-0.040 0-0.059-0.024-0.057-0.053l0.002-0.018c0.030-0.125 0.196-0.278 0.45-0.278 0.186 0 0.387 0.113 0.414 0.286v0.010c0.003 0.029-0.016 0.053-0.054 0.053zM26.813 28.14h-0.116v-0.505h-0.159v-0.092h0.433v0.092h-0.159v0.505zM27.623 28.14h-0.11v-0.523l-0.166 0.523h-0.056l-0.166-0.523v0.523h-0.088v-0.597h0.168l0.125 0.384 0.123-0.384h0.169v0.597z"></path>
</svg>
