<!-- Generated by IcoMoon.io -->
<svg version="1.1" xmlns="http://www.w3.org/2000/svg" width="32" height="32" viewBox="0 0 32 32">
<title>uniE623</title>
<path d="M11.010 5.235h-4.932c-0.288 0-0.47 0.115-0.652 0.413 0 0-2.927 5.268-3.117 5.552s0.007 0.729 0.364 0.729h2.785v9.649c0 0.283 0.229 0.512 0.512 0.512h5.039c0.283 0 0.512-0.23 0.512-0.512v-15.83c-0-0.283-0.23-0.512-0.512-0.512zM28.525 5.286h-15.682c0.037 0.148 0.059 0.302 0.059 0.461v0.85h15.552v13.67h-1.283v-11.148c0-0.684-0.555-1.239-1.239-1.239h-13.029v1.311h12.958v13.67h-1.283v-11.147c0-0.685-0.555-1.239-1.239-1.239h-10.436v1.311h10.364v13.67h-19.324v-12.146h-1.268c-0.015 0-0.029-0.003-0.043-0.003v12.221c0 0.685 0.555 1.239 1.239 1.239h19.468c0.684 0 1.239-0.555 1.239-1.239v-1.355h1.355c0.685 0 1.239-0.555 1.239-1.239v-1.355h1.355c0.684 0 1.239-0.555 1.239-1.239v-13.812c-0-0.684-0.555-1.239-1.239-1.239zM14.467 21.364c0 0.401-0.325 0.726-0.726 0.726s-0.726-0.325-0.726-0.726c0-0.401 0.325-0.726 0.726-0.726s0.726 0.325 0.726 0.726zM16.592 21.364c0 0.401-0.325 0.726-0.726 0.726s-0.726-0.325-0.726-0.726c0-0.401 0.325-0.726 0.726-0.726s0.726 0.325 0.726 0.726zM18.673 21.364c0 0.401-0.325 0.726-0.726 0.726s-0.726-0.325-0.726-0.726c0-0.401 0.325-0.726 0.726-0.726s0.726 0.325 0.726 0.726z"></path>
</svg>
