<!-- Generated by IcoMoon.io -->
<svg version="1.1" xmlns="http://www.w3.org/2000/svg" width="32" height="32" viewBox="0 0 32 32">
<title>uniE624</title>
<path d="M16.214 7.785c5.77 0 10.463 4.694 10.463 10.463s-4.694 10.463-10.463 10.463-10.463-4.694-10.463-10.463c0-5.77 4.694-10.463 10.463-10.463zM16.214 5.223c-7.194 0-13.025 5.832-13.025 13.025s5.832 13.025 13.025 13.025c7.194 0 13.025-5.832 13.025-13.025s-5.832-13.025-13.025-13.025v0zM11.931 4.711c-0.35-0.025-0.656-0.054-0.972-0.029-0.157 0.019-0.318 0.045-0.491 0.080-0.087 0.018-0.176 0.037-0.27 0.060-0.093 0.026-0.186 0.065-0.286 0.101-0.067 0.026-0.156 0.060-0.285 0.11-0.128 0.051-0.301 0.107-0.515 0.226-0.131 0.068-0.441 0.229-0.441 0.229s-0.065 0.033-0.149 0.075c-0.081 0.047-0.175 0.112-0.243 0.156-0.136 0.090-0.26 0.171-0.37 0.244-0.056 0.036-0.108 0.071-0.157 0.104-0.048 0.034-0.090 0.072-0.131 0.104-0.161 0.133-0.28 0.23-0.362 0.297-0.082 0.069-0.16 0.132-0.23 0.198-0.066 0.070-0.127 0.139-0.185 0.205-0.116 0.134-0.218 0.261-0.311 0.388-0.178 0.262-0.303 0.543-0.454 0.86 0.29-0.215 0.51-0.403 0.745-0.593 0.122-0.091 0.243-0.188 0.368-0.297 0.063-0.055 0.126-0.113 0.192-0.174 0.072-0.057 0.145-0.115 0.223-0.177 0.077-0.063 0.188-0.153 0.34-0.277 0.038-0.030 0.077-0.066 0.123-0.098 0.047-0.030 0.096-0.063 0.148-0.097 0.104-0.068 0.22-0.144 0.348-0.228 0.064-0.041 0.152-0.103 0.227-0.147 0.078-0.041 0.139-0.073 0.139-0.073s0.292-0.149 0.415-0.213c0.2-0.113 0.363-0.165 0.482-0.213 0.121-0.047 0.203-0.080 0.267-0.105 0.093-0.036 0.18-0.076 0.264-0.106 0.086-0.027 0.168-0.054 0.246-0.082 0.157-0.055 0.3-0.113 0.44-0.174 0.282-0.11 0.553-0.21 0.883-0.356zM12.052 2.686c-0.199-0.036-0.384-0.068-0.566-0.094-0.181-0.018-0.357-0.026-0.539-0.030-0.182-0.001-0.366 0.020-0.567 0.042-0.201 0.023-0.412 0.078-0.649 0.134-0.081 0.019-0.183 0.056-0.334 0.102-0.075 0.024-0.162 0.052-0.263 0.084-0.1 0.035-0.213 0.082-0.343 0.131-0.082 0.033-0.196 0.072-0.313 0.126s-0.242 0.113-0.358 0.167c-0.117 0.052-0.219 0.107-0.293 0.148s-0.12 0.066-0.12 0.066-0.039 0.021-0.102 0.055c-0.063 0.036-0.154 0.078-0.249 0.139-0.189 0.121-0.428 0.257-0.583 0.376-0.615 0.424-0.947 0.749-1.125 0.91-0.178 0.166-0.32 0.332-0.453 0.483-0.123 0.16-0.231 0.313-0.329 0.464-0.091 0.158-0.173 0.315-0.252 0.478-0.073 0.168-0.141 0.344-0.213 0.533 0.154-0.138 0.294-0.263 0.422-0.378 0.137-0.114 0.265-0.226 0.391-0.345 0.133-0.112 0.263-0.231 0.399-0.364 0.145-0.124 0.288-0.269 0.457-0.423 0.169-0.149 0.481-0.453 1.057-0.85 0.146-0.111 0.369-0.239 0.546-0.353 0.088-0.058 0.174-0.098 0.232-0.132 0.059-0.032 0.096-0.052 0.096-0.052s0.044-0.023 0.113-0.061c0.069-0.039 0.166-0.090 0.275-0.137 0.108-0.050 0.226-0.105 0.336-0.155s0.216-0.086 0.293-0.119c0.122-0.047 0.227-0.091 0.321-0.124 0.095-0.030 0.176-0.057 0.247-0.079 0.141-0.044 0.237-0.079 0.312-0.098 0.222-0.054 0.415-0.121 0.599-0.168s0.351-0.105 0.517-0.153c0.166-0.046 0.328-0.101 0.497-0.158 0.169-0.049 0.346-0.104 0.541-0.166zM12.215 0.732c-0.22-0.055-0.426-0.105-0.627-0.147s-0.398-0.059-0.601-0.079c-0.203-0.022-0.412-0.020-0.638-0.007-0.113 0.006-0.231 0.014-0.354 0.025-0.123 0.015-0.25 0.039-0.385 0.063-0.091 0.017-0.211 0.039-0.386 0.071-0.172 0.044-0.398 0.102-0.702 0.181-0.139 0.037-0.319 0.105-0.517 0.171-0.098 0.034-0.202 0.067-0.302 0.105-0.099 0.043-0.198 0.085-0.293 0.126-0.188 0.085-0.365 0.151-0.485 0.217-0.121 0.064-0.196 0.104-0.196 0.104s-0.063 0.033-0.167 0.088c-0.102 0.057-0.251 0.123-0.402 0.226-0.154 0.099-0.324 0.207-0.49 0.313-0.157 0.118-0.309 0.231-0.436 0.326-0.659 0.526-1.013 0.91-1.199 1.105-0.369 0.406-0.613 0.763-0.807 1.12-0.092 0.182-0.177 0.361-0.255 0.549-0.072 0.192-0.141 0.392-0.212 0.608 0.166-0.159 0.316-0.304 0.456-0.446 0.146-0.138 0.286-0.27 0.42-0.411 0.278-0.275 0.553-0.572 0.904-0.949 0.177-0.182 0.51-0.54 1.123-1.028 0.118-0.088 0.259-0.194 0.405-0.303 0.153-0.098 0.31-0.2 0.453-0.291 0.139-0.096 0.278-0.158 0.372-0.212 0.096-0.051 0.154-0.082 0.154-0.082s0.070-0.037 0.182-0.096c0.111-0.062 0.277-0.122 0.452-0.2 0.088-0.038 0.18-0.077 0.273-0.117 0.094-0.036 0.19-0.065 0.282-0.098 0.185-0.061 0.353-0.125 0.482-0.161 0.285-0.074 0.496-0.129 0.657-0.171 0.164-0.031 0.276-0.052 0.362-0.069 0.126-0.026 0.245-0.050 0.359-0.073 0.115-0.018 0.224-0.037 0.33-0.057 0.21-0.042 0.404-0.088 0.596-0.124 0.191-0.037 0.377-0.093 0.572-0.135s0.398-0.091 0.621-0.146zM8.303 20.838c0.187-0.416 0.37-0.745 0.538-1.098 0.171-0.352 0.336-0.724 0.539-1.201 0.071-0.161 0.179-0.426 0.447-0.958 0.24-0.479 0.692-1.264 1.138-1.891 0.443-0.63 0.861-1.109 0.861-1.109s0.087-0.101 0.229-0.266c0.151-0.157 0.348-0.388 0.593-0.623 0.478-0.483 1.102-1.028 1.576-1.38 0.156-0.124 0.301-0.23 0.435-0.322 0.132-0.094 0.25-0.177 0.354-0.251 0.214-0.139 0.371-0.241 0.479-0.311 0.442-0.276 0.779-0.508 1.098-0.737 0.314-0.24 0.614-0.466 0.969-0.758-0.446 0.091-0.828 0.167-1.206 0.309-0.383 0.131-0.767 0.318-1.229 0.6-0.113 0.072-0.277 0.178-0.5 0.321-0.108 0.077-0.231 0.163-0.369 0.261-0.139 0.096-0.291 0.206-0.454 0.335-0.494 0.367-1.146 0.936-1.644 1.442-0.256 0.246-0.461 0.488-0.618 0.652-0.148 0.173-0.239 0.278-0.239 0.278s-0.439 0.5-0.903 1.157c-0.468 0.655-0.942 1.474-1.19 1.977-0.279 0.556-0.392 0.835-0.465 1.004-0.208 0.503-0.321 0.917-0.386 1.318-0.062 0.402-0.084 0.792-0.053 1.25zM10.828 25.342c0.222-0.4 0.422-0.719 0.613-1.063 0.091-0.173 0.189-0.349 0.286-0.543 0.094-0.197 0.194-0.406 0.307-0.641 0.079-0.159 0.186-0.427 0.469-0.955 0.095-0.174 0.192-0.387 0.325-0.606 0.129-0.221 0.269-0.461 0.414-0.71s0.319-0.494 0.48-0.746c0.082-0.125 0.163-0.25 0.244-0.374 0.084-0.122 0.173-0.237 0.257-0.352 0.169-0.23 0.331-0.45 0.479-0.651 0.146-0.202 0.3-0.367 0.418-0.516 0.242-0.291 0.393-0.473 0.393-0.473s0.032-0.038 0.089-0.107c0.029-0.035 0.064-0.077 0.105-0.126 0.044-0.046 0.094-0.1 0.15-0.158 0.223-0.235 0.532-0.562 0.879-0.928 0.37-0.344 0.779-0.725 1.177-1.094 0.416-0.348 0.83-0.674 1.17-0.951 0.078-0.063 0.152-0.123 0.223-0.18 0.074-0.052 0.145-0.102 0.212-0.149 0.134-0.094 0.253-0.177 0.358-0.25 0.21-0.147 0.365-0.256 0.471-0.33 0.217-0.147 0.396-0.3 0.577-0.421 0.178-0.124 0.339-0.245 0.492-0.37 0.306-0.249 0.581-0.512 0.91-0.836-0.435 0.13-0.8 0.248-1.173 0.402-0.186 0.077-0.374 0.163-0.574 0.263-0.202 0.097-0.396 0.24-0.62 0.389-0.11 0.076-0.269 0.187-0.485 0.337-0.108 0.075-0.231 0.16-0.369 0.256-0.069 0.048-0.141 0.099-0.218 0.152-0.073 0.059-0.149 0.12-0.229 0.185-0.349 0.285-0.775 0.619-1.203 0.978-0.409 0.381-0.833 0.769-1.209 1.127-0.356 0.378-0.674 0.715-0.903 0.957-0.057 0.061-0.109 0.115-0.154 0.163-0.042 0.051-0.078 0.094-0.108 0.13-0.059 0.071-0.092 0.11-0.092 0.11s-0.156 0.186-0.405 0.486c-0.122 0.152-0.28 0.323-0.431 0.53-0.152 0.206-0.32 0.433-0.494 0.669-0.086 0.119-0.178 0.238-0.265 0.363-0.083 0.127-0.168 0.256-0.252 0.384-0.166 0.259-0.344 0.512-0.495 0.769s-0.294 0.505-0.427 0.733c-0.136 0.226-0.236 0.445-0.334 0.626-0.292 0.546-0.402 0.824-0.481 0.989-0.116 0.244-0.2 0.47-0.27 0.684-0.072 0.212-0.13 0.411-0.169 0.61-0.085 0.394-0.129 0.782-0.137 1.239zM11.484 10.65c0.408 0.206 0.732 0.398 1.082 0.576 0.349 0.18 0.72 0.351 1.199 0.558 0.161 0.072 0.427 0.183 0.964 0.447 0.652 0.32 1.722 0.923 2.57 1.532 0.854 0.599 1.503 1.168 1.503 1.168s0.136 0.119 0.358 0.313c0.216 0.201 0.519 0.478 0.84 0.809 0.649 0.653 1.369 1.515 1.839 2.162 0.117 0.162 0.223 0.308 0.319 0.44 0.090 0.136 0.171 0.256 0.242 0.362 0.143 0.212 0.248 0.369 0.313 0.48 0.137 0.223 0.266 0.417 0.39 0.596 0.118 0.182 0.234 0.346 0.354 0.503 0.119 0.153 0.238 0.305 0.364 0.466 0.125 0.157 0.26 0.317 0.409 0.493-0.049-0.222-0.096-0.427-0.147-0.625-0.049-0.199-0.106-0.388-0.179-0.575-0.071-0.189-0.151-0.38-0.245-0.583-0.101-0.199-0.22-0.409-0.359-0.641-0.066-0.116-0.174-0.278-0.321-0.498-0.073-0.11-0.156-0.235-0.249-0.375-0.099-0.137-0.208-0.288-0.33-0.455-0.486-0.67-1.231-1.561-1.905-2.237-0.332-0.342-0.647-0.628-0.871-0.836-0.231-0.201-0.371-0.323-0.371-0.323s-0.67-0.59-1.554-1.212c-0.877-0.632-1.984-1.257-2.661-1.586-0.557-0.273-0.832-0.387-1.001-0.46-0.499-0.211-0.909-0.329-1.308-0.403-0.398-0.072-0.786-0.105-1.245-0.095zM21.568 26.065c-0.422-0.174-0.763-0.337-1.127-0.485-0.363-0.151-0.748-0.287-1.244-0.451-0.167-0.058-0.441-0.145-0.999-0.36-0.391-0.156-0.912-0.373-1.459-0.644-0.546-0.272-1.121-0.588-1.63-0.911-0.255-0.161-0.493-0.323-0.71-0.471-0.211-0.156-0.405-0.292-0.563-0.414-0.312-0.248-0.506-0.404-0.506-0.404s-0.156-0.137-0.412-0.361c-0.131-0.109-0.274-0.253-0.439-0.411-0.081-0.079-0.167-0.162-0.257-0.249-0.085-0.090-0.174-0.184-0.264-0.281s-0.186-0.194-0.277-0.299c-0.090-0.106-0.181-0.213-0.273-0.322-0.189-0.213-0.361-0.447-0.534-0.673-0.179-0.222-0.327-0.462-0.48-0.681-0.156-0.217-0.279-0.439-0.4-0.635-0.213-0.336-0.351-0.627-0.474-0.85-0.124-0.223-0.198-0.395-0.252-0.511-0.449-0.939-0.737-1.457-1.225-2.236 0.065 0.907 0.14 1.546 0.599 2.53 0.056 0.122 0.132 0.302 0.261 0.535 0.127 0.233 0.271 0.538 0.493 0.889 0.126 0.205 0.255 0.437 0.418 0.664 0.16 0.229 0.316 0.479 0.503 0.712 0.181 0.237 0.361 0.481 0.559 0.703 0.097 0.113 0.192 0.226 0.286 0.336 0.095 0.109 0.196 0.21 0.29 0.312s0.188 0.199 0.277 0.293c0.093 0.090 0.183 0.177 0.268 0.26 0.172 0.164 0.322 0.314 0.459 0.428 0.268 0.234 0.431 0.376 0.431 0.376s0.202 0.162 0.527 0.422c0.164 0.127 0.366 0.27 0.586 0.432 0.225 0.155 0.473 0.324 0.738 0.492 0.529 0.337 1.126 0.665 1.693 0.948 0.568 0.281 1.109 0.506 1.514 0.667 0.579 0.221 0.864 0.311 1.038 0.369 0.515 0.165 0.935 0.246 1.337 0.287 0.403 0.038 0.792 0.037 1.248-0.008zM15.294 27.182c0.451-0.089 0.82-0.214 1.192-0.377 0.37-0.167 0.74-0.383 1.174-0.709 0.072-0.057 0.167-0.131 0.305-0.24 0.069-0.054 0.148-0.117 0.241-0.191 0.089-0.078 0.191-0.166 0.308-0.268 0.101-0.088 0.22-0.192 0.35-0.305 0.124-0.12 0.259-0.25 0.399-0.385 0.138-0.137 0.289-0.273 0.425-0.421s0.273-0.296 0.403-0.437c0.267-0.277 0.484-0.555 0.646-0.751s0.262-0.32 0.262-0.32 0.021-0.026 0.060-0.072c0.040-0.046 0.093-0.116 0.156-0.204 0.128-0.176 0.306-0.421 0.506-0.695 0.050-0.069 0.101-0.139 0.153-0.211 0.048-0.075 0.096-0.151 0.145-0.228 0.098-0.154 0.197-0.31 0.295-0.464s0.194-0.306 0.285-0.45c0.082-0.15 0.16-0.292 0.231-0.42 0.198-0.363 0.357-0.656 0.484-0.888 0.111-0.24 0.192-0.416 0.248-0.537 0.471-0.972 0.545-1.608 0.666-2.506-0.537 0.751-0.824 1.271-1.291 2.21-0.055 0.117-0.135 0.288-0.244 0.52-0.123 0.225-0.278 0.509-0.47 0.86-0.069 0.125-0.144 0.262-0.224 0.407-0.088 0.14-0.182 0.286-0.276 0.435s-0.19 0.3-0.285 0.449c-0.047 0.075-0.094 0.148-0.14 0.221-0.050 0.070-0.1 0.138-0.148 0.204-0.192 0.266-0.364 0.503-0.487 0.673-0.061 0.086-0.111 0.154-0.15 0.198-0.037 0.045-0.057 0.070-0.057 0.070s-0.098 0.118-0.254 0.308c-0.157 0.189-0.367 0.457-0.625 0.723-0.126 0.136-0.258 0.278-0.39 0.421s-0.277 0.273-0.41 0.405c-0.135 0.13-0.265 0.256-0.384 0.371-0.125 0.109-0.239 0.209-0.336 0.294-0.112 0.099-0.21 0.184-0.296 0.259-0.089 0.071-0.165 0.131-0.231 0.184-0.132 0.105-0.222 0.177-0.291 0.232-0.412 0.317-0.73 0.572-1.025 0.83-0.297 0.253-0.566 0.519-0.92 0.806zM15.487 11.811c0 0.538-0.436 0.974-0.974 0.974s-0.974-0.436-0.974-0.974c0-0.538 0.436-0.974 0.974-0.974s0.974 0.436 0.974 0.974zM19.506 14.416c0 0.538-0.436 0.973-0.974 0.973s-0.974-0.436-0.974-0.973c0-0.538 0.436-0.973 0.974-0.973s0.974 0.436 0.974 0.973zM23.871 19.153c0 0.538-0.436 0.974-0.974 0.974s-0.974-0.436-0.974-0.974c0-0.538 0.436-0.974 0.974-0.974s0.974 0.436 0.974 0.974zM19.191 25.041c0 0.538-0.436 0.974-0.974 0.974s-0.974-0.436-0.974-0.974c0-0.538 0.436-0.974 0.974-0.974s0.974 0.436 0.974 0.974zM13.432 21.642c0 0.538-0.436 0.974-0.974 0.974s-0.974-0.436-0.974-0.974c0-0.538 0.436-0.974 0.974-0.974s0.974 0.436 0.974 0.974zM10.372 17.603c0 0.538-0.436 0.974-0.974 0.974s-0.974-0.436-0.974-0.974c0-0.538 0.436-0.974 0.974-0.974s0.974 0.436 0.974 0.974z"></path>
</svg>
