<!-- Generated by IcoMoon.io -->
<svg version="1.1" xmlns="http://www.w3.org/2000/svg" width="32" height="32" viewBox="0 0 32 32">
<title>uniE625</title>
<path d="M21.178 11.192c0 2.857-2.316 5.173-5.173 5.173s-5.173-2.316-5.173-5.173c0-2.857 2.316-5.173 5.173-5.173s5.173 2.316 5.173 5.173zM16.003 31.405c-0.276 0-0.596-0.088-0.668-0.116-5.31-2.082-9.425-6.321-11.91-12.272-1.269-3.040-1.814-5.791-2.038-7.305-0.030-0.203-0.209-0.986 0.098-1.691 0.328-0.756 1.132-1.209 1.132-1.209l11.953-7.756c0 0 0.743-0.462 1.434-0.462 0.721 0 1.509 0.51 1.509 0.51l12.149 7.883c0 0 0.644 0.401 0.857 0.967 0.18 0.477 0.214 0.982 0.121 1.645-0.207 1.49-0.738 4.301-2.032 7.415-2.474 5.951-6.598 10.191-11.933 12.273-0.073 0.029-0.378 0.116-0.673 0.116zM4.146 11.401c-0.108 0.325-0.042 0.991-0.018 1.115 0.282 1.442 0.791 3.449 1.691 5.586 2.115 5.023 5.357 8.539 9.647 10.465 0.093 0.042 0.347 0.123 0.54 0.123s0.476-0.093 0.582-0.141c4.292-1.93 7.527-5.439 9.626-10.444 0.855-2.040 1.352-3.961 1.636-5.385 0.137-0.688 0.171-1.11 0.010-1.528-0.172-0.448-0.701-0.774-0.701-0.774l-9.965-6.466c0 0-0.599-0.367-1.189-0.367-0.619 0-1.174 0.358-1.174 0.358l-10.019 6.501c0 0-0.468 0.367-0.665 0.958zM20.008 15.605c-1.059 0.961-2.464 1.548-4.004 1.548-1.74 0-3.308-0.75-4.399-1.943l-4.48 3.852c1.379 2.827 3.166 5.098 5.341 6.788l3.317-3.305c0.627 0.718 1.546 1.175 2.572 1.175 1.068 0 2.022-0.493 2.649-1.263l1.010 1.060c0.907-1.050 1.72-2.233 2.433-3.552l-4.439-4.361zM18.355 22.932c-1.451 0-2.628-1.176-2.628-2.627s1.177-2.628 2.628-2.628c1.451 0 2.628 1.177 2.628 2.628s-1.176 2.627-2.628 2.627z"></path>
</svg>
