<!-- Generated by IcoMoon.io -->
<svg version="1.1" xmlns="http://www.w3.org/2000/svg" width="32" height="32" viewBox="0 0 32 32">
<title>uniE901</title>
<path d="M27.87-0.005h-23.741c-2.281 0-4.13 1.849-4.13 4.13 0 0 0 0 0 0v23.748c0 2.281 1.849 4.13 4.13 4.13 0 0 0 0 0 0h23.741c0 0 0 0 0 0 2.281 0 4.13-1.849 4.13-4.13 0 0 0 0 0 0v-23.743c0-0.001 0-0.003 0-0.005 0-2.281-1.849-4.13-4.13-4.13 0 0 0 0 0 0zM6.801 26.9h-0.702v-1.77h-0.016l-0.655 1.49c-0.113 0.257-0.239 0.3-0.364 0.3s-0.251-0.043-0.364-0.3l-0.655-1.49h-0.014v1.77h-0.704v-2.685c-0.002-0.018-0.004-0.038-0.004-0.059 0-0.247 0.198-0.447 0.444-0.451 0.156 0 0.353 0.065 0.499 0.4l0.79 1.795h0.014l0.79-1.793c0.147-0.334 0.332-0.402 0.499-0.402 0.246 0 0.44 0.154 0.44 0.515v2.682zM8.469 27.351c-0.156 0.382-0.415 0.472-0.917 0.472h-0.124v-0.562h0.097c0.014 0.002 0.030 0.002 0.047 0.002 0.238 0 0.435-0.177 0.465-0.406l-0.98-2.215h0.741l0.549 1.4 0.494-1.4h0.738zM13.188 26.552c0.001 0.007 0.001 0.016 0.001 0.025 0 0.191-0.155 0.345-0.345 0.345-0.013 0-0.026-0.001-0.039-0.002-0.156-0.012-0.292-0.099-0.372-0.224l-1.329-1.75v1.962h-0.704v-2.836c-0.001-0.007-0.001-0.016-0.001-0.025 0-0.191 0.155-0.345 0.345-0.345 0.013 0 0.026 0.001 0.039 0.002 0.157 0.012 0.292 0.098 0.372 0.224l1.329 1.75v-1.953h0.702v2.827zM14.303 26.9h-0.655v-2.258h0.655v2.258zM13.976 24.348c0.384-0.384 0.384-0.384 0.384-0.384 0 0.212-0.172 0.384-0.384 0.384zM17.022 26.897h-0.655v-1.163c0-0.452-0.285-0.562-0.474-0.562-0.271 0-0.508 0.19-0.508 0.628v1.097h-0.655v-2.258h0.655v0.192c0.142-0.161 0.348-0.262 0.579-0.262 0.007 0 0.014 0 0.021 0 0.002-0 0.006-0 0.010-0 0.566 0 1.025 0.459 1.025 1.025 0 0.031-0.001 0.062-0.004 0.092l0 1.206zM18.672 25.175h-0.452v1.723h-0.655v-1.723h-0.438v-0.531h0.438v-0.621h0.655v0.621h0.452v0.531zM20.673 25.976h-1.33c0.064 0.253 0.29 0.438 0.559 0.438 0.001 0 0.002 0 0.003 0 0.008 0 0.018 0.001 0.028 0.001 0.207 0 0.391-0.098 0.508-0.25l0.536 0.186c-0.207 0.372-0.598 0.619-1.047 0.619-0.008 0-0.015-0-0.023-0-0.66 0-1.197-0.536-1.197-1.198s0.536-1.198 1.198-1.198c0.001 0 0.003 0 0.004 0 0.637 0 1.158 0.498 1.195 1.126-0.004 0.222-0.149 0.279-0.44 0.279zM23.621 26.895h-0.655v-1.161c0-0.452-0.285-0.562-0.474-0.562-0.271 0-0.508 0.19-0.508 0.628v1.097h-0.655v-2.258h0.655v0.192c0.142-0.161 0.348-0.262 0.579-0.262 0.007 0 0.014 0 0.021 0 0.002-0 0.006-0 0.010-0 0.566 0 1.025 0.459 1.025 1.025 0 0.031-0.001 0.062-0.004 0.092l0 1.206zM26.301 26.895h-0.666v-0.167c-0.148 0.14-0.349 0.226-0.569 0.226-0.012 0-0.024-0-0.035-0.001-0.66 0-1.196-0.536-1.196-1.198s0.536-1.198 1.198-1.198c0.010-0 0.021-0.001 0.033-0.001 0.221 0 0.422 0.086 0.57 0.227l-0-0v-1.084h0.677v3.174zM22.352 20.090c-0.958-0.016-1.855-0.265-2.64-0.692-1.793 1.276-4.052 2.029-6.486 2.029-3.385 0-6.43-1.456-8.542-3.777-0.138-0.162-0.217-0.362-0.217-0.581 0-0.489 0.397-0.886 0.886-0.886 0.271 0 0.514 0.122 0.676 0.314 0.99 1.173 3.614 3.162 7.179 3.162 0.002 0 0.003 0 0.005 0 2.247 0 4.317-0.757 5.969-2.029 0.125-0.099 0.314-0.169 0.52-0.169s0.395 0.070 0.545 0.188c0.586 0.414 1.316 0.666 2.105 0.676 0.015 0 0.030 0 0.045 0 2.105 0 3.811-1.706 3.811-3.811 0-0.010-0-0.019-0-0.029 0-1.78-1.533-3.765-3.737-3.765h-0.070c-0.020-0.001-0.043-0.002-0.067-0.002s-0.047 0.001-0.070 0.002c-0.014 0.001-0.035 0.002-0.055 0.002-0.35 0-0.653-0.203-0.798-0.498-1.271-2.66-3.739-4.245-6.606-4.245-3.109 0-6.322 1.987-6.322 5.31 0 0.003-0 0.007-0 0.010 0 0.933 0.412 1.769 1.064 2.337l1.862-3.481c0.149-0.291 0.447-0.486 0.79-0.486s0.641 0.196 0.788 0.482l1.086 2.127 1.084-2.122c0.149-0.288 0.443-0.481 0.783-0.483 0.339 0.002 0.633 0.19 0.786 0.467l2.29 4.34c0.072 0.125 0.114 0.275 0.114 0.434 0 0.489-0.396 0.885-0.885 0.885-0.346 0-0.646-0.199-0.791-0.488l-1.495-2.832-1.097 2.149c-0.149 0.291-0.447 0.486-0.79 0.486s-0.641-0.196-0.788-0.482l-1.104-2.166-1.526 2.845c-0.152 0.279-0.444 0.466-0.779 0.466-0.135 0-0.263-0.030-0.377-0.084-0.107-0.050-2.776-1.323-2.776-4.437 0-4.432 4.116-7.080 8.094-7.080 0.021-0 0.047-0 0.072-0 3.395 0 6.347 1.9 7.85 4.694 3.162 0.206 5.248 2.983 5.248 5.577 0 0.024 0.001 0.052 0.001 0.079 0 3.072-2.491 5.563-5.563 5.563-0.025 0-0.050-0-0.074-0zM27.724 26.981c-0.658-0.004-1.19-0.538-1.19-1.197 0-0.661 0.536-1.197 1.197-1.197s1.197 0.536 1.197 1.197c-0.009 0.657-0.543 1.185-1.201 1.185-0 0-0 0-0 0zM29.437 26.493h-0.104v0.415h-0.138v-0.415h-0.106v-0.12h0.348v0.12zM30.072 26.909h-0.124v-0.402l-0.115 0.402h-0.090l-0.115-0.402v0.402h-0.126v-0.535h0.199l0.102 0.345 0.097-0.345h0.183v0.535zM19.912 25.141c-0.005-0-0.011-0-0.017-0-0.254 0-0.47 0.166-0.544 0.396l1.128 0.004c-0.077-0.24-0.299-0.411-0.56-0.411-0.002 0-0.003 0-0.005 0zM27.721 25.179c-0.003-0-0.007-0-0.011-0-0.334 0-0.605 0.271-0.605 0.605s0.271 0.605 0.605 0.605c0.334 0 0.605-0.271 0.605-0.605 0-0.005 0-0.010 0-0.016 0-0.329-0.264-0.596-0.591-0.601zM25.050 25.179c-0.337 0-0.611 0.273-0.611 0.611s0.273 0.611 0.611 0.611c0 0 0.001 0 0.001 0 0.342 0 0.62-0.277 0.62-0.62s-0.277-0.619-0.619-0.62z"></path>
</svg>
