<!-- Generated by IcoMoon.io -->
<svg version="1.1" xmlns="http://www.w3.org/2000/svg" width="32" height="32" viewBox="0 0 32 32">
<title>uniE626</title>
<path d="M28.383 5.638h-24.766c-0.87 0-1.577 0.706-1.577 1.577v17.572c0 0.871 0.706 1.576 1.577 1.576h24.766c0.871 0 1.576-0.706 1.576-1.576v-17.572c0-0.871-0.706-1.577-1.576-1.577zM27.733 20.799c-0.412-0.248-0.892-0.393-1.408-0.393-1.511 0-2.736 1.225-2.736 2.737 0 0.412 0.094 0.802 0.258 1.153h-16.134c0.164-0.351 0.257-0.741 0.257-1.153 0-1.511-1.225-2.737-2.737-2.737-0.341 0-0.665 0.065-0.966 0.179v-9.273c0.301 0.114 0.625 0.179 0.966 0.179 1.511 0 2.737-1.225 2.737-2.737 0-0.372-0.075-0.726-0.209-1.049h16.037c-0.134 0.323-0.209 0.677-0.209 1.049 0 1.511 1.225 2.737 2.736 2.737 0.516 0 0.996-0.145 1.408-0.393v9.702zM19.019 15.119c0-0.344-0.28-0.625-0.624-0.625s-0.624 0.28-0.624 0.625 0.28 0.624 0.624 0.624 0.624-0.28 0.624-0.624zM18.296 9.844v1.834l-4.234 2.376v1.005c0.647 0.209 1.117 0.816 1.117 1.532 0 0.888-0.722 1.61-1.61 1.61s-1.61-0.722-1.61-1.61c0-0.716 0.47-1.323 1.117-1.532v-1.582l4.234-2.376v-1.539c-0.423-0.086-0.861-0.131-1.31-0.131-3.628 0-6.569 2.941-6.569 6.569 0 2.806 1.761 5.201 4.237 6.142v-2.11l4.234-2.375v-1.005c-0.648-0.209-1.117-0.816-1.117-1.532 0-0.888 0.722-1.61 1.61-1.61s1.61 0.722 1.61 1.61c0 0.716-0.47 1.323-1.117 1.532v1.582l-4.234 2.375v1.821c0.435 0.091 0.885 0.139 1.346 0.139 3.628 0 6.569-2.941 6.569-6.569-0-2.82-1.778-5.225-4.273-6.156zM12.945 16.591c0 0.344 0.28 0.624 0.624 0.624s0.625-0.28 0.625-0.624-0.28-0.625-0.625-0.625c-0.344 0-0.624 0.28-0.624 0.625z"></path>
</svg>
