<!-- Generated by IcoMoon.io -->
<svg version="1.1" xmlns="http://www.w3.org/2000/svg" width="32" height="32" viewBox="0 0 32 32">
<title>uniE622</title>
<path d="M16.416 9.67c2.549 1.164 4.902 2.788 6.903 4.775l1.672 1.661 1.8-1.8-0 9.37-9.37 0.001 2.134-2.134-1.694-1.672c-1.673-1.652-3.68-2.912-5.87-3.695v-1.009l1.948 0 0.136-0.016c0.346-0.040 1.010-0.192 1.567-0.749 0.511-0.51 0.791-1.23 0.769-1.958l0.005-2.773zM14.408 6.411c-0.068 0-0.129 0.014-0.186 0.047-0.198 0.115-0.165 0.434-0.165 0.434l-0.011 5.605c0 0 0.014 0.142-0.075 0.231-0.062 0.062-0.169 0.074-0.169 0.074l-3.631-0.001c0 0-0.012-0.001-0.033-0.001-0.070 0-0.237 0.011-0.366 0.111-0.164 0.127-0.146 0.308-0.146 0.308v4.371c0 0-0.001 0.166 0.079 0.276 0.060 0.082 0.14 0.131 0.248 0.158 2.395 0.605 4.539 1.846 6.245 3.53l-2.482 2.482c0 0-0.771 0.648-0.349 1.442 0.284 0.535 1.063 0.564 1.23 0.564 0.020 0 0.031-0 0.031-0l12.644-0.001c0 0 0.89-0.001 1.377-0.505 0.573-0.592 0.505-1.473 0.505-1.473l0-12.762c0 0 0.096-0.713-0.607-1.088-0.164-0.087-0.319-0.12-0.461-0.12-0.422 0-0.719 0.29-0.719 0.29l-2.383 2.384c-2.839-2.819-6.319-4.992-10.204-6.275-0.146-0.048-0.268-0.082-0.374-0.082v0zM11.71 6.943v3.724h-3.724v-3.724h3.724zM12.104 5.957h-4.512c-0.325 0-0.591 0.266-0.591 0.591v4.512c0 0.325 0.266 0.591 0.591 0.591h4.512c0.325 0 0.591-0.266 0.591-0.591v-4.512c0-0.325-0.266-0.591-0.591-0.591v0zM7.417 13.682v3.132h-3.132v-3.132h3.132zM7.614 12.893h-3.527c-0.325 0-0.591 0.266-0.591 0.591v3.527c0 0.325 0.266 0.591 0.591 0.591h3.527c0.325 0 0.591-0.266 0.591-0.591v-3.527c-0-0.325-0.266-0.591-0.591-0.591v0zM5.241 9.213v1.811h-1.811v-1.811h1.811zM5.241 8.622h-1.811c-0.325 0-0.591 0.266-0.591 0.591v1.811c0 0.325 0.266 0.591 0.591 0.591h1.811c0.325 0 0.591-0.266 0.591-0.591v-1.811c0-0.325-0.266-0.591-0.591-0.591v0z"></path>
</svg>
