<!-- Generated by IcoMoon.io -->
<svg version="1.1" xmlns="http://www.w3.org/2000/svg" width="32" height="32" viewBox="0 0 32 32">
<title>untitled23</title>
<path d="M2.488 0.8h27.023c0.932 0 1.689 0.756 1.689 1.689v27.023c0 0.932-0.756 1.688-1.689 1.688h-27.023c-0.933 0-1.688-0.756-1.688-1.688v-27.023c0-0.933 0.756-1.689 1.688-1.689v0zM27.675 13.733h-4.159v-2.682c0-1.007 0.678-1.242 1.157-1.242 0.477 0 2.934 0 2.934 0v-4.426l-4.042-0.016c-4.486 0-5.508 3.302-5.508 5.415v2.95h-2.594v4.56h2.594c0 5.853 0 12.905 0 12.905h5.459c0 0 0-7.122 0-12.905h3.682l0.476-4.56z"></path>
</svg>
