<!-- Generated by IcoMoon.io -->
<svg version="1.1" xmlns="http://www.w3.org/2000/svg" width="128" height="32" viewBox="0 0 128 32">
<title>untitled24</title>
<path d="M13.98 8.43h4.509l6.239 10.094-0.003-10.094h4.472v14.475h-4.466l-6.272-10.094v10.094h-4.481l0.002-14.475zM53.525 9.918l4.356 0.001v1.947h2.357v1.432h-2.357l0.003 9.607h-4.359l0.001-9.607h-2.365v-1.428l2.367-0.002-0.003-1.949zM31.69 13.279l4.353 0.001v9.625h-4.353v-9.626zM31.68 8.427h4.363v2.959h-4.363v-2.959zM109.71 18.014c0 0-0.003 1.455-0.003 2.039 0 1.534-0.904 2.166-1.779 2.166-0.872 0-1.784-0.633-1.784-2.166 0-0.584 0.003-2.076 0.003-2.076s0.002-1.423 0.002-2.007c0-1.528 0.911-2.156 1.78-2.156s1.778 0.628 1.778 2.156c0 0.583 0 1.662 0.004 2.049v-0.005h-0zM107.962 12.622c-3.513 0-6.36 2.419-6.36 5.404s2.847 5.404 6.36 5.404c3.513 0 6.362-2.419 6.362-5.404s-2.85-5.404-6.362-5.404v0zM95.889 8.43h4.294v14.473h-4.303c0 0-0.003-0.467-0.003-0.556-1.663 1.045-3.543 1.043-5.009 0.361-0.392-0.181-2.977-1.422-2.977-4.771 0-2.541 2.399-5.315 5.534-5.040 1.034 0.091 1.768 0.468 2.464 0.859 0-2.228 0-5.326 0-5.326v0zM95.919 18.041c0 0 0-1.207 0-1.719 0-1.488-1.028-1.868-1.705-1.868-0.692 0-1.705 0.38-1.705 1.868 0 0.493 0 1.716 0 1.716s0 1.199 0 1.712c0 1.487 1.013 1.876 1.705 1.876 0.677 0 1.708-0.389 1.708-1.876 0-0.619-0.003-1.709-0.003-1.709v0zM46.233 12.834c1.626-0.046 4.928 1.019 4.905 4.831-0.004 0.676-0.002 5.237-0.002 5.237h-4.323c0 0 0-5.72 0-6.324 0-0.837-0.803-1.77-1.99-1.77-1.185 0-2.066 0.933-2.066 1.77 0 0.411 0.005 6.324 0.005 6.324h-4.322l-0.002-9.625 4.324-0.003c0 0-0.005 0.774 0 1.012 0.833-0.794 2.032-1.41 3.471-1.452v0zM81.602 12.834c1.627-0.046 4.929 1.019 4.906 4.831-0.004 0.676 0 5.237 0 5.237h-4.325c0 0 0-5.72 0-6.324 0-0.837-0.804-1.77-1.988-1.77-1.186 0-2.068 0.933-2.068 1.77 0 0.411 0.005 6.324 0.005 6.324h-4.32l0.003-9.625 4.317-0.003c0 0-0.005 0.774 0 1.012 0.832-0.794 2.032-1.41 3.469-1.452v0zM64.291 16.633c-0.007-0.842 0.012-1.407 0.289-1.887 0.34-0.593 0.965-0.875 1.532-0.878h-0.002c0.567 0.003 1.191 0.285 1.531 0.878 0.277 0.481 0.29 1.045 0.284 1.887h-3.634zM67.909 19.536c0 0 0.003 0.044 0.003 0.586 0 1.759-1.158 2.15-1.8 2.15s-1.822-0.391-1.822-2.15c0-0.529 0.003-1.988 0.003-1.988s8.2 0.003 8.2-0.002c0-2.985-2.884-5.457-6.423-5.457-3.538 0-6.408 2.419-6.408 5.403s2.871 5.403 6.408 5.403c2.939 0 5.42-1.674 6.177-3.948l-4.339 0.002zM115.002 9.507c0.703 0 1.052 0.239 1.052 0.71 0 0.324-0.201 0.57-0.537 0.655l0.55 1.102h-0.667l-0.471-1.011h-0.297v1.011h-0.598v-2.468h0.968zM114.946 8.544c-1.23 0-2.228 0.997-2.228 2.228s0.998 2.228 2.228 2.228c1.231 0 2.227-0.997 2.227-2.228s-0.996-2.228-2.227-2.228v0zM116.748 10.772c0 0.996-0.806 1.801-1.801 1.801s-1.803-0.806-1.803-1.801 0.808-1.802 1.803-1.802c0.995 0 1.801 0.806 1.801 1.802v0zM114.632 10.603h0.297c0.343 0 0.507-0.104 0.507-0.349 0-0.258-0.177-0.367-0.539-0.367h-0.264v0.716zM17.924 31.063c-9.785-0.003-16.324-6.936-16.324-15.343v0c0-8.409 6.553-15.422 16.308-15.4h92.183c9.757-0.022 16.309 6.991 16.309 15.4v0c0 8.407-6.54 15.341-16.322 15.344l-92.155-0zM17.953 4.101c-7.748 0.015-12.502 5.193-12.502 11.597v0c0 6.405 4.726 11.627 12.502 11.596h92.092c7.777 0.030 12.502-5.191 12.502-11.596v0c0-6.404-4.754-11.581-12.502-11.597h-92.092z"></path>
</svg>
