<!-- Generated by IcoMoon.io -->
<svg version="1.1" xmlns="http://www.w3.org/2000/svg" width="32" height="32" viewBox="0 0 32 32">
<title>untitled25</title>
<path d="M7.862 24.285c0.738 0.739 1.187 1.739 1.19 2.853-0.003 1.113-0.452 2.115-1.187 2.848l-0.003 0.001c-0.738 0.734-1.745 1.182-2.863 1.182s-2.123-0.449-2.86-1.183c-0.735-0.734-1.187-1.734-1.187-2.848s0.452-2.117 1.187-2.853v0c0.738-0.734 1.742-1.186 2.86-1.186s2.125 0.452 2.863 1.186zM7.862 24.285v0c0.001 0 0.001 0 0.001 0h-0.001zM2.139 29.988c0 0 0 0 0-0.001-0.001 0-0.001 0-0.001 0l0.001 0.001zM0.955 11.083v5.823c3.801 0.001 7.396 1.494 10.085 4.189 2.691 2.687 4.177 6.288 4.183 10.101h0.003v0.011h5.845c-0.005-5.546-2.259-10.571-5.903-14.219-3.645-3.647-8.666-5.902-14.212-5.906zM0.966 0.714v5.819c13.585 0.011 24.628 11.073 24.639 24.674h5.834c-0.003-8.406-3.419-16.022-8.94-21.548-5.523-5.524-13.133-8.944-21.534-8.946z"></path>
</svg>
