<!-- Generated by IcoMoon.io -->
<svg version="1.1" xmlns="http://www.w3.org/2000/svg" width="96" height="32" viewBox="0 0 96 32">
<title>untitled32</title>
<path d="M15.45 0c-0.247 1.971-0.493 3.942-0.739 5.913-0.055 0-0.109 0-0.164 0-0.036-0.514-0.264-0.988-0.411-1.396-0.109-0.492-0.219-0.986-0.329-1.478-0.027 0-0.055 0-0.082 0-0.191-0.712-0.383-1.424-0.575-2.135 0.767-0.301 1.533-0.602 2.3-0.903zM18.407 0.247c0.441 0.082 0.802 0.386 1.15 0.575 0.11 0.027 0.219 0.055 0.328 0.082 0.027 0.055 0.055 0.109 0.082 0.164 0.231 0.146 0.489 0.129 0.657 0.329-0.027 0-0.054 0-0.082 0-0.082 0.137-0.164 0.274-0.246 0.411-0.055 0.027-0.11 0.055-0.164 0.082 0 0.055 0 0.109 0 0.164-0.083 0.055-0.164 0.109-0.247 0.164 0 0.055 0 0.109 0 0.164-0.109 0.082-0.219 0.164-0.328 0.246 0 0.055 0 0.11 0 0.164-0.055 0.028-0.109 0.055-0.164 0.082-0.027 0.082-0.055 0.164-0.082 0.246-0.11 0.082-0.219 0.164-0.329 0.247 0 0.054 0 0.109 0 0.164-0.082 0.054-0.164 0.109-0.247 0.164 0 0.054 0 0.109 0 0.164-0.082 0.055-0.164 0.11-0.246 0.164 0 0.055 0 0.11 0 0.164-0.109 0.082-0.219 0.164-0.328 0.246-0.028 0.082-0.055 0.164-0.082 0.246-0.055 0.027-0.109 0.055-0.164 0.082 0 0.055 0 0.109 0 0.164-0.109 0.082-0.219 0.164-0.328 0.246 0 0.055 0 0.11 0 0.164-0.082 0.055-0.164 0.109-0.247 0.164 0 0.055 0 0.11 0 0.164-0.109 0.082-0.219 0.164-0.328 0.246 0 0.055 0 0.109 0 0.164-0.083 0.055-0.164 0.109-0.247 0.164 0 0.055 0 0.109 0 0.164-0.11 0.082-0.219 0.164-0.328 0.246 0-0.055 0-0.109 0-0.164 0.027 0 0.055 0 0.082 0 0.055-0.273 0.109-0.547 0.164-0.821 0.028 0 0.055 0 0.082 0 0-0.082 0-0.164 0-0.246 0.028 0 0.055 0 0.082 0 0-0.082 0-0.164 0-0.247 0.027 0 0.055 0 0.082 0 0-0.109 0-0.219 0-0.328 0.028 0 0.055 0 0.083 0 0-0.082 0-0.164 0-0.246 0.027 0 0.055 0 0.082 0 0-0.082 0-0.164 0-0.246 0.027 0 0.055 0 0.082 0 0-0.082 0-0.164 0-0.246 0.028 0 0.055 0 0.082 0 0.082-0.356 0.164-0.712 0.247-1.068 0.027 0 0.055 0 0.082 0 0-0.109 0-0.219 0-0.328 0.028 0 0.055 0 0.082 0 0-0.082 0-0.164 0-0.247 0.027 0 0.055 0 0.082 0 0-0.082 0-0.164 0-0.246 0.027 0 0.055 0 0.082 0 0-0.082 0-0.164 0-0.247 0.028 0 0.054 0 0.082 0 0-0.082 0-0.164 0-0.246 0.027 0 0.055 0 0.082 0 0-0.109 0-0.219 0-0.328 0.028 0 0.055 0 0.082 0 0.109-0.384 0.219-0.768 0.328-1.15zM36.968 9.363c-0.109-0.301-0.219-0.602-0.328-0.903-0.027 0-0.055 0-0.082 0-0.055-0.164-0.109-0.328-0.165-0.493-0.054-0.028-0.109-0.055-0.164-0.082 0-0.055 0-0.11 0-0.164-0.082-0.055-0.164-0.109-0.246-0.164 0-0.055 0-0.11 0-0.164-0.082-0.055-0.164-0.109-0.247-0.164-0.109-0.137-0.219-0.274-0.328-0.411-0.055 0-0.109 0-0.164 0-0.028-0.055-0.055-0.109-0.083-0.164-0.082-0.027-0.164-0.055-0.246-0.082 0-0.027 0-0.055 0-0.082-0.055 0-0.11 0-0.164 0 0-0.027 0-0.055 0-0.082-0.11-0.027-0.22-0.054-0.329-0.082 0-0.027 0-0.055 0-0.082-0.246-0.055-0.492-0.11-0.739-0.164 0-0.027 0-0.055 0-0.082-0.137 0-0.274 0-0.41 0 0-0.027 0-0.055 0-0.082-0.219 0-0.438 0-0.657 0 0-0.027 0-0.055 0-0.082-0.266-0.074-0.68 0.042-0.821 0.082-0.219 0-0.437 0-0.657 0 0 0.027 0 0.055 0 0.082-0.109 0-0.219 0-0.328 0 0 0.028 0 0.055 0 0.082-0.083 0-0.165 0-0.247 0 0 0.027 0 0.055 0 0.082-0.083 0-0.165 0-0.247 0 0 0.028 0 0.055 0 0.082-0.082 0-0.164 0-0.246 0 0 0.027 0 0.055 0 0.082-0.055 0-0.11 0-0.164 0 0 0.028 0 0.055 0 0.082-0.055 0-0.109 0-0.165 0 0 0.027 0 0.055 0 0.082-0.082 0.028-0.164 0.055-0.246 0.082-0.028 0.055-0.055 0.109-0.082 0.164-0.055 0-0.109 0-0.164 0-0.028 0.055-0.055 0.11-0.083 0.164-0.137 0.109-0.274 0.219-0.41 0.328 0 0.055 0 0.109 0 0.164-0.055 0.027-0.11 0.055-0.164 0.082 0 0.055 0 0.109 0 0.164-0.162 0.29-0.505 1.052-0.328 1.643 0.028 0 0.054 0 0.082 0 0 0.109 0 0.219 0 0.329 0.027 0 0.055 0 0.082 0 0.055 0.164 0.11 0.328 0.165 0.493 0.028 0 0.055 0 0.082 0 0 0.055 0 0.109 0 0.164 0.083 0.055 0.164 0.11 0.247 0.164 0.11 0.137 0.22 0.274 0.329 0.411 0.055 0 0.109 0 0.164 0 0.027 0.055 0.054 0.109 0.082 0.164 0.164 0.055 0.328 0.109 0.493 0.164 0 0.028 0 0.055 0 0.082 0.054 0 0.109 0 0.164 0 0 0.028 0 0.055 0 0.082 0.164 0.055 0.328 0.109 0.492 0.164 0 0.028 0 0.055 0 0.082 0.246 0.055 0.493 0.11 0.74 0.164 0 0.028 0 0.055 0 0.082 0.082 0 0.164 0 0.246 0 0 0.028 0 0.055 0 0.082 0.082 0 0.164 0 0.247 0 0 0.027 0 0.055 0 0.082 0.082 0 0.164 0 0.247 0 0 0.028 0 0.055 0 0.082 0.082 0 0.164 0 0.246 0 0 0.027 0 0.055 0 0.082 0.082 0 0.164 0 0.247 0 0 0.027 0 0.055 0 0.082 0.082 0 0.164 0 0.246 0 0 0.028 0 0.055 0 0.082 0.11 0 0.22 0 0.329 0 0 0.027 0 0.055 0 0.082 0.082 0 0.164 0 0.247 0 0 0.028 0 0.055 0 0.082 0.082 0 0.164 0 0.246 0 0 0.027 0 0.055 0 0.082 0.082 0 0.164 0 0.247 0 0 0.028 0 0.055 0 0.082 0.082 0 0.164 0 0.246 0 0 0.027 0 0.055 0 0.082 0.082 0 0.164 0 0.246 0 0 0.028 0 0.055 0 0.082 0.083 0 0.165 0 0.247 0 0 0.027 0 0.055 0 0.082 0.246 0.055 0.492 0.109 0.739 0.164 0 0.028 0 0.055 0 0.082 0.054 0 0.109 0 0.164 0 0 0.027 0 0.055 0 0.082 0.083 0 0.164 0 0.247 0 0 0.028 0 0.055 0 0.082 0.109 0.027 0.219 0.055 0.328 0.082 0 0.028 0 0.055 0 0.082 0.055 0 0.11 0 0.164 0 0 0.028 0 0.055 0 0.082 0.138 0.028 0.274 0.055 0.411 0.082 0.027 0.055 0.054 0.109 0.082 0.164 0.055 0 0.11 0 0.164 0 0 0.028 0 0.055 0 0.082 0.055 0 0.11 0 0.164 0l0.164 0.164c0.054 0 0.11 0 0.164 0 0.028 0.055 0.055 0.11 0.082 0.164 0.055 0 0.11 0 0.164 0 0.028 0.055 0.055 0.109 0.082 0.164 0.055 0 0.11 0 0.164 0 0.055 0.082 0.11 0.164 0.164 0.246 0.055 0 0.11 0 0.164 0 0.082 0.109 0.164 0.219 0.247 0.329 0.055 0 0.109 0 0.164 0 0.137 0.164 0.274 0.328 0.41 0.493 0.055 0.027 0.11 0.055 0.164 0.082 0 0.054 0 0.109 0 0.164 0.11 0.082 0.219 0.164 0.328 0.246 0 0.055 0 0.11 0 0.164 0.055 0.027 0.11 0.055 0.164 0.082 0.028 0.109 0.055 0.219 0.082 0.328 0.027 0 0.055 0 0.082 0 0.055 0.164 0.11 0.329 0.164 0.493 0.027 0 0.054 0 0.082 0 0.028 0.164 0.055 0.328 0.082 0.493 0.028 0 0.055 0 0.083 0 0 0.082 0 0.164 0 0.246 0.027 0 0.055 0 0.082 0 0 0.137 0 0.274 0 0.411 0.028 0 0.055 0 0.083 0 0.027 0.821 0.054 1.643 0.082 2.464-0.028 0-0.055 0-0.082 0-0.028 0.329-0.055 0.657-0.083 0.986-0.027 0-0.055 0-0.082 0 0 0.082 0 0.164 0 0.246-0.028 0-0.054 0-0.083 0 0 0.109 0 0.219 0 0.328-0.027 0-0.054 0-0.082 0 0 0.055 0 0.109 0 0.164-0.028 0-0.055 0-0.082 0 0 0.082 0 0.164 0 0.246-0.028 0-0.055 0-0.082 0-0.027 0.109-0.055 0.219-0.082 0.329-0.028 0-0.055 0-0.082 0-0.027 0.109-0.055 0.219-0.082 0.329-0.055 0.027-0.109 0.054-0.164 0.082-0.028 0.11-0.054 0.219-0.082 0.329-0.082 0.055-0.164 0.109-0.246 0.164-0.916 1.293-2.184 1.935-3.86 2.464-0.52 0.055-1.041 0.109-1.561 0.164 0 0.028 0 0.055 0 0.082-0.931 0-1.861 0-2.793 0 0-0.028 0-0.055 0-0.082-0.192 0-0.383 0-0.575 0 0-0.027 0-0.055 0-0.082-0.164 0-0.328 0-0.492 0 0-0.027 0-0.054 0-0.082-0.109 0-0.219 0-0.329 0 0-0.027 0-0.055 0-0.082-0.109 0-0.219 0-0.328 0-1.096-0.39-2.086-0.934-2.956-1.56-0.192-0.219-0.383-0.438-0.575-0.657-0.164-0.137-0.328-0.274-0.493-0.411 0-0.055 0-0.11 0-0.164-0.082-0.055-0.164-0.11-0.246-0.164 0-0.055 0-0.11 0-0.164-0.082-0.055-0.164-0.11-0.246-0.164 0-0.055 0-0.109 0-0.164-0.055-0.027-0.109-0.055-0.165-0.082-0.027-0.109-0.055-0.219-0.082-0.328-0.055-0.027-0.109-0.055-0.164-0.082-0.028-0.109-0.055-0.219-0.083-0.329-0.262-0.488-0.568-0.884-0.575-1.643 0.246-0.137 0.493-0.274 0.739-0.411 0.028-0.055 0.055-0.11 0.083-0.164 0.055 0 0.109 0 0.164 0 0.028-0.055 0.055-0.109 0.083-0.164 0.055 0 0.109 0 0.164 0 0.027-0.055 0.055-0.11 0.082-0.164 0.055 0 0.109 0 0.164 0 0.028-0.055 0.055-0.109 0.082-0.164 0.055 0 0.11 0 0.165 0 0.027-0.055 0.055-0.11 0.082-0.164 0.054 0 0.11 0 0.164 0 0.027-0.055 0.055-0.109 0.082-0.164 0.055 0 0.11 0 0.165 0 0.027-0.055 0.055-0.11 0.082-0.164 0.055 0 0.109 0 0.164 0 0-0.027 0-0.055 0-0.082 0.121-0.081 0.204-0.066 0.411-0.082 0.041 0.081 0.156 0.148 0.164 0.164 0.027 0.164 0.055 0.329 0.082 0.493 0.027 0 0.055 0 0.082 0 0.055 0.164 0.11 0.328 0.164 0.493 0.028 0 0.055 0 0.082 0 0.027 0.109 0.055 0.219 0.082 0.328 0.055 0.028 0.109 0.055 0.164 0.082 0 0.055 0 0.11 0 0.164 0.027 0 0.054 0 0.082 0 0.028 0.082 0.055 0.164 0.083 0.247 0.054 0.027 0.109 0.054 0.164 0.082 0 0.055 0 0.109 0 0.164 0.164 0.137 0.328 0.274 0.493 0.411 0.69 0.943 1.79 1.507 3.039 1.889 0.63 0.027 1.26 0.054 1.889 0.082 0-0.028 0-0.055 0-0.082 0.192 0 0.383 0 0.575 0 0-0.028 0-0.055 0-0.082 0.11 0 0.22 0 0.329 0 0-0.028 0-0.055 0-0.082 0.109 0 0.219 0 0.328 0 0-0.028 0-0.055 0-0.082 0.055 0 0.11 0 0.165 0 0-0.027 0-0.055 0-0.082 0.082 0 0.164 0 0.246 0 0-0.027 0-0.055 0-0.082 0.164-0.055 0.328-0.109 0.493-0.164 0.028-0.055 0.054-0.109 0.082-0.164 0.054 0 0.109 0 0.164 0 0.137-0.164 0.274-0.329 0.411-0.493 0.082-0.054 0.164-0.11 0.246-0.164 0-0.054 0-0.109 0-0.164 0.055-0.027 0.11-0.054 0.164-0.082 0.028-0.11 0.055-0.219 0.082-0.329 0.149-0.305 0.42-1.226 0.247-1.807-0.554-1.861-1.946-2.4-3.614-3.121-0.082 0-0.164 0-0.246 0 0-0.028 0-0.055 0-0.082-0.082 0-0.164 0-0.246 0 0-0.028 0-0.055 0-0.082-0.082 0-0.164 0-0.247 0 0-0.028 0-0.055 0-0.082-0.082 0-0.164 0-0.246 0 0-0.028 0-0.055 0-0.082-0.083 0-0.165 0-0.247 0 0-0.027 0-0.055 0-0.082-0.083 0-0.164 0-0.247 0 0-0.028 0-0.055 0-0.082-0.082 0-0.164 0-0.246 0 0-0.028 0-0.055 0-0.082-0.082 0-0.164 0-0.247 0 0-0.028 0-0.055 0-0.082-0.054 0-0.109 0-0.164 0 0-0.028 0-0.055 0-0.082-0.247-0.055-0.493-0.109-0.74-0.164 0-0.027 0-0.055 0-0.082-0.246-0.055-0.493-0.109-0.739-0.164 0-0.028 0-0.055 0-0.082-0.055 0-0.11 0-0.164 0 0-0.027 0-0.055 0-0.082-0.082 0-0.164 0-0.247 0 0-0.028 0-0.055 0-0.082-0.054 0-0.109 0-0.164 0 0-0.028 0-0.055 0-0.082-0.082 0-0.164 0-0.247 0 0-0.028 0-0.055 0-0.082-0.164-0.055-0.328-0.109-0.492-0.164 0-0.028 0-0.055 0-0.082-0.055 0-0.11 0-0.165 0 0-0.028 0-0.055 0-0.082-0.055 0-0.109 0-0.164 0 0-0.027 0-0.054 0-0.082-0.054 0-0.109 0-0.164 0l-0.164-0.164c-0.055 0-0.11 0-0.164 0 0-0.028 0-0.055 0-0.082-0.082-0.027-0.164-0.054-0.246-0.082-0.027-0.055-0.055-0.109-0.082-0.164-0.055 0-0.11 0-0.164 0-0.383-0.329-0.767-0.657-1.15-0.986 0-0.055 0-0.109 0-0.164-0.083-0.055-0.164-0.109-0.247-0.164 0-0.055 0-0.109 0-0.164-0.055-0.028-0.109-0.055-0.165-0.082-0.027-0.109-0.054-0.219-0.082-0.329-0.027 0-0.055 0-0.082 0-0.054-0.164-0.109-0.328-0.164-0.493-0.028 0-0.055 0-0.082 0 0-0.082 0-0.164 0-0.246-0.263-0.665-0.52-2.129-0.247-3.039 0-0.137 0-0.274 0-0.411 0.935-2.928 2.555-4.028 5.503-4.928 0.164 0 0.328 0 0.492 0 0-0.028 0-0.055 0-0.082 0.657-0.027 1.314-0.055 1.971-0.082 0 0.027 0 0.055 0 0.082 0.246 0 0.492 0 0.74 0 0.465 0.055 0.931 0.11 1.396 0.164 0 0.028 0 0.055 0 0.082 0.109 0 0.219 0 0.328 0 0 0.027 0 0.054 0 0.082 0.11 0 0.22 0 0.329 0 0 0.028 0 0.055 0 0.082 0.083 0 0.164 0 0.247 0 0 0.027 0 0.054 0 0.082 0.082 0 0.164 0 0.246 0 0 0.028 0 0.055 0 0.082 0.082 0 0.164 0 0.246 0 0 0.027 0 0.054 0 0.082 0.164 0.055 0.328 0.11 0.493 0.164 0 0.028 0 0.055 0 0.082 0.054 0 0.11 0 0.164 0 0 0.027 0 0.054 0 0.082 0.11 0.028 0.219 0.055 0.328 0.082 0.028 0.054 0.055 0.109 0.082 0.164 0.055 0 0.109 0 0.164 0 0.028 0.055 0.054 0.11 0.082 0.164 0.055 0 0.11 0 0.164 0 0.055 0.082 0.11 0.164 0.164 0.246 0.055 0 0.11 0 0.164 0 0.028 0.055 0.055 0.109 0.083 0.164 0.192 0.164 0.383 0.329 0.575 0.493 0 0.055 0 0.109 0 0.164 0.11 0.082 0.219 0.164 0.328 0.246 0 0.055 0 0.109 0 0.164 0.055 0.028 0.11 0.055 0.164 0.082 0 0.055 0 0.109 0 0.164 0.055 0.027 0.11 0.055 0.164 0.082 0 0.055 0 0.11 0 0.164 0.055 0.028 0.11 0.055 0.164 0.082 0.027 0.109 0.055 0.219 0.082 0.328 0.028 0 0.055 0 0.082 0 0 0.055 0 0.11 0 0.164 0.028 0 0.055 0 0.082 0 0.134 0.253 0.231 0.549 0.247 0.904-0.876 0.629-1.752 1.259-2.628 1.889-0.11-0.001-0.22-0.001-0.33-0.001zM46.742 10.924c0.055 0 0.11 0 0.164 0 0.258-0.444 0.715-0.548 1.15-0.821 0.028-0.055 0.055-0.11 0.082-0.164 0.137-0.027 0.273-0.055 0.411-0.082 0-0.027 0-0.055 0-0.082 0.054 0 0.109 0 0.164 0 0-0.027 0-0.054 0-0.082 0.082 0 0.164 0 0.246 0 0.751-0.298 1.622-0.412 2.71-0.411 0.247 0 0.493 0 0.74 0 0 0.027 0 0.055 0 0.082 0.219 0 0.438 0 0.657 0 0.575 0.192 1.15 0.384 1.725 0.575 0.028 0.055 0.055 0.11 0.082 0.164 0.109 0.027 0.219 0.055 0.328 0.082 0.028 0.055 0.055 0.109 0.082 0.164 0.055 0 0.109 0 0.164 0 0.055 0.082 0.11 0.164 0.164 0.246 0.054 0 0.109 0 0.164 0 0.273 0.301 0.548 0.602 0.821 0.903 0 0.055 0 0.11 0 0.164 0.055 0.028 0.109 0.055 0.165 0.082 0 0.055 0 0.109 0 0.164 0.054 0.027 0.109 0.055 0.164 0.082 0 0.055 0 0.109 0 0.164 0.027 0 0.055 0 0.082 0 0.027 0.11 0.055 0.219 0.082 0.328 0.028 0 0.054 0 0.082 0 0 0.082 0 0.164 0 0.246 0.027 0 0.055 0 0.082 0 0 0.055 0 0.109 0 0.164 0.028 0 0.055 0 0.083 0 0 0.109 0 0.219 0 0.328 0.367 1.086 0.246 2.825 0.246 4.271 0 2.82 0 5.64 0 8.46-0.668 0.245-2.637 0.086-3.532 0.082-0.337-0.658-0.165-2.4-0.165-3.367 0-2.655 0-5.311 0-7.967-0.082-0.246-0.164-0.493-0.246-0.739-0.028 0-0.055 0-0.082 0 0-0.054 0-0.109 0-0.164-0.055-0.027-0.109-0.055-0.164-0.082 0-0.055 0-0.109 0-0.164-0.165-0.137-0.329-0.274-0.493-0.411-0.027-0.055-0.055-0.109-0.082-0.164-0.054 0-0.109 0-0.164 0-0.028-0.055-0.055-0.109-0.083-0.164-0.055 0-0.109 0-0.164 0 0-0.027 0-0.055 0-0.082-0.055 0-0.109 0-0.164 0 0-0.027 0-0.055 0-0.082-0.083 0-0.164 0-0.247 0 0-0.027 0-0.055 0-0.082-0.448-0.175-1.842-0.264-2.382-0.082 0 0.027 0 0.055 0 0.082-0.082 0-0.164 0-0.246 0 0 0.028 0 0.055 0 0.082-0.082 0-0.164 0-0.246 0 0 0.027 0 0.055 0 0.082-0.083 0-0.164 0-0.247 0 0 0.028 0 0.055 0 0.082-0.109 0.027-0.219 0.055-0.328 0.082 0 0.028 0 0.055 0 0.082-0.055 0-0.11 0-0.165 0-0.028 0.055-0.055 0.109-0.082 0.164-0.055 0-0.109 0-0.164 0-0.055 0.082-0.11 0.164-0.164 0.246-0.055 0-0.11 0-0.164 0 0 0.028 0 0.055 0 0.082-0.083 0.055-0.164 0.11-0.247 0.164 0 0.055 0 0.109 0 0.164-0.083 0.055-0.164 0.11-0.247 0.164 0 0.055 0 0.11 0 0.164-0.055 0.028-0.109 0.055-0.164 0.082-0.055 0.164-0.109 0.328-0.164 0.493-0.027 0-0.055 0-0.082 0 0 0.055 0 0.109 0 0.164-0.028 0-0.054 0-0.082 0 0 0.082 0 0.164 0 0.246-0.027 0-0.054 0-0.082 0 0 3.613 0 7.228 0 10.841-0.668 0.245-2.637 0.086-3.532 0.082-0.197-0.541-0.082-1.531-0.082-2.218 0-1.56 0-3.121 0-4.682 0-5.31 0-10.623 0-15.933 0.668-0.246 2.637-0.086 3.532-0.082 0.22 0.603 0.082 1.711 0.082 2.464 0.001 1.779 0.001 3.559 0.001 5.339zM22.349 3.942c0.164 0.794 0.328 1.588 0.493 2.382-1.67 0.575-3.34 1.15-5.010 1.725 0-0.027 0-0.055 0-0.082 0.028 0 0.054 0 0.082 0 0.173-0.294 0.506-0.424 0.739-0.657 0.247-0.274 0.493-0.548 0.74-0.821 0.055 0 0.109 0 0.164 0 0.027-0.055 0.055-0.109 0.082-0.164 0.137-0.109 0.274-0.219 0.41-0.329 0.164-0.192 0.329-0.383 0.493-0.575 0.055 0 0.109 0 0.164 0 0-0.027 0-0.055 0-0.082 0.082-0.055 0.164-0.109 0.246-0.164 0.247-0.274 0.493-0.547 0.74-0.821 0.055 0 0.11 0 0.164 0 0.21-0.152 0.137-0.315 0.492-0.411zM21.035 18.48c-0.028-0.055-0.055-0.109-0.083-0.164-0.055 0-0.109 0-0.164 0 0-0.028 0-0.055 0-0.082-0.055 0-0.109 0-0.164 0-0.027-0.055-0.054-0.11-0.082-0.164-0.11-0.028-0.219-0.055-0.329-0.082-0.027-0.055-0.055-0.11-0.082-0.164-0.083-0.028-0.164-0.055-0.247-0.082 0-0.028 0-0.055 0-0.082-0.054 0-0.109 0-0.164 0 0-0.028 0-0.055 0-0.082-0.055 0-0.11 0-0.164 0-0.028-0.055-0.055-0.109-0.082-0.164-0.055 0-0.109 0-0.164 0 0-0.028 0-0.055 0-0.082-0.055 0-0.11 0-0.164 0-0.027-0.055-0.055-0.11-0.082-0.164-0.055 0-0.11 0-0.164 0 0-0.028 0-0.055 0-0.082-0.235 0.004-0.352 0.029-0.492 0.082-0.333 1.868-0.943 3.431-2.218 4.353-0.11 0.137-0.22 0.274-0.329 0.411-0.055 0-0.109 0-0.164 0-0.027 0.055-0.055 0.109-0.082 0.164-0.055 0-0.109 0-0.164 0-0.027 0.055-0.055 0.109-0.082 0.164-0.164 0.055-0.329 0.109-0.493 0.164 0 0.027 0 0.055 0 0.082-0.109 0.027-0.219 0.055-0.328 0.082 0 0.027 0 0.055 0 0.082-0.164 0.027-0.329 0.055-0.493 0.082 0 0.027 0 0.055 0 0.082-0.082 0-0.164 0-0.246 0 0 0.027 0 0.055 0 0.082-0.312 0.11-1.991 0.305-2.464 0.164 0-0.028 0-0.055 0-0.082-0.109 0-0.219 0-0.329 0 0-0.028 0-0.055 0-0.082-0.109 0-0.219 0-0.328 0 0-0.028 0-0.055 0-0.082-0.082 0-0.164 0-0.246 0 0-0.027 0-0.055 0-0.082-0.082 0-0.164 0-0.247 0 0-0.027 0-0.055 0-0.082-0.055 0-0.109 0-0.164 0 0-0.027 0-0.055 0-0.082-0.164-0.055-0.329-0.109-0.493-0.164-0.027-0.055-0.055-0.11-0.082-0.164-0.109-0.027-0.219-0.055-0.329-0.082-0.438-0.411-0.876-0.821-1.314-1.232-0.137-0.152-0.171-0.361-0.329-0.493 0-0.054 0-0.109 0-0.164 0.5-0.114 0.908-0.44 1.314-0.657 0.055 0 0.109 0 0.164 0 0-0.027 0-0.054 0-0.082 0.055 0 0.11 0 0.164 0l0.164-0.164c0.055 0 0.109 0 0.164 0 0.027-0.055 0.055-0.109 0.082-0.164 0.055 0 0.11 0 0.164 0l0.164-0.164c0.055 0 0.11 0 0.164 0 0-0.027 0-0.055 0-0.082 0.055 0 0.109 0 0.164 0 0-0.027 0-0.054 0-0.082 0.055 0 0.11 0 0.164 0 0-0.028 0-0.055 0-0.082 0.055 0 0.109 0 0.164 0 0-0.027 0-0.054 0-0.082 0.055 0 0.11 0 0.164 0 0-0.027 0-0.055 0-0.082 0.055 0 0.109 0 0.164 0 0-0.027 0-0.054 0-0.082 0.055 0 0.11 0 0.164 0 0-0.027 0-0.055 0-0.082 0.109-0.028 0.219-0.055 0.329-0.082 0-0.028 0-0.055 0-0.082 0.164-0.055 0.328-0.11 0.493-0.164 0.027-0.055 0.055-0.109 0.082-0.164 0.164-0.055 0.328-0.11 0.493-0.164 0-0.028 0-0.055 0-0.082 0.109-0.028 0.219-0.055 0.329-0.082 0-0.028 0-0.055 0-0.082 0.109-0.028 0.219-0.055 0.328-0.082 0-0.028 0-0.055 0-0.082 0.055 0 0.11 0 0.164 0 0-0.028 0-0.055 0-0.082 0.055 0 0.109 0 0.164 0 0-0.028 0-0.055 0-0.082 0.055 0 0.109 0 0.164 0l0.164-0.164c0.11-0.028 0.219-0.055 0.329-0.082 0.027-0.055 0.055-0.11 0.082-0.164 0.164-0.055 0.328-0.11 0.493-0.164 0-0.028 0-0.055 0-0.082 0.055 0 0.11 0 0.164 0 0-0.028 0-0.055 0-0.082 0.055 0 0.109 0 0.164 0 0-0.027 0-0.055 0-0.082 0.055 0 0.11 0 0.164 0 0-0.028 0-0.055 0-0.082 0.055 0 0.109 0 0.164 0 0-0.028 0-0.055 0-0.082 0.055 0 0.11 0 0.164 0 0-0.028 0-0.055 0-0.082 0.109-0.028 0.219-0.055 0.329-0.082 0-0.028 0-0.055 0-0.082 0.054 0 0.109 0 0.164 0 0-0.028 0-0.055 0-0.082 0.055 0 0.11 0 0.164 0l0.164-0.164c0.055 0 0.109 0 0.164 0 0.027-0.055 0.055-0.11 0.082-0.164 0.164-0.055 0.329-0.109 0.493-0.164 0-0.028 0-0.055 0-0.082 0.055 0 0.109 0 0.164 0 0-0.027 0-0.055 0-0.082 0.055 0 0.109 0 0.164 0 0-0.027 0-0.055 0-0.082 0.055 0 0.11 0 0.165 0 0-0.027 0-0.055 0-0.082 0.055 0 0.109 0 0.164 0 0-0.027 0-0.055 0-0.082 0.109-0.028 0.219-0.055 0.328-0.082 0-0.027 0-0.055 0-0.082 0.055 0 0.11 0 0.164 0 0-0.028 0-0.055 0-0.082 0.055 0 0.109 0 0.164 0l0.164-0.164c0.055 0 0.109 0 0.164 0 0.028-0.055 0.055-0.109 0.082-0.164 0.164-0.055 0.329-0.11 0.493-0.164 0.274-0.164 0.548-0.329 0.821-0.493-0.036-0.345-0.151-0.359-0.246-0.575 0-0.082 0-0.164 0-0.246-0.027 0-0.055 0-0.082 0-0.028-0.109-0.055-0.219-0.082-0.329-0.028 0-0.055 0-0.082 0-0.028-0.109-0.055-0.219-0.082-0.328-0.055-0.027-0.109-0.055-0.164-0.082-0.055-0.164-0.11-0.329-0.164-0.493-0.055-0.027-0.11-0.054-0.164-0.082 0-0.055 0-0.11 0-0.164-0.055-0.027-0.109-0.055-0.164-0.082 0-0.054 0-0.109 0-0.164-0.055-0.027-0.11-0.054-0.165-0.082 0-0.055 0-0.109 0-0.164-0.082-0.055-0.164-0.11-0.246-0.164 0-0.055 0-0.109 0-0.164-0.082-0.055-0.165-0.11-0.247-0.164 0-0.055 0-0.109 0-0.164-0.192-0.164-0.383-0.329-0.575-0.493 0-0.055 0-0.109 0-0.164-0.082-0.055-0.164-0.109-0.247-0.164-0.027-0.055-0.055-0.109-0.082-0.164-0.055 0-0.109 0-0.164 0-0.165-0.192-0.329-0.383-0.493-0.575-0.055 0-0.109 0-0.164 0-0.055-0.082-0.11-0.164-0.164-0.247-0.055 0-0.11 0-0.164 0-0.028-0.055-0.055-0.109-0.082-0.164-0.055 0-0.109 0-0.164 0-0.028-0.055-0.055-0.109-0.082-0.164-0.055 0-0.11 0-0.165 0-0.027-0.055-0.055-0.109-0.082-0.164-0.164-0.055-0.329-0.109-0.493-0.164 0-0.027 0-0.055 0-0.082-0.055 0-0.109 0-0.164 0 0-0.028 0-0.055 0-0.082-0.164-0.055-0.328-0.109-0.493-0.164 0-0.027 0-0.055 0-0.082-0.082 0-0.164 0-0.246 0 0-0.028 0-0.055 0-0.082-0.082 0-0.164 0-0.247 0 0-0.027 0-0.055 0-0.082-0.082 0-0.164 0-0.246 0 0-0.028 0-0.055 0-0.082-0.082 0-0.164 0-0.246 0 0-0.027 0-0.055 0-0.082-0.109 0-0.219 0-0.329 0 0-0.028 0-0.055 0-0.082-0.164 0-0.328 0-0.493 0-0.362-0.106-1.44-0.312-1.971-0.164 0 0.027 0 0.055 0 0.082-0.247 0-0.493 0-0.74 0 0 0.027 0 0.055 0 0.082-0.164 0-0.329 0-0.493 0 0 0.027 0 0.054 0 0.082-0.11 0-0.219 0-0.329 0 0 0.027 0 0.055 0 0.082-0.11 0-0.219 0-0.328 0 0 0.027 0 0.055 0 0.082-0.11 0-0.219 0-0.329 0-0.575 0.246-1.15 0.493-1.725 0.739-0.027 0.055-0.055 0.11-0.082 0.164-0.109 0.027-0.219 0.055-0.329 0.082-0.027 0.055-0.055 0.109-0.082 0.164-0.055 0-0.109 0-0.164 0-0.027 0.055-0.055 0.109-0.082 0.164-0.082 0.027-0.164 0.055-0.246 0.082-0.055 0.082-0.11 0.164-0.164 0.247-0.055 0-0.11 0-0.164 0-0.219 0.246-0.438 0.493-0.657 0.739-0.164 0.137-0.329 0.274-0.493 0.411 0 0.055 0 0.109 0 0.164-0.082 0.055-0.164 0.11-0.246 0.164 0 0.054 0 0.109 0 0.164-0.082 0.055-0.164 0.11-0.246 0.164 0 0.054 0 0.109 0 0.164-0.055 0.027-0.109 0.055-0.164 0.082-0.028 0.109-0.055 0.219-0.082 0.328-0.055 0.028-0.109 0.055-0.164 0.082-0.027 0.109-0.055 0.219-0.082 0.329-0.028 0-0.055 0-0.082 0-0.055 0.164-0.109 0.328-0.164 0.493-0.028 0-0.055 0-0.082 0 0 0.082 0 0.164 0 0.246-0.028 0-0.055 0-0.082 0 0 0.055 0 0.11 0 0.164-0.027 0-0.055 0-0.082 0-0.055 0.246-0.109 0.493-0.164 0.739-0.028 0-0.055 0-0.082 0-0.027 0.219-0.055 0.438-0.082 0.657-0.028 0-0.055 0-0.082 0-0.028 0.438-0.055 0.876-0.082 1.314-0.027 0-0.055 0-0.082 0 0 0.411 0 0.821 0 1.232 0.027 0 0.055 0 0.082 0 0 0.274 0 0.548 0 0.821 0.028 0 0.055 0 0.082 0 0 0.192 0 0.383 0 0.575 0.192 0.684 0.383 1.369 0.575 2.053 0.027 0 0.055 0 0.082 0 0.055 0.164 0.109 0.329 0.164 0.493 0.027 0 0.055 0 0.082 0 0 0.054 0 0.109 0 0.164 0.027 0 0.055 0 0.082 0 0 0.055 0 0.11 0 0.164 0.027 0 0.055 0 0.082 0 0.055 0.164 0.109 0.329 0.164 0.493 0.027 0 0.055 0 0.082 0 0.027 0.082 0.055 0.164 0.082 0.247 0.055 0.028 0.109 0.055 0.164 0.082 0.028 0.11 0.055 0.219 0.082 0.328 0.055 0.027 0.109 0.055 0.164 0.082 0 0.055 0 0.109 0 0.164 0.055 0.027 0.11 0.055 0.164 0.082 0.027 0.082 0.055 0.164 0.082 0.246 0.082 0.055 0.164 0.109 0.246 0.164 0 0.055 0 0.109 0 0.164 0.164 0.137 0.328 0.274 0.493 0.411 0 0.055 0 0.11 0 0.164 0.055 0.028 0.11 0.055 0.164 0.082 0.137 0.164 0.274 0.329 0.411 0.493 0.054 0 0.109 0 0.164 0 0.137 0.164 0.274 0.329 0.411 0.493 0.055 0 0.109 0 0.164 0 0.055 0.082 0.11 0.164 0.164 0.246 0.055 0 0.109 0 0.164 0 0.027 0.054 0.055 0.109 0.082 0.164 0.082 0.027 0.164 0.054 0.247 0.082 0 0.027 0 0.055 0 0.082 0.055 0 0.109 0 0.164 0 0.027 0.054 0.055 0.109 0.082 0.164 0.164 0.054 0.328 0.109 0.493 0.164 0 0.027 0 0.054 0 0.082 0.055 0 0.109 0 0.164 0 0 0.028 0 0.055 0 0.082 0.164 0.054 0.328 0.109 0.493 0.164 0 0.027 0 0.054 0 0.082 0.082 0 0.164 0 0.247 0 0 0.028 0 0.055 0 0.082 0.055 0 0.109 0 0.164 0 0 0.027 0 0.054 0 0.082 0.246 0.055 0.493 0.109 0.74 0.164 0 0.028 0 0.055 0 0.082 0.109 0 0.219 0 0.329 0 0.811 0.273 2.639 0.541 3.696 0.246 0.219 0 0.438 0 0.657 0 0.466-0.137 0.931-0.274 1.396-0.411 0-0.027 0-0.055 0-0.082 0.11-0.028 0.219-0.055 0.328-0.082 0-0.027 0-0.055 0-0.082 0.137-0.028 0.274-0.055 0.411-0.082 0.027-0.055 0.055-0.11 0.082-0.164 0.164-0.055 0.329-0.11 0.493-0.164 0.027-0.055 0.055-0.11 0.082-0.164 0.055 0 0.109 0 0.164 0 0.027-0.055 0.055-0.11 0.082-0.164 0.055 0 0.11 0 0.165 0 0.055-0.082 0.109-0.164 0.164-0.247 0.055 0 0.109 0 0.164 0 0.082-0.109 0.164-0.219 0.246-0.328 0.055 0 0.109 0 0.164 0 0.055-0.082 0.11-0.164 0.165-0.246 0.219-0.192 0.438-0.383 0.657-0.575 0-0.055 0-0.11 0-0.164 0.11-0.082 0.219-0.164 0.328-0.247 0-0.055 0-0.109 0-0.164 0.082-0.055 0.164-0.109 0.247-0.164 0-0.055 0-0.109 0-0.164 0.054-0.027 0.109-0.055 0.164-0.082 0-0.055 0-0.11 0-0.164 0.055-0.027 0.11-0.055 0.164-0.082 0.027-0.082 0.055-0.164 0.082-0.246 0.028 0 0.055 0 0.083 0 0.027-0.109 0.055-0.219 0.082-0.329 0.055-0.027 0.11-0.054 0.165-0.082 0-0.054 0-0.11 0-0.164 0.027 0 0.054 0 0.082 0 0.027-0.109 0.055-0.219 0.082-0.329 0.028 0 0.055 0 0.082 0 0.027-0.109 0.055-0.219 0.082-0.328 0.027 0 0.055 0 0.082 0 0-0.082 0-0.164 0-0.246 0.027 0 0.055 0 0.082 0 0-0.055 0-0.109 0-0.164 0.027 0 0.055 0 0.082 0 0.028-0.137 0.055-0.274 0.083-0.411 0.027 0 0.054 0 0.081 0 0-0.082 0-0.164 0-0.247 0.028 0 0.055 0 0.083 0 0.055-0.273 0.109-0.548 0.164-0.821 0.028 0 0.055 0 0.083 0 0.002-0.732-0.015-0.403-0.41-0.658zM7.155 16.837c-0.055 0-0.109 0-0.164 0 0 0.027 0 0.054 0 0.082-0.055 0-0.109 0-0.164 0-0.249 0.134-0.41 0.347-0.739 0.411-0.093 0.092 0.001 0.035-0.164 0.082-0.626-1.418-0.411-2.79 0.246-4.025 0.055-0.164 0.11-0.328 0.164-0.493 0.055-0.027 0.11-0.055 0.164-0.082 0-0.055 0-0.109 0-0.164 0.055-0.027 0.11-0.055 0.164-0.082 0-0.055 0-0.109 0-0.164 0.027 0 0.055 0 0.082 0 0.156-0.188 0.337-0.305 0.411-0.575 0.27-0.075 0.386-0.253 0.575-0.411 0-0.027 0-0.054 0-0.082 0.055 0 0.109 0 0.164 0 0.027-0.055 0.055-0.11 0.082-0.164 0.055 0 0.11 0 0.164 0 0.028-0.055 0.055-0.109 0.082-0.164 0.109-0.027 0.219-0.055 0.329-0.082 0-0.028 0-0.055 0-0.082 0.164-0.055 0.328-0.109 0.493-0.164 0-0.028 0-0.055 0-0.082 0.164-0.028 0.329-0.055 0.493-0.082 0-0.028 0-0.055 0-0.082 0.192-0.028 0.383-0.055 0.575-0.082 0.947-0.312 1.917-0.15 2.71 0.164 0.082 0 0.164 0 0.246 0 0 0.028 0 0.055 0 0.082 0.055 0 0.11 0 0.164 0 0 0.027 0 0.055 0 0.082 0.109 0.028 0.219 0.055 0.328 0.082 0.027 0.054 0.055 0.109 0.082 0.164 0.055 0 0.11 0 0.164 0 0.055 0.082 0.109 0.164 0.164 0.246 0.055 0 0.11 0 0.164 0 0.137 0.164 0.274 0.329 0.411 0.493 0.082 0.055 0.164 0.109 0.247 0.164 0.142 0.2 0.125 0.357 0.328 0.493-0.092 0.324-0.025 0.106-0.247 0.246 0 0.028 0 0.055 0 0.082-0.054 0-0.109 0-0.164 0-0.027 0.055-0.055 0.109-0.082 0.164-0.109 0.027-0.219 0.055-0.329 0.082 0 0.028 0 0.055 0 0.082-0.055 0-0.109 0-0.164 0 0 0.027 0 0.055 0 0.082-0.055 0-0.11 0-0.164 0l-0.164 0.164c-0.055 0-0.11 0-0.164 0-0.027 0.055-0.055 0.109-0.082 0.164-0.055 0-0.109 0-0.164 0l-0.164 0.164c-0.055 0-0.11 0-0.164 0 0 0.028 0 0.055 0 0.082-0.055 0-0.11 0-0.164 0l-0.164 0.164c-0.055 0-0.109 0-0.164 0-0.027 0.055-0.055 0.11-0.082 0.164-0.055 0-0.109 0-0.164 0l-0.164 0.164c-0.055 0-0.109 0-0.164 0 0 0.028 0 0.055 0 0.082-0.055 0-0.109 0-0.164 0 0 0.028 0 0.055 0 0.082-0.055 0-0.109 0-0.164 0-0.027 0.055-0.055 0.11-0.082 0.164-0.11 0.027-0.219 0.054-0.328 0.082 0 0.027 0 0.055 0 0.082-0.055 0-0.11 0-0.164 0 0 0.027 0 0.055 0 0.082-0.055 0-0.109 0-0.164 0l-0.164 0.164c-0.055 0-0.109 0-0.164 0-0.028 0.055-0.055 0.109-0.082 0.164-0.055 0-0.109 0-0.164 0l-0.164 0.164c-0.055 0-0.109 0-0.164 0 0 0.027 0 0.055 0 0.082-0.055 0-0.11 0-0.164 0 0 0.027 0 0.055 0 0.082-0.055 0-0.109 0-0.164 0 0 0.027 0 0.055 0 0.082-0.055 0-0.11 0-0.164 0-0.027 0.055-0.055 0.109-0.082 0.164-0.164 0.055-0.329 0.109-0.493 0.164 0 0.027 0 0.055 0 0.082-0.109 0.027-0.219 0.054-0.328 0.082-0.027 0.055-0.055 0.11-0.082 0.164-0.109 0.027-0.219 0.055-0.329 0.082 0 0.027 0 0.054 0 0.082-0.055 0-0.109 0-0.164 0 0 0.027 0 0.055 0 0.082-0.055 0-0.11 0-0.164 0l-0.164 0.164c-0.055 0-0.11 0-0.164 0-0.027 0.054-0.055 0.109-0.082 0.164-0.054 0-0.109 0-0.164 0l-0.164 0.164zM94.131 16.837c-0.028 0-0.055 0-0.082 0 0-0.301 0-0.603 0-0.904-0.027 0-0.055 0-0.082 0 0-0.164 0-0.328 0-0.493-0.028 0-0.055 0-0.083 0 0-0.137 0-0.274 0-0.411-0.027 0-0.055 0-0.082 0 0-0.109 0-0.219 0-0.329-0.028 0-0.055 0-0.082 0 0-0.109 0-0.219 0-0.328-0.027 0-0.055 0-0.082 0 0-0.082 0-0.164 0-0.247-0.028 0-0.055 0-0.083 0 0-0.082 0-0.164 0-0.246-0.027 0-0.055 0-0.082 0 0-0.082 0-0.164 0-0.246-0.028 0-0.055 0-0.082 0-0.027-0.109-0.055-0.219-0.082-0.329-0.028 0-0.055 0-0.083 0 0-0.082 0-0.164 0-0.246-0.028 0-0.055 0-0.082 0 0-0.055 0-0.109 0-0.164-0.027 0-0.055 0-0.082 0 0-0.055 0-0.109 0-0.164-0.054-0.027-0.109-0.055-0.165-0.082-0.027-0.109-0.055-0.219-0.082-0.328-0.028 0-0.055 0-0.082 0-0.027-0.082-0.055-0.164-0.082-0.247-0.055-0.027-0.11-0.054-0.164-0.082 0-0.055 0-0.11 0-0.164-0.109-0.082-0.219-0.164-0.328-0.246 0-0.054 0-0.109 0-0.164-0.055-0.027-0.109-0.054-0.165-0.082-0.136-0.164-0.273-0.328-0.41-0.493-0.055 0-0.11 0-0.164 0-0.083-0.109-0.164-0.219-0.247-0.329-0.055 0-0.109 0-0.164 0-0.028-0.055-0.055-0.109-0.082-0.164-0.055 0-0.11 0-0.164 0-0.027-0.055-0.055-0.109-0.083-0.164-0.109-0.027-0.219-0.055-0.328-0.082 0-0.027 0-0.055 0-0.082-0.164-0.055-0.328-0.109-0.492-0.164 0-0.027 0-0.055 0-0.082-0.493-0.137-0.986-0.274-1.478-0.411-0.192 0-0.383 0-0.575 0 0-0.027 0-0.055 0-0.082-0.489-0.139-2.287 0.051-2.628 0.164 0 0.027 0 0.055 0 0.082-0.109 0-0.219 0-0.328 0 0 0.027 0 0.055 0 0.082-0.083 0-0.164 0-0.246 0 0 0.027 0 0.055 0 0.082-0.055 0-0.11 0-0.164 0 0 0.028 0 0.055 0 0.082-0.247 0.082-0.493 0.164-0.74 0.246-0.028 0.055-0.055 0.109-0.083 0.164-0.109 0.028-0.219 0.055-0.328 0.082-0.055 0.082-0.109 0.164-0.164 0.246-0.055 0-0.11 0-0.165 0-0.028 0.055-0.055 0.109-0.082 0.164-0.164 0.137-0.328 0.274-0.492 0.411 0 0.054 0 0.109 0 0.164-0.028 0-0.055 0-0.083 0 0.004-0.527 0.064-1.25-0.082-1.642-0.845-0.004-2.655-0.15-3.286 0.082 0 7.281 0 14.565 0 21.847 0.972 0.178 2.643 0.179 3.614 0 0-2.218 0-4.436 0-6.653 0.082 0.055 0.164 0.11 0.247 0.164 0 0.027 0 0.055 0 0.082 0.054 0 0.109 0 0.164 0 0.027 0.054 0.055 0.109 0.082 0.164 0.055 0 0.109 0 0.164 0 0.028 0.054 0.055 0.109 0.082 0.164 0.109 0.027 0.219 0.054 0.328 0.082 0 0.028 0 0.055 0 0.082 0.109 0.027 0.22 0.054 0.329 0.082 0 0.027 0 0.055 0 0.082 0.137 0.027 0.274 0.054 0.411 0.082 0 0.028 0 0.055 0 0.082 0.164 0.027 0.328 0.054 0.493 0.082 0 0.027 0 0.055 0 0.082 0.219 0.028 0.438 0.055 0.657 0.082 0 0.028 0 0.055 0 0.082 0.164 0 0.328 0 0.493 0 1.078 0.315 2.611-0.033 3.367-0.328 0.165-0.027 0.329-0.055 0.493-0.082 0-0.028 0-0.055 0-0.082 0.109-0.028 0.219-0.055 0.328-0.082 0-0.028 0-0.055 0-0.082 0.164-0.055 0.328-0.11 0.492-0.164 0.028-0.055 0.055-0.11 0.083-0.164 0.054 0 0.109 0 0.164 0 0.028-0.055 0.054-0.11 0.082-0.164 0.055 0 0.11 0 0.164 0 0.082-0.109 0.164-0.22 0.247-0.329 0.054 0 0.109 0 0.164 0 0.027-0.055 0.054-0.11 0.082-0.164 0.164-0.137 0.328-0.274 0.493-0.411 0-0.055 0-0.11 0-0.164 0.109-0.082 0.219-0.164 0.328-0.246 0-0.055 0-0.109 0-0.164 0.055-0.028 0.109-0.055 0.164-0.082 0.027-0.082 0.055-0.164 0.082-0.247 0.028 0 0.055 0 0.082 0 0.027-0.109 0.055-0.219 0.082-0.328 0.055-0.028 0.11-0.055 0.165-0.082 0.082-0.247 0.164-0.493 0.247-0.739 0.027 0 0.055 0 0.082 0 0-0.055 0-0.109 0-0.164 0.028 0 0.054 0 0.082 0 0-0.082 0-0.164 0-0.246 0.027 0 0.055 0 0.082 0 0-0.082 0-0.164 0-0.247 0.028 0 0.055 0 0.083 0 0-0.082 0-0.164 0-0.246 0.027 0 0.055 0 0.082 0 0-0.109 0-0.219 0-0.328 0.028 0 0.055 0 0.082 0 0-0.109 0-0.219 0-0.329 0.027 0 0.055 0 0.082 0 0-0.137 0-0.274 0-0.411 0.028 0 0.055 0 0.083 0 0-0.192 0-0.383 0-0.575 0.027 0 0.055 0 0.082 0 0-0.274 0-0.548 0-0.821 0.089-0.309 0.202-1.543 0.083-1.971zM90.353 18.726c0 0.219 0 0.438 0 0.657-0.028 0-0.055 0-0.082 0 0 0.137 0 0.274 0 0.411-0.028 0-0.055 0-0.082 0 0 0.109 0 0.219 0 0.328-0.028 0-0.055 0-0.082 0 0 0.11 0 0.219 0 0.329-0.028 0-0.055 0-0.083 0 0 0.082 0 0.164 0 0.246-0.028 0-0.055 0-0.082 0-0.028 0.11-0.055 0.219-0.082 0.329-0.028 0-0.055 0-0.083 0 0 0.082 0 0.164 0 0.246-0.67 1.259-2.464 2.563-4.517 1.889-0.109 0-0.219 0-0.329 0 0-0.028 0-0.055 0-0.082-0.055 0-0.11 0-0.164 0 0-0.028 0-0.055 0-0.082-0.137-0.028-0.273-0.055-0.41-0.082-0.028-0.055-0.055-0.109-0.082-0.164-0.055 0-0.11 0-0.164 0-0.028-0.055-0.055-0.11-0.083-0.164-0.055 0-0.109 0-0.164 0-0.082-0.109-0.164-0.219-0.247-0.328-0.274-0.247-0.548-0.493-0.821-0.739-0.132-0.136-0.164-0.301-0.329-0.411 0-1.287 0-2.573 0-3.86 0.028-0.657 0.055-1.314 0.082-1.971 0.028 0 0.054 0 0.082 0 0-0.082 0-0.164 0-0.246 0.027 0 0.055 0 0.082 0 0.087-0.222 0.050-0.47 0.164-0.657 0.028 0 0.055 0 0.082 0 0.027-0.082 0.055-0.164 0.082-0.247 0.055-0.027 0.109-0.054 0.164-0.082 0-0.055 0-0.109 0-0.164 0.192-0.164 0.383-0.329 0.575-0.493 0.082-0.109 0.164-0.219 0.246-0.328 0.383-0.192 0.767-0.383 1.15-0.575 0.263-0.094 0.718-0.004 0.903-0.164 1.959 0.032 3.254 1.007 3.86 2.382 0 0.082 0 0.164 0 0.246 0.027 0 0.054 0 0.082 0 0 0.082 0 0.164 0 0.246 0.028 0 0.055 0 0.083 0 0 0.082 0 0.164 0 0.246 0.027 0 0.054 0 0.082 0 0 0.109 0 0.219 0 0.329 0.028 0 0.055 0 0.082 0 0 0.137 0 0.274 0 0.411 0.179 0.595 0.27 1.869 0.082 2.546zM76.309 16.755c0-0.219 0-0.438 0-0.657-0.027 0-0.055 0-0.082 0 0-0.164 0-0.328 0-0.493-0.028 0-0.055 0-0.082 0 0-0.137 0-0.274 0-0.411-0.027 0-0.055 0-0.082 0 0-0.109 0-0.219 0-0.328-0.027 0-0.055 0-0.082 0 0-0.082 0-0.164 0-0.247-0.028 0-0.055 0-0.082 0 0-0.082 0-0.164 0-0.246-0.027 0-0.055 0-0.082 0 0-0.082 0-0.164 0-0.247-0.028 0-0.055 0-0.083 0 0-0.054 0-0.109 0-0.164-0.027 0-0.055 0-0.082 0 0-0.082 0-0.164 0-0.246-0.028 0-0.055 0-0.082 0-0.054-0.164-0.11-0.329-0.164-0.493-0.027 0-0.055 0-0.082 0-0.028-0.109-0.055-0.219-0.083-0.328-0.054-0.027-0.109-0.055-0.164-0.082 0-0.055 0-0.109 0-0.164-0.055-0.027-0.11-0.055-0.164-0.082 0-0.055 0-0.109 0-0.164-0.055-0.027-0.11-0.055-0.164-0.082 0-0.055 0-0.11 0-0.164-0.109-0.082-0.219-0.164-0.328-0.246-0.915-1.274-2.355-1.945-4.024-2.464-0.164 0-0.329 0-0.493 0-0.7-0.205-1.709-0.174-2.628-0.164 0 0.027 0 0.055 0 0.082-0.219 0-0.438 0-0.657 0 0 0.028 0 0.055 0 0.082-0.164 0-0.328 0-0.492 0 0 0.027 0 0.055 0 0.082-0.109 0-0.219 0-0.328 0 0 0.027 0 0.055 0 0.082-0.082 0-0.165 0-0.246 0 0 0.027 0 0.055 0 0.082-0.082 0-0.164 0-0.247 0 0 0.028 0 0.055 0 0.082-0.082 0-0.164 0-0.246 0 0 0.027 0 0.055 0 0.082-0.082 0-0.164 0-0.246 0 0 0.028 0 0.055 0 0.082-0.11 0.027-0.22 0.055-0.328 0.082 0 0.028 0 0.055 0 0.082-0.055 0-0.11 0-0.165 0 0 0.027 0 0.055 0 0.082-0.054 0-0.109 0-0.164 0l-0.165 0.164c-0.054 0-0.109 0-0.164 0-0.028 0.055-0.055 0.109-0.083 0.164-0.055 0-0.11 0-0.164 0 0 0.028 0 0.055 0 0.082-0.082 0.027-0.164 0.055-0.247 0.082-0.028 0.055-0.054 0.109-0.082 0.164-0.055 0-0.109 0-0.164 0-0.137 0.164-0.273 0.328-0.411 0.493-0.054 0-0.109 0-0.164 0-0.055 0.082-0.11 0.164-0.164 0.246-0.027 0-0.054 0-0.082 0 0 0.055 0 0.11 0 0.164-0.137 0.109-0.274 0.219-0.411 0.328 0 0.055 0 0.109 0 0.164-0.083 0.055-0.165 0.109-0.246 0.164 0 0.055 0 0.109 0 0.164-0.055 0.028-0.11 0.055-0.165 0.082-0.027 0.109-0.055 0.219-0.082 0.329-0.054 0.027-0.109 0.055-0.164 0.082-0.028 0.109-0.055 0.219-0.082 0.328-0.028 0-0.055 0-0.082 0-0.027 0.11-0.054 0.219-0.082 0.329-0.028 0-0.055 0-0.082 0 0 0.082 0 0.164 0 0.246-0.028 0-0.055 0-0.083 0 0 0.055 0 0.11 0 0.164-0.027 0-0.055 0-0.082 0 0 0.082 0 0.164 0 0.247-0.028 0-0.054 0-0.082 0 0 0.082 0 0.164 0 0.246-0.027 0-0.055 0-0.082 0 0 0.082 0 0.164 0 0.247-0.028 0-0.055 0-0.082 0 0 0.109 0 0.219 0 0.328-0.027 0-0.055 0-0.082 0 0 0.109 0 0.219 0 0.329-0.027 0-0.055 0-0.082 0 0 0.164 0 0.328 0 0.493-0.028 0-0.055 0-0.083 0 0 0.219 0 0.438 0 0.657-0.028 0-0.055 0-0.082 0 0.028 0.986 0.055 1.971 0.082 2.956 0.028 0 0.055 0 0.083 0 0 0.164 0 0.328 0 0.493 0.191 0.602 0.383 1.205 0.575 1.807 0.028 0 0.055 0 0.082 0 0.028 0.109 0.055 0.219 0.082 0.329 0.028 0 0.055 0 0.082 0 0.027 0.109 0.055 0.219 0.082 0.328 0.055 0.027 0.11 0.055 0.164 0.082 0.028 0.11 0.055 0.219 0.082 0.329 0.027 0 0.055 0 0.082 0 0.028 0.082 0.055 0.164 0.083 0.247 0.055 0.027 0.109 0.054 0.164 0.082 0 0.055 0 0.11 0 0.164 0.137 0.109 0.274 0.219 0.411 0.329 0 0.055 0 0.109 0 0.164 0.055 0.028 0.11 0.055 0.164 0.082 0.109 0.137 0.219 0.274 0.328 0.411 0.055 0 0.11 0 0.164 0 0.083 0.109 0.164 0.219 0.246 0.329 0.055 0 0.11 0 0.164 0 0.054 0.082 0.109 0.164 0.164 0.246 0.055 0 0.11 0 0.164 0 0.028 0.055 0.054 0.109 0.082 0.164 0.165 0.055 0.328 0.109 0.493 0.164 0.028 0.055 0.054 0.109 0.082 0.164 0.137 0.028 0.273 0.055 0.41 0.082 0 0.027 0 0.054 0 0.082 0.11 0.027 0.219 0.055 0.328 0.082 0 0.027 0 0.054 0 0.082 0.274 0.055 0.548 0.109 0.821 0.164 1.026 0.346 2.988 0.511 4.188 0.164 0.164 0 0.328 0 0.493 0 0-0.028 0-0.055 0-0.082 0.11 0 0.219 0 0.328 0 0-0.027 0-0.055 0-0.082 0.082 0 0.164 0 0.246 0 0-0.028 0-0.055 0-0.082 0.082 0 0.164 0 0.246 0 0-0.027 0-0.055 0-0.082 0.083 0 0.164 0 0.247 0 0-0.028 0-0.055 0-0.082 0.054 0 0.109 0 0.164 0 0-0.028 0-0.055 0-0.082 0.246-0.082 0.493-0.164 0.74-0.246 0.027-0.055 0.054-0.11 0.082-0.164 0.11-0.027 0.219-0.055 0.329-0.082 0-0.028 0-0.055 0-0.082 0.082-0.028 0.164-0.055 0.246-0.082 0.027-0.055 0.055-0.109 0.082-0.164 0.054 0 0.11 0 0.164 0 0.082-0.109 0.164-0.219 0.247-0.328 0.055 0 0.11 0 0.164 0 0.164-0.192 0.328-0.383 0.492-0.575 0.082-0.055 0.164-0.109 0.246-0.164 0-0.055 0-0.109 0-0.164 0.082-0.055 0.164-0.11 0.247-0.164 0-0.055 0-0.109 0-0.164 0.082-0.055 0.164-0.109 0.246-0.164 0-0.055 0-0.109 0-0.164 0.028 0 0.055 0 0.083 0 0-0.055 0-0.109 0-0.164 0.055-0.027 0.109-0.055 0.164-0.082 0-0.055 0-0.11 0-0.164l0.164-0.164c0-0.055 0-0.11 0-0.164 0.028 0 0.055 0 0.083 0 0-0.055 0-0.109 0-0.164 0.027 0 0.054 0 0.082 0 0.028-0.11 0.055-0.219 0.082-0.328 0.028 0 0.055 0 0.082 0 0.164-0.575 0.328-1.15 0.493-1.725 0-0.164 0-0.328 0-0.493 0.186-0.634 0.284-2.069 0.082-2.792zM72.695 18.48c-0.028 0-0.055 0-0.083 0 0 0.219 0 0.438 0 0.657-0.028 0-0.055 0-0.082 0 0 0.164 0 0.328 0 0.493-0.028 0-0.055 0-0.082 0 0 0.109 0 0.22 0 0.328-0.028 0-0.055 0-0.083 0 0 0.082 0 0.164 0 0.247-0.027 0-0.055 0-0.082 0 0 0.082 0 0.164 0 0.246-0.028 0-0.055 0-0.082 0 0 0.055 0 0.11 0 0.164-0.028 0-0.055 0-0.082 0 0 0.082 0 0.164 0 0.246-0.028 0-0.055 0-0.082 0 0 0.055 0 0.11 0 0.164-0.028 0-0.055 0-0.082 0 0 0.055 0 0.11 0 0.164-0.054 0.027-0.109 0.055-0.164 0.082 0 0.055 0 0.109 0 0.164-0.055 0.028-0.11 0.055-0.165 0.082 0 0.055 0 0.11 0 0.164-0.082 0.055-0.164 0.11-0.246 0.164 0 0.055 0 0.109 0 0.164-0.028 0-0.055 0-0.083 0-0.082 0.11-0.164 0.219-0.246 0.329-0.055 0-0.11 0-0.164 0-0.055 0.082-0.11 0.164-0.165 0.246-0.055 0-0.11 0-0.164 0-0.027 0.055-0.055 0.109-0.082 0.164-0.055 0-0.11 0-0.165 0 0 0.027 0 0.055 0 0.082-0.109 0.027-0.219 0.055-0.328 0.082 0 0.027 0 0.054 0 0.082-0.164 0.028-0.328 0.055-0.492 0.082 0 0.027 0 0.054 0 0.082-0.109 0-0.219 0-0.328 0 0 0.027 0 0.055 0 0.082-0.165 0-0.329 0-0.493 0 0 0.027 0 0.054 0 0.082-0.264 0.076-0.682-0.042-0.821-0.082-0.164 0-0.328 0-0.493 0 0-0.028 0-0.055 0-0.082-0.109 0-0.22 0-0.328 0 0-0.028 0-0.055 0-0.082-0.082 0-0.164 0-0.247 0 0-0.028 0-0.055 0-0.082-0.164-0.055-0.328-0.109-0.492-0.164 0-0.027 0-0.055 0-0.082-0.055 0-0.11 0-0.164 0-0.027-0.055-0.055-0.11-0.082-0.164-0.055 0-0.11 0-0.164 0-0.055-0.082-0.109-0.164-0.164-0.246-0.055 0-0.11 0-0.164 0-0.028-0.055-0.055-0.109-0.082-0.164-0.137-0.109-0.274-0.219-0.411-0.328 0-0.054 0-0.11 0-0.164-0.082-0.054-0.164-0.109-0.246-0.164 0-0.054 0-0.11 0-0.164-0.055-0.027-0.11-0.054-0.165-0.082 0-0.055 0-0.109 0-0.164-0.028 0-0.055 0-0.082 0-0.055-0.164-0.109-0.329-0.164-0.493-0.028 0-0.055 0-0.083 0 0-0.082 0-0.164 0-0.246-0.027 0-0.055 0-0.082 0 0-0.082 0-0.164 0-0.247-0.028 0-0.055 0-0.082 0 0-0.082 0-0.164 0-0.246-0.027 0-0.055 0-0.082 0 0-0.082 0-0.164 0-0.247-0.028 0-0.055 0-0.083 0-0.028-0.356-0.054-0.712-0.082-1.068-0.084-0.298-0.2-1.138-0.082-1.56 0.027 0 0.054 0 0.082 0 0-0.192 0-0.383 0-0.575 0.028 0 0.054 0 0.082 0 0-0.137 0-0.274 0-0.411 0.028 0 0.055 0 0.083 0 0-0.082 0-0.164 0-0.246 0.027 0 0.055 0 0.082 0 0-0.109 0-0.219 0-0.329 0.028 0 0.054 0 0.082 0 0-0.055 0-0.109 0-0.164 0.027 0 0.054 0 0.082 0 0-0.082 0-0.164 0-0.246 0.028 0 0.055 0 0.083 0 0.028-0.109 0.055-0.219 0.083-0.329 0.027 0 0.054 0 0.082 0 0.028-0.109 0.054-0.219 0.082-0.328 0.055-0.028 0.11-0.055 0.165-0.082 0-0.054 0-0.109 0-0.164 0.109-0.082 0.219-0.164 0.328-0.246 0-0.055 0-0.109 0-0.164 0.027 0 0.054 0 0.082 0 0.082-0.109 0.164-0.219 0.247-0.329 0.054 0 0.109 0 0.164 0 0.083-0.109 0.165-0.219 0.247-0.328 0.11-0.027 0.22-0.055 0.329-0.082 0.027-0.055 0.054-0.109 0.082-0.164 0.438-0.137 0.876-0.274 1.314-0.411 0.602 0.028 1.204 0.055 1.807 0.082 0 0.027 0 0.055 0 0.082 0.165 0.028 0.329 0.055 0.493 0.082 0 0.027 0 0.055 0 0.082 0.164 0.055 0.329 0.109 0.493 0.164 0 0.028 0 0.055 0 0.082 0.055 0 0.109 0 0.164 0 0.028 0.055 0.054 0.109 0.082 0.164 0.055 0 0.109 0 0.164 0 0.164 0.192 0.328 0.383 0.492 0.575 0.109 0.082 0.219 0.164 0.328 0.246 0 0.055 0 0.11 0 0.164 0.055 0.028 0.11 0.055 0.165 0.082 0 0.055 0 0.109 0 0.164 0.055 0.028 0.11 0.055 0.164 0.082 0 0.054 0 0.109 0 0.164 0.027 0 0.055 0 0.082 0 0.027 0.109 0.055 0.219 0.082 0.329 0.027 0 0.055 0 0.082 0 0 0.082 0 0.164 0 0.246 0.027 0 0.054 0 0.082 0 0 0.082 0 0.164 0 0.246 0.028 0 0.055 0 0.082 0 0 0.082 0 0.164 0 0.246 0.028 0 0.055 0 0.083 0 0 0.109 0 0.219 0 0.328 0.027 0 0.054 0 0.082 0 0 0.137 0 0.274 0 0.411 0.095 0.313 0.294 1.589 0.165 2.053z"></path>
</svg>
