<!-- Generated by IcoMoon.io -->
<svg version="1.1" xmlns="http://www.w3.org/2000/svg" width="128" height="32" viewBox="0 0 128 32">
<title>untitled26</title>
<path d="M66.637 16.586h-5.556c-0.805 0-1.46 0.657-1.46 1.461v3.962c0 0.8 0.654 1.459 1.46 1.459h5.556c0.803 0 1.46-0.658 1.46-1.459v-3.962c0-0.804-0.657-1.461-1.46-1.461M66.87 22c0 0.156-0.125 0.285-0.284 0.285h-5.456c-0.158 0-0.284-0.129-0.284-0.285v-3.946c0-0.157 0.126-0.285 0.284-0.285h5.456c0.159 0 0.284 0.128 0.284 0.285v3.946zM2.927 10.656v5.1h-1.277v-6.883h1.092l5.161 5.013v-5.013h1.257v6.883h-0.996zM15.703 10.656v5.1h-1.277v-6.883h1.088l5.163 5.013v-5.013h1.259v6.883h-0.996zM42.179 10.656v5.1h-1.274v-6.883h1.090l5.16 5.013v-5.013h1.258v6.883h-0.993zM12.195 8.874h0.233v6.883h-1.275v-6.883zM30.612 8.874h0.235v1.184h-3.073v5.699h-1.326v-5.699h-3.067v-1.184zM38.775 8.874h0.238v1.184h-5.459v1.543h4.226v1.184h-4.226v1.783h5.459v1.188h-6.724v-6.883zM57.587 9.88c-0.495-0.659-1.232-1.006-2.126-1.006h-5.104v6.882h5.104c0.895 0 1.631-0.349 2.126-1.006 0.469-0.612 0.716-1.452 0.716-2.438 0-0.98-0.247-1.821-0.716-2.431M55.497 14.568h-3.912v-4.51h3.912c1.223 0 1.662 1.216 1.662 2.254 0 1.043-0.439 2.256-1.662 2.256zM66.637 8.874h-5.556c-0.805 0-1.46 0.66-1.46 1.459v3.964c0 0.802 0.654 1.459 1.46 1.459h5.556c0.803 0 1.46-0.657 1.46-1.459v-3.964c0-0.799-0.657-1.459-1.46-1.459M66.87 14.288c0 0.154-0.125 0.283-0.284 0.283h-5.456c-0.158 0-0.284-0.129-0.284-0.283v-3.946c0-0.156 0.126-0.282 0.284-0.282h5.456c0.159 0 0.284 0.127 0.284 0.282v3.946zM108.047 20.58c1.321 0.519 4.112 0.945 6.288 0.945 2.383 0 3.368-0.818 3.368-1.846 0-0.921-0.915-1.46-3.547-2.426-3.517-1.3-6.099-2.326-6.099-4.635 0-2.395 3.107-3.802 7.839-3.802 2.543 0 3.419 0.16 5.031 0.458l0.012 2.27c-1.585-0.301-2.993-0.822-5.174-0.822-2.34 0-3.336 0.744-3.336 1.511 0 1.112 1.532 1.642 4.225 2.601 3.751 1.342 5.836 2.379 5.836 4.641 0 2.328-2.611 4.010-8.501 4.010-2.423 0-4.090-0.16-5.944-0.457v-2.449zM103.030 22.424c-1.387 0.63-4.009 1.028-6.306 1.028h-8.762v-14.604h8.762c2.296 0 4.918 0.403 6.308 1.030 3.375 1.524 4.479 3.962 4.479 6.271 0 2.315-1.093 4.75-4.481 6.274M95.507 10.822h-2.804v10.615h2.804c4.302 0 7.017-1.838 7.017-5.288 0-3.44-2.714-5.327-7.017-5.327zM81.819 15.461c0 0 4.087-0.655 4.087-3.199 0-2.489-4.352-3.508-8.985-3.508-4.18 0-6.928 0.509-6.928 0.509v2.264c1.897-0.46 3.71-0.851 6.187-0.851 2.656 0 4.678 0.791 4.678 1.91 0 1.351-2.002 2.12-6.315 2.12h-1.978v2.036h1.838c4.541 0 7.126 0.681 7.126 2.35 0 1.487-2.306 2.391-5.187 2.391-2.506 0-4.803-0.533-6.665-1.051v2.439c0.895 0.152 3.266 0.628 7.687 0.628 4.894 0 9.153-1.574 9.153-4.347-0-2.327-2.952-3.692-4.699-3.692zM123.679 21.463h-0.46v-0.248h1.227v0.248h-0.469v1.372h-0.298zM126 22.173c-0.008-0.21-0.020-0.46-0.018-0.679h-0.007c-0.054 0.198-0.121 0.416-0.194 0.62l-0.24 0.703h-0.223l-0.218-0.692c-0.060-0.21-0.118-0.429-0.16-0.632h-0.008c-0.009 0.214-0.018 0.468-0.029 0.689l-0.035 0.652h-0.276l0.107-1.62h0.389l0.215 0.653c0.055 0.187 0.104 0.382 0.147 0.561h0.006c0.044-0.174 0.101-0.377 0.163-0.565l0.225-0.65h0.382l0.092 1.62h-0.285l-0.035-0.662z"></path>
</svg>
