<!-- Generated by IcoMoon.io -->
<svg version="1.1" xmlns="http://www.w3.org/2000/svg" width="32" height="32" viewBox="0 0 32 32">
<title>untitled20</title>
<path d="M2.488 0.8h27.023c0.932 0 1.689 0.756 1.689 1.689v27.022c0 0.932-0.756 1.689-1.689 1.689h-27.023c-0.933-0-1.688-0.757-1.688-1.689v-27.022c0-0.932 0.756-1.689 1.688-1.689v0zM24.488 10.926c0.875-0.501 1.546-1.292 1.856-2.23-0.811 0.459-1.715 0.797-2.682 0.974-0.769-0.776-1.863-1.27-3.077-1.27-2.336 0-4.227 1.807-4.227 4.030 0 0.317 0.035 0.628 0.112 0.917-3.514-0.163-6.627-1.772-8.709-4.207-0.36 0.593-0.572 1.285-0.572 2.026 0 1.397 0.748 2.632 1.877 3.352-0.691-0.021-1.341-0.198-1.912-0.501 0 0.014 0 0.028 0 0.049 0 1.955 1.454 3.579 3.388 3.952-0.354 0.093-0.727 0.141-1.115 0.141-0.268 0-0.537-0.029-0.791-0.070 0.537 1.602 2.096 2.765 3.945 2.794-1.446 1.088-3.268 1.73-5.243 1.73-0.346 0-0.678-0.021-1.009-0.057 1.87 1.145 4.086 1.807 6.472 1.807 7.77 0 12.019-6.139 12.019-11.468 0-0.168 0-0.346-0.014-0.515 0.826-0.572 1.546-1.285 2.11-2.089-0.756 0.317-1.574 0.536-2.428 0.635v0z"></path>
</svg>
