<!-- Generated by IcoMoon.io -->
<svg version="1.1" xmlns="http://www.w3.org/2000/svg" width="32" height="32" viewBox="0 0 32 32">
<title>untitled17</title>
<path d="M19.839 0.576c-6.307 0-11.436 5.102-11.436 11.375 0 2.268 0.68 4.38 1.834 6.156l-9.312 9.261 3.627 3.608 9.364-9.313c1.73 1.049 3.753 1.664 5.924 1.664 6.306 0 11.436-5.103 11.436-11.376s-5.13-11.375-11.436-11.375v0zM19.839 18.223c-3.477 0-6.307-2.813-6.307-6.273 0-3.458 2.829-6.272 6.307-6.272 3.476 0 6.306 2.814 6.306 6.272 0 3.459-2.83 6.273-6.306 6.273v0z"></path>
</svg>
