<!-- Generated by IcoMoon.io -->
<svg version="1.1" xmlns="http://www.w3.org/2000/svg" width="32" height="32" viewBox="0 0 32 32">
<title>untitled19</title>
<path d="M2.488 0.8h27.023c0.932 0 1.689 0.756 1.689 1.689v27.022c0 0.932-0.756 1.689-1.689 1.689h-27.023c-0.933-0-1.688-0.757-1.688-1.689v-27.022c0-0.933 0.756-1.689 1.688-1.689v0zM22.994 26.587c2.224 0 4.028-1.775 4.028-3.964v-3.187c0-2.189-1.804-3.966-4.028-3.966h-13.993c-2.225 0-4.028 1.776-4.028 3.966v3.187c0 2.189 1.803 3.964 4.028 3.964h13.993zM11.94 16.869v1.082h-1.301v6.363h-1.257v-6.363h-1.3v-1.082h3.858zM15.616 18.821v5.493h-1.115v-0.602c-0.207 0.223-0.42 0.393-0.644 0.507-0.223 0.12-0.438 0.176-0.648 0.176-0.259 0-0.451-0.081-0.583-0.245-0.129-0.164-0.195-0.408-0.195-0.737v-4.592h1.115v4.214c0 0.13 0.024 0.223 0.069 0.281 0.049 0.061 0.125 0.088 0.23 0.088 0.080 0 0.186-0.038 0.311-0.116 0.127-0.077 0.241-0.175 0.346-0.295v-4.172l1.115-0zM19.662 20.132v3.048c0 0.388-0.086 0.686-0.261 0.895s-0.429 0.311-0.758 0.311c-0.22 0-0.415-0.039-0.584-0.12s-0.33-0.203-0.477-0.373v0.421h-1.128v-7.445h1.128v2.397c0.15-0.165 0.311-0.294 0.478-0.381 0.171-0.088 0.341-0.131 0.515-0.131 0.353 0 0.622 0.115 0.808 0.35s0.278 0.578 0.278 1.027v0zM23.531 22.485v0.281c0 0.563-0.139 0.987-0.421 1.273-0.278 0.284-0.696 0.425-1.252 0.425-0.5 0-0.893-0.151-1.18-0.453-0.285-0.3-0.431-0.716-0.431-1.245v-2.468c0-0.475 0.158-0.866 0.475-1.166s0.72-0.448 1.221-0.448c0.511 0 0.904 0.139 1.177 0.417 0.274 0.277 0.412 0.677 0.412 1.197v1.401h-2.134v1.035c0 0.289 0.035 0.49 0.109 0.602s0.201 0.166 0.378 0.166c0.185 0 0.314-0.047 0.388-0.142s0.111-0.303 0.111-0.626v-0.249l1.148 0zM21.397 20.845h0.986v-0.556c0-0.23-0.040-0.396-0.117-0.493-0.076-0.101-0.202-0.152-0.37-0.152-0.179 0-0.306 0.051-0.383 0.152-0.079 0.097-0.116 0.263-0.116 0.493v0.556zM18.416 23.407c0.064-0.077 0.098-0.203 0.098-0.378v-2.836c0-0.187-0.039-0.326-0.117-0.423-0.082-0.095-0.197-0.142-0.348-0.142-0.079 0-0.158 0.016-0.236 0.053-0.078 0.035-0.155 0.092-0.23 0.167v3.423c0.090 0.088 0.178 0.157 0.264 0.196 0.086 0.037 0.175 0.060 0.269 0.060 0.138 0 0.238-0.039 0.301-0.119v0zM12.246 10.159l1.646-4.8h-1.436l-0.876 3.279h-0.089l-0.918-3.279h-1.423l1.683 4.953v3.251h1.414v-3.403zM17.152 13.273c0.324-0.296 0.487-0.7 0.487-1.218v-3.126c0-0.461-0.166-0.84-0.496-1.132-0.333-0.292-0.759-0.439-1.279-0.439-0.57 0-1.026 0.139-1.364 0.417-0.337 0.277-0.506 0.649-0.506 1.119v3.136c0 0.515 0.165 0.923 0.494 1.227s0.769 0.457 1.319 0.457c0.571-0 1.018-0.147 1.345-0.442v0zM16.36 8.848v3.297c0 0.162-0.051 0.29-0.151 0.383s-0.235 0.139-0.406 0.139c-0.165 0-0.293-0.044-0.382-0.137s-0.134-0.219-0.134-0.385v-3.297c0-0.131 0.048-0.238 0.143-0.321 0.098-0.081 0.221-0.121 0.374-0.121 0.167 0 0.301 0.039 0.403 0.121 0.102 0.083 0.154 0.189 0.154 0.321v0zM20.984 13.562h1.258v-6.052h-1.258v4.594c-0.116 0.132-0.244 0.239-0.386 0.325-0.141 0.085-0.259 0.127-0.35 0.127-0.118 0-0.204-0.032-0.255-0.097-0.052-0.063-0.082-0.167-0.082-0.309v-4.64h-1.253v5.057c0 0.362 0.073 0.631 0.219 0.81 0.148 0.18 0.365 0.272 0.657 0.272 0.236 0 0.478-0.065 0.729-0.193 0.251-0.129 0.493-0.317 0.721-0.565v0.67z"></path>
</svg>
