<!-- Generated by IcoMoon.io -->
<svg version="1.1" xmlns="http://www.w3.org/2000/svg" width="128" height="32" viewBox="0 0 128 32">
<title>untitled27</title>
<path d="M10.62 2.322c2.145 0 4.289 0 6.469 0 1.782 6.984 3.565 13.971 5.348 20.958 0.012-0.001 0.023-0.002 0.034-0.004 0.326-1.249 0.649-2.5 0.977-3.748 1.040-3.95 2.078-7.9 3.127-11.847 0.258-0.971 0.522-1.943 0.842-2.895 0.284-0.844 0.777-1.567 1.543-2.064 0.537-0.348 1.125-0.527 1.77-0.579 0.564-0.046 1.115-0.026 1.656 0.11 1.17 0.294 1.981 1.046 2.434 2.132 0.332 0.796 0.568 1.635 0.793 2.47 0.852 3.169 1.685 6.344 2.52 9.518 0.591 2.248 1.175 4.499 1.762 6.748 0.014 0.054 0.035 0.105 0.068 0.201 1.793-7.024 3.576-14.009 5.359-20.994 2.149 0 4.278 0 6.427 0-0.007 0.060-0.005 0.114-0.019 0.163-0.697 2.517-1.394 5.034-2.094 7.55-0.751 2.697-1.501 5.395-2.26 8.090-0.754 2.675-1.517 5.348-2.282 8.020-0.217 0.758-0.416 1.524-0.792 2.227-0.601 1.125-1.435 2-2.671 2.416-0.321 0.108-0.666 0.142-1 0.212-0.037 0.008-0.072 0.027-0.108 0.041-0.224 0-0.449 0-0.673 0-0.050-0.014-0.099-0.036-0.15-0.042-0.879-0.099-1.66-0.42-2.319-1.020-0.846-0.769-1.337-1.752-1.646-2.828-0.624-2.174-1.233-4.352-1.835-6.532-0.729-2.638-1.445-5.279-2.167-7.918-0.171-0.626-0.341-1.251-0.522-1.917-0.032 0.108-0.052 0.173-0.070 0.239-0.604 2.216-1.203 4.434-1.813 6.648-0.794 2.88-1.595 5.759-2.395 8.637-0.251 0.903-0.515 1.802-1.020 2.606-0.653 1.039-1.534 1.766-2.766 2.009-0.208 0.041-0.417 0.077-0.625 0.116-0.224 0-0.449 0-0.673 0-0.022-0.013-0.043-0.037-0.066-0.039-1.414-0.13-2.471-0.848-3.279-1.983-0.502-0.706-0.792-1.505-1.026-2.328-1.058-3.726-2.12-7.451-3.168-11.179-1.112-3.958-2.208-7.92-3.313-11.88-0.119-0.427-0.252-0.85-0.378-1.274 0.001-0.013 0.001-0.028 0.001-0.042zM100.414 11.324c0.010 1.062-0.237 2.049-0.871 2.917-0.616 0.845-1.444 1.341-2.482 1.503-1.436 0.223-2.632-0.211-3.59-1.293-0.447-0.505-0.71-1.109-0.884-1.756-0.137-0.508-0.174-1.023-0.173-1.547 0.003-3.433 0.002-6.865 0.002-10.298 0-0.070 0.003-0.14 0.005-0.209 2.663 0 5.327 0 7.991 0-0.008 0.013-0.008 0.027 0.001 0.040 0 3.548 0.001 7.095 0.001 10.644zM70.552 0.64c0.189 0.028 0.377 0.060 0.566 0.083 1.352 0.164 2.614 1.276 2.908 2.593 0.424 1.904-0.663 3.62-2.568 4.129-1.13 0.302-2.187 0.112-3.142-0.563-0.786-0.556-1.291-1.332-1.408-2.272-0.267-2.151 1.298-3.642 2.951-3.888 0.175-0.026 0.35-0.054 0.525-0.082 0.055-0.001 0.111-0.001 0.167-0.001zM85.098 0.673c1.194 0.003 2.388 0.005 3.582 0.008 0.005 0.084 0.012 0.167 0.012 0.251 0.001 3.42 0.001 6.84 0.001 10.26 0 0.098 0.003 0.196 0.005 0.294 0.005 0.074 0.010 0.148 0.014 0.222-0.017 0.797 0.099 1.584 0.313 2.344 0.686 2.448 2.22 4.098 4.699 4.788 0.555 0.155 1.134 0.24 1.709 0.298 0.554 0.056 1.118 0.081 1.672 0.042 1.583-0.113 3.084-0.496 4.374-1.488 1.168-0.899 1.9-2.087 2.289-3.488 0.149-0.538 0.245-1.098 0.295-1.654 0.066-0.734 0.087-1.475 0.089-2.213 0.009-3.132 0.004-6.265 0.004-9.397 0-0.084 0.003-0.168 0.005-0.252 1.102-0.001 2.203-0.003 3.304-0.005 0.091 0 0.181-0.006 0.272-0.010 0.914 0.013 1.767 0.227 2.5 0.798 0.664 0.518 1.053 1.207 1.241 2.027 0.134 0.584 0.129 1.172 0.129 1.762-0.001 4.121-0.002 8.242-0.002 12.362 0 0.958-0.096 1.9-0.451 2.8-0.601 1.522-1.744 2.413-3.304 2.8-0.608 0.15-1.228 0.217-1.859 0.217-6.566-0.005-13.133 0.020-19.7-0.022-1.42-0.009-2.735-0.495-3.739-1.589-0.534-0.582-0.876-1.275-1.060-2.037-0.102-0.421-0.148-0.857-0.216-1.286-0.016-0.094-0.021-0.19-0.031-0.285 0.010-0.074 0.030-0.148 0.030-0.223 0.002-4.505 0.002-9.009 0-13.513 0-0.074-0.019-0.149-0.030-0.223 0.142-1.678 1.005-3.103 2.959-3.49 0.293-0.057 0.595-0.064 0.893-0.094zM61.141 30.816c-2.037 0-4.052 0-6.085 0 0-6.587 0-13.17 0-19.767 2.028 0 4.054 0 6.085 0 0 6.591 0 13.173 0 19.767zM67.49 11.039c2.036 0 4.047 0 6.074 0 0 6.59 0 13.173 0 19.772-2.018 0-4.039 0-6.074 0 0-6.589 0-13.172 0-19.772zM58.311 0.674c1.179 0.043 2.332 0.618 3.010 1.926 0.802 1.548 0.299 3.466-1.277 4.419-0.721 0.436-1.515 0.641-2.34 0.55-1.645-0.18-2.916-1.276-3.208-2.88-0.272-1.495 0.533-2.979 1.915-3.644 0.593-0.285 1.032-0.375 1.901-0.371zM117.874 1.257c-0.171 0.565-0.341 1.13-0.512 1.694-0.012 0.040-0.023 0.080-0.036 0.12-0.078 0.255-0.2 0.329-0.452 0.253-0.048-0.014-0.091-0.093-0.109-0.151-0.182-0.594-0.359-1.189-0.537-1.784-0.015-0.052-0.034-0.104-0.082-0.154 0 0.691 0 1.381 0 2.084-0.139 0-0.253 0-0.382 0 0-0.879 0-1.749 0-2.647 0.183 0 0.357-0.013 0.527 0.008 0.056 0.007 0.124 0.098 0.144 0.164 0.174 0.553 0.338 1.108 0.505 1.662 0.023 0.077 0.052 0.153 0.095 0.282 0.205-0.668 0.397-1.278 0.575-1.892 0.048-0.166 0.112-0.252 0.297-0.227 0.129 0.017 0.263 0.003 0.407 0.003 0 0.892 0 1.763 0 2.647-0.128 0-0.251 0-0.398 0 0-0.684 0-1.37 0-2.056-0.014-0.002-0.029-0.004-0.043-0.006zM113.329 0.688c0.698 0 1.395 0 2.092 0 0 0.117 0 0.234 0 0.372-0.278 0-0.54 0-0.828 0 0 0.764 0 1.507 0 2.261-0.154 0-0.283 0-0.43 0 0-0.749 0-1.487 0-2.254-0.284 0-0.552 0-0.835 0 0-0.146 0-0.262 0-0.379z"></path>
</svg>
