<!-- Generated by IcoMoon.io -->
<svg version="1.1" xmlns="http://www.w3.org/2000/svg" width="32" height="32" viewBox="0 0 32 32">
<title>untitled21</title>
<path d="M2.488 0.8h27.023c0.932 0 1.689 0.757 1.689 1.688v27.023c0 0.932-0.756 1.689-1.689 1.689h-27.023c-0.933-0-1.688-0.757-1.688-1.689v-27.023c0-0.932 0.756-1.688 1.688-1.688v0zM16.707 5.364h-3.11c-0.139 1.137-0.395 2.074-0.767 2.808-0.37 0.736-0.861 1.365-1.475 1.892-0.612 0.525-1.608 0.926-2.466 1.208v3.12h2.97v7.726c0 1.007 0.105 1.776 0.315 2.306s0.584 1.032 1.129 1.503c0.541 0.467 1.197 0.831 1.964 1.087 0.768 0.253 1.358 0.38 2.358 0.38 0.88 0 1.7-0.091 2.457-0.268s1.605-0.489 2.537-0.932v-3.473c-1.095 0.723-2.197 1.086-3.303 1.086-0.624 0-1.175-0.145-1.66-0.438-0.364-0.217-0.7-0.59-0.833-0.95-0.134-0.363-0.118-1.099-0.118-2.377v-5.649h5.056v-3.933h-5.056v-5.095h0z"></path>
</svg>
