<!-- Generated by IcoMoon.io -->
<svg version="1.1" xmlns="http://www.w3.org/2000/svg" width="32" height="32" viewBox="0 0 32 32">
<title>untitled22</title>
<path d="M2.488 0.8h27.023c0.932 0 1.689 0.756 1.689 1.688v27.023c0 0.932-0.756 1.689-1.689 1.689h-27.023c-0.933-0-1.688-0.757-1.688-1.689v-27.023c0-0.932 0.756-1.688 1.688-1.688v0zM16.256 19.971c2.672 0 4.838-2.105 4.838-4.701s-2.166-4.7-4.838-4.7-4.839 2.104-4.839 4.7c0 2.596 2.166 4.701 4.839 4.701v0zM26.962 10.922l0.053-2.179c0-2.058-1.717-3.727-3.837-3.727h-14.244c-2.119 0-3.942 1.668-3.942 3.727l0.026 2.179h7.523c0.993-0.841 2.292-1.246 3.713-1.246s2.72 0.405 3.714 1.246h6.992zM25.247 6.927v2.044c0 0.586-0.489 1.061-1.091 1.061h-2.003c-0.603 0-1.091-0.475-1.091-1.061v-2.044c0-0.585 0.488-1.060 1.091-1.060h2.003c0.602 0 1.091 0.475 1.091 1.060v0zM23.127 26.977c2.117 0 3.835-1.67 3.835-3.725v-11.524h-6.231c0.74 0.929 1.183 2.306 1.183 3.572 0 3.031-2.53 5.489-5.652 5.489-3.12 0-5.65-2.458-5.65-5.489 0-1.267 0.44-2.644 1.183-3.572h-6.776v11.524c0 2.056 1.717 3.725 3.836 3.725h14.272z"></path>
</svg>
