<!-- Generated by IcoMoon.io -->
<svg version="1.1" xmlns="http://www.w3.org/2000/svg" width="32" height="32" viewBox="0 0 32 32">
<title>Wii_family</title>
<path d="M20.3 20.093l1.083 1.082h-0.941c-0.079 0-0.143-0.064-0.143-0.142l0.001-0.939zM28.766 20.078v0.954c0 0.079-0.064 0.142-0.143 0.142h-0.956l1.099-1.097zM28.766 10.115v9.611l-1.453 1.45h-5.575l-1.438-1.434 0.006-9.633 8.46 0.007zM30.014 21.815c0 0.256-0.331 0.611-0.588 0.611h-9.758c-0.257 0-0.591-0.356-0.591-0.611v-11.784c0-0.256 0.219-0.37 0.476-0.37h1.055c0.019 0 0.032-0.002 0.032 0.007v0.155h-0.482c-0.079 0-0.145 0.064-0.145 0.144v11.214c0 0.153 0.126 0.278 0.281 0.278h8.477c0.155 0 0.281-0.125 0.281-0.278v-11.214c0-0.079-0.065-0.144-0.145-0.144h-0.456v-0.155c0-0.018 0.015-0.025 0.036-0.026 0.043-0.002 1.147-0.001 1.147-0.001 0.257 0 0.379 0.134 0.379 0.39v11.784zM29.537 9.026h-1.012c-0.373 0-0.687 0.173-0.832 0.52h-6.454c-0.126-0.347-0.406-0.52-0.747-0.52h-0.823c-0.699 0-1.228 0.47-1.228 1.121v11.553c0 0.671 0.668 1.362 1.344 1.362h9.526c0.647 0 1.282-0.655 1.282-1.362l0.058-11.553c0-0.684-0.445-1.121-1.114-1.121v0zM25.084 14.808c0 0.091 0.076 0.165 0.171 0.165 0.098 0 0.175-0.072 0.175-0.165s-0.077-0.164-0.175-0.164c-0.094 0-0.171 0.073-0.171 0.164zM25.113 16.079h0.291v-0.941h-0.291v0.941zM25.676 14.808c0 0.091 0.076 0.165 0.171 0.165 0.098 0 0.175-0.072 0.175-0.165s-0.077-0.164-0.175-0.164c-0.094 0-0.171 0.073-0.171 0.164zM25.704 16.079h0.292v-0.941h-0.292v0.941zM24.649 14.723l-0.256 1c0 0-0.195-0.75-0.227-0.857s-0.097-0.154-0.19-0.154c-0.093 0-0.158 0.047-0.191 0.154s-0.227 0.857-0.227 0.857l-0.256-1h-0.307c0 0 0.295 1.067 0.336 1.191 0.031 0.096 0.105 0.175 0.215 0.175 0.125 0 0.184-0.091 0.211-0.175s0.219-0.788 0.219-0.788 0.191 0.705 0.218 0.788c0.027 0.084 0.086 0.175 0.211 0.175 0.11 0 0.184-0.079 0.215-0.175 0.040-0.124 0.336-1.191 0.336-1.191h-0.307zM16.913 21.228c-0.097 0.101-1.074 1.124-1.074 1.124-0.034 0.043-0.1 0.074-0.157 0.074h-12.518v-0.347h11.652l1.195-1.254v-9.316h0.832c0.065 0 0.149 0.102 0.149 0.174 0 1.524 0.003 9.082 0.003 9.082 0 0.056 0.016 0.362-0.081 0.463v0zM2.875 22.426h-0.72c-0.058 0-0.206-0.048-0.206-0.104v-10.695c0-0.058 0.148-0.118 0.206-0.118h0.72v10.917zM1.312 21.329v-0.578h0.382v0.578h-0.382zM1.312 14.282v-0.52h0.382v0.52h-0.382zM1.312 13.127v-0.578h0.382v0.578h-0.382zM3.164 12.145h12.557v8.593l-1.043 1.111h-11.514v-9.704zM3.164 11.856v-0.347h8.275v0.347h-8.275zM11.728 11.856v-0.347h3.993v0.347h-3.993zM16.818 10.874h-14.547c-0.47 0-0.958 0.4-0.958 0.869v0.211c-0.347 0.064-0.637 0.371-0.637 0.74v1.536c0 0.369 0.289 0.56 0.637 0.624v5.132c-0.347 0.064-0.637 0.371-0.637 0.74v0.489c0 0.369 0.289 0.675 0.637 0.74v0.253c0 0.284 0.18 0.549 0.432 0.708 0.149 0.094 0.355 0.146 0.526 0.146h13.412c0.22 0 0.52-0.084 0.73-0.316l1.066-1.163c0.174-0.176 0.153-0.552 0.153-0.818v-9.023c0-0.511-0.339-0.869-0.813-0.869v0z"></path>
</svg>
