<!-- Generated by IcoMoon.io -->
<svg version="1.1" xmlns="http://www.w3.org/2000/svg" width="32" height="32" viewBox="0 0 32 32">
<title>Wii_U</title>
<path d="M4.862 18.218v-4.462h8.377v4.462h-8.377zM4.514 18.565h9.071v-5.157h-9.071v5.157zM9.048 19.22c-0.165 0-0.3 0.134-0.3 0.299s0.135 0.3 0.3 0.3c0.165 0 0.299-0.135 0.299-0.3s-0.134-0.299-0.299-0.299zM14.563 15.211c-0.179 0-0.325 0.146-0.325 0.325s0.146 0.325 0.325 0.325c0.18 0 0.326-0.146 0.326-0.325s-0.146-0.325-0.326-0.325zM3.545 15.289h-0.395c-0.007 0-0.012-0.005-0.012-0.011v-0.395c0-0.053-0.043-0.095-0.096-0.095h-0.322c-0.053 0-0.096 0.043-0.096 0.095v0.395c0 0.006-0.005 0.011-0.012 0.011h-0.395c-0.053 0-0.096 0.043-0.096 0.096v0.322c0 0.053 0.043 0.096 0.096 0.096h0.395c0.007 0 0.012 0.005 0.012 0.011v0.396c0 0.053 0.043 0.096 0.096 0.096h0.322c0.053 0 0.096-0.043 0.096-0.096v-0.396c0-0.007 0.006-0.010 0.010-0.011h0.397c0.053 0 0.095-0.043 0.095-0.096v-0.322c0-0.053-0.043-0.096-0.095-0.096zM9.045 12.108c0.123 0 0.222 0.1 0.222 0.223s-0.1 0.223-0.222 0.223c-0.123 0-0.223-0.1-0.223-0.223s0.1-0.223 0.223-0.223zM6.927 12.654h4.246c0.153 0 0.278-0.142 0.278-0.317s-0.125-0.319-0.278-0.319h-4.246c-0.153 0-0.278 0.143-0.278 0.319s0.125 0.317 0.278 0.317zM2.837 13.605c0-0.351-0.286-0.636-0.637-0.636s-0.637 0.286-0.637 0.636c0 0.352 0.286 0.638 0.637 0.638s0.637-0.286 0.637-0.638zM15.284 15.859c-0.18 0-0.326 0.146-0.326 0.325s0.146 0.325 0.326 0.325c0.18 0 0.326-0.146 0.326-0.325s-0.146-0.325-0.326-0.325zM15.898 12.969c-0.351 0-0.637 0.286-0.637 0.636s0.286 0.638 0.637 0.638c0.351 0 0.637-0.286 0.637-0.638s-0.286-0.636-0.637-0.636zM17.404 17.081c0 0.531-0.032 0.939-0.1 1.283-0.084 0.423-0.225 0.762-0.432 1.037-0.479 0.636-1.344 0.946-2.645 0.946h-10.353c-1.302 0-2.167-0.309-2.646-0.946-0.207-0.275-0.348-0.614-0.431-1.037-0.068-0.345-0.1-0.752-0.1-1.284l-0.001-2.455c0-0.689 0.033-1.473 0.422-2.046 0.211-0.311 0.503-0.539 0.89-0.696 0.425-0.172 0.974-0.259 1.632-0.259h10.823c0.658 0 1.207 0.087 1.632 0.259 0.387 0.157 0.678 0.384 0.89 0.696 0.389 0.573 0.422 1.357 0.422 2.046v2.455zM17.509 12.223c-0.564-0.83-1.56-1.234-3.048-1.234h-10.823c-1.488 0-2.485 0.404-3.049 1.234-0.491 0.723-0.532 1.62-0.532 2.404l0.001 2.456c0 0.573 0.036 1.020 0.112 1.407 0.103 0.519 0.282 0.943 0.547 1.296 0.607 0.807 1.639 1.2 3.155 1.2h10.353c1.515 0 2.547-0.392 3.154-1.199 0.266-0.353 0.445-0.777 0.548-1.296 0.077-0.387 0.112-0.834 0.112-1.407v-2.455c0-0.784-0.041-1.681-0.531-2.403v0zM15.284 14.563c-0.18 0-0.326 0.146-0.326 0.326s0.146 0.325 0.326 0.325c0.18 0 0.326-0.146 0.326-0.325s-0.146-0.326-0.326-0.326zM15.991 15.211c-0.179 0-0.325 0.146-0.325 0.325s0.146 0.325 0.325 0.325c0.179 0 0.325-0.146 0.325-0.325s-0.146-0.325-0.325-0.325zM19.54 17.451c0.038-0.029 0.087-0.047 0.158-0.059 0.072-0.010 0.14-0.015 0.208-0.015 0.011 0 0.022 0 0.035 0l10.601-0c0.017-0 0.033-0.001 0.050-0.001h0c0.131 0 0.294 0.012 0.385 0.107 0.098 0.104 0.15 0.261 0.183 0.386 0.065 0.261 0.095 0.52 0.090 0.793-0.002 0.142-0.009 0.277-0.022 0.411l-0.002 0.022c-0.028 0.28-0.079 0.518-0.156 0.73-0.048 0.135-0.118 0.304-0.236 0.413-0.102 0.096-0.264 0.108-0.394 0.108-0.017 0-0.034-0-0.052-0.001l-10.3 0c-0.011 0-0.021 0-0.032 0-0.061 0-0.126-0.004-0.192-0.013-0.070-0.009-0.121-0.025-0.161-0.050-0.020-0.013-0.037-0.025-0.049-0.036-0.065-0.062-0.113-0.128-0.155-0.213-0.032-0.060-0.061-0.129-0.090-0.209-0.076-0.217-0.129-0.463-0.157-0.731-0.015-0.141-0.023-0.286-0.023-0.433-0.005-0.272 0.024-0.531 0.088-0.789 0.024-0.090 0.051-0.164 0.084-0.235 0.032-0.078 0.076-0.136 0.138-0.187v0zM19.906 17.052c-0.083 0.001-0.169 0.006-0.257 0.019-0.022 0.003-0.042 0.008-0.063 0.012l0.082-0.148c0.028-0.030 0.058-0.054 0.093-0.074 0.048-0.029 0.143-0.036 0.187-0.036l0.004 0 10.577-0c0.050 0 0.14 0.010 0.187 0.038 0.034 0.020 0.063 0.042 0.090 0.072l0.083 0.149c-0.11-0.027-0.22-0.031-0.302-0.031l-10.682 0zM28.856 13.829c0.2 0 0.249 0.069 0.295 0.135 0.033 0.048 0.073 0.12 0.074 0.121l1.341 2.416c-0.014-0.001-0.026-0.001-0.033-0.001l-0.009 0h-9.707l1.268-2.671h6.771zM20.457 16.499l-0.5 0c-0.003-0-0.007-0-0.014-0s-0.019 0-0.033 0.001l1.341-2.415c0-0.001 0.041-0.072 0.074-0.121 0.047-0.067 0.095-0.136 0.296-0.136h0.104l-1.268 2.671zM31.829 17.959l-0-0-0.002-0.010c-0.076-0.435-0.263-0.941-0.27-0.963l-0.015-0.041-0.021-0.039-1.739-3.131c-0.009-0.016-0.057-0.103-0.106-0.173l-0.003-0.004c-0.123-0.174-0.341-0.406-0.816-0.406h-7.235c-0.477 0-0.695 0.232-0.817 0.407-0.050 0.072-0.099 0.158-0.108 0.175l-1.74 3.133c-0.216 0.39-0.286 0.893-0.301 1.017-0.038 0.202-0.059 0.403-0.063 0.609l-0.003 0.034 0.003 0c-0 0.034-0 0.069 0 0.103 0.001 0.166 0.010 0.331 0.027 0.491 0.033 0.317 0.096 0.612 0.189 0.876 0.038 0.108 0.078 0.201 0.123 0.286 0.073 0.148 0.166 0.274 0.283 0.386l0.005 0.005 0.005 0.005c0.040 0.036 0.086 0.071 0.137 0.103l0.004 0.003 0.004 0.003c0.117 0.071 0.25 0.116 0.408 0.138 0.095 0.013 10.757 0.019 10.777 0.019 0.131 0 0.415 0 0.713-0.279 0.218-0.202 0.328-0.461 0.401-0.664 0.094-0.261 0.157-0.549 0.19-0.881l0.001-0.006 0-0.006c0.003-0.032 0.024-0.315 0.026-0.474 0.004-0.245-0.014-0.479-0.056-0.714v0zM20.097 19.245c-0.115 0-0.222 0.045-0.3 0.127s-0.117 0.188-0.111 0.302c0.005 0.113 0.054 0.219 0.139 0.299 0.083 0.079 0.192 0.122 0.305 0.122 0.115 0 0.221-0.045 0.299-0.126s0.117-0.187 0.113-0.3c-0.010-0.234-0.21-0.424-0.445-0.424zM19.872 18.455h0.36c0.067 0 0.13-0.026 0.176-0.075s0.071-0.113 0.068-0.183c-0.002-0.030-0.008-0.058-0.019-0.087-0.015-0.035-0.034-0.064-0.062-0.091-0.053-0.051-0.109-0.073-0.18-0.073h-0.361c-0.073 0-0.129 0.024-0.179 0.077-0.024 0.026-0.041 0.055-0.052 0.087-0.010 0.029-0.014 0.059-0.013 0.092 0.006 0.139 0.124 0.252 0.262 0.252zM28.717 19.425l-0.017 0.388h-5.241l-0.009-0.388h5.267zM28.77 19.1h-5.37c-0.077 0-0.148 0.030-0.201 0.083-0.050 0.051-0.077 0.118-0.075 0.189l0.015 0.687c0 0.044 0.036 0.079 0.080 0.079h5.718c0.044 0 0.080-0.035 0.081-0.077l0.027-0.688c0.002-0.071-0.024-0.138-0.073-0.19-0.052-0.054-0.123-0.084-0.201-0.084v0zM21.129 18.464c0.912 0.016 1.825 0.031 2.737 0.047l1.368 0.023h0.721c0 0 2.739-0.046 4.107-0.070 0.145-0.002 0.267-0.122 0.273-0.268 0.003-0.072-0.023-0.141-0.072-0.192s-0.114-0.080-0.185-0.081c-0.731-0.012-1.462-0.025-2.193-0.037-0.642-0.011-1.284-0.022-1.928-0.033h-0.725c-0.649 0.011-1.297 0.022-1.946 0.033-0.725 0.012-1.449 0.025-2.173 0.037-0.072 0.001-0.138 0.030-0.187 0.082s-0.074 0.12-0.071 0.191c0.005 0.146 0.127 0.266 0.272 0.268z"></path>
</svg>
